G04 #@! TF.FileFunction,Legend,Top*
%FSLAX46Y46*%
G04 Gerber Fmt 4.6, Leading zero omitted, Abs format (unit mm)*
G04 Created by KiCad (PCBNEW 4.0.7) date 09/22/19 17:23:00*
%MOMM*%
%LPD*%
G01*
G04 APERTURE LIST*
%ADD10C,0.100000*%
%ADD11C,0.150000*%
%ADD12C,0.300000*%
%ADD13C,0.120000*%
G04 APERTURE END LIST*
D10*
D11*
X188285714Y-88447619D02*
X188333333Y-88400000D01*
X188428571Y-88352381D01*
X188666667Y-88352381D01*
X188761905Y-88400000D01*
X188809524Y-88447619D01*
X188857143Y-88542857D01*
X188857143Y-88638095D01*
X188809524Y-88780952D01*
X188238095Y-89352381D01*
X188857143Y-89352381D01*
X189428571Y-88780952D02*
X189333333Y-88733333D01*
X189285714Y-88685714D01*
X189238095Y-88590476D01*
X189238095Y-88542857D01*
X189285714Y-88447619D01*
X189333333Y-88400000D01*
X189428571Y-88352381D01*
X189619048Y-88352381D01*
X189714286Y-88400000D01*
X189761905Y-88447619D01*
X189809524Y-88542857D01*
X189809524Y-88590476D01*
X189761905Y-88685714D01*
X189714286Y-88733333D01*
X189619048Y-88780952D01*
X189428571Y-88780952D01*
X189333333Y-88828571D01*
X189285714Y-88876190D01*
X189238095Y-88971429D01*
X189238095Y-89161905D01*
X189285714Y-89257143D01*
X189333333Y-89304762D01*
X189428571Y-89352381D01*
X189619048Y-89352381D01*
X189714286Y-89304762D01*
X189761905Y-89257143D01*
X189809524Y-89161905D01*
X189809524Y-88971429D01*
X189761905Y-88876190D01*
X189714286Y-88828571D01*
X189619048Y-88780952D01*
X190809524Y-89257143D02*
X190761905Y-89304762D01*
X190619048Y-89352381D01*
X190523810Y-89352381D01*
X190380952Y-89304762D01*
X190285714Y-89209524D01*
X190238095Y-89114286D01*
X190190476Y-88923810D01*
X190190476Y-88780952D01*
X190238095Y-88590476D01*
X190285714Y-88495238D01*
X190380952Y-88400000D01*
X190523810Y-88352381D01*
X190619048Y-88352381D01*
X190761905Y-88400000D01*
X190809524Y-88447619D01*
X191666667Y-88352381D02*
X191476190Y-88352381D01*
X191380952Y-88400000D01*
X191333333Y-88447619D01*
X191238095Y-88590476D01*
X191190476Y-88780952D01*
X191190476Y-89161905D01*
X191238095Y-89257143D01*
X191285714Y-89304762D01*
X191380952Y-89352381D01*
X191571429Y-89352381D01*
X191666667Y-89304762D01*
X191714286Y-89257143D01*
X191761905Y-89161905D01*
X191761905Y-88923810D01*
X191714286Y-88828571D01*
X191666667Y-88780952D01*
X191571429Y-88733333D01*
X191380952Y-88733333D01*
X191285714Y-88780952D01*
X191238095Y-88828571D01*
X191190476Y-88923810D01*
X192619048Y-88685714D02*
X192619048Y-89352381D01*
X192380952Y-88304762D02*
X192142857Y-89019048D01*
X192761905Y-89019048D01*
D10*
X184595238Y-94646667D02*
X184557142Y-94608571D01*
X184480952Y-94494286D01*
X184442857Y-94418095D01*
X184404761Y-94303810D01*
X184366666Y-94113333D01*
X184366666Y-93960952D01*
X184404761Y-93770476D01*
X184442857Y-93656190D01*
X184480952Y-93580000D01*
X184557142Y-93465714D01*
X184595238Y-93427619D01*
X184861904Y-94113333D02*
X185242856Y-94113333D01*
X184785713Y-94341905D02*
X185052380Y-93541905D01*
X185319047Y-94341905D01*
X186004761Y-94341905D02*
X185547618Y-94341905D01*
X185776189Y-94341905D02*
X185776189Y-93541905D01*
X185699999Y-93656190D01*
X185623808Y-93732381D01*
X185547618Y-93770476D01*
X186271428Y-93541905D02*
X186766666Y-93541905D01*
X186499999Y-93846667D01*
X186614285Y-93846667D01*
X186690475Y-93884762D01*
X186728571Y-93922857D01*
X186766666Y-93999048D01*
X186766666Y-94189524D01*
X186728571Y-94265714D01*
X186690475Y-94303810D01*
X186614285Y-94341905D01*
X186385713Y-94341905D01*
X186309523Y-94303810D01*
X186271428Y-94265714D01*
X187680952Y-93503810D02*
X186995237Y-94532381D01*
X187909523Y-94113333D02*
X188290475Y-94113333D01*
X187833332Y-94341905D02*
X188099999Y-93541905D01*
X188366666Y-94341905D01*
X189052380Y-94341905D02*
X188595237Y-94341905D01*
X188823808Y-94341905D02*
X188823808Y-93541905D01*
X188747618Y-93656190D01*
X188671427Y-93732381D01*
X188595237Y-93770476D01*
X189738094Y-93808571D02*
X189738094Y-94341905D01*
X189547618Y-93503810D02*
X189357142Y-94075238D01*
X189852380Y-94075238D01*
X190995238Y-93541905D02*
X190995238Y-94113333D01*
X190957142Y-94227619D01*
X190880952Y-94303810D01*
X190766666Y-94341905D01*
X190690476Y-94341905D01*
X191719047Y-93808571D02*
X191719047Y-94341905D01*
X191376190Y-93808571D02*
X191376190Y-94227619D01*
X191414285Y-94303810D01*
X191490476Y-94341905D01*
X191604762Y-94341905D01*
X191680952Y-94303810D01*
X191719047Y-94265714D01*
X192100000Y-94341905D02*
X192100000Y-93808571D01*
X192100000Y-93884762D02*
X192138095Y-93846667D01*
X192214286Y-93808571D01*
X192328572Y-93808571D01*
X192404762Y-93846667D01*
X192442857Y-93922857D01*
X192442857Y-94341905D01*
X192442857Y-93922857D02*
X192480953Y-93846667D01*
X192557143Y-93808571D01*
X192671429Y-93808571D01*
X192747619Y-93846667D01*
X192785714Y-93922857D01*
X192785714Y-94341905D01*
X193166667Y-93808571D02*
X193166667Y-94608571D01*
X193166667Y-93846667D02*
X193242858Y-93808571D01*
X193395239Y-93808571D01*
X193471429Y-93846667D01*
X193509524Y-93884762D01*
X193547620Y-93960952D01*
X193547620Y-94189524D01*
X193509524Y-94265714D01*
X193471429Y-94303810D01*
X193395239Y-94341905D01*
X193242858Y-94341905D01*
X193166667Y-94303810D01*
X194195239Y-94303810D02*
X194119049Y-94341905D01*
X193966668Y-94341905D01*
X193890477Y-94303810D01*
X193852382Y-94227619D01*
X193852382Y-93922857D01*
X193890477Y-93846667D01*
X193966668Y-93808571D01*
X194119049Y-93808571D01*
X194195239Y-93846667D01*
X194233334Y-93922857D01*
X194233334Y-93999048D01*
X193852382Y-94075238D01*
X194576191Y-94341905D02*
X194576191Y-93808571D01*
X194576191Y-93960952D02*
X194614286Y-93884762D01*
X194652382Y-93846667D01*
X194728572Y-93808571D01*
X194804763Y-93808571D01*
X195376191Y-94303810D02*
X195300001Y-94341905D01*
X195147620Y-94341905D01*
X195071429Y-94303810D01*
X195033334Y-94227619D01*
X195033334Y-93922857D01*
X195071429Y-93846667D01*
X195147620Y-93808571D01*
X195300001Y-93808571D01*
X195376191Y-93846667D01*
X195414286Y-93922857D01*
X195414286Y-93999048D01*
X195033334Y-94075238D01*
X196100000Y-94341905D02*
X196100000Y-93541905D01*
X196100000Y-94303810D02*
X196023810Y-94341905D01*
X195871429Y-94341905D01*
X195795238Y-94303810D01*
X195757143Y-94265714D01*
X195719048Y-94189524D01*
X195719048Y-93960952D01*
X195757143Y-93884762D01*
X195795238Y-93846667D01*
X195871429Y-93808571D01*
X196023810Y-93808571D01*
X196100000Y-93846667D01*
X196404763Y-94646667D02*
X196442858Y-94608571D01*
X196519048Y-94494286D01*
X196557144Y-94418095D01*
X196595239Y-94303810D01*
X196633334Y-94113333D01*
X196633334Y-93960952D01*
X196595239Y-93770476D01*
X196557144Y-93656190D01*
X196519048Y-93580000D01*
X196442858Y-93465714D01*
X196404763Y-93427619D01*
X186252382Y-90836667D02*
X186214286Y-90798571D01*
X186138096Y-90684286D01*
X186100001Y-90608095D01*
X186061905Y-90493810D01*
X186023810Y-90303333D01*
X186023810Y-90150952D01*
X186061905Y-89960476D01*
X186100001Y-89846190D01*
X186138096Y-89770000D01*
X186214286Y-89655714D01*
X186252382Y-89617619D01*
X186519048Y-90303333D02*
X186900000Y-90303333D01*
X186442857Y-90531905D02*
X186709524Y-89731905D01*
X186976191Y-90531905D01*
X187661905Y-90531905D02*
X187204762Y-90531905D01*
X187433333Y-90531905D02*
X187433333Y-89731905D01*
X187357143Y-89846190D01*
X187280952Y-89922381D01*
X187204762Y-89960476D01*
X187928572Y-89731905D02*
X188423810Y-89731905D01*
X188157143Y-90036667D01*
X188271429Y-90036667D01*
X188347619Y-90074762D01*
X188385715Y-90112857D01*
X188423810Y-90189048D01*
X188423810Y-90379524D01*
X188385715Y-90455714D01*
X188347619Y-90493810D01*
X188271429Y-90531905D01*
X188042857Y-90531905D01*
X187966667Y-90493810D01*
X187928572Y-90455714D01*
X189338096Y-89693810D02*
X188652381Y-90722381D01*
X189566667Y-90303333D02*
X189947619Y-90303333D01*
X189490476Y-90531905D02*
X189757143Y-89731905D01*
X190023810Y-90531905D01*
X190709524Y-90531905D02*
X190252381Y-90531905D01*
X190480952Y-90531905D02*
X190480952Y-89731905D01*
X190404762Y-89846190D01*
X190328571Y-89922381D01*
X190252381Y-89960476D01*
X191395238Y-89998571D02*
X191395238Y-90531905D01*
X191204762Y-89693810D02*
X191014286Y-90265238D01*
X191509524Y-90265238D01*
X192423810Y-90531905D02*
X192423810Y-89731905D01*
X192880953Y-90531905D01*
X192880953Y-89731905D01*
X193261905Y-90455714D02*
X193300000Y-90493810D01*
X193261905Y-90531905D01*
X193223810Y-90493810D01*
X193261905Y-90455714D01*
X193261905Y-90531905D01*
X194100000Y-90455714D02*
X194061905Y-90493810D01*
X193947619Y-90531905D01*
X193871429Y-90531905D01*
X193757143Y-90493810D01*
X193680952Y-90417619D01*
X193642857Y-90341429D01*
X193604762Y-90189048D01*
X193604762Y-90074762D01*
X193642857Y-89922381D01*
X193680952Y-89846190D01*
X193757143Y-89770000D01*
X193871429Y-89731905D01*
X193947619Y-89731905D01*
X194061905Y-89770000D01*
X194100000Y-89808095D01*
X194442857Y-90455714D02*
X194480952Y-90493810D01*
X194442857Y-90531905D01*
X194404762Y-90493810D01*
X194442857Y-90455714D01*
X194442857Y-90531905D01*
X194747619Y-90836667D02*
X194785714Y-90798571D01*
X194861904Y-90684286D01*
X194900000Y-90608095D01*
X194938095Y-90493810D01*
X194976190Y-90303333D01*
X194976190Y-90150952D01*
X194938095Y-89960476D01*
X194900000Y-89846190D01*
X194861904Y-89770000D01*
X194785714Y-89655714D01*
X194747619Y-89617619D01*
D11*
X178745238Y-131865714D02*
X178745238Y-132675238D01*
X178697619Y-132770476D01*
X178650000Y-132818095D01*
X178554761Y-132865714D01*
X178411904Y-132865714D01*
X178316666Y-132818095D01*
X178745238Y-132484762D02*
X178650000Y-132532381D01*
X178459523Y-132532381D01*
X178364285Y-132484762D01*
X178316666Y-132437143D01*
X178269047Y-132341905D01*
X178269047Y-132056190D01*
X178316666Y-131960952D01*
X178364285Y-131913333D01*
X178459523Y-131865714D01*
X178650000Y-131865714D01*
X178745238Y-131913333D01*
X179221428Y-132532381D02*
X179221428Y-131865714D01*
X179221428Y-131532381D02*
X179173809Y-131580000D01*
X179221428Y-131627619D01*
X179269047Y-131580000D01*
X179221428Y-131532381D01*
X179221428Y-131627619D01*
X179554761Y-131865714D02*
X179935713Y-131865714D01*
X179697618Y-131532381D02*
X179697618Y-132389524D01*
X179745237Y-132484762D01*
X179840475Y-132532381D01*
X179935713Y-132532381D01*
X180269047Y-132532381D02*
X180269047Y-131532381D01*
X180697619Y-132532381D02*
X180697619Y-132008571D01*
X180650000Y-131913333D01*
X180554762Y-131865714D01*
X180411904Y-131865714D01*
X180316666Y-131913333D01*
X180269047Y-131960952D01*
X181602381Y-131865714D02*
X181602381Y-132532381D01*
X181173809Y-131865714D02*
X181173809Y-132389524D01*
X181221428Y-132484762D01*
X181316666Y-132532381D01*
X181459524Y-132532381D01*
X181554762Y-132484762D01*
X181602381Y-132437143D01*
X182078571Y-132532381D02*
X182078571Y-131532381D01*
X182078571Y-131913333D02*
X182173809Y-131865714D01*
X182364286Y-131865714D01*
X182459524Y-131913333D01*
X182507143Y-131960952D01*
X182554762Y-132056190D01*
X182554762Y-132341905D01*
X182507143Y-132437143D01*
X182459524Y-132484762D01*
X182364286Y-132532381D01*
X182173809Y-132532381D01*
X182078571Y-132484762D01*
X182983333Y-132437143D02*
X183030952Y-132484762D01*
X182983333Y-132532381D01*
X182935714Y-132484762D01*
X182983333Y-132437143D01*
X182983333Y-132532381D01*
X183888095Y-132484762D02*
X183792857Y-132532381D01*
X183602380Y-132532381D01*
X183507142Y-132484762D01*
X183459523Y-132437143D01*
X183411904Y-132341905D01*
X183411904Y-132056190D01*
X183459523Y-131960952D01*
X183507142Y-131913333D01*
X183602380Y-131865714D01*
X183792857Y-131865714D01*
X183888095Y-131913333D01*
X184459523Y-132532381D02*
X184364285Y-132484762D01*
X184316666Y-132437143D01*
X184269047Y-132341905D01*
X184269047Y-132056190D01*
X184316666Y-131960952D01*
X184364285Y-131913333D01*
X184459523Y-131865714D01*
X184602381Y-131865714D01*
X184697619Y-131913333D01*
X184745238Y-131960952D01*
X184792857Y-132056190D01*
X184792857Y-132341905D01*
X184745238Y-132437143D01*
X184697619Y-132484762D01*
X184602381Y-132532381D01*
X184459523Y-132532381D01*
X185221428Y-132532381D02*
X185221428Y-131865714D01*
X185221428Y-131960952D02*
X185269047Y-131913333D01*
X185364285Y-131865714D01*
X185507143Y-131865714D01*
X185602381Y-131913333D01*
X185650000Y-132008571D01*
X185650000Y-132532381D01*
X185650000Y-132008571D02*
X185697619Y-131913333D01*
X185792857Y-131865714D01*
X185935714Y-131865714D01*
X186030952Y-131913333D01*
X186078571Y-132008571D01*
X186078571Y-132532381D01*
X187269047Y-131484762D02*
X186411904Y-132770476D01*
X187459523Y-131865714D02*
X187840475Y-131865714D01*
X187602380Y-131532381D02*
X187602380Y-132389524D01*
X187649999Y-132484762D01*
X187745237Y-132532381D01*
X187840475Y-132532381D01*
X188554762Y-132484762D02*
X188459524Y-132532381D01*
X188269047Y-132532381D01*
X188173809Y-132484762D01*
X188126190Y-132389524D01*
X188126190Y-132008571D01*
X188173809Y-131913333D01*
X188269047Y-131865714D01*
X188459524Y-131865714D01*
X188554762Y-131913333D01*
X188602381Y-132008571D01*
X188602381Y-132103810D01*
X188126190Y-132199048D01*
X189030952Y-132532381D02*
X189030952Y-131532381D01*
X189030952Y-131913333D02*
X189126190Y-131865714D01*
X189316667Y-131865714D01*
X189411905Y-131913333D01*
X189459524Y-131960952D01*
X189507143Y-132056190D01*
X189507143Y-132341905D01*
X189459524Y-132437143D01*
X189411905Y-132484762D01*
X189316667Y-132532381D01*
X189126190Y-132532381D01*
X189030952Y-132484762D01*
X190078571Y-132532381D02*
X189983333Y-132484762D01*
X189935714Y-132389524D01*
X189935714Y-131532381D01*
X179785000Y-130532143D02*
X179737381Y-130579762D01*
X179594524Y-130627381D01*
X179499286Y-130627381D01*
X179356428Y-130579762D01*
X179261190Y-130484524D01*
X179213571Y-130389286D01*
X179165952Y-130198810D01*
X179165952Y-130055952D01*
X179213571Y-129865476D01*
X179261190Y-129770238D01*
X179356428Y-129675000D01*
X179499286Y-129627381D01*
X179594524Y-129627381D01*
X179737381Y-129675000D01*
X179785000Y-129722619D01*
X180213571Y-130627381D02*
X180213571Y-129627381D01*
X180594524Y-129627381D01*
X180689762Y-129675000D01*
X180737381Y-129722619D01*
X180785000Y-129817857D01*
X180785000Y-129960714D01*
X180737381Y-130055952D01*
X180689762Y-130103571D01*
X180594524Y-130151190D01*
X180213571Y-130151190D01*
X181213571Y-129627381D02*
X181213571Y-130436905D01*
X181261190Y-130532143D01*
X181308809Y-130579762D01*
X181404047Y-130627381D01*
X181594524Y-130627381D01*
X181689762Y-130579762D01*
X181737381Y-130532143D01*
X181785000Y-130436905D01*
X181785000Y-129627381D01*
X183594524Y-130627381D02*
X183261190Y-130151190D01*
X183023095Y-130627381D02*
X183023095Y-129627381D01*
X183404048Y-129627381D01*
X183499286Y-129675000D01*
X183546905Y-129722619D01*
X183594524Y-129817857D01*
X183594524Y-129960714D01*
X183546905Y-130055952D01*
X183499286Y-130103571D01*
X183404048Y-130151190D01*
X183023095Y-130151190D01*
X184404048Y-130579762D02*
X184308810Y-130627381D01*
X184118333Y-130627381D01*
X184023095Y-130579762D01*
X183975476Y-130484524D01*
X183975476Y-130103571D01*
X184023095Y-130008333D01*
X184118333Y-129960714D01*
X184308810Y-129960714D01*
X184404048Y-130008333D01*
X184451667Y-130103571D01*
X184451667Y-130198810D01*
X183975476Y-130294048D01*
X184785000Y-129960714D02*
X185023095Y-130627381D01*
X185261191Y-129960714D01*
X185642143Y-130627381D02*
X185642143Y-129960714D01*
X185642143Y-129627381D02*
X185594524Y-129675000D01*
X185642143Y-129722619D01*
X185689762Y-129675000D01*
X185642143Y-129627381D01*
X185642143Y-129722619D01*
X186070714Y-130579762D02*
X186165952Y-130627381D01*
X186356428Y-130627381D01*
X186451667Y-130579762D01*
X186499286Y-130484524D01*
X186499286Y-130436905D01*
X186451667Y-130341667D01*
X186356428Y-130294048D01*
X186213571Y-130294048D01*
X186118333Y-130246429D01*
X186070714Y-130151190D01*
X186070714Y-130103571D01*
X186118333Y-130008333D01*
X186213571Y-129960714D01*
X186356428Y-129960714D01*
X186451667Y-130008333D01*
X186927857Y-130627381D02*
X186927857Y-129960714D01*
X186927857Y-129627381D02*
X186880238Y-129675000D01*
X186927857Y-129722619D01*
X186975476Y-129675000D01*
X186927857Y-129627381D01*
X186927857Y-129722619D01*
X187546904Y-130627381D02*
X187451666Y-130579762D01*
X187404047Y-130532143D01*
X187356428Y-130436905D01*
X187356428Y-130151190D01*
X187404047Y-130055952D01*
X187451666Y-130008333D01*
X187546904Y-129960714D01*
X187689762Y-129960714D01*
X187785000Y-130008333D01*
X187832619Y-130055952D01*
X187880238Y-130151190D01*
X187880238Y-130436905D01*
X187832619Y-130532143D01*
X187785000Y-130579762D01*
X187689762Y-130627381D01*
X187546904Y-130627381D01*
X188308809Y-129960714D02*
X188308809Y-130627381D01*
X188308809Y-130055952D02*
X188356428Y-130008333D01*
X188451666Y-129960714D01*
X188594524Y-129960714D01*
X188689762Y-130008333D01*
X188737381Y-130103571D01*
X188737381Y-130627381D01*
X189927857Y-130341667D02*
X190404048Y-130341667D01*
X189832619Y-130627381D02*
X190165952Y-129627381D01*
X190499286Y-130627381D01*
D12*
X174455716Y-128313571D02*
X173955716Y-127599286D01*
X173598573Y-128313571D02*
X173598573Y-126813571D01*
X174170001Y-126813571D01*
X174312859Y-126885000D01*
X174384287Y-126956429D01*
X174455716Y-127099286D01*
X174455716Y-127313571D01*
X174384287Y-127456429D01*
X174312859Y-127527857D01*
X174170001Y-127599286D01*
X173598573Y-127599286D01*
X175955716Y-128170714D02*
X175884287Y-128242143D01*
X175670001Y-128313571D01*
X175527144Y-128313571D01*
X175312859Y-128242143D01*
X175170001Y-128099286D01*
X175098573Y-127956429D01*
X175027144Y-127670714D01*
X175027144Y-127456429D01*
X175098573Y-127170714D01*
X175170001Y-127027857D01*
X175312859Y-126885000D01*
X175527144Y-126813571D01*
X175670001Y-126813571D01*
X175884287Y-126885000D01*
X175955716Y-126956429D01*
X177241430Y-126813571D02*
X176955716Y-126813571D01*
X176812859Y-126885000D01*
X176741430Y-126956429D01*
X176598573Y-127170714D01*
X176527144Y-127456429D01*
X176527144Y-128027857D01*
X176598573Y-128170714D01*
X176670001Y-128242143D01*
X176812859Y-128313571D01*
X177098573Y-128313571D01*
X177241430Y-128242143D01*
X177312859Y-128170714D01*
X177384287Y-128027857D01*
X177384287Y-127670714D01*
X177312859Y-127527857D01*
X177241430Y-127456429D01*
X177098573Y-127385000D01*
X176812859Y-127385000D01*
X176670001Y-127456429D01*
X176598573Y-127527857D01*
X176527144Y-127670714D01*
X178241430Y-127456429D02*
X178098572Y-127385000D01*
X178027144Y-127313571D01*
X177955715Y-127170714D01*
X177955715Y-127099286D01*
X178027144Y-126956429D01*
X178098572Y-126885000D01*
X178241430Y-126813571D01*
X178527144Y-126813571D01*
X178670001Y-126885000D01*
X178741430Y-126956429D01*
X178812858Y-127099286D01*
X178812858Y-127170714D01*
X178741430Y-127313571D01*
X178670001Y-127385000D01*
X178527144Y-127456429D01*
X178241430Y-127456429D01*
X178098572Y-127527857D01*
X178027144Y-127599286D01*
X177955715Y-127742143D01*
X177955715Y-128027857D01*
X178027144Y-128170714D01*
X178098572Y-128242143D01*
X178241430Y-128313571D01*
X178527144Y-128313571D01*
X178670001Y-128242143D01*
X178741430Y-128170714D01*
X178812858Y-128027857D01*
X178812858Y-127742143D01*
X178741430Y-127599286D01*
X178670001Y-127527857D01*
X178527144Y-127456429D01*
X179741429Y-126813571D02*
X179884286Y-126813571D01*
X180027143Y-126885000D01*
X180098572Y-126956429D01*
X180170001Y-127099286D01*
X180241429Y-127385000D01*
X180241429Y-127742143D01*
X180170001Y-128027857D01*
X180098572Y-128170714D01*
X180027143Y-128242143D01*
X179884286Y-128313571D01*
X179741429Y-128313571D01*
X179598572Y-128242143D01*
X179527143Y-128170714D01*
X179455715Y-128027857D01*
X179384286Y-127742143D01*
X179384286Y-127385000D01*
X179455715Y-127099286D01*
X179527143Y-126956429D01*
X179598572Y-126885000D01*
X179741429Y-126813571D01*
X180812857Y-126956429D02*
X180884286Y-126885000D01*
X181027143Y-126813571D01*
X181384286Y-126813571D01*
X181527143Y-126885000D01*
X181598572Y-126956429D01*
X181670000Y-127099286D01*
X181670000Y-127242143D01*
X181598572Y-127456429D01*
X180741429Y-128313571D01*
X181670000Y-128313571D01*
X183455714Y-128313571D02*
X183455714Y-126813571D01*
X183955714Y-127885000D01*
X184455714Y-126813571D01*
X184455714Y-128313571D01*
X185170000Y-128313571D02*
X185170000Y-127313571D01*
X185170000Y-126813571D02*
X185098571Y-126885000D01*
X185170000Y-126956429D01*
X185241428Y-126885000D01*
X185170000Y-126813571D01*
X185170000Y-126956429D01*
X186527143Y-128242143D02*
X186384286Y-128313571D01*
X186098572Y-128313571D01*
X185955714Y-128242143D01*
X185884286Y-128170714D01*
X185812857Y-128027857D01*
X185812857Y-127599286D01*
X185884286Y-127456429D01*
X185955714Y-127385000D01*
X186098572Y-127313571D01*
X186384286Y-127313571D01*
X186527143Y-127385000D01*
X187170000Y-128313571D02*
X187170000Y-127313571D01*
X187170000Y-127599286D02*
X187241428Y-127456429D01*
X187312857Y-127385000D01*
X187455714Y-127313571D01*
X187598571Y-127313571D01*
X188312857Y-128313571D02*
X188169999Y-128242143D01*
X188098571Y-128170714D01*
X188027142Y-128027857D01*
X188027142Y-127599286D01*
X188098571Y-127456429D01*
X188169999Y-127385000D01*
X188312857Y-127313571D01*
X188527142Y-127313571D01*
X188669999Y-127385000D01*
X188741428Y-127456429D01*
X188812857Y-127599286D01*
X188812857Y-128027857D01*
X188741428Y-128170714D01*
X188669999Y-128242143D01*
X188527142Y-128313571D01*
X188312857Y-128313571D01*
X190098571Y-128242143D02*
X189955714Y-128313571D01*
X189670000Y-128313571D01*
X189527142Y-128242143D01*
X189455714Y-128170714D01*
X189384285Y-128027857D01*
X189384285Y-127599286D01*
X189455714Y-127456429D01*
X189527142Y-127385000D01*
X189670000Y-127313571D01*
X189955714Y-127313571D01*
X190098571Y-127385000D01*
X190741428Y-128313571D02*
X190741428Y-126813571D01*
X191384285Y-128313571D02*
X191384285Y-127527857D01*
X191312856Y-127385000D01*
X191169999Y-127313571D01*
X190955714Y-127313571D01*
X190812856Y-127385000D01*
X190741428Y-127456429D01*
X192098571Y-128313571D02*
X192098571Y-127313571D01*
X192098571Y-126813571D02*
X192027142Y-126885000D01*
X192098571Y-126956429D01*
X192169999Y-126885000D01*
X192098571Y-126813571D01*
X192098571Y-126956429D01*
X193455714Y-128242143D02*
X193312857Y-128313571D01*
X193027143Y-128313571D01*
X192884285Y-128242143D01*
X192812857Y-128170714D01*
X192741428Y-128027857D01*
X192741428Y-127599286D01*
X192812857Y-127456429D01*
X192884285Y-127385000D01*
X193027143Y-127313571D01*
X193312857Y-127313571D01*
X193455714Y-127385000D01*
X194098571Y-128313571D02*
X194098571Y-126813571D01*
X194241428Y-127742143D02*
X194669999Y-128313571D01*
X194669999Y-127313571D02*
X194098571Y-127885000D01*
X195884285Y-128242143D02*
X195741428Y-128313571D01*
X195455714Y-128313571D01*
X195312857Y-128242143D01*
X195241428Y-128099286D01*
X195241428Y-127527857D01*
X195312857Y-127385000D01*
X195455714Y-127313571D01*
X195741428Y-127313571D01*
X195884285Y-127385000D01*
X195955714Y-127527857D01*
X195955714Y-127670714D01*
X195241428Y-127813571D01*
X196598571Y-127313571D02*
X196598571Y-128313571D01*
X196598571Y-127456429D02*
X196669999Y-127385000D01*
X196812857Y-127313571D01*
X197027142Y-127313571D01*
X197169999Y-127385000D01*
X197241428Y-127527857D01*
X197241428Y-128313571D01*
D13*
X191500000Y-82490000D02*
G75*
G02X189500000Y-82490000I-1000000J0D01*
G01*
X189500000Y-82490000D02*
X184040000Y-82490000D01*
X184040000Y-82490000D02*
X184040000Y-118170000D01*
X184040000Y-118170000D02*
X196960000Y-118170000D01*
X196960000Y-118170000D02*
X196960000Y-82490000D01*
X196960000Y-82490000D02*
X191500000Y-82490000D01*
X181550000Y-82430000D02*
X181550000Y-118230000D01*
X181550000Y-118230000D02*
X199450000Y-118230000D01*
X199450000Y-118230000D02*
X199450000Y-82430000D01*
X199450000Y-82430000D02*
X181550000Y-82430000D01*
X199450000Y-146855000D02*
X100270000Y-146855000D01*
X100270000Y-146855000D02*
X100270000Y-149515000D01*
X100270000Y-149515000D02*
X199450000Y-149515000D01*
X199450000Y-149515000D02*
X199450000Y-146855000D01*
X198500000Y-149515000D02*
X198500000Y-155515000D01*
X198500000Y-155515000D02*
X197740000Y-155515000D01*
X197740000Y-155515000D02*
X197740000Y-149515000D01*
X198440000Y-149515000D02*
X198440000Y-155515000D01*
X198320000Y-149515000D02*
X198320000Y-155515000D01*
X198200000Y-149515000D02*
X198200000Y-155515000D01*
X198080000Y-149515000D02*
X198080000Y-155515000D01*
X197960000Y-149515000D02*
X197960000Y-155515000D01*
X197840000Y-149515000D02*
X197840000Y-155515000D01*
X198500000Y-146525000D02*
X198500000Y-146855000D01*
X197740000Y-146525000D02*
X197740000Y-146855000D01*
X196850000Y-146855000D02*
X196850000Y-149515000D01*
X195960000Y-149515000D02*
X195960000Y-155515000D01*
X195960000Y-155515000D02*
X195200000Y-155515000D01*
X195200000Y-155515000D02*
X195200000Y-149515000D01*
X195960000Y-146457929D02*
X195960000Y-146855000D01*
X195200000Y-146457929D02*
X195200000Y-146855000D01*
X194310000Y-146855000D02*
X194310000Y-149515000D01*
X193420000Y-149515000D02*
X193420000Y-155515000D01*
X193420000Y-155515000D02*
X192660000Y-155515000D01*
X192660000Y-155515000D02*
X192660000Y-149515000D01*
X193420000Y-146457929D02*
X193420000Y-146855000D01*
X192660000Y-146457929D02*
X192660000Y-146855000D01*
X191770000Y-146855000D02*
X191770000Y-149515000D01*
X190880000Y-149515000D02*
X190880000Y-155515000D01*
X190880000Y-155515000D02*
X190120000Y-155515000D01*
X190120000Y-155515000D02*
X190120000Y-149515000D01*
X190880000Y-146457929D02*
X190880000Y-146855000D01*
X190120000Y-146457929D02*
X190120000Y-146855000D01*
X189230000Y-146855000D02*
X189230000Y-149515000D01*
X188340000Y-149515000D02*
X188340000Y-155515000D01*
X188340000Y-155515000D02*
X187580000Y-155515000D01*
X187580000Y-155515000D02*
X187580000Y-149515000D01*
X188340000Y-146457929D02*
X188340000Y-146855000D01*
X187580000Y-146457929D02*
X187580000Y-146855000D01*
X186690000Y-146855000D02*
X186690000Y-149515000D01*
X185800000Y-149515000D02*
X185800000Y-155515000D01*
X185800000Y-155515000D02*
X185040000Y-155515000D01*
X185040000Y-155515000D02*
X185040000Y-149515000D01*
X185800000Y-146457929D02*
X185800000Y-146855000D01*
X185040000Y-146457929D02*
X185040000Y-146855000D01*
X184150000Y-146855000D02*
X184150000Y-149515000D01*
X183260000Y-149515000D02*
X183260000Y-155515000D01*
X183260000Y-155515000D02*
X182500000Y-155515000D01*
X182500000Y-155515000D02*
X182500000Y-149515000D01*
X183260000Y-146457929D02*
X183260000Y-146855000D01*
X182500000Y-146457929D02*
X182500000Y-146855000D01*
X181610000Y-146855000D02*
X181610000Y-149515000D01*
X180720000Y-149515000D02*
X180720000Y-155515000D01*
X180720000Y-155515000D02*
X179960000Y-155515000D01*
X179960000Y-155515000D02*
X179960000Y-149515000D01*
X180720000Y-146457929D02*
X180720000Y-146855000D01*
X179960000Y-146457929D02*
X179960000Y-146855000D01*
X179070000Y-146855000D02*
X179070000Y-149515000D01*
X178180000Y-149515000D02*
X178180000Y-155515000D01*
X178180000Y-155515000D02*
X177420000Y-155515000D01*
X177420000Y-155515000D02*
X177420000Y-149515000D01*
X178180000Y-146457929D02*
X178180000Y-146855000D01*
X177420000Y-146457929D02*
X177420000Y-146855000D01*
X176530000Y-146855000D02*
X176530000Y-149515000D01*
X175640000Y-149515000D02*
X175640000Y-155515000D01*
X175640000Y-155515000D02*
X174880000Y-155515000D01*
X174880000Y-155515000D02*
X174880000Y-149515000D01*
X175640000Y-146457929D02*
X175640000Y-146855000D01*
X174880000Y-146457929D02*
X174880000Y-146855000D01*
X173990000Y-146855000D02*
X173990000Y-149515000D01*
X173100000Y-149515000D02*
X173100000Y-155515000D01*
X173100000Y-155515000D02*
X172340000Y-155515000D01*
X172340000Y-155515000D02*
X172340000Y-149515000D01*
X173100000Y-146457929D02*
X173100000Y-146855000D01*
X172340000Y-146457929D02*
X172340000Y-146855000D01*
X171450000Y-146855000D02*
X171450000Y-149515000D01*
X170560000Y-149515000D02*
X170560000Y-155515000D01*
X170560000Y-155515000D02*
X169800000Y-155515000D01*
X169800000Y-155515000D02*
X169800000Y-149515000D01*
X170560000Y-146457929D02*
X170560000Y-146855000D01*
X169800000Y-146457929D02*
X169800000Y-146855000D01*
X168910000Y-146855000D02*
X168910000Y-149515000D01*
X168020000Y-149515000D02*
X168020000Y-155515000D01*
X168020000Y-155515000D02*
X167260000Y-155515000D01*
X167260000Y-155515000D02*
X167260000Y-149515000D01*
X168020000Y-146457929D02*
X168020000Y-146855000D01*
X167260000Y-146457929D02*
X167260000Y-146855000D01*
X166370000Y-146855000D02*
X166370000Y-149515000D01*
X165480000Y-149515000D02*
X165480000Y-155515000D01*
X165480000Y-155515000D02*
X164720000Y-155515000D01*
X164720000Y-155515000D02*
X164720000Y-149515000D01*
X165480000Y-146457929D02*
X165480000Y-146855000D01*
X164720000Y-146457929D02*
X164720000Y-146855000D01*
X163830000Y-146855000D02*
X163830000Y-149515000D01*
X162940000Y-149515000D02*
X162940000Y-155515000D01*
X162940000Y-155515000D02*
X162180000Y-155515000D01*
X162180000Y-155515000D02*
X162180000Y-149515000D01*
X162940000Y-146457929D02*
X162940000Y-146855000D01*
X162180000Y-146457929D02*
X162180000Y-146855000D01*
X161290000Y-146855000D02*
X161290000Y-149515000D01*
X160400000Y-149515000D02*
X160400000Y-155515000D01*
X160400000Y-155515000D02*
X159640000Y-155515000D01*
X159640000Y-155515000D02*
X159640000Y-149515000D01*
X160400000Y-146457929D02*
X160400000Y-146855000D01*
X159640000Y-146457929D02*
X159640000Y-146855000D01*
X158750000Y-146855000D02*
X158750000Y-149515000D01*
X157860000Y-149515000D02*
X157860000Y-155515000D01*
X157860000Y-155515000D02*
X157100000Y-155515000D01*
X157100000Y-155515000D02*
X157100000Y-149515000D01*
X157860000Y-146457929D02*
X157860000Y-146855000D01*
X157100000Y-146457929D02*
X157100000Y-146855000D01*
X156210000Y-146855000D02*
X156210000Y-149515000D01*
X155320000Y-149515000D02*
X155320000Y-155515000D01*
X155320000Y-155515000D02*
X154560000Y-155515000D01*
X154560000Y-155515000D02*
X154560000Y-149515000D01*
X155320000Y-146457929D02*
X155320000Y-146855000D01*
X154560000Y-146457929D02*
X154560000Y-146855000D01*
X153670000Y-146855000D02*
X153670000Y-149515000D01*
X152780000Y-149515000D02*
X152780000Y-155515000D01*
X152780000Y-155515000D02*
X152020000Y-155515000D01*
X152020000Y-155515000D02*
X152020000Y-149515000D01*
X152780000Y-146457929D02*
X152780000Y-146855000D01*
X152020000Y-146457929D02*
X152020000Y-146855000D01*
X151130000Y-146855000D02*
X151130000Y-149515000D01*
X150240000Y-149515000D02*
X150240000Y-155515000D01*
X150240000Y-155515000D02*
X149480000Y-155515000D01*
X149480000Y-155515000D02*
X149480000Y-149515000D01*
X150240000Y-146457929D02*
X150240000Y-146855000D01*
X149480000Y-146457929D02*
X149480000Y-146855000D01*
X148590000Y-146855000D02*
X148590000Y-149515000D01*
X147700000Y-149515000D02*
X147700000Y-155515000D01*
X147700000Y-155515000D02*
X146940000Y-155515000D01*
X146940000Y-155515000D02*
X146940000Y-149515000D01*
X147700000Y-146457929D02*
X147700000Y-146855000D01*
X146940000Y-146457929D02*
X146940000Y-146855000D01*
X146050000Y-146855000D02*
X146050000Y-149515000D01*
X145160000Y-149515000D02*
X145160000Y-155515000D01*
X145160000Y-155515000D02*
X144400000Y-155515000D01*
X144400000Y-155515000D02*
X144400000Y-149515000D01*
X145160000Y-146457929D02*
X145160000Y-146855000D01*
X144400000Y-146457929D02*
X144400000Y-146855000D01*
X143510000Y-146855000D02*
X143510000Y-149515000D01*
X142620000Y-149515000D02*
X142620000Y-155515000D01*
X142620000Y-155515000D02*
X141860000Y-155515000D01*
X141860000Y-155515000D02*
X141860000Y-149515000D01*
X142620000Y-146457929D02*
X142620000Y-146855000D01*
X141860000Y-146457929D02*
X141860000Y-146855000D01*
X140970000Y-146855000D02*
X140970000Y-149515000D01*
X140080000Y-149515000D02*
X140080000Y-155515000D01*
X140080000Y-155515000D02*
X139320000Y-155515000D01*
X139320000Y-155515000D02*
X139320000Y-149515000D01*
X140080000Y-146457929D02*
X140080000Y-146855000D01*
X139320000Y-146457929D02*
X139320000Y-146855000D01*
X138430000Y-146855000D02*
X138430000Y-149515000D01*
X137540000Y-149515000D02*
X137540000Y-155515000D01*
X137540000Y-155515000D02*
X136780000Y-155515000D01*
X136780000Y-155515000D02*
X136780000Y-149515000D01*
X137540000Y-146457929D02*
X137540000Y-146855000D01*
X136780000Y-146457929D02*
X136780000Y-146855000D01*
X135890000Y-146855000D02*
X135890000Y-149515000D01*
X135000000Y-149515000D02*
X135000000Y-155515000D01*
X135000000Y-155515000D02*
X134240000Y-155515000D01*
X134240000Y-155515000D02*
X134240000Y-149515000D01*
X135000000Y-146457929D02*
X135000000Y-146855000D01*
X134240000Y-146457929D02*
X134240000Y-146855000D01*
X133350000Y-146855000D02*
X133350000Y-149515000D01*
X132460000Y-149515000D02*
X132460000Y-155515000D01*
X132460000Y-155515000D02*
X131700000Y-155515000D01*
X131700000Y-155515000D02*
X131700000Y-149515000D01*
X132460000Y-146457929D02*
X132460000Y-146855000D01*
X131700000Y-146457929D02*
X131700000Y-146855000D01*
X130810000Y-146855000D02*
X130810000Y-149515000D01*
X129920000Y-149515000D02*
X129920000Y-155515000D01*
X129920000Y-155515000D02*
X129160000Y-155515000D01*
X129160000Y-155515000D02*
X129160000Y-149515000D01*
X129920000Y-146457929D02*
X129920000Y-146855000D01*
X129160000Y-146457929D02*
X129160000Y-146855000D01*
X128270000Y-146855000D02*
X128270000Y-149515000D01*
X127380000Y-149515000D02*
X127380000Y-155515000D01*
X127380000Y-155515000D02*
X126620000Y-155515000D01*
X126620000Y-155515000D02*
X126620000Y-149515000D01*
X127380000Y-146457929D02*
X127380000Y-146855000D01*
X126620000Y-146457929D02*
X126620000Y-146855000D01*
X125730000Y-146855000D02*
X125730000Y-149515000D01*
X124840000Y-149515000D02*
X124840000Y-155515000D01*
X124840000Y-155515000D02*
X124080000Y-155515000D01*
X124080000Y-155515000D02*
X124080000Y-149515000D01*
X124840000Y-146457929D02*
X124840000Y-146855000D01*
X124080000Y-146457929D02*
X124080000Y-146855000D01*
X123190000Y-146855000D02*
X123190000Y-149515000D01*
X122300000Y-149515000D02*
X122300000Y-155515000D01*
X122300000Y-155515000D02*
X121540000Y-155515000D01*
X121540000Y-155515000D02*
X121540000Y-149515000D01*
X122300000Y-146457929D02*
X122300000Y-146855000D01*
X121540000Y-146457929D02*
X121540000Y-146855000D01*
X120650000Y-146855000D02*
X120650000Y-149515000D01*
X119760000Y-149515000D02*
X119760000Y-155515000D01*
X119760000Y-155515000D02*
X119000000Y-155515000D01*
X119000000Y-155515000D02*
X119000000Y-149515000D01*
X119760000Y-146457929D02*
X119760000Y-146855000D01*
X119000000Y-146457929D02*
X119000000Y-146855000D01*
X118110000Y-146855000D02*
X118110000Y-149515000D01*
X117220000Y-149515000D02*
X117220000Y-155515000D01*
X117220000Y-155515000D02*
X116460000Y-155515000D01*
X116460000Y-155515000D02*
X116460000Y-149515000D01*
X117220000Y-146457929D02*
X117220000Y-146855000D01*
X116460000Y-146457929D02*
X116460000Y-146855000D01*
X115570000Y-146855000D02*
X115570000Y-149515000D01*
X114680000Y-149515000D02*
X114680000Y-155515000D01*
X114680000Y-155515000D02*
X113920000Y-155515000D01*
X113920000Y-155515000D02*
X113920000Y-149515000D01*
X114680000Y-146457929D02*
X114680000Y-146855000D01*
X113920000Y-146457929D02*
X113920000Y-146855000D01*
X113030000Y-146855000D02*
X113030000Y-149515000D01*
X112140000Y-149515000D02*
X112140000Y-155515000D01*
X112140000Y-155515000D02*
X111380000Y-155515000D01*
X111380000Y-155515000D02*
X111380000Y-149515000D01*
X112140000Y-146457929D02*
X112140000Y-146855000D01*
X111380000Y-146457929D02*
X111380000Y-146855000D01*
X110490000Y-146855000D02*
X110490000Y-149515000D01*
X109600000Y-149515000D02*
X109600000Y-155515000D01*
X109600000Y-155515000D02*
X108840000Y-155515000D01*
X108840000Y-155515000D02*
X108840000Y-149515000D01*
X109600000Y-146457929D02*
X109600000Y-146855000D01*
X108840000Y-146457929D02*
X108840000Y-146855000D01*
X107950000Y-146855000D02*
X107950000Y-149515000D01*
X107060000Y-149515000D02*
X107060000Y-155515000D01*
X107060000Y-155515000D02*
X106300000Y-155515000D01*
X106300000Y-155515000D02*
X106300000Y-149515000D01*
X107060000Y-146457929D02*
X107060000Y-146855000D01*
X106300000Y-146457929D02*
X106300000Y-146855000D01*
X105410000Y-146855000D02*
X105410000Y-149515000D01*
X104520000Y-149515000D02*
X104520000Y-155515000D01*
X104520000Y-155515000D02*
X103760000Y-155515000D01*
X103760000Y-155515000D02*
X103760000Y-149515000D01*
X104520000Y-146457929D02*
X104520000Y-146855000D01*
X103760000Y-146457929D02*
X103760000Y-146855000D01*
X102870000Y-146855000D02*
X102870000Y-149515000D01*
X101980000Y-149515000D02*
X101980000Y-155515000D01*
X101980000Y-155515000D02*
X101220000Y-155515000D01*
X101220000Y-155515000D02*
X101220000Y-149515000D01*
X101980000Y-146457929D02*
X101980000Y-146855000D01*
X101220000Y-146457929D02*
X101220000Y-146855000D01*
X198120000Y-144145000D02*
X199390000Y-144145000D01*
X199390000Y-144145000D02*
X199390000Y-145415000D01*
X108645000Y-82490000D02*
X103445000Y-82490000D01*
X108645000Y-130810000D02*
X108645000Y-82490000D01*
X103445000Y-133410000D02*
X103445000Y-82490000D01*
X108645000Y-130810000D02*
X106045000Y-130810000D01*
X106045000Y-130810000D02*
X106045000Y-133410000D01*
X106045000Y-133410000D02*
X103445000Y-133410000D01*
X108645000Y-132080000D02*
X108645000Y-133410000D01*
X108645000Y-133410000D02*
X107315000Y-133410000D01*
X105490000Y-64925000D02*
X96690000Y-64925000D01*
X96690000Y-64925000D02*
X96690000Y-55725000D01*
X111390000Y-62225000D02*
X111390000Y-64925000D01*
X111390000Y-64925000D02*
X109490000Y-64925000D01*
X96690000Y-55725000D02*
X111390000Y-55725000D01*
X111390000Y-55725000D02*
X111390000Y-58325000D01*
X106426000Y-140335000D02*
G75*
G03X106426000Y-140335000I-2286000J0D01*
G01*
X197866000Y-140335000D02*
G75*
G03X197866000Y-140335000I-2286000J0D01*
G01*
X197866000Y-74930000D02*
G75*
G03X197866000Y-74930000I-2286000J0D01*
G01*
X106426000Y-74930000D02*
G75*
G03X106426000Y-74930000I-2286000J0D01*
G01*
X134660000Y-101690000D02*
X134660000Y-106510000D01*
X132040000Y-101690000D02*
X132040000Y-106510000D01*
X134660000Y-101690000D02*
X134346000Y-101690000D01*
X132354000Y-101690000D02*
X132040000Y-101690000D01*
X134660000Y-106510000D02*
X134346000Y-106510000D01*
X132354000Y-106510000D02*
X132040000Y-106510000D01*
X180380000Y-83910000D02*
X180380000Y-88730000D01*
X177760000Y-83910000D02*
X177760000Y-88730000D01*
X180380000Y-83910000D02*
X180066000Y-83910000D01*
X178074000Y-83910000D02*
X177760000Y-83910000D01*
X180380000Y-88730000D02*
X180066000Y-88730000D01*
X178074000Y-88730000D02*
X177760000Y-88730000D01*
X198030000Y-81320000D02*
X193210000Y-81320000D01*
X198030000Y-78700000D02*
X193210000Y-78700000D01*
X198030000Y-81320000D02*
X198030000Y-81006000D01*
X198030000Y-79014000D02*
X198030000Y-78700000D01*
X193210000Y-81320000D02*
X193210000Y-81006000D01*
X193210000Y-79014000D02*
X193210000Y-78700000D01*
X155665000Y-55840000D02*
X160485000Y-55840000D01*
X155665000Y-58460000D02*
X160485000Y-58460000D01*
X155665000Y-55840000D02*
X155665000Y-56154000D01*
X155665000Y-58146000D02*
X155665000Y-58460000D01*
X160485000Y-55840000D02*
X160485000Y-56154000D01*
X160485000Y-58146000D02*
X160485000Y-58460000D01*
X142280000Y-57240000D02*
X142280000Y-62060000D01*
X139660000Y-57240000D02*
X139660000Y-62060000D01*
X142280000Y-57240000D02*
X141966000Y-57240000D01*
X139974000Y-57240000D02*
X139660000Y-57240000D01*
X142280000Y-62060000D02*
X141966000Y-62060000D01*
X139974000Y-62060000D02*
X139660000Y-62060000D01*
X109815000Y-131990000D02*
X109815000Y-127170000D01*
X112435000Y-131990000D02*
X112435000Y-127170000D01*
X109815000Y-131990000D02*
X110129000Y-131990000D01*
X112121000Y-131990000D02*
X112435000Y-131990000D01*
X109815000Y-127170000D02*
X110129000Y-127170000D01*
X112121000Y-127170000D02*
X112435000Y-127170000D01*
X127040000Y-57240000D02*
X127040000Y-62060000D01*
X124420000Y-57240000D02*
X124420000Y-62060000D01*
X127040000Y-57240000D02*
X126726000Y-57240000D01*
X124734000Y-57240000D02*
X124420000Y-57240000D01*
X127040000Y-62060000D02*
X126726000Y-62060000D01*
X124734000Y-62060000D02*
X124420000Y-62060000D01*
X190410000Y-81320000D02*
X185590000Y-81320000D01*
X190410000Y-78700000D02*
X185590000Y-78700000D01*
X190410000Y-81320000D02*
X190410000Y-81006000D01*
X190410000Y-79014000D02*
X190410000Y-78700000D01*
X185590000Y-81320000D02*
X185590000Y-81006000D01*
X185590000Y-79014000D02*
X185590000Y-78700000D01*
X168185000Y-58460000D02*
X163365000Y-58460000D01*
X168185000Y-55840000D02*
X163365000Y-55840000D01*
X168185000Y-58460000D02*
X168185000Y-58146000D01*
X168185000Y-56154000D02*
X168185000Y-55840000D01*
X163365000Y-58460000D02*
X163365000Y-58146000D01*
X163365000Y-56154000D02*
X163365000Y-55840000D01*
X125695000Y-139660000D02*
X125695000Y-142280000D01*
X125695000Y-142280000D02*
X132115000Y-142280000D01*
X132115000Y-142280000D02*
X132115000Y-139660000D01*
X132115000Y-139660000D02*
X125695000Y-139660000D01*
X124805000Y-140970000D02*
X125695000Y-140970000D01*
X133005000Y-140970000D02*
X132115000Y-140970000D01*
X112995000Y-139660000D02*
X112995000Y-142280000D01*
X112995000Y-142280000D02*
X119415000Y-142280000D01*
X119415000Y-142280000D02*
X119415000Y-139660000D01*
X119415000Y-139660000D02*
X112995000Y-139660000D01*
X112105000Y-140970000D02*
X112995000Y-140970000D01*
X120305000Y-140970000D02*
X119415000Y-140970000D01*
X112995000Y-135850000D02*
X112995000Y-138470000D01*
X112995000Y-138470000D02*
X119415000Y-138470000D01*
X119415000Y-138470000D02*
X119415000Y-135850000D01*
X119415000Y-135850000D02*
X112995000Y-135850000D01*
X112105000Y-137160000D02*
X112995000Y-137160000D01*
X120305000Y-137160000D02*
X119415000Y-137160000D01*
X145780000Y-82490000D02*
G75*
G02X143780000Y-82490000I-1000000J0D01*
G01*
X143780000Y-82490000D02*
X138320000Y-82490000D01*
X138320000Y-82490000D02*
X138320000Y-133410000D01*
X138320000Y-133410000D02*
X151240000Y-133410000D01*
X151240000Y-133410000D02*
X151240000Y-82490000D01*
X151240000Y-82490000D02*
X145780000Y-82490000D01*
X135830000Y-82430000D02*
X135830000Y-133470000D01*
X135830000Y-133470000D02*
X153730000Y-133470000D01*
X153730000Y-133470000D02*
X153730000Y-82430000D01*
X153730000Y-82430000D02*
X135830000Y-82430000D01*
X168640000Y-82490000D02*
G75*
G02X166640000Y-82490000I-1000000J0D01*
G01*
X166640000Y-82490000D02*
X161180000Y-82490000D01*
X161180000Y-82490000D02*
X161180000Y-118170000D01*
X161180000Y-118170000D02*
X174100000Y-118170000D01*
X174100000Y-118170000D02*
X174100000Y-82490000D01*
X174100000Y-82490000D02*
X168640000Y-82490000D01*
X158690000Y-82430000D02*
X158690000Y-118230000D01*
X158690000Y-118230000D02*
X176590000Y-118230000D01*
X176590000Y-118230000D02*
X176590000Y-82430000D01*
X176590000Y-82430000D02*
X158690000Y-82430000D01*
X189290000Y-121980000D02*
X189290000Y-119320000D01*
X184150000Y-121980000D02*
X189290000Y-121980000D01*
X184150000Y-119320000D02*
X189290000Y-119320000D01*
X184150000Y-121980000D02*
X184150000Y-119320000D01*
X182880000Y-121980000D02*
X181550000Y-121980000D01*
X181550000Y-121980000D02*
X181550000Y-120650000D01*
X199450000Y-121980000D02*
X199450000Y-119320000D01*
X194310000Y-121980000D02*
X199450000Y-121980000D01*
X194310000Y-119320000D02*
X199450000Y-119320000D01*
X194310000Y-121980000D02*
X194310000Y-119320000D01*
X193040000Y-121980000D02*
X191710000Y-121980000D01*
X191710000Y-121980000D02*
X191710000Y-120650000D01*
X154880000Y-97850000D02*
X157540000Y-97850000D01*
X154880000Y-92710000D02*
X154880000Y-97850000D01*
X157540000Y-92710000D02*
X157540000Y-97850000D01*
X154880000Y-92710000D02*
X157540000Y-92710000D01*
X154880000Y-91440000D02*
X154880000Y-90110000D01*
X154880000Y-90110000D02*
X156210000Y-90110000D01*
X158690000Y-74990000D02*
X161350000Y-74990000D01*
X158690000Y-69850000D02*
X158690000Y-74990000D01*
X161350000Y-69850000D02*
X161350000Y-74990000D01*
X158690000Y-69850000D02*
X161350000Y-69850000D01*
X158690000Y-68580000D02*
X158690000Y-67250000D01*
X158690000Y-67250000D02*
X160020000Y-67250000D01*
X134350000Y-55820000D02*
G75*
G02X132350000Y-55820000I-1000000J0D01*
G01*
X132350000Y-55820000D02*
X130700000Y-55820000D01*
X130700000Y-55820000D02*
X130700000Y-76260000D01*
X130700000Y-76260000D02*
X136000000Y-76260000D01*
X136000000Y-76260000D02*
X136000000Y-55820000D01*
X136000000Y-55820000D02*
X134350000Y-55820000D01*
X128210000Y-55760000D02*
X128210000Y-76320000D01*
X128210000Y-76320000D02*
X138490000Y-76320000D01*
X138490000Y-76320000D02*
X138490000Y-55760000D01*
X138490000Y-55760000D02*
X128210000Y-55760000D01*
X122920000Y-82490000D02*
G75*
G02X120920000Y-82490000I-1000000J0D01*
G01*
X120920000Y-82490000D02*
X115460000Y-82490000D01*
X115460000Y-82490000D02*
X115460000Y-133410000D01*
X115460000Y-133410000D02*
X128380000Y-133410000D01*
X128380000Y-133410000D02*
X128380000Y-82490000D01*
X128380000Y-82490000D02*
X122920000Y-82490000D01*
X112970000Y-82430000D02*
X112970000Y-133470000D01*
X112970000Y-133470000D02*
X130870000Y-133470000D01*
X130870000Y-133470000D02*
X130870000Y-82430000D01*
X130870000Y-82430000D02*
X112970000Y-82430000D01*
X158700000Y-59705000D02*
X164950000Y-59705000D01*
X158700000Y-64755000D02*
X164950000Y-64755000D01*
X158700000Y-64755000D02*
G75*
G02X158700000Y-59705000I0J2525000D01*
G01*
X164950000Y-64755000D02*
G75*
G03X164950000Y-59705000I0J2525000D01*
G01*
X125695000Y-135850000D02*
X125695000Y-138470000D01*
X125695000Y-138470000D02*
X132115000Y-138470000D01*
X132115000Y-138470000D02*
X132115000Y-135850000D01*
X132115000Y-135850000D02*
X125695000Y-135850000D01*
X124805000Y-137160000D02*
X125695000Y-137160000D01*
X133005000Y-137160000D02*
X132115000Y-137160000D01*
X135850000Y-141515000D02*
X135850000Y-136695000D01*
X138470000Y-141515000D02*
X138470000Y-136695000D01*
X135850000Y-141515000D02*
X136164000Y-141515000D01*
X138156000Y-141515000D02*
X138470000Y-141515000D01*
X135850000Y-136695000D02*
X136164000Y-136695000D01*
X138156000Y-136695000D02*
X138470000Y-136695000D01*
X119110000Y-55820000D02*
G75*
G02X117110000Y-55820000I-1000000J0D01*
G01*
X117110000Y-55820000D02*
X115460000Y-55820000D01*
X115460000Y-55820000D02*
X115460000Y-76260000D01*
X115460000Y-76260000D02*
X120760000Y-76260000D01*
X120760000Y-76260000D02*
X120760000Y-55820000D01*
X120760000Y-55820000D02*
X119110000Y-55820000D01*
X112970000Y-55760000D02*
X112970000Y-76320000D01*
X112970000Y-76320000D02*
X123250000Y-76320000D01*
X123250000Y-76320000D02*
X123250000Y-55760000D01*
X123250000Y-55760000D02*
X112970000Y-55760000D01*
X157520000Y-67400000D02*
X157520000Y-72220000D01*
X154900000Y-67400000D02*
X154900000Y-72220000D01*
X157520000Y-67400000D02*
X157206000Y-67400000D01*
X155214000Y-67400000D02*
X154900000Y-67400000D01*
X157520000Y-72220000D02*
X157206000Y-72220000D01*
X155214000Y-72220000D02*
X154900000Y-72220000D01*
X162500000Y-74990000D02*
X165160000Y-74990000D01*
X162500000Y-69850000D02*
X162500000Y-74990000D01*
X165160000Y-69850000D02*
X165160000Y-74990000D01*
X162500000Y-69850000D02*
X165160000Y-69850000D01*
X162500000Y-68580000D02*
X162500000Y-67250000D01*
X162500000Y-67250000D02*
X163830000Y-67250000D01*
X191830000Y-72120000D02*
G75*
G02X191830000Y-70120000I0J1000000D01*
G01*
X191830000Y-70120000D02*
X191830000Y-68470000D01*
X191830000Y-68470000D02*
X166310000Y-68470000D01*
X166310000Y-68470000D02*
X166310000Y-73770000D01*
X166310000Y-73770000D02*
X191830000Y-73770000D01*
X191830000Y-73770000D02*
X191830000Y-72120000D01*
X191890000Y-65980000D02*
X166250000Y-65980000D01*
X166250000Y-65980000D02*
X166250000Y-76260000D01*
X166250000Y-76260000D02*
X191890000Y-76260000D01*
X191890000Y-76260000D02*
X191890000Y-65980000D01*
X144779538Y-54425000D02*
G75*
G03X146324830Y-48875000I462J2990000D01*
G01*
X144780462Y-54425000D02*
G75*
G02X143235170Y-48875000I-462J2990000D01*
G01*
X147280000Y-51435000D02*
G75*
G03X147280000Y-51435000I-2500000J0D01*
G01*
X146325000Y-48875000D02*
X143235000Y-48875000D01*
X133984538Y-54425000D02*
G75*
G03X135529830Y-48875000I462J2990000D01*
G01*
X133985462Y-54425000D02*
G75*
G02X132440170Y-48875000I-462J2990000D01*
G01*
X136485000Y-51435000D02*
G75*
G03X136485000Y-51435000I-2500000J0D01*
G01*
X135530000Y-48875000D02*
X132440000Y-48875000D01*
X123189538Y-54425000D02*
G75*
G03X124734830Y-48875000I462J2990000D01*
G01*
X123190462Y-54425000D02*
G75*
G02X121645170Y-48875000I-462J2990000D01*
G01*
X125690000Y-51435000D02*
G75*
G03X125690000Y-51435000I-2500000J0D01*
G01*
X124735000Y-48875000D02*
X121645000Y-48875000D01*
X112394538Y-54425000D02*
G75*
G03X113939830Y-48875000I462J2990000D01*
G01*
X112395462Y-54425000D02*
G75*
G02X110850170Y-48875000I-462J2990000D01*
G01*
X114895000Y-51435000D02*
G75*
G03X114895000Y-51435000I-2500000J0D01*
G01*
X113940000Y-48875000D02*
X110850000Y-48875000D01*
X187324538Y-54425000D02*
G75*
G03X188869830Y-48875000I462J2990000D01*
G01*
X187325462Y-54425000D02*
G75*
G02X185780170Y-48875000I-462J2990000D01*
G01*
X189825000Y-51435000D02*
G75*
G03X189825000Y-51435000I-2500000J0D01*
G01*
X188870000Y-48875000D02*
X185780000Y-48875000D01*
X176529538Y-54425000D02*
G75*
G03X178074830Y-48875000I462J2990000D01*
G01*
X176530462Y-54425000D02*
G75*
G02X174985170Y-48875000I-462J2990000D01*
G01*
X179030000Y-51435000D02*
G75*
G03X179030000Y-51435000I-2500000J0D01*
G01*
X178075000Y-48875000D02*
X174985000Y-48875000D01*
X165734538Y-54425000D02*
G75*
G03X167279830Y-48875000I462J2990000D01*
G01*
X165735462Y-54425000D02*
G75*
G02X164190170Y-48875000I-462J2990000D01*
G01*
X168235000Y-51435000D02*
G75*
G03X168235000Y-51435000I-2500000J0D01*
G01*
X167280000Y-48875000D02*
X164190000Y-48875000D01*
X154939538Y-54425000D02*
G75*
G03X156484830Y-48875000I462J2990000D01*
G01*
X154940462Y-54425000D02*
G75*
G02X153395170Y-48875000I-462J2990000D01*
G01*
X157440000Y-51435000D02*
G75*
G03X157440000Y-51435000I-2500000J0D01*
G01*
X156485000Y-48875000D02*
X153395000Y-48875000D01*
X172430000Y-57115000D02*
X172760000Y-57115000D01*
X172760000Y-57115000D02*
X172760000Y-63535000D01*
X172760000Y-63535000D02*
X172430000Y-63535000D01*
X170470000Y-57115000D02*
X170140000Y-57115000D01*
X170140000Y-57115000D02*
X170140000Y-63535000D01*
X170140000Y-63535000D02*
X170470000Y-63535000D01*
X176240000Y-57115000D02*
X176570000Y-57115000D01*
X176570000Y-57115000D02*
X176570000Y-63535000D01*
X176570000Y-63535000D02*
X176240000Y-63535000D01*
X174280000Y-57115000D02*
X173950000Y-57115000D01*
X173950000Y-57115000D02*
X173950000Y-63535000D01*
X173950000Y-63535000D02*
X174280000Y-63535000D01*
X180050000Y-57115000D02*
X180380000Y-57115000D01*
X180380000Y-57115000D02*
X180380000Y-63535000D01*
X180380000Y-63535000D02*
X180050000Y-63535000D01*
X178090000Y-57115000D02*
X177760000Y-57115000D01*
X177760000Y-57115000D02*
X177760000Y-63535000D01*
X177760000Y-63535000D02*
X178090000Y-63535000D01*
X183860000Y-57115000D02*
X184190000Y-57115000D01*
X184190000Y-57115000D02*
X184190000Y-63535000D01*
X184190000Y-63535000D02*
X183860000Y-63535000D01*
X181900000Y-57115000D02*
X181570000Y-57115000D01*
X181570000Y-57115000D02*
X181570000Y-63535000D01*
X181570000Y-63535000D02*
X181900000Y-63535000D01*
X187035000Y-57115000D02*
X187365000Y-57115000D01*
X187365000Y-57115000D02*
X187365000Y-63535000D01*
X187365000Y-63535000D02*
X187035000Y-63535000D01*
X185075000Y-57115000D02*
X184745000Y-57115000D01*
X184745000Y-57115000D02*
X184745000Y-63535000D01*
X184745000Y-63535000D02*
X185075000Y-63535000D01*
X190845000Y-57115000D02*
X191175000Y-57115000D01*
X191175000Y-57115000D02*
X191175000Y-63535000D01*
X191175000Y-63535000D02*
X190845000Y-63535000D01*
X188885000Y-57115000D02*
X188555000Y-57115000D01*
X188555000Y-57115000D02*
X188555000Y-63535000D01*
X188555000Y-63535000D02*
X188885000Y-63535000D01*
X194655000Y-57115000D02*
X194985000Y-57115000D01*
X194985000Y-57115000D02*
X194985000Y-63535000D01*
X194985000Y-63535000D02*
X194655000Y-63535000D01*
X192695000Y-57115000D02*
X192365000Y-57115000D01*
X192365000Y-57115000D02*
X192365000Y-63535000D01*
X192365000Y-63535000D02*
X192695000Y-63535000D01*
X198465000Y-57115000D02*
X198795000Y-57115000D01*
X198795000Y-57115000D02*
X198795000Y-63535000D01*
X198795000Y-63535000D02*
X198465000Y-63535000D01*
X196505000Y-57115000D02*
X196175000Y-57115000D01*
X196175000Y-57115000D02*
X196175000Y-63535000D01*
X196175000Y-63535000D02*
X196505000Y-63535000D01*
X149590000Y-55820000D02*
G75*
G02X147590000Y-55820000I-1000000J0D01*
G01*
X147590000Y-55820000D02*
X145940000Y-55820000D01*
X145940000Y-55820000D02*
X145940000Y-73720000D01*
X145940000Y-73720000D02*
X151240000Y-73720000D01*
X151240000Y-73720000D02*
X151240000Y-55820000D01*
X151240000Y-55820000D02*
X149590000Y-55820000D01*
X143450000Y-55760000D02*
X143450000Y-73780000D01*
X143450000Y-73780000D02*
X153730000Y-73780000D01*
X153730000Y-73780000D02*
X153730000Y-55760000D01*
X153730000Y-55760000D02*
X143450000Y-55760000D01*
X139640000Y-73720000D02*
X142300000Y-73720000D01*
X139640000Y-68580000D02*
X139640000Y-73720000D01*
X142300000Y-68580000D02*
X142300000Y-73720000D01*
X139640000Y-68580000D02*
X142300000Y-68580000D01*
X139640000Y-67310000D02*
X139640000Y-65980000D01*
X139640000Y-65980000D02*
X140970000Y-65980000D01*
D11*
X189738095Y-85812381D02*
X189738095Y-86621905D01*
X189785714Y-86717143D01*
X189833333Y-86764762D01*
X189928571Y-86812381D01*
X190119048Y-86812381D01*
X190214286Y-86764762D01*
X190261905Y-86717143D01*
X190309524Y-86621905D01*
X190309524Y-85812381D01*
X190690476Y-85812381D02*
X191309524Y-85812381D01*
X190976190Y-86193333D01*
X191119048Y-86193333D01*
X191214286Y-86240952D01*
X191261905Y-86288571D01*
X191309524Y-86383810D01*
X191309524Y-86621905D01*
X191261905Y-86717143D01*
X191214286Y-86764762D01*
X191119048Y-86812381D01*
X190833333Y-86812381D01*
X190738095Y-86764762D01*
X190690476Y-86717143D01*
X187809524Y-92257619D02*
X187857143Y-92210000D01*
X187952381Y-92162381D01*
X188190477Y-92162381D01*
X188285715Y-92210000D01*
X188333334Y-92257619D01*
X188380953Y-92352857D01*
X188380953Y-92448095D01*
X188333334Y-92590952D01*
X187761905Y-93162381D01*
X188380953Y-93162381D01*
X188952381Y-92590952D02*
X188857143Y-92543333D01*
X188809524Y-92495714D01*
X188761905Y-92400476D01*
X188761905Y-92352857D01*
X188809524Y-92257619D01*
X188857143Y-92210000D01*
X188952381Y-92162381D01*
X189142858Y-92162381D01*
X189238096Y-92210000D01*
X189285715Y-92257619D01*
X189333334Y-92352857D01*
X189333334Y-92400476D01*
X189285715Y-92495714D01*
X189238096Y-92543333D01*
X189142858Y-92590952D01*
X188952381Y-92590952D01*
X188857143Y-92638571D01*
X188809524Y-92686190D01*
X188761905Y-92781429D01*
X188761905Y-92971905D01*
X188809524Y-93067143D01*
X188857143Y-93114762D01*
X188952381Y-93162381D01*
X189142858Y-93162381D01*
X189238096Y-93114762D01*
X189285715Y-93067143D01*
X189333334Y-92971905D01*
X189333334Y-92781429D01*
X189285715Y-92686190D01*
X189238096Y-92638571D01*
X189142858Y-92590952D01*
X190333334Y-93067143D02*
X190285715Y-93114762D01*
X190142858Y-93162381D01*
X190047620Y-93162381D01*
X189904762Y-93114762D01*
X189809524Y-93019524D01*
X189761905Y-92924286D01*
X189714286Y-92733810D01*
X189714286Y-92590952D01*
X189761905Y-92400476D01*
X189809524Y-92305238D01*
X189904762Y-92210000D01*
X190047620Y-92162381D01*
X190142858Y-92162381D01*
X190285715Y-92210000D01*
X190333334Y-92257619D01*
X190714286Y-92257619D02*
X190761905Y-92210000D01*
X190857143Y-92162381D01*
X191095239Y-92162381D01*
X191190477Y-92210000D01*
X191238096Y-92257619D01*
X191285715Y-92352857D01*
X191285715Y-92448095D01*
X191238096Y-92590952D01*
X190666667Y-93162381D01*
X191285715Y-93162381D01*
X192190477Y-92162381D02*
X191714286Y-92162381D01*
X191666667Y-92638571D01*
X191714286Y-92590952D01*
X191809524Y-92543333D01*
X192047620Y-92543333D01*
X192142858Y-92590952D01*
X192190477Y-92638571D01*
X192238096Y-92733810D01*
X192238096Y-92971905D01*
X192190477Y-93067143D01*
X192142858Y-93114762D01*
X192047620Y-93162381D01*
X191809524Y-93162381D01*
X191714286Y-93114762D01*
X191666667Y-93067143D01*
X193095239Y-92162381D02*
X192904762Y-92162381D01*
X192809524Y-92210000D01*
X192761905Y-92257619D01*
X192666667Y-92400476D01*
X192619048Y-92590952D01*
X192619048Y-92971905D01*
X192666667Y-93067143D01*
X192714286Y-93114762D01*
X192809524Y-93162381D01*
X193000001Y-93162381D01*
X193095239Y-93114762D01*
X193142858Y-93067143D01*
X193190477Y-92971905D01*
X193190477Y-92733810D01*
X193142858Y-92638571D01*
X193095239Y-92590952D01*
X193000001Y-92543333D01*
X192809524Y-92543333D01*
X192714286Y-92590952D01*
X192666667Y-92638571D01*
X192619048Y-92733810D01*
X199842381Y-150133333D02*
X200556667Y-150133333D01*
X200699524Y-150180953D01*
X200794762Y-150276191D01*
X200842381Y-150419048D01*
X200842381Y-150514286D01*
X200842381Y-149133333D02*
X200842381Y-149704762D01*
X200842381Y-149419048D02*
X199842381Y-149419048D01*
X199985238Y-149514286D01*
X200080476Y-149609524D01*
X200128095Y-149704762D01*
X98091667Y-60412381D02*
X98091667Y-61126667D01*
X98044047Y-61269524D01*
X97948809Y-61364762D01*
X97805952Y-61412381D01*
X97710714Y-61412381D01*
X98472619Y-60412381D02*
X99091667Y-60412381D01*
X98758333Y-60793333D01*
X98901191Y-60793333D01*
X98996429Y-60840952D01*
X99044048Y-60888571D01*
X99091667Y-60983810D01*
X99091667Y-61221905D01*
X99044048Y-61317143D01*
X98996429Y-61364762D01*
X98901191Y-61412381D01*
X98615476Y-61412381D01*
X98520238Y-61364762D01*
X98472619Y-61317143D01*
X133707143Y-104306666D02*
X133754762Y-104354285D01*
X133802381Y-104497142D01*
X133802381Y-104592380D01*
X133754762Y-104735238D01*
X133659524Y-104830476D01*
X133564286Y-104878095D01*
X133373810Y-104925714D01*
X133230952Y-104925714D01*
X133040476Y-104878095D01*
X132945238Y-104830476D01*
X132850000Y-104735238D01*
X132802381Y-104592380D01*
X132802381Y-104497142D01*
X132850000Y-104354285D01*
X132897619Y-104306666D01*
X133802381Y-103354285D02*
X133802381Y-103925714D01*
X133802381Y-103640000D02*
X132802381Y-103640000D01*
X132945238Y-103735238D01*
X133040476Y-103830476D01*
X133088095Y-103925714D01*
X179427143Y-86526666D02*
X179474762Y-86574285D01*
X179522381Y-86717142D01*
X179522381Y-86812380D01*
X179474762Y-86955238D01*
X179379524Y-87050476D01*
X179284286Y-87098095D01*
X179093810Y-87145714D01*
X178950952Y-87145714D01*
X178760476Y-87098095D01*
X178665238Y-87050476D01*
X178570000Y-86955238D01*
X178522381Y-86812380D01*
X178522381Y-86717142D01*
X178570000Y-86574285D01*
X178617619Y-86526666D01*
X178617619Y-86145714D02*
X178570000Y-86098095D01*
X178522381Y-86002857D01*
X178522381Y-85764761D01*
X178570000Y-85669523D01*
X178617619Y-85621904D01*
X178712857Y-85574285D01*
X178808095Y-85574285D01*
X178950952Y-85621904D01*
X179522381Y-86193333D01*
X179522381Y-85574285D01*
X195413334Y-80367143D02*
X195365715Y-80414762D01*
X195222858Y-80462381D01*
X195127620Y-80462381D01*
X194984762Y-80414762D01*
X194889524Y-80319524D01*
X194841905Y-80224286D01*
X194794286Y-80033810D01*
X194794286Y-79890952D01*
X194841905Y-79700476D01*
X194889524Y-79605238D01*
X194984762Y-79510000D01*
X195127620Y-79462381D01*
X195222858Y-79462381D01*
X195365715Y-79510000D01*
X195413334Y-79557619D01*
X195746667Y-79462381D02*
X196365715Y-79462381D01*
X196032381Y-79843333D01*
X196175239Y-79843333D01*
X196270477Y-79890952D01*
X196318096Y-79938571D01*
X196365715Y-80033810D01*
X196365715Y-80271905D01*
X196318096Y-80367143D01*
X196270477Y-80414762D01*
X196175239Y-80462381D01*
X195889524Y-80462381D01*
X195794286Y-80414762D01*
X195746667Y-80367143D01*
X157948334Y-57507143D02*
X157900715Y-57554762D01*
X157757858Y-57602381D01*
X157662620Y-57602381D01*
X157519762Y-57554762D01*
X157424524Y-57459524D01*
X157376905Y-57364286D01*
X157329286Y-57173810D01*
X157329286Y-57030952D01*
X157376905Y-56840476D01*
X157424524Y-56745238D01*
X157519762Y-56650000D01*
X157662620Y-56602381D01*
X157757858Y-56602381D01*
X157900715Y-56650000D01*
X157948334Y-56697619D01*
X158805477Y-56935714D02*
X158805477Y-57602381D01*
X158567381Y-56554762D02*
X158329286Y-57269048D01*
X158948334Y-57269048D01*
X141327143Y-59856666D02*
X141374762Y-59904285D01*
X141422381Y-60047142D01*
X141422381Y-60142380D01*
X141374762Y-60285238D01*
X141279524Y-60380476D01*
X141184286Y-60428095D01*
X140993810Y-60475714D01*
X140850952Y-60475714D01*
X140660476Y-60428095D01*
X140565238Y-60380476D01*
X140470000Y-60285238D01*
X140422381Y-60142380D01*
X140422381Y-60047142D01*
X140470000Y-59904285D01*
X140517619Y-59856666D01*
X140422381Y-58951904D02*
X140422381Y-59428095D01*
X140898571Y-59475714D01*
X140850952Y-59428095D01*
X140803333Y-59332857D01*
X140803333Y-59094761D01*
X140850952Y-58999523D01*
X140898571Y-58951904D01*
X140993810Y-58904285D01*
X141231905Y-58904285D01*
X141327143Y-58951904D01*
X141374762Y-58999523D01*
X141422381Y-59094761D01*
X141422381Y-59332857D01*
X141374762Y-59428095D01*
X141327143Y-59475714D01*
X111482143Y-129706666D02*
X111529762Y-129754285D01*
X111577381Y-129897142D01*
X111577381Y-129992380D01*
X111529762Y-130135238D01*
X111434524Y-130230476D01*
X111339286Y-130278095D01*
X111148810Y-130325714D01*
X111005952Y-130325714D01*
X110815476Y-130278095D01*
X110720238Y-130230476D01*
X110625000Y-130135238D01*
X110577381Y-129992380D01*
X110577381Y-129897142D01*
X110625000Y-129754285D01*
X110672619Y-129706666D01*
X110577381Y-128849523D02*
X110577381Y-129040000D01*
X110625000Y-129135238D01*
X110672619Y-129182857D01*
X110815476Y-129278095D01*
X111005952Y-129325714D01*
X111386905Y-129325714D01*
X111482143Y-129278095D01*
X111529762Y-129230476D01*
X111577381Y-129135238D01*
X111577381Y-128944761D01*
X111529762Y-128849523D01*
X111482143Y-128801904D01*
X111386905Y-128754285D01*
X111148810Y-128754285D01*
X111053571Y-128801904D01*
X111005952Y-128849523D01*
X110958333Y-128944761D01*
X110958333Y-129135238D01*
X111005952Y-129230476D01*
X111053571Y-129278095D01*
X111148810Y-129325714D01*
X126087143Y-59856666D02*
X126134762Y-59904285D01*
X126182381Y-60047142D01*
X126182381Y-60142380D01*
X126134762Y-60285238D01*
X126039524Y-60380476D01*
X125944286Y-60428095D01*
X125753810Y-60475714D01*
X125610952Y-60475714D01*
X125420476Y-60428095D01*
X125325238Y-60380476D01*
X125230000Y-60285238D01*
X125182381Y-60142380D01*
X125182381Y-60047142D01*
X125230000Y-59904285D01*
X125277619Y-59856666D01*
X125182381Y-59523333D02*
X125182381Y-58856666D01*
X126182381Y-59285238D01*
X187793334Y-80367143D02*
X187745715Y-80414762D01*
X187602858Y-80462381D01*
X187507620Y-80462381D01*
X187364762Y-80414762D01*
X187269524Y-80319524D01*
X187221905Y-80224286D01*
X187174286Y-80033810D01*
X187174286Y-79890952D01*
X187221905Y-79700476D01*
X187269524Y-79605238D01*
X187364762Y-79510000D01*
X187507620Y-79462381D01*
X187602858Y-79462381D01*
X187745715Y-79510000D01*
X187793334Y-79557619D01*
X188364762Y-79890952D02*
X188269524Y-79843333D01*
X188221905Y-79795714D01*
X188174286Y-79700476D01*
X188174286Y-79652857D01*
X188221905Y-79557619D01*
X188269524Y-79510000D01*
X188364762Y-79462381D01*
X188555239Y-79462381D01*
X188650477Y-79510000D01*
X188698096Y-79557619D01*
X188745715Y-79652857D01*
X188745715Y-79700476D01*
X188698096Y-79795714D01*
X188650477Y-79843333D01*
X188555239Y-79890952D01*
X188364762Y-79890952D01*
X188269524Y-79938571D01*
X188221905Y-79986190D01*
X188174286Y-80081429D01*
X188174286Y-80271905D01*
X188221905Y-80367143D01*
X188269524Y-80414762D01*
X188364762Y-80462381D01*
X188555239Y-80462381D01*
X188650477Y-80414762D01*
X188698096Y-80367143D01*
X188745715Y-80271905D01*
X188745715Y-80081429D01*
X188698096Y-79986190D01*
X188650477Y-79938571D01*
X188555239Y-79890952D01*
X165568334Y-57507143D02*
X165520715Y-57554762D01*
X165377858Y-57602381D01*
X165282620Y-57602381D01*
X165139762Y-57554762D01*
X165044524Y-57459524D01*
X164996905Y-57364286D01*
X164949286Y-57173810D01*
X164949286Y-57030952D01*
X164996905Y-56840476D01*
X165044524Y-56745238D01*
X165139762Y-56650000D01*
X165282620Y-56602381D01*
X165377858Y-56602381D01*
X165520715Y-56650000D01*
X165568334Y-56697619D01*
X166044524Y-57602381D02*
X166235000Y-57602381D01*
X166330239Y-57554762D01*
X166377858Y-57507143D01*
X166473096Y-57364286D01*
X166520715Y-57173810D01*
X166520715Y-56792857D01*
X166473096Y-56697619D01*
X166425477Y-56650000D01*
X166330239Y-56602381D01*
X166139762Y-56602381D01*
X166044524Y-56650000D01*
X165996905Y-56697619D01*
X165949286Y-56792857D01*
X165949286Y-57030952D01*
X165996905Y-57126190D01*
X166044524Y-57173810D01*
X166139762Y-57221429D01*
X166330239Y-57221429D01*
X166425477Y-57173810D01*
X166473096Y-57126190D01*
X166520715Y-57030952D01*
X127452381Y-141136666D02*
X126976190Y-141470000D01*
X127452381Y-141708095D02*
X126452381Y-141708095D01*
X126452381Y-141327142D01*
X126500000Y-141231904D01*
X126547619Y-141184285D01*
X126642857Y-141136666D01*
X126785714Y-141136666D01*
X126880952Y-141184285D01*
X126928571Y-141231904D01*
X126976190Y-141327142D01*
X126976190Y-141708095D01*
X127452381Y-140184285D02*
X127452381Y-140755714D01*
X127452381Y-140470000D02*
X126452381Y-140470000D01*
X126595238Y-140565238D01*
X126690476Y-140660476D01*
X126738095Y-140755714D01*
X128960714Y-140422381D02*
X129579762Y-140422381D01*
X129246428Y-140803333D01*
X129389286Y-140803333D01*
X129484524Y-140850952D01*
X129532143Y-140898571D01*
X129579762Y-140993810D01*
X129579762Y-141231905D01*
X129532143Y-141327143D01*
X129484524Y-141374762D01*
X129389286Y-141422381D01*
X129103571Y-141422381D01*
X129008333Y-141374762D01*
X128960714Y-141327143D01*
X130008333Y-141422381D02*
X130008333Y-140422381D01*
X130103571Y-141041429D02*
X130389286Y-141422381D01*
X130389286Y-140755714D02*
X130008333Y-141136667D01*
X130722619Y-140422381D02*
X131341667Y-140422381D01*
X131008333Y-140803333D01*
X131151191Y-140803333D01*
X131246429Y-140850952D01*
X131294048Y-140898571D01*
X131341667Y-140993810D01*
X131341667Y-141231905D01*
X131294048Y-141327143D01*
X131246429Y-141374762D01*
X131151191Y-141422381D01*
X130865476Y-141422381D01*
X130770238Y-141374762D01*
X130722619Y-141327143D01*
X114752381Y-141136666D02*
X114276190Y-141470000D01*
X114752381Y-141708095D02*
X113752381Y-141708095D01*
X113752381Y-141327142D01*
X113800000Y-141231904D01*
X113847619Y-141184285D01*
X113942857Y-141136666D01*
X114085714Y-141136666D01*
X114180952Y-141184285D01*
X114228571Y-141231904D01*
X114276190Y-141327142D01*
X114276190Y-141708095D01*
X113847619Y-140755714D02*
X113800000Y-140708095D01*
X113752381Y-140612857D01*
X113752381Y-140374761D01*
X113800000Y-140279523D01*
X113847619Y-140231904D01*
X113942857Y-140184285D01*
X114038095Y-140184285D01*
X114180952Y-140231904D01*
X114752381Y-140803333D01*
X114752381Y-140184285D01*
X116895714Y-140422381D02*
X117514762Y-140422381D01*
X117181428Y-140803333D01*
X117324286Y-140803333D01*
X117419524Y-140850952D01*
X117467143Y-140898571D01*
X117514762Y-140993810D01*
X117514762Y-141231905D01*
X117467143Y-141327143D01*
X117419524Y-141374762D01*
X117324286Y-141422381D01*
X117038571Y-141422381D01*
X116943333Y-141374762D01*
X116895714Y-141327143D01*
X117943333Y-141422381D02*
X117943333Y-140422381D01*
X118038571Y-141041429D02*
X118324286Y-141422381D01*
X118324286Y-140755714D02*
X117943333Y-141136667D01*
X118657619Y-140422381D02*
X119276667Y-140422381D01*
X118943333Y-140803333D01*
X119086191Y-140803333D01*
X119181429Y-140850952D01*
X119229048Y-140898571D01*
X119276667Y-140993810D01*
X119276667Y-141231905D01*
X119229048Y-141327143D01*
X119181429Y-141374762D01*
X119086191Y-141422381D01*
X118800476Y-141422381D01*
X118705238Y-141374762D01*
X118657619Y-141327143D01*
X118562381Y-137326666D02*
X118086190Y-137660000D01*
X118562381Y-137898095D02*
X117562381Y-137898095D01*
X117562381Y-137517142D01*
X117610000Y-137421904D01*
X117657619Y-137374285D01*
X117752857Y-137326666D01*
X117895714Y-137326666D01*
X117990952Y-137374285D01*
X118038571Y-137421904D01*
X118086190Y-137517142D01*
X118086190Y-137898095D01*
X117562381Y-136993333D02*
X117562381Y-136374285D01*
X117943333Y-136707619D01*
X117943333Y-136564761D01*
X117990952Y-136469523D01*
X118038571Y-136421904D01*
X118133810Y-136374285D01*
X118371905Y-136374285D01*
X118467143Y-136421904D01*
X118514762Y-136469523D01*
X118562381Y-136564761D01*
X118562381Y-136850476D01*
X118514762Y-136945714D01*
X118467143Y-136993333D01*
X113720714Y-136612381D02*
X114339762Y-136612381D01*
X114006428Y-136993333D01*
X114149286Y-136993333D01*
X114244524Y-137040952D01*
X114292143Y-137088571D01*
X114339762Y-137183810D01*
X114339762Y-137421905D01*
X114292143Y-137517143D01*
X114244524Y-137564762D01*
X114149286Y-137612381D01*
X113863571Y-137612381D01*
X113768333Y-137564762D01*
X113720714Y-137517143D01*
X114768333Y-137612381D02*
X114768333Y-136612381D01*
X114863571Y-137231429D02*
X115149286Y-137612381D01*
X115149286Y-136945714D02*
X114768333Y-137326667D01*
X115482619Y-136612381D02*
X116101667Y-136612381D01*
X115768333Y-136993333D01*
X115911191Y-136993333D01*
X116006429Y-137040952D01*
X116054048Y-137088571D01*
X116101667Y-137183810D01*
X116101667Y-137421905D01*
X116054048Y-137517143D01*
X116006429Y-137564762D01*
X115911191Y-137612381D01*
X115625476Y-137612381D01*
X115530238Y-137564762D01*
X115482619Y-137517143D01*
X144018095Y-85812381D02*
X144018095Y-86621905D01*
X144065714Y-86717143D01*
X144113333Y-86764762D01*
X144208571Y-86812381D01*
X144399048Y-86812381D01*
X144494286Y-86764762D01*
X144541905Y-86717143D01*
X144589524Y-86621905D01*
X144589524Y-85812381D01*
X145589524Y-86812381D02*
X145018095Y-86812381D01*
X145303809Y-86812381D02*
X145303809Y-85812381D01*
X145208571Y-85955238D01*
X145113333Y-86050476D01*
X145018095Y-86098095D01*
X142041905Y-89352381D02*
X142041905Y-88352381D01*
X142375239Y-89066667D01*
X142708572Y-88352381D01*
X142708572Y-89352381D01*
X143756191Y-89257143D02*
X143708572Y-89304762D01*
X143565715Y-89352381D01*
X143470477Y-89352381D01*
X143327619Y-89304762D01*
X143232381Y-89209524D01*
X143184762Y-89114286D01*
X143137143Y-88923810D01*
X143137143Y-88780952D01*
X143184762Y-88590476D01*
X143232381Y-88495238D01*
X143327619Y-88400000D01*
X143470477Y-88352381D01*
X143565715Y-88352381D01*
X143708572Y-88400000D01*
X143756191Y-88447619D01*
X144613334Y-88352381D02*
X144422857Y-88352381D01*
X144327619Y-88400000D01*
X144280000Y-88447619D01*
X144184762Y-88590476D01*
X144137143Y-88780952D01*
X144137143Y-89161905D01*
X144184762Y-89257143D01*
X144232381Y-89304762D01*
X144327619Y-89352381D01*
X144518096Y-89352381D01*
X144613334Y-89304762D01*
X144660953Y-89257143D01*
X144708572Y-89161905D01*
X144708572Y-88923810D01*
X144660953Y-88828571D01*
X144613334Y-88780952D01*
X144518096Y-88733333D01*
X144327619Y-88733333D01*
X144232381Y-88780952D01*
X144184762Y-88828571D01*
X144137143Y-88923810D01*
X145280000Y-88780952D02*
X145184762Y-88733333D01*
X145137143Y-88685714D01*
X145089524Y-88590476D01*
X145089524Y-88542857D01*
X145137143Y-88447619D01*
X145184762Y-88400000D01*
X145280000Y-88352381D01*
X145470477Y-88352381D01*
X145565715Y-88400000D01*
X145613334Y-88447619D01*
X145660953Y-88542857D01*
X145660953Y-88590476D01*
X145613334Y-88685714D01*
X145565715Y-88733333D01*
X145470477Y-88780952D01*
X145280000Y-88780952D01*
X145184762Y-88828571D01*
X145137143Y-88876190D01*
X145089524Y-88971429D01*
X145089524Y-89161905D01*
X145137143Y-89257143D01*
X145184762Y-89304762D01*
X145280000Y-89352381D01*
X145470477Y-89352381D01*
X145565715Y-89304762D01*
X145613334Y-89257143D01*
X145660953Y-89161905D01*
X145660953Y-88971429D01*
X145613334Y-88876190D01*
X145565715Y-88828571D01*
X145470477Y-88780952D01*
X146280000Y-88352381D02*
X146375239Y-88352381D01*
X146470477Y-88400000D01*
X146518096Y-88447619D01*
X146565715Y-88542857D01*
X146613334Y-88733333D01*
X146613334Y-88971429D01*
X146565715Y-89161905D01*
X146518096Y-89257143D01*
X146470477Y-89304762D01*
X146375239Y-89352381D01*
X146280000Y-89352381D01*
X146184762Y-89304762D01*
X146137143Y-89257143D01*
X146089524Y-89161905D01*
X146041905Y-88971429D01*
X146041905Y-88733333D01*
X146089524Y-88542857D01*
X146137143Y-88447619D01*
X146184762Y-88400000D01*
X146280000Y-88352381D01*
X146994286Y-88447619D02*
X147041905Y-88400000D01*
X147137143Y-88352381D01*
X147375239Y-88352381D01*
X147470477Y-88400000D01*
X147518096Y-88447619D01*
X147565715Y-88542857D01*
X147565715Y-88638095D01*
X147518096Y-88780952D01*
X146946667Y-89352381D01*
X147565715Y-89352381D01*
X166878095Y-85812381D02*
X166878095Y-86621905D01*
X166925714Y-86717143D01*
X166973333Y-86764762D01*
X167068571Y-86812381D01*
X167259048Y-86812381D01*
X167354286Y-86764762D01*
X167401905Y-86717143D01*
X167449524Y-86621905D01*
X167449524Y-85812381D01*
X167878095Y-85907619D02*
X167925714Y-85860000D01*
X168020952Y-85812381D01*
X168259048Y-85812381D01*
X168354286Y-85860000D01*
X168401905Y-85907619D01*
X168449524Y-86002857D01*
X168449524Y-86098095D01*
X168401905Y-86240952D01*
X167830476Y-86812381D01*
X168449524Y-86812381D01*
X161901905Y-89352381D02*
X161901905Y-88352381D01*
X161901905Y-88828571D02*
X162473334Y-88828571D01*
X162473334Y-89352381D02*
X162473334Y-88352381D01*
X162949524Y-89352381D02*
X162949524Y-88352381D01*
X163282858Y-89066667D01*
X163616191Y-88352381D01*
X163616191Y-89352381D01*
X164520953Y-88352381D02*
X164330476Y-88352381D01*
X164235238Y-88400000D01*
X164187619Y-88447619D01*
X164092381Y-88590476D01*
X164044762Y-88780952D01*
X164044762Y-89161905D01*
X164092381Y-89257143D01*
X164140000Y-89304762D01*
X164235238Y-89352381D01*
X164425715Y-89352381D01*
X164520953Y-89304762D01*
X164568572Y-89257143D01*
X164616191Y-89161905D01*
X164616191Y-88923810D01*
X164568572Y-88828571D01*
X164520953Y-88780952D01*
X164425715Y-88733333D01*
X164235238Y-88733333D01*
X164140000Y-88780952D01*
X164092381Y-88828571D01*
X164044762Y-88923810D01*
X164997143Y-88447619D02*
X165044762Y-88400000D01*
X165140000Y-88352381D01*
X165378096Y-88352381D01*
X165473334Y-88400000D01*
X165520953Y-88447619D01*
X165568572Y-88542857D01*
X165568572Y-88638095D01*
X165520953Y-88780952D01*
X164949524Y-89352381D01*
X165568572Y-89352381D01*
X165949524Y-88447619D02*
X165997143Y-88400000D01*
X166092381Y-88352381D01*
X166330477Y-88352381D01*
X166425715Y-88400000D01*
X166473334Y-88447619D01*
X166520953Y-88542857D01*
X166520953Y-88638095D01*
X166473334Y-88780952D01*
X165901905Y-89352381D01*
X166520953Y-89352381D01*
X167425715Y-88352381D02*
X166949524Y-88352381D01*
X166901905Y-88828571D01*
X166949524Y-88780952D01*
X167044762Y-88733333D01*
X167282858Y-88733333D01*
X167378096Y-88780952D01*
X167425715Y-88828571D01*
X167473334Y-88923810D01*
X167473334Y-89161905D01*
X167425715Y-89257143D01*
X167378096Y-89304762D01*
X167282858Y-89352381D01*
X167044762Y-89352381D01*
X166949524Y-89304762D01*
X166901905Y-89257143D01*
X168330477Y-88352381D02*
X168140000Y-88352381D01*
X168044762Y-88400000D01*
X167997143Y-88447619D01*
X167901905Y-88590476D01*
X167854286Y-88780952D01*
X167854286Y-89161905D01*
X167901905Y-89257143D01*
X167949524Y-89304762D01*
X168044762Y-89352381D01*
X168235239Y-89352381D01*
X168330477Y-89304762D01*
X168378096Y-89257143D01*
X168425715Y-89161905D01*
X168425715Y-88923810D01*
X168378096Y-88828571D01*
X168330477Y-88780952D01*
X168235239Y-88733333D01*
X168044762Y-88733333D01*
X167949524Y-88780952D01*
X167901905Y-88828571D01*
X167854286Y-88923810D01*
X169187620Y-88828571D02*
X169330477Y-88876190D01*
X169378096Y-88923810D01*
X169425715Y-89019048D01*
X169425715Y-89161905D01*
X169378096Y-89257143D01*
X169330477Y-89304762D01*
X169235239Y-89352381D01*
X168854286Y-89352381D01*
X168854286Y-88352381D01*
X169187620Y-88352381D01*
X169282858Y-88400000D01*
X169330477Y-88447619D01*
X169378096Y-88542857D01*
X169378096Y-88638095D01*
X169330477Y-88733333D01*
X169282858Y-88780952D01*
X169187620Y-88828571D01*
X168854286Y-88828571D01*
X170330477Y-89352381D02*
X169854286Y-89352381D01*
X169854286Y-88352381D01*
X170663810Y-89352381D02*
X170663810Y-88352381D01*
X171044763Y-88352381D01*
X171140001Y-88400000D01*
X171187620Y-88447619D01*
X171235239Y-88542857D01*
X171235239Y-88685714D01*
X171187620Y-88780952D01*
X171140001Y-88828571D01*
X171044763Y-88876190D01*
X170663810Y-88876190D01*
X171663810Y-88971429D02*
X172425715Y-88971429D01*
X172806667Y-88352381D02*
X173473334Y-88352381D01*
X173044762Y-89352381D01*
X180506667Y-121840476D02*
X180506667Y-121364285D01*
X180792381Y-121935714D02*
X179792381Y-121602381D01*
X180792381Y-121269047D01*
X180792381Y-120411904D02*
X180792381Y-120983333D01*
X180792381Y-120697619D02*
X179792381Y-120697619D01*
X179935238Y-120792857D01*
X180030476Y-120888095D01*
X180078095Y-120983333D01*
X179792381Y-120078571D02*
X179792381Y-119459523D01*
X180173333Y-119792857D01*
X180173333Y-119649999D01*
X180220952Y-119554761D01*
X180268571Y-119507142D01*
X180363810Y-119459523D01*
X180601905Y-119459523D01*
X180697143Y-119507142D01*
X180744762Y-119554761D01*
X180792381Y-119649999D01*
X180792381Y-119935714D01*
X180744762Y-120030952D01*
X180697143Y-120078571D01*
X190666667Y-121840476D02*
X190666667Y-121364285D01*
X190952381Y-121935714D02*
X189952381Y-121602381D01*
X190952381Y-121269047D01*
X190952381Y-120411904D02*
X190952381Y-120983333D01*
X190952381Y-120697619D02*
X189952381Y-120697619D01*
X190095238Y-120792857D01*
X190190476Y-120888095D01*
X190238095Y-120983333D01*
X190285714Y-119554761D02*
X190952381Y-119554761D01*
X189904762Y-119792857D02*
X190619048Y-120030952D01*
X190619048Y-119411904D01*
X156662381Y-88407619D02*
X156186190Y-88740953D01*
X156662381Y-88979048D02*
X155662381Y-88979048D01*
X155662381Y-88598095D01*
X155710000Y-88502857D01*
X155757619Y-88455238D01*
X155852857Y-88407619D01*
X155995714Y-88407619D01*
X156090952Y-88455238D01*
X156138571Y-88502857D01*
X156186190Y-88598095D01*
X156186190Y-88979048D01*
X156376667Y-88026667D02*
X156376667Y-87550476D01*
X156662381Y-88121905D02*
X155662381Y-87788572D01*
X156662381Y-87455238D01*
X156662381Y-87121905D02*
X155662381Y-87121905D01*
X156376667Y-86788571D01*
X155662381Y-86455238D01*
X156662381Y-86455238D01*
X156757619Y-86217143D02*
X156757619Y-85455238D01*
X156138571Y-85217143D02*
X156138571Y-84883809D01*
X156662381Y-84740952D02*
X156662381Y-85217143D01*
X155662381Y-85217143D01*
X155662381Y-84740952D01*
X156662381Y-84312381D02*
X155662381Y-84312381D01*
X156662381Y-83740952D01*
X155662381Y-83740952D01*
X151900238Y-75382381D02*
X151566904Y-74906190D01*
X151328809Y-75382381D02*
X151328809Y-74382381D01*
X151709762Y-74382381D01*
X151805000Y-74430000D01*
X151852619Y-74477619D01*
X151900238Y-74572857D01*
X151900238Y-74715714D01*
X151852619Y-74810952D01*
X151805000Y-74858571D01*
X151709762Y-74906190D01*
X151328809Y-74906190D01*
X152281190Y-75096667D02*
X152757381Y-75096667D01*
X152185952Y-75382381D02*
X152519285Y-74382381D01*
X152852619Y-75382381D01*
X153185952Y-75382381D02*
X153185952Y-74382381D01*
X153519286Y-75096667D01*
X153852619Y-74382381D01*
X153852619Y-75382381D01*
X154090714Y-75477619D02*
X154852619Y-75477619D01*
X155043095Y-75334762D02*
X155185952Y-75382381D01*
X155424048Y-75382381D01*
X155519286Y-75334762D01*
X155566905Y-75287143D01*
X155614524Y-75191905D01*
X155614524Y-75096667D01*
X155566905Y-75001429D01*
X155519286Y-74953810D01*
X155424048Y-74906190D01*
X155233571Y-74858571D01*
X155138333Y-74810952D01*
X155090714Y-74763333D01*
X155043095Y-74668095D01*
X155043095Y-74572857D01*
X155090714Y-74477619D01*
X155138333Y-74430000D01*
X155233571Y-74382381D01*
X155471667Y-74382381D01*
X155614524Y-74430000D01*
X156043095Y-74858571D02*
X156376429Y-74858571D01*
X156519286Y-75382381D02*
X156043095Y-75382381D01*
X156043095Y-74382381D01*
X156519286Y-74382381D01*
X157424048Y-75382381D02*
X156947857Y-75382381D01*
X156947857Y-74382381D01*
X132588095Y-59142381D02*
X132588095Y-59951905D01*
X132635714Y-60047143D01*
X132683333Y-60094762D01*
X132778571Y-60142381D01*
X132969048Y-60142381D01*
X133064286Y-60094762D01*
X133111905Y-60047143D01*
X133159524Y-59951905D01*
X133159524Y-59142381D01*
X134111905Y-59142381D02*
X133635714Y-59142381D01*
X133588095Y-59618571D01*
X133635714Y-59570952D01*
X133730952Y-59523333D01*
X133969048Y-59523333D01*
X134064286Y-59570952D01*
X134111905Y-59618571D01*
X134159524Y-59713810D01*
X134159524Y-59951905D01*
X134111905Y-60047143D01*
X134064286Y-60094762D01*
X133969048Y-60142381D01*
X133730952Y-60142381D01*
X133635714Y-60094762D01*
X133588095Y-60047143D01*
X132802381Y-69159048D02*
X132802381Y-68492381D01*
X133802381Y-68920953D01*
X133135714Y-67682857D02*
X133802381Y-67682857D01*
X132754762Y-67920953D02*
X133469048Y-68159048D01*
X133469048Y-67540000D01*
X133802381Y-66682857D02*
X133802381Y-67159048D01*
X132802381Y-67159048D01*
X133754762Y-66397143D02*
X133802381Y-66254286D01*
X133802381Y-66016190D01*
X133754762Y-65920952D01*
X133707143Y-65873333D01*
X133611905Y-65825714D01*
X133516667Y-65825714D01*
X133421429Y-65873333D01*
X133373810Y-65920952D01*
X133326190Y-66016190D01*
X133278571Y-66206667D01*
X133230952Y-66301905D01*
X133183333Y-66349524D01*
X133088095Y-66397143D01*
X132992857Y-66397143D01*
X132897619Y-66349524D01*
X132850000Y-66301905D01*
X132802381Y-66206667D01*
X132802381Y-65968571D01*
X132850000Y-65825714D01*
X133802381Y-64873333D02*
X133802381Y-65444762D01*
X133802381Y-65159048D02*
X132802381Y-65159048D01*
X132945238Y-65254286D01*
X133040476Y-65349524D01*
X133088095Y-65444762D01*
X132802381Y-64540000D02*
X132802381Y-63920952D01*
X133183333Y-64254286D01*
X133183333Y-64111428D01*
X133230952Y-64016190D01*
X133278571Y-63968571D01*
X133373810Y-63920952D01*
X133611905Y-63920952D01*
X133707143Y-63968571D01*
X133754762Y-64016190D01*
X133802381Y-64111428D01*
X133802381Y-64397143D01*
X133754762Y-64492381D01*
X133707143Y-64540000D01*
X133230952Y-63349524D02*
X133183333Y-63444762D01*
X133135714Y-63492381D01*
X133040476Y-63540000D01*
X132992857Y-63540000D01*
X132897619Y-63492381D01*
X132850000Y-63444762D01*
X132802381Y-63349524D01*
X132802381Y-63159047D01*
X132850000Y-63063809D01*
X132897619Y-63016190D01*
X132992857Y-62968571D01*
X133040476Y-62968571D01*
X133135714Y-63016190D01*
X133183333Y-63063809D01*
X133230952Y-63159047D01*
X133230952Y-63349524D01*
X133278571Y-63444762D01*
X133326190Y-63492381D01*
X133421429Y-63540000D01*
X133611905Y-63540000D01*
X133707143Y-63492381D01*
X133754762Y-63444762D01*
X133802381Y-63349524D01*
X133802381Y-63159047D01*
X133754762Y-63063809D01*
X133707143Y-63016190D01*
X133611905Y-62968571D01*
X133421429Y-62968571D01*
X133326190Y-63016190D01*
X133278571Y-63063809D01*
X133230952Y-63159047D01*
X121158095Y-85812381D02*
X121158095Y-86621905D01*
X121205714Y-86717143D01*
X121253333Y-86764762D01*
X121348571Y-86812381D01*
X121539048Y-86812381D01*
X121634286Y-86764762D01*
X121681905Y-86717143D01*
X121729524Y-86621905D01*
X121729524Y-85812381D01*
X122634286Y-85812381D02*
X122443809Y-85812381D01*
X122348571Y-85860000D01*
X122300952Y-85907619D01*
X122205714Y-86050476D01*
X122158095Y-86240952D01*
X122158095Y-86621905D01*
X122205714Y-86717143D01*
X122253333Y-86764762D01*
X122348571Y-86812381D01*
X122539048Y-86812381D01*
X122634286Y-86764762D01*
X122681905Y-86717143D01*
X122729524Y-86621905D01*
X122729524Y-86383810D01*
X122681905Y-86288571D01*
X122634286Y-86240952D01*
X122539048Y-86193333D01*
X122348571Y-86193333D01*
X122253333Y-86240952D01*
X122205714Y-86288571D01*
X122158095Y-86383810D01*
X119181905Y-89352381D02*
X119181905Y-88352381D01*
X119515239Y-89066667D01*
X119848572Y-88352381D01*
X119848572Y-89352381D01*
X120896191Y-89257143D02*
X120848572Y-89304762D01*
X120705715Y-89352381D01*
X120610477Y-89352381D01*
X120467619Y-89304762D01*
X120372381Y-89209524D01*
X120324762Y-89114286D01*
X120277143Y-88923810D01*
X120277143Y-88780952D01*
X120324762Y-88590476D01*
X120372381Y-88495238D01*
X120467619Y-88400000D01*
X120610477Y-88352381D01*
X120705715Y-88352381D01*
X120848572Y-88400000D01*
X120896191Y-88447619D01*
X121753334Y-88352381D02*
X121562857Y-88352381D01*
X121467619Y-88400000D01*
X121420000Y-88447619D01*
X121324762Y-88590476D01*
X121277143Y-88780952D01*
X121277143Y-89161905D01*
X121324762Y-89257143D01*
X121372381Y-89304762D01*
X121467619Y-89352381D01*
X121658096Y-89352381D01*
X121753334Y-89304762D01*
X121800953Y-89257143D01*
X121848572Y-89161905D01*
X121848572Y-88923810D01*
X121800953Y-88828571D01*
X121753334Y-88780952D01*
X121658096Y-88733333D01*
X121467619Y-88733333D01*
X121372381Y-88780952D01*
X121324762Y-88828571D01*
X121277143Y-88923810D01*
X122420000Y-88780952D02*
X122324762Y-88733333D01*
X122277143Y-88685714D01*
X122229524Y-88590476D01*
X122229524Y-88542857D01*
X122277143Y-88447619D01*
X122324762Y-88400000D01*
X122420000Y-88352381D01*
X122610477Y-88352381D01*
X122705715Y-88400000D01*
X122753334Y-88447619D01*
X122800953Y-88542857D01*
X122800953Y-88590476D01*
X122753334Y-88685714D01*
X122705715Y-88733333D01*
X122610477Y-88780952D01*
X122420000Y-88780952D01*
X122324762Y-88828571D01*
X122277143Y-88876190D01*
X122229524Y-88971429D01*
X122229524Y-89161905D01*
X122277143Y-89257143D01*
X122324762Y-89304762D01*
X122420000Y-89352381D01*
X122610477Y-89352381D01*
X122705715Y-89304762D01*
X122753334Y-89257143D01*
X122800953Y-89161905D01*
X122800953Y-88971429D01*
X122753334Y-88876190D01*
X122705715Y-88828571D01*
X122610477Y-88780952D01*
X123181905Y-88447619D02*
X123229524Y-88400000D01*
X123324762Y-88352381D01*
X123562858Y-88352381D01*
X123658096Y-88400000D01*
X123705715Y-88447619D01*
X123753334Y-88542857D01*
X123753334Y-88638095D01*
X123705715Y-88780952D01*
X123134286Y-89352381D01*
X123753334Y-89352381D01*
X124705715Y-89352381D02*
X124134286Y-89352381D01*
X124420000Y-89352381D02*
X124420000Y-88352381D01*
X124324762Y-88495238D01*
X124229524Y-88590476D01*
X124134286Y-88638095D01*
X161448809Y-60936190D02*
X161448809Y-61412381D01*
X161115476Y-60412381D02*
X161448809Y-60936190D01*
X161782143Y-60412381D01*
X162639286Y-61412381D02*
X162067857Y-61412381D01*
X162353571Y-61412381D02*
X162353571Y-60412381D01*
X162258333Y-60555238D01*
X162163095Y-60650476D01*
X162067857Y-60698095D01*
X160615477Y-63285714D02*
X160615477Y-63952381D01*
X160377381Y-62904762D02*
X160139286Y-63619048D01*
X160758334Y-63619048D01*
X161139286Y-63952381D02*
X161139286Y-62952381D01*
X161472620Y-63666667D01*
X161805953Y-62952381D01*
X161805953Y-63952381D01*
X162282143Y-63952381D02*
X162282143Y-62952381D01*
X162282143Y-63428571D02*
X162853572Y-63428571D01*
X162853572Y-63952381D02*
X162853572Y-62952381D01*
X163234524Y-63285714D02*
X163758334Y-63285714D01*
X163234524Y-63952381D01*
X163758334Y-63952381D01*
X126833334Y-137697380D02*
X126500000Y-137221189D01*
X126261905Y-137697380D02*
X126261905Y-136697380D01*
X126642858Y-136697380D01*
X126738096Y-136744999D01*
X126785715Y-136792618D01*
X126833334Y-136887856D01*
X126833334Y-137030713D01*
X126785715Y-137125951D01*
X126738096Y-137173570D01*
X126642858Y-137221189D01*
X126261905Y-137221189D01*
X127690477Y-137030713D02*
X127690477Y-137697380D01*
X127452381Y-136649761D02*
X127214286Y-137364047D01*
X127833334Y-137364047D01*
X128960714Y-136697380D02*
X129579762Y-136697380D01*
X129246428Y-137078332D01*
X129389286Y-137078332D01*
X129484524Y-137125951D01*
X129532143Y-137173570D01*
X129579762Y-137268809D01*
X129579762Y-137506904D01*
X129532143Y-137602142D01*
X129484524Y-137649761D01*
X129389286Y-137697380D01*
X129103571Y-137697380D01*
X129008333Y-137649761D01*
X128960714Y-137602142D01*
X130008333Y-137697380D02*
X130008333Y-136697380D01*
X130103571Y-137316428D02*
X130389286Y-137697380D01*
X130389286Y-137030713D02*
X130008333Y-137411666D01*
X130722619Y-136697380D02*
X131341667Y-136697380D01*
X131008333Y-137078332D01*
X131151191Y-137078332D01*
X131246429Y-137125951D01*
X131294048Y-137173570D01*
X131341667Y-137268809D01*
X131341667Y-137506904D01*
X131294048Y-137602142D01*
X131246429Y-137649761D01*
X131151191Y-137697380D01*
X130865476Y-137697380D01*
X130770238Y-137649761D01*
X130722619Y-137602142D01*
X137602142Y-139707857D02*
X137649761Y-139755476D01*
X137697380Y-139898333D01*
X137697380Y-139993571D01*
X137649761Y-140136429D01*
X137554523Y-140231667D01*
X137459285Y-140279286D01*
X137268809Y-140326905D01*
X137125951Y-140326905D01*
X136935475Y-140279286D01*
X136840237Y-140231667D01*
X136744999Y-140136429D01*
X136697380Y-139993571D01*
X136697380Y-139898333D01*
X136744999Y-139755476D01*
X136792618Y-139707857D01*
X137697380Y-138755476D02*
X137697380Y-139326905D01*
X137697380Y-139041191D02*
X136697380Y-139041191D01*
X136840237Y-139136429D01*
X136935475Y-139231667D01*
X136983094Y-139326905D01*
X136697380Y-138136429D02*
X136697380Y-138041190D01*
X136744999Y-137945952D01*
X136792618Y-137898333D01*
X136887856Y-137850714D01*
X137078332Y-137803095D01*
X137316428Y-137803095D01*
X137506904Y-137850714D01*
X137602142Y-137898333D01*
X137649761Y-137945952D01*
X137697380Y-138041190D01*
X137697380Y-138136429D01*
X137649761Y-138231667D01*
X137602142Y-138279286D01*
X137506904Y-138326905D01*
X137316428Y-138374524D01*
X137078332Y-138374524D01*
X136887856Y-138326905D01*
X136792618Y-138279286D01*
X136744999Y-138231667D01*
X136697380Y-138136429D01*
X117348095Y-59142381D02*
X117348095Y-59951905D01*
X117395714Y-60047143D01*
X117443333Y-60094762D01*
X117538571Y-60142381D01*
X117729048Y-60142381D01*
X117824286Y-60094762D01*
X117871905Y-60047143D01*
X117919524Y-59951905D01*
X117919524Y-59142381D01*
X118300476Y-59142381D02*
X118967143Y-59142381D01*
X118538571Y-60142381D01*
X117562381Y-69159048D02*
X117562381Y-68492381D01*
X118562381Y-68920953D01*
X117895714Y-67682857D02*
X118562381Y-67682857D01*
X117514762Y-67920953D02*
X118229048Y-68159048D01*
X118229048Y-67540000D01*
X118562381Y-66682857D02*
X118562381Y-67159048D01*
X117562381Y-67159048D01*
X118514762Y-66397143D02*
X118562381Y-66254286D01*
X118562381Y-66016190D01*
X118514762Y-65920952D01*
X118467143Y-65873333D01*
X118371905Y-65825714D01*
X118276667Y-65825714D01*
X118181429Y-65873333D01*
X118133810Y-65920952D01*
X118086190Y-66016190D01*
X118038571Y-66206667D01*
X117990952Y-66301905D01*
X117943333Y-66349524D01*
X117848095Y-66397143D01*
X117752857Y-66397143D01*
X117657619Y-66349524D01*
X117610000Y-66301905D01*
X117562381Y-66206667D01*
X117562381Y-65968571D01*
X117610000Y-65825714D01*
X118562381Y-64873333D02*
X118562381Y-65444762D01*
X118562381Y-65159048D02*
X117562381Y-65159048D01*
X117705238Y-65254286D01*
X117800476Y-65349524D01*
X117848095Y-65444762D01*
X117562381Y-64540000D02*
X117562381Y-63920952D01*
X117943333Y-64254286D01*
X117943333Y-64111428D01*
X117990952Y-64016190D01*
X118038571Y-63968571D01*
X118133810Y-63920952D01*
X118371905Y-63920952D01*
X118467143Y-63968571D01*
X118514762Y-64016190D01*
X118562381Y-64111428D01*
X118562381Y-64397143D01*
X118514762Y-64492381D01*
X118467143Y-64540000D01*
X117990952Y-63349524D02*
X117943333Y-63444762D01*
X117895714Y-63492381D01*
X117800476Y-63540000D01*
X117752857Y-63540000D01*
X117657619Y-63492381D01*
X117610000Y-63444762D01*
X117562381Y-63349524D01*
X117562381Y-63159047D01*
X117610000Y-63063809D01*
X117657619Y-63016190D01*
X117752857Y-62968571D01*
X117800476Y-62968571D01*
X117895714Y-63016190D01*
X117943333Y-63063809D01*
X117990952Y-63159047D01*
X117990952Y-63349524D01*
X118038571Y-63444762D01*
X118086190Y-63492381D01*
X118181429Y-63540000D01*
X118371905Y-63540000D01*
X118467143Y-63492381D01*
X118514762Y-63444762D01*
X118562381Y-63349524D01*
X118562381Y-63159047D01*
X118514762Y-63063809D01*
X118467143Y-63016190D01*
X118371905Y-62968571D01*
X118181429Y-62968571D01*
X118086190Y-63016190D01*
X118038571Y-63063809D01*
X117990952Y-63159047D01*
X156567143Y-70492857D02*
X156614762Y-70540476D01*
X156662381Y-70683333D01*
X156662381Y-70778571D01*
X156614762Y-70921429D01*
X156519524Y-71016667D01*
X156424286Y-71064286D01*
X156233810Y-71111905D01*
X156090952Y-71111905D01*
X155900476Y-71064286D01*
X155805238Y-71016667D01*
X155710000Y-70921429D01*
X155662381Y-70778571D01*
X155662381Y-70683333D01*
X155710000Y-70540476D01*
X155757619Y-70492857D01*
X156662381Y-69540476D02*
X156662381Y-70111905D01*
X156662381Y-69826191D02*
X155662381Y-69826191D01*
X155805238Y-69921429D01*
X155900476Y-70016667D01*
X155948095Y-70111905D01*
X156662381Y-68588095D02*
X156662381Y-69159524D01*
X156662381Y-68873810D02*
X155662381Y-68873810D01*
X155805238Y-68969048D01*
X155900476Y-69064286D01*
X155948095Y-69159524D01*
X161830000Y-77287381D02*
X161353809Y-77287381D01*
X161353809Y-76287381D01*
X162163333Y-76763571D02*
X162496667Y-76763571D01*
X162639524Y-77287381D02*
X162163333Y-77287381D01*
X162163333Y-76287381D01*
X162639524Y-76287381D01*
X163068095Y-77287381D02*
X163068095Y-76287381D01*
X163306190Y-76287381D01*
X163449048Y-76335000D01*
X163544286Y-76430238D01*
X163591905Y-76525476D01*
X163639524Y-76715952D01*
X163639524Y-76858810D01*
X163591905Y-77049286D01*
X163544286Y-77144524D01*
X163449048Y-77239762D01*
X163306190Y-77287381D01*
X163068095Y-77287381D01*
X163830000Y-77382619D02*
X164591905Y-77382619D01*
X164830000Y-76763571D02*
X165163334Y-76763571D01*
X165306191Y-77287381D02*
X164830000Y-77287381D01*
X164830000Y-76287381D01*
X165306191Y-76287381D01*
X165734762Y-77287381D02*
X165734762Y-76287381D01*
X166306191Y-77287381D01*
X166306191Y-76287381D01*
X187198095Y-70572381D02*
X187198095Y-71381905D01*
X187245714Y-71477143D01*
X187293333Y-71524762D01*
X187388571Y-71572381D01*
X187579048Y-71572381D01*
X187674286Y-71524762D01*
X187721905Y-71477143D01*
X187769524Y-71381905D01*
X187769524Y-70572381D01*
X188388571Y-71000952D02*
X188293333Y-70953333D01*
X188245714Y-70905714D01*
X188198095Y-70810476D01*
X188198095Y-70762857D01*
X188245714Y-70667619D01*
X188293333Y-70620000D01*
X188388571Y-70572381D01*
X188579048Y-70572381D01*
X188674286Y-70620000D01*
X188721905Y-70667619D01*
X188769524Y-70762857D01*
X188769524Y-70810476D01*
X188721905Y-70905714D01*
X188674286Y-70953333D01*
X188579048Y-71000952D01*
X188388571Y-71000952D01*
X188293333Y-71048571D01*
X188245714Y-71096190D01*
X188198095Y-71191429D01*
X188198095Y-71381905D01*
X188245714Y-71477143D01*
X188293333Y-71524762D01*
X188388571Y-71572381D01*
X188579048Y-71572381D01*
X188674286Y-71524762D01*
X188721905Y-71477143D01*
X188769524Y-71381905D01*
X188769524Y-71191429D01*
X188721905Y-71096190D01*
X188674286Y-71048571D01*
X188579048Y-71000952D01*
X175950952Y-70572381D02*
X176617619Y-70572381D01*
X176189047Y-71572381D01*
X177427143Y-70905714D02*
X177427143Y-71572381D01*
X177189047Y-70524762D02*
X176950952Y-71239048D01*
X177570000Y-71239048D01*
X178427143Y-71572381D02*
X177950952Y-71572381D01*
X177950952Y-70572381D01*
X178712857Y-71524762D02*
X178855714Y-71572381D01*
X179093810Y-71572381D01*
X179189048Y-71524762D01*
X179236667Y-71477143D01*
X179284286Y-71381905D01*
X179284286Y-71286667D01*
X179236667Y-71191429D01*
X179189048Y-71143810D01*
X179093810Y-71096190D01*
X178903333Y-71048571D01*
X178808095Y-71000952D01*
X178760476Y-70953333D01*
X178712857Y-70858095D01*
X178712857Y-70762857D01*
X178760476Y-70667619D01*
X178808095Y-70620000D01*
X178903333Y-70572381D01*
X179141429Y-70572381D01*
X179284286Y-70620000D01*
X179665238Y-70667619D02*
X179712857Y-70620000D01*
X179808095Y-70572381D01*
X180046191Y-70572381D01*
X180141429Y-70620000D01*
X180189048Y-70667619D01*
X180236667Y-70762857D01*
X180236667Y-70858095D01*
X180189048Y-71000952D01*
X179617619Y-71572381D01*
X180236667Y-71572381D01*
X181093810Y-70905714D02*
X181093810Y-71572381D01*
X180855714Y-70524762D02*
X180617619Y-71239048D01*
X181236667Y-71239048D01*
X181808095Y-70572381D02*
X181903334Y-70572381D01*
X181998572Y-70620000D01*
X182046191Y-70667619D01*
X182093810Y-70762857D01*
X182141429Y-70953333D01*
X182141429Y-71191429D01*
X182093810Y-71381905D01*
X182046191Y-71477143D01*
X181998572Y-71524762D01*
X181903334Y-71572381D01*
X181808095Y-71572381D01*
X181712857Y-71524762D01*
X181665238Y-71477143D01*
X181617619Y-71381905D01*
X181570000Y-71191429D01*
X181570000Y-70953333D01*
X181617619Y-70762857D01*
X181665238Y-70667619D01*
X181712857Y-70620000D01*
X181808095Y-70572381D01*
X149677381Y-52935000D02*
X148677381Y-52935000D01*
X149153571Y-52935000D02*
X149153571Y-52363571D01*
X149677381Y-52363571D02*
X148677381Y-52363571D01*
X149391667Y-51935000D02*
X149391667Y-51458809D01*
X149677381Y-52030238D02*
X148677381Y-51696905D01*
X149677381Y-51363571D01*
X149677381Y-50554047D02*
X149677381Y-51030238D01*
X148677381Y-51030238D01*
X148677381Y-50363571D02*
X148677381Y-49792142D01*
X149677381Y-50077857D02*
X148677381Y-50077857D01*
X138882381Y-52887381D02*
X138406190Y-53220715D01*
X138882381Y-53458810D02*
X137882381Y-53458810D01*
X137882381Y-53077857D01*
X137930000Y-52982619D01*
X137977619Y-52935000D01*
X138072857Y-52887381D01*
X138215714Y-52887381D01*
X138310952Y-52935000D01*
X138358571Y-52982619D01*
X138406190Y-53077857D01*
X138406190Y-53458810D01*
X138358571Y-52458810D02*
X138358571Y-52125476D01*
X138882381Y-51982619D02*
X138882381Y-52458810D01*
X137882381Y-52458810D01*
X137882381Y-51982619D01*
X138834762Y-51601667D02*
X138882381Y-51458810D01*
X138882381Y-51220714D01*
X138834762Y-51125476D01*
X138787143Y-51077857D01*
X138691905Y-51030238D01*
X138596667Y-51030238D01*
X138501429Y-51077857D01*
X138453810Y-51125476D01*
X138406190Y-51220714D01*
X138358571Y-51411191D01*
X138310952Y-51506429D01*
X138263333Y-51554048D01*
X138168095Y-51601667D01*
X138072857Y-51601667D01*
X137977619Y-51554048D01*
X137930000Y-51506429D01*
X137882381Y-51411191D01*
X137882381Y-51173095D01*
X137930000Y-51030238D01*
X138358571Y-50601667D02*
X138358571Y-50268333D01*
X138882381Y-50125476D02*
X138882381Y-50601667D01*
X137882381Y-50601667D01*
X137882381Y-50125476D01*
X137882381Y-49839762D02*
X137882381Y-49268333D01*
X138882381Y-49554048D02*
X137882381Y-49554048D01*
X128087381Y-52530238D02*
X127087381Y-52530238D01*
X128087381Y-51958809D01*
X127087381Y-51958809D01*
X128087381Y-51482619D02*
X127087381Y-51482619D01*
X127801667Y-51149285D01*
X127087381Y-50815952D01*
X128087381Y-50815952D01*
X128087381Y-50339762D02*
X127087381Y-50339762D01*
X117292381Y-52458809D02*
X116292381Y-52458809D01*
X117292381Y-51411190D02*
X116816190Y-51744524D01*
X117292381Y-51982619D02*
X116292381Y-51982619D01*
X116292381Y-51601666D01*
X116340000Y-51506428D01*
X116387619Y-51458809D01*
X116482857Y-51411190D01*
X116625714Y-51411190D01*
X116720952Y-51458809D01*
X116768571Y-51506428D01*
X116816190Y-51601666D01*
X116816190Y-51982619D01*
X117387619Y-50315952D02*
X117340000Y-50411190D01*
X117244762Y-50506428D01*
X117101905Y-50649285D01*
X117054286Y-50744524D01*
X117054286Y-50839762D01*
X117292381Y-50792143D02*
X117244762Y-50887381D01*
X117149524Y-50982619D01*
X116959048Y-51030238D01*
X116625714Y-51030238D01*
X116435238Y-50982619D01*
X116340000Y-50887381D01*
X116292381Y-50792143D01*
X116292381Y-50601666D01*
X116340000Y-50506428D01*
X116435238Y-50411190D01*
X116625714Y-50363571D01*
X116959048Y-50363571D01*
X117149524Y-50411190D01*
X117244762Y-50506428D01*
X117292381Y-50601666D01*
X117292381Y-50792143D01*
X192222381Y-52482619D02*
X191222381Y-52482619D01*
X191174762Y-51292143D02*
X192460476Y-52149286D01*
X191222381Y-50768334D02*
X191222381Y-50577857D01*
X191270000Y-50482619D01*
X191365238Y-50387381D01*
X191555714Y-50339762D01*
X191889048Y-50339762D01*
X192079524Y-50387381D01*
X192174762Y-50482619D01*
X192222381Y-50577857D01*
X192222381Y-50768334D01*
X192174762Y-50863572D01*
X192079524Y-50958810D01*
X191889048Y-51006429D01*
X191555714Y-51006429D01*
X191365238Y-50958810D01*
X191270000Y-50863572D01*
X191222381Y-50768334D01*
X181427381Y-52220714D02*
X180951190Y-52554048D01*
X181427381Y-52792143D02*
X180427381Y-52792143D01*
X180427381Y-52411190D01*
X180475000Y-52315952D01*
X180522619Y-52268333D01*
X180617857Y-52220714D01*
X180760714Y-52220714D01*
X180855952Y-52268333D01*
X180903571Y-52315952D01*
X180951190Y-52411190D01*
X180951190Y-52792143D01*
X180379762Y-51077857D02*
X181665476Y-51935000D01*
X180427381Y-50839762D02*
X181427381Y-50601667D01*
X180713095Y-50411190D01*
X181427381Y-50220714D01*
X180427381Y-49982619D01*
X169632381Y-52768333D02*
X170632381Y-52435000D01*
X169632381Y-52101666D01*
X170632381Y-51768333D02*
X169632381Y-51768333D01*
X170346667Y-51434999D01*
X169632381Y-51101666D01*
X170632381Y-51101666D01*
X170346667Y-50673095D02*
X170346667Y-50196904D01*
X170632381Y-50768333D02*
X169632381Y-50435000D01*
X170632381Y-50101666D01*
X159313571Y-51649286D02*
X159313571Y-51315952D01*
X159837381Y-51173095D02*
X159837381Y-51649286D01*
X158837381Y-51649286D01*
X158837381Y-51173095D01*
X171283334Y-58872381D02*
X170950000Y-58396190D01*
X170711905Y-58872381D02*
X170711905Y-57872381D01*
X171092858Y-57872381D01*
X171188096Y-57920000D01*
X171235715Y-57967619D01*
X171283334Y-58062857D01*
X171283334Y-58205714D01*
X171235715Y-58300952D01*
X171188096Y-58348571D01*
X171092858Y-58396190D01*
X170711905Y-58396190D01*
X172188096Y-57872381D02*
X171711905Y-57872381D01*
X171664286Y-58348571D01*
X171711905Y-58300952D01*
X171807143Y-58253333D01*
X172045239Y-58253333D01*
X172140477Y-58300952D01*
X172188096Y-58348571D01*
X172235715Y-58443810D01*
X172235715Y-58681905D01*
X172188096Y-58777143D01*
X172140477Y-58824762D01*
X172045239Y-58872381D01*
X171807143Y-58872381D01*
X171711905Y-58824762D01*
X171664286Y-58777143D01*
X170997619Y-62198095D02*
X170950000Y-62150476D01*
X170902381Y-62055238D01*
X170902381Y-61817142D01*
X170950000Y-61721904D01*
X170997619Y-61674285D01*
X171092857Y-61626666D01*
X171188095Y-61626666D01*
X171330952Y-61674285D01*
X171902381Y-62245714D01*
X171902381Y-61626666D01*
X170997619Y-61245714D02*
X170950000Y-61198095D01*
X170902381Y-61102857D01*
X170902381Y-60864761D01*
X170950000Y-60769523D01*
X170997619Y-60721904D01*
X171092857Y-60674285D01*
X171188095Y-60674285D01*
X171330952Y-60721904D01*
X171902381Y-61293333D01*
X171902381Y-60674285D01*
X170902381Y-60055238D02*
X170902381Y-59959999D01*
X170950000Y-59864761D01*
X170997619Y-59817142D01*
X171092857Y-59769523D01*
X171283333Y-59721904D01*
X171521429Y-59721904D01*
X171711905Y-59769523D01*
X171807143Y-59817142D01*
X171854762Y-59864761D01*
X171902381Y-59959999D01*
X171902381Y-60055238D01*
X171854762Y-60150476D01*
X171807143Y-60198095D01*
X171711905Y-60245714D01*
X171521429Y-60293333D01*
X171283333Y-60293333D01*
X171092857Y-60245714D01*
X170997619Y-60198095D01*
X170950000Y-60150476D01*
X170902381Y-60055238D01*
X175093334Y-58872381D02*
X174760000Y-58396190D01*
X174521905Y-58872381D02*
X174521905Y-57872381D01*
X174902858Y-57872381D01*
X174998096Y-57920000D01*
X175045715Y-57967619D01*
X175093334Y-58062857D01*
X175093334Y-58205714D01*
X175045715Y-58300952D01*
X174998096Y-58348571D01*
X174902858Y-58396190D01*
X174521905Y-58396190D01*
X175950477Y-57872381D02*
X175760000Y-57872381D01*
X175664762Y-57920000D01*
X175617143Y-57967619D01*
X175521905Y-58110476D01*
X175474286Y-58300952D01*
X175474286Y-58681905D01*
X175521905Y-58777143D01*
X175569524Y-58824762D01*
X175664762Y-58872381D01*
X175855239Y-58872381D01*
X175950477Y-58824762D01*
X175998096Y-58777143D01*
X176045715Y-58681905D01*
X176045715Y-58443810D01*
X175998096Y-58348571D01*
X175950477Y-58300952D01*
X175855239Y-58253333D01*
X175664762Y-58253333D01*
X175569524Y-58300952D01*
X175521905Y-58348571D01*
X175474286Y-58443810D01*
X174807619Y-62198095D02*
X174760000Y-62150476D01*
X174712381Y-62055238D01*
X174712381Y-61817142D01*
X174760000Y-61721904D01*
X174807619Y-61674285D01*
X174902857Y-61626666D01*
X174998095Y-61626666D01*
X175140952Y-61674285D01*
X175712381Y-62245714D01*
X175712381Y-61626666D01*
X174807619Y-61245714D02*
X174760000Y-61198095D01*
X174712381Y-61102857D01*
X174712381Y-60864761D01*
X174760000Y-60769523D01*
X174807619Y-60721904D01*
X174902857Y-60674285D01*
X174998095Y-60674285D01*
X175140952Y-60721904D01*
X175712381Y-61293333D01*
X175712381Y-60674285D01*
X174712381Y-60055238D02*
X174712381Y-59959999D01*
X174760000Y-59864761D01*
X174807619Y-59817142D01*
X174902857Y-59769523D01*
X175093333Y-59721904D01*
X175331429Y-59721904D01*
X175521905Y-59769523D01*
X175617143Y-59817142D01*
X175664762Y-59864761D01*
X175712381Y-59959999D01*
X175712381Y-60055238D01*
X175664762Y-60150476D01*
X175617143Y-60198095D01*
X175521905Y-60245714D01*
X175331429Y-60293333D01*
X175093333Y-60293333D01*
X174902857Y-60245714D01*
X174807619Y-60198095D01*
X174760000Y-60150476D01*
X174712381Y-60055238D01*
X178903334Y-58872381D02*
X178570000Y-58396190D01*
X178331905Y-58872381D02*
X178331905Y-57872381D01*
X178712858Y-57872381D01*
X178808096Y-57920000D01*
X178855715Y-57967619D01*
X178903334Y-58062857D01*
X178903334Y-58205714D01*
X178855715Y-58300952D01*
X178808096Y-58348571D01*
X178712858Y-58396190D01*
X178331905Y-58396190D01*
X179236667Y-57872381D02*
X179903334Y-57872381D01*
X179474762Y-58872381D01*
X178617619Y-62198095D02*
X178570000Y-62150476D01*
X178522381Y-62055238D01*
X178522381Y-61817142D01*
X178570000Y-61721904D01*
X178617619Y-61674285D01*
X178712857Y-61626666D01*
X178808095Y-61626666D01*
X178950952Y-61674285D01*
X179522381Y-62245714D01*
X179522381Y-61626666D01*
X178617619Y-61245714D02*
X178570000Y-61198095D01*
X178522381Y-61102857D01*
X178522381Y-60864761D01*
X178570000Y-60769523D01*
X178617619Y-60721904D01*
X178712857Y-60674285D01*
X178808095Y-60674285D01*
X178950952Y-60721904D01*
X179522381Y-61293333D01*
X179522381Y-60674285D01*
X178522381Y-60055238D02*
X178522381Y-59959999D01*
X178570000Y-59864761D01*
X178617619Y-59817142D01*
X178712857Y-59769523D01*
X178903333Y-59721904D01*
X179141429Y-59721904D01*
X179331905Y-59769523D01*
X179427143Y-59817142D01*
X179474762Y-59864761D01*
X179522381Y-59959999D01*
X179522381Y-60055238D01*
X179474762Y-60150476D01*
X179427143Y-60198095D01*
X179331905Y-60245714D01*
X179141429Y-60293333D01*
X178903333Y-60293333D01*
X178712857Y-60245714D01*
X178617619Y-60198095D01*
X178570000Y-60150476D01*
X178522381Y-60055238D01*
X182713334Y-58872381D02*
X182380000Y-58396190D01*
X182141905Y-58872381D02*
X182141905Y-57872381D01*
X182522858Y-57872381D01*
X182618096Y-57920000D01*
X182665715Y-57967619D01*
X182713334Y-58062857D01*
X182713334Y-58205714D01*
X182665715Y-58300952D01*
X182618096Y-58348571D01*
X182522858Y-58396190D01*
X182141905Y-58396190D01*
X183284762Y-58300952D02*
X183189524Y-58253333D01*
X183141905Y-58205714D01*
X183094286Y-58110476D01*
X183094286Y-58062857D01*
X183141905Y-57967619D01*
X183189524Y-57920000D01*
X183284762Y-57872381D01*
X183475239Y-57872381D01*
X183570477Y-57920000D01*
X183618096Y-57967619D01*
X183665715Y-58062857D01*
X183665715Y-58110476D01*
X183618096Y-58205714D01*
X183570477Y-58253333D01*
X183475239Y-58300952D01*
X183284762Y-58300952D01*
X183189524Y-58348571D01*
X183141905Y-58396190D01*
X183094286Y-58491429D01*
X183094286Y-58681905D01*
X183141905Y-58777143D01*
X183189524Y-58824762D01*
X183284762Y-58872381D01*
X183475239Y-58872381D01*
X183570477Y-58824762D01*
X183618096Y-58777143D01*
X183665715Y-58681905D01*
X183665715Y-58491429D01*
X183618096Y-58396190D01*
X183570477Y-58348571D01*
X183475239Y-58300952D01*
X182427619Y-62198095D02*
X182380000Y-62150476D01*
X182332381Y-62055238D01*
X182332381Y-61817142D01*
X182380000Y-61721904D01*
X182427619Y-61674285D01*
X182522857Y-61626666D01*
X182618095Y-61626666D01*
X182760952Y-61674285D01*
X183332381Y-62245714D01*
X183332381Y-61626666D01*
X182427619Y-61245714D02*
X182380000Y-61198095D01*
X182332381Y-61102857D01*
X182332381Y-60864761D01*
X182380000Y-60769523D01*
X182427619Y-60721904D01*
X182522857Y-60674285D01*
X182618095Y-60674285D01*
X182760952Y-60721904D01*
X183332381Y-61293333D01*
X183332381Y-60674285D01*
X182332381Y-60055238D02*
X182332381Y-59959999D01*
X182380000Y-59864761D01*
X182427619Y-59817142D01*
X182522857Y-59769523D01*
X182713333Y-59721904D01*
X182951429Y-59721904D01*
X183141905Y-59769523D01*
X183237143Y-59817142D01*
X183284762Y-59864761D01*
X183332381Y-59959999D01*
X183332381Y-60055238D01*
X183284762Y-60150476D01*
X183237143Y-60198095D01*
X183141905Y-60245714D01*
X182951429Y-60293333D01*
X182713333Y-60293333D01*
X182522857Y-60245714D01*
X182427619Y-60198095D01*
X182380000Y-60150476D01*
X182332381Y-60055238D01*
X185888334Y-58872381D02*
X185555000Y-58396190D01*
X185316905Y-58872381D02*
X185316905Y-57872381D01*
X185697858Y-57872381D01*
X185793096Y-57920000D01*
X185840715Y-57967619D01*
X185888334Y-58062857D01*
X185888334Y-58205714D01*
X185840715Y-58300952D01*
X185793096Y-58348571D01*
X185697858Y-58396190D01*
X185316905Y-58396190D01*
X186364524Y-58872381D02*
X186555000Y-58872381D01*
X186650239Y-58824762D01*
X186697858Y-58777143D01*
X186793096Y-58634286D01*
X186840715Y-58443810D01*
X186840715Y-58062857D01*
X186793096Y-57967619D01*
X186745477Y-57920000D01*
X186650239Y-57872381D01*
X186459762Y-57872381D01*
X186364524Y-57920000D01*
X186316905Y-57967619D01*
X186269286Y-58062857D01*
X186269286Y-58300952D01*
X186316905Y-58396190D01*
X186364524Y-58443810D01*
X186459762Y-58491429D01*
X186650239Y-58491429D01*
X186745477Y-58443810D01*
X186793096Y-58396190D01*
X186840715Y-58300952D01*
X185602619Y-62198095D02*
X185555000Y-62150476D01*
X185507381Y-62055238D01*
X185507381Y-61817142D01*
X185555000Y-61721904D01*
X185602619Y-61674285D01*
X185697857Y-61626666D01*
X185793095Y-61626666D01*
X185935952Y-61674285D01*
X186507381Y-62245714D01*
X186507381Y-61626666D01*
X185602619Y-61245714D02*
X185555000Y-61198095D01*
X185507381Y-61102857D01*
X185507381Y-60864761D01*
X185555000Y-60769523D01*
X185602619Y-60721904D01*
X185697857Y-60674285D01*
X185793095Y-60674285D01*
X185935952Y-60721904D01*
X186507381Y-61293333D01*
X186507381Y-60674285D01*
X185507381Y-60055238D02*
X185507381Y-59959999D01*
X185555000Y-59864761D01*
X185602619Y-59817142D01*
X185697857Y-59769523D01*
X185888333Y-59721904D01*
X186126429Y-59721904D01*
X186316905Y-59769523D01*
X186412143Y-59817142D01*
X186459762Y-59864761D01*
X186507381Y-59959999D01*
X186507381Y-60055238D01*
X186459762Y-60150476D01*
X186412143Y-60198095D01*
X186316905Y-60245714D01*
X186126429Y-60293333D01*
X185888333Y-60293333D01*
X185697857Y-60245714D01*
X185602619Y-60198095D01*
X185555000Y-60150476D01*
X185507381Y-60055238D01*
X189222143Y-58872381D02*
X188888809Y-58396190D01*
X188650714Y-58872381D02*
X188650714Y-57872381D01*
X189031667Y-57872381D01*
X189126905Y-57920000D01*
X189174524Y-57967619D01*
X189222143Y-58062857D01*
X189222143Y-58205714D01*
X189174524Y-58300952D01*
X189126905Y-58348571D01*
X189031667Y-58396190D01*
X188650714Y-58396190D01*
X190174524Y-58872381D02*
X189603095Y-58872381D01*
X189888809Y-58872381D02*
X189888809Y-57872381D01*
X189793571Y-58015238D01*
X189698333Y-58110476D01*
X189603095Y-58158095D01*
X190793571Y-57872381D02*
X190888810Y-57872381D01*
X190984048Y-57920000D01*
X191031667Y-57967619D01*
X191079286Y-58062857D01*
X191126905Y-58253333D01*
X191126905Y-58491429D01*
X191079286Y-58681905D01*
X191031667Y-58777143D01*
X190984048Y-58824762D01*
X190888810Y-58872381D01*
X190793571Y-58872381D01*
X190698333Y-58824762D01*
X190650714Y-58777143D01*
X190603095Y-58681905D01*
X190555476Y-58491429D01*
X190555476Y-58253333D01*
X190603095Y-58062857D01*
X190650714Y-57967619D01*
X190698333Y-57920000D01*
X190793571Y-57872381D01*
X189412619Y-62198095D02*
X189365000Y-62150476D01*
X189317381Y-62055238D01*
X189317381Y-61817142D01*
X189365000Y-61721904D01*
X189412619Y-61674285D01*
X189507857Y-61626666D01*
X189603095Y-61626666D01*
X189745952Y-61674285D01*
X190317381Y-62245714D01*
X190317381Y-61626666D01*
X189412619Y-61245714D02*
X189365000Y-61198095D01*
X189317381Y-61102857D01*
X189317381Y-60864761D01*
X189365000Y-60769523D01*
X189412619Y-60721904D01*
X189507857Y-60674285D01*
X189603095Y-60674285D01*
X189745952Y-60721904D01*
X190317381Y-61293333D01*
X190317381Y-60674285D01*
X189317381Y-60055238D02*
X189317381Y-59959999D01*
X189365000Y-59864761D01*
X189412619Y-59817142D01*
X189507857Y-59769523D01*
X189698333Y-59721904D01*
X189936429Y-59721904D01*
X190126905Y-59769523D01*
X190222143Y-59817142D01*
X190269762Y-59864761D01*
X190317381Y-59959999D01*
X190317381Y-60055238D01*
X190269762Y-60150476D01*
X190222143Y-60198095D01*
X190126905Y-60245714D01*
X189936429Y-60293333D01*
X189698333Y-60293333D01*
X189507857Y-60245714D01*
X189412619Y-60198095D01*
X189365000Y-60150476D01*
X189317381Y-60055238D01*
X193032143Y-58872381D02*
X192698809Y-58396190D01*
X192460714Y-58872381D02*
X192460714Y-57872381D01*
X192841667Y-57872381D01*
X192936905Y-57920000D01*
X192984524Y-57967619D01*
X193032143Y-58062857D01*
X193032143Y-58205714D01*
X192984524Y-58300952D01*
X192936905Y-58348571D01*
X192841667Y-58396190D01*
X192460714Y-58396190D01*
X193984524Y-58872381D02*
X193413095Y-58872381D01*
X193698809Y-58872381D02*
X193698809Y-57872381D01*
X193603571Y-58015238D01*
X193508333Y-58110476D01*
X193413095Y-58158095D01*
X194936905Y-58872381D02*
X194365476Y-58872381D01*
X194651190Y-58872381D02*
X194651190Y-57872381D01*
X194555952Y-58015238D01*
X194460714Y-58110476D01*
X194365476Y-58158095D01*
X193222619Y-62198095D02*
X193175000Y-62150476D01*
X193127381Y-62055238D01*
X193127381Y-61817142D01*
X193175000Y-61721904D01*
X193222619Y-61674285D01*
X193317857Y-61626666D01*
X193413095Y-61626666D01*
X193555952Y-61674285D01*
X194127381Y-62245714D01*
X194127381Y-61626666D01*
X193222619Y-61245714D02*
X193175000Y-61198095D01*
X193127381Y-61102857D01*
X193127381Y-60864761D01*
X193175000Y-60769523D01*
X193222619Y-60721904D01*
X193317857Y-60674285D01*
X193413095Y-60674285D01*
X193555952Y-60721904D01*
X194127381Y-61293333D01*
X194127381Y-60674285D01*
X193127381Y-60055238D02*
X193127381Y-59959999D01*
X193175000Y-59864761D01*
X193222619Y-59817142D01*
X193317857Y-59769523D01*
X193508333Y-59721904D01*
X193746429Y-59721904D01*
X193936905Y-59769523D01*
X194032143Y-59817142D01*
X194079762Y-59864761D01*
X194127381Y-59959999D01*
X194127381Y-60055238D01*
X194079762Y-60150476D01*
X194032143Y-60198095D01*
X193936905Y-60245714D01*
X193746429Y-60293333D01*
X193508333Y-60293333D01*
X193317857Y-60245714D01*
X193222619Y-60198095D01*
X193175000Y-60150476D01*
X193127381Y-60055238D01*
X196842143Y-58872381D02*
X196508809Y-58396190D01*
X196270714Y-58872381D02*
X196270714Y-57872381D01*
X196651667Y-57872381D01*
X196746905Y-57920000D01*
X196794524Y-57967619D01*
X196842143Y-58062857D01*
X196842143Y-58205714D01*
X196794524Y-58300952D01*
X196746905Y-58348571D01*
X196651667Y-58396190D01*
X196270714Y-58396190D01*
X197794524Y-58872381D02*
X197223095Y-58872381D01*
X197508809Y-58872381D02*
X197508809Y-57872381D01*
X197413571Y-58015238D01*
X197318333Y-58110476D01*
X197223095Y-58158095D01*
X198175476Y-57967619D02*
X198223095Y-57920000D01*
X198318333Y-57872381D01*
X198556429Y-57872381D01*
X198651667Y-57920000D01*
X198699286Y-57967619D01*
X198746905Y-58062857D01*
X198746905Y-58158095D01*
X198699286Y-58300952D01*
X198127857Y-58872381D01*
X198746905Y-58872381D01*
X197032619Y-62198095D02*
X196985000Y-62150476D01*
X196937381Y-62055238D01*
X196937381Y-61817142D01*
X196985000Y-61721904D01*
X197032619Y-61674285D01*
X197127857Y-61626666D01*
X197223095Y-61626666D01*
X197365952Y-61674285D01*
X197937381Y-62245714D01*
X197937381Y-61626666D01*
X197032619Y-61245714D02*
X196985000Y-61198095D01*
X196937381Y-61102857D01*
X196937381Y-60864761D01*
X196985000Y-60769523D01*
X197032619Y-60721904D01*
X197127857Y-60674285D01*
X197223095Y-60674285D01*
X197365952Y-60721904D01*
X197937381Y-61293333D01*
X197937381Y-60674285D01*
X196937381Y-60055238D02*
X196937381Y-59959999D01*
X196985000Y-59864761D01*
X197032619Y-59817142D01*
X197127857Y-59769523D01*
X197318333Y-59721904D01*
X197556429Y-59721904D01*
X197746905Y-59769523D01*
X197842143Y-59817142D01*
X197889762Y-59864761D01*
X197937381Y-59959999D01*
X197937381Y-60055238D01*
X197889762Y-60150476D01*
X197842143Y-60198095D01*
X197746905Y-60245714D01*
X197556429Y-60293333D01*
X197318333Y-60293333D01*
X197127857Y-60245714D01*
X197032619Y-60198095D01*
X196985000Y-60150476D01*
X196937381Y-60055238D01*
X147828095Y-54272381D02*
X147828095Y-55081905D01*
X147875714Y-55177143D01*
X147923333Y-55224762D01*
X148018571Y-55272381D01*
X148209048Y-55272381D01*
X148304286Y-55224762D01*
X148351905Y-55177143D01*
X148399524Y-55081905D01*
X148399524Y-54272381D01*
X149304286Y-54605714D02*
X149304286Y-55272381D01*
X149066190Y-54224762D02*
X148828095Y-54939048D01*
X149447143Y-54939048D01*
X148042381Y-67412857D02*
X148042381Y-66746190D01*
X149042381Y-67174762D01*
X148375714Y-65936666D02*
X149042381Y-65936666D01*
X147994762Y-66174762D02*
X148709048Y-66412857D01*
X148709048Y-65793809D01*
X149042381Y-64936666D02*
X149042381Y-65412857D01*
X148042381Y-65412857D01*
X148994762Y-64650952D02*
X149042381Y-64508095D01*
X149042381Y-64269999D01*
X148994762Y-64174761D01*
X148947143Y-64127142D01*
X148851905Y-64079523D01*
X148756667Y-64079523D01*
X148661429Y-64127142D01*
X148613810Y-64174761D01*
X148566190Y-64269999D01*
X148518571Y-64460476D01*
X148470952Y-64555714D01*
X148423333Y-64603333D01*
X148328095Y-64650952D01*
X148232857Y-64650952D01*
X148137619Y-64603333D01*
X148090000Y-64555714D01*
X148042381Y-64460476D01*
X148042381Y-64222380D01*
X148090000Y-64079523D01*
X148042381Y-63460476D02*
X148042381Y-63365237D01*
X148090000Y-63269999D01*
X148137619Y-63222380D01*
X148232857Y-63174761D01*
X148423333Y-63127142D01*
X148661429Y-63127142D01*
X148851905Y-63174761D01*
X148947143Y-63222380D01*
X148994762Y-63269999D01*
X149042381Y-63365237D01*
X149042381Y-63460476D01*
X148994762Y-63555714D01*
X148947143Y-63603333D01*
X148851905Y-63650952D01*
X148661429Y-63698571D01*
X148423333Y-63698571D01*
X148232857Y-63650952D01*
X148137619Y-63603333D01*
X148090000Y-63555714D01*
X148042381Y-63460476D01*
X148042381Y-62508095D02*
X148042381Y-62412856D01*
X148090000Y-62317618D01*
X148137619Y-62269999D01*
X148232857Y-62222380D01*
X148423333Y-62174761D01*
X148661429Y-62174761D01*
X148851905Y-62222380D01*
X148947143Y-62269999D01*
X148994762Y-62317618D01*
X149042381Y-62412856D01*
X149042381Y-62508095D01*
X148994762Y-62603333D01*
X148947143Y-62650952D01*
X148851905Y-62698571D01*
X148661429Y-62746190D01*
X148423333Y-62746190D01*
X148232857Y-62698571D01*
X148137619Y-62650952D01*
X148090000Y-62603333D01*
X148042381Y-62508095D01*
X139049524Y-75382381D02*
X139049524Y-74382381D01*
X139287619Y-74382381D01*
X139430477Y-74430000D01*
X139525715Y-74525238D01*
X139573334Y-74620476D01*
X139620953Y-74810952D01*
X139620953Y-74953810D01*
X139573334Y-75144286D01*
X139525715Y-75239524D01*
X139430477Y-75334762D01*
X139287619Y-75382381D01*
X139049524Y-75382381D01*
X140049524Y-74858571D02*
X140382858Y-74858571D01*
X140525715Y-75382381D02*
X140049524Y-75382381D01*
X140049524Y-74382381D01*
X140525715Y-74382381D01*
X141525715Y-75287143D02*
X141478096Y-75334762D01*
X141335239Y-75382381D01*
X141240001Y-75382381D01*
X141097143Y-75334762D01*
X141001905Y-75239524D01*
X140954286Y-75144286D01*
X140906667Y-74953810D01*
X140906667Y-74810952D01*
X140954286Y-74620476D01*
X141001905Y-74525238D01*
X141097143Y-74430000D01*
X141240001Y-74382381D01*
X141335239Y-74382381D01*
X141478096Y-74430000D01*
X141525715Y-74477619D01*
X142144762Y-74382381D02*
X142335239Y-74382381D01*
X142430477Y-74430000D01*
X142525715Y-74525238D01*
X142573334Y-74715714D01*
X142573334Y-75049048D01*
X142525715Y-75239524D01*
X142430477Y-75334762D01*
X142335239Y-75382381D01*
X142144762Y-75382381D01*
X142049524Y-75334762D01*
X141954286Y-75239524D01*
X141906667Y-75049048D01*
X141906667Y-74715714D01*
X141954286Y-74525238D01*
X142049524Y-74430000D01*
X142144762Y-74382381D01*
X143001905Y-75382381D02*
X143001905Y-74382381D01*
X143240000Y-74382381D01*
X143382858Y-74430000D01*
X143478096Y-74525238D01*
X143525715Y-74620476D01*
X143573334Y-74810952D01*
X143573334Y-74953810D01*
X143525715Y-75144286D01*
X143478096Y-75239524D01*
X143382858Y-75334762D01*
X143240000Y-75382381D01*
X143001905Y-75382381D01*
X144001905Y-74858571D02*
X144335239Y-74858571D01*
X144478096Y-75382381D02*
X144001905Y-75382381D01*
X144001905Y-74382381D01*
X144478096Y-74382381D01*
X144906667Y-75382381D02*
X144906667Y-74382381D01*
X145144762Y-74382381D01*
X145287620Y-74430000D01*
X145382858Y-74525238D01*
X145430477Y-74620476D01*
X145478096Y-74810952D01*
X145478096Y-74953810D01*
X145430477Y-75144286D01*
X145382858Y-75239524D01*
X145287620Y-75334762D01*
X145144762Y-75382381D01*
X144906667Y-75382381D01*
M02*
