M48
;DRILL file {KiCad 4.0.7} date 11/10/19 20:34:05
;FORMAT={2:4/ absolute / inch / suppress leading zeros}
FMAT,2
INCH,TZ
T1C0.016
T2C0.031
T3C0.035
T4C0.039
T5C0.120
%
G90
G05
M72
T1
X40000Y-28000
X43500Y-56750
X44250Y-40500
X44500Y-32250
X46000Y-54500
X46250Y-50250
X46250Y-54750
X46500Y-47250
X46500Y-50000
X46750Y-25750
X46750Y-46250
X46750Y-49750
X47000Y-24750
X47000Y-45250
X47000Y-48750
X47250Y-23750
X47250Y-44250
X47250Y-47750
X47500Y-43250
X47500Y-46750
X47500Y-47250
X47750Y-42250
X47750Y-45750
X47750Y-47500
X48000Y-41250
X48000Y-44750
X48000Y-47250
X48250Y-31250
X48250Y-40250
X48250Y-43750
X48250Y-47500
X48500Y-48000
X48750Y-31250
X48750Y-56500
X49000Y-31750
X49000Y-56250
X49250Y-19250
X50000Y-23250
X50000Y-31750
X50250Y-30500
X50250Y-32000
X50250Y-36750
X50250Y-42750
X50250Y-53750
X50500Y-35500
X50500Y-51250
X50750Y-52750
X53000Y-39250
X53250Y-39000
X53250Y-41500
X53500Y-56750
X53750Y-56250
X54750Y-35250
X54750Y-39750
X54750Y-41500
X55000Y-30500
X55000Y-56000
X55250Y-19250
X55250Y-36250
X55250Y-52250
X55500Y-34250
X55500Y-41500
X55500Y-52000
X55500Y-55250
X55750Y-38250
X55750Y-52250
X55750Y-56000
X55750Y-56500
X56000Y-38750
X56000Y-48750
X56000Y-52000
X56250Y-33250
X56250Y-39000
X56250Y-52250
X56250Y-54750
X56500Y-32750
X56500Y-50250
X56500Y-51750
X56500Y-53000
X56750Y-32500
X56750Y-51000
X56750Y-56500
X57000Y-32750
X57000Y-33750
X57000Y-50750
X57250Y-32500
X57250Y-49750
X57500Y-32750
X57500Y-48750
X57750Y-32250
X57750Y-47750
X57750Y-56500
X58000Y-34750
X58000Y-47250
X58250Y-27750
X58250Y-28500
X58250Y-30000
X58250Y-35750
X58250Y-46250
X58500Y-23750
X58500Y-28250
X58500Y-36750
X58500Y-45250
X58750Y-23500
X58750Y-28500
X58750Y-31250
X58750Y-31750
X58750Y-37750
X58750Y-44250
X58750Y-56500
X59000Y-23750
X59000Y-28250
X59000Y-28750
X59000Y-31000
X59000Y-38750
X59000Y-43250
X59250Y-23000
X59250Y-29500
X59250Y-32000
X59250Y-39750
X59250Y-42250
X59500Y-31000
X59750Y-56500
X60250Y-29250
X60500Y-28000
X60500Y-44500
X60750Y-41750
X60750Y-44250
X61000Y-31000
X61000Y-40500
X61000Y-42000
X61250Y-27500
X61250Y-29000
X61250Y-30750
X61250Y-41500
X61750Y-19250
X61750Y-31000
X62500Y-56750
X63500Y-40500
X63500Y-41500
X63500Y-47250
X63750Y-47500
X64000Y-47250
X64000Y-49500
X64000Y-51750
X64250Y-30500
X64250Y-39000
X64250Y-47500
X64250Y-49250
X64250Y-52000
X64500Y-34250
X64500Y-39250
X64500Y-47250
X64500Y-49500
X64500Y-51750
X64750Y-37500
X64750Y-38500
X64750Y-47500
X64750Y-49250
X64750Y-52000
X65000Y-36500
X65000Y-47250
X65000Y-49500
X65000Y-51750
X65250Y-35500
X65250Y-49250
X65250Y-52000
X65500Y-27750
X65500Y-36000
X65500Y-47250
X65500Y-49500
X65500Y-51750
X65750Y-31750
X65750Y-37000
X65750Y-49250
X66000Y-47250
X66000Y-49500
X66000Y-50000
X66000Y-51750
X66250Y-30750
X66250Y-38000
X66250Y-47500
X66250Y-49250
X66250Y-50500
X66250Y-52000
X66500Y-33750
X66500Y-47250
X66500Y-49500
X66500Y-51750
X66750Y-30250
X66750Y-39250
X66750Y-40000
X66750Y-47500
X66750Y-49250
X67000Y-32250
X67000Y-49500
X67000Y-51000
X67000Y-51500
X67250Y-31000
X67250Y-32500
X67250Y-50750
X67250Y-51750
X67500Y-51500
X67750Y-51250
X68250Y-39750
X68250Y-47250
X68500Y-46500
X69500Y-27000
X69500Y-44000
X69750Y-43000
X70000Y-31250
X70000Y-42000
X70000Y-46000
X70250Y-45750
X70750Y-30750
X71000Y-31250
X71250Y-36500
X71250Y-37500
X71250Y-38500
X71500Y-30000
X73250Y-21250
X73250Y-28500
X74000Y-28000
X75250Y-32250
X75750Y-56000
X76750Y-35250
X76750Y-46000
X77000Y-32250
X77000Y-33250
X77000Y-45750
X77250Y-34750
X77250Y-46000
X77500Y-33500
X77750Y-56500
X78250Y-56500
T2
X43750Y-50031
X43750Y-52000
X43750Y-54000
X43750Y-55500
X45000Y-22500
X45000Y-23500
X45000Y-24500
X45000Y-25500
X45000Y-26500
X45000Y-27500
X45000Y-28500
X45000Y-29500
X45000Y-33000
X45000Y-34000
X45000Y-35000
X45000Y-36000
X45000Y-37000
X45000Y-38000
X45000Y-39000
X45000Y-40000
X45000Y-41000
X45000Y-42000
X45000Y-43000
X45000Y-44000
X45000Y-45000
X45000Y-46000
X45000Y-47000
X45000Y-48000
X45000Y-49000
X45000Y-50000
X45000Y-51000
X45000Y-52000
X47750Y-54000
X47750Y-55500
X48000Y-22500
X48000Y-23500
X48000Y-24500
X48000Y-25500
X48000Y-26500
X48000Y-27500
X48000Y-28500
X48000Y-29500
X48750Y-54000
X48750Y-55500
X49500Y-22500
X49500Y-24469
X51000Y-22500
X51000Y-23500
X51000Y-24500
X51000Y-25500
X51000Y-26500
X51000Y-27500
X51000Y-28500
X51000Y-29500
X51000Y-33000
X51000Y-34000
X51000Y-35000
X51000Y-36000
X51000Y-37000
X51000Y-38000
X51000Y-39000
X51000Y-40000
X51000Y-41000
X51000Y-42000
X51000Y-43000
X51000Y-44000
X51000Y-45000
X51000Y-46000
X51000Y-47000
X51000Y-48000
X51000Y-49000
X51000Y-50000
X51000Y-51000
X51000Y-52000
X52500Y-40000
X52500Y-41969
X52750Y-54000
X52750Y-55500
X54000Y-22500
X54000Y-23500
X54000Y-24500
X54000Y-25500
X54000Y-26500
X54000Y-27500
X54000Y-28500
X54000Y-29500
X54000Y-33000
X54000Y-34000
X54000Y-35000
X54000Y-36000
X54000Y-37000
X54000Y-38000
X54000Y-39000
X54000Y-40000
X54000Y-41000
X54000Y-42000
X54000Y-43000
X54000Y-44000
X54000Y-45000
X54000Y-46000
X54000Y-47000
X54000Y-48000
X54000Y-49000
X54000Y-50000
X54000Y-51000
X54000Y-52000
X54000Y-53781
X54000Y-55750
X55500Y-22500
X55500Y-24469
X57000Y-22500
X57000Y-23500
X57000Y-24500
X57000Y-25500
X57000Y-26500
X57000Y-27500
X57000Y-28500
X60000Y-22500
X60000Y-23500
X60000Y-24500
X60000Y-25500
X60000Y-26500
X60000Y-27500
X60000Y-28500
X60000Y-33000
X60000Y-34000
X60000Y-35000
X60000Y-36000
X60000Y-37000
X60000Y-38000
X60000Y-39000
X60000Y-40000
X60000Y-41000
X60000Y-42000
X60000Y-43000
X60000Y-44000
X60000Y-45000
X60000Y-46000
X60000Y-47000
X60000Y-48000
X60000Y-49000
X60000Y-50000
X60000Y-51000
X60000Y-52000
X61250Y-22500
X61500Y-26500
X61500Y-28469
X62750Y-24500
X63000Y-33000
X63000Y-34000
X63000Y-35000
X63000Y-36000
X63000Y-37000
X63000Y-38000
X63000Y-39000
X63000Y-40000
X63000Y-41000
X63000Y-42000
X63000Y-43000
X63000Y-44000
X63000Y-45000
X63000Y-46000
X63219Y-22500
X64281Y-22500
X64671Y-24500
X66000Y-26500
X66000Y-29500
X66250Y-22500
X67000Y-26500
X67000Y-29500
X67500Y-22250
X67500Y-25250
X68000Y-26500
X68000Y-29500
X69000Y-22250
X69000Y-25250
X69000Y-26500
X69000Y-29500
X69000Y-33000
X69000Y-34000
X69000Y-35000
X69000Y-36000
X69000Y-37000
X69000Y-38000
X69000Y-39000
X69000Y-40000
X69000Y-41000
X69000Y-42000
X69000Y-43000
X69000Y-44000
X69000Y-45000
X69000Y-46000
X70000Y-26500
X70000Y-29500
X70500Y-22250
X70500Y-25250
X70500Y-33000
X70500Y-34969
X71000Y-26500
X71000Y-29500
X72000Y-22250
X72000Y-25250
X72000Y-26500
X72000Y-29500
X72000Y-33000
X72000Y-34000
X72000Y-35000
X72000Y-36000
X72000Y-37000
X72000Y-38000
X72000Y-39000
X72000Y-40000
X72000Y-41000
X72000Y-42000
X72000Y-43000
X72000Y-44000
X72000Y-45000
X72000Y-46000
X73000Y-26500
X73000Y-29500
X73031Y-31500
X73250Y-22250
X73250Y-25250
X74000Y-26500
X74000Y-29500
X74750Y-22250
X74750Y-25250
X75000Y-26500
X75000Y-29500
X75000Y-31500
X76031Y-31500
X76250Y-22250
X76250Y-25250
X77750Y-22250
X77750Y-25250
X78000Y-31500
X78000Y-33000
X78000Y-34000
X78000Y-35000
X78000Y-36000
X78000Y-37000
X78000Y-38000
X78000Y-39000
X78000Y-40000
X78000Y-41000
X78000Y-42000
X78000Y-43000
X78000Y-44000
X78000Y-45000
X78000Y-46000
T3
X44250Y-19750
X44250Y-20750
X48500Y-19750
X48500Y-20750
X52750Y-19750
X52750Y-20750
X57000Y-19750
X57000Y-20750
X61000Y-19750
X61000Y-20750
X65250Y-19750
X65250Y-20750
X69500Y-19750
X69500Y-20750
X73750Y-19750
X73750Y-20750
T4
X40000Y-57250
X41000Y-57250
X41250Y-33000
X41250Y-34000
X41250Y-35000
X41250Y-36000
X41250Y-37000
X41250Y-38000
X41250Y-39000
X41250Y-40000
X41250Y-41000
X41250Y-42000
X41250Y-43000
X41250Y-44000
X41250Y-45000
X41250Y-46000
X41250Y-47000
X41250Y-48000
X41250Y-49000
X41250Y-50000
X41250Y-51000
X41250Y-52000
X42000Y-57250
X42250Y-33000
X42250Y-34000
X42250Y-35000
X42250Y-36000
X42250Y-37000
X42250Y-38000
X42250Y-39000
X42250Y-40000
X42250Y-41000
X42250Y-42000
X42250Y-43000
X42250Y-44000
X42250Y-45000
X42250Y-46000
X42250Y-47000
X42250Y-48000
X42250Y-49000
X42250Y-50000
X42250Y-51000
X42250Y-52000
X43000Y-57250
X44000Y-57250
X45000Y-57250
X46000Y-57250
X47000Y-57250
X48000Y-57250
X49000Y-57250
X50000Y-57250
X51000Y-57250
X52000Y-57250
X53000Y-57250
X54000Y-57250
X55000Y-57250
X55500Y-26500
X55500Y-27500
X55500Y-28500
X56000Y-57250
X57000Y-57250
X58000Y-57250
X59000Y-57250
X60000Y-57250
X61000Y-57250
X61500Y-36000
X61500Y-37000
X61500Y-38000
X62000Y-57250
X63000Y-27000
X63000Y-28000
X63000Y-29000
X63000Y-57250
X64000Y-57250
X64500Y-27000
X64500Y-28000
X64500Y-29000
X65000Y-57250
X66000Y-57250
X67000Y-57250
X68000Y-57250
X69000Y-57250
X70000Y-57250
X71000Y-57250
X72000Y-47500
X72000Y-57250
X73000Y-47500
X73000Y-57250
X74000Y-47500
X74000Y-57250
X75000Y-57250
X76000Y-47500
X76000Y-57250
X77000Y-47500
X77000Y-57250
X78000Y-47500
X78000Y-57250
T5
X41000Y-29500
X41000Y-55250
X77000Y-29500
X77000Y-55250
T4
X41138Y-23356G85X41138Y-24144
G05
X41925Y-25600G85X42713Y-25600
G05
X43500Y-23356G85X43500Y-24144
G05
T0
M30
