G04 #@! TF.FileFunction,Legend,Bot*
%FSLAX46Y46*%
G04 Gerber Fmt 4.6, Leading zero omitted, Abs format (unit mm)*
G04 Created by KiCad (PCBNEW 4.0.7) date 11/14/19 18:34:41*
%MOMM*%
%LPD*%
G01*
G04 APERTURE LIST*
%ADD10C,0.100000*%
%ADD11C,0.200000*%
%ADD12C,0.150000*%
G04 APERTURE END LIST*
D10*
X108534047Y-56711905D02*
X108915000Y-56711905D01*
X108953095Y-57092857D01*
X108915000Y-57054762D01*
X108838809Y-57016667D01*
X108648333Y-57016667D01*
X108572143Y-57054762D01*
X108534047Y-57092857D01*
X108495952Y-57169048D01*
X108495952Y-57359524D01*
X108534047Y-57435714D01*
X108572143Y-57473810D01*
X108648333Y-57511905D01*
X108838809Y-57511905D01*
X108915000Y-57473810D01*
X108953095Y-57435714D01*
X108229285Y-56978571D02*
X108038809Y-57511905D01*
X107848333Y-56978571D01*
X106934047Y-57511905D02*
X106934047Y-56711905D01*
X106743571Y-56711905D01*
X106629285Y-56750000D01*
X106553094Y-56826190D01*
X106514999Y-56902381D01*
X106476904Y-57054762D01*
X106476904Y-57169048D01*
X106514999Y-57321429D01*
X106553094Y-57397619D01*
X106629285Y-57473810D01*
X106743571Y-57511905D01*
X106934047Y-57511905D01*
X105676904Y-57435714D02*
X105714999Y-57473810D01*
X105829285Y-57511905D01*
X105905475Y-57511905D01*
X106019761Y-57473810D01*
X106095952Y-57397619D01*
X106134047Y-57321429D01*
X106172142Y-57169048D01*
X106172142Y-57054762D01*
X106134047Y-56902381D01*
X106095952Y-56826190D01*
X106019761Y-56750000D01*
X105905475Y-56711905D01*
X105829285Y-56711905D01*
X105714999Y-56750000D01*
X105676904Y-56788095D01*
D11*
X110490000Y-64770000D02*
X110490000Y-62230000D01*
X109220000Y-64770000D02*
X110490000Y-64770000D01*
X104140000Y-64770000D02*
X105410000Y-64770000D01*
X104140000Y-62230000D02*
X104140000Y-64770000D01*
X110490000Y-56515000D02*
X110490000Y-58420000D01*
X104140000Y-55880000D02*
X104140000Y-58420000D01*
X110490000Y-55880000D02*
X104140000Y-55880000D01*
X110490000Y-56515000D02*
X110490000Y-55880000D01*
X182880000Y-122555000D02*
X185420000Y-122555000D01*
X182880000Y-121285000D02*
X182880000Y-122555000D01*
X193040000Y-122555000D02*
X193040000Y-121285000D01*
X195580000Y-122555000D02*
X193040000Y-122555000D01*
D12*
X149470476Y-93432381D02*
X149279999Y-93432381D01*
X149184761Y-93480000D01*
X149089523Y-93575238D01*
X149041904Y-93765714D01*
X149041904Y-94099048D01*
X149089523Y-94289524D01*
X149184761Y-94384762D01*
X149279999Y-94432381D01*
X149470476Y-94432381D01*
X149565714Y-94384762D01*
X149660952Y-94289524D01*
X149708571Y-94099048D01*
X149708571Y-93765714D01*
X149660952Y-93575238D01*
X149565714Y-93480000D01*
X149470476Y-93432381D01*
X148613333Y-93765714D02*
X148613333Y-94432381D01*
X148613333Y-93860952D02*
X148565714Y-93813333D01*
X148470476Y-93765714D01*
X148327618Y-93765714D01*
X148232380Y-93813333D01*
X148184761Y-93908571D01*
X148184761Y-94432381D01*
X147708571Y-94051429D02*
X146946666Y-94051429D01*
X145899047Y-94337143D02*
X145946666Y-94384762D01*
X146089523Y-94432381D01*
X146184761Y-94432381D01*
X146327619Y-94384762D01*
X146422857Y-94289524D01*
X146470476Y-94194286D01*
X146518095Y-94003810D01*
X146518095Y-93860952D01*
X146470476Y-93670476D01*
X146422857Y-93575238D01*
X146327619Y-93480000D01*
X146184761Y-93432381D01*
X146089523Y-93432381D01*
X145946666Y-93480000D01*
X145899047Y-93527619D01*
X145470476Y-94432381D02*
X145470476Y-93432381D01*
X145041904Y-94432381D02*
X145041904Y-93908571D01*
X145089523Y-93813333D01*
X145184761Y-93765714D01*
X145327619Y-93765714D01*
X145422857Y-93813333D01*
X145470476Y-93860952D01*
X144565714Y-94432381D02*
X144565714Y-93765714D01*
X144565714Y-93432381D02*
X144613333Y-93480000D01*
X144565714Y-93527619D01*
X144518095Y-93480000D01*
X144565714Y-93432381D01*
X144565714Y-93527619D01*
X144089524Y-93765714D02*
X144089524Y-94765714D01*
X144089524Y-93813333D02*
X143994286Y-93765714D01*
X143803809Y-93765714D01*
X143708571Y-93813333D01*
X143660952Y-93860952D01*
X143613333Y-93956190D01*
X143613333Y-94241905D01*
X143660952Y-94337143D01*
X143708571Y-94384762D01*
X143803809Y-94432381D01*
X143994286Y-94432381D01*
X144089524Y-94384762D01*
X141851428Y-94432381D02*
X142184762Y-93956190D01*
X142422857Y-94432381D02*
X142422857Y-93432381D01*
X142041904Y-93432381D01*
X141946666Y-93480000D01*
X141899047Y-93527619D01*
X141851428Y-93622857D01*
X141851428Y-93765714D01*
X141899047Y-93860952D01*
X141946666Y-93908571D01*
X142041904Y-93956190D01*
X142422857Y-93956190D01*
X141470476Y-94146667D02*
X140994285Y-94146667D01*
X141565714Y-94432381D02*
X141232381Y-93432381D01*
X140899047Y-94432381D01*
X140565714Y-94432381D02*
X140565714Y-93432381D01*
X140232380Y-94146667D01*
X139899047Y-93432381D01*
X139899047Y-94432381D01*
D10*
X140334762Y-98771905D02*
X140791905Y-98771905D01*
X140563334Y-98771905D02*
X140563334Y-97971905D01*
X140639524Y-98086190D01*
X140715715Y-98162381D01*
X140791905Y-98200476D01*
X139991905Y-98467143D02*
X139382381Y-98467143D01*
X139039524Y-98048095D02*
X139001429Y-98010000D01*
X138925238Y-97971905D01*
X138734762Y-97971905D01*
X138658572Y-98010000D01*
X138620476Y-98048095D01*
X138582381Y-98124286D01*
X138582381Y-98200476D01*
X138620476Y-98314762D01*
X139077619Y-98771905D01*
X138582381Y-98771905D01*
X140334762Y-100071905D02*
X140791905Y-100071905D01*
X140563334Y-100071905D02*
X140563334Y-99271905D01*
X140639524Y-99386190D01*
X140715715Y-99462381D01*
X140791905Y-99500476D01*
X139991905Y-99767143D02*
X139382381Y-99767143D01*
X139039524Y-99348095D02*
X139001429Y-99310000D01*
X138925238Y-99271905D01*
X138734762Y-99271905D01*
X138658572Y-99310000D01*
X138620476Y-99348095D01*
X138582381Y-99424286D01*
X138582381Y-99500476D01*
X138620476Y-99614762D01*
X139077619Y-100071905D01*
X138582381Y-100071905D01*
X150482381Y-98771905D02*
X150749048Y-98390952D01*
X150939524Y-98771905D02*
X150939524Y-97971905D01*
X150634762Y-97971905D01*
X150558571Y-98010000D01*
X150520476Y-98048095D01*
X150482381Y-98124286D01*
X150482381Y-98238571D01*
X150520476Y-98314762D01*
X150558571Y-98352857D01*
X150634762Y-98390952D01*
X150939524Y-98390952D01*
X150177619Y-98543333D02*
X149796667Y-98543333D01*
X150253810Y-98771905D02*
X149987143Y-97971905D01*
X149720476Y-98771905D01*
X149453810Y-98771905D02*
X149453810Y-97971905D01*
X149187143Y-98543333D01*
X148920476Y-97971905D01*
X148920476Y-98771905D01*
X148730000Y-98848095D02*
X148120476Y-98848095D01*
X147930000Y-98352857D02*
X147663333Y-98352857D01*
X147549047Y-98771905D02*
X147930000Y-98771905D01*
X147930000Y-97971905D01*
X147549047Y-97971905D01*
X147206190Y-98771905D02*
X147206190Y-97971905D01*
X146749047Y-98771905D01*
X146749047Y-97971905D01*
X150482381Y-100071905D02*
X150749048Y-99690952D01*
X150939524Y-100071905D02*
X150939524Y-99271905D01*
X150634762Y-99271905D01*
X150558571Y-99310000D01*
X150520476Y-99348095D01*
X150482381Y-99424286D01*
X150482381Y-99538571D01*
X150520476Y-99614762D01*
X150558571Y-99652857D01*
X150634762Y-99690952D01*
X150939524Y-99690952D01*
X150177619Y-99843333D02*
X149796667Y-99843333D01*
X150253810Y-100071905D02*
X149987143Y-99271905D01*
X149720476Y-100071905D01*
X149453810Y-100071905D02*
X149453810Y-99271905D01*
X149187143Y-99843333D01*
X148920476Y-99271905D01*
X148920476Y-100071905D01*
X148730000Y-100148095D02*
X148120476Y-100148095D01*
X147968095Y-100033810D02*
X147853809Y-100071905D01*
X147663333Y-100071905D01*
X147587143Y-100033810D01*
X147549047Y-99995714D01*
X147510952Y-99919524D01*
X147510952Y-99843333D01*
X147549047Y-99767143D01*
X147587143Y-99729048D01*
X147663333Y-99690952D01*
X147815714Y-99652857D01*
X147891905Y-99614762D01*
X147930000Y-99576667D01*
X147968095Y-99500476D01*
X147968095Y-99424286D01*
X147930000Y-99348095D01*
X147891905Y-99310000D01*
X147815714Y-99271905D01*
X147625238Y-99271905D01*
X147510952Y-99310000D01*
X147168095Y-99652857D02*
X146901428Y-99652857D01*
X146787142Y-100071905D02*
X147168095Y-100071905D01*
X147168095Y-99271905D01*
X146787142Y-99271905D01*
X146063332Y-100071905D02*
X146444285Y-100071905D01*
X146444285Y-99271905D01*
D12*
X150684762Y-96924762D02*
X150541905Y-96972381D01*
X150303809Y-96972381D01*
X150208571Y-96924762D01*
X150160952Y-96877143D01*
X150113333Y-96781905D01*
X150113333Y-96686667D01*
X150160952Y-96591429D01*
X150208571Y-96543810D01*
X150303809Y-96496190D01*
X150494286Y-96448571D01*
X150589524Y-96400952D01*
X150637143Y-96353333D01*
X150684762Y-96258095D01*
X150684762Y-96162857D01*
X150637143Y-96067619D01*
X150589524Y-96020000D01*
X150494286Y-95972381D01*
X150256190Y-95972381D01*
X150113333Y-96020000D01*
X150399048Y-95829524D02*
X150399048Y-97115238D01*
X149494286Y-95972381D02*
X149399047Y-95972381D01*
X149303809Y-96020000D01*
X149256190Y-96067619D01*
X149208571Y-96162857D01*
X149160952Y-96353333D01*
X149160952Y-96591429D01*
X149208571Y-96781905D01*
X149256190Y-96877143D01*
X149303809Y-96924762D01*
X149399047Y-96972381D01*
X149494286Y-96972381D01*
X149589524Y-96924762D01*
X149637143Y-96877143D01*
X149684762Y-96781905D01*
X149732381Y-96591429D01*
X149732381Y-96353333D01*
X149684762Y-96162857D01*
X149637143Y-96067619D01*
X149589524Y-96020000D01*
X149494286Y-95972381D01*
X148541905Y-95972381D02*
X148446666Y-95972381D01*
X148351428Y-96020000D01*
X148303809Y-96067619D01*
X148256190Y-96162857D01*
X148208571Y-96353333D01*
X148208571Y-96591429D01*
X148256190Y-96781905D01*
X148303809Y-96877143D01*
X148351428Y-96924762D01*
X148446666Y-96972381D01*
X148541905Y-96972381D01*
X148637143Y-96924762D01*
X148684762Y-96877143D01*
X148732381Y-96781905D01*
X148780000Y-96591429D01*
X148780000Y-96353333D01*
X148732381Y-96162857D01*
X148684762Y-96067619D01*
X148637143Y-96020000D01*
X148541905Y-95972381D01*
X147589524Y-95972381D02*
X147494285Y-95972381D01*
X147399047Y-96020000D01*
X147351428Y-96067619D01*
X147303809Y-96162857D01*
X147256190Y-96353333D01*
X147256190Y-96591429D01*
X147303809Y-96781905D01*
X147351428Y-96877143D01*
X147399047Y-96924762D01*
X147494285Y-96972381D01*
X147589524Y-96972381D01*
X147684762Y-96924762D01*
X147732381Y-96877143D01*
X147780000Y-96781905D01*
X147827619Y-96591429D01*
X147827619Y-96353333D01*
X147780000Y-96162857D01*
X147732381Y-96067619D01*
X147684762Y-96020000D01*
X147589524Y-95972381D01*
X146637143Y-95972381D02*
X146541904Y-95972381D01*
X146446666Y-96020000D01*
X146399047Y-96067619D01*
X146351428Y-96162857D01*
X146303809Y-96353333D01*
X146303809Y-96591429D01*
X146351428Y-96781905D01*
X146399047Y-96877143D01*
X146446666Y-96924762D01*
X146541904Y-96972381D01*
X146637143Y-96972381D01*
X146732381Y-96924762D01*
X146780000Y-96877143D01*
X146827619Y-96781905D01*
X146875238Y-96591429D01*
X146875238Y-96353333D01*
X146827619Y-96162857D01*
X146780000Y-96067619D01*
X146732381Y-96020000D01*
X146637143Y-95972381D01*
X145113333Y-96591429D02*
X144351428Y-96591429D01*
X143160952Y-96924762D02*
X143018095Y-96972381D01*
X142779999Y-96972381D01*
X142684761Y-96924762D01*
X142637142Y-96877143D01*
X142589523Y-96781905D01*
X142589523Y-96686667D01*
X142637142Y-96591429D01*
X142684761Y-96543810D01*
X142779999Y-96496190D01*
X142970476Y-96448571D01*
X143065714Y-96400952D01*
X143113333Y-96353333D01*
X143160952Y-96258095D01*
X143160952Y-96162857D01*
X143113333Y-96067619D01*
X143065714Y-96020000D01*
X142970476Y-95972381D01*
X142732380Y-95972381D01*
X142589523Y-96020000D01*
X142875238Y-95829524D02*
X142875238Y-97115238D01*
X141970476Y-95972381D02*
X141875237Y-95972381D01*
X141779999Y-96020000D01*
X141732380Y-96067619D01*
X141684761Y-96162857D01*
X141637142Y-96353333D01*
X141637142Y-96591429D01*
X141684761Y-96781905D01*
X141732380Y-96877143D01*
X141779999Y-96924762D01*
X141875237Y-96972381D01*
X141970476Y-96972381D01*
X142065714Y-96924762D01*
X142113333Y-96877143D01*
X142160952Y-96781905D01*
X142208571Y-96591429D01*
X142208571Y-96353333D01*
X142160952Y-96162857D01*
X142113333Y-96067619D01*
X142065714Y-96020000D01*
X141970476Y-95972381D01*
X141018095Y-95972381D02*
X140922856Y-95972381D01*
X140827618Y-96020000D01*
X140779999Y-96067619D01*
X140732380Y-96162857D01*
X140684761Y-96353333D01*
X140684761Y-96591429D01*
X140732380Y-96781905D01*
X140779999Y-96877143D01*
X140827618Y-96924762D01*
X140922856Y-96972381D01*
X141018095Y-96972381D01*
X141113333Y-96924762D01*
X141160952Y-96877143D01*
X141208571Y-96781905D01*
X141256190Y-96591429D01*
X141256190Y-96353333D01*
X141208571Y-96162857D01*
X141160952Y-96067619D01*
X141113333Y-96020000D01*
X141018095Y-95972381D01*
X140351428Y-95972381D02*
X139684761Y-95972381D01*
X140113333Y-96972381D01*
X138970475Y-96448571D02*
X139303809Y-96448571D01*
X139303809Y-96972381D02*
X139303809Y-95972381D01*
X138827618Y-95972381D01*
D10*
X119227144Y-101273810D02*
X119112858Y-101311905D01*
X118922382Y-101311905D01*
X118846192Y-101273810D01*
X118808096Y-101235714D01*
X118770001Y-101159524D01*
X118770001Y-101083333D01*
X118808096Y-101007143D01*
X118846192Y-100969048D01*
X118922382Y-100930952D01*
X119074763Y-100892857D01*
X119150954Y-100854762D01*
X119189049Y-100816667D01*
X119227144Y-100740476D01*
X119227144Y-100664286D01*
X119189049Y-100588095D01*
X119150954Y-100550000D01*
X119074763Y-100511905D01*
X118884287Y-100511905D01*
X118770001Y-100550000D01*
X118998573Y-100397619D02*
X118998573Y-101426190D01*
X118084287Y-100778571D02*
X118084287Y-101311905D01*
X118274763Y-100473810D02*
X118465239Y-101045238D01*
X117970001Y-101045238D01*
X117512858Y-100511905D02*
X117436667Y-100511905D01*
X117360477Y-100550000D01*
X117322382Y-100588095D01*
X117284286Y-100664286D01*
X117246191Y-100816667D01*
X117246191Y-101007143D01*
X117284286Y-101159524D01*
X117322382Y-101235714D01*
X117360477Y-101273810D01*
X117436667Y-101311905D01*
X117512858Y-101311905D01*
X117589048Y-101273810D01*
X117627144Y-101235714D01*
X117665239Y-101159524D01*
X117703334Y-101007143D01*
X117703334Y-100816667D01*
X117665239Y-100664286D01*
X117627144Y-100588095D01*
X117589048Y-100550000D01*
X117512858Y-100511905D01*
X116750953Y-100511905D02*
X116674762Y-100511905D01*
X116598572Y-100550000D01*
X116560477Y-100588095D01*
X116522381Y-100664286D01*
X116484286Y-100816667D01*
X116484286Y-101007143D01*
X116522381Y-101159524D01*
X116560477Y-101235714D01*
X116598572Y-101273810D01*
X116674762Y-101311905D01*
X116750953Y-101311905D01*
X116827143Y-101273810D01*
X116865239Y-101235714D01*
X116903334Y-101159524D01*
X116941429Y-101007143D01*
X116941429Y-100816667D01*
X116903334Y-100664286D01*
X116865239Y-100588095D01*
X116827143Y-100550000D01*
X116750953Y-100511905D01*
X116179524Y-100588095D02*
X116141429Y-100550000D01*
X116065238Y-100511905D01*
X115874762Y-100511905D01*
X115798572Y-100550000D01*
X115760476Y-100588095D01*
X115722381Y-100664286D01*
X115722381Y-100740476D01*
X115760476Y-100854762D01*
X116217619Y-101311905D01*
X115722381Y-101311905D01*
X119227144Y-102573810D02*
X119112858Y-102611905D01*
X118922382Y-102611905D01*
X118846192Y-102573810D01*
X118808096Y-102535714D01*
X118770001Y-102459524D01*
X118770001Y-102383333D01*
X118808096Y-102307143D01*
X118846192Y-102269048D01*
X118922382Y-102230952D01*
X119074763Y-102192857D01*
X119150954Y-102154762D01*
X119189049Y-102116667D01*
X119227144Y-102040476D01*
X119227144Y-101964286D01*
X119189049Y-101888095D01*
X119150954Y-101850000D01*
X119074763Y-101811905D01*
X118884287Y-101811905D01*
X118770001Y-101850000D01*
X118998573Y-101697619D02*
X118998573Y-102726190D01*
X118084287Y-102078571D02*
X118084287Y-102611905D01*
X118274763Y-101773810D02*
X118465239Y-102345238D01*
X117970001Y-102345238D01*
X117512858Y-101811905D02*
X117436667Y-101811905D01*
X117360477Y-101850000D01*
X117322382Y-101888095D01*
X117284286Y-101964286D01*
X117246191Y-102116667D01*
X117246191Y-102307143D01*
X117284286Y-102459524D01*
X117322382Y-102535714D01*
X117360477Y-102573810D01*
X117436667Y-102611905D01*
X117512858Y-102611905D01*
X117589048Y-102573810D01*
X117627144Y-102535714D01*
X117665239Y-102459524D01*
X117703334Y-102307143D01*
X117703334Y-102116667D01*
X117665239Y-101964286D01*
X117627144Y-101888095D01*
X117589048Y-101850000D01*
X117512858Y-101811905D01*
X116750953Y-101811905D02*
X116674762Y-101811905D01*
X116598572Y-101850000D01*
X116560477Y-101888095D01*
X116522381Y-101964286D01*
X116484286Y-102116667D01*
X116484286Y-102307143D01*
X116522381Y-102459524D01*
X116560477Y-102535714D01*
X116598572Y-102573810D01*
X116674762Y-102611905D01*
X116750953Y-102611905D01*
X116827143Y-102573810D01*
X116865239Y-102535714D01*
X116903334Y-102459524D01*
X116941429Y-102307143D01*
X116941429Y-102116667D01*
X116903334Y-101964286D01*
X116865239Y-101888095D01*
X116827143Y-101850000D01*
X116750953Y-101811905D01*
X116217619Y-101811905D02*
X115722381Y-101811905D01*
X115989048Y-102116667D01*
X115874762Y-102116667D01*
X115798572Y-102154762D01*
X115760476Y-102192857D01*
X115722381Y-102269048D01*
X115722381Y-102459524D01*
X115760476Y-102535714D01*
X115798572Y-102573810D01*
X115874762Y-102611905D01*
X116103334Y-102611905D01*
X116179524Y-102573810D01*
X116217619Y-102535714D01*
X119227144Y-96193810D02*
X119112858Y-96231905D01*
X118922382Y-96231905D01*
X118846192Y-96193810D01*
X118808096Y-96155714D01*
X118770001Y-96079524D01*
X118770001Y-96003333D01*
X118808096Y-95927143D01*
X118846192Y-95889048D01*
X118922382Y-95850952D01*
X119074763Y-95812857D01*
X119150954Y-95774762D01*
X119189049Y-95736667D01*
X119227144Y-95660476D01*
X119227144Y-95584286D01*
X119189049Y-95508095D01*
X119150954Y-95470000D01*
X119074763Y-95431905D01*
X118884287Y-95431905D01*
X118770001Y-95470000D01*
X118998573Y-95317619D02*
X118998573Y-96346190D01*
X118084287Y-95698571D02*
X118084287Y-96231905D01*
X118274763Y-95393810D02*
X118465239Y-95965238D01*
X117970001Y-95965238D01*
X117512858Y-95431905D02*
X117436667Y-95431905D01*
X117360477Y-95470000D01*
X117322382Y-95508095D01*
X117284286Y-95584286D01*
X117246191Y-95736667D01*
X117246191Y-95927143D01*
X117284286Y-96079524D01*
X117322382Y-96155714D01*
X117360477Y-96193810D01*
X117436667Y-96231905D01*
X117512858Y-96231905D01*
X117589048Y-96193810D01*
X117627144Y-96155714D01*
X117665239Y-96079524D01*
X117703334Y-95927143D01*
X117703334Y-95736667D01*
X117665239Y-95584286D01*
X117627144Y-95508095D01*
X117589048Y-95470000D01*
X117512858Y-95431905D01*
X116750953Y-95431905D02*
X116674762Y-95431905D01*
X116598572Y-95470000D01*
X116560477Y-95508095D01*
X116522381Y-95584286D01*
X116484286Y-95736667D01*
X116484286Y-95927143D01*
X116522381Y-96079524D01*
X116560477Y-96155714D01*
X116598572Y-96193810D01*
X116674762Y-96231905D01*
X116750953Y-96231905D01*
X116827143Y-96193810D01*
X116865239Y-96155714D01*
X116903334Y-96079524D01*
X116941429Y-95927143D01*
X116941429Y-95736667D01*
X116903334Y-95584286D01*
X116865239Y-95508095D01*
X116827143Y-95470000D01*
X116750953Y-95431905D01*
X115989048Y-95431905D02*
X115912857Y-95431905D01*
X115836667Y-95470000D01*
X115798572Y-95508095D01*
X115760476Y-95584286D01*
X115722381Y-95736667D01*
X115722381Y-95927143D01*
X115760476Y-96079524D01*
X115798572Y-96155714D01*
X115836667Y-96193810D01*
X115912857Y-96231905D01*
X115989048Y-96231905D01*
X116065238Y-96193810D01*
X116103334Y-96155714D01*
X116141429Y-96079524D01*
X116179524Y-95927143D01*
X116179524Y-95736667D01*
X116141429Y-95584286D01*
X116103334Y-95508095D01*
X116065238Y-95470000D01*
X115989048Y-95431905D01*
X119227144Y-97493810D02*
X119112858Y-97531905D01*
X118922382Y-97531905D01*
X118846192Y-97493810D01*
X118808096Y-97455714D01*
X118770001Y-97379524D01*
X118770001Y-97303333D01*
X118808096Y-97227143D01*
X118846192Y-97189048D01*
X118922382Y-97150952D01*
X119074763Y-97112857D01*
X119150954Y-97074762D01*
X119189049Y-97036667D01*
X119227144Y-96960476D01*
X119227144Y-96884286D01*
X119189049Y-96808095D01*
X119150954Y-96770000D01*
X119074763Y-96731905D01*
X118884287Y-96731905D01*
X118770001Y-96770000D01*
X118998573Y-96617619D02*
X118998573Y-97646190D01*
X118084287Y-96998571D02*
X118084287Y-97531905D01*
X118274763Y-96693810D02*
X118465239Y-97265238D01*
X117970001Y-97265238D01*
X117512858Y-96731905D02*
X117436667Y-96731905D01*
X117360477Y-96770000D01*
X117322382Y-96808095D01*
X117284286Y-96884286D01*
X117246191Y-97036667D01*
X117246191Y-97227143D01*
X117284286Y-97379524D01*
X117322382Y-97455714D01*
X117360477Y-97493810D01*
X117436667Y-97531905D01*
X117512858Y-97531905D01*
X117589048Y-97493810D01*
X117627144Y-97455714D01*
X117665239Y-97379524D01*
X117703334Y-97227143D01*
X117703334Y-97036667D01*
X117665239Y-96884286D01*
X117627144Y-96808095D01*
X117589048Y-96770000D01*
X117512858Y-96731905D01*
X116750953Y-96731905D02*
X116674762Y-96731905D01*
X116598572Y-96770000D01*
X116560477Y-96808095D01*
X116522381Y-96884286D01*
X116484286Y-97036667D01*
X116484286Y-97227143D01*
X116522381Y-97379524D01*
X116560477Y-97455714D01*
X116598572Y-97493810D01*
X116674762Y-97531905D01*
X116750953Y-97531905D01*
X116827143Y-97493810D01*
X116865239Y-97455714D01*
X116903334Y-97379524D01*
X116941429Y-97227143D01*
X116941429Y-97036667D01*
X116903334Y-96884286D01*
X116865239Y-96808095D01*
X116827143Y-96770000D01*
X116750953Y-96731905D01*
X115722381Y-97531905D02*
X116179524Y-97531905D01*
X115950953Y-97531905D02*
X115950953Y-96731905D01*
X116027143Y-96846190D01*
X116103334Y-96922381D01*
X116179524Y-96960476D01*
X128079524Y-101311905D02*
X128079524Y-100511905D01*
X127889048Y-100511905D01*
X127774762Y-100550000D01*
X127698571Y-100626190D01*
X127660476Y-100702381D01*
X127622381Y-100854762D01*
X127622381Y-100969048D01*
X127660476Y-101121429D01*
X127698571Y-101197619D01*
X127774762Y-101273810D01*
X127889048Y-101311905D01*
X128079524Y-101311905D01*
X127317619Y-101083333D02*
X126936667Y-101083333D01*
X127393810Y-101311905D02*
X127127143Y-100511905D01*
X126860476Y-101311905D01*
X126708096Y-100511905D02*
X126250953Y-100511905D01*
X126479524Y-101311905D02*
X126479524Y-100511905D01*
X126022381Y-101083333D02*
X125641429Y-101083333D01*
X126098572Y-101311905D02*
X125831905Y-100511905D01*
X125565238Y-101311905D01*
X127622381Y-102535714D02*
X127660476Y-102573810D01*
X127774762Y-102611905D01*
X127850952Y-102611905D01*
X127965238Y-102573810D01*
X128041429Y-102497619D01*
X128079524Y-102421429D01*
X128117619Y-102269048D01*
X128117619Y-102154762D01*
X128079524Y-102002381D01*
X128041429Y-101926190D01*
X127965238Y-101850000D01*
X127850952Y-101811905D01*
X127774762Y-101811905D01*
X127660476Y-101850000D01*
X127622381Y-101888095D01*
X127127143Y-101811905D02*
X126974762Y-101811905D01*
X126898571Y-101850000D01*
X126822381Y-101926190D01*
X126784286Y-102078571D01*
X126784286Y-102345238D01*
X126822381Y-102497619D01*
X126898571Y-102573810D01*
X126974762Y-102611905D01*
X127127143Y-102611905D01*
X127203333Y-102573810D01*
X127279524Y-102497619D01*
X127317619Y-102345238D01*
X127317619Y-102078571D01*
X127279524Y-101926190D01*
X127203333Y-101850000D01*
X127127143Y-101811905D01*
X126441429Y-102611905D02*
X126441429Y-101811905D01*
X125984286Y-102611905D01*
X125984286Y-101811905D01*
X125717620Y-101811905D02*
X125260477Y-101811905D01*
X125489048Y-102611905D02*
X125489048Y-101811905D01*
X124536667Y-102611905D02*
X124803334Y-102230952D01*
X124993810Y-102611905D02*
X124993810Y-101811905D01*
X124689048Y-101811905D01*
X124612857Y-101850000D01*
X124574762Y-101888095D01*
X124536667Y-101964286D01*
X124536667Y-102078571D01*
X124574762Y-102154762D01*
X124612857Y-102192857D01*
X124689048Y-102230952D01*
X124993810Y-102230952D01*
X124041429Y-101811905D02*
X123889048Y-101811905D01*
X123812857Y-101850000D01*
X123736667Y-101926190D01*
X123698572Y-102078571D01*
X123698572Y-102345238D01*
X123736667Y-102497619D01*
X123812857Y-102573810D01*
X123889048Y-102611905D01*
X124041429Y-102611905D01*
X124117619Y-102573810D01*
X124193810Y-102497619D01*
X124231905Y-102345238D01*
X124231905Y-102078571D01*
X124193810Y-101926190D01*
X124117619Y-101850000D01*
X124041429Y-101811905D01*
X122974762Y-102611905D02*
X123355715Y-102611905D01*
X123355715Y-101811905D01*
X128079524Y-96231905D02*
X128079524Y-95431905D01*
X127889048Y-95431905D01*
X127774762Y-95470000D01*
X127698571Y-95546190D01*
X127660476Y-95622381D01*
X127622381Y-95774762D01*
X127622381Y-95889048D01*
X127660476Y-96041429D01*
X127698571Y-96117619D01*
X127774762Y-96193810D01*
X127889048Y-96231905D01*
X128079524Y-96231905D01*
X127317619Y-96003333D02*
X126936667Y-96003333D01*
X127393810Y-96231905D02*
X127127143Y-95431905D01*
X126860476Y-96231905D01*
X126708096Y-95431905D02*
X126250953Y-95431905D01*
X126479524Y-96231905D02*
X126479524Y-95431905D01*
X126022381Y-96003333D02*
X125641429Y-96003333D01*
X126098572Y-96231905D02*
X125831905Y-95431905D01*
X125565238Y-96231905D01*
X127622381Y-97455714D02*
X127660476Y-97493810D01*
X127774762Y-97531905D01*
X127850952Y-97531905D01*
X127965238Y-97493810D01*
X128041429Y-97417619D01*
X128079524Y-97341429D01*
X128117619Y-97189048D01*
X128117619Y-97074762D01*
X128079524Y-96922381D01*
X128041429Y-96846190D01*
X127965238Y-96770000D01*
X127850952Y-96731905D01*
X127774762Y-96731905D01*
X127660476Y-96770000D01*
X127622381Y-96808095D01*
X127127143Y-96731905D02*
X126974762Y-96731905D01*
X126898571Y-96770000D01*
X126822381Y-96846190D01*
X126784286Y-96998571D01*
X126784286Y-97265238D01*
X126822381Y-97417619D01*
X126898571Y-97493810D01*
X126974762Y-97531905D01*
X127127143Y-97531905D01*
X127203333Y-97493810D01*
X127279524Y-97417619D01*
X127317619Y-97265238D01*
X127317619Y-96998571D01*
X127279524Y-96846190D01*
X127203333Y-96770000D01*
X127127143Y-96731905D01*
X126441429Y-97531905D02*
X126441429Y-96731905D01*
X125984286Y-97531905D01*
X125984286Y-96731905D01*
X125717620Y-96731905D02*
X125260477Y-96731905D01*
X125489048Y-97531905D02*
X125489048Y-96731905D01*
X124536667Y-97531905D02*
X124803334Y-97150952D01*
X124993810Y-97531905D02*
X124993810Y-96731905D01*
X124689048Y-96731905D01*
X124612857Y-96770000D01*
X124574762Y-96808095D01*
X124536667Y-96884286D01*
X124536667Y-96998571D01*
X124574762Y-97074762D01*
X124612857Y-97112857D01*
X124689048Y-97150952D01*
X124993810Y-97150952D01*
X124041429Y-96731905D02*
X123889048Y-96731905D01*
X123812857Y-96770000D01*
X123736667Y-96846190D01*
X123698572Y-96998571D01*
X123698572Y-97265238D01*
X123736667Y-97417619D01*
X123812857Y-97493810D01*
X123889048Y-97531905D01*
X124041429Y-97531905D01*
X124117619Y-97493810D01*
X124193810Y-97417619D01*
X124231905Y-97265238D01*
X124231905Y-96998571D01*
X124193810Y-96846190D01*
X124117619Y-96770000D01*
X124041429Y-96731905D01*
X122974762Y-97531905D02*
X123355715Y-97531905D01*
X123355715Y-96731905D01*
D12*
X124467619Y-99512381D02*
X124467619Y-98512381D01*
X124086666Y-98512381D01*
X123991428Y-98560000D01*
X123943809Y-98607619D01*
X123896190Y-98702857D01*
X123896190Y-98845714D01*
X123943809Y-98940952D01*
X123991428Y-98988571D01*
X124086666Y-99036190D01*
X124467619Y-99036190D01*
X123277143Y-98512381D02*
X123086666Y-98512381D01*
X122991428Y-98560000D01*
X122896190Y-98655238D01*
X122848571Y-98845714D01*
X122848571Y-99179048D01*
X122896190Y-99369524D01*
X122991428Y-99464762D01*
X123086666Y-99512381D01*
X123277143Y-99512381D01*
X123372381Y-99464762D01*
X123467619Y-99369524D01*
X123515238Y-99179048D01*
X123515238Y-98845714D01*
X123467619Y-98655238D01*
X123372381Y-98560000D01*
X123277143Y-98512381D01*
X121848571Y-99512381D02*
X122181905Y-99036190D01*
X122420000Y-99512381D02*
X122420000Y-98512381D01*
X122039047Y-98512381D01*
X121943809Y-98560000D01*
X121896190Y-98607619D01*
X121848571Y-98702857D01*
X121848571Y-98845714D01*
X121896190Y-98940952D01*
X121943809Y-98988571D01*
X122039047Y-99036190D01*
X122420000Y-99036190D01*
X121562857Y-98512381D02*
X120991428Y-98512381D01*
X121277143Y-99512381D02*
X121277143Y-98512381D01*
X119562856Y-98988571D02*
X119419999Y-99036190D01*
X119372380Y-99083810D01*
X119324761Y-99179048D01*
X119324761Y-99321905D01*
X119372380Y-99417143D01*
X119419999Y-99464762D01*
X119515237Y-99512381D01*
X119896190Y-99512381D01*
X119896190Y-98512381D01*
X119562856Y-98512381D01*
X119467618Y-98560000D01*
X119419999Y-98607619D01*
X119372380Y-98702857D01*
X119372380Y-98798095D01*
X119419999Y-98893333D01*
X119467618Y-98940952D01*
X119562856Y-98988571D01*
X119896190Y-98988571D01*
X124396191Y-94432381D02*
X124396191Y-93432381D01*
X124015238Y-93432381D01*
X123920000Y-93480000D01*
X123872381Y-93527619D01*
X123824762Y-93622857D01*
X123824762Y-93765714D01*
X123872381Y-93860952D01*
X123920000Y-93908571D01*
X124015238Y-93956190D01*
X124396191Y-93956190D01*
X123205715Y-93432381D02*
X123015238Y-93432381D01*
X122920000Y-93480000D01*
X122824762Y-93575238D01*
X122777143Y-93765714D01*
X122777143Y-94099048D01*
X122824762Y-94289524D01*
X122920000Y-94384762D01*
X123015238Y-94432381D01*
X123205715Y-94432381D01*
X123300953Y-94384762D01*
X123396191Y-94289524D01*
X123443810Y-94099048D01*
X123443810Y-93765714D01*
X123396191Y-93575238D01*
X123300953Y-93480000D01*
X123205715Y-93432381D01*
X121777143Y-94432381D02*
X122110477Y-93956190D01*
X122348572Y-94432381D02*
X122348572Y-93432381D01*
X121967619Y-93432381D01*
X121872381Y-93480000D01*
X121824762Y-93527619D01*
X121777143Y-93622857D01*
X121777143Y-93765714D01*
X121824762Y-93860952D01*
X121872381Y-93908571D01*
X121967619Y-93956190D01*
X122348572Y-93956190D01*
X121491429Y-93432381D02*
X120920000Y-93432381D01*
X121205715Y-94432381D02*
X121205715Y-93432381D01*
X119872381Y-94146667D02*
X119396190Y-94146667D01*
X119967619Y-94432381D02*
X119634286Y-93432381D01*
X119300952Y-94432381D01*
D11*
X161925000Y-66675000D02*
X158115000Y-66675000D01*
D10*
X161943810Y-77196905D02*
X162210477Y-76815952D01*
X162400953Y-77196905D02*
X162400953Y-76396905D01*
X162096191Y-76396905D01*
X162020000Y-76435000D01*
X161981905Y-76473095D01*
X161943810Y-76549286D01*
X161943810Y-76663571D01*
X161981905Y-76739762D01*
X162020000Y-76777857D01*
X162096191Y-76815952D01*
X162400953Y-76815952D01*
X161639048Y-76968333D02*
X161258096Y-76968333D01*
X161715239Y-77196905D02*
X161448572Y-76396905D01*
X161181905Y-77196905D01*
X160915239Y-77196905D02*
X160915239Y-76396905D01*
X160648572Y-76968333D01*
X160381905Y-76396905D01*
X160381905Y-77196905D01*
X160191429Y-77273095D02*
X159581905Y-77273095D01*
X159429524Y-77158810D02*
X159315238Y-77196905D01*
X159124762Y-77196905D01*
X159048572Y-77158810D01*
X159010476Y-77120714D01*
X158972381Y-77044524D01*
X158972381Y-76968333D01*
X159010476Y-76892143D01*
X159048572Y-76854048D01*
X159124762Y-76815952D01*
X159277143Y-76777857D01*
X159353334Y-76739762D01*
X159391429Y-76701667D01*
X159429524Y-76625476D01*
X159429524Y-76549286D01*
X159391429Y-76473095D01*
X159353334Y-76435000D01*
X159277143Y-76396905D01*
X159086667Y-76396905D01*
X158972381Y-76435000D01*
X158629524Y-76777857D02*
X158362857Y-76777857D01*
X158248571Y-77196905D02*
X158629524Y-77196905D01*
X158629524Y-76396905D01*
X158248571Y-76396905D01*
X157524761Y-77196905D02*
X157905714Y-77196905D01*
X157905714Y-76396905D01*
X164344285Y-64481905D02*
X164725238Y-64481905D01*
X164725238Y-63681905D01*
X164077619Y-64062857D02*
X163810952Y-64062857D01*
X163696666Y-64481905D02*
X164077619Y-64481905D01*
X164077619Y-63681905D01*
X163696666Y-63681905D01*
X163353809Y-64481905D02*
X163353809Y-63681905D01*
X163163333Y-63681905D01*
X163049047Y-63720000D01*
X162972856Y-63796190D01*
X162934761Y-63872381D01*
X162896666Y-64024762D01*
X162896666Y-64139048D01*
X162934761Y-64291429D01*
X162972856Y-64367619D01*
X163049047Y-64443810D01*
X163163333Y-64481905D01*
X163353809Y-64481905D01*
X165849048Y-65362857D02*
X165582381Y-65362857D01*
X165468095Y-65781905D02*
X165849048Y-65781905D01*
X165849048Y-64981905D01*
X165468095Y-64981905D01*
X165125238Y-65781905D02*
X165125238Y-64981905D01*
X164668095Y-65781905D01*
X164668095Y-64981905D01*
X164325238Y-65553333D02*
X163944286Y-65553333D01*
X164401429Y-65781905D02*
X164134762Y-64981905D01*
X163868095Y-65781905D01*
X163334762Y-65362857D02*
X163220476Y-65400952D01*
X163182381Y-65439048D01*
X163144286Y-65515238D01*
X163144286Y-65629524D01*
X163182381Y-65705714D01*
X163220476Y-65743810D01*
X163296667Y-65781905D01*
X163601429Y-65781905D01*
X163601429Y-64981905D01*
X163334762Y-64981905D01*
X163258572Y-65020000D01*
X163220476Y-65058095D01*
X163182381Y-65134286D01*
X163182381Y-65210476D01*
X163220476Y-65286667D01*
X163258572Y-65324762D01*
X163334762Y-65362857D01*
X163601429Y-65362857D01*
X162420476Y-65781905D02*
X162801429Y-65781905D01*
X162801429Y-64981905D01*
X162153810Y-65362857D02*
X161887143Y-65362857D01*
X161772857Y-65781905D02*
X162153810Y-65781905D01*
X162153810Y-64981905D01*
X161772857Y-64981905D01*
D11*
X165735000Y-75565000D02*
X161925000Y-75565000D01*
X165735000Y-71755000D02*
X165735000Y-75565000D01*
X165735000Y-66675000D02*
X165735000Y-67945000D01*
X161925000Y-66675000D02*
X165735000Y-66675000D01*
X161925000Y-75565000D02*
X161925000Y-71755000D01*
X158115000Y-75565000D02*
X161925000Y-75565000D01*
X158115000Y-66675000D02*
X158115000Y-75565000D01*
X161925000Y-67945000D02*
X161925000Y-66675000D01*
X121920000Y-55880000D02*
X121920000Y-56515000D01*
X114300000Y-55880000D02*
X121920000Y-55880000D01*
X114300000Y-56515000D02*
X114300000Y-55880000D01*
X114300000Y-76200000D02*
X114300000Y-75565000D01*
X121920000Y-76200000D02*
X114300000Y-76200000D01*
X121920000Y-75565000D02*
X121920000Y-76200000D01*
X137160000Y-76200000D02*
X137160000Y-75565000D01*
X129540000Y-76200000D02*
X137160000Y-76200000D01*
X129540000Y-75565000D02*
X129540000Y-76200000D01*
X129540000Y-55880000D02*
X129540000Y-56515000D01*
X137160000Y-55880000D02*
X129540000Y-55880000D01*
X137160000Y-56515000D02*
X137160000Y-55880000D01*
X152400000Y-55880000D02*
X152400000Y-56515000D01*
X144780000Y-55880000D02*
X152400000Y-55880000D01*
X144780000Y-56515000D02*
X144780000Y-55880000D01*
X152400000Y-73660000D02*
X152400000Y-73025000D01*
X144780000Y-73660000D02*
X152400000Y-73660000D01*
X144780000Y-73025000D02*
X144780000Y-73660000D01*
X191770000Y-67310000D02*
X191135000Y-67310000D01*
X191770000Y-74930000D02*
X191770000Y-67310000D01*
X191135000Y-74930000D02*
X191770000Y-74930000D01*
X166370000Y-67310000D02*
X167005000Y-67310000D01*
X166370000Y-74930000D02*
X166370000Y-67310000D01*
X167005000Y-74930000D02*
X166370000Y-74930000D01*
X198120000Y-81915000D02*
X198120000Y-83185000D01*
X182880000Y-81915000D02*
X198120000Y-81915000D01*
X182880000Y-83185000D02*
X182880000Y-81915000D01*
X175260000Y-81915000D02*
X175260000Y-83185000D01*
X160020000Y-81915000D02*
X175260000Y-81915000D01*
X160020000Y-83185000D02*
X160020000Y-81915000D01*
X114300000Y-81915000D02*
X114300000Y-83185000D01*
X129540000Y-81915000D02*
X114300000Y-81915000D01*
X129540000Y-83185000D02*
X129540000Y-81915000D01*
X114300000Y-133985000D02*
X114300000Y-132715000D01*
X129540000Y-133985000D02*
X114300000Y-133985000D01*
X129540000Y-132715000D02*
X129540000Y-133985000D01*
X160020000Y-118110000D02*
X160020000Y-117475000D01*
X175260000Y-118110000D02*
X160020000Y-118110000D01*
X175260000Y-117475000D02*
X175260000Y-118110000D01*
X198120000Y-118110000D02*
X198120000Y-117475000D01*
X182880000Y-118110000D02*
X198120000Y-118110000D01*
X182880000Y-117475000D02*
X182880000Y-118110000D01*
X152400000Y-133985000D02*
X152400000Y-132715000D01*
X137160000Y-133985000D02*
X152400000Y-133985000D01*
X137160000Y-132715000D02*
X137160000Y-133985000D01*
X152400000Y-81915000D02*
X152400000Y-83185000D01*
X137160000Y-81915000D02*
X152400000Y-81915000D01*
X137160000Y-83185000D02*
X137160000Y-81915000D01*
D10*
X157848095Y-100056905D02*
X158114762Y-99675952D01*
X158305238Y-100056905D02*
X158305238Y-99256905D01*
X158000476Y-99256905D01*
X157924285Y-99295000D01*
X157886190Y-99333095D01*
X157848095Y-99409286D01*
X157848095Y-99523571D01*
X157886190Y-99599762D01*
X157924285Y-99637857D01*
X158000476Y-99675952D01*
X158305238Y-99675952D01*
X157543333Y-99828333D02*
X157162381Y-99828333D01*
X157619524Y-100056905D02*
X157352857Y-99256905D01*
X157086190Y-100056905D01*
X156819524Y-100056905D02*
X156819524Y-99256905D01*
X156552857Y-99828333D01*
X156286190Y-99256905D01*
X156286190Y-100056905D01*
X156095714Y-100133095D02*
X155486190Y-100133095D01*
X155295714Y-99637857D02*
X155029047Y-99637857D01*
X154914761Y-100056905D02*
X155295714Y-100056905D01*
X155295714Y-99256905D01*
X154914761Y-99256905D01*
X154571904Y-100056905D02*
X154571904Y-99256905D01*
X154114761Y-100056905D01*
X154114761Y-99256905D01*
D11*
X158115000Y-89535000D02*
X158115000Y-90805000D01*
X158115000Y-98425000D02*
X158115000Y-94615000D01*
X154305000Y-98425000D02*
X158115000Y-98425000D01*
X154305000Y-89535000D02*
X154305000Y-98425000D01*
X158115000Y-89535000D02*
X154305000Y-89535000D01*
X199390000Y-118745000D02*
X180975000Y-118745000D01*
X199390000Y-123825000D02*
X199390000Y-118745000D01*
X196215000Y-123825000D02*
X199390000Y-123825000D01*
X180975000Y-123825000D02*
X180975000Y-118745000D01*
X184785000Y-123825000D02*
X180975000Y-123825000D01*
D10*
X195357143Y-123767857D02*
X195090476Y-123767857D01*
X194976190Y-124186905D02*
X195357143Y-124186905D01*
X195357143Y-123386905D01*
X194976190Y-123386905D01*
X194633333Y-123767857D02*
X194366666Y-123767857D01*
X194252380Y-124186905D02*
X194633333Y-124186905D01*
X194633333Y-123386905D01*
X194252380Y-123386905D01*
X193909523Y-124186905D02*
X193909523Y-123386905D01*
X193604761Y-123386905D01*
X193528570Y-123425000D01*
X193490475Y-123463095D01*
X193452380Y-123539286D01*
X193452380Y-123653571D01*
X193490475Y-123729762D01*
X193528570Y-123767857D01*
X193604761Y-123805952D01*
X193909523Y-123805952D01*
X192652380Y-124186905D02*
X192919047Y-123805952D01*
X193109523Y-124186905D02*
X193109523Y-123386905D01*
X192804761Y-123386905D01*
X192728570Y-123425000D01*
X192690475Y-123463095D01*
X192652380Y-123539286D01*
X192652380Y-123653571D01*
X192690475Y-123729762D01*
X192728570Y-123767857D01*
X192804761Y-123805952D01*
X193109523Y-123805952D01*
X192157142Y-123386905D02*
X192004761Y-123386905D01*
X191928570Y-123425000D01*
X191852380Y-123501190D01*
X191814285Y-123653571D01*
X191814285Y-123920238D01*
X191852380Y-124072619D01*
X191928570Y-124148810D01*
X192004761Y-124186905D01*
X192157142Y-124186905D01*
X192233332Y-124148810D01*
X192309523Y-124072619D01*
X192347618Y-123920238D01*
X192347618Y-123653571D01*
X192309523Y-123501190D01*
X192233332Y-123425000D01*
X192157142Y-123386905D01*
X191471428Y-124186905D02*
X191471428Y-123386905D01*
X191204761Y-123958333D01*
X190938094Y-123386905D01*
X190938094Y-124186905D01*
X190023808Y-123386905D02*
X189833332Y-124186905D01*
X189680951Y-123615476D01*
X189528570Y-124186905D01*
X189338094Y-123386905D01*
X189033332Y-124186905D02*
X189033332Y-123386905D01*
X188652380Y-124186905D02*
X188652380Y-123386905D01*
X188195237Y-124186905D01*
X188195237Y-123386905D01*
X187814285Y-124186905D02*
X187814285Y-123386905D01*
X187623809Y-123386905D01*
X187509523Y-123425000D01*
X187433332Y-123501190D01*
X187395237Y-123577381D01*
X187357142Y-123729762D01*
X187357142Y-123844048D01*
X187395237Y-123996429D01*
X187433332Y-124072619D01*
X187509523Y-124148810D01*
X187623809Y-124186905D01*
X187814285Y-124186905D01*
X186861904Y-123386905D02*
X186709523Y-123386905D01*
X186633332Y-123425000D01*
X186557142Y-123501190D01*
X186519047Y-123653571D01*
X186519047Y-123920238D01*
X186557142Y-124072619D01*
X186633332Y-124148810D01*
X186709523Y-124186905D01*
X186861904Y-124186905D01*
X186938094Y-124148810D01*
X187014285Y-124072619D01*
X187052380Y-123920238D01*
X187052380Y-123653571D01*
X187014285Y-123501190D01*
X186938094Y-123425000D01*
X186861904Y-123386905D01*
X186252380Y-123386905D02*
X186061904Y-124186905D01*
X185909523Y-123615476D01*
X185757142Y-124186905D01*
X185566666Y-123386905D01*
D12*
X180093809Y-70747381D02*
X180570000Y-70747381D01*
X180570000Y-69747381D01*
X179760476Y-70223571D02*
X179427142Y-70223571D01*
X179284285Y-70747381D02*
X179760476Y-70747381D01*
X179760476Y-69747381D01*
X179284285Y-69747381D01*
X178855714Y-70747381D02*
X178855714Y-69747381D01*
X178617619Y-69747381D01*
X178474761Y-69795000D01*
X178379523Y-69890238D01*
X178331904Y-69985476D01*
X178284285Y-70175952D01*
X178284285Y-70318810D01*
X178331904Y-70509286D01*
X178379523Y-70604524D01*
X178474761Y-70699762D01*
X178617619Y-70747381D01*
X178855714Y-70747381D01*
X184665238Y-72349762D02*
X184522381Y-72397381D01*
X184284285Y-72397381D01*
X184189047Y-72349762D01*
X184141428Y-72302143D01*
X184093809Y-72206905D01*
X184093809Y-72111667D01*
X184141428Y-72016429D01*
X184189047Y-71968810D01*
X184284285Y-71921190D01*
X184474762Y-71873571D01*
X184570000Y-71825952D01*
X184617619Y-71778333D01*
X184665238Y-71683095D01*
X184665238Y-71587857D01*
X184617619Y-71492619D01*
X184570000Y-71445000D01*
X184474762Y-71397381D01*
X184236666Y-71397381D01*
X184093809Y-71445000D01*
X183665238Y-72397381D02*
X183665238Y-71397381D01*
X182665238Y-71445000D02*
X182760476Y-71397381D01*
X182903333Y-71397381D01*
X183046191Y-71445000D01*
X183141429Y-71540238D01*
X183189048Y-71635476D01*
X183236667Y-71825952D01*
X183236667Y-71968810D01*
X183189048Y-72159286D01*
X183141429Y-72254524D01*
X183046191Y-72349762D01*
X182903333Y-72397381D01*
X182808095Y-72397381D01*
X182665238Y-72349762D01*
X182617619Y-72302143D01*
X182617619Y-71968810D01*
X182808095Y-71968810D01*
X182189048Y-72397381D02*
X182189048Y-71397381D01*
X181617619Y-72397381D01*
X181617619Y-71397381D01*
X181189048Y-72111667D02*
X180712857Y-72111667D01*
X181284286Y-72397381D02*
X180950953Y-71397381D01*
X180617619Y-72397381D01*
X179808095Y-72397381D02*
X180284286Y-72397381D01*
X180284286Y-71397381D01*
X178379523Y-71873571D02*
X178236666Y-71921190D01*
X178189047Y-71968810D01*
X178141428Y-72064048D01*
X178141428Y-72206905D01*
X178189047Y-72302143D01*
X178236666Y-72349762D01*
X178331904Y-72397381D01*
X178712857Y-72397381D01*
X178712857Y-71397381D01*
X178379523Y-71397381D01*
X178284285Y-71445000D01*
X178236666Y-71492619D01*
X178189047Y-71587857D01*
X178189047Y-71683095D01*
X178236666Y-71778333D01*
X178284285Y-71825952D01*
X178379523Y-71873571D01*
X178712857Y-71873571D01*
X177712857Y-71397381D02*
X177712857Y-72206905D01*
X177665238Y-72302143D01*
X177617619Y-72349762D01*
X177522381Y-72397381D01*
X177331904Y-72397381D01*
X177236666Y-72349762D01*
X177189047Y-72302143D01*
X177141428Y-72206905D01*
X177141428Y-71397381D01*
X176331904Y-71873571D02*
X176665238Y-71873571D01*
X176665238Y-72397381D02*
X176665238Y-71397381D01*
X176189047Y-71397381D01*
X175474761Y-71873571D02*
X175808095Y-71873571D01*
X175808095Y-72397381D02*
X175808095Y-71397381D01*
X175331904Y-71397381D01*
X174950952Y-71873571D02*
X174617618Y-71873571D01*
X174474761Y-72397381D02*
X174950952Y-72397381D01*
X174950952Y-71397381D01*
X174474761Y-71397381D01*
X173474761Y-72397381D02*
X173808095Y-71921190D01*
X174046190Y-72397381D02*
X174046190Y-71397381D01*
X173665237Y-71397381D01*
X173569999Y-71445000D01*
X173522380Y-71492619D01*
X173474761Y-71587857D01*
X173474761Y-71730714D01*
X173522380Y-71825952D01*
X173569999Y-71873571D01*
X173665237Y-71921190D01*
X174046190Y-71921190D01*
D10*
X149980476Y-64481905D02*
X149980476Y-63681905D01*
X149523333Y-64481905D01*
X149523333Y-63681905D01*
X149180476Y-64253333D02*
X148799524Y-64253333D01*
X149256667Y-64481905D02*
X148990000Y-63681905D01*
X148723333Y-64481905D01*
X148456667Y-64481905D02*
X148456667Y-63681905D01*
X147999524Y-64481905D01*
X147999524Y-63681905D01*
X147618572Y-64481905D02*
X147618572Y-63681905D01*
X147428096Y-63681905D01*
X147313810Y-63720000D01*
X147237619Y-63796190D01*
X147199524Y-63872381D01*
X147161429Y-64024762D01*
X147161429Y-64139048D01*
X147199524Y-64291429D01*
X147237619Y-64367619D01*
X147313810Y-64443810D01*
X147428096Y-64481905D01*
X147618572Y-64481905D01*
X149770952Y-65020000D02*
X149847143Y-64981905D01*
X149961428Y-64981905D01*
X150075714Y-65020000D01*
X150151905Y-65096190D01*
X150190000Y-65172381D01*
X150228095Y-65324762D01*
X150228095Y-65439048D01*
X150190000Y-65591429D01*
X150151905Y-65667619D01*
X150075714Y-65743810D01*
X149961428Y-65781905D01*
X149885238Y-65781905D01*
X149770952Y-65743810D01*
X149732857Y-65705714D01*
X149732857Y-65439048D01*
X149885238Y-65439048D01*
X149428095Y-65553333D02*
X149047143Y-65553333D01*
X149504286Y-65781905D02*
X149237619Y-64981905D01*
X148970952Y-65781905D01*
X148818572Y-64981905D02*
X148361429Y-64981905D01*
X148590000Y-65781905D02*
X148590000Y-64981905D01*
X148094762Y-65362857D02*
X147828095Y-65362857D01*
X147713809Y-65781905D02*
X148094762Y-65781905D01*
X148094762Y-64981905D01*
X147713809Y-64981905D01*
X147409047Y-65743810D02*
X147294761Y-65781905D01*
X147104285Y-65781905D01*
X147028095Y-65743810D01*
X146989999Y-65705714D01*
X146951904Y-65629524D01*
X146951904Y-65553333D01*
X146989999Y-65477143D01*
X147028095Y-65439048D01*
X147104285Y-65400952D01*
X147256666Y-65362857D01*
X147332857Y-65324762D01*
X147370952Y-65286667D01*
X147409047Y-65210476D01*
X147409047Y-65134286D01*
X147370952Y-65058095D01*
X147332857Y-65020000D01*
X147256666Y-64981905D01*
X147066190Y-64981905D01*
X146951904Y-65020000D01*
X135864286Y-65523333D02*
X135483334Y-65523333D01*
X135940477Y-65751905D02*
X135673810Y-64951905D01*
X135407143Y-65751905D01*
X135140477Y-65751905D02*
X135140477Y-64951905D01*
X134950001Y-64951905D01*
X134835715Y-64990000D01*
X134759524Y-65066190D01*
X134721429Y-65142381D01*
X134683334Y-65294762D01*
X134683334Y-65409048D01*
X134721429Y-65561429D01*
X134759524Y-65637619D01*
X134835715Y-65713810D01*
X134950001Y-65751905D01*
X135140477Y-65751905D01*
X134340477Y-65751905D02*
X134340477Y-64951905D01*
X134150001Y-64951905D01*
X134035715Y-64990000D01*
X133959524Y-65066190D01*
X133921429Y-65142381D01*
X133883334Y-65294762D01*
X133883334Y-65409048D01*
X133921429Y-65561429D01*
X133959524Y-65637619D01*
X134035715Y-65713810D01*
X134150001Y-65751905D01*
X134340477Y-65751905D01*
X133083334Y-65751905D02*
X133350001Y-65370952D01*
X133540477Y-65751905D02*
X133540477Y-64951905D01*
X133235715Y-64951905D01*
X133159524Y-64990000D01*
X133121429Y-65028095D01*
X133083334Y-65104286D01*
X133083334Y-65218571D01*
X133121429Y-65294762D01*
X133159524Y-65332857D01*
X133235715Y-65370952D01*
X133540477Y-65370952D01*
X132740477Y-65332857D02*
X132473810Y-65332857D01*
X132359524Y-65751905D02*
X132740477Y-65751905D01*
X132740477Y-64951905D01*
X132359524Y-64951905D01*
X132054762Y-65713810D02*
X131940476Y-65751905D01*
X131750000Y-65751905D01*
X131673810Y-65713810D01*
X131635714Y-65675714D01*
X131597619Y-65599524D01*
X131597619Y-65523333D01*
X131635714Y-65447143D01*
X131673810Y-65409048D01*
X131750000Y-65370952D01*
X131902381Y-65332857D01*
X131978572Y-65294762D01*
X132016667Y-65256667D01*
X132054762Y-65180476D01*
X132054762Y-65104286D01*
X132016667Y-65028095D01*
X131978572Y-64990000D01*
X131902381Y-64951905D01*
X131711905Y-64951905D01*
X131597619Y-64990000D01*
X131292857Y-65713810D02*
X131178571Y-65751905D01*
X130988095Y-65751905D01*
X130911905Y-65713810D01*
X130873809Y-65675714D01*
X130835714Y-65599524D01*
X130835714Y-65523333D01*
X130873809Y-65447143D01*
X130911905Y-65409048D01*
X130988095Y-65370952D01*
X131140476Y-65332857D01*
X131216667Y-65294762D01*
X131254762Y-65256667D01*
X131292857Y-65180476D01*
X131292857Y-65104286D01*
X131254762Y-65028095D01*
X131216667Y-64990000D01*
X131140476Y-64951905D01*
X130950000Y-64951905D01*
X130835714Y-64990000D01*
X135902381Y-67051905D02*
X135902381Y-66251905D01*
X135711905Y-66251905D01*
X135597619Y-66290000D01*
X135521428Y-66366190D01*
X135483333Y-66442381D01*
X135445238Y-66594762D01*
X135445238Y-66709048D01*
X135483333Y-66861429D01*
X135521428Y-66937619D01*
X135597619Y-67013810D01*
X135711905Y-67051905D01*
X135902381Y-67051905D01*
X135102381Y-66632857D02*
X134835714Y-66632857D01*
X134721428Y-67051905D02*
X135102381Y-67051905D01*
X135102381Y-66251905D01*
X134721428Y-66251905D01*
X133921428Y-66975714D02*
X133959523Y-67013810D01*
X134073809Y-67051905D01*
X134149999Y-67051905D01*
X134264285Y-67013810D01*
X134340476Y-66937619D01*
X134378571Y-66861429D01*
X134416666Y-66709048D01*
X134416666Y-66594762D01*
X134378571Y-66442381D01*
X134340476Y-66366190D01*
X134264285Y-66290000D01*
X134149999Y-66251905D01*
X134073809Y-66251905D01*
X133959523Y-66290000D01*
X133921428Y-66328095D01*
X133426190Y-66251905D02*
X133273809Y-66251905D01*
X133197618Y-66290000D01*
X133121428Y-66366190D01*
X133083333Y-66518571D01*
X133083333Y-66785238D01*
X133121428Y-66937619D01*
X133197618Y-67013810D01*
X133273809Y-67051905D01*
X133426190Y-67051905D01*
X133502380Y-67013810D01*
X133578571Y-66937619D01*
X133616666Y-66785238D01*
X133616666Y-66518571D01*
X133578571Y-66366190D01*
X133502380Y-66290000D01*
X133426190Y-66251905D01*
X132740476Y-67051905D02*
X132740476Y-66251905D01*
X132550000Y-66251905D01*
X132435714Y-66290000D01*
X132359523Y-66366190D01*
X132321428Y-66442381D01*
X132283333Y-66594762D01*
X132283333Y-66709048D01*
X132321428Y-66861429D01*
X132359523Y-66937619D01*
X132435714Y-67013810D01*
X132550000Y-67051905D01*
X132740476Y-67051905D01*
X131940476Y-66632857D02*
X131673809Y-66632857D01*
X131559523Y-67051905D02*
X131940476Y-67051905D01*
X131940476Y-66251905D01*
X131559523Y-66251905D01*
X130759523Y-67051905D02*
X131026190Y-66670952D01*
X131216666Y-67051905D02*
X131216666Y-66251905D01*
X130911904Y-66251905D01*
X130835713Y-66290000D01*
X130797618Y-66328095D01*
X130759523Y-66404286D01*
X130759523Y-66518571D01*
X130797618Y-66594762D01*
X130835713Y-66632857D01*
X130911904Y-66670952D01*
X131216666Y-66670952D01*
D12*
X120300476Y-71969762D02*
X120157619Y-72017381D01*
X119919523Y-72017381D01*
X119824285Y-71969762D01*
X119776666Y-71922143D01*
X119729047Y-71826905D01*
X119729047Y-71731667D01*
X119776666Y-71636429D01*
X119824285Y-71588810D01*
X119919523Y-71541190D01*
X120110000Y-71493571D01*
X120205238Y-71445952D01*
X120252857Y-71398333D01*
X120300476Y-71303095D01*
X120300476Y-71207857D01*
X120252857Y-71112619D01*
X120205238Y-71065000D01*
X120110000Y-71017381D01*
X119871904Y-71017381D01*
X119729047Y-71065000D01*
X120014762Y-70874524D02*
X120014762Y-72160238D01*
X119348095Y-71112619D02*
X119300476Y-71065000D01*
X119205238Y-71017381D01*
X118967142Y-71017381D01*
X118871904Y-71065000D01*
X118824285Y-71112619D01*
X118776666Y-71207857D01*
X118776666Y-71303095D01*
X118824285Y-71445952D01*
X119395714Y-72017381D01*
X118776666Y-72017381D01*
X118157619Y-71017381D02*
X118062380Y-71017381D01*
X117967142Y-71065000D01*
X117919523Y-71112619D01*
X117871904Y-71207857D01*
X117824285Y-71398333D01*
X117824285Y-71636429D01*
X117871904Y-71826905D01*
X117919523Y-71922143D01*
X117967142Y-71969762D01*
X118062380Y-72017381D01*
X118157619Y-72017381D01*
X118252857Y-71969762D01*
X118300476Y-71922143D01*
X118348095Y-71826905D01*
X118395714Y-71636429D01*
X118395714Y-71398333D01*
X118348095Y-71207857D01*
X118300476Y-71112619D01*
X118252857Y-71065000D01*
X118157619Y-71017381D01*
X117205238Y-71017381D02*
X117109999Y-71017381D01*
X117014761Y-71065000D01*
X116967142Y-71112619D01*
X116919523Y-71207857D01*
X116871904Y-71398333D01*
X116871904Y-71636429D01*
X116919523Y-71826905D01*
X116967142Y-71922143D01*
X117014761Y-71969762D01*
X117109999Y-72017381D01*
X117205238Y-72017381D01*
X117300476Y-71969762D01*
X117348095Y-71922143D01*
X117395714Y-71826905D01*
X117443333Y-71636429D01*
X117443333Y-71398333D01*
X117395714Y-71207857D01*
X117348095Y-71112619D01*
X117300476Y-71065000D01*
X117205238Y-71017381D01*
X116252857Y-71017381D02*
X116157618Y-71017381D01*
X116062380Y-71065000D01*
X116014761Y-71112619D01*
X115967142Y-71207857D01*
X115919523Y-71398333D01*
X115919523Y-71636429D01*
X115967142Y-71826905D01*
X116014761Y-71922143D01*
X116062380Y-71969762D01*
X116157618Y-72017381D01*
X116252857Y-72017381D01*
X116348095Y-71969762D01*
X116395714Y-71922143D01*
X116443333Y-71826905D01*
X116490952Y-71636429D01*
X116490952Y-71398333D01*
X116443333Y-71207857D01*
X116395714Y-71112619D01*
X116348095Y-71065000D01*
X116252857Y-71017381D01*
X120157619Y-73619762D02*
X120014762Y-73667381D01*
X119776666Y-73667381D01*
X119681428Y-73619762D01*
X119633809Y-73572143D01*
X119586190Y-73476905D01*
X119586190Y-73381667D01*
X119633809Y-73286429D01*
X119681428Y-73238810D01*
X119776666Y-73191190D01*
X119967143Y-73143571D01*
X120062381Y-73095952D01*
X120110000Y-73048333D01*
X120157619Y-72953095D01*
X120157619Y-72857857D01*
X120110000Y-72762619D01*
X120062381Y-72715000D01*
X119967143Y-72667381D01*
X119729047Y-72667381D01*
X119586190Y-72715000D01*
X119871905Y-72524524D02*
X119871905Y-73810238D01*
X119252857Y-72667381D02*
X118633809Y-72667381D01*
X118967143Y-73048333D01*
X118824285Y-73048333D01*
X118729047Y-73095952D01*
X118681428Y-73143571D01*
X118633809Y-73238810D01*
X118633809Y-73476905D01*
X118681428Y-73572143D01*
X118729047Y-73619762D01*
X118824285Y-73667381D01*
X119110000Y-73667381D01*
X119205238Y-73619762D01*
X119252857Y-73572143D01*
X117871904Y-73143571D02*
X118205238Y-73143571D01*
X118205238Y-73667381D02*
X118205238Y-72667381D01*
X117729047Y-72667381D01*
X117014761Y-73143571D02*
X117348095Y-73143571D01*
X117348095Y-73667381D02*
X117348095Y-72667381D01*
X116871904Y-72667381D01*
X116157618Y-73143571D02*
X116490952Y-73143571D01*
X116490952Y-73667381D02*
X116490952Y-72667381D01*
X116014761Y-72667381D01*
D10*
X118948095Y-65751905D02*
X118948095Y-64951905D01*
X117995714Y-64913810D02*
X118681429Y-65942381D01*
X117576667Y-64951905D02*
X117424286Y-64951905D01*
X117348095Y-64990000D01*
X117271905Y-65066190D01*
X117233810Y-65218571D01*
X117233810Y-65485238D01*
X117271905Y-65637619D01*
X117348095Y-65713810D01*
X117424286Y-65751905D01*
X117576667Y-65751905D01*
X117652857Y-65713810D01*
X117729048Y-65637619D01*
X117767143Y-65485238D01*
X117767143Y-65218571D01*
X117729048Y-65066190D01*
X117652857Y-64990000D01*
X117576667Y-64951905D01*
X120662381Y-67051905D02*
X120662381Y-66251905D01*
X120471905Y-66251905D01*
X120357619Y-66290000D01*
X120281428Y-66366190D01*
X120243333Y-66442381D01*
X120205238Y-66594762D01*
X120205238Y-66709048D01*
X120243333Y-66861429D01*
X120281428Y-66937619D01*
X120357619Y-67013810D01*
X120471905Y-67051905D01*
X120662381Y-67051905D01*
X119862381Y-66632857D02*
X119595714Y-66632857D01*
X119481428Y-67051905D02*
X119862381Y-67051905D01*
X119862381Y-66251905D01*
X119481428Y-66251905D01*
X118681428Y-66975714D02*
X118719523Y-67013810D01*
X118833809Y-67051905D01*
X118909999Y-67051905D01*
X119024285Y-67013810D01*
X119100476Y-66937619D01*
X119138571Y-66861429D01*
X119176666Y-66709048D01*
X119176666Y-66594762D01*
X119138571Y-66442381D01*
X119100476Y-66366190D01*
X119024285Y-66290000D01*
X118909999Y-66251905D01*
X118833809Y-66251905D01*
X118719523Y-66290000D01*
X118681428Y-66328095D01*
X118186190Y-66251905D02*
X118033809Y-66251905D01*
X117957618Y-66290000D01*
X117881428Y-66366190D01*
X117843333Y-66518571D01*
X117843333Y-66785238D01*
X117881428Y-66937619D01*
X117957618Y-67013810D01*
X118033809Y-67051905D01*
X118186190Y-67051905D01*
X118262380Y-67013810D01*
X118338571Y-66937619D01*
X118376666Y-66785238D01*
X118376666Y-66518571D01*
X118338571Y-66366190D01*
X118262380Y-66290000D01*
X118186190Y-66251905D01*
X117500476Y-67051905D02*
X117500476Y-66251905D01*
X117310000Y-66251905D01*
X117195714Y-66290000D01*
X117119523Y-66366190D01*
X117081428Y-66442381D01*
X117043333Y-66594762D01*
X117043333Y-66709048D01*
X117081428Y-66861429D01*
X117119523Y-66937619D01*
X117195714Y-67013810D01*
X117310000Y-67051905D01*
X117500476Y-67051905D01*
X116700476Y-66632857D02*
X116433809Y-66632857D01*
X116319523Y-67051905D02*
X116700476Y-67051905D01*
X116700476Y-66251905D01*
X116319523Y-66251905D01*
X115519523Y-67051905D02*
X115786190Y-66670952D01*
X115976666Y-67051905D02*
X115976666Y-66251905D01*
X115671904Y-66251905D01*
X115595713Y-66290000D01*
X115557618Y-66328095D01*
X115519523Y-66404286D01*
X115519523Y-66518571D01*
X115557618Y-66594762D01*
X115595713Y-66632857D01*
X115671904Y-66670952D01*
X115976666Y-66670952D01*
D12*
X125463570Y-88078571D02*
X125749284Y-88078571D01*
X125892141Y-88150000D01*
X125963570Y-88221429D01*
X126106427Y-88435714D01*
X126177856Y-88721429D01*
X126177856Y-89292857D01*
X126106427Y-89435714D01*
X126034999Y-89507143D01*
X125892141Y-89578571D01*
X125606427Y-89578571D01*
X125463570Y-89507143D01*
X125392141Y-89435714D01*
X125320713Y-89292857D01*
X125320713Y-88935714D01*
X125392141Y-88792857D01*
X125463570Y-88721429D01*
X125606427Y-88650000D01*
X125892141Y-88650000D01*
X126034999Y-88721429D01*
X126106427Y-88792857D01*
X126177856Y-88935714D01*
X124463570Y-88721429D02*
X124606428Y-88650000D01*
X124677856Y-88578571D01*
X124749285Y-88435714D01*
X124749285Y-88364286D01*
X124677856Y-88221429D01*
X124606428Y-88150000D01*
X124463570Y-88078571D01*
X124177856Y-88078571D01*
X124034999Y-88150000D01*
X123963570Y-88221429D01*
X123892142Y-88364286D01*
X123892142Y-88435714D01*
X123963570Y-88578571D01*
X124034999Y-88650000D01*
X124177856Y-88721429D01*
X124463570Y-88721429D01*
X124606428Y-88792857D01*
X124677856Y-88864286D01*
X124749285Y-89007143D01*
X124749285Y-89292857D01*
X124677856Y-89435714D01*
X124606428Y-89507143D01*
X124463570Y-89578571D01*
X124177856Y-89578571D01*
X124034999Y-89507143D01*
X123963570Y-89435714D01*
X123892142Y-89292857D01*
X123892142Y-89007143D01*
X123963570Y-88864286D01*
X124034999Y-88792857D01*
X124177856Y-88721429D01*
X123320714Y-88221429D02*
X123249285Y-88150000D01*
X123106428Y-88078571D01*
X122749285Y-88078571D01*
X122606428Y-88150000D01*
X122534999Y-88221429D01*
X122463571Y-88364286D01*
X122463571Y-88507143D01*
X122534999Y-88721429D01*
X123392142Y-89578571D01*
X122463571Y-89578571D01*
X121035000Y-89578571D02*
X121892143Y-89578571D01*
X121463571Y-89578571D02*
X121463571Y-88078571D01*
X121606428Y-88292857D01*
X121749286Y-88435714D01*
X121892143Y-88507143D01*
X119249286Y-89578571D02*
X119249286Y-88078571D01*
X118677858Y-88078571D01*
X118535000Y-88150000D01*
X118463572Y-88221429D01*
X118392143Y-88364286D01*
X118392143Y-88578571D01*
X118463572Y-88721429D01*
X118535000Y-88792857D01*
X118677858Y-88864286D01*
X119249286Y-88864286D01*
X117749286Y-89578571D02*
X117749286Y-88078571D01*
X117106429Y-89150000D02*
X116392143Y-89150000D01*
X117249286Y-89578571D02*
X116749286Y-88078571D01*
X116249286Y-89578571D01*
X149494285Y-88078571D02*
X149779999Y-88078571D01*
X149922856Y-88150000D01*
X149994285Y-88221429D01*
X150137142Y-88435714D01*
X150208571Y-88721429D01*
X150208571Y-89292857D01*
X150137142Y-89435714D01*
X150065714Y-89507143D01*
X149922856Y-89578571D01*
X149637142Y-89578571D01*
X149494285Y-89507143D01*
X149422856Y-89435714D01*
X149351428Y-89292857D01*
X149351428Y-88935714D01*
X149422856Y-88792857D01*
X149494285Y-88721429D01*
X149637142Y-88650000D01*
X149922856Y-88650000D01*
X150065714Y-88721429D01*
X150137142Y-88792857D01*
X150208571Y-88935714D01*
X148494285Y-88721429D02*
X148637143Y-88650000D01*
X148708571Y-88578571D01*
X148780000Y-88435714D01*
X148780000Y-88364286D01*
X148708571Y-88221429D01*
X148637143Y-88150000D01*
X148494285Y-88078571D01*
X148208571Y-88078571D01*
X148065714Y-88150000D01*
X147994285Y-88221429D01*
X147922857Y-88364286D01*
X147922857Y-88435714D01*
X147994285Y-88578571D01*
X148065714Y-88650000D01*
X148208571Y-88721429D01*
X148494285Y-88721429D01*
X148637143Y-88792857D01*
X148708571Y-88864286D01*
X148780000Y-89007143D01*
X148780000Y-89292857D01*
X148708571Y-89435714D01*
X148637143Y-89507143D01*
X148494285Y-89578571D01*
X148208571Y-89578571D01*
X148065714Y-89507143D01*
X147994285Y-89435714D01*
X147922857Y-89292857D01*
X147922857Y-89007143D01*
X147994285Y-88864286D01*
X148065714Y-88792857D01*
X148208571Y-88721429D01*
X146994286Y-88078571D02*
X146851429Y-88078571D01*
X146708572Y-88150000D01*
X146637143Y-88221429D01*
X146565714Y-88364286D01*
X146494286Y-88650000D01*
X146494286Y-89007143D01*
X146565714Y-89292857D01*
X146637143Y-89435714D01*
X146708572Y-89507143D01*
X146851429Y-89578571D01*
X146994286Y-89578571D01*
X147137143Y-89507143D01*
X147208572Y-89435714D01*
X147280000Y-89292857D01*
X147351429Y-89007143D01*
X147351429Y-88650000D01*
X147280000Y-88364286D01*
X147208572Y-88221429D01*
X147137143Y-88150000D01*
X146994286Y-88078571D01*
X145922858Y-88221429D02*
X145851429Y-88150000D01*
X145708572Y-88078571D01*
X145351429Y-88078571D01*
X145208572Y-88150000D01*
X145137143Y-88221429D01*
X145065715Y-88364286D01*
X145065715Y-88507143D01*
X145137143Y-88721429D01*
X145994286Y-89578571D01*
X145065715Y-89578571D01*
X142422858Y-89435714D02*
X142494287Y-89507143D01*
X142708573Y-89578571D01*
X142851430Y-89578571D01*
X143065715Y-89507143D01*
X143208573Y-89364286D01*
X143280001Y-89221429D01*
X143351430Y-88935714D01*
X143351430Y-88721429D01*
X143280001Y-88435714D01*
X143208573Y-88292857D01*
X143065715Y-88150000D01*
X142851430Y-88078571D01*
X142708573Y-88078571D01*
X142494287Y-88150000D01*
X142422858Y-88221429D01*
X141780001Y-89578571D02*
X141780001Y-88078571D01*
X141208573Y-88078571D01*
X141065715Y-88150000D01*
X140994287Y-88221429D01*
X140922858Y-88364286D01*
X140922858Y-88578571D01*
X140994287Y-88721429D01*
X141065715Y-88792857D01*
X141208573Y-88864286D01*
X141780001Y-88864286D01*
X140280001Y-88078571D02*
X140280001Y-89292857D01*
X140208573Y-89435714D01*
X140137144Y-89507143D01*
X139994287Y-89578571D01*
X139708573Y-89578571D01*
X139565715Y-89507143D01*
X139494287Y-89435714D01*
X139422858Y-89292857D01*
X139422858Y-88078571D01*
X173782857Y-89507143D02*
X173568571Y-89578571D01*
X173211428Y-89578571D01*
X173068571Y-89507143D01*
X172997142Y-89435714D01*
X172925714Y-89292857D01*
X172925714Y-89150000D01*
X172997142Y-89007143D01*
X173068571Y-88935714D01*
X173211428Y-88864286D01*
X173497142Y-88792857D01*
X173640000Y-88721429D01*
X173711428Y-88650000D01*
X173782857Y-88507143D01*
X173782857Y-88364286D01*
X173711428Y-88221429D01*
X173640000Y-88150000D01*
X173497142Y-88078571D01*
X173140000Y-88078571D01*
X172925714Y-88150000D01*
X172497143Y-88078571D02*
X171640000Y-88078571D01*
X172068571Y-89578571D02*
X172068571Y-88078571D01*
X171211429Y-89150000D02*
X170497143Y-89150000D01*
X171354286Y-89578571D02*
X170854286Y-88078571D01*
X170354286Y-89578571D01*
X170068572Y-88078571D02*
X169211429Y-88078571D01*
X169640000Y-89578571D02*
X169640000Y-88078571D01*
X168711429Y-89578571D02*
X168711429Y-88078571D01*
X167140000Y-89435714D02*
X167211429Y-89507143D01*
X167425715Y-89578571D01*
X167568572Y-89578571D01*
X167782857Y-89507143D01*
X167925715Y-89364286D01*
X167997143Y-89221429D01*
X168068572Y-88935714D01*
X168068572Y-88721429D01*
X167997143Y-88435714D01*
X167925715Y-88292857D01*
X167782857Y-88150000D01*
X167568572Y-88078571D01*
X167425715Y-88078571D01*
X167211429Y-88150000D01*
X167140000Y-88221429D01*
X164497143Y-89578571D02*
X164997143Y-88864286D01*
X165354286Y-89578571D02*
X165354286Y-88078571D01*
X164782858Y-88078571D01*
X164640000Y-88150000D01*
X164568572Y-88221429D01*
X164497143Y-88364286D01*
X164497143Y-88578571D01*
X164568572Y-88721429D01*
X164640000Y-88792857D01*
X164782858Y-88864286D01*
X165354286Y-88864286D01*
X163925715Y-89150000D02*
X163211429Y-89150000D01*
X164068572Y-89578571D02*
X163568572Y-88078571D01*
X163068572Y-89578571D01*
X162568572Y-89578571D02*
X162568572Y-88078571D01*
X162068572Y-89150000D01*
X161568572Y-88078571D01*
X161568572Y-89578571D01*
X194642857Y-88792857D02*
X194142857Y-88792857D01*
X193928571Y-89578571D02*
X194642857Y-89578571D01*
X194642857Y-88078571D01*
X193928571Y-88078571D01*
X193285714Y-88792857D02*
X192785714Y-88792857D01*
X192571428Y-89578571D02*
X193285714Y-89578571D01*
X193285714Y-88078571D01*
X192571428Y-88078571D01*
X191928571Y-89578571D02*
X191928571Y-88078571D01*
X191357143Y-88078571D01*
X191214285Y-88150000D01*
X191142857Y-88221429D01*
X191071428Y-88364286D01*
X191071428Y-88578571D01*
X191142857Y-88721429D01*
X191214285Y-88792857D01*
X191357143Y-88864286D01*
X191928571Y-88864286D01*
X189571428Y-89578571D02*
X190071428Y-88864286D01*
X190428571Y-89578571D02*
X190428571Y-88078571D01*
X189857143Y-88078571D01*
X189714285Y-88150000D01*
X189642857Y-88221429D01*
X189571428Y-88364286D01*
X189571428Y-88578571D01*
X189642857Y-88721429D01*
X189714285Y-88792857D01*
X189857143Y-88864286D01*
X190428571Y-88864286D01*
X188642857Y-88078571D02*
X188357143Y-88078571D01*
X188214285Y-88150000D01*
X188071428Y-88292857D01*
X188000000Y-88578571D01*
X188000000Y-89078571D01*
X188071428Y-89364286D01*
X188214285Y-89507143D01*
X188357143Y-89578571D01*
X188642857Y-89578571D01*
X188785714Y-89507143D01*
X188928571Y-89364286D01*
X189000000Y-89078571D01*
X189000000Y-88578571D01*
X188928571Y-88292857D01*
X188785714Y-88150000D01*
X188642857Y-88078571D01*
X187357142Y-89578571D02*
X187357142Y-88078571D01*
X186857142Y-89150000D01*
X186357142Y-88078571D01*
X186357142Y-89578571D01*
X127729524Y-91844762D02*
X127586667Y-91892381D01*
X127348571Y-91892381D01*
X127253333Y-91844762D01*
X127205714Y-91797143D01*
X127158095Y-91701905D01*
X127158095Y-91606667D01*
X127205714Y-91511429D01*
X127253333Y-91463810D01*
X127348571Y-91416190D01*
X127539048Y-91368571D01*
X127634286Y-91320952D01*
X127681905Y-91273333D01*
X127729524Y-91178095D01*
X127729524Y-91082857D01*
X127681905Y-90987619D01*
X127634286Y-90940000D01*
X127539048Y-90892381D01*
X127300952Y-90892381D01*
X127158095Y-90940000D01*
X127443810Y-90749524D02*
X127443810Y-92035238D01*
X126300952Y-91225714D02*
X126300952Y-91892381D01*
X126539048Y-90844762D02*
X126777143Y-91559048D01*
X126158095Y-91559048D01*
X125586667Y-90892381D02*
X125491428Y-90892381D01*
X125396190Y-90940000D01*
X125348571Y-90987619D01*
X125300952Y-91082857D01*
X125253333Y-91273333D01*
X125253333Y-91511429D01*
X125300952Y-91701905D01*
X125348571Y-91797143D01*
X125396190Y-91844762D01*
X125491428Y-91892381D01*
X125586667Y-91892381D01*
X125681905Y-91844762D01*
X125729524Y-91797143D01*
X125777143Y-91701905D01*
X125824762Y-91511429D01*
X125824762Y-91273333D01*
X125777143Y-91082857D01*
X125729524Y-90987619D01*
X125681905Y-90940000D01*
X125586667Y-90892381D01*
X124634286Y-90892381D02*
X124539047Y-90892381D01*
X124443809Y-90940000D01*
X124396190Y-90987619D01*
X124348571Y-91082857D01*
X124300952Y-91273333D01*
X124300952Y-91511429D01*
X124348571Y-91701905D01*
X124396190Y-91797143D01*
X124443809Y-91844762D01*
X124539047Y-91892381D01*
X124634286Y-91892381D01*
X124729524Y-91844762D01*
X124777143Y-91797143D01*
X124824762Y-91701905D01*
X124872381Y-91511429D01*
X124872381Y-91273333D01*
X124824762Y-91082857D01*
X124777143Y-90987619D01*
X124729524Y-90940000D01*
X124634286Y-90892381D01*
X123681905Y-90892381D02*
X123586666Y-90892381D01*
X123491428Y-90940000D01*
X123443809Y-90987619D01*
X123396190Y-91082857D01*
X123348571Y-91273333D01*
X123348571Y-91511429D01*
X123396190Y-91701905D01*
X123443809Y-91797143D01*
X123491428Y-91844762D01*
X123586666Y-91892381D01*
X123681905Y-91892381D01*
X123777143Y-91844762D01*
X123824762Y-91797143D01*
X123872381Y-91701905D01*
X123920000Y-91511429D01*
X123920000Y-91273333D01*
X123872381Y-91082857D01*
X123824762Y-90987619D01*
X123777143Y-90940000D01*
X123681905Y-90892381D01*
X122158095Y-91511429D02*
X121396190Y-91511429D01*
X120205714Y-91844762D02*
X120062857Y-91892381D01*
X119824761Y-91892381D01*
X119729523Y-91844762D01*
X119681904Y-91797143D01*
X119634285Y-91701905D01*
X119634285Y-91606667D01*
X119681904Y-91511429D01*
X119729523Y-91463810D01*
X119824761Y-91416190D01*
X120015238Y-91368571D01*
X120110476Y-91320952D01*
X120158095Y-91273333D01*
X120205714Y-91178095D01*
X120205714Y-91082857D01*
X120158095Y-90987619D01*
X120110476Y-90940000D01*
X120015238Y-90892381D01*
X119777142Y-90892381D01*
X119634285Y-90940000D01*
X119920000Y-90749524D02*
X119920000Y-92035238D01*
X118729523Y-90892381D02*
X119205714Y-90892381D01*
X119253333Y-91368571D01*
X119205714Y-91320952D01*
X119110476Y-91273333D01*
X118872380Y-91273333D01*
X118777142Y-91320952D01*
X118729523Y-91368571D01*
X118681904Y-91463810D01*
X118681904Y-91701905D01*
X118729523Y-91797143D01*
X118777142Y-91844762D01*
X118872380Y-91892381D01*
X119110476Y-91892381D01*
X119205714Y-91844762D01*
X119253333Y-91797143D01*
X117919999Y-91368571D02*
X118253333Y-91368571D01*
X118253333Y-91892381D02*
X118253333Y-90892381D01*
X117777142Y-90892381D01*
X117062856Y-91368571D02*
X117396190Y-91368571D01*
X117396190Y-91892381D02*
X117396190Y-90892381D01*
X116919999Y-90892381D01*
X116205713Y-91368571D02*
X116539047Y-91368571D01*
X116539047Y-91892381D02*
X116539047Y-90892381D01*
X116062856Y-90892381D01*
D10*
X163651905Y-98048095D02*
X163613810Y-98010000D01*
X163537619Y-97971905D01*
X163347143Y-97971905D01*
X163270953Y-98010000D01*
X163232857Y-98048095D01*
X163194762Y-98124286D01*
X163194762Y-98200476D01*
X163232857Y-98314762D01*
X163690000Y-98771905D01*
X163194762Y-98771905D01*
X162851905Y-98467143D02*
X162242381Y-98467143D01*
X161937619Y-97971905D02*
X161442381Y-97971905D01*
X161709048Y-98276667D01*
X161594762Y-98276667D01*
X161518572Y-98314762D01*
X161480476Y-98352857D01*
X161442381Y-98429048D01*
X161442381Y-98619524D01*
X161480476Y-98695714D01*
X161518572Y-98733810D01*
X161594762Y-98771905D01*
X161823334Y-98771905D01*
X161899524Y-98733810D01*
X161937619Y-98695714D01*
X163651905Y-99348095D02*
X163613810Y-99310000D01*
X163537619Y-99271905D01*
X163347143Y-99271905D01*
X163270953Y-99310000D01*
X163232857Y-99348095D01*
X163194762Y-99424286D01*
X163194762Y-99500476D01*
X163232857Y-99614762D01*
X163690000Y-100071905D01*
X163194762Y-100071905D01*
X162851905Y-99767143D02*
X162242381Y-99767143D01*
X161937619Y-99271905D02*
X161442381Y-99271905D01*
X161709048Y-99576667D01*
X161594762Y-99576667D01*
X161518572Y-99614762D01*
X161480476Y-99652857D01*
X161442381Y-99729048D01*
X161442381Y-99919524D01*
X161480476Y-99995714D01*
X161518572Y-100033810D01*
X161594762Y-100071905D01*
X161823334Y-100071905D01*
X161899524Y-100033810D01*
X161937619Y-99995714D01*
X173342381Y-98771905D02*
X173609048Y-98390952D01*
X173799524Y-98771905D02*
X173799524Y-97971905D01*
X173494762Y-97971905D01*
X173418571Y-98010000D01*
X173380476Y-98048095D01*
X173342381Y-98124286D01*
X173342381Y-98238571D01*
X173380476Y-98314762D01*
X173418571Y-98352857D01*
X173494762Y-98390952D01*
X173799524Y-98390952D01*
X173037619Y-98543333D02*
X172656667Y-98543333D01*
X173113810Y-98771905D02*
X172847143Y-97971905D01*
X172580476Y-98771905D01*
X172313810Y-98771905D02*
X172313810Y-97971905D01*
X172047143Y-98543333D01*
X171780476Y-97971905D01*
X171780476Y-98771905D01*
X171590000Y-98848095D02*
X170980476Y-98848095D01*
X170790000Y-98352857D02*
X170523333Y-98352857D01*
X170409047Y-98771905D02*
X170790000Y-98771905D01*
X170790000Y-97971905D01*
X170409047Y-97971905D01*
X170066190Y-98771905D02*
X170066190Y-97971905D01*
X169609047Y-98771905D01*
X169609047Y-97971905D01*
X173342381Y-100071905D02*
X173609048Y-99690952D01*
X173799524Y-100071905D02*
X173799524Y-99271905D01*
X173494762Y-99271905D01*
X173418571Y-99310000D01*
X173380476Y-99348095D01*
X173342381Y-99424286D01*
X173342381Y-99538571D01*
X173380476Y-99614762D01*
X173418571Y-99652857D01*
X173494762Y-99690952D01*
X173799524Y-99690952D01*
X173037619Y-99843333D02*
X172656667Y-99843333D01*
X173113810Y-100071905D02*
X172847143Y-99271905D01*
X172580476Y-100071905D01*
X172313810Y-100071905D02*
X172313810Y-99271905D01*
X172047143Y-99843333D01*
X171780476Y-99271905D01*
X171780476Y-100071905D01*
X171590000Y-100148095D02*
X170980476Y-100148095D01*
X170828095Y-100033810D02*
X170713809Y-100071905D01*
X170523333Y-100071905D01*
X170447143Y-100033810D01*
X170409047Y-99995714D01*
X170370952Y-99919524D01*
X170370952Y-99843333D01*
X170409047Y-99767143D01*
X170447143Y-99729048D01*
X170523333Y-99690952D01*
X170675714Y-99652857D01*
X170751905Y-99614762D01*
X170790000Y-99576667D01*
X170828095Y-99500476D01*
X170828095Y-99424286D01*
X170790000Y-99348095D01*
X170751905Y-99310000D01*
X170675714Y-99271905D01*
X170485238Y-99271905D01*
X170370952Y-99310000D01*
X170028095Y-99652857D02*
X169761428Y-99652857D01*
X169647142Y-100071905D02*
X170028095Y-100071905D01*
X170028095Y-99271905D01*
X169647142Y-99271905D01*
X168923332Y-100071905D02*
X169304285Y-100071905D01*
X169304285Y-99271905D01*
D12*
X173449524Y-96924762D02*
X173306667Y-96972381D01*
X173068571Y-96972381D01*
X172973333Y-96924762D01*
X172925714Y-96877143D01*
X172878095Y-96781905D01*
X172878095Y-96686667D01*
X172925714Y-96591429D01*
X172973333Y-96543810D01*
X173068571Y-96496190D01*
X173259048Y-96448571D01*
X173354286Y-96400952D01*
X173401905Y-96353333D01*
X173449524Y-96258095D01*
X173449524Y-96162857D01*
X173401905Y-96067619D01*
X173354286Y-96020000D01*
X173259048Y-95972381D01*
X173020952Y-95972381D01*
X172878095Y-96020000D01*
X173163810Y-95829524D02*
X173163810Y-97115238D01*
X172259048Y-95972381D02*
X172163809Y-95972381D01*
X172068571Y-96020000D01*
X172020952Y-96067619D01*
X171973333Y-96162857D01*
X171925714Y-96353333D01*
X171925714Y-96591429D01*
X171973333Y-96781905D01*
X172020952Y-96877143D01*
X172068571Y-96924762D01*
X172163809Y-96972381D01*
X172259048Y-96972381D01*
X172354286Y-96924762D01*
X172401905Y-96877143D01*
X172449524Y-96781905D01*
X172497143Y-96591429D01*
X172497143Y-96353333D01*
X172449524Y-96162857D01*
X172401905Y-96067619D01*
X172354286Y-96020000D01*
X172259048Y-95972381D01*
X171306667Y-95972381D02*
X171211428Y-95972381D01*
X171116190Y-96020000D01*
X171068571Y-96067619D01*
X171020952Y-96162857D01*
X170973333Y-96353333D01*
X170973333Y-96591429D01*
X171020952Y-96781905D01*
X171068571Y-96877143D01*
X171116190Y-96924762D01*
X171211428Y-96972381D01*
X171306667Y-96972381D01*
X171401905Y-96924762D01*
X171449524Y-96877143D01*
X171497143Y-96781905D01*
X171544762Y-96591429D01*
X171544762Y-96353333D01*
X171497143Y-96162857D01*
X171449524Y-96067619D01*
X171401905Y-96020000D01*
X171306667Y-95972381D01*
X170354286Y-95972381D02*
X170259047Y-95972381D01*
X170163809Y-96020000D01*
X170116190Y-96067619D01*
X170068571Y-96162857D01*
X170020952Y-96353333D01*
X170020952Y-96591429D01*
X170068571Y-96781905D01*
X170116190Y-96877143D01*
X170163809Y-96924762D01*
X170259047Y-96972381D01*
X170354286Y-96972381D01*
X170449524Y-96924762D01*
X170497143Y-96877143D01*
X170544762Y-96781905D01*
X170592381Y-96591429D01*
X170592381Y-96353333D01*
X170544762Y-96162857D01*
X170497143Y-96067619D01*
X170449524Y-96020000D01*
X170354286Y-95972381D01*
X169401905Y-95972381D02*
X169306666Y-95972381D01*
X169211428Y-96020000D01*
X169163809Y-96067619D01*
X169116190Y-96162857D01*
X169068571Y-96353333D01*
X169068571Y-96591429D01*
X169116190Y-96781905D01*
X169163809Y-96877143D01*
X169211428Y-96924762D01*
X169306666Y-96972381D01*
X169401905Y-96972381D01*
X169497143Y-96924762D01*
X169544762Y-96877143D01*
X169592381Y-96781905D01*
X169640000Y-96591429D01*
X169640000Y-96353333D01*
X169592381Y-96162857D01*
X169544762Y-96067619D01*
X169497143Y-96020000D01*
X169401905Y-95972381D01*
X167878095Y-96591429D02*
X167116190Y-96591429D01*
X165925714Y-96924762D02*
X165782857Y-96972381D01*
X165544761Y-96972381D01*
X165449523Y-96924762D01*
X165401904Y-96877143D01*
X165354285Y-96781905D01*
X165354285Y-96686667D01*
X165401904Y-96591429D01*
X165449523Y-96543810D01*
X165544761Y-96496190D01*
X165735238Y-96448571D01*
X165830476Y-96400952D01*
X165878095Y-96353333D01*
X165925714Y-96258095D01*
X165925714Y-96162857D01*
X165878095Y-96067619D01*
X165830476Y-96020000D01*
X165735238Y-95972381D01*
X165497142Y-95972381D01*
X165354285Y-96020000D01*
X165640000Y-95829524D02*
X165640000Y-97115238D01*
X164401904Y-96972381D02*
X164973333Y-96972381D01*
X164687619Y-96972381D02*
X164687619Y-95972381D01*
X164782857Y-96115238D01*
X164878095Y-96210476D01*
X164973333Y-96258095D01*
X163639999Y-96448571D02*
X163973333Y-96448571D01*
X163973333Y-96972381D02*
X163973333Y-95972381D01*
X163497142Y-95972381D01*
X162782856Y-96448571D02*
X163116190Y-96448571D01*
X163116190Y-96972381D02*
X163116190Y-95972381D01*
X162639999Y-95972381D01*
X161925713Y-96448571D02*
X162259047Y-96448571D01*
X162259047Y-96972381D02*
X162259047Y-95972381D01*
X161782856Y-95972381D01*
X196238096Y-91844762D02*
X196095239Y-91892381D01*
X195857143Y-91892381D01*
X195761905Y-91844762D01*
X195714286Y-91797143D01*
X195666667Y-91701905D01*
X195666667Y-91606667D01*
X195714286Y-91511429D01*
X195761905Y-91463810D01*
X195857143Y-91416190D01*
X196047620Y-91368571D01*
X196142858Y-91320952D01*
X196190477Y-91273333D01*
X196238096Y-91178095D01*
X196238096Y-91082857D01*
X196190477Y-90987619D01*
X196142858Y-90940000D01*
X196047620Y-90892381D01*
X195809524Y-90892381D01*
X195666667Y-90940000D01*
X195952382Y-90749524D02*
X195952382Y-92035238D01*
X195238096Y-91368571D02*
X194904762Y-91368571D01*
X194761905Y-91892381D02*
X195238096Y-91892381D01*
X195238096Y-90892381D01*
X194761905Y-90892381D01*
X194142858Y-90892381D02*
X194047619Y-90892381D01*
X193952381Y-90940000D01*
X193904762Y-90987619D01*
X193857143Y-91082857D01*
X193809524Y-91273333D01*
X193809524Y-91511429D01*
X193857143Y-91701905D01*
X193904762Y-91797143D01*
X193952381Y-91844762D01*
X194047619Y-91892381D01*
X194142858Y-91892381D01*
X194238096Y-91844762D01*
X194285715Y-91797143D01*
X194333334Y-91701905D01*
X194380953Y-91511429D01*
X194380953Y-91273333D01*
X194333334Y-91082857D01*
X194285715Y-90987619D01*
X194238096Y-90940000D01*
X194142858Y-90892381D01*
X193190477Y-90892381D02*
X193095238Y-90892381D01*
X193000000Y-90940000D01*
X192952381Y-90987619D01*
X192904762Y-91082857D01*
X192857143Y-91273333D01*
X192857143Y-91511429D01*
X192904762Y-91701905D01*
X192952381Y-91797143D01*
X193000000Y-91844762D01*
X193095238Y-91892381D01*
X193190477Y-91892381D01*
X193285715Y-91844762D01*
X193333334Y-91797143D01*
X193380953Y-91701905D01*
X193428572Y-91511429D01*
X193428572Y-91273333D01*
X193380953Y-91082857D01*
X193333334Y-90987619D01*
X193285715Y-90940000D01*
X193190477Y-90892381D01*
X192238096Y-90892381D02*
X192142857Y-90892381D01*
X192047619Y-90940000D01*
X192000000Y-90987619D01*
X191952381Y-91082857D01*
X191904762Y-91273333D01*
X191904762Y-91511429D01*
X191952381Y-91701905D01*
X192000000Y-91797143D01*
X192047619Y-91844762D01*
X192142857Y-91892381D01*
X192238096Y-91892381D01*
X192333334Y-91844762D01*
X192380953Y-91797143D01*
X192428572Y-91701905D01*
X192476191Y-91511429D01*
X192476191Y-91273333D01*
X192428572Y-91082857D01*
X192380953Y-90987619D01*
X192333334Y-90940000D01*
X192238096Y-90892381D01*
X190714286Y-91511429D02*
X189952381Y-91511429D01*
X188761905Y-91844762D02*
X188619048Y-91892381D01*
X188380952Y-91892381D01*
X188285714Y-91844762D01*
X188238095Y-91797143D01*
X188190476Y-91701905D01*
X188190476Y-91606667D01*
X188238095Y-91511429D01*
X188285714Y-91463810D01*
X188380952Y-91416190D01*
X188571429Y-91368571D01*
X188666667Y-91320952D01*
X188714286Y-91273333D01*
X188761905Y-91178095D01*
X188761905Y-91082857D01*
X188714286Y-90987619D01*
X188666667Y-90940000D01*
X188571429Y-90892381D01*
X188333333Y-90892381D01*
X188190476Y-90940000D01*
X188476191Y-90749524D02*
X188476191Y-92035238D01*
X187428571Y-91368571D02*
X187761905Y-91368571D01*
X187761905Y-91892381D02*
X187761905Y-90892381D01*
X187285714Y-90892381D01*
X186571428Y-91368571D02*
X186904762Y-91368571D01*
X186904762Y-91892381D02*
X186904762Y-90892381D01*
X186428571Y-90892381D01*
X185714285Y-91368571D02*
X186047619Y-91368571D01*
X186047619Y-91892381D02*
X186047619Y-90892381D01*
X185571428Y-90892381D01*
X184857142Y-91368571D02*
X185190476Y-91368571D01*
X185190476Y-91892381D02*
X185190476Y-90892381D01*
X184714285Y-90892381D01*
D10*
X163194762Y-103851905D02*
X163651905Y-103851905D01*
X163423334Y-103851905D02*
X163423334Y-103051905D01*
X163499524Y-103166190D01*
X163575715Y-103242381D01*
X163651905Y-103280476D01*
X162851905Y-103547143D02*
X162242381Y-103547143D01*
X161899524Y-103128095D02*
X161861429Y-103090000D01*
X161785238Y-103051905D01*
X161594762Y-103051905D01*
X161518572Y-103090000D01*
X161480476Y-103128095D01*
X161442381Y-103204286D01*
X161442381Y-103280476D01*
X161480476Y-103394762D01*
X161937619Y-103851905D01*
X161442381Y-103851905D01*
X163194762Y-105151905D02*
X163651905Y-105151905D01*
X163423334Y-105151905D02*
X163423334Y-104351905D01*
X163499524Y-104466190D01*
X163575715Y-104542381D01*
X163651905Y-104580476D01*
X162851905Y-104847143D02*
X162242381Y-104847143D01*
X161899524Y-104428095D02*
X161861429Y-104390000D01*
X161785238Y-104351905D01*
X161594762Y-104351905D01*
X161518572Y-104390000D01*
X161480476Y-104428095D01*
X161442381Y-104504286D01*
X161442381Y-104580476D01*
X161480476Y-104694762D01*
X161937619Y-105151905D01*
X161442381Y-105151905D01*
X173342381Y-103851905D02*
X173609048Y-103470952D01*
X173799524Y-103851905D02*
X173799524Y-103051905D01*
X173494762Y-103051905D01*
X173418571Y-103090000D01*
X173380476Y-103128095D01*
X173342381Y-103204286D01*
X173342381Y-103318571D01*
X173380476Y-103394762D01*
X173418571Y-103432857D01*
X173494762Y-103470952D01*
X173799524Y-103470952D01*
X173037619Y-103623333D02*
X172656667Y-103623333D01*
X173113810Y-103851905D02*
X172847143Y-103051905D01*
X172580476Y-103851905D01*
X172313810Y-103851905D02*
X172313810Y-103051905D01*
X172047143Y-103623333D01*
X171780476Y-103051905D01*
X171780476Y-103851905D01*
X171590000Y-103928095D02*
X170980476Y-103928095D01*
X170790000Y-103432857D02*
X170523333Y-103432857D01*
X170409047Y-103851905D02*
X170790000Y-103851905D01*
X170790000Y-103051905D01*
X170409047Y-103051905D01*
X170066190Y-103851905D02*
X170066190Y-103051905D01*
X169609047Y-103851905D01*
X169609047Y-103051905D01*
X173342381Y-105151905D02*
X173609048Y-104770952D01*
X173799524Y-105151905D02*
X173799524Y-104351905D01*
X173494762Y-104351905D01*
X173418571Y-104390000D01*
X173380476Y-104428095D01*
X173342381Y-104504286D01*
X173342381Y-104618571D01*
X173380476Y-104694762D01*
X173418571Y-104732857D01*
X173494762Y-104770952D01*
X173799524Y-104770952D01*
X173037619Y-104923333D02*
X172656667Y-104923333D01*
X173113810Y-105151905D02*
X172847143Y-104351905D01*
X172580476Y-105151905D01*
X172313810Y-105151905D02*
X172313810Y-104351905D01*
X172047143Y-104923333D01*
X171780476Y-104351905D01*
X171780476Y-105151905D01*
X171590000Y-105228095D02*
X170980476Y-105228095D01*
X170828095Y-105113810D02*
X170713809Y-105151905D01*
X170523333Y-105151905D01*
X170447143Y-105113810D01*
X170409047Y-105075714D01*
X170370952Y-104999524D01*
X170370952Y-104923333D01*
X170409047Y-104847143D01*
X170447143Y-104809048D01*
X170523333Y-104770952D01*
X170675714Y-104732857D01*
X170751905Y-104694762D01*
X170790000Y-104656667D01*
X170828095Y-104580476D01*
X170828095Y-104504286D01*
X170790000Y-104428095D01*
X170751905Y-104390000D01*
X170675714Y-104351905D01*
X170485238Y-104351905D01*
X170370952Y-104390000D01*
X170028095Y-104732857D02*
X169761428Y-104732857D01*
X169647142Y-105151905D02*
X170028095Y-105151905D01*
X170028095Y-104351905D01*
X169647142Y-104351905D01*
X168923332Y-105151905D02*
X169304285Y-105151905D01*
X169304285Y-104351905D01*
D12*
X173497143Y-102004762D02*
X173354286Y-102052381D01*
X173116190Y-102052381D01*
X173020952Y-102004762D01*
X172973333Y-101957143D01*
X172925714Y-101861905D01*
X172925714Y-101766667D01*
X172973333Y-101671429D01*
X173020952Y-101623810D01*
X173116190Y-101576190D01*
X173306667Y-101528571D01*
X173401905Y-101480952D01*
X173449524Y-101433333D01*
X173497143Y-101338095D01*
X173497143Y-101242857D01*
X173449524Y-101147619D01*
X173401905Y-101100000D01*
X173306667Y-101052381D01*
X173068571Y-101052381D01*
X172925714Y-101100000D01*
X173211429Y-100909524D02*
X173211429Y-102195238D01*
X171925714Y-101957143D02*
X171973333Y-102004762D01*
X172116190Y-102052381D01*
X172211428Y-102052381D01*
X172354286Y-102004762D01*
X172449524Y-101909524D01*
X172497143Y-101814286D01*
X172544762Y-101623810D01*
X172544762Y-101480952D01*
X172497143Y-101290476D01*
X172449524Y-101195238D01*
X172354286Y-101100000D01*
X172211428Y-101052381D01*
X172116190Y-101052381D01*
X171973333Y-101100000D01*
X171925714Y-101147619D01*
X171306667Y-101052381D02*
X171211428Y-101052381D01*
X171116190Y-101100000D01*
X171068571Y-101147619D01*
X171020952Y-101242857D01*
X170973333Y-101433333D01*
X170973333Y-101671429D01*
X171020952Y-101861905D01*
X171068571Y-101957143D01*
X171116190Y-102004762D01*
X171211428Y-102052381D01*
X171306667Y-102052381D01*
X171401905Y-102004762D01*
X171449524Y-101957143D01*
X171497143Y-101861905D01*
X171544762Y-101671429D01*
X171544762Y-101433333D01*
X171497143Y-101242857D01*
X171449524Y-101147619D01*
X171401905Y-101100000D01*
X171306667Y-101052381D01*
X170354286Y-101052381D02*
X170259047Y-101052381D01*
X170163809Y-101100000D01*
X170116190Y-101147619D01*
X170068571Y-101242857D01*
X170020952Y-101433333D01*
X170020952Y-101671429D01*
X170068571Y-101861905D01*
X170116190Y-101957143D01*
X170163809Y-102004762D01*
X170259047Y-102052381D01*
X170354286Y-102052381D01*
X170449524Y-102004762D01*
X170497143Y-101957143D01*
X170544762Y-101861905D01*
X170592381Y-101671429D01*
X170592381Y-101433333D01*
X170544762Y-101242857D01*
X170497143Y-101147619D01*
X170449524Y-101100000D01*
X170354286Y-101052381D01*
X169401905Y-101052381D02*
X169306666Y-101052381D01*
X169211428Y-101100000D01*
X169163809Y-101147619D01*
X169116190Y-101242857D01*
X169068571Y-101433333D01*
X169068571Y-101671429D01*
X169116190Y-101861905D01*
X169163809Y-101957143D01*
X169211428Y-102004762D01*
X169306666Y-102052381D01*
X169401905Y-102052381D01*
X169497143Y-102004762D01*
X169544762Y-101957143D01*
X169592381Y-101861905D01*
X169640000Y-101671429D01*
X169640000Y-101433333D01*
X169592381Y-101242857D01*
X169544762Y-101147619D01*
X169497143Y-101100000D01*
X169401905Y-101052381D01*
X167878095Y-101671429D02*
X167116190Y-101671429D01*
X165925714Y-102004762D02*
X165782857Y-102052381D01*
X165544761Y-102052381D01*
X165449523Y-102004762D01*
X165401904Y-101957143D01*
X165354285Y-101861905D01*
X165354285Y-101766667D01*
X165401904Y-101671429D01*
X165449523Y-101623810D01*
X165544761Y-101576190D01*
X165735238Y-101528571D01*
X165830476Y-101480952D01*
X165878095Y-101433333D01*
X165925714Y-101338095D01*
X165925714Y-101242857D01*
X165878095Y-101147619D01*
X165830476Y-101100000D01*
X165735238Y-101052381D01*
X165497142Y-101052381D01*
X165354285Y-101100000D01*
X165640000Y-100909524D02*
X165640000Y-102195238D01*
X164925714Y-102052381D02*
X164925714Y-101052381D01*
X164687619Y-101052381D01*
X164544761Y-101100000D01*
X164449523Y-101195238D01*
X164401904Y-101290476D01*
X164354285Y-101480952D01*
X164354285Y-101623810D01*
X164401904Y-101814286D01*
X164449523Y-101909524D01*
X164544761Y-102004762D01*
X164687619Y-102052381D01*
X164925714Y-102052381D01*
X163592380Y-101528571D02*
X163925714Y-101528571D01*
X163925714Y-102052381D02*
X163925714Y-101052381D01*
X163449523Y-101052381D01*
X162735237Y-101528571D02*
X163068571Y-101528571D01*
X163068571Y-102052381D02*
X163068571Y-101052381D01*
X162592380Y-101052381D01*
X161878094Y-101528571D02*
X162211428Y-101528571D01*
X162211428Y-102052381D02*
X162211428Y-101052381D01*
X161735237Y-101052381D01*
D11*
X158115000Y-93980000D02*
X156845000Y-93980000D01*
X158115000Y-91440000D02*
X158115000Y-93980000D01*
X156845000Y-91440000D02*
X158115000Y-91440000D01*
X165735000Y-71120000D02*
X164465000Y-71120000D01*
X165735000Y-68580000D02*
X165735000Y-71120000D01*
X164465000Y-68580000D02*
X165735000Y-68580000D01*
X161925000Y-71120000D02*
X160655000Y-71120000D01*
X161925000Y-68580000D02*
X161925000Y-71120000D01*
X160655000Y-68580000D02*
X161925000Y-68580000D01*
X185420000Y-121285000D02*
X185420000Y-122555000D01*
X195580000Y-122555000D02*
X195580000Y-121285000D01*
D12*
X167377857Y-56697619D02*
X167330238Y-56650000D01*
X167235000Y-56602381D01*
X166996904Y-56602381D01*
X166901666Y-56650000D01*
X166854047Y-56697619D01*
X166806428Y-56792857D01*
X166806428Y-56888095D01*
X166854047Y-57030952D01*
X167425476Y-57602381D01*
X166806428Y-57602381D01*
X166425476Y-56697619D02*
X166377857Y-56650000D01*
X166282619Y-56602381D01*
X166044523Y-56602381D01*
X165949285Y-56650000D01*
X165901666Y-56697619D01*
X165854047Y-56792857D01*
X165854047Y-56888095D01*
X165901666Y-57030952D01*
X166473095Y-57602381D01*
X165854047Y-57602381D01*
X165425476Y-56935714D02*
X165425476Y-57935714D01*
X165425476Y-56983333D02*
X165330238Y-56935714D01*
X165139761Y-56935714D01*
X165044523Y-56983333D01*
X164996904Y-57030952D01*
X164949285Y-57126190D01*
X164949285Y-57411905D01*
X164996904Y-57507143D01*
X165044523Y-57554762D01*
X165139761Y-57602381D01*
X165330238Y-57602381D01*
X165425476Y-57554762D01*
X164187380Y-57078571D02*
X164520714Y-57078571D01*
X164520714Y-57602381D02*
X164520714Y-56602381D01*
X164044523Y-56602381D01*
X155757619Y-68207143D02*
X155710000Y-68254762D01*
X155662381Y-68350000D01*
X155662381Y-68588096D01*
X155710000Y-68683334D01*
X155757619Y-68730953D01*
X155852857Y-68778572D01*
X155948095Y-68778572D01*
X156090952Y-68730953D01*
X156662381Y-68159524D01*
X156662381Y-68778572D01*
X155757619Y-69159524D02*
X155710000Y-69207143D01*
X155662381Y-69302381D01*
X155662381Y-69540477D01*
X155710000Y-69635715D01*
X155757619Y-69683334D01*
X155852857Y-69730953D01*
X155948095Y-69730953D01*
X156090952Y-69683334D01*
X156662381Y-69111905D01*
X156662381Y-69730953D01*
X155995714Y-70159524D02*
X156995714Y-70159524D01*
X156043333Y-70159524D02*
X155995714Y-70254762D01*
X155995714Y-70445239D01*
X156043333Y-70540477D01*
X156090952Y-70588096D01*
X156186190Y-70635715D01*
X156471905Y-70635715D01*
X156567143Y-70588096D01*
X156614762Y-70540477D01*
X156662381Y-70445239D01*
X156662381Y-70254762D01*
X156614762Y-70159524D01*
X156138571Y-71397620D02*
X156138571Y-71064286D01*
X156662381Y-71064286D02*
X155662381Y-71064286D01*
X155662381Y-71540477D01*
M02*
