G04 #@! TF.FileFunction,Copper,L1,Top,Signal*
%FSLAX46Y46*%
G04 Gerber Fmt 4.6, Leading zero omitted, Abs format (unit mm)*
G04 Created by KiCad (PCBNEW 4.0.7) date 12/20/19 19:25:11*
%MOMM*%
%LPD*%
G01*
G04 APERTURE LIST*
%ADD10C,0.100000*%
%ADD11R,1.700000X1.700000*%
%ADD12O,1.700000X1.700000*%
%ADD13C,5.000000*%
%ADD14C,1.600000*%
%ADD15O,1.524000X2.524000*%
%ADD16R,1.800000X1.800000*%
%ADD17C,1.800000*%
%ADD18C,1.000000*%
%ADD19R,1.000000X1.000000*%
%ADD20O,1.600000X1.600000*%
%ADD21C,2.000000*%
%ADD22R,1.600000X1.600000*%
%ADD23C,1.524000*%
%ADD24R,1.524000X1.524000*%
%ADD25R,1.800000X3.000000*%
%ADD26O,1.800000X3.000000*%
%ADD27C,0.600000*%
%ADD28C,0.250000*%
G04 APERTURE END LIST*
D10*
D11*
X107315000Y-132080000D03*
D12*
X104775000Y-132080000D03*
X107315000Y-129540000D03*
X104775000Y-129540000D03*
X107315000Y-127000000D03*
X104775000Y-127000000D03*
X107315000Y-124460000D03*
X104775000Y-124460000D03*
X107315000Y-121920000D03*
X104775000Y-121920000D03*
X107315000Y-119380000D03*
X104775000Y-119380000D03*
X107315000Y-116840000D03*
X104775000Y-116840000D03*
X107315000Y-114300000D03*
X104775000Y-114300000D03*
X107315000Y-111760000D03*
X104775000Y-111760000D03*
X107315000Y-109220000D03*
X104775000Y-109220000D03*
X107315000Y-106680000D03*
X104775000Y-106680000D03*
X107315000Y-104140000D03*
X104775000Y-104140000D03*
X107315000Y-101600000D03*
X104775000Y-101600000D03*
X107315000Y-99060000D03*
X104775000Y-99060000D03*
X107315000Y-96520000D03*
X104775000Y-96520000D03*
X107315000Y-93980000D03*
X104775000Y-93980000D03*
X107315000Y-91440000D03*
X104775000Y-91440000D03*
X107315000Y-88900000D03*
X104775000Y-88900000D03*
X107315000Y-86360000D03*
X104775000Y-86360000D03*
X107315000Y-83820000D03*
X104775000Y-83820000D03*
D13*
X104140000Y-140335000D03*
X195580000Y-140335000D03*
X195580000Y-74930000D03*
X104140000Y-74930000D03*
D14*
X135890000Y-80010000D03*
X130890000Y-80010000D03*
X122428000Y-80264000D03*
X117428000Y-80264000D03*
X158750000Y-117475000D03*
X158750000Y-122475000D03*
D15*
X155575000Y-99695000D03*
X158115000Y-99695000D03*
X160655000Y-99695000D03*
X163195000Y-99695000D03*
X165735000Y-99695000D03*
X165735000Y-84455000D03*
X163195000Y-84455000D03*
X160655000Y-84455000D03*
X158115000Y-84455000D03*
X155575000Y-84455000D03*
X170180000Y-99695000D03*
X172720000Y-99695000D03*
X175260000Y-99695000D03*
X177800000Y-99695000D03*
X180340000Y-99695000D03*
X180340000Y-84455000D03*
X177800000Y-84455000D03*
X175260000Y-84455000D03*
X172720000Y-84455000D03*
X170180000Y-84455000D03*
D16*
X154940000Y-137160000D03*
D17*
X157480000Y-137160000D03*
D18*
X139065000Y-76835000D03*
X140335000Y-75565000D03*
D19*
X140335000Y-78105000D03*
D18*
X157480000Y-76835000D03*
X158750000Y-75565000D03*
D19*
X158750000Y-78105000D03*
D18*
X175895000Y-76835000D03*
X177165000Y-75565000D03*
D19*
X177165000Y-78105000D03*
D18*
X123825000Y-116205000D03*
X125095000Y-114935000D03*
D19*
X125095000Y-117475000D03*
D18*
X155575000Y-105410000D03*
X156845000Y-104140000D03*
D19*
X156845000Y-106680000D03*
D14*
X151130000Y-86995000D03*
D20*
X140970000Y-86995000D03*
D14*
X151130000Y-90170000D03*
D20*
X140970000Y-90170000D03*
D14*
X151130000Y-100330000D03*
D20*
X140970000Y-100330000D03*
D14*
X151130000Y-103505000D03*
D20*
X140970000Y-103505000D03*
D14*
X151130000Y-106680000D03*
D20*
X140970000Y-106680000D03*
D14*
X151130000Y-97155000D03*
D20*
X140970000Y-97155000D03*
D14*
X151130000Y-93345000D03*
D20*
X140970000Y-93345000D03*
D14*
X151130000Y-83820000D03*
D20*
X140970000Y-83820000D03*
D14*
X172720000Y-78740000D03*
D20*
X162560000Y-78740000D03*
D14*
X172720000Y-74930000D03*
D20*
X162560000Y-74930000D03*
D14*
X191135000Y-78740000D03*
D20*
X180975000Y-78740000D03*
D14*
X191135000Y-74930000D03*
D20*
X180975000Y-74930000D03*
D14*
X172085000Y-132080000D03*
D20*
X172085000Y-142240000D03*
D14*
X175895000Y-132080000D03*
D20*
X175895000Y-142240000D03*
D14*
X179705000Y-132080000D03*
D20*
X179705000Y-142240000D03*
D14*
X183515000Y-132080000D03*
D20*
X183515000Y-142240000D03*
D14*
X187325000Y-132080000D03*
D20*
X187325000Y-142240000D03*
D14*
X191135000Y-132080000D03*
D20*
X191135000Y-142240000D03*
D14*
X168275000Y-104140000D03*
D20*
X168275000Y-114300000D03*
D14*
X172085000Y-104140000D03*
D20*
X172085000Y-114300000D03*
D14*
X175895000Y-104140000D03*
D20*
X175895000Y-114300000D03*
D14*
X179705000Y-104140000D03*
D20*
X179705000Y-114300000D03*
D14*
X183515000Y-104140000D03*
D20*
X183515000Y-114300000D03*
D14*
X187325000Y-104140000D03*
D20*
X187325000Y-114300000D03*
D14*
X191135000Y-104140000D03*
D20*
X191135000Y-114300000D03*
D14*
X194945000Y-114300000D03*
D20*
X194945000Y-104140000D03*
D21*
X167060000Y-140335000D03*
X162560000Y-140335000D03*
X167060000Y-133835000D03*
X162560000Y-133835000D03*
D22*
X129540000Y-83820000D03*
D20*
X137160000Y-106680000D03*
X129540000Y-86360000D03*
X137160000Y-104140000D03*
X129540000Y-88900000D03*
X137160000Y-101600000D03*
X129540000Y-91440000D03*
X137160000Y-99060000D03*
X129540000Y-93980000D03*
X137160000Y-96520000D03*
X129540000Y-96520000D03*
X137160000Y-93980000D03*
X129540000Y-99060000D03*
X137160000Y-91440000D03*
X129540000Y-101600000D03*
X137160000Y-88900000D03*
X129540000Y-104140000D03*
X137160000Y-86360000D03*
X129540000Y-106680000D03*
X137160000Y-83820000D03*
D14*
X154305000Y-78740000D03*
D20*
X144145000Y-78740000D03*
D14*
X154305000Y-74930000D03*
D20*
X144145000Y-74930000D03*
D14*
X147320000Y-132080000D03*
D20*
X157480000Y-132080000D03*
D14*
X122555000Y-132080000D03*
D20*
X132715000Y-132080000D03*
D15*
X184785000Y-99695000D03*
X187325000Y-99695000D03*
X189865000Y-99695000D03*
X192405000Y-99695000D03*
X194945000Y-99695000D03*
X194945000Y-84455000D03*
X192405000Y-84455000D03*
X189865000Y-84455000D03*
X187325000Y-84455000D03*
X184785000Y-84455000D03*
D18*
X163830000Y-105410000D03*
X162560000Y-106680000D03*
D19*
X162560000Y-104140000D03*
D14*
X137160000Y-111125000D03*
D20*
X137160000Y-121285000D03*
D14*
X129540000Y-111125000D03*
D20*
X129540000Y-121285000D03*
D14*
X133350000Y-111125000D03*
D20*
X133350000Y-121285000D03*
D14*
X148590000Y-121285000D03*
D20*
X148590000Y-111125000D03*
D14*
X140970000Y-121285000D03*
D20*
X140970000Y-111125000D03*
D14*
X152400000Y-111125000D03*
D20*
X152400000Y-121285000D03*
D14*
X144780000Y-121285000D03*
D20*
X144780000Y-111125000D03*
D23*
X137610000Y-134620000D03*
X137610000Y-137160000D03*
D24*
X137610000Y-139700000D03*
D23*
X143060000Y-139700000D03*
X143060000Y-137160000D03*
X143060000Y-134620000D03*
X112845000Y-134620000D03*
X112845000Y-137160000D03*
D24*
X112845000Y-139700000D03*
D23*
X118295000Y-139700000D03*
X118295000Y-137160000D03*
X118295000Y-134620000D03*
D22*
X116205000Y-83820000D03*
D20*
X123825000Y-106680000D03*
X116205000Y-86360000D03*
X123825000Y-104140000D03*
X116205000Y-88900000D03*
X123825000Y-101600000D03*
X116205000Y-91440000D03*
X123825000Y-99060000D03*
X116205000Y-93980000D03*
X123825000Y-96520000D03*
X116205000Y-96520000D03*
X123825000Y-93980000D03*
X116205000Y-99060000D03*
X123825000Y-91440000D03*
X116205000Y-101600000D03*
X123825000Y-88900000D03*
X116205000Y-104140000D03*
X123825000Y-86360000D03*
X116205000Y-106680000D03*
X123825000Y-83820000D03*
D16*
X147320000Y-137160000D03*
D17*
X149860000Y-137160000D03*
D16*
X130175000Y-137160000D03*
D17*
X132715000Y-137160000D03*
D16*
X122555000Y-137160000D03*
D17*
X125095000Y-137160000D03*
D22*
X163830000Y-111125000D03*
D20*
X156210000Y-111125000D03*
D22*
X156210000Y-114300000D03*
D20*
X163830000Y-114300000D03*
D25*
X171450000Y-127000000D03*
D26*
X189230000Y-119380000D03*
X173990000Y-127000000D03*
X186690000Y-119380000D03*
X176530000Y-127000000D03*
X184150000Y-119380000D03*
X179070000Y-127000000D03*
X181610000Y-119380000D03*
X181610000Y-127000000D03*
X179070000Y-119380000D03*
X184150000Y-127000000D03*
X176530000Y-119380000D03*
X186690000Y-127000000D03*
X173990000Y-119380000D03*
X189230000Y-127000000D03*
X171450000Y-119380000D03*
D27*
X109220000Y-131445000D03*
X118745000Y-121920000D03*
X169545000Y-94615000D03*
X154940000Y-94615000D03*
X184150000Y-94615000D03*
X172085000Y-95250000D03*
X186690000Y-95250000D03*
X157480000Y-95250000D03*
X142875000Y-80645000D03*
X191770000Y-95885000D03*
X177165000Y-95885000D03*
X162560000Y-95885000D03*
X179705000Y-88900000D03*
X165100000Y-88900000D03*
X177165000Y-86995000D03*
X162560000Y-86995000D03*
X158115000Y-88265000D03*
X156845000Y-89535000D03*
X187325000Y-87630000D03*
X172085000Y-88265000D03*
X154940000Y-87630000D03*
X154305000Y-89535000D03*
X184150000Y-87630000D03*
X169545000Y-87630000D03*
X161290000Y-80645000D03*
X134620000Y-89535000D03*
X134620000Y-92710000D03*
X134620000Y-96520000D03*
X134620000Y-106680000D03*
X133985000Y-97155000D03*
X133985000Y-106045000D03*
X135255000Y-100965000D03*
X135255000Y-104775000D03*
X168910000Y-130810000D03*
X193040000Y-123825000D03*
X193040000Y-125095000D03*
X109855000Y-130810000D03*
X188595000Y-129540000D03*
X168275000Y-130175000D03*
X110490000Y-130175000D03*
X192405000Y-123190000D03*
X192405000Y-125730000D03*
X191135000Y-128905000D03*
X138430000Y-126365000D03*
X139065000Y-119380000D03*
X139065000Y-116205000D03*
X114300000Y-126365000D03*
X139065000Y-114935000D03*
X101600000Y-129540000D03*
X101600000Y-133350000D03*
X139700000Y-140970000D03*
X188595000Y-133350000D03*
X140970000Y-142875000D03*
X187960000Y-130175000D03*
X160655000Y-123825000D03*
X114935000Y-125730000D03*
X115570000Y-125095000D03*
X156845000Y-124460000D03*
X116205000Y-124460000D03*
X154940000Y-125095000D03*
X116840000Y-123825000D03*
X153035000Y-124460000D03*
X117475000Y-123190000D03*
X151130000Y-123825000D03*
X121920000Y-88900000D03*
X122555000Y-95250000D03*
X133350000Y-95250000D03*
X149225000Y-123190000D03*
X118110000Y-122555000D03*
X129540000Y-118745000D03*
X153670000Y-72390000D03*
X118745000Y-77470000D03*
X165735000Y-97155000D03*
X163830000Y-86360000D03*
X179705000Y-80645000D03*
X147320000Y-122555000D03*
X154940000Y-117475000D03*
X153670000Y-117475000D03*
X111125000Y-129540000D03*
X111760000Y-128905000D03*
X112395000Y-128270000D03*
X113030000Y-127635000D03*
X113665000Y-127000000D03*
X121285000Y-89535000D03*
X154305000Y-108585000D03*
X154305000Y-116840000D03*
X172085000Y-73025000D03*
X119380000Y-76835000D03*
X120015000Y-77470000D03*
X140970000Y-114935000D03*
D28*
X133985000Y-109220000D02*
X120650000Y-109220000D01*
X118745000Y-111125000D02*
X118745000Y-121920000D01*
X120650000Y-109220000D02*
X118745000Y-111125000D01*
X100965000Y-127635000D02*
X100965000Y-84455000D01*
X100965000Y-84455000D02*
X101600000Y-83820000D01*
X101600000Y-83820000D02*
X104775000Y-83820000D01*
X102235000Y-130810000D02*
X101600000Y-130810000D01*
X109220000Y-131445000D02*
X108585000Y-130810000D01*
X108585000Y-130810000D02*
X102235000Y-130810000D01*
X100965000Y-130175000D02*
X100965000Y-127635000D01*
X101600000Y-130810000D02*
X100965000Y-130175000D01*
X109855000Y-132080000D02*
X109220000Y-131445000D01*
X112395000Y-132080000D02*
X109855000Y-132080000D01*
X112395000Y-132080000D02*
X113665000Y-132080000D01*
X112845000Y-132900000D02*
X112845000Y-132530000D01*
X112845000Y-132530000D02*
X112395000Y-132080000D01*
X153035000Y-109220000D02*
X133985000Y-109220000D01*
X133350000Y-109855000D02*
X133350000Y-111125000D01*
X133985000Y-109220000D02*
X133350000Y-109855000D01*
X152400000Y-111125000D02*
X152400000Y-109855000D01*
X156845000Y-108585000D02*
X156845000Y-106680000D01*
X156210000Y-109220000D02*
X156845000Y-108585000D01*
X153035000Y-109220000D02*
X156210000Y-109220000D01*
X152400000Y-109855000D02*
X153035000Y-109220000D01*
X112845000Y-134620000D02*
X112845000Y-132900000D01*
X113665000Y-132080000D02*
X115570000Y-132080000D01*
X122555000Y-132080000D02*
X115570000Y-132080000D01*
X138430000Y-80010000D02*
X135890000Y-80010000D01*
X137160000Y-83820000D02*
X137160000Y-81280000D01*
X137160000Y-81280000D02*
X135890000Y-80010000D01*
X123825000Y-83820000D02*
X123825000Y-81661000D01*
X123825000Y-81661000D02*
X122428000Y-80264000D01*
X120015000Y-78105000D02*
X105410000Y-78105000D01*
X105410000Y-78105000D02*
X104775000Y-78740000D01*
X104775000Y-78740000D02*
X104775000Y-83820000D01*
X121920000Y-78105000D02*
X120015000Y-78105000D01*
X138430000Y-80010000D02*
X139700000Y-80010000D01*
X140335000Y-79375000D02*
X139700000Y-80010000D01*
X140335000Y-78105000D02*
X140335000Y-79375000D01*
X140970000Y-80010000D02*
X139700000Y-80010000D01*
X140970000Y-80010000D02*
X153670000Y-80010000D01*
X135255000Y-78105000D02*
X135890000Y-78740000D01*
X135890000Y-78740000D02*
X135890000Y-80010000D01*
X121920000Y-78105000D02*
X122555000Y-78740000D01*
X122555000Y-78740000D02*
X122555000Y-80137000D01*
X122555000Y-80137000D02*
X122428000Y-80264000D01*
X135255000Y-78105000D02*
X121920000Y-78105000D01*
X177165000Y-79375000D02*
X176530000Y-80010000D01*
X158750000Y-79375000D02*
X158115000Y-80010000D01*
X154305000Y-78740000D02*
X154305000Y-79375000D01*
X154305000Y-79375000D02*
X153670000Y-80010000D01*
X153670000Y-80010000D02*
X158115000Y-80010000D01*
X158115000Y-80010000D02*
X159385000Y-80010000D01*
X172720000Y-78740000D02*
X172720000Y-79375000D01*
X172720000Y-79375000D02*
X172085000Y-80010000D01*
X158750000Y-78105000D02*
X158750000Y-79375000D01*
X159385000Y-80010000D02*
X172085000Y-80010000D01*
X172085000Y-80010000D02*
X176530000Y-80010000D01*
X176530000Y-80010000D02*
X177800000Y-80010000D01*
X177165000Y-78105000D02*
X177165000Y-79375000D01*
X190500000Y-80010000D02*
X191135000Y-79375000D01*
X177800000Y-80010000D02*
X190500000Y-80010000D01*
X191135000Y-79375000D02*
X191135000Y-78740000D01*
X151765000Y-98425000D02*
X152400000Y-98425000D01*
X153035000Y-95250000D02*
X153670000Y-94615000D01*
X153035000Y-97790000D02*
X153035000Y-95250000D01*
X152400000Y-98425000D02*
X153035000Y-97790000D01*
X149225000Y-98425000D02*
X148590000Y-99060000D01*
X151765000Y-98425000D02*
X149225000Y-98425000D01*
X148590000Y-106045000D02*
X149225000Y-106680000D01*
X148590000Y-106045000D02*
X148590000Y-99060000D01*
X151130000Y-106680000D02*
X149225000Y-106680000D01*
X153670000Y-94615000D02*
X154940000Y-94615000D01*
X154940000Y-94615000D02*
X169545000Y-94615000D01*
X169545000Y-94615000D02*
X184150000Y-94615000D01*
X152400000Y-99060000D02*
X153035000Y-99060000D01*
X153670000Y-95885000D02*
X154305000Y-95250000D01*
X153670000Y-98425000D02*
X153670000Y-95885000D01*
X153035000Y-99060000D02*
X153670000Y-98425000D01*
X149860000Y-99060000D02*
X149225000Y-99695000D01*
X152400000Y-99060000D02*
X149860000Y-99060000D01*
X182880000Y-95250000D02*
X186690000Y-95250000D01*
X157480000Y-95250000D02*
X172085000Y-95250000D01*
X172085000Y-95250000D02*
X182880000Y-95250000D01*
X151130000Y-103505000D02*
X149860000Y-103505000D01*
X149225000Y-102870000D02*
X149225000Y-99695000D01*
X149860000Y-103505000D02*
X149225000Y-102870000D01*
X154305000Y-95250000D02*
X157480000Y-95250000D01*
X160655000Y-81280000D02*
X160655000Y-84455000D01*
X160020000Y-80645000D02*
X160655000Y-81280000D01*
X142875000Y-80645000D02*
X160020000Y-80645000D01*
X153035000Y-100330000D02*
X153670000Y-100330000D01*
X154305000Y-96520000D02*
X154940000Y-95885000D01*
X154305000Y-99695000D02*
X154305000Y-96520000D01*
X153670000Y-100330000D02*
X154305000Y-99695000D01*
X177165000Y-95885000D02*
X191770000Y-95885000D01*
X162560000Y-95885000D02*
X177165000Y-95885000D01*
X151130000Y-100330000D02*
X153035000Y-100330000D01*
X154940000Y-95885000D02*
X162560000Y-95885000D01*
X163195000Y-88900000D02*
X152400000Y-88900000D01*
X165100000Y-88900000D02*
X163195000Y-88900000D01*
X152400000Y-88900000D02*
X151130000Y-90170000D01*
X179705000Y-88900000D02*
X194310000Y-88900000D01*
X194945000Y-88265000D02*
X194945000Y-84455000D01*
X194310000Y-88900000D02*
X194945000Y-88265000D01*
X165100000Y-88900000D02*
X179705000Y-88900000D01*
X151130000Y-86995000D02*
X162560000Y-86995000D01*
X162560000Y-86995000D02*
X177165000Y-86995000D01*
X177165000Y-86995000D02*
X191770000Y-86995000D01*
X192405000Y-86360000D02*
X192405000Y-84455000D01*
X191770000Y-86995000D02*
X192405000Y-86360000D01*
X187325000Y-87630000D02*
X186690000Y-88265000D01*
X172085000Y-88265000D02*
X186690000Y-88265000D01*
X158115000Y-88265000D02*
X172085000Y-88265000D01*
X156845000Y-93345000D02*
X156210000Y-93980000D01*
X156845000Y-89535000D02*
X156845000Y-93345000D01*
X151130000Y-97155000D02*
X151765000Y-97155000D01*
X151765000Y-97155000D02*
X152400000Y-96520000D01*
X152400000Y-96520000D02*
X152400000Y-94615000D01*
X152400000Y-94615000D02*
X153035000Y-93980000D01*
X153035000Y-93980000D02*
X156210000Y-93980000D01*
X154940000Y-87630000D02*
X169545000Y-87630000D01*
X153670000Y-93345000D02*
X151130000Y-93345000D01*
X154305000Y-89535000D02*
X154305000Y-92710000D01*
X153670000Y-93345000D02*
X154305000Y-92710000D01*
X169545000Y-87630000D02*
X184150000Y-87630000D01*
X175260000Y-81280000D02*
X175260000Y-84455000D01*
X174625000Y-80645000D02*
X175260000Y-81280000D01*
X161290000Y-80645000D02*
X174625000Y-80645000D01*
X143060000Y-134620000D02*
X152400000Y-134620000D01*
X152400000Y-134620000D02*
X154940000Y-137160000D01*
X157480000Y-137160000D02*
X157480000Y-132080000D01*
X151130000Y-139065000D02*
X150495000Y-139065000D01*
X151130000Y-139065000D02*
X156845000Y-139065000D01*
X156845000Y-139065000D02*
X157480000Y-138430000D01*
X157480000Y-137160000D02*
X157480000Y-138430000D01*
X149860000Y-138430000D02*
X149860000Y-137160000D01*
X150495000Y-139065000D02*
X149860000Y-138430000D01*
X118295000Y-139700000D02*
X120015000Y-139700000D01*
X120015000Y-139700000D02*
X122555000Y-137160000D01*
X114935000Y-142240000D02*
X107315000Y-142240000D01*
X162560000Y-141605000D02*
X161925000Y-142240000D01*
X161925000Y-142240000D02*
X114935000Y-142240000D01*
X162560000Y-140335000D02*
X162560000Y-141605000D01*
X101600000Y-132080000D02*
X104775000Y-132080000D01*
X100965000Y-132715000D02*
X101600000Y-132080000D01*
X100965000Y-142875000D02*
X100965000Y-132715000D01*
X101600000Y-143510000D02*
X100965000Y-142875000D01*
X106045000Y-143510000D02*
X101600000Y-143510000D01*
X107315000Y-142240000D02*
X106045000Y-143510000D01*
X162560000Y-133835000D02*
X162560000Y-140335000D01*
X113030000Y-125095000D02*
X113030000Y-125730000D01*
X109220000Y-129540000D02*
X107315000Y-129540000D01*
X113030000Y-125730000D02*
X109220000Y-129540000D01*
X133985000Y-108585000D02*
X134620000Y-107950000D01*
X135255000Y-88900000D02*
X137160000Y-88900000D01*
X134620000Y-89535000D02*
X135255000Y-88900000D01*
X134620000Y-96520000D02*
X134620000Y-92710000D01*
X134620000Y-107950000D02*
X134620000Y-106680000D01*
X113665000Y-108585000D02*
X133985000Y-108585000D01*
X113030000Y-125095000D02*
X113030000Y-109220000D01*
X113030000Y-109220000D02*
X113665000Y-108585000D01*
X112395000Y-124460000D02*
X112395000Y-125095000D01*
X110490000Y-127000000D02*
X109855000Y-127000000D01*
X112395000Y-125095000D02*
X110490000Y-127000000D01*
X133350000Y-107950000D02*
X133985000Y-107315000D01*
X134620000Y-91440000D02*
X135255000Y-91440000D01*
X133985000Y-92075000D02*
X134620000Y-91440000D01*
X133985000Y-97155000D02*
X133985000Y-92075000D01*
X133985000Y-107315000D02*
X133985000Y-106045000D01*
X107315000Y-127000000D02*
X109855000Y-127000000D01*
X135255000Y-91440000D02*
X137160000Y-91440000D01*
X113030000Y-107950000D02*
X133350000Y-107950000D01*
X112395000Y-108585000D02*
X113030000Y-107950000D01*
X112395000Y-124460000D02*
X112395000Y-108585000D01*
X111760000Y-123190000D02*
X110490000Y-124460000D01*
X107315000Y-124460000D02*
X110490000Y-124460000D01*
X135890000Y-99060000D02*
X137160000Y-99060000D01*
X135255000Y-99695000D02*
X135890000Y-99060000D01*
X135255000Y-100965000D02*
X135255000Y-99695000D01*
X134620000Y-105410000D02*
X135255000Y-104775000D01*
X112395000Y-105410000D02*
X134620000Y-105410000D01*
X111760000Y-106045000D02*
X112395000Y-105410000D01*
X111760000Y-123190000D02*
X111760000Y-106045000D01*
X189230000Y-119380000D02*
X192405000Y-119380000D01*
X192405000Y-119380000D02*
X193040000Y-120015000D01*
X191135000Y-129540000D02*
X192405000Y-129540000D01*
X193040000Y-116205000D02*
X191770000Y-114935000D01*
X193040000Y-123825000D02*
X193040000Y-120015000D01*
X193040000Y-120015000D02*
X193040000Y-116205000D01*
X193040000Y-128905000D02*
X193040000Y-125095000D01*
X192405000Y-129540000D02*
X193040000Y-128905000D01*
X191770000Y-114935000D02*
X191135000Y-114300000D01*
X120015000Y-130810000D02*
X168910000Y-130810000D01*
X109855000Y-130810000D02*
X120015000Y-130810000D01*
X188595000Y-129540000D02*
X191135000Y-129540000D01*
X127635000Y-102870000D02*
X134620000Y-102870000D01*
X110490000Y-121920000D02*
X111125000Y-121285000D01*
X111125000Y-121285000D02*
X111125000Y-103505000D01*
X111125000Y-103505000D02*
X111760000Y-102870000D01*
X111760000Y-102870000D02*
X127635000Y-102870000D01*
X107315000Y-121920000D02*
X110490000Y-121920000D01*
X135890000Y-101600000D02*
X137160000Y-101600000D01*
X134620000Y-102870000D02*
X135890000Y-101600000D01*
X110490000Y-130175000D02*
X119380000Y-130175000D01*
X119380000Y-130175000D02*
X168275000Y-130175000D01*
X186690000Y-119380000D02*
X186690000Y-114935000D01*
X186690000Y-114935000D02*
X187325000Y-114300000D01*
X187325000Y-121285000D02*
X186690000Y-120650000D01*
X191770000Y-121285000D02*
X187325000Y-121285000D01*
X192405000Y-121920000D02*
X191770000Y-121285000D01*
X192405000Y-123190000D02*
X192405000Y-121920000D01*
X192405000Y-128270000D02*
X192405000Y-125730000D01*
X191770000Y-128905000D02*
X192405000Y-128270000D01*
X191135000Y-128905000D02*
X191770000Y-128905000D01*
X186690000Y-120650000D02*
X186690000Y-119380000D01*
X187325000Y-118745000D02*
X186690000Y-119380000D01*
X186690000Y-119380000D02*
X186690000Y-118745000D01*
X107315000Y-119380000D02*
X109855000Y-119380000D01*
X128270000Y-100330000D02*
X129540000Y-101600000D01*
X111125000Y-100330000D02*
X128270000Y-100330000D01*
X110490000Y-100965000D02*
X111125000Y-100330000D01*
X110490000Y-118745000D02*
X110490000Y-100965000D01*
X109855000Y-119380000D02*
X110490000Y-118745000D01*
X107315000Y-116840000D02*
X109220000Y-116840000D01*
X110490000Y-99060000D02*
X116205000Y-99060000D01*
X109855000Y-99695000D02*
X110490000Y-99060000D01*
X109855000Y-116205000D02*
X109855000Y-99695000D01*
X109220000Y-116840000D02*
X109855000Y-116205000D01*
X116205000Y-99060000D02*
X117475000Y-97790000D01*
X128270000Y-97790000D02*
X129540000Y-99060000D01*
X117475000Y-97790000D02*
X128270000Y-97790000D01*
X116205000Y-91440000D02*
X117475000Y-92710000D01*
X128270000Y-92710000D02*
X129540000Y-91440000D01*
X117475000Y-92710000D02*
X128270000Y-92710000D01*
X107315000Y-114300000D02*
X108585000Y-114300000D01*
X109855000Y-91440000D02*
X116205000Y-91440000D01*
X109220000Y-92075000D02*
X109855000Y-91440000D01*
X109220000Y-113665000D02*
X109220000Y-92075000D01*
X108585000Y-114300000D02*
X109220000Y-113665000D01*
X114935000Y-90170000D02*
X128270000Y-90170000D01*
X128270000Y-90170000D02*
X129540000Y-88900000D01*
X116205000Y-88900000D02*
X114935000Y-90170000D01*
X109220000Y-90170000D02*
X108585000Y-90805000D01*
X114935000Y-90170000D02*
X109220000Y-90170000D01*
X107315000Y-111760000D02*
X107950000Y-111760000D01*
X107950000Y-111760000D02*
X108585000Y-111125000D01*
X108585000Y-111125000D02*
X108585000Y-90805000D01*
X139065000Y-119380000D02*
X139065000Y-116205000D01*
X118110000Y-126365000D02*
X138430000Y-126365000D01*
X114300000Y-126365000D02*
X118110000Y-126365000D01*
X138430000Y-111125000D02*
X137160000Y-111125000D01*
X139065000Y-111760000D02*
X138430000Y-111125000D01*
X139065000Y-114935000D02*
X139065000Y-111760000D01*
X139700000Y-140970000D02*
X116205000Y-140970000D01*
X102235000Y-101600000D02*
X104775000Y-101600000D01*
X101600000Y-102235000D02*
X102235000Y-101600000D01*
X101600000Y-129540000D02*
X101600000Y-102235000D01*
X101600000Y-135255000D02*
X101600000Y-133350000D01*
X102235000Y-135890000D02*
X101600000Y-135255000D01*
X114935000Y-135890000D02*
X102235000Y-135890000D01*
X115570000Y-136525000D02*
X114935000Y-135890000D01*
X115570000Y-140335000D02*
X115570000Y-136525000D01*
X116205000Y-140970000D02*
X115570000Y-140335000D01*
X139700000Y-135255000D02*
X139065000Y-134620000D01*
X139700000Y-140970000D02*
X139700000Y-135255000D01*
X188595000Y-139700000D02*
X188595000Y-140335000D01*
X187960000Y-140970000D02*
X170815000Y-140970000D01*
X188595000Y-140335000D02*
X187960000Y-140970000D01*
X188595000Y-133350000D02*
X188595000Y-139700000D01*
X161290000Y-142875000D02*
X168910000Y-142875000D01*
X140970000Y-142875000D02*
X161290000Y-142875000D01*
X137610000Y-134620000D02*
X138430000Y-134620000D01*
X139065000Y-134620000D02*
X138430000Y-134620000D01*
X168910000Y-142875000D02*
X170815000Y-140970000D01*
X186690000Y-128905000D02*
X186690000Y-127000000D01*
X187960000Y-130175000D02*
X186690000Y-128905000D01*
X186690000Y-127000000D02*
X186690000Y-125095000D01*
X194945000Y-123825000D02*
X194945000Y-114300000D01*
X194310000Y-124460000D02*
X194945000Y-123825000D01*
X187325000Y-124460000D02*
X194310000Y-124460000D01*
X186690000Y-125095000D02*
X187325000Y-124460000D01*
X160655000Y-123825000D02*
X158115000Y-126365000D01*
X158115000Y-126365000D02*
X153035000Y-126365000D01*
X121285000Y-125730000D02*
X139065000Y-125730000D01*
X114935000Y-125730000D02*
X121285000Y-125730000D01*
X139700000Y-126365000D02*
X153035000Y-126365000D01*
X139065000Y-125730000D02*
X139700000Y-126365000D01*
X187325000Y-130810000D02*
X186055000Y-130810000D01*
X186055000Y-130810000D02*
X184785000Y-129540000D01*
X187325000Y-130810000D02*
X189865000Y-130810000D01*
X191135000Y-132080000D02*
X189865000Y-130810000D01*
X184150000Y-127000000D02*
X184150000Y-128905000D01*
X184150000Y-128905000D02*
X184785000Y-129540000D01*
X139700000Y-125095000D02*
X140335000Y-125730000D01*
X140335000Y-125730000D02*
X152400000Y-125730000D01*
X115570000Y-125095000D02*
X119380000Y-125095000D01*
X119380000Y-125095000D02*
X139700000Y-125095000D01*
X155575000Y-125730000D02*
X152400000Y-125730000D01*
X156845000Y-124460000D02*
X155575000Y-125730000D01*
X187325000Y-132080000D02*
X186055000Y-132080000D01*
X186055000Y-132080000D02*
X184150000Y-130175000D01*
X181610000Y-127000000D02*
X181610000Y-128270000D01*
X181610000Y-128270000D02*
X183515000Y-130175000D01*
X183515000Y-130175000D02*
X184150000Y-130175000D01*
X140335000Y-124460000D02*
X140970000Y-125095000D01*
X140970000Y-125095000D02*
X151765000Y-125095000D01*
X116205000Y-124460000D02*
X118110000Y-124460000D01*
X118110000Y-124460000D02*
X140335000Y-124460000D01*
X154940000Y-125095000D02*
X151765000Y-125095000D01*
X179070000Y-127000000D02*
X179070000Y-127635000D01*
X179070000Y-127635000D02*
X183515000Y-132080000D01*
X140970000Y-123825000D02*
X141605000Y-124460000D01*
X141605000Y-124460000D02*
X151130000Y-124460000D01*
X116840000Y-123825000D02*
X118110000Y-123825000D01*
X118110000Y-123825000D02*
X140970000Y-123825000D01*
X153035000Y-124460000D02*
X151130000Y-124460000D01*
X176530000Y-127000000D02*
X176530000Y-128905000D01*
X176530000Y-128905000D02*
X179705000Y-132080000D01*
X141605000Y-123190000D02*
X142240000Y-123825000D01*
X142240000Y-123825000D02*
X150495000Y-123825000D01*
X117475000Y-123190000D02*
X141605000Y-123190000D01*
X151130000Y-123825000D02*
X150495000Y-123825000D01*
X173990000Y-127000000D02*
X173990000Y-130175000D01*
X173990000Y-130175000D02*
X175895000Y-132080000D01*
X121920000Y-88900000D02*
X121920000Y-85725000D01*
X133350000Y-95250000D02*
X122555000Y-95250000D01*
X121920000Y-85725000D02*
X121285000Y-85090000D01*
X121285000Y-85090000D02*
X118110000Y-85090000D01*
X107315000Y-86360000D02*
X113665000Y-86360000D01*
X114935000Y-85090000D02*
X118110000Y-85090000D01*
X113665000Y-86360000D02*
X114935000Y-85090000D01*
X118110000Y-122555000D02*
X142240000Y-122555000D01*
X142240000Y-122555000D02*
X142875000Y-123190000D01*
X142875000Y-123190000D02*
X149225000Y-123190000D01*
X171450000Y-127000000D02*
X171450000Y-131445000D01*
X171450000Y-131445000D02*
X172085000Y-132080000D01*
X143510000Y-76835000D02*
X144145000Y-77470000D01*
X144145000Y-77470000D02*
X144145000Y-78740000D01*
X144145000Y-74930000D02*
X144145000Y-76200000D01*
X143510000Y-76835000D02*
X139065000Y-76835000D01*
X144145000Y-76200000D02*
X143510000Y-76835000D01*
X161925000Y-76835000D02*
X162560000Y-77470000D01*
X161925000Y-76835000D02*
X162560000Y-76200000D01*
X162560000Y-77470000D02*
X162560000Y-78740000D01*
X157480000Y-76835000D02*
X161925000Y-76835000D01*
X162560000Y-76200000D02*
X162560000Y-74930000D01*
X180975000Y-78740000D02*
X180975000Y-77470000D01*
X180975000Y-77470000D02*
X180340000Y-76835000D01*
X175895000Y-76835000D02*
X180340000Y-76835000D01*
X180975000Y-76200000D02*
X180975000Y-74930000D01*
X180340000Y-76835000D02*
X180975000Y-76200000D01*
X123825000Y-116205000D02*
X123825000Y-114300000D01*
X123825000Y-114300000D02*
X124460000Y-113665000D01*
X124460000Y-113665000D02*
X128905000Y-113665000D01*
X128905000Y-113665000D02*
X129540000Y-114300000D01*
X129540000Y-114300000D02*
X129540000Y-118745000D01*
X137160000Y-121920000D02*
X137160000Y-121285000D01*
X137160000Y-120650000D02*
X137160000Y-121285000D01*
X137160000Y-104140000D02*
X139065000Y-104140000D01*
X139700000Y-106045000D02*
X140335000Y-106680000D01*
X139700000Y-104775000D02*
X139700000Y-106045000D01*
X139065000Y-104140000D02*
X139700000Y-104775000D01*
X140335000Y-106680000D02*
X140970000Y-106680000D01*
X137160000Y-96520000D02*
X140335000Y-96520000D01*
X140335000Y-96520000D02*
X140970000Y-97155000D01*
X137160000Y-93980000D02*
X140335000Y-93980000D01*
X140335000Y-93980000D02*
X140970000Y-93345000D01*
X137160000Y-86360000D02*
X137795000Y-86360000D01*
X137795000Y-86360000D02*
X138430000Y-85725000D01*
X138430000Y-85725000D02*
X138430000Y-84455000D01*
X138430000Y-84455000D02*
X139065000Y-83820000D01*
X139065000Y-83820000D02*
X140970000Y-83820000D01*
X153670000Y-72390000D02*
X137795000Y-72390000D01*
X119380000Y-72390000D02*
X137795000Y-72390000D01*
X118745000Y-73025000D02*
X119380000Y-72390000D01*
X118745000Y-77470000D02*
X118745000Y-73025000D01*
X154305000Y-74930000D02*
X154305000Y-74295000D01*
X165735000Y-97155000D02*
X166370000Y-96520000D01*
X151130000Y-83820000D02*
X152400000Y-83820000D01*
X152400000Y-83820000D02*
X153035000Y-84455000D01*
X153035000Y-84455000D02*
X153035000Y-85725000D01*
X153035000Y-85725000D02*
X153670000Y-86360000D01*
X153670000Y-86360000D02*
X163830000Y-86360000D01*
X180340000Y-99695000D02*
X180340000Y-97155000D01*
X180340000Y-97155000D02*
X179705000Y-96520000D01*
X165735000Y-99695000D02*
X165735000Y-97155000D01*
X194945000Y-97155000D02*
X194945000Y-99695000D01*
X194310000Y-96520000D02*
X194945000Y-97155000D01*
X166370000Y-96520000D02*
X179705000Y-96520000D01*
X179705000Y-96520000D02*
X194310000Y-96520000D01*
X189865000Y-81280000D02*
X189865000Y-84455000D01*
X189230000Y-80645000D02*
X189865000Y-81280000D01*
X179705000Y-80645000D02*
X189230000Y-80645000D01*
X147320000Y-122555000D02*
X147320000Y-118110000D01*
X147320000Y-118110000D02*
X147955000Y-117475000D01*
X154940000Y-117475000D02*
X158750000Y-117475000D01*
X147955000Y-117475000D02*
X153670000Y-117475000D01*
X158750000Y-117475000D02*
X169545000Y-117475000D01*
X169545000Y-117475000D02*
X171450000Y-119380000D01*
X114935000Y-140970000D02*
X115570000Y-141605000D01*
X147320000Y-132080000D02*
X142240000Y-132080000D01*
X140970000Y-141605000D02*
X115570000Y-141605000D01*
X141605000Y-140970000D02*
X140970000Y-141605000D01*
X141605000Y-132715000D02*
X141605000Y-140970000D01*
X142240000Y-132080000D02*
X141605000Y-132715000D01*
X114300000Y-137160000D02*
X112845000Y-137160000D01*
X114935000Y-137795000D02*
X114300000Y-137160000D01*
X114935000Y-140970000D02*
X114935000Y-137795000D01*
X143060000Y-139700000D02*
X144780000Y-139700000D01*
X144780000Y-139700000D02*
X147320000Y-137160000D01*
X118295000Y-134620000D02*
X127635000Y-134620000D01*
X127635000Y-134620000D02*
X130175000Y-137160000D01*
X132715000Y-137160000D02*
X132715000Y-132080000D01*
X126365000Y-139065000D02*
X125730000Y-139065000D01*
X126365000Y-139065000D02*
X132080000Y-139065000D01*
X132080000Y-139065000D02*
X132715000Y-138430000D01*
X132715000Y-137160000D02*
X132715000Y-138430000D01*
X125095000Y-138430000D02*
X125095000Y-137160000D01*
X125730000Y-139065000D02*
X125095000Y-138430000D01*
X117475000Y-129540000D02*
X168275000Y-129540000D01*
X111125000Y-129540000D02*
X117475000Y-129540000D01*
X184150000Y-123825000D02*
X184150000Y-119380000D01*
X183515000Y-124460000D02*
X184150000Y-123825000D01*
X169545000Y-124460000D02*
X183515000Y-124460000D01*
X168910000Y-125095000D02*
X169545000Y-124460000D01*
X168910000Y-128905000D02*
X168910000Y-125095000D01*
X168275000Y-129540000D02*
X168910000Y-128905000D01*
X183515000Y-114300000D02*
X183515000Y-118745000D01*
X183515000Y-118745000D02*
X184150000Y-119380000D01*
X118745000Y-128905000D02*
X167640000Y-128905000D01*
X111760000Y-128905000D02*
X118745000Y-128905000D01*
X181610000Y-123190000D02*
X181610000Y-119380000D01*
X180975000Y-123825000D02*
X181610000Y-123190000D01*
X168910000Y-123825000D02*
X180975000Y-123825000D01*
X168275000Y-124460000D02*
X168910000Y-123825000D01*
X168275000Y-128270000D02*
X168275000Y-124460000D01*
X167640000Y-128905000D02*
X168275000Y-128270000D01*
X180340000Y-115570000D02*
X181610000Y-116840000D01*
X179705000Y-114300000D02*
X179705000Y-114935000D01*
X179705000Y-114935000D02*
X180340000Y-115570000D01*
X181610000Y-119380000D02*
X181610000Y-116840000D01*
X167005000Y-128270000D02*
X167640000Y-127635000D01*
X167640000Y-127635000D02*
X167640000Y-123825000D01*
X167640000Y-123825000D02*
X168275000Y-123190000D01*
X168275000Y-123190000D02*
X178435000Y-123190000D01*
X178435000Y-123190000D02*
X179070000Y-122555000D01*
X179070000Y-119380000D02*
X179070000Y-122555000D01*
X112395000Y-128270000D02*
X118110000Y-128270000D01*
X118110000Y-128270000D02*
X167005000Y-128270000D01*
X179070000Y-119380000D02*
X179070000Y-116205000D01*
X176530000Y-115570000D02*
X175895000Y-114935000D01*
X178435000Y-115570000D02*
X176530000Y-115570000D01*
X179070000Y-116205000D02*
X178435000Y-115570000D01*
X175895000Y-114935000D02*
X175895000Y-114300000D01*
X118110000Y-127635000D02*
X166370000Y-127635000D01*
X113665000Y-127635000D02*
X118110000Y-127635000D01*
X113030000Y-127635000D02*
X113665000Y-127635000D01*
X176530000Y-121920000D02*
X176530000Y-119380000D01*
X175895000Y-122555000D02*
X176530000Y-121920000D01*
X167640000Y-122555000D02*
X175895000Y-122555000D01*
X167005000Y-123190000D02*
X167640000Y-122555000D01*
X167005000Y-127000000D02*
X167005000Y-123190000D01*
X166370000Y-127635000D02*
X167005000Y-127000000D01*
X176530000Y-119380000D02*
X176530000Y-116840000D01*
X176530000Y-116840000D02*
X175895000Y-116205000D01*
X175895000Y-116205000D02*
X172720000Y-116205000D01*
X172720000Y-116205000D02*
X172085000Y-115570000D01*
X172085000Y-115570000D02*
X172085000Y-114300000D01*
X117475000Y-127000000D02*
X165735000Y-127000000D01*
X114300000Y-127000000D02*
X117475000Y-127000000D01*
X114300000Y-127000000D02*
X113665000Y-127000000D01*
X173990000Y-121285000D02*
X173990000Y-119380000D01*
X173355000Y-121920000D02*
X173990000Y-121285000D01*
X167005000Y-121920000D02*
X173355000Y-121920000D01*
X166370000Y-122555000D02*
X167005000Y-121920000D01*
X166370000Y-126365000D02*
X166370000Y-122555000D01*
X165735000Y-127000000D02*
X166370000Y-126365000D01*
X168275000Y-114300000D02*
X168275000Y-116205000D01*
X173990000Y-117475000D02*
X173990000Y-119380000D01*
X173355000Y-116840000D02*
X173990000Y-117475000D01*
X168910000Y-116840000D02*
X173355000Y-116840000D01*
X168275000Y-116205000D02*
X168910000Y-116840000D01*
X118745000Y-87630000D02*
X120650000Y-87630000D01*
X113665000Y-88900000D02*
X114935000Y-87630000D01*
X114935000Y-87630000D02*
X118745000Y-87630000D01*
X107315000Y-88900000D02*
X113665000Y-88900000D01*
X121285000Y-88265000D02*
X121285000Y-89535000D01*
X120650000Y-87630000D02*
X121285000Y-88265000D01*
X141605000Y-115570000D02*
X133985000Y-115570000D01*
X163195000Y-115570000D02*
X141605000Y-115570000D01*
X163830000Y-114935000D02*
X163195000Y-115570000D01*
X133350000Y-119380000D02*
X132715000Y-120015000D01*
X133350000Y-116205000D02*
X133350000Y-119380000D01*
X133985000Y-115570000D02*
X133350000Y-116205000D01*
X163830000Y-114300000D02*
X163830000Y-114935000D01*
X125095000Y-114935000D02*
X125730000Y-114935000D01*
X125730000Y-114935000D02*
X126365000Y-115570000D01*
X126365000Y-115570000D02*
X126365000Y-119380000D01*
X126365000Y-119380000D02*
X127000000Y-120015000D01*
X127000000Y-120015000D02*
X132715000Y-120015000D01*
X132715000Y-120015000D02*
X133350000Y-120650000D01*
X133350000Y-120650000D02*
X133350000Y-121285000D01*
X163830000Y-114300000D02*
X163830000Y-111125000D01*
X152400000Y-121285000D02*
X153670000Y-121285000D01*
X155575000Y-107315000D02*
X155575000Y-105410000D01*
X154305000Y-108585000D02*
X155575000Y-107315000D01*
X154305000Y-120650000D02*
X154305000Y-116840000D01*
X153670000Y-121285000D02*
X154305000Y-120650000D01*
X148590000Y-121285000D02*
X152400000Y-121285000D01*
X162560000Y-106680000D02*
X167640000Y-106680000D01*
X168275000Y-106045000D02*
X168275000Y-104140000D01*
X167640000Y-106680000D02*
X168275000Y-106045000D01*
X168275000Y-104140000D02*
X167640000Y-104140000D01*
X167640000Y-104140000D02*
X166370000Y-102870000D01*
X156845000Y-103505000D02*
X156845000Y-104140000D01*
X157480000Y-102870000D02*
X156845000Y-103505000D01*
X166370000Y-102870000D02*
X157480000Y-102870000D01*
X198755000Y-142875000D02*
X198755000Y-104775000D01*
X192405000Y-143510000D02*
X198120000Y-143510000D01*
X198120000Y-143510000D02*
X198755000Y-142875000D01*
X191135000Y-142240000D02*
X192405000Y-143510000D01*
X198120000Y-104140000D02*
X194945000Y-104140000D01*
X198755000Y-104775000D02*
X198120000Y-104140000D01*
X191135000Y-104140000D02*
X194945000Y-104140000D01*
X187325000Y-104140000D02*
X191135000Y-104140000D01*
X183515000Y-104140000D02*
X187325000Y-104140000D01*
X179705000Y-104140000D02*
X183515000Y-104140000D01*
X175895000Y-104140000D02*
X179705000Y-104140000D01*
X172085000Y-104140000D02*
X175895000Y-104140000D01*
X168275000Y-104140000D02*
X172085000Y-104140000D01*
X187325000Y-142240000D02*
X191135000Y-142240000D01*
X183515000Y-142240000D02*
X187325000Y-142240000D01*
X179705000Y-142240000D02*
X183515000Y-142240000D01*
X175895000Y-142240000D02*
X179705000Y-142240000D01*
X172085000Y-142240000D02*
X175895000Y-142240000D01*
X154305000Y-113030000D02*
X146050000Y-113030000D01*
X158750000Y-105410000D02*
X158115000Y-106045000D01*
X158115000Y-106045000D02*
X158115000Y-112395000D01*
X158115000Y-112395000D02*
X157480000Y-113030000D01*
X157480000Y-113030000D02*
X154305000Y-113030000D01*
X163830000Y-105410000D02*
X158750000Y-105410000D01*
X145415000Y-111760000D02*
X144780000Y-111125000D01*
X145415000Y-112395000D02*
X145415000Y-111760000D01*
X146050000Y-113030000D02*
X145415000Y-112395000D01*
X144780000Y-111125000D02*
X140970000Y-111125000D01*
X138430000Y-87630000D02*
X140335000Y-87630000D01*
X140335000Y-87630000D02*
X140970000Y-86995000D01*
X130810000Y-87630000D02*
X129540000Y-86360000D01*
X138430000Y-87630000D02*
X130810000Y-87630000D01*
X140970000Y-90170000D02*
X131445000Y-90170000D01*
X130810000Y-93345000D02*
X130175000Y-93980000D01*
X130810000Y-90805000D02*
X130810000Y-93345000D01*
X131445000Y-90170000D02*
X130810000Y-90805000D01*
X130175000Y-93980000D02*
X129540000Y-93980000D01*
X129540000Y-96520000D02*
X130810000Y-97790000D01*
X139700000Y-99695000D02*
X140335000Y-100330000D01*
X139700000Y-98425000D02*
X139700000Y-99695000D01*
X139065000Y-97790000D02*
X139700000Y-98425000D01*
X130810000Y-97790000D02*
X139065000Y-97790000D01*
X140335000Y-100330000D02*
X140970000Y-100330000D01*
X129540000Y-104140000D02*
X134620000Y-104140000D01*
X134620000Y-104140000D02*
X135890000Y-102870000D01*
X140970000Y-103505000D02*
X139065000Y-103505000D01*
X138430000Y-102870000D02*
X135890000Y-102870000D01*
X139065000Y-103505000D02*
X138430000Y-102870000D01*
X137160000Y-73025000D02*
X120015000Y-73025000D01*
X172085000Y-73025000D02*
X137160000Y-73025000D01*
X119380000Y-73660000D02*
X119380000Y-76835000D01*
X120015000Y-73025000D02*
X119380000Y-73660000D01*
X120650000Y-73660000D02*
X136525000Y-73660000D01*
X190500000Y-73660000D02*
X136525000Y-73660000D01*
X191135000Y-74295000D02*
X190500000Y-73660000D01*
X120015000Y-77470000D02*
X120015000Y-74295000D01*
X120015000Y-74295000D02*
X120650000Y-73660000D01*
X191135000Y-74930000D02*
X191135000Y-74295000D01*
X148590000Y-111125000D02*
X148590000Y-111760000D01*
X148590000Y-111760000D02*
X149225000Y-112395000D01*
X149225000Y-112395000D02*
X155575000Y-112395000D01*
X155575000Y-112395000D02*
X156210000Y-111760000D01*
X156210000Y-111760000D02*
X156210000Y-111125000D01*
X156210000Y-114300000D02*
X141605000Y-114300000D01*
X141605000Y-114300000D02*
X140970000Y-114935000D01*
M02*
