M48
;DRILL file {KiCad 4.0.7} date 12/20/19 19:25:14
;FORMAT={2:4/ absolute / inch / suppress leading zeros}
FMAT,2
INCH,TZ
T1C0.016
T2C0.024
T3C0.030
T4C0.031
T5C0.035
T6C0.039
T7C0.043
T8C0.120
%
G90
G05
M72
T1
X40000Y-51000
X40000Y-52500
X43000Y-51750
X43250Y-51500
X43500Y-51250
X43750Y-51000
X44000Y-50750
X44250Y-50500
X44500Y-50250
X44750Y-50000
X45000Y-49750
X45250Y-49500
X45500Y-49250
X45750Y-49000
X46000Y-48750
X46250Y-48500
X46500Y-48250
X46750Y-30500
X46750Y-48000
X47000Y-30250
X47250Y-30500
X47750Y-35250
X48000Y-35000
X48250Y-37500
X51000Y-46750
X52500Y-37500
X52750Y-38250
X52750Y-41750
X53000Y-35250
X53000Y-36500
X53000Y-38000
X53000Y-42000
X53250Y-39750
X53250Y-41250
X54500Y-49750
X54750Y-45250
X54750Y-45750
X54750Y-47000
X55000Y-55500
X55500Y-45250
X55500Y-56250
X56250Y-31750
X58000Y-48250
X58750Y-48500
X59500Y-48750
X60250Y-49000
X60500Y-28500
X60500Y-46250
X60750Y-35250
X60750Y-42750
X60750Y-46000
X61000Y-34500
X61000Y-37250
X61000Y-46250
X61000Y-49250
X61750Y-35250
X61750Y-49000
X62000Y-37500
X62250Y-34750
X63250Y-48750
X63500Y-31750
X64000Y-34250
X64000Y-37750
X64500Y-34000
X65000Y-35000
X65250Y-38250
X66250Y-51250
X66500Y-51500
X66750Y-34500
X66750Y-37250
X67750Y-28750
X67750Y-34750
X67750Y-37500
X69750Y-34250
X69750Y-37750
X70750Y-31750
X70750Y-35000
X72500Y-34500
X72500Y-37250
X73500Y-37500
X73750Y-34500
X74000Y-51250
X74250Y-51000
X74250Y-52500
X75250Y-50750
X75500Y-37750
X75750Y-48500
X75750Y-49500
X76000Y-48750
X76000Y-49250
T2
X48750Y-45750
X49250Y-45250
X49250Y-46250
X54750Y-30250
X55250Y-29750
X55250Y-30750
X61250Y-41500
X61750Y-41000
X61750Y-42000
X62000Y-30250
X62500Y-29750
X62500Y-30750
X64000Y-41000
X64000Y-42000
X64500Y-41500
X69250Y-30250
X69750Y-29750
X69750Y-30750
T3
X44427Y-53000
X44427Y-54000
X44427Y-55000
X46573Y-53000
X46573Y-54000
X46573Y-55000
X54177Y-53000
X54177Y-54000
X54177Y-55000
X56323Y-53000
X56323Y-54000
X56323Y-55000
T4
X45750Y-33000
X45750Y-34000
X45750Y-35000
X45750Y-36000
X45750Y-37000
X45750Y-38000
X45750Y-39000
X45750Y-40000
X45750Y-41000
X45750Y-42000
X46231Y-31600
X48200Y-31600
X48250Y-52000
X48750Y-33000
X48750Y-34000
X48750Y-35000
X48750Y-36000
X48750Y-37000
X48750Y-38000
X48750Y-39000
X48750Y-40000
X48750Y-41000
X48750Y-42000
X51000Y-33000
X51000Y-34000
X51000Y-35000
X51000Y-36000
X51000Y-37000
X51000Y-38000
X51000Y-39000
X51000Y-40000
X51000Y-41000
X51000Y-42000
X51000Y-43750
X51000Y-47750
X51531Y-31500
X52250Y-52000
X52500Y-43750
X52500Y-47750
X53500Y-31500
X54000Y-33000
X54000Y-34000
X54000Y-35000
X54000Y-36000
X54000Y-37000
X54000Y-38000
X54000Y-39000
X54000Y-40000
X54000Y-41000
X54000Y-42000
X54000Y-43750
X54000Y-47750
X55500Y-33000
X55500Y-34250
X55500Y-35500
X55500Y-36750
X55500Y-38250
X55500Y-39500
X55500Y-40750
X55500Y-42000
X55500Y-43750
X55500Y-47750
X56750Y-29500
X56750Y-31000
X57000Y-43750
X57000Y-47750
X58000Y-52000
X58500Y-43750
X58500Y-47750
X59500Y-33000
X59500Y-34250
X59500Y-35500
X59500Y-36750
X59500Y-38250
X59500Y-39500
X59500Y-40750
X59500Y-42000
X60000Y-43750
X60000Y-47750
X60750Y-29500
X60750Y-31000
X61250Y-33250
X61250Y-39250
X61500Y-43750
X61500Y-45000
X62000Y-52000
X62250Y-33250
X62250Y-39250
X62500Y-46250
X62500Y-48219
X63250Y-33250
X63250Y-39250
X64000Y-29500
X64000Y-31000
X64250Y-33250
X64250Y-39250
X64500Y-43750
X64500Y-45000
X65250Y-33250
X65250Y-39250
X66250Y-41000
X66250Y-45000
X67000Y-33250
X67000Y-39250
X67750Y-41000
X67750Y-45000
X67750Y-52000
X67750Y-56000
X68000Y-29500
X68000Y-31000
X68000Y-33250
X68000Y-39250
X69000Y-33250
X69000Y-39250
X69250Y-41000
X69250Y-45000
X69250Y-52000
X69250Y-56000
X70000Y-33250
X70000Y-39250
X70750Y-41000
X70750Y-45000
X70750Y-52000
X70750Y-56000
X71000Y-33250
X71000Y-39250
X71250Y-29500
X71250Y-31000
X72250Y-41000
X72250Y-45000
X72250Y-52000
X72250Y-56000
X72750Y-33250
X72750Y-39250
X73750Y-33250
X73750Y-39250
X73750Y-41000
X73750Y-45000
X73750Y-52000
X73750Y-56000
X74750Y-33250
X74750Y-39250
X75250Y-29500
X75250Y-31000
X75250Y-41000
X75250Y-45000
X75250Y-52000
X75250Y-56000
X75750Y-33250
X75750Y-39250
X76750Y-33250
X76750Y-39250
X76750Y-41000
X76750Y-45000
T5
X48250Y-54000
X49250Y-54000
X51250Y-54000
X52250Y-54000
X58000Y-54000
X59000Y-54000
X61000Y-54000
X62000Y-54000
T6
X41250Y-33000
X41250Y-34000
X41250Y-35000
X41250Y-36000
X41250Y-37000
X41250Y-38000
X41250Y-39000
X41250Y-40000
X41250Y-41000
X41250Y-42000
X41250Y-43000
X41250Y-44000
X41250Y-45000
X41250Y-46000
X41250Y-47000
X41250Y-48000
X41250Y-49000
X41250Y-50000
X41250Y-51000
X41250Y-52000
X42250Y-33000
X42250Y-34000
X42250Y-35000
X42250Y-36000
X42250Y-37000
X42250Y-38000
X42250Y-39000
X42250Y-40000
X42250Y-41000
X42250Y-42000
X42250Y-43000
X42250Y-44000
X42250Y-45000
X42250Y-46000
X42250Y-47000
X42250Y-48000
X42250Y-49000
X42250Y-50000
X42250Y-51000
X42250Y-52000
T7
X64000Y-52691
X64000Y-55250
X65772Y-52691
X65772Y-55250
T8
X41000Y-29500
X41000Y-55250
X77000Y-29500
X77000Y-55250
T6
X67500Y-47098G85X67500Y-46902
G05
X67500Y-50098G85X67500Y-49902
G05
X68500Y-47098G85X68500Y-46902
G05
X68500Y-50098G85X68500Y-49902
G05
X69500Y-47098G85X69500Y-46902
G05
X69500Y-50098G85X69500Y-49902
G05
X70500Y-47098G85X70500Y-46902
G05
X70500Y-50098G85X70500Y-49902
G05
X71500Y-47098G85X71500Y-46902
G05
X71500Y-50098G85X71500Y-49902
G05
X72500Y-47098G85X72500Y-46902
G05
X72500Y-50098G85X72500Y-49902
G05
X73500Y-47098G85X73500Y-46902
G05
X73500Y-50098G85X73500Y-49902
G05
X74500Y-47098G85X74500Y-46902
G05
X74500Y-50098G85X74500Y-49902
G05
T0
M30
