G04 #@! TF.FileFunction,Soldermask,Bot*
%FSLAX46Y46*%
G04 Gerber Fmt 4.6, Leading zero omitted, Abs format (unit mm)*
G04 Created by KiCad (PCBNEW 4.0.7) date 01/07/20 16:11:13*
%MOMM*%
%LPD*%
G01*
G04 APERTURE LIST*
%ADD10C,0.100000*%
%ADD11R,2.100000X2.100000*%
%ADD12O,2.100000X2.100000*%
%ADD13C,5.400000*%
%ADD14C,2.000000*%
%ADD15O,1.924000X2.924000*%
%ADD16R,2.200000X2.200000*%
%ADD17C,2.200000*%
%ADD18C,1.400000*%
%ADD19R,1.400000X1.400000*%
%ADD20O,2.000000X2.000000*%
%ADD21C,2.400000*%
%ADD22R,2.000000X2.000000*%
%ADD23C,1.924000*%
%ADD24R,1.924000X1.924000*%
%ADD25R,2.200000X3.400000*%
%ADD26O,2.200000X3.400000*%
G04 APERTURE END LIST*
D10*
D11*
X107315000Y-132080000D03*
D12*
X104775000Y-132080000D03*
X107315000Y-129540000D03*
X104775000Y-129540000D03*
X107315000Y-127000000D03*
X104775000Y-127000000D03*
X107315000Y-124460000D03*
X104775000Y-124460000D03*
X107315000Y-121920000D03*
X104775000Y-121920000D03*
X107315000Y-119380000D03*
X104775000Y-119380000D03*
X107315000Y-116840000D03*
X104775000Y-116840000D03*
X107315000Y-114300000D03*
X104775000Y-114300000D03*
X107315000Y-111760000D03*
X104775000Y-111760000D03*
X107315000Y-109220000D03*
X104775000Y-109220000D03*
X107315000Y-106680000D03*
X104775000Y-106680000D03*
X107315000Y-104140000D03*
X104775000Y-104140000D03*
X107315000Y-101600000D03*
X104775000Y-101600000D03*
X107315000Y-99060000D03*
X104775000Y-99060000D03*
X107315000Y-96520000D03*
X104775000Y-96520000D03*
X107315000Y-93980000D03*
X104775000Y-93980000D03*
X107315000Y-91440000D03*
X104775000Y-91440000D03*
X107315000Y-88900000D03*
X104775000Y-88900000D03*
X107315000Y-86360000D03*
X104775000Y-86360000D03*
X107315000Y-83820000D03*
X104775000Y-83820000D03*
D13*
X104140000Y-140335000D03*
X195580000Y-140335000D03*
X195580000Y-74930000D03*
X104140000Y-74930000D03*
D14*
X135890000Y-80010000D03*
X130890000Y-80010000D03*
X122428000Y-80264000D03*
X117428000Y-80264000D03*
X158750000Y-117475000D03*
X158750000Y-122475000D03*
D15*
X155575000Y-99695000D03*
X158115000Y-99695000D03*
X160655000Y-99695000D03*
X163195000Y-99695000D03*
X165735000Y-99695000D03*
X165735000Y-84455000D03*
X163195000Y-84455000D03*
X160655000Y-84455000D03*
X158115000Y-84455000D03*
X155575000Y-84455000D03*
X170180000Y-99695000D03*
X172720000Y-99695000D03*
X175260000Y-99695000D03*
X177800000Y-99695000D03*
X180340000Y-99695000D03*
X180340000Y-84455000D03*
X177800000Y-84455000D03*
X175260000Y-84455000D03*
X172720000Y-84455000D03*
X170180000Y-84455000D03*
D16*
X154940000Y-137160000D03*
D17*
X157480000Y-137160000D03*
D18*
X139065000Y-76835000D03*
X140335000Y-75565000D03*
D19*
X140335000Y-78105000D03*
D18*
X157480000Y-76835000D03*
X158750000Y-75565000D03*
D19*
X158750000Y-78105000D03*
D18*
X175895000Y-76835000D03*
X177165000Y-75565000D03*
D19*
X177165000Y-78105000D03*
D18*
X123825000Y-116205000D03*
X125095000Y-114935000D03*
D19*
X125095000Y-117475000D03*
D18*
X155575000Y-105410000D03*
X156845000Y-104140000D03*
D19*
X156845000Y-106680000D03*
D14*
X151130000Y-86995000D03*
D20*
X140970000Y-86995000D03*
D14*
X151130000Y-90170000D03*
D20*
X140970000Y-90170000D03*
D14*
X151130000Y-100330000D03*
D20*
X140970000Y-100330000D03*
D14*
X151130000Y-103505000D03*
D20*
X140970000Y-103505000D03*
D14*
X151130000Y-106680000D03*
D20*
X140970000Y-106680000D03*
D14*
X151130000Y-97155000D03*
D20*
X140970000Y-97155000D03*
D14*
X151130000Y-93345000D03*
D20*
X140970000Y-93345000D03*
D14*
X151130000Y-83820000D03*
D20*
X140970000Y-83820000D03*
D14*
X172720000Y-78740000D03*
D20*
X162560000Y-78740000D03*
D14*
X172720000Y-74930000D03*
D20*
X162560000Y-74930000D03*
D14*
X191135000Y-78740000D03*
D20*
X180975000Y-78740000D03*
D14*
X191135000Y-74930000D03*
D20*
X180975000Y-74930000D03*
D14*
X172085000Y-132080000D03*
D20*
X172085000Y-142240000D03*
D14*
X175895000Y-132080000D03*
D20*
X175895000Y-142240000D03*
D14*
X179705000Y-132080000D03*
D20*
X179705000Y-142240000D03*
D14*
X183515000Y-132080000D03*
D20*
X183515000Y-142240000D03*
D14*
X187325000Y-132080000D03*
D20*
X187325000Y-142240000D03*
D14*
X191135000Y-132080000D03*
D20*
X191135000Y-142240000D03*
D14*
X168275000Y-104140000D03*
D20*
X168275000Y-114300000D03*
D14*
X172085000Y-104140000D03*
D20*
X172085000Y-114300000D03*
D14*
X175895000Y-104140000D03*
D20*
X175895000Y-114300000D03*
D14*
X179705000Y-104140000D03*
D20*
X179705000Y-114300000D03*
D14*
X183515000Y-104140000D03*
D20*
X183515000Y-114300000D03*
D14*
X187325000Y-104140000D03*
D20*
X187325000Y-114300000D03*
D14*
X191135000Y-104140000D03*
D20*
X191135000Y-114300000D03*
D14*
X194945000Y-114300000D03*
D20*
X194945000Y-104140000D03*
D21*
X167060000Y-140335000D03*
X162560000Y-140335000D03*
X167060000Y-133835000D03*
X162560000Y-133835000D03*
D22*
X129540000Y-83820000D03*
D20*
X137160000Y-106680000D03*
X129540000Y-86360000D03*
X137160000Y-104140000D03*
X129540000Y-88900000D03*
X137160000Y-101600000D03*
X129540000Y-91440000D03*
X137160000Y-99060000D03*
X129540000Y-93980000D03*
X137160000Y-96520000D03*
X129540000Y-96520000D03*
X137160000Y-93980000D03*
X129540000Y-99060000D03*
X137160000Y-91440000D03*
X129540000Y-101600000D03*
X137160000Y-88900000D03*
X129540000Y-104140000D03*
X137160000Y-86360000D03*
X129540000Y-106680000D03*
X137160000Y-83820000D03*
D14*
X154305000Y-78740000D03*
D20*
X144145000Y-78740000D03*
D14*
X154305000Y-74930000D03*
D20*
X144145000Y-74930000D03*
D14*
X147320000Y-132080000D03*
D20*
X157480000Y-132080000D03*
D14*
X122555000Y-132080000D03*
D20*
X132715000Y-132080000D03*
D15*
X184785000Y-99695000D03*
X187325000Y-99695000D03*
X189865000Y-99695000D03*
X192405000Y-99695000D03*
X194945000Y-99695000D03*
X194945000Y-84455000D03*
X192405000Y-84455000D03*
X189865000Y-84455000D03*
X187325000Y-84455000D03*
X184785000Y-84455000D03*
D18*
X163830000Y-105410000D03*
X162560000Y-106680000D03*
D19*
X162560000Y-104140000D03*
D14*
X137160000Y-111125000D03*
D20*
X137160000Y-121285000D03*
D14*
X129540000Y-111125000D03*
D20*
X129540000Y-121285000D03*
D14*
X133350000Y-111125000D03*
D20*
X133350000Y-121285000D03*
D14*
X148590000Y-121285000D03*
D20*
X148590000Y-111125000D03*
D14*
X140970000Y-121285000D03*
D20*
X140970000Y-111125000D03*
D14*
X152400000Y-111125000D03*
D20*
X152400000Y-121285000D03*
D14*
X144780000Y-121285000D03*
D20*
X144780000Y-111125000D03*
D23*
X137610000Y-134620000D03*
X137610000Y-137160000D03*
D24*
X137610000Y-139700000D03*
D23*
X143060000Y-139700000D03*
X143060000Y-137160000D03*
X143060000Y-134620000D03*
X112845000Y-134620000D03*
X112845000Y-137160000D03*
D24*
X112845000Y-139700000D03*
D23*
X118295000Y-139700000D03*
X118295000Y-137160000D03*
X118295000Y-134620000D03*
D22*
X116205000Y-83820000D03*
D20*
X123825000Y-106680000D03*
X116205000Y-86360000D03*
X123825000Y-104140000D03*
X116205000Y-88900000D03*
X123825000Y-101600000D03*
X116205000Y-91440000D03*
X123825000Y-99060000D03*
X116205000Y-93980000D03*
X123825000Y-96520000D03*
X116205000Y-96520000D03*
X123825000Y-93980000D03*
X116205000Y-99060000D03*
X123825000Y-91440000D03*
X116205000Y-101600000D03*
X123825000Y-88900000D03*
X116205000Y-104140000D03*
X123825000Y-86360000D03*
X116205000Y-106680000D03*
X123825000Y-83820000D03*
D16*
X147320000Y-137160000D03*
D17*
X149860000Y-137160000D03*
D16*
X130175000Y-137160000D03*
D17*
X132715000Y-137160000D03*
D16*
X122555000Y-137160000D03*
D17*
X125095000Y-137160000D03*
D22*
X163830000Y-111125000D03*
D20*
X156210000Y-111125000D03*
D22*
X156210000Y-114300000D03*
D20*
X163830000Y-114300000D03*
D25*
X171450000Y-127000000D03*
D26*
X189230000Y-119380000D03*
X173990000Y-127000000D03*
X186690000Y-119380000D03*
X176530000Y-127000000D03*
X184150000Y-119380000D03*
X179070000Y-127000000D03*
X181610000Y-119380000D03*
X181610000Y-127000000D03*
X179070000Y-119380000D03*
X184150000Y-127000000D03*
X176530000Y-119380000D03*
X186690000Y-127000000D03*
X173990000Y-119380000D03*
X189230000Y-127000000D03*
X171450000Y-119380000D03*
M02*
