G04 #@! TF.FileFunction,Legend,Bot*
%FSLAX46Y46*%
G04 Gerber Fmt 4.6, Leading zero omitted, Abs format (unit mm)*
G04 Created by KiCad (PCBNEW 4.0.7) date 01/07/20 16:11:13*
%MOMM*%
%LPD*%
G01*
G04 APERTURE LIST*
%ADD10C,0.100000*%
%ADD11C,0.150000*%
%ADD12C,0.200000*%
G04 APERTURE END LIST*
D10*
D11*
X184911428Y-122817381D02*
X185482857Y-122817381D01*
X185197143Y-122817381D02*
X185197143Y-121817381D01*
X185292381Y-121960238D01*
X185387619Y-122055476D01*
X185482857Y-122103095D01*
X184054285Y-121817381D02*
X184244762Y-121817381D01*
X184340000Y-121865000D01*
X184387619Y-121912619D01*
X184482857Y-122055476D01*
X184530476Y-122245952D01*
X184530476Y-122626905D01*
X184482857Y-122722143D01*
X184435238Y-122769762D01*
X184340000Y-122817381D01*
X184149523Y-122817381D01*
X184054285Y-122769762D01*
X184006666Y-122722143D01*
X183959047Y-122626905D01*
X183959047Y-122388810D01*
X184006666Y-122293571D01*
X184054285Y-122245952D01*
X184149523Y-122198333D01*
X184340000Y-122198333D01*
X184435238Y-122245952D01*
X184482857Y-122293571D01*
X184530476Y-122388810D01*
X182578095Y-121817381D02*
X182387618Y-121817381D01*
X182292380Y-121865000D01*
X182197142Y-121960238D01*
X182149523Y-122150714D01*
X182149523Y-122484048D01*
X182197142Y-122674524D01*
X182292380Y-122769762D01*
X182387618Y-122817381D01*
X182578095Y-122817381D01*
X182673333Y-122769762D01*
X182768571Y-122674524D01*
X182816190Y-122484048D01*
X182816190Y-122150714D01*
X182768571Y-121960238D01*
X182673333Y-121865000D01*
X182578095Y-121817381D01*
X181149523Y-122817381D02*
X181482857Y-122341190D01*
X181720952Y-122817381D02*
X181720952Y-121817381D01*
X181339999Y-121817381D01*
X181244761Y-121865000D01*
X181197142Y-121912619D01*
X181149523Y-122007857D01*
X181149523Y-122150714D01*
X181197142Y-122245952D01*
X181244761Y-122293571D01*
X181339999Y-122341190D01*
X181720952Y-122341190D01*
X179435237Y-122817381D02*
X180006666Y-122817381D01*
X179720952Y-122817381D02*
X179720952Y-121817381D01*
X179816190Y-121960238D01*
X179911428Y-122055476D01*
X180006666Y-122103095D01*
X178578094Y-122150714D02*
X178578094Y-122817381D01*
X178816190Y-121769762D02*
X179054285Y-122484048D01*
X178435237Y-122484048D01*
X177292380Y-122817381D02*
X177292380Y-121817381D01*
X176911427Y-121817381D01*
X176816189Y-121865000D01*
X176768570Y-121912619D01*
X176720951Y-122007857D01*
X176720951Y-122150714D01*
X176768570Y-122245952D01*
X176816189Y-122293571D01*
X176911427Y-122341190D01*
X177292380Y-122341190D01*
X176292380Y-122817381D02*
X176292380Y-121817381D01*
X175816190Y-122817381D02*
X175816190Y-121817381D01*
X175244761Y-122817381D01*
X175244761Y-121817381D01*
X186482858Y-124467381D02*
X186482858Y-123467381D01*
X185435239Y-124372143D02*
X185482858Y-124419762D01*
X185625715Y-124467381D01*
X185720953Y-124467381D01*
X185863811Y-124419762D01*
X185959049Y-124324524D01*
X186006668Y-124229286D01*
X186054287Y-124038810D01*
X186054287Y-123895952D01*
X186006668Y-123705476D01*
X185959049Y-123610238D01*
X185863811Y-123515000D01*
X185720953Y-123467381D01*
X185625715Y-123467381D01*
X185482858Y-123515000D01*
X185435239Y-123562619D01*
X184387620Y-123467381D02*
X183816191Y-123467381D01*
X184101906Y-124467381D02*
X184101906Y-123467381D01*
X183292382Y-123467381D02*
X183101905Y-123467381D01*
X183006667Y-123515000D01*
X182911429Y-123610238D01*
X182863810Y-123800714D01*
X182863810Y-124134048D01*
X182911429Y-124324524D01*
X183006667Y-124419762D01*
X183101905Y-124467381D01*
X183292382Y-124467381D01*
X183387620Y-124419762D01*
X183482858Y-124324524D01*
X183530477Y-124134048D01*
X183530477Y-123800714D01*
X183482858Y-123610238D01*
X183387620Y-123515000D01*
X183292382Y-123467381D01*
X181340000Y-123943571D02*
X181197143Y-123991190D01*
X181149524Y-124038810D01*
X181101905Y-124134048D01*
X181101905Y-124276905D01*
X181149524Y-124372143D01*
X181197143Y-124419762D01*
X181292381Y-124467381D01*
X181673334Y-124467381D01*
X181673334Y-123467381D01*
X181340000Y-123467381D01*
X181244762Y-123515000D01*
X181197143Y-123562619D01*
X181149524Y-123657857D01*
X181149524Y-123753095D01*
X181197143Y-123848333D01*
X181244762Y-123895952D01*
X181340000Y-123943571D01*
X181673334Y-123943571D01*
X180673334Y-123943571D02*
X180340000Y-123943571D01*
X180197143Y-124467381D02*
X180673334Y-124467381D01*
X180673334Y-123467381D01*
X180197143Y-123467381D01*
X179149524Y-123467381D02*
X178578095Y-123467381D01*
X178863810Y-124467381D02*
X178863810Y-123467381D01*
X178244762Y-123943571D02*
X177911428Y-123943571D01*
X177768571Y-124467381D02*
X178244762Y-124467381D01*
X178244762Y-123467381D01*
X177768571Y-123467381D01*
X177387619Y-124419762D02*
X177244762Y-124467381D01*
X177006666Y-124467381D01*
X176911428Y-124419762D01*
X176863809Y-124372143D01*
X176816190Y-124276905D01*
X176816190Y-124181667D01*
X176863809Y-124086429D01*
X176911428Y-124038810D01*
X177006666Y-123991190D01*
X177197143Y-123943571D01*
X177292381Y-123895952D01*
X177340000Y-123848333D01*
X177387619Y-123753095D01*
X177387619Y-123657857D01*
X177340000Y-123562619D01*
X177292381Y-123515000D01*
X177197143Y-123467381D01*
X176959047Y-123467381D01*
X176816190Y-123515000D01*
X176530476Y-123467381D02*
X175959047Y-123467381D01*
X176244762Y-124467381D02*
X176244762Y-123467381D01*
X175625714Y-123943571D02*
X175292380Y-123943571D01*
X175149523Y-124467381D02*
X175625714Y-124467381D01*
X175625714Y-123467381D01*
X175149523Y-123467381D01*
X174720952Y-124467381D02*
X174720952Y-123467381D01*
X174482857Y-123467381D01*
X174339999Y-123515000D01*
X174244761Y-123610238D01*
X174197142Y-123705476D01*
X174149523Y-123895952D01*
X174149523Y-124038810D01*
X174197142Y-124229286D01*
X174244761Y-124324524D01*
X174339999Y-124419762D01*
X174482857Y-124467381D01*
X174720952Y-124467381D01*
D12*
X191135000Y-127000000D02*
X189865000Y-127000000D01*
X191135000Y-119380000D02*
X191135000Y-127000000D01*
X189865000Y-119380000D02*
X191135000Y-119380000D01*
X169545000Y-127000000D02*
X170815000Y-127000000D01*
X169545000Y-119380000D02*
X169545000Y-127000000D01*
X170815000Y-119380000D02*
X169545000Y-119380000D01*
D11*
X122205476Y-107084762D02*
X122062619Y-107132381D01*
X121824523Y-107132381D01*
X121729285Y-107084762D01*
X121681666Y-107037143D01*
X121634047Y-106941905D01*
X121634047Y-106846667D01*
X121681666Y-106751429D01*
X121729285Y-106703810D01*
X121824523Y-106656190D01*
X122015000Y-106608571D01*
X122110238Y-106560952D01*
X122157857Y-106513333D01*
X122205476Y-106418095D01*
X122205476Y-106322857D01*
X122157857Y-106227619D01*
X122110238Y-106180000D01*
X122015000Y-106132381D01*
X121776904Y-106132381D01*
X121634047Y-106180000D01*
X121919762Y-105989524D02*
X121919762Y-107275238D01*
X121253095Y-106227619D02*
X121205476Y-106180000D01*
X121110238Y-106132381D01*
X120872142Y-106132381D01*
X120776904Y-106180000D01*
X120729285Y-106227619D01*
X120681666Y-106322857D01*
X120681666Y-106418095D01*
X120729285Y-106560952D01*
X121300714Y-107132381D01*
X120681666Y-107132381D01*
X119824523Y-106465714D02*
X119824523Y-107132381D01*
X120062619Y-106084762D02*
X120300714Y-106799048D01*
X119681666Y-106799048D01*
X119110238Y-106132381D02*
X119014999Y-106132381D01*
X118919761Y-106180000D01*
X118872142Y-106227619D01*
X118824523Y-106322857D01*
X118776904Y-106513333D01*
X118776904Y-106751429D01*
X118824523Y-106941905D01*
X118872142Y-107037143D01*
X118919761Y-107084762D01*
X119014999Y-107132381D01*
X119110238Y-107132381D01*
X119205476Y-107084762D01*
X119253095Y-107037143D01*
X119300714Y-106941905D01*
X119348333Y-106751429D01*
X119348333Y-106513333D01*
X119300714Y-106322857D01*
X119253095Y-106227619D01*
X119205476Y-106180000D01*
X119110238Y-106132381D01*
X118157857Y-106132381D02*
X118062618Y-106132381D01*
X117967380Y-106180000D01*
X117919761Y-106227619D01*
X117872142Y-106322857D01*
X117824523Y-106513333D01*
X117824523Y-106751429D01*
X117872142Y-106941905D01*
X117919761Y-107037143D01*
X117967380Y-107084762D01*
X118062618Y-107132381D01*
X118157857Y-107132381D01*
X118253095Y-107084762D01*
X118300714Y-107037143D01*
X118348333Y-106941905D01*
X118395952Y-106751429D01*
X118395952Y-106513333D01*
X118348333Y-106322857D01*
X118300714Y-106227619D01*
X118253095Y-106180000D01*
X118157857Y-106132381D01*
X135540476Y-107084762D02*
X135397619Y-107132381D01*
X135159523Y-107132381D01*
X135064285Y-107084762D01*
X135016666Y-107037143D01*
X134969047Y-106941905D01*
X134969047Y-106846667D01*
X135016666Y-106751429D01*
X135064285Y-106703810D01*
X135159523Y-106656190D01*
X135350000Y-106608571D01*
X135445238Y-106560952D01*
X135492857Y-106513333D01*
X135540476Y-106418095D01*
X135540476Y-106322857D01*
X135492857Y-106227619D01*
X135445238Y-106180000D01*
X135350000Y-106132381D01*
X135111904Y-106132381D01*
X134969047Y-106180000D01*
X135254762Y-105989524D02*
X135254762Y-107275238D01*
X134588095Y-106227619D02*
X134540476Y-106180000D01*
X134445238Y-106132381D01*
X134207142Y-106132381D01*
X134111904Y-106180000D01*
X134064285Y-106227619D01*
X134016666Y-106322857D01*
X134016666Y-106418095D01*
X134064285Y-106560952D01*
X134635714Y-107132381D01*
X134016666Y-107132381D01*
X133397619Y-106132381D02*
X133302380Y-106132381D01*
X133207142Y-106180000D01*
X133159523Y-106227619D01*
X133111904Y-106322857D01*
X133064285Y-106513333D01*
X133064285Y-106751429D01*
X133111904Y-106941905D01*
X133159523Y-107037143D01*
X133207142Y-107084762D01*
X133302380Y-107132381D01*
X133397619Y-107132381D01*
X133492857Y-107084762D01*
X133540476Y-107037143D01*
X133588095Y-106941905D01*
X133635714Y-106751429D01*
X133635714Y-106513333D01*
X133588095Y-106322857D01*
X133540476Y-106227619D01*
X133492857Y-106180000D01*
X133397619Y-106132381D01*
X132445238Y-106132381D02*
X132349999Y-106132381D01*
X132254761Y-106180000D01*
X132207142Y-106227619D01*
X132159523Y-106322857D01*
X132111904Y-106513333D01*
X132111904Y-106751429D01*
X132159523Y-106941905D01*
X132207142Y-107037143D01*
X132254761Y-107084762D01*
X132349999Y-107132381D01*
X132445238Y-107132381D01*
X132540476Y-107084762D01*
X132588095Y-107037143D01*
X132635714Y-106941905D01*
X132683333Y-106751429D01*
X132683333Y-106513333D01*
X132635714Y-106322857D01*
X132588095Y-106227619D01*
X132540476Y-106180000D01*
X132445238Y-106132381D01*
X131492857Y-106132381D02*
X131397618Y-106132381D01*
X131302380Y-106180000D01*
X131254761Y-106227619D01*
X131207142Y-106322857D01*
X131159523Y-106513333D01*
X131159523Y-106751429D01*
X131207142Y-106941905D01*
X131254761Y-107037143D01*
X131302380Y-107084762D01*
X131397618Y-107132381D01*
X131492857Y-107132381D01*
X131588095Y-107084762D01*
X131635714Y-107037143D01*
X131683333Y-106941905D01*
X131730952Y-106751429D01*
X131730952Y-106513333D01*
X131683333Y-106322857D01*
X131635714Y-106227619D01*
X131588095Y-106180000D01*
X131492857Y-106132381D01*
D12*
X196850000Y-81915000D02*
X182245000Y-81915000D01*
X196850000Y-102235000D02*
X196850000Y-81915000D01*
X154305000Y-102235000D02*
X196850000Y-102235000D01*
X154305000Y-81915000D02*
X154305000Y-102235000D01*
X168275000Y-81915000D02*
X154305000Y-81915000D01*
D10*
X122205476Y-94961905D02*
X122205476Y-94161905D01*
X122015000Y-94161905D01*
X121900714Y-94200000D01*
X121824523Y-94276190D01*
X121786428Y-94352381D01*
X121748333Y-94504762D01*
X121748333Y-94619048D01*
X121786428Y-94771429D01*
X121824523Y-94847619D01*
X121900714Y-94923810D01*
X122015000Y-94961905D01*
X122205476Y-94961905D01*
X121405476Y-94961905D02*
X121405476Y-94161905D01*
X121062619Y-94923810D02*
X120948333Y-94961905D01*
X120757857Y-94961905D01*
X120681667Y-94923810D01*
X120643571Y-94885714D01*
X120605476Y-94809524D01*
X120605476Y-94733333D01*
X120643571Y-94657143D01*
X120681667Y-94619048D01*
X120757857Y-94580952D01*
X120910238Y-94542857D01*
X120986429Y-94504762D01*
X121024524Y-94466667D01*
X121062619Y-94390476D01*
X121062619Y-94314286D01*
X121024524Y-94238095D01*
X120986429Y-94200000D01*
X120910238Y-94161905D01*
X120719762Y-94161905D01*
X120605476Y-94200000D01*
X120262619Y-94961905D02*
X120262619Y-94161905D01*
X119957857Y-94161905D01*
X119881666Y-94200000D01*
X119843571Y-94238095D01*
X119805476Y-94314286D01*
X119805476Y-94428571D01*
X119843571Y-94504762D01*
X119881666Y-94542857D01*
X119957857Y-94580952D01*
X120262619Y-94580952D01*
X119081666Y-94961905D02*
X119462619Y-94961905D01*
X119462619Y-94161905D01*
X118853095Y-94733333D02*
X118472143Y-94733333D01*
X118929286Y-94961905D02*
X118662619Y-94161905D01*
X118395952Y-94961905D01*
X117976905Y-94580952D02*
X117976905Y-94961905D01*
X118243572Y-94161905D02*
X117976905Y-94580952D01*
X117710238Y-94161905D01*
X122053095Y-96185714D02*
X122091190Y-96223810D01*
X122205476Y-96261905D01*
X122281666Y-96261905D01*
X122395952Y-96223810D01*
X122472143Y-96147619D01*
X122510238Y-96071429D01*
X122548333Y-95919048D01*
X122548333Y-95804762D01*
X122510238Y-95652381D01*
X122472143Y-95576190D01*
X122395952Y-95500000D01*
X122281666Y-95461905D01*
X122205476Y-95461905D01*
X122091190Y-95500000D01*
X122053095Y-95538095D01*
X121557857Y-95461905D02*
X121405476Y-95461905D01*
X121329285Y-95500000D01*
X121253095Y-95576190D01*
X121215000Y-95728571D01*
X121215000Y-95995238D01*
X121253095Y-96147619D01*
X121329285Y-96223810D01*
X121405476Y-96261905D01*
X121557857Y-96261905D01*
X121634047Y-96223810D01*
X121710238Y-96147619D01*
X121748333Y-95995238D01*
X121748333Y-95728571D01*
X121710238Y-95576190D01*
X121634047Y-95500000D01*
X121557857Y-95461905D01*
X120872143Y-96261905D02*
X120872143Y-95461905D01*
X120415000Y-96261905D01*
X120415000Y-95461905D01*
X120148334Y-95461905D02*
X119691191Y-95461905D01*
X119919762Y-96261905D02*
X119919762Y-95461905D01*
X118967381Y-96261905D02*
X119234048Y-95880952D01*
X119424524Y-96261905D02*
X119424524Y-95461905D01*
X119119762Y-95461905D01*
X119043571Y-95500000D01*
X119005476Y-95538095D01*
X118967381Y-95614286D01*
X118967381Y-95728571D01*
X119005476Y-95804762D01*
X119043571Y-95842857D01*
X119119762Y-95880952D01*
X119424524Y-95880952D01*
X118472143Y-95461905D02*
X118319762Y-95461905D01*
X118243571Y-95500000D01*
X118167381Y-95576190D01*
X118129286Y-95728571D01*
X118129286Y-95995238D01*
X118167381Y-96147619D01*
X118243571Y-96223810D01*
X118319762Y-96261905D01*
X118472143Y-96261905D01*
X118548333Y-96223810D01*
X118624524Y-96147619D01*
X118662619Y-95995238D01*
X118662619Y-95728571D01*
X118624524Y-95576190D01*
X118548333Y-95500000D01*
X118472143Y-95461905D01*
X117405476Y-96261905D02*
X117786429Y-96261905D01*
X117786429Y-95461905D01*
D12*
X137160000Y-81915000D02*
X137160000Y-83185000D01*
X129540000Y-81915000D02*
X137160000Y-81915000D01*
X129540000Y-83185000D02*
X129540000Y-81915000D01*
X123825000Y-81915000D02*
X123825000Y-83185000D01*
X116205000Y-81915000D02*
X123825000Y-81915000D01*
X116205000Y-83185000D02*
X116205000Y-81915000D01*
X137160000Y-108585000D02*
X137160000Y-107315000D01*
X129540000Y-108585000D02*
X137160000Y-108585000D01*
X129540000Y-107315000D02*
X129540000Y-108585000D01*
X123825000Y-108585000D02*
X123825000Y-107315000D01*
X116205000Y-108585000D02*
X123825000Y-108585000D01*
X116205000Y-107315000D02*
X116205000Y-108585000D01*
D10*
X181583810Y-81476905D02*
X181050477Y-81476905D01*
X181393334Y-82276905D01*
X180174286Y-82238810D02*
X180060000Y-82276905D01*
X179869524Y-82276905D01*
X179793334Y-82238810D01*
X179755238Y-82200714D01*
X179717143Y-82124524D01*
X179717143Y-82048333D01*
X179755238Y-81972143D01*
X179793334Y-81934048D01*
X179869524Y-81895952D01*
X180021905Y-81857857D01*
X180098096Y-81819762D01*
X180136191Y-81781667D01*
X180174286Y-81705476D01*
X180174286Y-81629286D01*
X180136191Y-81553095D01*
X180098096Y-81515000D01*
X180021905Y-81476905D01*
X179831429Y-81476905D01*
X179717143Y-81515000D01*
X179374286Y-81857857D02*
X179107619Y-81857857D01*
X178993333Y-82276905D02*
X179374286Y-82276905D01*
X179374286Y-81476905D01*
X178993333Y-81476905D01*
X178231428Y-81515000D02*
X178307619Y-81476905D01*
X178421904Y-81476905D01*
X178536190Y-81515000D01*
X178612381Y-81591190D01*
X178650476Y-81667381D01*
X178688571Y-81819762D01*
X178688571Y-81934048D01*
X178650476Y-82086429D01*
X178612381Y-82162619D01*
X178536190Y-82238810D01*
X178421904Y-82276905D01*
X178345714Y-82276905D01*
X178231428Y-82238810D01*
X178193333Y-82200714D01*
X178193333Y-81934048D01*
X178345714Y-81934048D01*
X177850476Y-82276905D02*
X177850476Y-81476905D01*
X177583809Y-82048333D01*
X177317142Y-81476905D01*
X177317142Y-82276905D01*
X176936190Y-81857857D02*
X176669523Y-81857857D01*
X176555237Y-82276905D02*
X176936190Y-82276905D01*
X176936190Y-81476905D01*
X176555237Y-81476905D01*
X176212380Y-82276905D02*
X176212380Y-81476905D01*
X175755237Y-82276905D01*
X175755237Y-81476905D01*
X175488571Y-81476905D02*
X175031428Y-81476905D01*
X175259999Y-82276905D02*
X175259999Y-81476905D01*
X174155237Y-82276905D02*
X174155237Y-81476905D01*
X173964761Y-81476905D01*
X173850475Y-81515000D01*
X173774284Y-81591190D01*
X173736189Y-81667381D01*
X173698094Y-81819762D01*
X173698094Y-81934048D01*
X173736189Y-82086429D01*
X173774284Y-82162619D01*
X173850475Y-82238810D01*
X173964761Y-82276905D01*
X174155237Y-82276905D01*
X173355237Y-82276905D02*
X173355237Y-81476905D01*
X173012380Y-82238810D02*
X172898094Y-82276905D01*
X172707618Y-82276905D01*
X172631428Y-82238810D01*
X172593332Y-82200714D01*
X172555237Y-82124524D01*
X172555237Y-82048333D01*
X172593332Y-81972143D01*
X172631428Y-81934048D01*
X172707618Y-81895952D01*
X172859999Y-81857857D01*
X172936190Y-81819762D01*
X172974285Y-81781667D01*
X173012380Y-81705476D01*
X173012380Y-81629286D01*
X172974285Y-81553095D01*
X172936190Y-81515000D01*
X172859999Y-81476905D01*
X172669523Y-81476905D01*
X172555237Y-81515000D01*
X172212380Y-82276905D02*
X172212380Y-81476905D01*
X171907618Y-81476905D01*
X171831427Y-81515000D01*
X171793332Y-81553095D01*
X171755237Y-81629286D01*
X171755237Y-81743571D01*
X171793332Y-81819762D01*
X171831427Y-81857857D01*
X171907618Y-81895952D01*
X172212380Y-81895952D01*
X171031427Y-82276905D02*
X171412380Y-82276905D01*
X171412380Y-81476905D01*
X170802856Y-82048333D02*
X170421904Y-82048333D01*
X170879047Y-82276905D02*
X170612380Y-81476905D01*
X170345713Y-82276905D01*
X169926666Y-81895952D02*
X169926666Y-82276905D01*
X170193333Y-81476905D02*
X169926666Y-81895952D01*
X169659999Y-81476905D01*
X169431428Y-82238810D02*
X169317142Y-82276905D01*
X169126666Y-82276905D01*
X169050476Y-82238810D01*
X169012380Y-82200714D01*
X168974285Y-82124524D01*
X168974285Y-82048333D01*
X169012380Y-81972143D01*
X169050476Y-81934048D01*
X169126666Y-81895952D01*
X169279047Y-81857857D01*
X169355238Y-81819762D01*
X169393333Y-81781667D01*
X169431428Y-81705476D01*
X169431428Y-81629286D01*
X169393333Y-81553095D01*
X169355238Y-81515000D01*
X169279047Y-81476905D01*
X169088571Y-81476905D01*
X168974285Y-81515000D01*
X135883334Y-94923810D02*
X135769048Y-94961905D01*
X135578572Y-94961905D01*
X135502382Y-94923810D01*
X135464286Y-94885714D01*
X135426191Y-94809524D01*
X135426191Y-94733333D01*
X135464286Y-94657143D01*
X135502382Y-94619048D01*
X135578572Y-94580952D01*
X135730953Y-94542857D01*
X135807144Y-94504762D01*
X135845239Y-94466667D01*
X135883334Y-94390476D01*
X135883334Y-94314286D01*
X135845239Y-94238095D01*
X135807144Y-94200000D01*
X135730953Y-94161905D01*
X135540477Y-94161905D01*
X135426191Y-94200000D01*
X135083334Y-94542857D02*
X134816667Y-94542857D01*
X134702381Y-94961905D02*
X135083334Y-94961905D01*
X135083334Y-94161905D01*
X134702381Y-94161905D01*
X133940476Y-94200000D02*
X134016667Y-94161905D01*
X134130952Y-94161905D01*
X134245238Y-94200000D01*
X134321429Y-94276190D01*
X134359524Y-94352381D01*
X134397619Y-94504762D01*
X134397619Y-94619048D01*
X134359524Y-94771429D01*
X134321429Y-94847619D01*
X134245238Y-94923810D01*
X134130952Y-94961905D01*
X134054762Y-94961905D01*
X133940476Y-94923810D01*
X133902381Y-94885714D01*
X133902381Y-94619048D01*
X134054762Y-94619048D01*
X133559524Y-94961905D02*
X133559524Y-94161905D01*
X133292857Y-94733333D01*
X133026190Y-94161905D01*
X133026190Y-94961905D01*
X132645238Y-94542857D02*
X132378571Y-94542857D01*
X132264285Y-94961905D02*
X132645238Y-94961905D01*
X132645238Y-94161905D01*
X132264285Y-94161905D01*
X131921428Y-94961905D02*
X131921428Y-94161905D01*
X131464285Y-94961905D01*
X131464285Y-94161905D01*
X131197619Y-94161905D02*
X130740476Y-94161905D01*
X130969047Y-94961905D02*
X130969047Y-94161905D01*
X135273809Y-95461905D02*
X135121428Y-95461905D01*
X135045237Y-95500000D01*
X134969047Y-95576190D01*
X134930952Y-95728571D01*
X134930952Y-95995238D01*
X134969047Y-96147619D01*
X135045237Y-96223810D01*
X135121428Y-96261905D01*
X135273809Y-96261905D01*
X135349999Y-96223810D01*
X135426190Y-96147619D01*
X135464285Y-95995238D01*
X135464285Y-95728571D01*
X135426190Y-95576190D01*
X135349999Y-95500000D01*
X135273809Y-95461905D01*
X134588095Y-95461905D02*
X134588095Y-96109524D01*
X134550000Y-96185714D01*
X134511904Y-96223810D01*
X134435714Y-96261905D01*
X134283333Y-96261905D01*
X134207142Y-96223810D01*
X134169047Y-96185714D01*
X134130952Y-96109524D01*
X134130952Y-95461905D01*
X133864286Y-95461905D02*
X133407143Y-95461905D01*
X133635714Y-96261905D02*
X133635714Y-95461905D01*
X133140476Y-96261905D02*
X133140476Y-95461905D01*
X132835714Y-95461905D01*
X132759523Y-95500000D01*
X132721428Y-95538095D01*
X132683333Y-95614286D01*
X132683333Y-95728571D01*
X132721428Y-95804762D01*
X132759523Y-95842857D01*
X132835714Y-95880952D01*
X133140476Y-95880952D01*
X132340476Y-95461905D02*
X132340476Y-96109524D01*
X132302381Y-96185714D01*
X132264285Y-96223810D01*
X132188095Y-96261905D01*
X132035714Y-96261905D01*
X131959523Y-96223810D01*
X131921428Y-96185714D01*
X131883333Y-96109524D01*
X131883333Y-95461905D01*
X131616667Y-95461905D02*
X131159524Y-95461905D01*
X131388095Y-96261905D02*
X131388095Y-95461905D01*
X141243095Y-74663571D02*
X141205000Y-74701666D01*
X141166905Y-74777857D01*
X141166905Y-74968333D01*
X141205000Y-75044523D01*
X141243095Y-75082619D01*
X141319286Y-75120714D01*
X141395476Y-75120714D01*
X141509762Y-75082619D01*
X141966905Y-74625476D01*
X141966905Y-75120714D01*
X141966905Y-75463571D02*
X141166905Y-75463571D01*
X141966905Y-75920714D01*
X141166905Y-75920714D01*
X141166905Y-76225476D02*
X141166905Y-76720714D01*
X141471667Y-76454047D01*
X141471667Y-76568333D01*
X141509762Y-76644523D01*
X141547857Y-76682619D01*
X141624048Y-76720714D01*
X141814524Y-76720714D01*
X141890714Y-76682619D01*
X141928810Y-76644523D01*
X141966905Y-76568333D01*
X141966905Y-76339761D01*
X141928810Y-76263571D01*
X141890714Y-76225476D01*
X141966905Y-77101666D02*
X141966905Y-77254047D01*
X141928810Y-77330238D01*
X141890714Y-77368333D01*
X141776429Y-77444524D01*
X141624048Y-77482619D01*
X141319286Y-77482619D01*
X141243095Y-77444524D01*
X141205000Y-77406428D01*
X141166905Y-77330238D01*
X141166905Y-77177857D01*
X141205000Y-77101666D01*
X141243095Y-77063571D01*
X141319286Y-77025476D01*
X141509762Y-77025476D01*
X141585952Y-77063571D01*
X141624048Y-77101666D01*
X141662143Y-77177857D01*
X141662143Y-77330238D01*
X141624048Y-77406428D01*
X141585952Y-77444524D01*
X141509762Y-77482619D01*
X141166905Y-77977857D02*
X141166905Y-78054048D01*
X141205000Y-78130238D01*
X141243095Y-78168333D01*
X141319286Y-78206429D01*
X141471667Y-78244524D01*
X141662143Y-78244524D01*
X141814524Y-78206429D01*
X141890714Y-78168333D01*
X141928810Y-78130238D01*
X141966905Y-78054048D01*
X141966905Y-77977857D01*
X141928810Y-77901667D01*
X141890714Y-77863571D01*
X141814524Y-77825476D01*
X141662143Y-77787381D01*
X141471667Y-77787381D01*
X141319286Y-77825476D01*
X141243095Y-77863571D01*
X141205000Y-77901667D01*
X141166905Y-77977857D01*
X141166905Y-78930238D02*
X141166905Y-78777857D01*
X141205000Y-78701667D01*
X141243095Y-78663572D01*
X141357381Y-78587381D01*
X141509762Y-78549286D01*
X141814524Y-78549286D01*
X141890714Y-78587381D01*
X141928810Y-78625476D01*
X141966905Y-78701667D01*
X141966905Y-78854048D01*
X141928810Y-78930238D01*
X141890714Y-78968334D01*
X141814524Y-79006429D01*
X141624048Y-79006429D01*
X141547857Y-78968334D01*
X141509762Y-78930238D01*
X141471667Y-78854048D01*
X141471667Y-78701667D01*
X141509762Y-78625476D01*
X141547857Y-78587381D01*
X141624048Y-78549286D01*
X159658095Y-74663571D02*
X159620000Y-74701666D01*
X159581905Y-74777857D01*
X159581905Y-74968333D01*
X159620000Y-75044523D01*
X159658095Y-75082619D01*
X159734286Y-75120714D01*
X159810476Y-75120714D01*
X159924762Y-75082619D01*
X160381905Y-74625476D01*
X160381905Y-75120714D01*
X160381905Y-75463571D02*
X159581905Y-75463571D01*
X160381905Y-75920714D01*
X159581905Y-75920714D01*
X159581905Y-76225476D02*
X159581905Y-76720714D01*
X159886667Y-76454047D01*
X159886667Y-76568333D01*
X159924762Y-76644523D01*
X159962857Y-76682619D01*
X160039048Y-76720714D01*
X160229524Y-76720714D01*
X160305714Y-76682619D01*
X160343810Y-76644523D01*
X160381905Y-76568333D01*
X160381905Y-76339761D01*
X160343810Y-76263571D01*
X160305714Y-76225476D01*
X160381905Y-77101666D02*
X160381905Y-77254047D01*
X160343810Y-77330238D01*
X160305714Y-77368333D01*
X160191429Y-77444524D01*
X160039048Y-77482619D01*
X159734286Y-77482619D01*
X159658095Y-77444524D01*
X159620000Y-77406428D01*
X159581905Y-77330238D01*
X159581905Y-77177857D01*
X159620000Y-77101666D01*
X159658095Y-77063571D01*
X159734286Y-77025476D01*
X159924762Y-77025476D01*
X160000952Y-77063571D01*
X160039048Y-77101666D01*
X160077143Y-77177857D01*
X160077143Y-77330238D01*
X160039048Y-77406428D01*
X160000952Y-77444524D01*
X159924762Y-77482619D01*
X159581905Y-77977857D02*
X159581905Y-78054048D01*
X159620000Y-78130238D01*
X159658095Y-78168333D01*
X159734286Y-78206429D01*
X159886667Y-78244524D01*
X160077143Y-78244524D01*
X160229524Y-78206429D01*
X160305714Y-78168333D01*
X160343810Y-78130238D01*
X160381905Y-78054048D01*
X160381905Y-77977857D01*
X160343810Y-77901667D01*
X160305714Y-77863571D01*
X160229524Y-77825476D01*
X160077143Y-77787381D01*
X159886667Y-77787381D01*
X159734286Y-77825476D01*
X159658095Y-77863571D01*
X159620000Y-77901667D01*
X159581905Y-77977857D01*
X159581905Y-78930238D02*
X159581905Y-78777857D01*
X159620000Y-78701667D01*
X159658095Y-78663572D01*
X159772381Y-78587381D01*
X159924762Y-78549286D01*
X160229524Y-78549286D01*
X160305714Y-78587381D01*
X160343810Y-78625476D01*
X160381905Y-78701667D01*
X160381905Y-78854048D01*
X160343810Y-78930238D01*
X160305714Y-78968334D01*
X160229524Y-79006429D01*
X160039048Y-79006429D01*
X159962857Y-78968334D01*
X159924762Y-78930238D01*
X159886667Y-78854048D01*
X159886667Y-78701667D01*
X159924762Y-78625476D01*
X159962857Y-78587381D01*
X160039048Y-78549286D01*
X178073095Y-74663571D02*
X178035000Y-74701666D01*
X177996905Y-74777857D01*
X177996905Y-74968333D01*
X178035000Y-75044523D01*
X178073095Y-75082619D01*
X178149286Y-75120714D01*
X178225476Y-75120714D01*
X178339762Y-75082619D01*
X178796905Y-74625476D01*
X178796905Y-75120714D01*
X178796905Y-75463571D02*
X177996905Y-75463571D01*
X178796905Y-75920714D01*
X177996905Y-75920714D01*
X177996905Y-76225476D02*
X177996905Y-76720714D01*
X178301667Y-76454047D01*
X178301667Y-76568333D01*
X178339762Y-76644523D01*
X178377857Y-76682619D01*
X178454048Y-76720714D01*
X178644524Y-76720714D01*
X178720714Y-76682619D01*
X178758810Y-76644523D01*
X178796905Y-76568333D01*
X178796905Y-76339761D01*
X178758810Y-76263571D01*
X178720714Y-76225476D01*
X178796905Y-77101666D02*
X178796905Y-77254047D01*
X178758810Y-77330238D01*
X178720714Y-77368333D01*
X178606429Y-77444524D01*
X178454048Y-77482619D01*
X178149286Y-77482619D01*
X178073095Y-77444524D01*
X178035000Y-77406428D01*
X177996905Y-77330238D01*
X177996905Y-77177857D01*
X178035000Y-77101666D01*
X178073095Y-77063571D01*
X178149286Y-77025476D01*
X178339762Y-77025476D01*
X178415952Y-77063571D01*
X178454048Y-77101666D01*
X178492143Y-77177857D01*
X178492143Y-77330238D01*
X178454048Y-77406428D01*
X178415952Y-77444524D01*
X178339762Y-77482619D01*
X177996905Y-77977857D02*
X177996905Y-78054048D01*
X178035000Y-78130238D01*
X178073095Y-78168333D01*
X178149286Y-78206429D01*
X178301667Y-78244524D01*
X178492143Y-78244524D01*
X178644524Y-78206429D01*
X178720714Y-78168333D01*
X178758810Y-78130238D01*
X178796905Y-78054048D01*
X178796905Y-77977857D01*
X178758810Y-77901667D01*
X178720714Y-77863571D01*
X178644524Y-77825476D01*
X178492143Y-77787381D01*
X178301667Y-77787381D01*
X178149286Y-77825476D01*
X178073095Y-77863571D01*
X178035000Y-77901667D01*
X177996905Y-77977857D01*
X177996905Y-78930238D02*
X177996905Y-78777857D01*
X178035000Y-78701667D01*
X178073095Y-78663572D01*
X178187381Y-78587381D01*
X178339762Y-78549286D01*
X178644524Y-78549286D01*
X178720714Y-78587381D01*
X178758810Y-78625476D01*
X178796905Y-78701667D01*
X178796905Y-78854048D01*
X178758810Y-78930238D01*
X178720714Y-78968334D01*
X178644524Y-79006429D01*
X178454048Y-79006429D01*
X178377857Y-78968334D01*
X178339762Y-78930238D01*
X178301667Y-78854048D01*
X178301667Y-78701667D01*
X178339762Y-78625476D01*
X178377857Y-78587381D01*
X178454048Y-78549286D01*
X126003095Y-114033571D02*
X125965000Y-114071666D01*
X125926905Y-114147857D01*
X125926905Y-114338333D01*
X125965000Y-114414523D01*
X126003095Y-114452619D01*
X126079286Y-114490714D01*
X126155476Y-114490714D01*
X126269762Y-114452619D01*
X126726905Y-113995476D01*
X126726905Y-114490714D01*
X126726905Y-114833571D02*
X125926905Y-114833571D01*
X126726905Y-115290714D01*
X125926905Y-115290714D01*
X125926905Y-115595476D02*
X125926905Y-116090714D01*
X126231667Y-115824047D01*
X126231667Y-115938333D01*
X126269762Y-116014523D01*
X126307857Y-116052619D01*
X126384048Y-116090714D01*
X126574524Y-116090714D01*
X126650714Y-116052619D01*
X126688810Y-116014523D01*
X126726905Y-115938333D01*
X126726905Y-115709761D01*
X126688810Y-115633571D01*
X126650714Y-115595476D01*
X126726905Y-116471666D02*
X126726905Y-116624047D01*
X126688810Y-116700238D01*
X126650714Y-116738333D01*
X126536429Y-116814524D01*
X126384048Y-116852619D01*
X126079286Y-116852619D01*
X126003095Y-116814524D01*
X125965000Y-116776428D01*
X125926905Y-116700238D01*
X125926905Y-116547857D01*
X125965000Y-116471666D01*
X126003095Y-116433571D01*
X126079286Y-116395476D01*
X126269762Y-116395476D01*
X126345952Y-116433571D01*
X126384048Y-116471666D01*
X126422143Y-116547857D01*
X126422143Y-116700238D01*
X126384048Y-116776428D01*
X126345952Y-116814524D01*
X126269762Y-116852619D01*
X125926905Y-117347857D02*
X125926905Y-117424048D01*
X125965000Y-117500238D01*
X126003095Y-117538333D01*
X126079286Y-117576429D01*
X126231667Y-117614524D01*
X126422143Y-117614524D01*
X126574524Y-117576429D01*
X126650714Y-117538333D01*
X126688810Y-117500238D01*
X126726905Y-117424048D01*
X126726905Y-117347857D01*
X126688810Y-117271667D01*
X126650714Y-117233571D01*
X126574524Y-117195476D01*
X126422143Y-117157381D01*
X126231667Y-117157381D01*
X126079286Y-117195476D01*
X126003095Y-117233571D01*
X125965000Y-117271667D01*
X125926905Y-117347857D01*
X126193571Y-118300238D02*
X126726905Y-118300238D01*
X125888810Y-118109762D02*
X126460238Y-117919286D01*
X126460238Y-118414524D01*
X157753095Y-103238571D02*
X157715000Y-103276666D01*
X157676905Y-103352857D01*
X157676905Y-103543333D01*
X157715000Y-103619523D01*
X157753095Y-103657619D01*
X157829286Y-103695714D01*
X157905476Y-103695714D01*
X158019762Y-103657619D01*
X158476905Y-103200476D01*
X158476905Y-103695714D01*
X158476905Y-104038571D02*
X157676905Y-104038571D01*
X158476905Y-104495714D01*
X157676905Y-104495714D01*
X157676905Y-104800476D02*
X157676905Y-105295714D01*
X157981667Y-105029047D01*
X157981667Y-105143333D01*
X158019762Y-105219523D01*
X158057857Y-105257619D01*
X158134048Y-105295714D01*
X158324524Y-105295714D01*
X158400714Y-105257619D01*
X158438810Y-105219523D01*
X158476905Y-105143333D01*
X158476905Y-104914761D01*
X158438810Y-104838571D01*
X158400714Y-104800476D01*
X158476905Y-105676666D02*
X158476905Y-105829047D01*
X158438810Y-105905238D01*
X158400714Y-105943333D01*
X158286429Y-106019524D01*
X158134048Y-106057619D01*
X157829286Y-106057619D01*
X157753095Y-106019524D01*
X157715000Y-105981428D01*
X157676905Y-105905238D01*
X157676905Y-105752857D01*
X157715000Y-105676666D01*
X157753095Y-105638571D01*
X157829286Y-105600476D01*
X158019762Y-105600476D01*
X158095952Y-105638571D01*
X158134048Y-105676666D01*
X158172143Y-105752857D01*
X158172143Y-105905238D01*
X158134048Y-105981428D01*
X158095952Y-106019524D01*
X158019762Y-106057619D01*
X157676905Y-106552857D02*
X157676905Y-106629048D01*
X157715000Y-106705238D01*
X157753095Y-106743333D01*
X157829286Y-106781429D01*
X157981667Y-106819524D01*
X158172143Y-106819524D01*
X158324524Y-106781429D01*
X158400714Y-106743333D01*
X158438810Y-106705238D01*
X158476905Y-106629048D01*
X158476905Y-106552857D01*
X158438810Y-106476667D01*
X158400714Y-106438571D01*
X158324524Y-106400476D01*
X158172143Y-106362381D01*
X157981667Y-106362381D01*
X157829286Y-106400476D01*
X157753095Y-106438571D01*
X157715000Y-106476667D01*
X157676905Y-106552857D01*
X157676905Y-107505238D02*
X157676905Y-107352857D01*
X157715000Y-107276667D01*
X157753095Y-107238572D01*
X157867381Y-107162381D01*
X158019762Y-107124286D01*
X158324524Y-107124286D01*
X158400714Y-107162381D01*
X158438810Y-107200476D01*
X158476905Y-107276667D01*
X158476905Y-107429048D01*
X158438810Y-107505238D01*
X158400714Y-107543334D01*
X158324524Y-107581429D01*
X158134048Y-107581429D01*
X158057857Y-107543334D01*
X158019762Y-107505238D01*
X157981667Y-107429048D01*
X157981667Y-107276667D01*
X158019762Y-107200476D01*
X158057857Y-107162381D01*
X158134048Y-107124286D01*
X160928095Y-103238571D02*
X160890000Y-103276666D01*
X160851905Y-103352857D01*
X160851905Y-103543333D01*
X160890000Y-103619523D01*
X160928095Y-103657619D01*
X161004286Y-103695714D01*
X161080476Y-103695714D01*
X161194762Y-103657619D01*
X161651905Y-103200476D01*
X161651905Y-103695714D01*
X161651905Y-104038571D02*
X160851905Y-104038571D01*
X161651905Y-104495714D01*
X160851905Y-104495714D01*
X160851905Y-104800476D02*
X160851905Y-105295714D01*
X161156667Y-105029047D01*
X161156667Y-105143333D01*
X161194762Y-105219523D01*
X161232857Y-105257619D01*
X161309048Y-105295714D01*
X161499524Y-105295714D01*
X161575714Y-105257619D01*
X161613810Y-105219523D01*
X161651905Y-105143333D01*
X161651905Y-104914761D01*
X161613810Y-104838571D01*
X161575714Y-104800476D01*
X161651905Y-105676666D02*
X161651905Y-105829047D01*
X161613810Y-105905238D01*
X161575714Y-105943333D01*
X161461429Y-106019524D01*
X161309048Y-106057619D01*
X161004286Y-106057619D01*
X160928095Y-106019524D01*
X160890000Y-105981428D01*
X160851905Y-105905238D01*
X160851905Y-105752857D01*
X160890000Y-105676666D01*
X160928095Y-105638571D01*
X161004286Y-105600476D01*
X161194762Y-105600476D01*
X161270952Y-105638571D01*
X161309048Y-105676666D01*
X161347143Y-105752857D01*
X161347143Y-105905238D01*
X161309048Y-105981428D01*
X161270952Y-106019524D01*
X161194762Y-106057619D01*
X160851905Y-106552857D02*
X160851905Y-106629048D01*
X160890000Y-106705238D01*
X160928095Y-106743333D01*
X161004286Y-106781429D01*
X161156667Y-106819524D01*
X161347143Y-106819524D01*
X161499524Y-106781429D01*
X161575714Y-106743333D01*
X161613810Y-106705238D01*
X161651905Y-106629048D01*
X161651905Y-106552857D01*
X161613810Y-106476667D01*
X161575714Y-106438571D01*
X161499524Y-106400476D01*
X161347143Y-106362381D01*
X161156667Y-106362381D01*
X161004286Y-106400476D01*
X160928095Y-106438571D01*
X160890000Y-106476667D01*
X160851905Y-106552857D01*
X161118571Y-107505238D02*
X161651905Y-107505238D01*
X160813810Y-107314762D02*
X161385238Y-107124286D01*
X161385238Y-107619524D01*
M02*
