G04 #@! TF.FileFunction,Legend,Top*
%FSLAX46Y46*%
G04 Gerber Fmt 4.6, Leading zero omitted, Abs format (unit mm)*
G04 Created by KiCad (PCBNEW 4.0.7) date 09/22/19 17:23:35*
%MOMM*%
%LPD*%
G01*
G04 APERTURE LIST*
%ADD10C,0.100000*%
%ADD11C,0.300000*%
%ADD12C,0.150000*%
%ADD13C,0.200000*%
%ADD14C,0.120000*%
G04 APERTURE END LIST*
D10*
D11*
X157572143Y-82593571D02*
X157572143Y-81093571D01*
X158072143Y-82165000D01*
X158572143Y-81093571D01*
X158572143Y-82593571D01*
X159286429Y-82593571D02*
X159286429Y-81593571D01*
X159286429Y-81093571D02*
X159215000Y-81165000D01*
X159286429Y-81236429D01*
X159357857Y-81165000D01*
X159286429Y-81093571D01*
X159286429Y-81236429D01*
X160643572Y-82522143D02*
X160500715Y-82593571D01*
X160215001Y-82593571D01*
X160072143Y-82522143D01*
X160000715Y-82450714D01*
X159929286Y-82307857D01*
X159929286Y-81879286D01*
X160000715Y-81736429D01*
X160072143Y-81665000D01*
X160215001Y-81593571D01*
X160500715Y-81593571D01*
X160643572Y-81665000D01*
X161286429Y-82593571D02*
X161286429Y-81593571D01*
X161286429Y-81879286D02*
X161357857Y-81736429D01*
X161429286Y-81665000D01*
X161572143Y-81593571D01*
X161715000Y-81593571D01*
X162429286Y-82593571D02*
X162286428Y-82522143D01*
X162215000Y-82450714D01*
X162143571Y-82307857D01*
X162143571Y-81879286D01*
X162215000Y-81736429D01*
X162286428Y-81665000D01*
X162429286Y-81593571D01*
X162643571Y-81593571D01*
X162786428Y-81665000D01*
X162857857Y-81736429D01*
X162929286Y-81879286D01*
X162929286Y-82307857D01*
X162857857Y-82450714D01*
X162786428Y-82522143D01*
X162643571Y-82593571D01*
X162429286Y-82593571D01*
X164215000Y-82522143D02*
X164072143Y-82593571D01*
X163786429Y-82593571D01*
X163643571Y-82522143D01*
X163572143Y-82450714D01*
X163500714Y-82307857D01*
X163500714Y-81879286D01*
X163572143Y-81736429D01*
X163643571Y-81665000D01*
X163786429Y-81593571D01*
X164072143Y-81593571D01*
X164215000Y-81665000D01*
X164857857Y-82593571D02*
X164857857Y-81093571D01*
X165500714Y-82593571D02*
X165500714Y-81807857D01*
X165429285Y-81665000D01*
X165286428Y-81593571D01*
X165072143Y-81593571D01*
X164929285Y-81665000D01*
X164857857Y-81736429D01*
X166215000Y-82593571D02*
X166215000Y-81593571D01*
X166215000Y-81093571D02*
X166143571Y-81165000D01*
X166215000Y-81236429D01*
X166286428Y-81165000D01*
X166215000Y-81093571D01*
X166215000Y-81236429D01*
X167572143Y-82522143D02*
X167429286Y-82593571D01*
X167143572Y-82593571D01*
X167000714Y-82522143D01*
X166929286Y-82450714D01*
X166857857Y-82307857D01*
X166857857Y-81879286D01*
X166929286Y-81736429D01*
X167000714Y-81665000D01*
X167143572Y-81593571D01*
X167429286Y-81593571D01*
X167572143Y-81665000D01*
X168215000Y-82593571D02*
X168215000Y-81093571D01*
X168357857Y-82022143D02*
X168786428Y-82593571D01*
X168786428Y-81593571D02*
X168215000Y-82165000D01*
X170000714Y-82522143D02*
X169857857Y-82593571D01*
X169572143Y-82593571D01*
X169429286Y-82522143D01*
X169357857Y-82379286D01*
X169357857Y-81807857D01*
X169429286Y-81665000D01*
X169572143Y-81593571D01*
X169857857Y-81593571D01*
X170000714Y-81665000D01*
X170072143Y-81807857D01*
X170072143Y-81950714D01*
X169357857Y-82093571D01*
X170715000Y-81593571D02*
X170715000Y-82593571D01*
X170715000Y-81736429D02*
X170786428Y-81665000D01*
X170929286Y-81593571D01*
X171143571Y-81593571D01*
X171286428Y-81665000D01*
X171357857Y-81807857D01*
X171357857Y-82593571D01*
D12*
X153432143Y-92703571D02*
X153098809Y-92703571D01*
X153098809Y-93227381D02*
X153098809Y-92227381D01*
X153575000Y-92227381D01*
X155241667Y-93227381D02*
X154670238Y-93227381D01*
X154955952Y-93227381D02*
X154955952Y-92227381D01*
X154860714Y-92370238D01*
X154765476Y-92465476D01*
X154670238Y-92513095D01*
X156194048Y-93227381D02*
X155622619Y-93227381D01*
X155908333Y-93227381D02*
X155908333Y-92227381D01*
X155813095Y-92370238D01*
X155717857Y-92465476D01*
X155622619Y-92513095D01*
X157146429Y-93227381D02*
X156575000Y-93227381D01*
X156860714Y-93227381D02*
X156860714Y-92227381D01*
X156765476Y-92370238D01*
X156670238Y-92465476D01*
X156575000Y-92513095D01*
X158098810Y-93227381D02*
X157527381Y-93227381D01*
X157813095Y-93227381D02*
X157813095Y-92227381D01*
X157717857Y-92370238D01*
X157622619Y-92465476D01*
X157527381Y-92513095D01*
X153360715Y-94353571D02*
X153503572Y-94401190D01*
X153551191Y-94448810D01*
X153598810Y-94544048D01*
X153598810Y-94686905D01*
X153551191Y-94782143D01*
X153503572Y-94829762D01*
X153408334Y-94877381D01*
X153027381Y-94877381D01*
X153027381Y-93877381D01*
X153360715Y-93877381D01*
X153455953Y-93925000D01*
X153503572Y-93972619D01*
X153551191Y-94067857D01*
X153551191Y-94163095D01*
X153503572Y-94258333D01*
X153455953Y-94305952D01*
X153360715Y-94353571D01*
X153027381Y-94353571D01*
X155313096Y-94877381D02*
X154741667Y-94877381D01*
X155027381Y-94877381D02*
X155027381Y-93877381D01*
X154932143Y-94020238D01*
X154836905Y-94115476D01*
X154741667Y-94163095D01*
X155932143Y-93877381D02*
X156027382Y-93877381D01*
X156122620Y-93925000D01*
X156170239Y-93972619D01*
X156217858Y-94067857D01*
X156265477Y-94258333D01*
X156265477Y-94496429D01*
X156217858Y-94686905D01*
X156170239Y-94782143D01*
X156122620Y-94829762D01*
X156027382Y-94877381D01*
X155932143Y-94877381D01*
X155836905Y-94829762D01*
X155789286Y-94782143D01*
X155741667Y-94686905D01*
X155694048Y-94496429D01*
X155694048Y-94258333D01*
X155741667Y-94067857D01*
X155789286Y-93972619D01*
X155836905Y-93925000D01*
X155932143Y-93877381D01*
X157217858Y-94877381D02*
X156646429Y-94877381D01*
X156932143Y-94877381D02*
X156932143Y-93877381D01*
X156836905Y-94020238D01*
X156741667Y-94115476D01*
X156646429Y-94163095D01*
X158170239Y-94877381D02*
X157598810Y-94877381D01*
X157884524Y-94877381D02*
X157884524Y-93877381D01*
X157789286Y-94020238D01*
X157694048Y-94115476D01*
X157598810Y-94163095D01*
X152955952Y-95527381D02*
X153622619Y-95527381D01*
X153194047Y-96527381D01*
X154955952Y-95527381D02*
X155051191Y-95527381D01*
X155146429Y-95575000D01*
X155194048Y-95622619D01*
X155241667Y-95717857D01*
X155289286Y-95908333D01*
X155289286Y-96146429D01*
X155241667Y-96336905D01*
X155194048Y-96432143D01*
X155146429Y-96479762D01*
X155051191Y-96527381D01*
X154955952Y-96527381D01*
X154860714Y-96479762D01*
X154813095Y-96432143D01*
X154765476Y-96336905D01*
X154717857Y-96146429D01*
X154717857Y-95908333D01*
X154765476Y-95717857D01*
X154813095Y-95622619D01*
X154860714Y-95575000D01*
X154955952Y-95527381D01*
X156241667Y-96527381D02*
X155670238Y-96527381D01*
X155955952Y-96527381D02*
X155955952Y-95527381D01*
X155860714Y-95670238D01*
X155765476Y-95765476D01*
X155670238Y-95813095D01*
X157194048Y-96527381D02*
X156622619Y-96527381D01*
X156908333Y-96527381D02*
X156908333Y-95527381D01*
X156813095Y-95670238D01*
X156717857Y-95765476D01*
X156622619Y-95813095D01*
X158146429Y-96527381D02*
X157575000Y-96527381D01*
X157860714Y-96527381D02*
X157860714Y-95527381D01*
X157765476Y-95670238D01*
X157670238Y-95765476D01*
X157575000Y-95813095D01*
X152955952Y-97177381D02*
X153575000Y-97177381D01*
X153241666Y-97558333D01*
X153384524Y-97558333D01*
X153479762Y-97605952D01*
X153527381Y-97653571D01*
X153575000Y-97748810D01*
X153575000Y-97986905D01*
X153527381Y-98082143D01*
X153479762Y-98129762D01*
X153384524Y-98177381D01*
X153098809Y-98177381D01*
X153003571Y-98129762D01*
X152955952Y-98082143D01*
X154955952Y-97177381D02*
X155051191Y-97177381D01*
X155146429Y-97225000D01*
X155194048Y-97272619D01*
X155241667Y-97367857D01*
X155289286Y-97558333D01*
X155289286Y-97796429D01*
X155241667Y-97986905D01*
X155194048Y-98082143D01*
X155146429Y-98129762D01*
X155051191Y-98177381D01*
X154955952Y-98177381D01*
X154860714Y-98129762D01*
X154813095Y-98082143D01*
X154765476Y-97986905D01*
X154717857Y-97796429D01*
X154717857Y-97558333D01*
X154765476Y-97367857D01*
X154813095Y-97272619D01*
X154860714Y-97225000D01*
X154955952Y-97177381D01*
X155908333Y-97177381D02*
X156003572Y-97177381D01*
X156098810Y-97225000D01*
X156146429Y-97272619D01*
X156194048Y-97367857D01*
X156241667Y-97558333D01*
X156241667Y-97796429D01*
X156194048Y-97986905D01*
X156146429Y-98082143D01*
X156098810Y-98129762D01*
X156003572Y-98177381D01*
X155908333Y-98177381D01*
X155813095Y-98129762D01*
X155765476Y-98082143D01*
X155717857Y-97986905D01*
X155670238Y-97796429D01*
X155670238Y-97558333D01*
X155717857Y-97367857D01*
X155765476Y-97272619D01*
X155813095Y-97225000D01*
X155908333Y-97177381D01*
X157194048Y-98177381D02*
X156622619Y-98177381D01*
X156908333Y-98177381D02*
X156908333Y-97177381D01*
X156813095Y-97320238D01*
X156717857Y-97415476D01*
X156622619Y-97463095D01*
X158146429Y-98177381D02*
X157575000Y-98177381D01*
X157860714Y-98177381D02*
X157860714Y-97177381D01*
X157765476Y-97320238D01*
X157670238Y-97415476D01*
X157575000Y-97463095D01*
X144185000Y-92703571D02*
X144518334Y-92703571D01*
X144661191Y-93227381D02*
X144185000Y-93227381D01*
X144185000Y-92227381D01*
X144661191Y-92227381D01*
X146375477Y-93227381D02*
X145804048Y-93227381D01*
X146089762Y-93227381D02*
X146089762Y-92227381D01*
X145994524Y-92370238D01*
X145899286Y-92465476D01*
X145804048Y-92513095D01*
X147327858Y-93227381D02*
X146756429Y-93227381D01*
X147042143Y-93227381D02*
X147042143Y-92227381D01*
X146946905Y-92370238D01*
X146851667Y-92465476D01*
X146756429Y-92513095D01*
X148280239Y-93227381D02*
X147708810Y-93227381D01*
X147994524Y-93227381D02*
X147994524Y-92227381D01*
X147899286Y-92370238D01*
X147804048Y-92465476D01*
X147708810Y-92513095D01*
X148899286Y-92227381D02*
X148994525Y-92227381D01*
X149089763Y-92275000D01*
X149137382Y-92322619D01*
X149185001Y-92417857D01*
X149232620Y-92608333D01*
X149232620Y-92846429D01*
X149185001Y-93036905D01*
X149137382Y-93132143D01*
X149089763Y-93179762D01*
X148994525Y-93227381D01*
X148899286Y-93227381D01*
X148804048Y-93179762D01*
X148756429Y-93132143D01*
X148708810Y-93036905D01*
X148661191Y-92846429D01*
X148661191Y-92608333D01*
X148708810Y-92417857D01*
X148756429Y-92322619D01*
X148804048Y-92275000D01*
X148899286Y-92227381D01*
X144161190Y-94591667D02*
X144637381Y-94591667D01*
X144065952Y-94877381D02*
X144399285Y-93877381D01*
X144732619Y-94877381D01*
X146351667Y-94877381D02*
X145780238Y-94877381D01*
X146065952Y-94877381D02*
X146065952Y-93877381D01*
X145970714Y-94020238D01*
X145875476Y-94115476D01*
X145780238Y-94163095D01*
X146970714Y-93877381D02*
X147065953Y-93877381D01*
X147161191Y-93925000D01*
X147208810Y-93972619D01*
X147256429Y-94067857D01*
X147304048Y-94258333D01*
X147304048Y-94496429D01*
X147256429Y-94686905D01*
X147208810Y-94782143D01*
X147161191Y-94829762D01*
X147065953Y-94877381D01*
X146970714Y-94877381D01*
X146875476Y-94829762D01*
X146827857Y-94782143D01*
X146780238Y-94686905D01*
X146732619Y-94496429D01*
X146732619Y-94258333D01*
X146780238Y-94067857D01*
X146827857Y-93972619D01*
X146875476Y-93925000D01*
X146970714Y-93877381D01*
X148256429Y-94877381D02*
X147685000Y-94877381D01*
X147970714Y-94877381D02*
X147970714Y-93877381D01*
X147875476Y-94020238D01*
X147780238Y-94115476D01*
X147685000Y-94163095D01*
X148875476Y-93877381D02*
X148970715Y-93877381D01*
X149065953Y-93925000D01*
X149113572Y-93972619D01*
X149161191Y-94067857D01*
X149208810Y-94258333D01*
X149208810Y-94496429D01*
X149161191Y-94686905D01*
X149113572Y-94782143D01*
X149065953Y-94829762D01*
X148970715Y-94877381D01*
X148875476Y-94877381D01*
X148780238Y-94829762D01*
X148732619Y-94782143D01*
X148685000Y-94686905D01*
X148637381Y-94496429D01*
X148637381Y-94258333D01*
X148685000Y-94067857D01*
X148732619Y-93972619D01*
X148780238Y-93925000D01*
X148875476Y-93877381D01*
X144589762Y-95527381D02*
X144399285Y-95527381D01*
X144304047Y-95575000D01*
X144256428Y-95622619D01*
X144161190Y-95765476D01*
X144113571Y-95955952D01*
X144113571Y-96336905D01*
X144161190Y-96432143D01*
X144208809Y-96479762D01*
X144304047Y-96527381D01*
X144494524Y-96527381D01*
X144589762Y-96479762D01*
X144637381Y-96432143D01*
X144685000Y-96336905D01*
X144685000Y-96098810D01*
X144637381Y-96003571D01*
X144589762Y-95955952D01*
X144494524Y-95908333D01*
X144304047Y-95908333D01*
X144208809Y-95955952D01*
X144161190Y-96003571D01*
X144113571Y-96098810D01*
X146065952Y-95527381D02*
X146161191Y-95527381D01*
X146256429Y-95575000D01*
X146304048Y-95622619D01*
X146351667Y-95717857D01*
X146399286Y-95908333D01*
X146399286Y-96146429D01*
X146351667Y-96336905D01*
X146304048Y-96432143D01*
X146256429Y-96479762D01*
X146161191Y-96527381D01*
X146065952Y-96527381D01*
X145970714Y-96479762D01*
X145923095Y-96432143D01*
X145875476Y-96336905D01*
X145827857Y-96146429D01*
X145827857Y-95908333D01*
X145875476Y-95717857D01*
X145923095Y-95622619D01*
X145970714Y-95575000D01*
X146065952Y-95527381D01*
X147351667Y-96527381D02*
X146780238Y-96527381D01*
X147065952Y-96527381D02*
X147065952Y-95527381D01*
X146970714Y-95670238D01*
X146875476Y-95765476D01*
X146780238Y-95813095D01*
X148304048Y-96527381D02*
X147732619Y-96527381D01*
X148018333Y-96527381D02*
X148018333Y-95527381D01*
X147923095Y-95670238D01*
X147827857Y-95765476D01*
X147732619Y-95813095D01*
X148923095Y-95527381D02*
X149018334Y-95527381D01*
X149113572Y-95575000D01*
X149161191Y-95622619D01*
X149208810Y-95717857D01*
X149256429Y-95908333D01*
X149256429Y-96146429D01*
X149208810Y-96336905D01*
X149161191Y-96432143D01*
X149113572Y-96479762D01*
X149018334Y-96527381D01*
X148923095Y-96527381D01*
X148827857Y-96479762D01*
X148780238Y-96432143D01*
X148732619Y-96336905D01*
X148685000Y-96146429D01*
X148685000Y-95908333D01*
X148732619Y-95717857D01*
X148780238Y-95622619D01*
X148827857Y-95575000D01*
X148923095Y-95527381D01*
X144113571Y-97272619D02*
X144161190Y-97225000D01*
X144256428Y-97177381D01*
X144494524Y-97177381D01*
X144589762Y-97225000D01*
X144637381Y-97272619D01*
X144685000Y-97367857D01*
X144685000Y-97463095D01*
X144637381Y-97605952D01*
X144065952Y-98177381D01*
X144685000Y-98177381D01*
X146065952Y-97177381D02*
X146161191Y-97177381D01*
X146256429Y-97225000D01*
X146304048Y-97272619D01*
X146351667Y-97367857D01*
X146399286Y-97558333D01*
X146399286Y-97796429D01*
X146351667Y-97986905D01*
X146304048Y-98082143D01*
X146256429Y-98129762D01*
X146161191Y-98177381D01*
X146065952Y-98177381D01*
X145970714Y-98129762D01*
X145923095Y-98082143D01*
X145875476Y-97986905D01*
X145827857Y-97796429D01*
X145827857Y-97558333D01*
X145875476Y-97367857D01*
X145923095Y-97272619D01*
X145970714Y-97225000D01*
X146065952Y-97177381D01*
X147018333Y-97177381D02*
X147113572Y-97177381D01*
X147208810Y-97225000D01*
X147256429Y-97272619D01*
X147304048Y-97367857D01*
X147351667Y-97558333D01*
X147351667Y-97796429D01*
X147304048Y-97986905D01*
X147256429Y-98082143D01*
X147208810Y-98129762D01*
X147113572Y-98177381D01*
X147018333Y-98177381D01*
X146923095Y-98129762D01*
X146875476Y-98082143D01*
X146827857Y-97986905D01*
X146780238Y-97796429D01*
X146780238Y-97558333D01*
X146827857Y-97367857D01*
X146875476Y-97272619D01*
X146923095Y-97225000D01*
X147018333Y-97177381D01*
X148304048Y-98177381D02*
X147732619Y-98177381D01*
X148018333Y-98177381D02*
X148018333Y-97177381D01*
X147923095Y-97320238D01*
X147827857Y-97415476D01*
X147732619Y-97463095D01*
X148923095Y-97177381D02*
X149018334Y-97177381D01*
X149113572Y-97225000D01*
X149161191Y-97272619D01*
X149208810Y-97367857D01*
X149256429Y-97558333D01*
X149256429Y-97796429D01*
X149208810Y-97986905D01*
X149161191Y-98082143D01*
X149113572Y-98129762D01*
X149018334Y-98177381D01*
X148923095Y-98177381D01*
X148827857Y-98129762D01*
X148780238Y-98082143D01*
X148732619Y-97986905D01*
X148685000Y-97796429D01*
X148685000Y-97558333D01*
X148732619Y-97367857D01*
X148780238Y-97272619D01*
X148827857Y-97225000D01*
X148923095Y-97177381D01*
X136517381Y-93227381D02*
X136517381Y-92227381D01*
X136755476Y-92227381D01*
X136898334Y-92275000D01*
X136993572Y-92370238D01*
X137041191Y-92465476D01*
X137088810Y-92655952D01*
X137088810Y-92798810D01*
X137041191Y-92989286D01*
X136993572Y-93084524D01*
X136898334Y-93179762D01*
X136755476Y-93227381D01*
X136517381Y-93227381D01*
X138803096Y-93227381D02*
X138231667Y-93227381D01*
X138517381Y-93227381D02*
X138517381Y-92227381D01*
X138422143Y-92370238D01*
X138326905Y-92465476D01*
X138231667Y-92513095D01*
X139755477Y-93227381D02*
X139184048Y-93227381D01*
X139469762Y-93227381D02*
X139469762Y-92227381D01*
X139374524Y-92370238D01*
X139279286Y-92465476D01*
X139184048Y-92513095D01*
X140374524Y-92227381D02*
X140469763Y-92227381D01*
X140565001Y-92275000D01*
X140612620Y-92322619D01*
X140660239Y-92417857D01*
X140707858Y-92608333D01*
X140707858Y-92846429D01*
X140660239Y-93036905D01*
X140612620Y-93132143D01*
X140565001Y-93179762D01*
X140469763Y-93227381D01*
X140374524Y-93227381D01*
X140279286Y-93179762D01*
X140231667Y-93132143D01*
X140184048Y-93036905D01*
X140136429Y-92846429D01*
X140136429Y-92608333D01*
X140184048Y-92417857D01*
X140231667Y-92322619D01*
X140279286Y-92275000D01*
X140374524Y-92227381D01*
X141660239Y-93227381D02*
X141088810Y-93227381D01*
X141374524Y-93227381D02*
X141374524Y-92227381D01*
X141279286Y-92370238D01*
X141184048Y-92465476D01*
X141088810Y-92513095D01*
X136588809Y-94877381D02*
X136779285Y-94877381D01*
X136874524Y-94829762D01*
X136922143Y-94782143D01*
X137017381Y-94639286D01*
X137065000Y-94448810D01*
X137065000Y-94067857D01*
X137017381Y-93972619D01*
X136969762Y-93925000D01*
X136874524Y-93877381D01*
X136684047Y-93877381D01*
X136588809Y-93925000D01*
X136541190Y-93972619D01*
X136493571Y-94067857D01*
X136493571Y-94305952D01*
X136541190Y-94401190D01*
X136588809Y-94448810D01*
X136684047Y-94496429D01*
X136874524Y-94496429D01*
X136969762Y-94448810D01*
X137017381Y-94401190D01*
X137065000Y-94305952D01*
X138779286Y-94877381D02*
X138207857Y-94877381D01*
X138493571Y-94877381D02*
X138493571Y-93877381D01*
X138398333Y-94020238D01*
X138303095Y-94115476D01*
X138207857Y-94163095D01*
X139398333Y-93877381D02*
X139493572Y-93877381D01*
X139588810Y-93925000D01*
X139636429Y-93972619D01*
X139684048Y-94067857D01*
X139731667Y-94258333D01*
X139731667Y-94496429D01*
X139684048Y-94686905D01*
X139636429Y-94782143D01*
X139588810Y-94829762D01*
X139493572Y-94877381D01*
X139398333Y-94877381D01*
X139303095Y-94829762D01*
X139255476Y-94782143D01*
X139207857Y-94686905D01*
X139160238Y-94496429D01*
X139160238Y-94258333D01*
X139207857Y-94067857D01*
X139255476Y-93972619D01*
X139303095Y-93925000D01*
X139398333Y-93877381D01*
X140350714Y-93877381D02*
X140445953Y-93877381D01*
X140541191Y-93925000D01*
X140588810Y-93972619D01*
X140636429Y-94067857D01*
X140684048Y-94258333D01*
X140684048Y-94496429D01*
X140636429Y-94686905D01*
X140588810Y-94782143D01*
X140541191Y-94829762D01*
X140445953Y-94877381D01*
X140350714Y-94877381D01*
X140255476Y-94829762D01*
X140207857Y-94782143D01*
X140160238Y-94686905D01*
X140112619Y-94496429D01*
X140112619Y-94258333D01*
X140160238Y-94067857D01*
X140207857Y-93972619D01*
X140255476Y-93925000D01*
X140350714Y-93877381D01*
X141636429Y-94877381D02*
X141065000Y-94877381D01*
X141350714Y-94877381D02*
X141350714Y-93877381D01*
X141255476Y-94020238D01*
X141160238Y-94115476D01*
X141065000Y-94163095D01*
X137017381Y-95527381D02*
X136541190Y-95527381D01*
X136493571Y-96003571D01*
X136541190Y-95955952D01*
X136636428Y-95908333D01*
X136874524Y-95908333D01*
X136969762Y-95955952D01*
X137017381Y-96003571D01*
X137065000Y-96098810D01*
X137065000Y-96336905D01*
X137017381Y-96432143D01*
X136969762Y-96479762D01*
X136874524Y-96527381D01*
X136636428Y-96527381D01*
X136541190Y-96479762D01*
X136493571Y-96432143D01*
X138445952Y-95527381D02*
X138541191Y-95527381D01*
X138636429Y-95575000D01*
X138684048Y-95622619D01*
X138731667Y-95717857D01*
X138779286Y-95908333D01*
X138779286Y-96146429D01*
X138731667Y-96336905D01*
X138684048Y-96432143D01*
X138636429Y-96479762D01*
X138541191Y-96527381D01*
X138445952Y-96527381D01*
X138350714Y-96479762D01*
X138303095Y-96432143D01*
X138255476Y-96336905D01*
X138207857Y-96146429D01*
X138207857Y-95908333D01*
X138255476Y-95717857D01*
X138303095Y-95622619D01*
X138350714Y-95575000D01*
X138445952Y-95527381D01*
X139731667Y-96527381D02*
X139160238Y-96527381D01*
X139445952Y-96527381D02*
X139445952Y-95527381D01*
X139350714Y-95670238D01*
X139255476Y-95765476D01*
X139160238Y-95813095D01*
X140350714Y-95527381D02*
X140445953Y-95527381D01*
X140541191Y-95575000D01*
X140588810Y-95622619D01*
X140636429Y-95717857D01*
X140684048Y-95908333D01*
X140684048Y-96146429D01*
X140636429Y-96336905D01*
X140588810Y-96432143D01*
X140541191Y-96479762D01*
X140445953Y-96527381D01*
X140350714Y-96527381D01*
X140255476Y-96479762D01*
X140207857Y-96432143D01*
X140160238Y-96336905D01*
X140112619Y-96146429D01*
X140112619Y-95908333D01*
X140160238Y-95717857D01*
X140207857Y-95622619D01*
X140255476Y-95575000D01*
X140350714Y-95527381D01*
X141636429Y-96527381D02*
X141065000Y-96527381D01*
X141350714Y-96527381D02*
X141350714Y-95527381D01*
X141255476Y-95670238D01*
X141160238Y-95765476D01*
X141065000Y-95813095D01*
X137065000Y-98177381D02*
X136493571Y-98177381D01*
X136779285Y-98177381D02*
X136779285Y-97177381D01*
X136684047Y-97320238D01*
X136588809Y-97415476D01*
X136493571Y-97463095D01*
X138445952Y-97177381D02*
X138541191Y-97177381D01*
X138636429Y-97225000D01*
X138684048Y-97272619D01*
X138731667Y-97367857D01*
X138779286Y-97558333D01*
X138779286Y-97796429D01*
X138731667Y-97986905D01*
X138684048Y-98082143D01*
X138636429Y-98129762D01*
X138541191Y-98177381D01*
X138445952Y-98177381D01*
X138350714Y-98129762D01*
X138303095Y-98082143D01*
X138255476Y-97986905D01*
X138207857Y-97796429D01*
X138207857Y-97558333D01*
X138255476Y-97367857D01*
X138303095Y-97272619D01*
X138350714Y-97225000D01*
X138445952Y-97177381D01*
X139398333Y-97177381D02*
X139493572Y-97177381D01*
X139588810Y-97225000D01*
X139636429Y-97272619D01*
X139684048Y-97367857D01*
X139731667Y-97558333D01*
X139731667Y-97796429D01*
X139684048Y-97986905D01*
X139636429Y-98082143D01*
X139588810Y-98129762D01*
X139493572Y-98177381D01*
X139398333Y-98177381D01*
X139303095Y-98129762D01*
X139255476Y-98082143D01*
X139207857Y-97986905D01*
X139160238Y-97796429D01*
X139160238Y-97558333D01*
X139207857Y-97367857D01*
X139255476Y-97272619D01*
X139303095Y-97225000D01*
X139398333Y-97177381D01*
X140350714Y-97177381D02*
X140445953Y-97177381D01*
X140541191Y-97225000D01*
X140588810Y-97272619D01*
X140636429Y-97367857D01*
X140684048Y-97558333D01*
X140684048Y-97796429D01*
X140636429Y-97986905D01*
X140588810Y-98082143D01*
X140541191Y-98129762D01*
X140445953Y-98177381D01*
X140350714Y-98177381D01*
X140255476Y-98129762D01*
X140207857Y-98082143D01*
X140160238Y-97986905D01*
X140112619Y-97796429D01*
X140112619Y-97558333D01*
X140160238Y-97367857D01*
X140207857Y-97272619D01*
X140255476Y-97225000D01*
X140350714Y-97177381D01*
X141636429Y-98177381D02*
X141065000Y-98177381D01*
X141350714Y-98177381D02*
X141350714Y-97177381D01*
X141255476Y-97320238D01*
X141160238Y-97415476D01*
X141065000Y-97463095D01*
X128833810Y-93132143D02*
X128786191Y-93179762D01*
X128643334Y-93227381D01*
X128548096Y-93227381D01*
X128405238Y-93179762D01*
X128310000Y-93084524D01*
X128262381Y-92989286D01*
X128214762Y-92798810D01*
X128214762Y-92655952D01*
X128262381Y-92465476D01*
X128310000Y-92370238D01*
X128405238Y-92275000D01*
X128548096Y-92227381D01*
X128643334Y-92227381D01*
X128786191Y-92275000D01*
X128833810Y-92322619D01*
X130548096Y-93227381D02*
X129976667Y-93227381D01*
X130262381Y-93227381D02*
X130262381Y-92227381D01*
X130167143Y-92370238D01*
X130071905Y-92465476D01*
X129976667Y-92513095D01*
X131500477Y-93227381D02*
X130929048Y-93227381D01*
X131214762Y-93227381D02*
X131214762Y-92227381D01*
X131119524Y-92370238D01*
X131024286Y-92465476D01*
X130929048Y-92513095D01*
X132119524Y-92227381D02*
X132214763Y-92227381D01*
X132310001Y-92275000D01*
X132357620Y-92322619D01*
X132405239Y-92417857D01*
X132452858Y-92608333D01*
X132452858Y-92846429D01*
X132405239Y-93036905D01*
X132357620Y-93132143D01*
X132310001Y-93179762D01*
X132214763Y-93227381D01*
X132119524Y-93227381D01*
X132024286Y-93179762D01*
X131976667Y-93132143D01*
X131929048Y-93036905D01*
X131881429Y-92846429D01*
X131881429Y-92608333D01*
X131929048Y-92417857D01*
X131976667Y-92322619D01*
X132024286Y-92275000D01*
X132119524Y-92227381D01*
X133071905Y-92227381D02*
X133167144Y-92227381D01*
X133262382Y-92275000D01*
X133310001Y-92322619D01*
X133357620Y-92417857D01*
X133405239Y-92608333D01*
X133405239Y-92846429D01*
X133357620Y-93036905D01*
X133310001Y-93132143D01*
X133262382Y-93179762D01*
X133167144Y-93227381D01*
X133071905Y-93227381D01*
X132976667Y-93179762D01*
X132929048Y-93132143D01*
X132881429Y-93036905D01*
X132833810Y-92846429D01*
X132833810Y-92608333D01*
X132881429Y-92417857D01*
X132929048Y-92322619D01*
X132976667Y-92275000D01*
X133071905Y-92227381D01*
X128429047Y-94305952D02*
X128333809Y-94258333D01*
X128286190Y-94210714D01*
X128238571Y-94115476D01*
X128238571Y-94067857D01*
X128286190Y-93972619D01*
X128333809Y-93925000D01*
X128429047Y-93877381D01*
X128619524Y-93877381D01*
X128714762Y-93925000D01*
X128762381Y-93972619D01*
X128810000Y-94067857D01*
X128810000Y-94115476D01*
X128762381Y-94210714D01*
X128714762Y-94258333D01*
X128619524Y-94305952D01*
X128429047Y-94305952D01*
X128333809Y-94353571D01*
X128286190Y-94401190D01*
X128238571Y-94496429D01*
X128238571Y-94686905D01*
X128286190Y-94782143D01*
X128333809Y-94829762D01*
X128429047Y-94877381D01*
X128619524Y-94877381D01*
X128714762Y-94829762D01*
X128762381Y-94782143D01*
X128810000Y-94686905D01*
X128810000Y-94496429D01*
X128762381Y-94401190D01*
X128714762Y-94353571D01*
X128619524Y-94305952D01*
X130524286Y-94877381D02*
X129952857Y-94877381D01*
X130238571Y-94877381D02*
X130238571Y-93877381D01*
X130143333Y-94020238D01*
X130048095Y-94115476D01*
X129952857Y-94163095D01*
X131143333Y-93877381D02*
X131238572Y-93877381D01*
X131333810Y-93925000D01*
X131381429Y-93972619D01*
X131429048Y-94067857D01*
X131476667Y-94258333D01*
X131476667Y-94496429D01*
X131429048Y-94686905D01*
X131381429Y-94782143D01*
X131333810Y-94829762D01*
X131238572Y-94877381D01*
X131143333Y-94877381D01*
X131048095Y-94829762D01*
X131000476Y-94782143D01*
X130952857Y-94686905D01*
X130905238Y-94496429D01*
X130905238Y-94258333D01*
X130952857Y-94067857D01*
X131000476Y-93972619D01*
X131048095Y-93925000D01*
X131143333Y-93877381D01*
X132095714Y-93877381D02*
X132190953Y-93877381D01*
X132286191Y-93925000D01*
X132333810Y-93972619D01*
X132381429Y-94067857D01*
X132429048Y-94258333D01*
X132429048Y-94496429D01*
X132381429Y-94686905D01*
X132333810Y-94782143D01*
X132286191Y-94829762D01*
X132190953Y-94877381D01*
X132095714Y-94877381D01*
X132000476Y-94829762D01*
X131952857Y-94782143D01*
X131905238Y-94686905D01*
X131857619Y-94496429D01*
X131857619Y-94258333D01*
X131905238Y-94067857D01*
X131952857Y-93972619D01*
X132000476Y-93925000D01*
X132095714Y-93877381D01*
X133048095Y-93877381D02*
X133143334Y-93877381D01*
X133238572Y-93925000D01*
X133286191Y-93972619D01*
X133333810Y-94067857D01*
X133381429Y-94258333D01*
X133381429Y-94496429D01*
X133333810Y-94686905D01*
X133286191Y-94782143D01*
X133238572Y-94829762D01*
X133143334Y-94877381D01*
X133048095Y-94877381D01*
X132952857Y-94829762D01*
X132905238Y-94782143D01*
X132857619Y-94686905D01*
X132810000Y-94496429D01*
X132810000Y-94258333D01*
X132857619Y-94067857D01*
X132905238Y-93972619D01*
X132952857Y-93925000D01*
X133048095Y-93877381D01*
X128714762Y-95860714D02*
X128714762Y-96527381D01*
X128476666Y-95479762D02*
X128238571Y-96194048D01*
X128857619Y-96194048D01*
X130190952Y-95527381D02*
X130286191Y-95527381D01*
X130381429Y-95575000D01*
X130429048Y-95622619D01*
X130476667Y-95717857D01*
X130524286Y-95908333D01*
X130524286Y-96146429D01*
X130476667Y-96336905D01*
X130429048Y-96432143D01*
X130381429Y-96479762D01*
X130286191Y-96527381D01*
X130190952Y-96527381D01*
X130095714Y-96479762D01*
X130048095Y-96432143D01*
X130000476Y-96336905D01*
X129952857Y-96146429D01*
X129952857Y-95908333D01*
X130000476Y-95717857D01*
X130048095Y-95622619D01*
X130095714Y-95575000D01*
X130190952Y-95527381D01*
X131476667Y-96527381D02*
X130905238Y-96527381D01*
X131190952Y-96527381D02*
X131190952Y-95527381D01*
X131095714Y-95670238D01*
X131000476Y-95765476D01*
X130905238Y-95813095D01*
X132095714Y-95527381D02*
X132190953Y-95527381D01*
X132286191Y-95575000D01*
X132333810Y-95622619D01*
X132381429Y-95717857D01*
X132429048Y-95908333D01*
X132429048Y-96146429D01*
X132381429Y-96336905D01*
X132333810Y-96432143D01*
X132286191Y-96479762D01*
X132190953Y-96527381D01*
X132095714Y-96527381D01*
X132000476Y-96479762D01*
X131952857Y-96432143D01*
X131905238Y-96336905D01*
X131857619Y-96146429D01*
X131857619Y-95908333D01*
X131905238Y-95717857D01*
X131952857Y-95622619D01*
X132000476Y-95575000D01*
X132095714Y-95527381D01*
X133048095Y-95527381D02*
X133143334Y-95527381D01*
X133238572Y-95575000D01*
X133286191Y-95622619D01*
X133333810Y-95717857D01*
X133381429Y-95908333D01*
X133381429Y-96146429D01*
X133333810Y-96336905D01*
X133286191Y-96432143D01*
X133238572Y-96479762D01*
X133143334Y-96527381D01*
X133048095Y-96527381D01*
X132952857Y-96479762D01*
X132905238Y-96432143D01*
X132857619Y-96336905D01*
X132810000Y-96146429D01*
X132810000Y-95908333D01*
X132857619Y-95717857D01*
X132905238Y-95622619D01*
X132952857Y-95575000D01*
X133048095Y-95527381D01*
X128476666Y-97177381D02*
X128571905Y-97177381D01*
X128667143Y-97225000D01*
X128714762Y-97272619D01*
X128762381Y-97367857D01*
X128810000Y-97558333D01*
X128810000Y-97796429D01*
X128762381Y-97986905D01*
X128714762Y-98082143D01*
X128667143Y-98129762D01*
X128571905Y-98177381D01*
X128476666Y-98177381D01*
X128381428Y-98129762D01*
X128333809Y-98082143D01*
X128286190Y-97986905D01*
X128238571Y-97796429D01*
X128238571Y-97558333D01*
X128286190Y-97367857D01*
X128333809Y-97272619D01*
X128381428Y-97225000D01*
X128476666Y-97177381D01*
X130190952Y-97177381D02*
X130286191Y-97177381D01*
X130381429Y-97225000D01*
X130429048Y-97272619D01*
X130476667Y-97367857D01*
X130524286Y-97558333D01*
X130524286Y-97796429D01*
X130476667Y-97986905D01*
X130429048Y-98082143D01*
X130381429Y-98129762D01*
X130286191Y-98177381D01*
X130190952Y-98177381D01*
X130095714Y-98129762D01*
X130048095Y-98082143D01*
X130000476Y-97986905D01*
X129952857Y-97796429D01*
X129952857Y-97558333D01*
X130000476Y-97367857D01*
X130048095Y-97272619D01*
X130095714Y-97225000D01*
X130190952Y-97177381D01*
X131143333Y-97177381D02*
X131238572Y-97177381D01*
X131333810Y-97225000D01*
X131381429Y-97272619D01*
X131429048Y-97367857D01*
X131476667Y-97558333D01*
X131476667Y-97796429D01*
X131429048Y-97986905D01*
X131381429Y-98082143D01*
X131333810Y-98129762D01*
X131238572Y-98177381D01*
X131143333Y-98177381D01*
X131048095Y-98129762D01*
X131000476Y-98082143D01*
X130952857Y-97986905D01*
X130905238Y-97796429D01*
X130905238Y-97558333D01*
X130952857Y-97367857D01*
X131000476Y-97272619D01*
X131048095Y-97225000D01*
X131143333Y-97177381D01*
X132095714Y-97177381D02*
X132190953Y-97177381D01*
X132286191Y-97225000D01*
X132333810Y-97272619D01*
X132381429Y-97367857D01*
X132429048Y-97558333D01*
X132429048Y-97796429D01*
X132381429Y-97986905D01*
X132333810Y-98082143D01*
X132286191Y-98129762D01*
X132190953Y-98177381D01*
X132095714Y-98177381D01*
X132000476Y-98129762D01*
X131952857Y-98082143D01*
X131905238Y-97986905D01*
X131857619Y-97796429D01*
X131857619Y-97558333D01*
X131905238Y-97367857D01*
X131952857Y-97272619D01*
X132000476Y-97225000D01*
X132095714Y-97177381D01*
X133048095Y-97177381D02*
X133143334Y-97177381D01*
X133238572Y-97225000D01*
X133286191Y-97272619D01*
X133333810Y-97367857D01*
X133381429Y-97558333D01*
X133381429Y-97796429D01*
X133333810Y-97986905D01*
X133286191Y-98082143D01*
X133238572Y-98129762D01*
X133143334Y-98177381D01*
X133048095Y-98177381D01*
X132952857Y-98129762D01*
X132905238Y-98082143D01*
X132857619Y-97986905D01*
X132810000Y-97796429D01*
X132810000Y-97558333D01*
X132857619Y-97367857D01*
X132905238Y-97272619D01*
X132952857Y-97225000D01*
X133048095Y-97177381D01*
X159060238Y-84240714D02*
X159060238Y-85050238D01*
X159012619Y-85145476D01*
X158965000Y-85193095D01*
X158869761Y-85240714D01*
X158726904Y-85240714D01*
X158631666Y-85193095D01*
X159060238Y-84859762D02*
X158965000Y-84907381D01*
X158774523Y-84907381D01*
X158679285Y-84859762D01*
X158631666Y-84812143D01*
X158584047Y-84716905D01*
X158584047Y-84431190D01*
X158631666Y-84335952D01*
X158679285Y-84288333D01*
X158774523Y-84240714D01*
X158965000Y-84240714D01*
X159060238Y-84288333D01*
X159536428Y-84907381D02*
X159536428Y-84240714D01*
X159536428Y-83907381D02*
X159488809Y-83955000D01*
X159536428Y-84002619D01*
X159584047Y-83955000D01*
X159536428Y-83907381D01*
X159536428Y-84002619D01*
X159869761Y-84240714D02*
X160250713Y-84240714D01*
X160012618Y-83907381D02*
X160012618Y-84764524D01*
X160060237Y-84859762D01*
X160155475Y-84907381D01*
X160250713Y-84907381D01*
X160584047Y-84907381D02*
X160584047Y-83907381D01*
X161012619Y-84907381D02*
X161012619Y-84383571D01*
X160965000Y-84288333D01*
X160869762Y-84240714D01*
X160726904Y-84240714D01*
X160631666Y-84288333D01*
X160584047Y-84335952D01*
X161917381Y-84240714D02*
X161917381Y-84907381D01*
X161488809Y-84240714D02*
X161488809Y-84764524D01*
X161536428Y-84859762D01*
X161631666Y-84907381D01*
X161774524Y-84907381D01*
X161869762Y-84859762D01*
X161917381Y-84812143D01*
X162393571Y-84907381D02*
X162393571Y-83907381D01*
X162393571Y-84288333D02*
X162488809Y-84240714D01*
X162679286Y-84240714D01*
X162774524Y-84288333D01*
X162822143Y-84335952D01*
X162869762Y-84431190D01*
X162869762Y-84716905D01*
X162822143Y-84812143D01*
X162774524Y-84859762D01*
X162679286Y-84907381D01*
X162488809Y-84907381D01*
X162393571Y-84859762D01*
X163298333Y-84812143D02*
X163345952Y-84859762D01*
X163298333Y-84907381D01*
X163250714Y-84859762D01*
X163298333Y-84812143D01*
X163298333Y-84907381D01*
X164203095Y-84859762D02*
X164107857Y-84907381D01*
X163917380Y-84907381D01*
X163822142Y-84859762D01*
X163774523Y-84812143D01*
X163726904Y-84716905D01*
X163726904Y-84431190D01*
X163774523Y-84335952D01*
X163822142Y-84288333D01*
X163917380Y-84240714D01*
X164107857Y-84240714D01*
X164203095Y-84288333D01*
X164774523Y-84907381D02*
X164679285Y-84859762D01*
X164631666Y-84812143D01*
X164584047Y-84716905D01*
X164584047Y-84431190D01*
X164631666Y-84335952D01*
X164679285Y-84288333D01*
X164774523Y-84240714D01*
X164917381Y-84240714D01*
X165012619Y-84288333D01*
X165060238Y-84335952D01*
X165107857Y-84431190D01*
X165107857Y-84716905D01*
X165060238Y-84812143D01*
X165012619Y-84859762D01*
X164917381Y-84907381D01*
X164774523Y-84907381D01*
X165536428Y-84907381D02*
X165536428Y-84240714D01*
X165536428Y-84335952D02*
X165584047Y-84288333D01*
X165679285Y-84240714D01*
X165822143Y-84240714D01*
X165917381Y-84288333D01*
X165965000Y-84383571D01*
X165965000Y-84907381D01*
X165965000Y-84383571D02*
X166012619Y-84288333D01*
X166107857Y-84240714D01*
X166250714Y-84240714D01*
X166345952Y-84288333D01*
X166393571Y-84383571D01*
X166393571Y-84907381D01*
X167584047Y-83859762D02*
X166726904Y-85145476D01*
X167774523Y-84240714D02*
X168155475Y-84240714D01*
X167917380Y-83907381D02*
X167917380Y-84764524D01*
X167964999Y-84859762D01*
X168060237Y-84907381D01*
X168155475Y-84907381D01*
X168869762Y-84859762D02*
X168774524Y-84907381D01*
X168584047Y-84907381D01*
X168488809Y-84859762D01*
X168441190Y-84764524D01*
X168441190Y-84383571D01*
X168488809Y-84288333D01*
X168584047Y-84240714D01*
X168774524Y-84240714D01*
X168869762Y-84288333D01*
X168917381Y-84383571D01*
X168917381Y-84478810D01*
X168441190Y-84574048D01*
X169345952Y-84907381D02*
X169345952Y-83907381D01*
X169345952Y-84288333D02*
X169441190Y-84240714D01*
X169631667Y-84240714D01*
X169726905Y-84288333D01*
X169774524Y-84335952D01*
X169822143Y-84431190D01*
X169822143Y-84716905D01*
X169774524Y-84812143D01*
X169726905Y-84859762D01*
X169631667Y-84907381D01*
X169441190Y-84907381D01*
X169345952Y-84859762D01*
X170393571Y-84907381D02*
X170298333Y-84859762D01*
X170250714Y-84764524D01*
X170250714Y-83907381D01*
X126857856Y-84383571D02*
X127191190Y-84383571D01*
X127334047Y-84907381D02*
X126857856Y-84907381D01*
X126857856Y-83907381D01*
X127334047Y-83907381D01*
X127667380Y-84907381D02*
X128191190Y-84240714D01*
X127667380Y-84240714D02*
X128191190Y-84907381D01*
X128429285Y-84240714D02*
X128810237Y-84240714D01*
X128572142Y-83907381D02*
X128572142Y-84764524D01*
X128619761Y-84859762D01*
X128714999Y-84907381D01*
X128810237Y-84907381D01*
X129524524Y-84859762D02*
X129429286Y-84907381D01*
X129238809Y-84907381D01*
X129143571Y-84859762D01*
X129095952Y-84764524D01*
X129095952Y-84383571D01*
X129143571Y-84288333D01*
X129238809Y-84240714D01*
X129429286Y-84240714D01*
X129524524Y-84288333D01*
X129572143Y-84383571D01*
X129572143Y-84478810D01*
X129095952Y-84574048D01*
X130000714Y-84907381D02*
X130000714Y-84240714D01*
X130000714Y-84431190D02*
X130048333Y-84335952D01*
X130095952Y-84288333D01*
X130191190Y-84240714D01*
X130286429Y-84240714D01*
X130619762Y-84240714D02*
X130619762Y-84907381D01*
X130619762Y-84335952D02*
X130667381Y-84288333D01*
X130762619Y-84240714D01*
X130905477Y-84240714D01*
X131000715Y-84288333D01*
X131048334Y-84383571D01*
X131048334Y-84907381D01*
X131953096Y-84907381D02*
X131953096Y-84383571D01*
X131905477Y-84288333D01*
X131810239Y-84240714D01*
X131619762Y-84240714D01*
X131524524Y-84288333D01*
X131953096Y-84859762D02*
X131857858Y-84907381D01*
X131619762Y-84907381D01*
X131524524Y-84859762D01*
X131476905Y-84764524D01*
X131476905Y-84669286D01*
X131524524Y-84574048D01*
X131619762Y-84526429D01*
X131857858Y-84526429D01*
X131953096Y-84478810D01*
X132572143Y-84907381D02*
X132476905Y-84859762D01*
X132429286Y-84764524D01*
X132429286Y-83907381D01*
X133715001Y-84907381D02*
X133715001Y-83907381D01*
X134286430Y-84907381D02*
X133857858Y-84335952D01*
X134286430Y-83907381D02*
X133715001Y-84478810D01*
X135095954Y-84859762D02*
X135000716Y-84907381D01*
X134810239Y-84907381D01*
X134715001Y-84859762D01*
X134667382Y-84764524D01*
X134667382Y-84383571D01*
X134715001Y-84288333D01*
X134810239Y-84240714D01*
X135000716Y-84240714D01*
X135095954Y-84288333D01*
X135143573Y-84383571D01*
X135143573Y-84478810D01*
X134667382Y-84574048D01*
X135476906Y-84240714D02*
X135715001Y-84907381D01*
X135953097Y-84240714D02*
X135715001Y-84907381D01*
X135619763Y-85145476D01*
X135572144Y-85193095D01*
X135476906Y-85240714D01*
X136334049Y-84240714D02*
X136334049Y-85240714D01*
X136334049Y-84288333D02*
X136429287Y-84240714D01*
X136619764Y-84240714D01*
X136715002Y-84288333D01*
X136762621Y-84335952D01*
X136810240Y-84431190D01*
X136810240Y-84716905D01*
X136762621Y-84812143D01*
X136715002Y-84859762D01*
X136619764Y-84907381D01*
X136429287Y-84907381D01*
X136334049Y-84859762D01*
X137667383Y-84907381D02*
X137667383Y-84383571D01*
X137619764Y-84288333D01*
X137524526Y-84240714D01*
X137334049Y-84240714D01*
X137238811Y-84288333D01*
X137667383Y-84859762D02*
X137572145Y-84907381D01*
X137334049Y-84907381D01*
X137238811Y-84859762D01*
X137191192Y-84764524D01*
X137191192Y-84669286D01*
X137238811Y-84574048D01*
X137334049Y-84526429D01*
X137572145Y-84526429D01*
X137667383Y-84478810D01*
X138572145Y-84907381D02*
X138572145Y-83907381D01*
X138572145Y-84859762D02*
X138476907Y-84907381D01*
X138286430Y-84907381D01*
X138191192Y-84859762D01*
X138143573Y-84812143D01*
X138095954Y-84716905D01*
X138095954Y-84431190D01*
X138143573Y-84335952D01*
X138191192Y-84288333D01*
X138286430Y-84240714D01*
X138476907Y-84240714D01*
X138572145Y-84288333D01*
D11*
X129572144Y-82593571D02*
X129072144Y-81879286D01*
X128715001Y-82593571D02*
X128715001Y-81093571D01*
X129286429Y-81093571D01*
X129429287Y-81165000D01*
X129500715Y-81236429D01*
X129572144Y-81379286D01*
X129572144Y-81593571D01*
X129500715Y-81736429D01*
X129429287Y-81807857D01*
X129286429Y-81879286D01*
X128715001Y-81879286D01*
X131072144Y-82450714D02*
X131000715Y-82522143D01*
X130786429Y-82593571D01*
X130643572Y-82593571D01*
X130429287Y-82522143D01*
X130286429Y-82379286D01*
X130215001Y-82236429D01*
X130143572Y-81950714D01*
X130143572Y-81736429D01*
X130215001Y-81450714D01*
X130286429Y-81307857D01*
X130429287Y-81165000D01*
X130643572Y-81093571D01*
X130786429Y-81093571D01*
X131000715Y-81165000D01*
X131072144Y-81236429D01*
X132357858Y-81093571D02*
X132072144Y-81093571D01*
X131929287Y-81165000D01*
X131857858Y-81236429D01*
X131715001Y-81450714D01*
X131643572Y-81736429D01*
X131643572Y-82307857D01*
X131715001Y-82450714D01*
X131786429Y-82522143D01*
X131929287Y-82593571D01*
X132215001Y-82593571D01*
X132357858Y-82522143D01*
X132429287Y-82450714D01*
X132500715Y-82307857D01*
X132500715Y-81950714D01*
X132429287Y-81807857D01*
X132357858Y-81736429D01*
X132215001Y-81665000D01*
X131929287Y-81665000D01*
X131786429Y-81736429D01*
X131715001Y-81807857D01*
X131643572Y-81950714D01*
X133357858Y-81736429D02*
X133215000Y-81665000D01*
X133143572Y-81593571D01*
X133072143Y-81450714D01*
X133072143Y-81379286D01*
X133143572Y-81236429D01*
X133215000Y-81165000D01*
X133357858Y-81093571D01*
X133643572Y-81093571D01*
X133786429Y-81165000D01*
X133857858Y-81236429D01*
X133929286Y-81379286D01*
X133929286Y-81450714D01*
X133857858Y-81593571D01*
X133786429Y-81665000D01*
X133643572Y-81736429D01*
X133357858Y-81736429D01*
X133215000Y-81807857D01*
X133143572Y-81879286D01*
X133072143Y-82022143D01*
X133072143Y-82307857D01*
X133143572Y-82450714D01*
X133215000Y-82522143D01*
X133357858Y-82593571D01*
X133643572Y-82593571D01*
X133786429Y-82522143D01*
X133857858Y-82450714D01*
X133929286Y-82307857D01*
X133929286Y-82022143D01*
X133857858Y-81879286D01*
X133786429Y-81807857D01*
X133643572Y-81736429D01*
X134857857Y-81093571D02*
X135000714Y-81093571D01*
X135143571Y-81165000D01*
X135215000Y-81236429D01*
X135286429Y-81379286D01*
X135357857Y-81665000D01*
X135357857Y-82022143D01*
X135286429Y-82307857D01*
X135215000Y-82450714D01*
X135143571Y-82522143D01*
X135000714Y-82593571D01*
X134857857Y-82593571D01*
X134715000Y-82522143D01*
X134643571Y-82450714D01*
X134572143Y-82307857D01*
X134500714Y-82022143D01*
X134500714Y-81665000D01*
X134572143Y-81379286D01*
X134643571Y-81236429D01*
X134715000Y-81165000D01*
X134857857Y-81093571D01*
X135929285Y-81236429D02*
X136000714Y-81165000D01*
X136143571Y-81093571D01*
X136500714Y-81093571D01*
X136643571Y-81165000D01*
X136715000Y-81236429D01*
X136786428Y-81379286D01*
X136786428Y-81522143D01*
X136715000Y-81736429D01*
X135857857Y-82593571D01*
X136786428Y-82593571D01*
D13*
X125730000Y-140970000D02*
X125730000Y-101600000D01*
X171450000Y-140970000D02*
X125730000Y-140970000D01*
X171450000Y-101600000D02*
X171450000Y-140970000D01*
X125730000Y-101600000D02*
X171450000Y-101600000D01*
X125730000Y-100330000D02*
X125730000Y-89535000D01*
X171450000Y-100330000D02*
X125730000Y-100330000D01*
X171450000Y-89535000D02*
X171450000Y-100330000D01*
X125730000Y-89535000D02*
X171450000Y-89535000D01*
D14*
X122936000Y-137160000D02*
G75*
G03X122936000Y-137160000I-2286000J0D01*
G01*
X178816000Y-137160000D02*
G75*
G03X178816000Y-137160000I-2286000J0D01*
G01*
X178816000Y-84455000D02*
G75*
G03X178816000Y-84455000I-2286000J0D01*
G01*
X122936000Y-84455000D02*
G75*
G03X122936000Y-84455000I-2286000J0D01*
G01*
X163560000Y-97575000D02*
X168060000Y-97575000D01*
X162310000Y-93575000D02*
X162310000Y-95075000D01*
X168060000Y-91075000D02*
X163560000Y-91075000D01*
X169310000Y-95075000D02*
X169310000Y-93575000D01*
X129270000Y-138215000D02*
X133770000Y-138215000D01*
X128020000Y-134215000D02*
X128020000Y-135715000D01*
X133770000Y-131715000D02*
X129270000Y-131715000D01*
X135020000Y-135715000D02*
X135020000Y-134215000D01*
X129270000Y-128690000D02*
X133770000Y-128690000D01*
X128020000Y-124690000D02*
X128020000Y-126190000D01*
X133770000Y-122190000D02*
X129270000Y-122190000D01*
X135020000Y-126190000D02*
X135020000Y-124690000D01*
X129270000Y-119165000D02*
X133770000Y-119165000D01*
X128020000Y-115165000D02*
X128020000Y-116665000D01*
X133770000Y-112665000D02*
X129270000Y-112665000D01*
X135020000Y-116665000D02*
X135020000Y-115165000D01*
X129270000Y-109640000D02*
X133770000Y-109640000D01*
X128020000Y-105640000D02*
X128020000Y-107140000D01*
X133770000Y-103140000D02*
X129270000Y-103140000D01*
X135020000Y-107140000D02*
X135020000Y-105640000D01*
X140700000Y-138215000D02*
X145200000Y-138215000D01*
X139450000Y-134215000D02*
X139450000Y-135715000D01*
X145200000Y-131715000D02*
X140700000Y-131715000D01*
X146450000Y-135715000D02*
X146450000Y-134215000D01*
X140700000Y-128690000D02*
X145200000Y-128690000D01*
X139450000Y-124690000D02*
X139450000Y-126190000D01*
X145200000Y-122190000D02*
X140700000Y-122190000D01*
X146450000Y-126190000D02*
X146450000Y-124690000D01*
X140700000Y-119165000D02*
X145200000Y-119165000D01*
X139450000Y-115165000D02*
X139450000Y-116665000D01*
X145200000Y-112665000D02*
X140700000Y-112665000D01*
X146450000Y-116665000D02*
X146450000Y-115165000D01*
X140700000Y-109640000D02*
X145200000Y-109640000D01*
X139450000Y-105640000D02*
X139450000Y-107140000D01*
X145200000Y-103140000D02*
X140700000Y-103140000D01*
X146450000Y-107140000D02*
X146450000Y-105640000D01*
X152130000Y-138215000D02*
X156630000Y-138215000D01*
X150880000Y-134215000D02*
X150880000Y-135715000D01*
X156630000Y-131715000D02*
X152130000Y-131715000D01*
X157880000Y-135715000D02*
X157880000Y-134215000D01*
X152130000Y-128690000D02*
X156630000Y-128690000D01*
X150880000Y-124690000D02*
X150880000Y-126190000D01*
X156630000Y-122190000D02*
X152130000Y-122190000D01*
X157880000Y-126190000D02*
X157880000Y-124690000D01*
X152130000Y-119165000D02*
X156630000Y-119165000D01*
X150880000Y-115165000D02*
X150880000Y-116665000D01*
X156630000Y-112665000D02*
X152130000Y-112665000D01*
X157880000Y-116665000D02*
X157880000Y-115165000D01*
X152130000Y-109640000D02*
X156630000Y-109640000D01*
X150880000Y-105640000D02*
X150880000Y-107140000D01*
X156630000Y-103140000D02*
X152130000Y-103140000D01*
X157880000Y-107140000D02*
X157880000Y-105640000D01*
X163560000Y-138215000D02*
X168060000Y-138215000D01*
X162310000Y-134215000D02*
X162310000Y-135715000D01*
X168060000Y-131715000D02*
X163560000Y-131715000D01*
X169310000Y-135715000D02*
X169310000Y-134215000D01*
X163560000Y-128690000D02*
X168060000Y-128690000D01*
X162310000Y-124690000D02*
X162310000Y-126190000D01*
X168060000Y-122190000D02*
X163560000Y-122190000D01*
X169310000Y-126190000D02*
X169310000Y-124690000D01*
X163560000Y-119165000D02*
X168060000Y-119165000D01*
X162310000Y-115165000D02*
X162310000Y-116665000D01*
X168060000Y-112665000D02*
X163560000Y-112665000D01*
X169310000Y-116665000D02*
X169310000Y-115165000D01*
X163560000Y-109640000D02*
X168060000Y-109640000D01*
X162310000Y-105640000D02*
X162310000Y-107140000D01*
X168060000Y-103140000D02*
X163560000Y-103140000D01*
X169310000Y-107140000D02*
X169310000Y-105640000D01*
X142180000Y-81220000D02*
X142180000Y-86420000D01*
X152400000Y-81220000D02*
X142180000Y-81220000D01*
X155000000Y-86420000D02*
X142180000Y-86420000D01*
X152400000Y-81220000D02*
X152400000Y-83820000D01*
X152400000Y-83820000D02*
X155000000Y-83820000D01*
X155000000Y-83820000D02*
X155000000Y-86420000D01*
X153670000Y-81220000D02*
X155000000Y-81220000D01*
X155000000Y-81220000D02*
X155000000Y-82550000D01*
D12*
X164282619Y-99512381D02*
X163949285Y-99036190D01*
X163711190Y-99512381D02*
X163711190Y-98512381D01*
X164092143Y-98512381D01*
X164187381Y-98560000D01*
X164235000Y-98607619D01*
X164282619Y-98702857D01*
X164282619Y-98845714D01*
X164235000Y-98940952D01*
X164187381Y-98988571D01*
X164092143Y-99036190D01*
X163711190Y-99036190D01*
X164711190Y-98988571D02*
X165044524Y-98988571D01*
X165187381Y-99512381D02*
X164711190Y-99512381D01*
X164711190Y-98512381D01*
X165187381Y-98512381D01*
X165568333Y-99464762D02*
X165711190Y-99512381D01*
X165949286Y-99512381D01*
X166044524Y-99464762D01*
X166092143Y-99417143D01*
X166139762Y-99321905D01*
X166139762Y-99226667D01*
X166092143Y-99131429D01*
X166044524Y-99083810D01*
X165949286Y-99036190D01*
X165758809Y-98988571D01*
X165663571Y-98940952D01*
X165615952Y-98893333D01*
X165568333Y-98798095D01*
X165568333Y-98702857D01*
X165615952Y-98607619D01*
X165663571Y-98560000D01*
X165758809Y-98512381D01*
X165996905Y-98512381D01*
X166139762Y-98560000D01*
X166568333Y-98988571D02*
X166901667Y-98988571D01*
X167044524Y-99512381D02*
X166568333Y-99512381D01*
X166568333Y-98512381D01*
X167044524Y-98512381D01*
X167330238Y-98512381D02*
X167901667Y-98512381D01*
X167615952Y-99512381D02*
X167615952Y-98512381D01*
X131825953Y-139152381D02*
X131064048Y-140152381D01*
X131349762Y-140152381D02*
X131254524Y-140104762D01*
X131159286Y-140009524D01*
X131111667Y-139819048D01*
X131111667Y-139485714D01*
X131159286Y-139295238D01*
X131254524Y-139200000D01*
X131349762Y-139152381D01*
X131540239Y-139152381D01*
X131635477Y-139200000D01*
X131730715Y-139295238D01*
X131778334Y-139485714D01*
X131778334Y-139819048D01*
X131730715Y-140009524D01*
X131635477Y-140104762D01*
X131540239Y-140152381D01*
X131349762Y-140152381D01*
X131635477Y-129960714D02*
X131635477Y-130627381D01*
X131397381Y-129579762D02*
X131159286Y-130294048D01*
X131778334Y-130294048D01*
X131349762Y-120530952D02*
X131254524Y-120483333D01*
X131206905Y-120435714D01*
X131159286Y-120340476D01*
X131159286Y-120292857D01*
X131206905Y-120197619D01*
X131254524Y-120150000D01*
X131349762Y-120102381D01*
X131540239Y-120102381D01*
X131635477Y-120150000D01*
X131683096Y-120197619D01*
X131730715Y-120292857D01*
X131730715Y-120340476D01*
X131683096Y-120435714D01*
X131635477Y-120483333D01*
X131540239Y-120530952D01*
X131349762Y-120530952D01*
X131254524Y-120578571D01*
X131206905Y-120626190D01*
X131159286Y-120721429D01*
X131159286Y-120911905D01*
X131206905Y-121007143D01*
X131254524Y-121054762D01*
X131349762Y-121102381D01*
X131540239Y-121102381D01*
X131635477Y-121054762D01*
X131683096Y-121007143D01*
X131730715Y-120911905D01*
X131730715Y-120721429D01*
X131683096Y-120626190D01*
X131635477Y-120578571D01*
X131540239Y-120530952D01*
X131754524Y-111482143D02*
X131706905Y-111529762D01*
X131564048Y-111577381D01*
X131468810Y-111577381D01*
X131325952Y-111529762D01*
X131230714Y-111434524D01*
X131183095Y-111339286D01*
X131135476Y-111148810D01*
X131135476Y-111005952D01*
X131183095Y-110815476D01*
X131230714Y-110720238D01*
X131325952Y-110625000D01*
X131468810Y-110577381D01*
X131564048Y-110577381D01*
X131706905Y-110625000D01*
X131754524Y-110672619D01*
X143160715Y-140152381D02*
X142589286Y-140152381D01*
X142875000Y-140152381D02*
X142875000Y-139152381D01*
X142779762Y-139295238D01*
X142684524Y-139390476D01*
X142589286Y-139438095D01*
X143113096Y-129627381D02*
X142636905Y-129627381D01*
X142589286Y-130103571D01*
X142636905Y-130055952D01*
X142732143Y-130008333D01*
X142970239Y-130008333D01*
X143065477Y-130055952D01*
X143113096Y-130103571D01*
X143160715Y-130198810D01*
X143160715Y-130436905D01*
X143113096Y-130532143D01*
X143065477Y-130579762D01*
X142970239Y-130627381D01*
X142732143Y-130627381D01*
X142636905Y-130579762D01*
X142589286Y-130532143D01*
X142684524Y-121102381D02*
X142875000Y-121102381D01*
X142970239Y-121054762D01*
X143017858Y-121007143D01*
X143113096Y-120864286D01*
X143160715Y-120673810D01*
X143160715Y-120292857D01*
X143113096Y-120197619D01*
X143065477Y-120150000D01*
X142970239Y-120102381D01*
X142779762Y-120102381D01*
X142684524Y-120150000D01*
X142636905Y-120197619D01*
X142589286Y-120292857D01*
X142589286Y-120530952D01*
X142636905Y-120626190D01*
X142684524Y-120673810D01*
X142779762Y-120721429D01*
X142970239Y-120721429D01*
X143065477Y-120673810D01*
X143113096Y-120626190D01*
X143160715Y-120530952D01*
X142613095Y-111577381D02*
X142613095Y-110577381D01*
X142851190Y-110577381D01*
X142994048Y-110625000D01*
X143089286Y-110720238D01*
X143136905Y-110815476D01*
X143184524Y-111005952D01*
X143184524Y-111148810D01*
X143136905Y-111339286D01*
X143089286Y-111434524D01*
X142994048Y-111529762D01*
X142851190Y-111577381D01*
X142613095Y-111577381D01*
X154019286Y-139247619D02*
X154066905Y-139200000D01*
X154162143Y-139152381D01*
X154400239Y-139152381D01*
X154495477Y-139200000D01*
X154543096Y-139247619D01*
X154590715Y-139342857D01*
X154590715Y-139438095D01*
X154543096Y-139580952D01*
X153971667Y-140152381D01*
X154590715Y-140152381D01*
X154495477Y-129627381D02*
X154305000Y-129627381D01*
X154209762Y-129675000D01*
X154162143Y-129722619D01*
X154066905Y-129865476D01*
X154019286Y-130055952D01*
X154019286Y-130436905D01*
X154066905Y-130532143D01*
X154114524Y-130579762D01*
X154209762Y-130627381D01*
X154400239Y-130627381D01*
X154495477Y-130579762D01*
X154543096Y-130532143D01*
X154590715Y-130436905D01*
X154590715Y-130198810D01*
X154543096Y-130103571D01*
X154495477Y-130055952D01*
X154400239Y-130008333D01*
X154209762Y-130008333D01*
X154114524Y-130055952D01*
X154066905Y-130103571D01*
X154019286Y-130198810D01*
X154066905Y-120816667D02*
X154543096Y-120816667D01*
X153971667Y-121102381D02*
X154305000Y-120102381D01*
X154638334Y-121102381D01*
X154090714Y-111053571D02*
X154424048Y-111053571D01*
X154566905Y-111577381D02*
X154090714Y-111577381D01*
X154090714Y-110577381D01*
X154566905Y-110577381D01*
X165401667Y-139152381D02*
X166020715Y-139152381D01*
X165687381Y-139533333D01*
X165830239Y-139533333D01*
X165925477Y-139580952D01*
X165973096Y-139628571D01*
X166020715Y-139723810D01*
X166020715Y-139961905D01*
X165973096Y-140057143D01*
X165925477Y-140104762D01*
X165830239Y-140152381D01*
X165544524Y-140152381D01*
X165449286Y-140104762D01*
X165401667Y-140057143D01*
X165401667Y-129627381D02*
X166068334Y-129627381D01*
X165639762Y-130627381D01*
X165806429Y-120578571D02*
X165949286Y-120626190D01*
X165996905Y-120673810D01*
X166044524Y-120769048D01*
X166044524Y-120911905D01*
X165996905Y-121007143D01*
X165949286Y-121054762D01*
X165854048Y-121102381D01*
X165473095Y-121102381D01*
X165473095Y-120102381D01*
X165806429Y-120102381D01*
X165901667Y-120150000D01*
X165949286Y-120197619D01*
X165996905Y-120292857D01*
X165996905Y-120388095D01*
X165949286Y-120483333D01*
X165901667Y-120530952D01*
X165806429Y-120578571D01*
X165473095Y-120578571D01*
X165877858Y-111053571D02*
X165544524Y-111053571D01*
X165544524Y-111577381D02*
X165544524Y-110577381D01*
X166020715Y-110577381D01*
M02*
