G04 #@! TF.FileFunction,Legend,Bot*
%FSLAX46Y46*%
G04 Gerber Fmt 4.6, Leading zero omitted, Abs format (unit mm)*
G04 Created by KiCad (PCBNEW 4.0.7) date 09/22/19 17:23:35*
%MOMM*%
%LPD*%
G01*
G04 APERTURE LIST*
%ADD10C,0.100000*%
%ADD11C,0.150000*%
G04 APERTURE END LIST*
D10*
D11*
X135810238Y-84907381D02*
X136143572Y-84431190D01*
X136381667Y-84907381D02*
X136381667Y-83907381D01*
X136000714Y-83907381D01*
X135905476Y-83955000D01*
X135857857Y-84002619D01*
X135810238Y-84097857D01*
X135810238Y-84240714D01*
X135857857Y-84335952D01*
X135905476Y-84383571D01*
X136000714Y-84431190D01*
X136381667Y-84431190D01*
X135000714Y-84859762D02*
X135095952Y-84907381D01*
X135286429Y-84907381D01*
X135381667Y-84859762D01*
X135429286Y-84764524D01*
X135429286Y-84383571D01*
X135381667Y-84288333D01*
X135286429Y-84240714D01*
X135095952Y-84240714D01*
X135000714Y-84288333D01*
X134953095Y-84383571D01*
X134953095Y-84478810D01*
X135429286Y-84574048D01*
X134619762Y-84240714D02*
X134381667Y-84907381D01*
X134143571Y-84240714D01*
X133762619Y-84907381D02*
X133762619Y-84240714D01*
X133762619Y-83907381D02*
X133810238Y-83955000D01*
X133762619Y-84002619D01*
X133715000Y-83955000D01*
X133762619Y-83907381D01*
X133762619Y-84002619D01*
X133334048Y-84859762D02*
X133238810Y-84907381D01*
X133048334Y-84907381D01*
X132953095Y-84859762D01*
X132905476Y-84764524D01*
X132905476Y-84716905D01*
X132953095Y-84621667D01*
X133048334Y-84574048D01*
X133191191Y-84574048D01*
X133286429Y-84526429D01*
X133334048Y-84431190D01*
X133334048Y-84383571D01*
X133286429Y-84288333D01*
X133191191Y-84240714D01*
X133048334Y-84240714D01*
X132953095Y-84288333D01*
X132476905Y-84907381D02*
X132476905Y-84240714D01*
X132476905Y-83907381D02*
X132524524Y-83955000D01*
X132476905Y-84002619D01*
X132429286Y-83955000D01*
X132476905Y-83907381D01*
X132476905Y-84002619D01*
X131857858Y-84907381D02*
X131953096Y-84859762D01*
X132000715Y-84812143D01*
X132048334Y-84716905D01*
X132048334Y-84431190D01*
X132000715Y-84335952D01*
X131953096Y-84288333D01*
X131857858Y-84240714D01*
X131715000Y-84240714D01*
X131619762Y-84288333D01*
X131572143Y-84335952D01*
X131524524Y-84431190D01*
X131524524Y-84716905D01*
X131572143Y-84812143D01*
X131619762Y-84859762D01*
X131715000Y-84907381D01*
X131857858Y-84907381D01*
X131095953Y-84240714D02*
X131095953Y-84907381D01*
X131095953Y-84335952D02*
X131048334Y-84288333D01*
X130953096Y-84240714D01*
X130810238Y-84240714D01*
X130715000Y-84288333D01*
X130667381Y-84383571D01*
X130667381Y-84907381D01*
X129476905Y-84621667D02*
X129000714Y-84621667D01*
X129572143Y-84907381D02*
X129238810Y-83907381D01*
X128905476Y-84907381D01*
M02*
