G04 #@! TF.FileFunction,Copper,L2,Bot,Signal*
%FSLAX46Y46*%
G04 Gerber Fmt 4.6, Leading zero omitted, Abs format (unit mm)*
G04 Created by KiCad (PCBNEW 4.0.7) date 09/22/19 17:23:35*
%MOMM*%
%LPD*%
G01*
G04 APERTURE LIST*
%ADD10C,0.100000*%
%ADD11C,5.000000*%
%ADD12C,2.000000*%
%ADD13R,1.700000X1.700000*%
%ADD14O,1.700000X1.700000*%
%ADD15C,0.600000*%
%ADD16C,0.250000*%
%ADD17C,0.254000*%
G04 APERTURE END LIST*
D10*
D11*
X120650000Y-137160000D03*
X176530000Y-137160000D03*
X176530000Y-84455000D03*
X120650000Y-84455000D03*
D12*
X162560000Y-96575000D03*
X162560000Y-92075000D03*
X169060000Y-96575000D03*
X169060000Y-92075000D03*
X128270000Y-137215000D03*
X128270000Y-132715000D03*
X134770000Y-137215000D03*
X134770000Y-132715000D03*
X128270000Y-127690000D03*
X128270000Y-123190000D03*
X134770000Y-127690000D03*
X134770000Y-123190000D03*
X128270000Y-118165000D03*
X128270000Y-113665000D03*
X134770000Y-118165000D03*
X134770000Y-113665000D03*
X128270000Y-108640000D03*
X128270000Y-104140000D03*
X134770000Y-108640000D03*
X134770000Y-104140000D03*
X139700000Y-137215000D03*
X139700000Y-132715000D03*
X146200000Y-137215000D03*
X146200000Y-132715000D03*
X139700000Y-127690000D03*
X139700000Y-123190000D03*
X146200000Y-127690000D03*
X146200000Y-123190000D03*
X139700000Y-118165000D03*
X139700000Y-113665000D03*
X146200000Y-118165000D03*
X146200000Y-113665000D03*
X139700000Y-108640000D03*
X139700000Y-104140000D03*
X146200000Y-108640000D03*
X146200000Y-104140000D03*
X151130000Y-137215000D03*
X151130000Y-132715000D03*
X157630000Y-137215000D03*
X157630000Y-132715000D03*
X151130000Y-127690000D03*
X151130000Y-123190000D03*
X157630000Y-127690000D03*
X157630000Y-123190000D03*
X151130000Y-118165000D03*
X151130000Y-113665000D03*
X157630000Y-118165000D03*
X157630000Y-113665000D03*
X151130000Y-108640000D03*
X151130000Y-104140000D03*
X157630000Y-108640000D03*
X157630000Y-104140000D03*
X162560000Y-137215000D03*
X162560000Y-132715000D03*
X169060000Y-137215000D03*
X169060000Y-132715000D03*
X162560000Y-127690000D03*
X162560000Y-123190000D03*
X169060000Y-127690000D03*
X169060000Y-123190000D03*
X162560000Y-118165000D03*
X162560000Y-113665000D03*
X169060000Y-118165000D03*
X169060000Y-113665000D03*
X162560000Y-108640000D03*
X162560000Y-104140000D03*
X169060000Y-108640000D03*
X169060000Y-104140000D03*
D13*
X153670000Y-82550000D03*
D14*
X153670000Y-85090000D03*
X151130000Y-82550000D03*
X151130000Y-85090000D03*
X148590000Y-82550000D03*
X148590000Y-85090000D03*
X146050000Y-82550000D03*
X146050000Y-85090000D03*
X143510000Y-82550000D03*
X143510000Y-85090000D03*
D15*
X170815000Y-103505000D03*
X160655000Y-107315000D03*
X160020000Y-127635000D03*
X159385000Y-103505000D03*
X148590000Y-118110000D03*
X149225000Y-107315000D03*
X147955000Y-103505000D03*
X136525000Y-103505000D03*
D16*
X169060000Y-123190000D02*
X170180000Y-123190000D01*
X170180000Y-123190000D02*
X170815000Y-122555000D01*
X169060000Y-113665000D02*
X170180000Y-113665000D01*
X170180000Y-113665000D02*
X170815000Y-113030000D01*
X169060000Y-104140000D02*
X170180000Y-104140000D01*
X170180000Y-104140000D02*
X170815000Y-103505000D01*
X169060000Y-132715000D02*
X170180000Y-132715000D01*
X170180000Y-132715000D02*
X170815000Y-132080000D01*
X170815000Y-132080000D02*
X170815000Y-122555000D01*
X170815000Y-122555000D02*
X170815000Y-113030000D01*
X170815000Y-113030000D02*
X170815000Y-103505000D01*
X160655000Y-127000000D02*
X160020000Y-127635000D01*
X160655000Y-107315000D02*
X160655000Y-127000000D01*
X159385000Y-122555000D02*
X159385000Y-132080000D01*
X158750000Y-132715000D02*
X157630000Y-132715000D01*
X159385000Y-132080000D02*
X158750000Y-132715000D01*
X159385000Y-113030000D02*
X159385000Y-122555000D01*
X158750000Y-123190000D02*
X157630000Y-123190000D01*
X159385000Y-122555000D02*
X158750000Y-123190000D01*
X159385000Y-103505000D02*
X159385000Y-113030000D01*
X158750000Y-113665000D02*
X157630000Y-113665000D01*
X159385000Y-113030000D02*
X158750000Y-113665000D01*
X157630000Y-104140000D02*
X158750000Y-104140000D01*
X158750000Y-104140000D02*
X159385000Y-103505000D01*
X149225000Y-107315000D02*
X149225000Y-117475000D01*
X148590000Y-118110000D02*
X149225000Y-117475000D01*
X146200000Y-104140000D02*
X147320000Y-104140000D01*
X147320000Y-104140000D02*
X147955000Y-103505000D01*
X146200000Y-113665000D02*
X147320000Y-113665000D01*
X147320000Y-113665000D02*
X147955000Y-113030000D01*
X146200000Y-123190000D02*
X147320000Y-123190000D01*
X147320000Y-123190000D02*
X147955000Y-122555000D01*
X146200000Y-132715000D02*
X147320000Y-132715000D01*
X147320000Y-132715000D02*
X147955000Y-132080000D01*
X147955000Y-132080000D02*
X147955000Y-122555000D01*
X147955000Y-122555000D02*
X147955000Y-113030000D01*
X147955000Y-113030000D02*
X147955000Y-103505000D01*
X134770000Y-123190000D02*
X135890000Y-123190000D01*
X135890000Y-123190000D02*
X136525000Y-122555000D01*
X134770000Y-113665000D02*
X135890000Y-113665000D01*
X135890000Y-113665000D02*
X136525000Y-113030000D01*
X134770000Y-104140000D02*
X135890000Y-104140000D01*
X135890000Y-104140000D02*
X136525000Y-103505000D01*
X136525000Y-123825000D02*
X136525000Y-122555000D01*
X136525000Y-122555000D02*
X136525000Y-113030000D01*
X136525000Y-113030000D02*
X136525000Y-103505000D01*
X134770000Y-132715000D02*
X135890000Y-132715000D01*
X136525000Y-132080000D02*
X136525000Y-123825000D01*
X135890000Y-132715000D02*
X136525000Y-132080000D01*
D17*
G36*
X177954001Y-81017161D02*
X179161209Y-81823791D01*
X179967839Y-83031001D01*
X180265000Y-84524931D01*
X180265000Y-137090069D01*
X179967839Y-138583999D01*
X179161209Y-139791209D01*
X177954001Y-140597839D01*
X176460069Y-140895000D01*
X120719931Y-140895000D01*
X119226001Y-140597839D01*
X118018791Y-139791209D01*
X117212161Y-138584001D01*
X117052406Y-137780854D01*
X117514457Y-137780854D01*
X117990727Y-138933515D01*
X118871847Y-139816174D01*
X120023674Y-140294454D01*
X121270854Y-140295543D01*
X122423515Y-139819273D01*
X123306174Y-138938153D01*
X123784454Y-137786326D01*
X123784670Y-137538795D01*
X126634716Y-137538795D01*
X126883106Y-138139943D01*
X127342637Y-138600278D01*
X127943352Y-138849716D01*
X128593795Y-138850284D01*
X129194943Y-138601894D01*
X129655278Y-138142363D01*
X129904716Y-137541648D01*
X129904718Y-137538795D01*
X133134716Y-137538795D01*
X133383106Y-138139943D01*
X133842637Y-138600278D01*
X134443352Y-138849716D01*
X135093795Y-138850284D01*
X135694943Y-138601894D01*
X136155278Y-138142363D01*
X136404716Y-137541648D01*
X136404718Y-137538795D01*
X138064716Y-137538795D01*
X138313106Y-138139943D01*
X138772637Y-138600278D01*
X139373352Y-138849716D01*
X140023795Y-138850284D01*
X140624943Y-138601894D01*
X141085278Y-138142363D01*
X141334716Y-137541648D01*
X141334718Y-137538795D01*
X144564716Y-137538795D01*
X144813106Y-138139943D01*
X145272637Y-138600278D01*
X145873352Y-138849716D01*
X146523795Y-138850284D01*
X147124943Y-138601894D01*
X147585278Y-138142363D01*
X147834716Y-137541648D01*
X147834718Y-137538795D01*
X149494716Y-137538795D01*
X149743106Y-138139943D01*
X150202637Y-138600278D01*
X150803352Y-138849716D01*
X151453795Y-138850284D01*
X152054943Y-138601894D01*
X152515278Y-138142363D01*
X152764716Y-137541648D01*
X152764718Y-137538795D01*
X155994716Y-137538795D01*
X156243106Y-138139943D01*
X156702637Y-138600278D01*
X157303352Y-138849716D01*
X157953795Y-138850284D01*
X158554943Y-138601894D01*
X159015278Y-138142363D01*
X159264716Y-137541648D01*
X159264718Y-137538795D01*
X160924716Y-137538795D01*
X161173106Y-138139943D01*
X161632637Y-138600278D01*
X162233352Y-138849716D01*
X162883795Y-138850284D01*
X163484943Y-138601894D01*
X163945278Y-138142363D01*
X164194716Y-137541648D01*
X164194718Y-137538795D01*
X167424716Y-137538795D01*
X167673106Y-138139943D01*
X168132637Y-138600278D01*
X168733352Y-138849716D01*
X169383795Y-138850284D01*
X169984943Y-138601894D01*
X170445278Y-138142363D01*
X170595389Y-137780854D01*
X173394457Y-137780854D01*
X173870727Y-138933515D01*
X174751847Y-139816174D01*
X175903674Y-140294454D01*
X177150854Y-140295543D01*
X178303515Y-139819273D01*
X179186174Y-138938153D01*
X179664454Y-137786326D01*
X179665543Y-136539146D01*
X179189273Y-135386485D01*
X178308153Y-134503826D01*
X177156326Y-134025546D01*
X175909146Y-134024457D01*
X174756485Y-134500727D01*
X173873826Y-135381847D01*
X173395546Y-136533674D01*
X173394457Y-137780854D01*
X170595389Y-137780854D01*
X170694716Y-137541648D01*
X170695284Y-136891205D01*
X170446894Y-136290057D01*
X169987363Y-135829722D01*
X169386648Y-135580284D01*
X168736205Y-135579716D01*
X168135057Y-135828106D01*
X167674722Y-136287637D01*
X167425284Y-136888352D01*
X167424716Y-137538795D01*
X164194718Y-137538795D01*
X164195284Y-136891205D01*
X163946894Y-136290057D01*
X163487363Y-135829722D01*
X162886648Y-135580284D01*
X162236205Y-135579716D01*
X161635057Y-135828106D01*
X161174722Y-136287637D01*
X160925284Y-136888352D01*
X160924716Y-137538795D01*
X159264718Y-137538795D01*
X159265284Y-136891205D01*
X159016894Y-136290057D01*
X158557363Y-135829722D01*
X157956648Y-135580284D01*
X157306205Y-135579716D01*
X156705057Y-135828106D01*
X156244722Y-136287637D01*
X155995284Y-136888352D01*
X155994716Y-137538795D01*
X152764718Y-137538795D01*
X152765284Y-136891205D01*
X152516894Y-136290057D01*
X152057363Y-135829722D01*
X151456648Y-135580284D01*
X150806205Y-135579716D01*
X150205057Y-135828106D01*
X149744722Y-136287637D01*
X149495284Y-136888352D01*
X149494716Y-137538795D01*
X147834718Y-137538795D01*
X147835284Y-136891205D01*
X147586894Y-136290057D01*
X147127363Y-135829722D01*
X146526648Y-135580284D01*
X145876205Y-135579716D01*
X145275057Y-135828106D01*
X144814722Y-136287637D01*
X144565284Y-136888352D01*
X144564716Y-137538795D01*
X141334718Y-137538795D01*
X141335284Y-136891205D01*
X141086894Y-136290057D01*
X140627363Y-135829722D01*
X140026648Y-135580284D01*
X139376205Y-135579716D01*
X138775057Y-135828106D01*
X138314722Y-136287637D01*
X138065284Y-136888352D01*
X138064716Y-137538795D01*
X136404718Y-137538795D01*
X136405284Y-136891205D01*
X136156894Y-136290057D01*
X135697363Y-135829722D01*
X135096648Y-135580284D01*
X134446205Y-135579716D01*
X133845057Y-135828106D01*
X133384722Y-136287637D01*
X133135284Y-136888352D01*
X133134716Y-137538795D01*
X129904718Y-137538795D01*
X129905284Y-136891205D01*
X129656894Y-136290057D01*
X129197363Y-135829722D01*
X128596648Y-135580284D01*
X127946205Y-135579716D01*
X127345057Y-135828106D01*
X126884722Y-136287637D01*
X126635284Y-136888352D01*
X126634716Y-137538795D01*
X123784670Y-137538795D01*
X123785543Y-136539146D01*
X123309273Y-135386485D01*
X122428153Y-134503826D01*
X121276326Y-134025546D01*
X120029146Y-134024457D01*
X118876485Y-134500727D01*
X117993826Y-135381847D01*
X117515546Y-136533674D01*
X117514457Y-137780854D01*
X117052406Y-137780854D01*
X116915000Y-137090069D01*
X116915000Y-133038795D01*
X126634716Y-133038795D01*
X126883106Y-133639943D01*
X127342637Y-134100278D01*
X127943352Y-134349716D01*
X128593795Y-134350284D01*
X129194943Y-134101894D01*
X129655278Y-133642363D01*
X129904716Y-133041648D01*
X129905284Y-132391205D01*
X129656894Y-131790057D01*
X129197363Y-131329722D01*
X128596648Y-131080284D01*
X127946205Y-131079716D01*
X127345057Y-131328106D01*
X126884722Y-131787637D01*
X126635284Y-132388352D01*
X126634716Y-133038795D01*
X116915000Y-133038795D01*
X116915000Y-128013795D01*
X126634716Y-128013795D01*
X126883106Y-128614943D01*
X127342637Y-129075278D01*
X127943352Y-129324716D01*
X128593795Y-129325284D01*
X129194943Y-129076894D01*
X129655278Y-128617363D01*
X129904716Y-128016648D01*
X129905284Y-127366205D01*
X129656894Y-126765057D01*
X129197363Y-126304722D01*
X128596648Y-126055284D01*
X127946205Y-126054716D01*
X127345057Y-126303106D01*
X126884722Y-126762637D01*
X126635284Y-127363352D01*
X126634716Y-128013795D01*
X116915000Y-128013795D01*
X116915000Y-123513795D01*
X126634716Y-123513795D01*
X126883106Y-124114943D01*
X127342637Y-124575278D01*
X127943352Y-124824716D01*
X128593795Y-124825284D01*
X129194943Y-124576894D01*
X129655278Y-124117363D01*
X129904716Y-123516648D01*
X129905284Y-122866205D01*
X129656894Y-122265057D01*
X129197363Y-121804722D01*
X128596648Y-121555284D01*
X127946205Y-121554716D01*
X127345057Y-121803106D01*
X126884722Y-122262637D01*
X126635284Y-122863352D01*
X126634716Y-123513795D01*
X116915000Y-123513795D01*
X116915000Y-118488795D01*
X126634716Y-118488795D01*
X126883106Y-119089943D01*
X127342637Y-119550278D01*
X127943352Y-119799716D01*
X128593795Y-119800284D01*
X129194943Y-119551894D01*
X129655278Y-119092363D01*
X129904716Y-118491648D01*
X129905284Y-117841205D01*
X129656894Y-117240057D01*
X129197363Y-116779722D01*
X128596648Y-116530284D01*
X127946205Y-116529716D01*
X127345057Y-116778106D01*
X126884722Y-117237637D01*
X126635284Y-117838352D01*
X126634716Y-118488795D01*
X116915000Y-118488795D01*
X116915000Y-113988795D01*
X126634716Y-113988795D01*
X126883106Y-114589943D01*
X127342637Y-115050278D01*
X127943352Y-115299716D01*
X128593795Y-115300284D01*
X129194943Y-115051894D01*
X129655278Y-114592363D01*
X129904716Y-113991648D01*
X129905284Y-113341205D01*
X129656894Y-112740057D01*
X129197363Y-112279722D01*
X128596648Y-112030284D01*
X127946205Y-112029716D01*
X127345057Y-112278106D01*
X126884722Y-112737637D01*
X126635284Y-113338352D01*
X126634716Y-113988795D01*
X116915000Y-113988795D01*
X116915000Y-108963795D01*
X126634716Y-108963795D01*
X126883106Y-109564943D01*
X127342637Y-110025278D01*
X127943352Y-110274716D01*
X128593795Y-110275284D01*
X129194943Y-110026894D01*
X129655278Y-109567363D01*
X129904716Y-108966648D01*
X129905284Y-108316205D01*
X129656894Y-107715057D01*
X129197363Y-107254722D01*
X128596648Y-107005284D01*
X127946205Y-107004716D01*
X127345057Y-107253106D01*
X126884722Y-107712637D01*
X126635284Y-108313352D01*
X126634716Y-108963795D01*
X116915000Y-108963795D01*
X116915000Y-104463795D01*
X126634716Y-104463795D01*
X126883106Y-105064943D01*
X127342637Y-105525278D01*
X127943352Y-105774716D01*
X128593795Y-105775284D01*
X129194943Y-105526894D01*
X129655278Y-105067363D01*
X129904716Y-104466648D01*
X129904718Y-104463795D01*
X133134716Y-104463795D01*
X133383106Y-105064943D01*
X133842637Y-105525278D01*
X134443352Y-105774716D01*
X135093795Y-105775284D01*
X135694943Y-105526894D01*
X135765000Y-105456959D01*
X135765000Y-107322477D01*
X135697363Y-107254722D01*
X135096648Y-107005284D01*
X134446205Y-107004716D01*
X133845057Y-107253106D01*
X133384722Y-107712637D01*
X133135284Y-108313352D01*
X133134716Y-108963795D01*
X133383106Y-109564943D01*
X133842637Y-110025278D01*
X134443352Y-110274716D01*
X135093795Y-110275284D01*
X135694943Y-110026894D01*
X135765000Y-109956959D01*
X135765000Y-112347477D01*
X135697363Y-112279722D01*
X135096648Y-112030284D01*
X134446205Y-112029716D01*
X133845057Y-112278106D01*
X133384722Y-112737637D01*
X133135284Y-113338352D01*
X133134716Y-113988795D01*
X133383106Y-114589943D01*
X133842637Y-115050278D01*
X134443352Y-115299716D01*
X135093795Y-115300284D01*
X135694943Y-115051894D01*
X135765000Y-114981959D01*
X135765000Y-116847477D01*
X135697363Y-116779722D01*
X135096648Y-116530284D01*
X134446205Y-116529716D01*
X133845057Y-116778106D01*
X133384722Y-117237637D01*
X133135284Y-117838352D01*
X133134716Y-118488795D01*
X133383106Y-119089943D01*
X133842637Y-119550278D01*
X134443352Y-119799716D01*
X135093795Y-119800284D01*
X135694943Y-119551894D01*
X135765000Y-119481959D01*
X135765000Y-121872477D01*
X135697363Y-121804722D01*
X135096648Y-121555284D01*
X134446205Y-121554716D01*
X133845057Y-121803106D01*
X133384722Y-122262637D01*
X133135284Y-122863352D01*
X133134716Y-123513795D01*
X133383106Y-124114943D01*
X133842637Y-124575278D01*
X134443352Y-124824716D01*
X135093795Y-124825284D01*
X135694943Y-124576894D01*
X135765000Y-124506959D01*
X135765000Y-126372477D01*
X135697363Y-126304722D01*
X135096648Y-126055284D01*
X134446205Y-126054716D01*
X133845057Y-126303106D01*
X133384722Y-126762637D01*
X133135284Y-127363352D01*
X133134716Y-128013795D01*
X133383106Y-128614943D01*
X133842637Y-129075278D01*
X134443352Y-129324716D01*
X135093795Y-129325284D01*
X135694943Y-129076894D01*
X135765000Y-129006959D01*
X135765000Y-131397477D01*
X135697363Y-131329722D01*
X135096648Y-131080284D01*
X134446205Y-131079716D01*
X133845057Y-131328106D01*
X133384722Y-131787637D01*
X133135284Y-132388352D01*
X133134716Y-133038795D01*
X133383106Y-133639943D01*
X133842637Y-134100278D01*
X134443352Y-134349716D01*
X135093795Y-134350284D01*
X135694943Y-134101894D01*
X136155278Y-133642363D01*
X136274890Y-133354306D01*
X136427401Y-133252401D01*
X136641007Y-133038795D01*
X138064716Y-133038795D01*
X138313106Y-133639943D01*
X138772637Y-134100278D01*
X139373352Y-134349716D01*
X140023795Y-134350284D01*
X140624943Y-134101894D01*
X141085278Y-133642363D01*
X141334716Y-133041648D01*
X141335284Y-132391205D01*
X141086894Y-131790057D01*
X140627363Y-131329722D01*
X140026648Y-131080284D01*
X139376205Y-131079716D01*
X138775057Y-131328106D01*
X138314722Y-131787637D01*
X138065284Y-132388352D01*
X138064716Y-133038795D01*
X136641007Y-133038795D01*
X137062401Y-132617401D01*
X137227148Y-132370839D01*
X137285000Y-132080000D01*
X137285000Y-128013795D01*
X138064716Y-128013795D01*
X138313106Y-128614943D01*
X138772637Y-129075278D01*
X139373352Y-129324716D01*
X140023795Y-129325284D01*
X140624943Y-129076894D01*
X141085278Y-128617363D01*
X141334716Y-128016648D01*
X141335284Y-127366205D01*
X141086894Y-126765057D01*
X140627363Y-126304722D01*
X140026648Y-126055284D01*
X139376205Y-126054716D01*
X138775057Y-126303106D01*
X138314722Y-126762637D01*
X138065284Y-127363352D01*
X138064716Y-128013795D01*
X137285000Y-128013795D01*
X137285000Y-123513795D01*
X138064716Y-123513795D01*
X138313106Y-124114943D01*
X138772637Y-124575278D01*
X139373352Y-124824716D01*
X140023795Y-124825284D01*
X140624943Y-124576894D01*
X141085278Y-124117363D01*
X141334716Y-123516648D01*
X141335284Y-122866205D01*
X141086894Y-122265057D01*
X140627363Y-121804722D01*
X140026648Y-121555284D01*
X139376205Y-121554716D01*
X138775057Y-121803106D01*
X138314722Y-122262637D01*
X138065284Y-122863352D01*
X138064716Y-123513795D01*
X137285000Y-123513795D01*
X137285000Y-118488795D01*
X138064716Y-118488795D01*
X138313106Y-119089943D01*
X138772637Y-119550278D01*
X139373352Y-119799716D01*
X140023795Y-119800284D01*
X140624943Y-119551894D01*
X141085278Y-119092363D01*
X141334716Y-118491648D01*
X141335284Y-117841205D01*
X141086894Y-117240057D01*
X140627363Y-116779722D01*
X140026648Y-116530284D01*
X139376205Y-116529716D01*
X138775057Y-116778106D01*
X138314722Y-117237637D01*
X138065284Y-117838352D01*
X138064716Y-118488795D01*
X137285000Y-118488795D01*
X137285000Y-113988795D01*
X138064716Y-113988795D01*
X138313106Y-114589943D01*
X138772637Y-115050278D01*
X139373352Y-115299716D01*
X140023795Y-115300284D01*
X140624943Y-115051894D01*
X141085278Y-114592363D01*
X141334716Y-113991648D01*
X141335284Y-113341205D01*
X141086894Y-112740057D01*
X140627363Y-112279722D01*
X140026648Y-112030284D01*
X139376205Y-112029716D01*
X138775057Y-112278106D01*
X138314722Y-112737637D01*
X138065284Y-113338352D01*
X138064716Y-113988795D01*
X137285000Y-113988795D01*
X137285000Y-108963795D01*
X138064716Y-108963795D01*
X138313106Y-109564943D01*
X138772637Y-110025278D01*
X139373352Y-110274716D01*
X140023795Y-110275284D01*
X140624943Y-110026894D01*
X141085278Y-109567363D01*
X141334716Y-108966648D01*
X141335284Y-108316205D01*
X141086894Y-107715057D01*
X140627363Y-107254722D01*
X140026648Y-107005284D01*
X139376205Y-107004716D01*
X138775057Y-107253106D01*
X138314722Y-107712637D01*
X138065284Y-108313352D01*
X138064716Y-108963795D01*
X137285000Y-108963795D01*
X137285000Y-104463795D01*
X138064716Y-104463795D01*
X138313106Y-105064943D01*
X138772637Y-105525278D01*
X139373352Y-105774716D01*
X140023795Y-105775284D01*
X140624943Y-105526894D01*
X141085278Y-105067363D01*
X141334716Y-104466648D01*
X141334718Y-104463795D01*
X144564716Y-104463795D01*
X144813106Y-105064943D01*
X145272637Y-105525278D01*
X145873352Y-105774716D01*
X146523795Y-105775284D01*
X147124943Y-105526894D01*
X147195000Y-105456959D01*
X147195000Y-107322477D01*
X147127363Y-107254722D01*
X146526648Y-107005284D01*
X145876205Y-107004716D01*
X145275057Y-107253106D01*
X144814722Y-107712637D01*
X144565284Y-108313352D01*
X144564716Y-108963795D01*
X144813106Y-109564943D01*
X145272637Y-110025278D01*
X145873352Y-110274716D01*
X146523795Y-110275284D01*
X147124943Y-110026894D01*
X147195000Y-109956959D01*
X147195000Y-112347477D01*
X147127363Y-112279722D01*
X146526648Y-112030284D01*
X145876205Y-112029716D01*
X145275057Y-112278106D01*
X144814722Y-112737637D01*
X144565284Y-113338352D01*
X144564716Y-113988795D01*
X144813106Y-114589943D01*
X145272637Y-115050278D01*
X145873352Y-115299716D01*
X146523795Y-115300284D01*
X147124943Y-115051894D01*
X147195000Y-114981959D01*
X147195000Y-116847477D01*
X147127363Y-116779722D01*
X146526648Y-116530284D01*
X145876205Y-116529716D01*
X145275057Y-116778106D01*
X144814722Y-117237637D01*
X144565284Y-117838352D01*
X144564716Y-118488795D01*
X144813106Y-119089943D01*
X145272637Y-119550278D01*
X145873352Y-119799716D01*
X146523795Y-119800284D01*
X147124943Y-119551894D01*
X147195000Y-119481959D01*
X147195000Y-121872477D01*
X147127363Y-121804722D01*
X146526648Y-121555284D01*
X145876205Y-121554716D01*
X145275057Y-121803106D01*
X144814722Y-122262637D01*
X144565284Y-122863352D01*
X144564716Y-123513795D01*
X144813106Y-124114943D01*
X145272637Y-124575278D01*
X145873352Y-124824716D01*
X146523795Y-124825284D01*
X147124943Y-124576894D01*
X147195000Y-124506959D01*
X147195000Y-126372477D01*
X147127363Y-126304722D01*
X146526648Y-126055284D01*
X145876205Y-126054716D01*
X145275057Y-126303106D01*
X144814722Y-126762637D01*
X144565284Y-127363352D01*
X144564716Y-128013795D01*
X144813106Y-128614943D01*
X145272637Y-129075278D01*
X145873352Y-129324716D01*
X146523795Y-129325284D01*
X147124943Y-129076894D01*
X147195000Y-129006959D01*
X147195000Y-131397477D01*
X147127363Y-131329722D01*
X146526648Y-131080284D01*
X145876205Y-131079716D01*
X145275057Y-131328106D01*
X144814722Y-131787637D01*
X144565284Y-132388352D01*
X144564716Y-133038795D01*
X144813106Y-133639943D01*
X145272637Y-134100278D01*
X145873352Y-134349716D01*
X146523795Y-134350284D01*
X147124943Y-134101894D01*
X147585278Y-133642363D01*
X147704890Y-133354306D01*
X147857401Y-133252401D01*
X148071007Y-133038795D01*
X149494716Y-133038795D01*
X149743106Y-133639943D01*
X150202637Y-134100278D01*
X150803352Y-134349716D01*
X151453795Y-134350284D01*
X152054943Y-134101894D01*
X152515278Y-133642363D01*
X152764716Y-133041648D01*
X152765284Y-132391205D01*
X152516894Y-131790057D01*
X152057363Y-131329722D01*
X151456648Y-131080284D01*
X150806205Y-131079716D01*
X150205057Y-131328106D01*
X149744722Y-131787637D01*
X149495284Y-132388352D01*
X149494716Y-133038795D01*
X148071007Y-133038795D01*
X148492401Y-132617401D01*
X148657148Y-132370839D01*
X148715000Y-132080000D01*
X148715000Y-128013795D01*
X149494716Y-128013795D01*
X149743106Y-128614943D01*
X150202637Y-129075278D01*
X150803352Y-129324716D01*
X151453795Y-129325284D01*
X152054943Y-129076894D01*
X152515278Y-128617363D01*
X152764716Y-128016648D01*
X152765284Y-127366205D01*
X152516894Y-126765057D01*
X152057363Y-126304722D01*
X151456648Y-126055284D01*
X150806205Y-126054716D01*
X150205057Y-126303106D01*
X149744722Y-126762637D01*
X149495284Y-127363352D01*
X149494716Y-128013795D01*
X148715000Y-128013795D01*
X148715000Y-123513795D01*
X149494716Y-123513795D01*
X149743106Y-124114943D01*
X150202637Y-124575278D01*
X150803352Y-124824716D01*
X151453795Y-124825284D01*
X152054943Y-124576894D01*
X152515278Y-124117363D01*
X152764716Y-123516648D01*
X152765284Y-122866205D01*
X152516894Y-122265057D01*
X152057363Y-121804722D01*
X151456648Y-121555284D01*
X150806205Y-121554716D01*
X150205057Y-121803106D01*
X149744722Y-122262637D01*
X149495284Y-122863352D01*
X149494716Y-123513795D01*
X148715000Y-123513795D01*
X148715000Y-119045110D01*
X148775167Y-119045162D01*
X149118943Y-118903117D01*
X149382192Y-118640327D01*
X149494821Y-118369089D01*
X149494716Y-118488795D01*
X149743106Y-119089943D01*
X150202637Y-119550278D01*
X150803352Y-119799716D01*
X151453795Y-119800284D01*
X152054943Y-119551894D01*
X152515278Y-119092363D01*
X152764716Y-118491648D01*
X152765284Y-117841205D01*
X152516894Y-117240057D01*
X152057363Y-116779722D01*
X151456648Y-116530284D01*
X150806205Y-116529716D01*
X150205057Y-116778106D01*
X149985000Y-116997779D01*
X149985000Y-114832260D01*
X150202637Y-115050278D01*
X150803352Y-115299716D01*
X151453795Y-115300284D01*
X152054943Y-115051894D01*
X152515278Y-114592363D01*
X152764716Y-113991648D01*
X152765284Y-113341205D01*
X152516894Y-112740057D01*
X152057363Y-112279722D01*
X151456648Y-112030284D01*
X150806205Y-112029716D01*
X150205057Y-112278106D01*
X149985000Y-112497779D01*
X149985000Y-109807260D01*
X150202637Y-110025278D01*
X150803352Y-110274716D01*
X151453795Y-110275284D01*
X152054943Y-110026894D01*
X152515278Y-109567363D01*
X152764716Y-108966648D01*
X152765284Y-108316205D01*
X152516894Y-107715057D01*
X152057363Y-107254722D01*
X151456648Y-107005284D01*
X150806205Y-107004716D01*
X150205057Y-107253106D01*
X150160015Y-107298069D01*
X150160162Y-107129833D01*
X150018117Y-106786057D01*
X149755327Y-106522808D01*
X149411799Y-106380162D01*
X149039833Y-106379838D01*
X148715000Y-106514056D01*
X148715000Y-104463795D01*
X149494716Y-104463795D01*
X149743106Y-105064943D01*
X150202637Y-105525278D01*
X150803352Y-105774716D01*
X151453795Y-105775284D01*
X152054943Y-105526894D01*
X152515278Y-105067363D01*
X152764716Y-104466648D01*
X152764718Y-104463795D01*
X155994716Y-104463795D01*
X156243106Y-105064943D01*
X156702637Y-105525278D01*
X157303352Y-105774716D01*
X157953795Y-105775284D01*
X158554943Y-105526894D01*
X158625000Y-105456959D01*
X158625000Y-107322477D01*
X158557363Y-107254722D01*
X157956648Y-107005284D01*
X157306205Y-107004716D01*
X156705057Y-107253106D01*
X156244722Y-107712637D01*
X155995284Y-108313352D01*
X155994716Y-108963795D01*
X156243106Y-109564943D01*
X156702637Y-110025278D01*
X157303352Y-110274716D01*
X157953795Y-110275284D01*
X158554943Y-110026894D01*
X158625000Y-109956959D01*
X158625000Y-112347477D01*
X158557363Y-112279722D01*
X157956648Y-112030284D01*
X157306205Y-112029716D01*
X156705057Y-112278106D01*
X156244722Y-112737637D01*
X155995284Y-113338352D01*
X155994716Y-113988795D01*
X156243106Y-114589943D01*
X156702637Y-115050278D01*
X157303352Y-115299716D01*
X157953795Y-115300284D01*
X158554943Y-115051894D01*
X158625000Y-114981959D01*
X158625000Y-116847477D01*
X158557363Y-116779722D01*
X157956648Y-116530284D01*
X157306205Y-116529716D01*
X156705057Y-116778106D01*
X156244722Y-117237637D01*
X155995284Y-117838352D01*
X155994716Y-118488795D01*
X156243106Y-119089943D01*
X156702637Y-119550278D01*
X157303352Y-119799716D01*
X157953795Y-119800284D01*
X158554943Y-119551894D01*
X158625000Y-119481959D01*
X158625000Y-121872477D01*
X158557363Y-121804722D01*
X157956648Y-121555284D01*
X157306205Y-121554716D01*
X156705057Y-121803106D01*
X156244722Y-122262637D01*
X155995284Y-122863352D01*
X155994716Y-123513795D01*
X156243106Y-124114943D01*
X156702637Y-124575278D01*
X157303352Y-124824716D01*
X157953795Y-124825284D01*
X158554943Y-124576894D01*
X158625000Y-124506959D01*
X158625000Y-126372477D01*
X158557363Y-126304722D01*
X157956648Y-126055284D01*
X157306205Y-126054716D01*
X156705057Y-126303106D01*
X156244722Y-126762637D01*
X155995284Y-127363352D01*
X155994716Y-128013795D01*
X156243106Y-128614943D01*
X156702637Y-129075278D01*
X157303352Y-129324716D01*
X157953795Y-129325284D01*
X158554943Y-129076894D01*
X158625000Y-129006959D01*
X158625000Y-131397477D01*
X158557363Y-131329722D01*
X157956648Y-131080284D01*
X157306205Y-131079716D01*
X156705057Y-131328106D01*
X156244722Y-131787637D01*
X155995284Y-132388352D01*
X155994716Y-133038795D01*
X156243106Y-133639943D01*
X156702637Y-134100278D01*
X157303352Y-134349716D01*
X157953795Y-134350284D01*
X158554943Y-134101894D01*
X159015278Y-133642363D01*
X159134890Y-133354306D01*
X159287401Y-133252401D01*
X159501007Y-133038795D01*
X160924716Y-133038795D01*
X161173106Y-133639943D01*
X161632637Y-134100278D01*
X162233352Y-134349716D01*
X162883795Y-134350284D01*
X163484943Y-134101894D01*
X163945278Y-133642363D01*
X164194716Y-133041648D01*
X164195284Y-132391205D01*
X163946894Y-131790057D01*
X163487363Y-131329722D01*
X162886648Y-131080284D01*
X162236205Y-131079716D01*
X161635057Y-131328106D01*
X161174722Y-131787637D01*
X160925284Y-132388352D01*
X160924716Y-133038795D01*
X159501007Y-133038795D01*
X159922401Y-132617401D01*
X160087148Y-132370839D01*
X160145000Y-132080000D01*
X160145000Y-128570110D01*
X160205167Y-128570162D01*
X160548943Y-128428117D01*
X160812192Y-128165327D01*
X160924821Y-127894089D01*
X160924716Y-128013795D01*
X161173106Y-128614943D01*
X161632637Y-129075278D01*
X162233352Y-129324716D01*
X162883795Y-129325284D01*
X163484943Y-129076894D01*
X163945278Y-128617363D01*
X164194716Y-128016648D01*
X164195284Y-127366205D01*
X163946894Y-126765057D01*
X163487363Y-126304722D01*
X162886648Y-126055284D01*
X162236205Y-126054716D01*
X161635057Y-126303106D01*
X161415000Y-126522779D01*
X161415000Y-124357260D01*
X161632637Y-124575278D01*
X162233352Y-124824716D01*
X162883795Y-124825284D01*
X163484943Y-124576894D01*
X163945278Y-124117363D01*
X164194716Y-123516648D01*
X164195284Y-122866205D01*
X163946894Y-122265057D01*
X163487363Y-121804722D01*
X162886648Y-121555284D01*
X162236205Y-121554716D01*
X161635057Y-121803106D01*
X161415000Y-122022779D01*
X161415000Y-119332260D01*
X161632637Y-119550278D01*
X162233352Y-119799716D01*
X162883795Y-119800284D01*
X163484943Y-119551894D01*
X163945278Y-119092363D01*
X164194716Y-118491648D01*
X164195284Y-117841205D01*
X163946894Y-117240057D01*
X163487363Y-116779722D01*
X162886648Y-116530284D01*
X162236205Y-116529716D01*
X161635057Y-116778106D01*
X161415000Y-116997779D01*
X161415000Y-114832260D01*
X161632637Y-115050278D01*
X162233352Y-115299716D01*
X162883795Y-115300284D01*
X163484943Y-115051894D01*
X163945278Y-114592363D01*
X164194716Y-113991648D01*
X164195284Y-113341205D01*
X163946894Y-112740057D01*
X163487363Y-112279722D01*
X162886648Y-112030284D01*
X162236205Y-112029716D01*
X161635057Y-112278106D01*
X161415000Y-112497779D01*
X161415000Y-109807260D01*
X161632637Y-110025278D01*
X162233352Y-110274716D01*
X162883795Y-110275284D01*
X163484943Y-110026894D01*
X163945278Y-109567363D01*
X164194716Y-108966648D01*
X164195284Y-108316205D01*
X163946894Y-107715057D01*
X163487363Y-107254722D01*
X162886648Y-107005284D01*
X162236205Y-107004716D01*
X161635057Y-107253106D01*
X161590015Y-107298069D01*
X161590162Y-107129833D01*
X161448117Y-106786057D01*
X161185327Y-106522808D01*
X160841799Y-106380162D01*
X160469833Y-106379838D01*
X160145000Y-106514056D01*
X160145000Y-104463795D01*
X160924716Y-104463795D01*
X161173106Y-105064943D01*
X161632637Y-105525278D01*
X162233352Y-105774716D01*
X162883795Y-105775284D01*
X163484943Y-105526894D01*
X163945278Y-105067363D01*
X164194716Y-104466648D01*
X164194718Y-104463795D01*
X167424716Y-104463795D01*
X167673106Y-105064943D01*
X168132637Y-105525278D01*
X168733352Y-105774716D01*
X169383795Y-105775284D01*
X169984943Y-105526894D01*
X170055000Y-105456959D01*
X170055000Y-107322477D01*
X169987363Y-107254722D01*
X169386648Y-107005284D01*
X168736205Y-107004716D01*
X168135057Y-107253106D01*
X167674722Y-107712637D01*
X167425284Y-108313352D01*
X167424716Y-108963795D01*
X167673106Y-109564943D01*
X168132637Y-110025278D01*
X168733352Y-110274716D01*
X169383795Y-110275284D01*
X169984943Y-110026894D01*
X170055000Y-109956959D01*
X170055000Y-112347477D01*
X169987363Y-112279722D01*
X169386648Y-112030284D01*
X168736205Y-112029716D01*
X168135057Y-112278106D01*
X167674722Y-112737637D01*
X167425284Y-113338352D01*
X167424716Y-113988795D01*
X167673106Y-114589943D01*
X168132637Y-115050278D01*
X168733352Y-115299716D01*
X169383795Y-115300284D01*
X169984943Y-115051894D01*
X170055000Y-114981959D01*
X170055000Y-116847477D01*
X169987363Y-116779722D01*
X169386648Y-116530284D01*
X168736205Y-116529716D01*
X168135057Y-116778106D01*
X167674722Y-117237637D01*
X167425284Y-117838352D01*
X167424716Y-118488795D01*
X167673106Y-119089943D01*
X168132637Y-119550278D01*
X168733352Y-119799716D01*
X169383795Y-119800284D01*
X169984943Y-119551894D01*
X170055000Y-119481959D01*
X170055000Y-121872477D01*
X169987363Y-121804722D01*
X169386648Y-121555284D01*
X168736205Y-121554716D01*
X168135057Y-121803106D01*
X167674722Y-122262637D01*
X167425284Y-122863352D01*
X167424716Y-123513795D01*
X167673106Y-124114943D01*
X168132637Y-124575278D01*
X168733352Y-124824716D01*
X169383795Y-124825284D01*
X169984943Y-124576894D01*
X170055000Y-124506959D01*
X170055000Y-126372477D01*
X169987363Y-126304722D01*
X169386648Y-126055284D01*
X168736205Y-126054716D01*
X168135057Y-126303106D01*
X167674722Y-126762637D01*
X167425284Y-127363352D01*
X167424716Y-128013795D01*
X167673106Y-128614943D01*
X168132637Y-129075278D01*
X168733352Y-129324716D01*
X169383795Y-129325284D01*
X169984943Y-129076894D01*
X170055000Y-129006959D01*
X170055000Y-131397477D01*
X169987363Y-131329722D01*
X169386648Y-131080284D01*
X168736205Y-131079716D01*
X168135057Y-131328106D01*
X167674722Y-131787637D01*
X167425284Y-132388352D01*
X167424716Y-133038795D01*
X167673106Y-133639943D01*
X168132637Y-134100278D01*
X168733352Y-134349716D01*
X169383795Y-134350284D01*
X169984943Y-134101894D01*
X170445278Y-133642363D01*
X170564890Y-133354306D01*
X170717401Y-133252401D01*
X171352401Y-132617401D01*
X171517148Y-132370839D01*
X171575000Y-132080000D01*
X171575000Y-104067463D01*
X171607192Y-104035327D01*
X171749838Y-103691799D01*
X171750162Y-103319833D01*
X171608117Y-102976057D01*
X171345327Y-102712808D01*
X171001799Y-102570162D01*
X170629833Y-102569838D01*
X170286057Y-102711883D01*
X170115030Y-102882612D01*
X169987363Y-102754722D01*
X169386648Y-102505284D01*
X168736205Y-102504716D01*
X168135057Y-102753106D01*
X167674722Y-103212637D01*
X167425284Y-103813352D01*
X167424716Y-104463795D01*
X164194718Y-104463795D01*
X164195284Y-103816205D01*
X163946894Y-103215057D01*
X163487363Y-102754722D01*
X162886648Y-102505284D01*
X162236205Y-102504716D01*
X161635057Y-102753106D01*
X161174722Y-103212637D01*
X160925284Y-103813352D01*
X160924716Y-104463795D01*
X160145000Y-104463795D01*
X160145000Y-104067463D01*
X160177192Y-104035327D01*
X160319838Y-103691799D01*
X160320162Y-103319833D01*
X160178117Y-102976057D01*
X159915327Y-102712808D01*
X159571799Y-102570162D01*
X159199833Y-102569838D01*
X158856057Y-102711883D01*
X158685030Y-102882612D01*
X158557363Y-102754722D01*
X157956648Y-102505284D01*
X157306205Y-102504716D01*
X156705057Y-102753106D01*
X156244722Y-103212637D01*
X155995284Y-103813352D01*
X155994716Y-104463795D01*
X152764718Y-104463795D01*
X152765284Y-103816205D01*
X152516894Y-103215057D01*
X152057363Y-102754722D01*
X151456648Y-102505284D01*
X150806205Y-102504716D01*
X150205057Y-102753106D01*
X149744722Y-103212637D01*
X149495284Y-103813352D01*
X149494716Y-104463795D01*
X148715000Y-104463795D01*
X148715000Y-104067463D01*
X148747192Y-104035327D01*
X148889838Y-103691799D01*
X148890162Y-103319833D01*
X148748117Y-102976057D01*
X148485327Y-102712808D01*
X148141799Y-102570162D01*
X147769833Y-102569838D01*
X147426057Y-102711883D01*
X147255030Y-102882612D01*
X147127363Y-102754722D01*
X146526648Y-102505284D01*
X145876205Y-102504716D01*
X145275057Y-102753106D01*
X144814722Y-103212637D01*
X144565284Y-103813352D01*
X144564716Y-104463795D01*
X141334718Y-104463795D01*
X141335284Y-103816205D01*
X141086894Y-103215057D01*
X140627363Y-102754722D01*
X140026648Y-102505284D01*
X139376205Y-102504716D01*
X138775057Y-102753106D01*
X138314722Y-103212637D01*
X138065284Y-103813352D01*
X138064716Y-104463795D01*
X137285000Y-104463795D01*
X137285000Y-104067463D01*
X137317192Y-104035327D01*
X137459838Y-103691799D01*
X137460162Y-103319833D01*
X137318117Y-102976057D01*
X137055327Y-102712808D01*
X136711799Y-102570162D01*
X136339833Y-102569838D01*
X135996057Y-102711883D01*
X135825030Y-102882612D01*
X135697363Y-102754722D01*
X135096648Y-102505284D01*
X134446205Y-102504716D01*
X133845057Y-102753106D01*
X133384722Y-103212637D01*
X133135284Y-103813352D01*
X133134716Y-104463795D01*
X129904718Y-104463795D01*
X129905284Y-103816205D01*
X129656894Y-103215057D01*
X129197363Y-102754722D01*
X128596648Y-102505284D01*
X127946205Y-102504716D01*
X127345057Y-102753106D01*
X126884722Y-103212637D01*
X126635284Y-103813352D01*
X126634716Y-104463795D01*
X116915000Y-104463795D01*
X116915000Y-97727532D01*
X161587073Y-97727532D01*
X161685736Y-97994387D01*
X162295461Y-98220908D01*
X162945460Y-98196856D01*
X163434264Y-97994387D01*
X163532927Y-97727532D01*
X168087073Y-97727532D01*
X168185736Y-97994387D01*
X168795461Y-98220908D01*
X169445460Y-98196856D01*
X169934264Y-97994387D01*
X170032927Y-97727532D01*
X169060000Y-96754605D01*
X168087073Y-97727532D01*
X163532927Y-97727532D01*
X162560000Y-96754605D01*
X161587073Y-97727532D01*
X116915000Y-97727532D01*
X116915000Y-96310461D01*
X160914092Y-96310461D01*
X160938144Y-96960460D01*
X161140613Y-97449264D01*
X161407468Y-97547927D01*
X162380395Y-96575000D01*
X162739605Y-96575000D01*
X163712532Y-97547927D01*
X163979387Y-97449264D01*
X164205908Y-96839539D01*
X164186331Y-96310461D01*
X167414092Y-96310461D01*
X167438144Y-96960460D01*
X167640613Y-97449264D01*
X167907468Y-97547927D01*
X168880395Y-96575000D01*
X169239605Y-96575000D01*
X170212532Y-97547927D01*
X170479387Y-97449264D01*
X170705908Y-96839539D01*
X170681856Y-96189540D01*
X170479387Y-95700736D01*
X170212532Y-95602073D01*
X169239605Y-96575000D01*
X168880395Y-96575000D01*
X167907468Y-95602073D01*
X167640613Y-95700736D01*
X167414092Y-96310461D01*
X164186331Y-96310461D01*
X164181856Y-96189540D01*
X163979387Y-95700736D01*
X163712532Y-95602073D01*
X162739605Y-96575000D01*
X162380395Y-96575000D01*
X161407468Y-95602073D01*
X161140613Y-95700736D01*
X160914092Y-96310461D01*
X116915000Y-96310461D01*
X116915000Y-95422468D01*
X161587073Y-95422468D01*
X162560000Y-96395395D01*
X163532927Y-95422468D01*
X168087073Y-95422468D01*
X169060000Y-96395395D01*
X170032927Y-95422468D01*
X169934264Y-95155613D01*
X169324539Y-94929092D01*
X168674540Y-94953144D01*
X168185736Y-95155613D01*
X168087073Y-95422468D01*
X163532927Y-95422468D01*
X163434264Y-95155613D01*
X162824539Y-94929092D01*
X162174540Y-94953144D01*
X161685736Y-95155613D01*
X161587073Y-95422468D01*
X116915000Y-95422468D01*
X116915000Y-92398795D01*
X160924716Y-92398795D01*
X161173106Y-92999943D01*
X161632637Y-93460278D01*
X162233352Y-93709716D01*
X162883795Y-93710284D01*
X163484943Y-93461894D01*
X163945278Y-93002363D01*
X164194716Y-92401648D01*
X164194718Y-92398795D01*
X167424716Y-92398795D01*
X167673106Y-92999943D01*
X168132637Y-93460278D01*
X168733352Y-93709716D01*
X169383795Y-93710284D01*
X169984943Y-93461894D01*
X170445278Y-93002363D01*
X170694716Y-92401648D01*
X170695284Y-91751205D01*
X170446894Y-91150057D01*
X169987363Y-90689722D01*
X169386648Y-90440284D01*
X168736205Y-90439716D01*
X168135057Y-90688106D01*
X167674722Y-91147637D01*
X167425284Y-91748352D01*
X167424716Y-92398795D01*
X164194718Y-92398795D01*
X164195284Y-91751205D01*
X163946894Y-91150057D01*
X163487363Y-90689722D01*
X162886648Y-90440284D01*
X162236205Y-90439716D01*
X161635057Y-90688106D01*
X161174722Y-91147637D01*
X160925284Y-91748352D01*
X160924716Y-92398795D01*
X116915000Y-92398795D01*
X116915000Y-85075854D01*
X117514457Y-85075854D01*
X117990727Y-86228515D01*
X118871847Y-87111174D01*
X120023674Y-87589454D01*
X121270854Y-87590543D01*
X122423515Y-87114273D01*
X123306174Y-86233153D01*
X123632657Y-85446892D01*
X142068514Y-85446892D01*
X142314817Y-85971358D01*
X142743076Y-86361645D01*
X143153110Y-86531476D01*
X143383000Y-86410155D01*
X143383000Y-85217000D01*
X142189181Y-85217000D01*
X142068514Y-85446892D01*
X123632657Y-85446892D01*
X123784454Y-85081326D01*
X123785543Y-83834146D01*
X123309273Y-82681485D01*
X123148975Y-82520907D01*
X142025000Y-82520907D01*
X142025000Y-82579093D01*
X142138039Y-83147378D01*
X142459946Y-83629147D01*
X142743101Y-83818345D01*
X142743076Y-83818355D01*
X142314817Y-84208642D01*
X142068514Y-84733108D01*
X142189181Y-84963000D01*
X143383000Y-84963000D01*
X143383000Y-84943000D01*
X143637000Y-84943000D01*
X143637000Y-84963000D01*
X143657000Y-84963000D01*
X143657000Y-85217000D01*
X143637000Y-85217000D01*
X143637000Y-86410155D01*
X143866890Y-86531476D01*
X144276924Y-86361645D01*
X144705183Y-85971358D01*
X144772298Y-85828447D01*
X144999946Y-86169147D01*
X145481715Y-86491054D01*
X146050000Y-86604093D01*
X146618285Y-86491054D01*
X147100054Y-86169147D01*
X147320000Y-85839974D01*
X147539946Y-86169147D01*
X148021715Y-86491054D01*
X148590000Y-86604093D01*
X149158285Y-86491054D01*
X149640054Y-86169147D01*
X149860000Y-85839974D01*
X150079946Y-86169147D01*
X150561715Y-86491054D01*
X151130000Y-86604093D01*
X151698285Y-86491054D01*
X152180054Y-86169147D01*
X152400000Y-85839974D01*
X152619946Y-86169147D01*
X153101715Y-86491054D01*
X153670000Y-86604093D01*
X154238285Y-86491054D01*
X154720054Y-86169147D01*
X155041961Y-85687378D01*
X155155000Y-85119093D01*
X155155000Y-85075854D01*
X173394457Y-85075854D01*
X173870727Y-86228515D01*
X174751847Y-87111174D01*
X175903674Y-87589454D01*
X177150854Y-87590543D01*
X178303515Y-87114273D01*
X179186174Y-86233153D01*
X179664454Y-85081326D01*
X179665543Y-83834146D01*
X179189273Y-82681485D01*
X178308153Y-81798826D01*
X177156326Y-81320546D01*
X175909146Y-81319457D01*
X174756485Y-81795727D01*
X173873826Y-82676847D01*
X173395546Y-83828674D01*
X173394457Y-85075854D01*
X155155000Y-85075854D01*
X155155000Y-85060907D01*
X155041961Y-84492622D01*
X154720054Y-84010853D01*
X154718821Y-84010029D01*
X154755317Y-84003162D01*
X154971441Y-83864090D01*
X155116431Y-83651890D01*
X155167440Y-83400000D01*
X155167440Y-81700000D01*
X155123162Y-81464683D01*
X154984090Y-81248559D01*
X154771890Y-81103569D01*
X154520000Y-81052560D01*
X152820000Y-81052560D01*
X152584683Y-81096838D01*
X152368559Y-81235910D01*
X152223569Y-81448110D01*
X152209914Y-81515541D01*
X152180054Y-81470853D01*
X151698285Y-81148946D01*
X151130000Y-81035907D01*
X150561715Y-81148946D01*
X150079946Y-81470853D01*
X149860000Y-81800026D01*
X149640054Y-81470853D01*
X149158285Y-81148946D01*
X148590000Y-81035907D01*
X148021715Y-81148946D01*
X147539946Y-81470853D01*
X147320000Y-81800026D01*
X147100054Y-81470853D01*
X146618285Y-81148946D01*
X146050000Y-81035907D01*
X145481715Y-81148946D01*
X144999946Y-81470853D01*
X144780000Y-81800026D01*
X144560054Y-81470853D01*
X144078285Y-81148946D01*
X143510000Y-81035907D01*
X142941715Y-81148946D01*
X142459946Y-81470853D01*
X142138039Y-81952622D01*
X142025000Y-82520907D01*
X123148975Y-82520907D01*
X122428153Y-81798826D01*
X121276326Y-81320546D01*
X120029146Y-81319457D01*
X118876485Y-81795727D01*
X117993826Y-82676847D01*
X117515546Y-83828674D01*
X117514457Y-85075854D01*
X116915000Y-85075854D01*
X116915000Y-84524931D01*
X117212161Y-83030999D01*
X118018791Y-81823791D01*
X119226001Y-81017161D01*
X120719931Y-80720000D01*
X176460069Y-80720000D01*
X177954001Y-81017161D01*
X177954001Y-81017161D01*
G37*
X177954001Y-81017161D02*
X179161209Y-81823791D01*
X179967839Y-83031001D01*
X180265000Y-84524931D01*
X180265000Y-137090069D01*
X179967839Y-138583999D01*
X179161209Y-139791209D01*
X177954001Y-140597839D01*
X176460069Y-140895000D01*
X120719931Y-140895000D01*
X119226001Y-140597839D01*
X118018791Y-139791209D01*
X117212161Y-138584001D01*
X117052406Y-137780854D01*
X117514457Y-137780854D01*
X117990727Y-138933515D01*
X118871847Y-139816174D01*
X120023674Y-140294454D01*
X121270854Y-140295543D01*
X122423515Y-139819273D01*
X123306174Y-138938153D01*
X123784454Y-137786326D01*
X123784670Y-137538795D01*
X126634716Y-137538795D01*
X126883106Y-138139943D01*
X127342637Y-138600278D01*
X127943352Y-138849716D01*
X128593795Y-138850284D01*
X129194943Y-138601894D01*
X129655278Y-138142363D01*
X129904716Y-137541648D01*
X129904718Y-137538795D01*
X133134716Y-137538795D01*
X133383106Y-138139943D01*
X133842637Y-138600278D01*
X134443352Y-138849716D01*
X135093795Y-138850284D01*
X135694943Y-138601894D01*
X136155278Y-138142363D01*
X136404716Y-137541648D01*
X136404718Y-137538795D01*
X138064716Y-137538795D01*
X138313106Y-138139943D01*
X138772637Y-138600278D01*
X139373352Y-138849716D01*
X140023795Y-138850284D01*
X140624943Y-138601894D01*
X141085278Y-138142363D01*
X141334716Y-137541648D01*
X141334718Y-137538795D01*
X144564716Y-137538795D01*
X144813106Y-138139943D01*
X145272637Y-138600278D01*
X145873352Y-138849716D01*
X146523795Y-138850284D01*
X147124943Y-138601894D01*
X147585278Y-138142363D01*
X147834716Y-137541648D01*
X147834718Y-137538795D01*
X149494716Y-137538795D01*
X149743106Y-138139943D01*
X150202637Y-138600278D01*
X150803352Y-138849716D01*
X151453795Y-138850284D01*
X152054943Y-138601894D01*
X152515278Y-138142363D01*
X152764716Y-137541648D01*
X152764718Y-137538795D01*
X155994716Y-137538795D01*
X156243106Y-138139943D01*
X156702637Y-138600278D01*
X157303352Y-138849716D01*
X157953795Y-138850284D01*
X158554943Y-138601894D01*
X159015278Y-138142363D01*
X159264716Y-137541648D01*
X159264718Y-137538795D01*
X160924716Y-137538795D01*
X161173106Y-138139943D01*
X161632637Y-138600278D01*
X162233352Y-138849716D01*
X162883795Y-138850284D01*
X163484943Y-138601894D01*
X163945278Y-138142363D01*
X164194716Y-137541648D01*
X164194718Y-137538795D01*
X167424716Y-137538795D01*
X167673106Y-138139943D01*
X168132637Y-138600278D01*
X168733352Y-138849716D01*
X169383795Y-138850284D01*
X169984943Y-138601894D01*
X170445278Y-138142363D01*
X170595389Y-137780854D01*
X173394457Y-137780854D01*
X173870727Y-138933515D01*
X174751847Y-139816174D01*
X175903674Y-140294454D01*
X177150854Y-140295543D01*
X178303515Y-139819273D01*
X179186174Y-138938153D01*
X179664454Y-137786326D01*
X179665543Y-136539146D01*
X179189273Y-135386485D01*
X178308153Y-134503826D01*
X177156326Y-134025546D01*
X175909146Y-134024457D01*
X174756485Y-134500727D01*
X173873826Y-135381847D01*
X173395546Y-136533674D01*
X173394457Y-137780854D01*
X170595389Y-137780854D01*
X170694716Y-137541648D01*
X170695284Y-136891205D01*
X170446894Y-136290057D01*
X169987363Y-135829722D01*
X169386648Y-135580284D01*
X168736205Y-135579716D01*
X168135057Y-135828106D01*
X167674722Y-136287637D01*
X167425284Y-136888352D01*
X167424716Y-137538795D01*
X164194718Y-137538795D01*
X164195284Y-136891205D01*
X163946894Y-136290057D01*
X163487363Y-135829722D01*
X162886648Y-135580284D01*
X162236205Y-135579716D01*
X161635057Y-135828106D01*
X161174722Y-136287637D01*
X160925284Y-136888352D01*
X160924716Y-137538795D01*
X159264718Y-137538795D01*
X159265284Y-136891205D01*
X159016894Y-136290057D01*
X158557363Y-135829722D01*
X157956648Y-135580284D01*
X157306205Y-135579716D01*
X156705057Y-135828106D01*
X156244722Y-136287637D01*
X155995284Y-136888352D01*
X155994716Y-137538795D01*
X152764718Y-137538795D01*
X152765284Y-136891205D01*
X152516894Y-136290057D01*
X152057363Y-135829722D01*
X151456648Y-135580284D01*
X150806205Y-135579716D01*
X150205057Y-135828106D01*
X149744722Y-136287637D01*
X149495284Y-136888352D01*
X149494716Y-137538795D01*
X147834718Y-137538795D01*
X147835284Y-136891205D01*
X147586894Y-136290057D01*
X147127363Y-135829722D01*
X146526648Y-135580284D01*
X145876205Y-135579716D01*
X145275057Y-135828106D01*
X144814722Y-136287637D01*
X144565284Y-136888352D01*
X144564716Y-137538795D01*
X141334718Y-137538795D01*
X141335284Y-136891205D01*
X141086894Y-136290057D01*
X140627363Y-135829722D01*
X140026648Y-135580284D01*
X139376205Y-135579716D01*
X138775057Y-135828106D01*
X138314722Y-136287637D01*
X138065284Y-136888352D01*
X138064716Y-137538795D01*
X136404718Y-137538795D01*
X136405284Y-136891205D01*
X136156894Y-136290057D01*
X135697363Y-135829722D01*
X135096648Y-135580284D01*
X134446205Y-135579716D01*
X133845057Y-135828106D01*
X133384722Y-136287637D01*
X133135284Y-136888352D01*
X133134716Y-137538795D01*
X129904718Y-137538795D01*
X129905284Y-136891205D01*
X129656894Y-136290057D01*
X129197363Y-135829722D01*
X128596648Y-135580284D01*
X127946205Y-135579716D01*
X127345057Y-135828106D01*
X126884722Y-136287637D01*
X126635284Y-136888352D01*
X126634716Y-137538795D01*
X123784670Y-137538795D01*
X123785543Y-136539146D01*
X123309273Y-135386485D01*
X122428153Y-134503826D01*
X121276326Y-134025546D01*
X120029146Y-134024457D01*
X118876485Y-134500727D01*
X117993826Y-135381847D01*
X117515546Y-136533674D01*
X117514457Y-137780854D01*
X117052406Y-137780854D01*
X116915000Y-137090069D01*
X116915000Y-133038795D01*
X126634716Y-133038795D01*
X126883106Y-133639943D01*
X127342637Y-134100278D01*
X127943352Y-134349716D01*
X128593795Y-134350284D01*
X129194943Y-134101894D01*
X129655278Y-133642363D01*
X129904716Y-133041648D01*
X129905284Y-132391205D01*
X129656894Y-131790057D01*
X129197363Y-131329722D01*
X128596648Y-131080284D01*
X127946205Y-131079716D01*
X127345057Y-131328106D01*
X126884722Y-131787637D01*
X126635284Y-132388352D01*
X126634716Y-133038795D01*
X116915000Y-133038795D01*
X116915000Y-128013795D01*
X126634716Y-128013795D01*
X126883106Y-128614943D01*
X127342637Y-129075278D01*
X127943352Y-129324716D01*
X128593795Y-129325284D01*
X129194943Y-129076894D01*
X129655278Y-128617363D01*
X129904716Y-128016648D01*
X129905284Y-127366205D01*
X129656894Y-126765057D01*
X129197363Y-126304722D01*
X128596648Y-126055284D01*
X127946205Y-126054716D01*
X127345057Y-126303106D01*
X126884722Y-126762637D01*
X126635284Y-127363352D01*
X126634716Y-128013795D01*
X116915000Y-128013795D01*
X116915000Y-123513795D01*
X126634716Y-123513795D01*
X126883106Y-124114943D01*
X127342637Y-124575278D01*
X127943352Y-124824716D01*
X128593795Y-124825284D01*
X129194943Y-124576894D01*
X129655278Y-124117363D01*
X129904716Y-123516648D01*
X129905284Y-122866205D01*
X129656894Y-122265057D01*
X129197363Y-121804722D01*
X128596648Y-121555284D01*
X127946205Y-121554716D01*
X127345057Y-121803106D01*
X126884722Y-122262637D01*
X126635284Y-122863352D01*
X126634716Y-123513795D01*
X116915000Y-123513795D01*
X116915000Y-118488795D01*
X126634716Y-118488795D01*
X126883106Y-119089943D01*
X127342637Y-119550278D01*
X127943352Y-119799716D01*
X128593795Y-119800284D01*
X129194943Y-119551894D01*
X129655278Y-119092363D01*
X129904716Y-118491648D01*
X129905284Y-117841205D01*
X129656894Y-117240057D01*
X129197363Y-116779722D01*
X128596648Y-116530284D01*
X127946205Y-116529716D01*
X127345057Y-116778106D01*
X126884722Y-117237637D01*
X126635284Y-117838352D01*
X126634716Y-118488795D01*
X116915000Y-118488795D01*
X116915000Y-113988795D01*
X126634716Y-113988795D01*
X126883106Y-114589943D01*
X127342637Y-115050278D01*
X127943352Y-115299716D01*
X128593795Y-115300284D01*
X129194943Y-115051894D01*
X129655278Y-114592363D01*
X129904716Y-113991648D01*
X129905284Y-113341205D01*
X129656894Y-112740057D01*
X129197363Y-112279722D01*
X128596648Y-112030284D01*
X127946205Y-112029716D01*
X127345057Y-112278106D01*
X126884722Y-112737637D01*
X126635284Y-113338352D01*
X126634716Y-113988795D01*
X116915000Y-113988795D01*
X116915000Y-108963795D01*
X126634716Y-108963795D01*
X126883106Y-109564943D01*
X127342637Y-110025278D01*
X127943352Y-110274716D01*
X128593795Y-110275284D01*
X129194943Y-110026894D01*
X129655278Y-109567363D01*
X129904716Y-108966648D01*
X129905284Y-108316205D01*
X129656894Y-107715057D01*
X129197363Y-107254722D01*
X128596648Y-107005284D01*
X127946205Y-107004716D01*
X127345057Y-107253106D01*
X126884722Y-107712637D01*
X126635284Y-108313352D01*
X126634716Y-108963795D01*
X116915000Y-108963795D01*
X116915000Y-104463795D01*
X126634716Y-104463795D01*
X126883106Y-105064943D01*
X127342637Y-105525278D01*
X127943352Y-105774716D01*
X128593795Y-105775284D01*
X129194943Y-105526894D01*
X129655278Y-105067363D01*
X129904716Y-104466648D01*
X129904718Y-104463795D01*
X133134716Y-104463795D01*
X133383106Y-105064943D01*
X133842637Y-105525278D01*
X134443352Y-105774716D01*
X135093795Y-105775284D01*
X135694943Y-105526894D01*
X135765000Y-105456959D01*
X135765000Y-107322477D01*
X135697363Y-107254722D01*
X135096648Y-107005284D01*
X134446205Y-107004716D01*
X133845057Y-107253106D01*
X133384722Y-107712637D01*
X133135284Y-108313352D01*
X133134716Y-108963795D01*
X133383106Y-109564943D01*
X133842637Y-110025278D01*
X134443352Y-110274716D01*
X135093795Y-110275284D01*
X135694943Y-110026894D01*
X135765000Y-109956959D01*
X135765000Y-112347477D01*
X135697363Y-112279722D01*
X135096648Y-112030284D01*
X134446205Y-112029716D01*
X133845057Y-112278106D01*
X133384722Y-112737637D01*
X133135284Y-113338352D01*
X133134716Y-113988795D01*
X133383106Y-114589943D01*
X133842637Y-115050278D01*
X134443352Y-115299716D01*
X135093795Y-115300284D01*
X135694943Y-115051894D01*
X135765000Y-114981959D01*
X135765000Y-116847477D01*
X135697363Y-116779722D01*
X135096648Y-116530284D01*
X134446205Y-116529716D01*
X133845057Y-116778106D01*
X133384722Y-117237637D01*
X133135284Y-117838352D01*
X133134716Y-118488795D01*
X133383106Y-119089943D01*
X133842637Y-119550278D01*
X134443352Y-119799716D01*
X135093795Y-119800284D01*
X135694943Y-119551894D01*
X135765000Y-119481959D01*
X135765000Y-121872477D01*
X135697363Y-121804722D01*
X135096648Y-121555284D01*
X134446205Y-121554716D01*
X133845057Y-121803106D01*
X133384722Y-122262637D01*
X133135284Y-122863352D01*
X133134716Y-123513795D01*
X133383106Y-124114943D01*
X133842637Y-124575278D01*
X134443352Y-124824716D01*
X135093795Y-124825284D01*
X135694943Y-124576894D01*
X135765000Y-124506959D01*
X135765000Y-126372477D01*
X135697363Y-126304722D01*
X135096648Y-126055284D01*
X134446205Y-126054716D01*
X133845057Y-126303106D01*
X133384722Y-126762637D01*
X133135284Y-127363352D01*
X133134716Y-128013795D01*
X133383106Y-128614943D01*
X133842637Y-129075278D01*
X134443352Y-129324716D01*
X135093795Y-129325284D01*
X135694943Y-129076894D01*
X135765000Y-129006959D01*
X135765000Y-131397477D01*
X135697363Y-131329722D01*
X135096648Y-131080284D01*
X134446205Y-131079716D01*
X133845057Y-131328106D01*
X133384722Y-131787637D01*
X133135284Y-132388352D01*
X133134716Y-133038795D01*
X133383106Y-133639943D01*
X133842637Y-134100278D01*
X134443352Y-134349716D01*
X135093795Y-134350284D01*
X135694943Y-134101894D01*
X136155278Y-133642363D01*
X136274890Y-133354306D01*
X136427401Y-133252401D01*
X136641007Y-133038795D01*
X138064716Y-133038795D01*
X138313106Y-133639943D01*
X138772637Y-134100278D01*
X139373352Y-134349716D01*
X140023795Y-134350284D01*
X140624943Y-134101894D01*
X141085278Y-133642363D01*
X141334716Y-133041648D01*
X141335284Y-132391205D01*
X141086894Y-131790057D01*
X140627363Y-131329722D01*
X140026648Y-131080284D01*
X139376205Y-131079716D01*
X138775057Y-131328106D01*
X138314722Y-131787637D01*
X138065284Y-132388352D01*
X138064716Y-133038795D01*
X136641007Y-133038795D01*
X137062401Y-132617401D01*
X137227148Y-132370839D01*
X137285000Y-132080000D01*
X137285000Y-128013795D01*
X138064716Y-128013795D01*
X138313106Y-128614943D01*
X138772637Y-129075278D01*
X139373352Y-129324716D01*
X140023795Y-129325284D01*
X140624943Y-129076894D01*
X141085278Y-128617363D01*
X141334716Y-128016648D01*
X141335284Y-127366205D01*
X141086894Y-126765057D01*
X140627363Y-126304722D01*
X140026648Y-126055284D01*
X139376205Y-126054716D01*
X138775057Y-126303106D01*
X138314722Y-126762637D01*
X138065284Y-127363352D01*
X138064716Y-128013795D01*
X137285000Y-128013795D01*
X137285000Y-123513795D01*
X138064716Y-123513795D01*
X138313106Y-124114943D01*
X138772637Y-124575278D01*
X139373352Y-124824716D01*
X140023795Y-124825284D01*
X140624943Y-124576894D01*
X141085278Y-124117363D01*
X141334716Y-123516648D01*
X141335284Y-122866205D01*
X141086894Y-122265057D01*
X140627363Y-121804722D01*
X140026648Y-121555284D01*
X139376205Y-121554716D01*
X138775057Y-121803106D01*
X138314722Y-122262637D01*
X138065284Y-122863352D01*
X138064716Y-123513795D01*
X137285000Y-123513795D01*
X137285000Y-118488795D01*
X138064716Y-118488795D01*
X138313106Y-119089943D01*
X138772637Y-119550278D01*
X139373352Y-119799716D01*
X140023795Y-119800284D01*
X140624943Y-119551894D01*
X141085278Y-119092363D01*
X141334716Y-118491648D01*
X141335284Y-117841205D01*
X141086894Y-117240057D01*
X140627363Y-116779722D01*
X140026648Y-116530284D01*
X139376205Y-116529716D01*
X138775057Y-116778106D01*
X138314722Y-117237637D01*
X138065284Y-117838352D01*
X138064716Y-118488795D01*
X137285000Y-118488795D01*
X137285000Y-113988795D01*
X138064716Y-113988795D01*
X138313106Y-114589943D01*
X138772637Y-115050278D01*
X139373352Y-115299716D01*
X140023795Y-115300284D01*
X140624943Y-115051894D01*
X141085278Y-114592363D01*
X141334716Y-113991648D01*
X141335284Y-113341205D01*
X141086894Y-112740057D01*
X140627363Y-112279722D01*
X140026648Y-112030284D01*
X139376205Y-112029716D01*
X138775057Y-112278106D01*
X138314722Y-112737637D01*
X138065284Y-113338352D01*
X138064716Y-113988795D01*
X137285000Y-113988795D01*
X137285000Y-108963795D01*
X138064716Y-108963795D01*
X138313106Y-109564943D01*
X138772637Y-110025278D01*
X139373352Y-110274716D01*
X140023795Y-110275284D01*
X140624943Y-110026894D01*
X141085278Y-109567363D01*
X141334716Y-108966648D01*
X141335284Y-108316205D01*
X141086894Y-107715057D01*
X140627363Y-107254722D01*
X140026648Y-107005284D01*
X139376205Y-107004716D01*
X138775057Y-107253106D01*
X138314722Y-107712637D01*
X138065284Y-108313352D01*
X138064716Y-108963795D01*
X137285000Y-108963795D01*
X137285000Y-104463795D01*
X138064716Y-104463795D01*
X138313106Y-105064943D01*
X138772637Y-105525278D01*
X139373352Y-105774716D01*
X140023795Y-105775284D01*
X140624943Y-105526894D01*
X141085278Y-105067363D01*
X141334716Y-104466648D01*
X141334718Y-104463795D01*
X144564716Y-104463795D01*
X144813106Y-105064943D01*
X145272637Y-105525278D01*
X145873352Y-105774716D01*
X146523795Y-105775284D01*
X147124943Y-105526894D01*
X147195000Y-105456959D01*
X147195000Y-107322477D01*
X147127363Y-107254722D01*
X146526648Y-107005284D01*
X145876205Y-107004716D01*
X145275057Y-107253106D01*
X144814722Y-107712637D01*
X144565284Y-108313352D01*
X144564716Y-108963795D01*
X144813106Y-109564943D01*
X145272637Y-110025278D01*
X145873352Y-110274716D01*
X146523795Y-110275284D01*
X147124943Y-110026894D01*
X147195000Y-109956959D01*
X147195000Y-112347477D01*
X147127363Y-112279722D01*
X146526648Y-112030284D01*
X145876205Y-112029716D01*
X145275057Y-112278106D01*
X144814722Y-112737637D01*
X144565284Y-113338352D01*
X144564716Y-113988795D01*
X144813106Y-114589943D01*
X145272637Y-115050278D01*
X145873352Y-115299716D01*
X146523795Y-115300284D01*
X147124943Y-115051894D01*
X147195000Y-114981959D01*
X147195000Y-116847477D01*
X147127363Y-116779722D01*
X146526648Y-116530284D01*
X145876205Y-116529716D01*
X145275057Y-116778106D01*
X144814722Y-117237637D01*
X144565284Y-117838352D01*
X144564716Y-118488795D01*
X144813106Y-119089943D01*
X145272637Y-119550278D01*
X145873352Y-119799716D01*
X146523795Y-119800284D01*
X147124943Y-119551894D01*
X147195000Y-119481959D01*
X147195000Y-121872477D01*
X147127363Y-121804722D01*
X146526648Y-121555284D01*
X145876205Y-121554716D01*
X145275057Y-121803106D01*
X144814722Y-122262637D01*
X144565284Y-122863352D01*
X144564716Y-123513795D01*
X144813106Y-124114943D01*
X145272637Y-124575278D01*
X145873352Y-124824716D01*
X146523795Y-124825284D01*
X147124943Y-124576894D01*
X147195000Y-124506959D01*
X147195000Y-126372477D01*
X147127363Y-126304722D01*
X146526648Y-126055284D01*
X145876205Y-126054716D01*
X145275057Y-126303106D01*
X144814722Y-126762637D01*
X144565284Y-127363352D01*
X144564716Y-128013795D01*
X144813106Y-128614943D01*
X145272637Y-129075278D01*
X145873352Y-129324716D01*
X146523795Y-129325284D01*
X147124943Y-129076894D01*
X147195000Y-129006959D01*
X147195000Y-131397477D01*
X147127363Y-131329722D01*
X146526648Y-131080284D01*
X145876205Y-131079716D01*
X145275057Y-131328106D01*
X144814722Y-131787637D01*
X144565284Y-132388352D01*
X144564716Y-133038795D01*
X144813106Y-133639943D01*
X145272637Y-134100278D01*
X145873352Y-134349716D01*
X146523795Y-134350284D01*
X147124943Y-134101894D01*
X147585278Y-133642363D01*
X147704890Y-133354306D01*
X147857401Y-133252401D01*
X148071007Y-133038795D01*
X149494716Y-133038795D01*
X149743106Y-133639943D01*
X150202637Y-134100278D01*
X150803352Y-134349716D01*
X151453795Y-134350284D01*
X152054943Y-134101894D01*
X152515278Y-133642363D01*
X152764716Y-133041648D01*
X152765284Y-132391205D01*
X152516894Y-131790057D01*
X152057363Y-131329722D01*
X151456648Y-131080284D01*
X150806205Y-131079716D01*
X150205057Y-131328106D01*
X149744722Y-131787637D01*
X149495284Y-132388352D01*
X149494716Y-133038795D01*
X148071007Y-133038795D01*
X148492401Y-132617401D01*
X148657148Y-132370839D01*
X148715000Y-132080000D01*
X148715000Y-128013795D01*
X149494716Y-128013795D01*
X149743106Y-128614943D01*
X150202637Y-129075278D01*
X150803352Y-129324716D01*
X151453795Y-129325284D01*
X152054943Y-129076894D01*
X152515278Y-128617363D01*
X152764716Y-128016648D01*
X152765284Y-127366205D01*
X152516894Y-126765057D01*
X152057363Y-126304722D01*
X151456648Y-126055284D01*
X150806205Y-126054716D01*
X150205057Y-126303106D01*
X149744722Y-126762637D01*
X149495284Y-127363352D01*
X149494716Y-128013795D01*
X148715000Y-128013795D01*
X148715000Y-123513795D01*
X149494716Y-123513795D01*
X149743106Y-124114943D01*
X150202637Y-124575278D01*
X150803352Y-124824716D01*
X151453795Y-124825284D01*
X152054943Y-124576894D01*
X152515278Y-124117363D01*
X152764716Y-123516648D01*
X152765284Y-122866205D01*
X152516894Y-122265057D01*
X152057363Y-121804722D01*
X151456648Y-121555284D01*
X150806205Y-121554716D01*
X150205057Y-121803106D01*
X149744722Y-122262637D01*
X149495284Y-122863352D01*
X149494716Y-123513795D01*
X148715000Y-123513795D01*
X148715000Y-119045110D01*
X148775167Y-119045162D01*
X149118943Y-118903117D01*
X149382192Y-118640327D01*
X149494821Y-118369089D01*
X149494716Y-118488795D01*
X149743106Y-119089943D01*
X150202637Y-119550278D01*
X150803352Y-119799716D01*
X151453795Y-119800284D01*
X152054943Y-119551894D01*
X152515278Y-119092363D01*
X152764716Y-118491648D01*
X152765284Y-117841205D01*
X152516894Y-117240057D01*
X152057363Y-116779722D01*
X151456648Y-116530284D01*
X150806205Y-116529716D01*
X150205057Y-116778106D01*
X149985000Y-116997779D01*
X149985000Y-114832260D01*
X150202637Y-115050278D01*
X150803352Y-115299716D01*
X151453795Y-115300284D01*
X152054943Y-115051894D01*
X152515278Y-114592363D01*
X152764716Y-113991648D01*
X152765284Y-113341205D01*
X152516894Y-112740057D01*
X152057363Y-112279722D01*
X151456648Y-112030284D01*
X150806205Y-112029716D01*
X150205057Y-112278106D01*
X149985000Y-112497779D01*
X149985000Y-109807260D01*
X150202637Y-110025278D01*
X150803352Y-110274716D01*
X151453795Y-110275284D01*
X152054943Y-110026894D01*
X152515278Y-109567363D01*
X152764716Y-108966648D01*
X152765284Y-108316205D01*
X152516894Y-107715057D01*
X152057363Y-107254722D01*
X151456648Y-107005284D01*
X150806205Y-107004716D01*
X150205057Y-107253106D01*
X150160015Y-107298069D01*
X150160162Y-107129833D01*
X150018117Y-106786057D01*
X149755327Y-106522808D01*
X149411799Y-106380162D01*
X149039833Y-106379838D01*
X148715000Y-106514056D01*
X148715000Y-104463795D01*
X149494716Y-104463795D01*
X149743106Y-105064943D01*
X150202637Y-105525278D01*
X150803352Y-105774716D01*
X151453795Y-105775284D01*
X152054943Y-105526894D01*
X152515278Y-105067363D01*
X152764716Y-104466648D01*
X152764718Y-104463795D01*
X155994716Y-104463795D01*
X156243106Y-105064943D01*
X156702637Y-105525278D01*
X157303352Y-105774716D01*
X157953795Y-105775284D01*
X158554943Y-105526894D01*
X158625000Y-105456959D01*
X158625000Y-107322477D01*
X158557363Y-107254722D01*
X157956648Y-107005284D01*
X157306205Y-107004716D01*
X156705057Y-107253106D01*
X156244722Y-107712637D01*
X155995284Y-108313352D01*
X155994716Y-108963795D01*
X156243106Y-109564943D01*
X156702637Y-110025278D01*
X157303352Y-110274716D01*
X157953795Y-110275284D01*
X158554943Y-110026894D01*
X158625000Y-109956959D01*
X158625000Y-112347477D01*
X158557363Y-112279722D01*
X157956648Y-112030284D01*
X157306205Y-112029716D01*
X156705057Y-112278106D01*
X156244722Y-112737637D01*
X155995284Y-113338352D01*
X155994716Y-113988795D01*
X156243106Y-114589943D01*
X156702637Y-115050278D01*
X157303352Y-115299716D01*
X157953795Y-115300284D01*
X158554943Y-115051894D01*
X158625000Y-114981959D01*
X158625000Y-116847477D01*
X158557363Y-116779722D01*
X157956648Y-116530284D01*
X157306205Y-116529716D01*
X156705057Y-116778106D01*
X156244722Y-117237637D01*
X155995284Y-117838352D01*
X155994716Y-118488795D01*
X156243106Y-119089943D01*
X156702637Y-119550278D01*
X157303352Y-119799716D01*
X157953795Y-119800284D01*
X158554943Y-119551894D01*
X158625000Y-119481959D01*
X158625000Y-121872477D01*
X158557363Y-121804722D01*
X157956648Y-121555284D01*
X157306205Y-121554716D01*
X156705057Y-121803106D01*
X156244722Y-122262637D01*
X155995284Y-122863352D01*
X155994716Y-123513795D01*
X156243106Y-124114943D01*
X156702637Y-124575278D01*
X157303352Y-124824716D01*
X157953795Y-124825284D01*
X158554943Y-124576894D01*
X158625000Y-124506959D01*
X158625000Y-126372477D01*
X158557363Y-126304722D01*
X157956648Y-126055284D01*
X157306205Y-126054716D01*
X156705057Y-126303106D01*
X156244722Y-126762637D01*
X155995284Y-127363352D01*
X155994716Y-128013795D01*
X156243106Y-128614943D01*
X156702637Y-129075278D01*
X157303352Y-129324716D01*
X157953795Y-129325284D01*
X158554943Y-129076894D01*
X158625000Y-129006959D01*
X158625000Y-131397477D01*
X158557363Y-131329722D01*
X157956648Y-131080284D01*
X157306205Y-131079716D01*
X156705057Y-131328106D01*
X156244722Y-131787637D01*
X155995284Y-132388352D01*
X155994716Y-133038795D01*
X156243106Y-133639943D01*
X156702637Y-134100278D01*
X157303352Y-134349716D01*
X157953795Y-134350284D01*
X158554943Y-134101894D01*
X159015278Y-133642363D01*
X159134890Y-133354306D01*
X159287401Y-133252401D01*
X159501007Y-133038795D01*
X160924716Y-133038795D01*
X161173106Y-133639943D01*
X161632637Y-134100278D01*
X162233352Y-134349716D01*
X162883795Y-134350284D01*
X163484943Y-134101894D01*
X163945278Y-133642363D01*
X164194716Y-133041648D01*
X164195284Y-132391205D01*
X163946894Y-131790057D01*
X163487363Y-131329722D01*
X162886648Y-131080284D01*
X162236205Y-131079716D01*
X161635057Y-131328106D01*
X161174722Y-131787637D01*
X160925284Y-132388352D01*
X160924716Y-133038795D01*
X159501007Y-133038795D01*
X159922401Y-132617401D01*
X160087148Y-132370839D01*
X160145000Y-132080000D01*
X160145000Y-128570110D01*
X160205167Y-128570162D01*
X160548943Y-128428117D01*
X160812192Y-128165327D01*
X160924821Y-127894089D01*
X160924716Y-128013795D01*
X161173106Y-128614943D01*
X161632637Y-129075278D01*
X162233352Y-129324716D01*
X162883795Y-129325284D01*
X163484943Y-129076894D01*
X163945278Y-128617363D01*
X164194716Y-128016648D01*
X164195284Y-127366205D01*
X163946894Y-126765057D01*
X163487363Y-126304722D01*
X162886648Y-126055284D01*
X162236205Y-126054716D01*
X161635057Y-126303106D01*
X161415000Y-126522779D01*
X161415000Y-124357260D01*
X161632637Y-124575278D01*
X162233352Y-124824716D01*
X162883795Y-124825284D01*
X163484943Y-124576894D01*
X163945278Y-124117363D01*
X164194716Y-123516648D01*
X164195284Y-122866205D01*
X163946894Y-122265057D01*
X163487363Y-121804722D01*
X162886648Y-121555284D01*
X162236205Y-121554716D01*
X161635057Y-121803106D01*
X161415000Y-122022779D01*
X161415000Y-119332260D01*
X161632637Y-119550278D01*
X162233352Y-119799716D01*
X162883795Y-119800284D01*
X163484943Y-119551894D01*
X163945278Y-119092363D01*
X164194716Y-118491648D01*
X164195284Y-117841205D01*
X163946894Y-117240057D01*
X163487363Y-116779722D01*
X162886648Y-116530284D01*
X162236205Y-116529716D01*
X161635057Y-116778106D01*
X161415000Y-116997779D01*
X161415000Y-114832260D01*
X161632637Y-115050278D01*
X162233352Y-115299716D01*
X162883795Y-115300284D01*
X163484943Y-115051894D01*
X163945278Y-114592363D01*
X164194716Y-113991648D01*
X164195284Y-113341205D01*
X163946894Y-112740057D01*
X163487363Y-112279722D01*
X162886648Y-112030284D01*
X162236205Y-112029716D01*
X161635057Y-112278106D01*
X161415000Y-112497779D01*
X161415000Y-109807260D01*
X161632637Y-110025278D01*
X162233352Y-110274716D01*
X162883795Y-110275284D01*
X163484943Y-110026894D01*
X163945278Y-109567363D01*
X164194716Y-108966648D01*
X164195284Y-108316205D01*
X163946894Y-107715057D01*
X163487363Y-107254722D01*
X162886648Y-107005284D01*
X162236205Y-107004716D01*
X161635057Y-107253106D01*
X161590015Y-107298069D01*
X161590162Y-107129833D01*
X161448117Y-106786057D01*
X161185327Y-106522808D01*
X160841799Y-106380162D01*
X160469833Y-106379838D01*
X160145000Y-106514056D01*
X160145000Y-104463795D01*
X160924716Y-104463795D01*
X161173106Y-105064943D01*
X161632637Y-105525278D01*
X162233352Y-105774716D01*
X162883795Y-105775284D01*
X163484943Y-105526894D01*
X163945278Y-105067363D01*
X164194716Y-104466648D01*
X164194718Y-104463795D01*
X167424716Y-104463795D01*
X167673106Y-105064943D01*
X168132637Y-105525278D01*
X168733352Y-105774716D01*
X169383795Y-105775284D01*
X169984943Y-105526894D01*
X170055000Y-105456959D01*
X170055000Y-107322477D01*
X169987363Y-107254722D01*
X169386648Y-107005284D01*
X168736205Y-107004716D01*
X168135057Y-107253106D01*
X167674722Y-107712637D01*
X167425284Y-108313352D01*
X167424716Y-108963795D01*
X167673106Y-109564943D01*
X168132637Y-110025278D01*
X168733352Y-110274716D01*
X169383795Y-110275284D01*
X169984943Y-110026894D01*
X170055000Y-109956959D01*
X170055000Y-112347477D01*
X169987363Y-112279722D01*
X169386648Y-112030284D01*
X168736205Y-112029716D01*
X168135057Y-112278106D01*
X167674722Y-112737637D01*
X167425284Y-113338352D01*
X167424716Y-113988795D01*
X167673106Y-114589943D01*
X168132637Y-115050278D01*
X168733352Y-115299716D01*
X169383795Y-115300284D01*
X169984943Y-115051894D01*
X170055000Y-114981959D01*
X170055000Y-116847477D01*
X169987363Y-116779722D01*
X169386648Y-116530284D01*
X168736205Y-116529716D01*
X168135057Y-116778106D01*
X167674722Y-117237637D01*
X167425284Y-117838352D01*
X167424716Y-118488795D01*
X167673106Y-119089943D01*
X168132637Y-119550278D01*
X168733352Y-119799716D01*
X169383795Y-119800284D01*
X169984943Y-119551894D01*
X170055000Y-119481959D01*
X170055000Y-121872477D01*
X169987363Y-121804722D01*
X169386648Y-121555284D01*
X168736205Y-121554716D01*
X168135057Y-121803106D01*
X167674722Y-122262637D01*
X167425284Y-122863352D01*
X167424716Y-123513795D01*
X167673106Y-124114943D01*
X168132637Y-124575278D01*
X168733352Y-124824716D01*
X169383795Y-124825284D01*
X169984943Y-124576894D01*
X170055000Y-124506959D01*
X170055000Y-126372477D01*
X169987363Y-126304722D01*
X169386648Y-126055284D01*
X168736205Y-126054716D01*
X168135057Y-126303106D01*
X167674722Y-126762637D01*
X167425284Y-127363352D01*
X167424716Y-128013795D01*
X167673106Y-128614943D01*
X168132637Y-129075278D01*
X168733352Y-129324716D01*
X169383795Y-129325284D01*
X169984943Y-129076894D01*
X170055000Y-129006959D01*
X170055000Y-131397477D01*
X169987363Y-131329722D01*
X169386648Y-131080284D01*
X168736205Y-131079716D01*
X168135057Y-131328106D01*
X167674722Y-131787637D01*
X167425284Y-132388352D01*
X167424716Y-133038795D01*
X167673106Y-133639943D01*
X168132637Y-134100278D01*
X168733352Y-134349716D01*
X169383795Y-134350284D01*
X169984943Y-134101894D01*
X170445278Y-133642363D01*
X170564890Y-133354306D01*
X170717401Y-133252401D01*
X171352401Y-132617401D01*
X171517148Y-132370839D01*
X171575000Y-132080000D01*
X171575000Y-104067463D01*
X171607192Y-104035327D01*
X171749838Y-103691799D01*
X171750162Y-103319833D01*
X171608117Y-102976057D01*
X171345327Y-102712808D01*
X171001799Y-102570162D01*
X170629833Y-102569838D01*
X170286057Y-102711883D01*
X170115030Y-102882612D01*
X169987363Y-102754722D01*
X169386648Y-102505284D01*
X168736205Y-102504716D01*
X168135057Y-102753106D01*
X167674722Y-103212637D01*
X167425284Y-103813352D01*
X167424716Y-104463795D01*
X164194718Y-104463795D01*
X164195284Y-103816205D01*
X163946894Y-103215057D01*
X163487363Y-102754722D01*
X162886648Y-102505284D01*
X162236205Y-102504716D01*
X161635057Y-102753106D01*
X161174722Y-103212637D01*
X160925284Y-103813352D01*
X160924716Y-104463795D01*
X160145000Y-104463795D01*
X160145000Y-104067463D01*
X160177192Y-104035327D01*
X160319838Y-103691799D01*
X160320162Y-103319833D01*
X160178117Y-102976057D01*
X159915327Y-102712808D01*
X159571799Y-102570162D01*
X159199833Y-102569838D01*
X158856057Y-102711883D01*
X158685030Y-102882612D01*
X158557363Y-102754722D01*
X157956648Y-102505284D01*
X157306205Y-102504716D01*
X156705057Y-102753106D01*
X156244722Y-103212637D01*
X155995284Y-103813352D01*
X155994716Y-104463795D01*
X152764718Y-104463795D01*
X152765284Y-103816205D01*
X152516894Y-103215057D01*
X152057363Y-102754722D01*
X151456648Y-102505284D01*
X150806205Y-102504716D01*
X150205057Y-102753106D01*
X149744722Y-103212637D01*
X149495284Y-103813352D01*
X149494716Y-104463795D01*
X148715000Y-104463795D01*
X148715000Y-104067463D01*
X148747192Y-104035327D01*
X148889838Y-103691799D01*
X148890162Y-103319833D01*
X148748117Y-102976057D01*
X148485327Y-102712808D01*
X148141799Y-102570162D01*
X147769833Y-102569838D01*
X147426057Y-102711883D01*
X147255030Y-102882612D01*
X147127363Y-102754722D01*
X146526648Y-102505284D01*
X145876205Y-102504716D01*
X145275057Y-102753106D01*
X144814722Y-103212637D01*
X144565284Y-103813352D01*
X144564716Y-104463795D01*
X141334718Y-104463795D01*
X141335284Y-103816205D01*
X141086894Y-103215057D01*
X140627363Y-102754722D01*
X140026648Y-102505284D01*
X139376205Y-102504716D01*
X138775057Y-102753106D01*
X138314722Y-103212637D01*
X138065284Y-103813352D01*
X138064716Y-104463795D01*
X137285000Y-104463795D01*
X137285000Y-104067463D01*
X137317192Y-104035327D01*
X137459838Y-103691799D01*
X137460162Y-103319833D01*
X137318117Y-102976057D01*
X137055327Y-102712808D01*
X136711799Y-102570162D01*
X136339833Y-102569838D01*
X135996057Y-102711883D01*
X135825030Y-102882612D01*
X135697363Y-102754722D01*
X135096648Y-102505284D01*
X134446205Y-102504716D01*
X133845057Y-102753106D01*
X133384722Y-103212637D01*
X133135284Y-103813352D01*
X133134716Y-104463795D01*
X129904718Y-104463795D01*
X129905284Y-103816205D01*
X129656894Y-103215057D01*
X129197363Y-102754722D01*
X128596648Y-102505284D01*
X127946205Y-102504716D01*
X127345057Y-102753106D01*
X126884722Y-103212637D01*
X126635284Y-103813352D01*
X126634716Y-104463795D01*
X116915000Y-104463795D01*
X116915000Y-97727532D01*
X161587073Y-97727532D01*
X161685736Y-97994387D01*
X162295461Y-98220908D01*
X162945460Y-98196856D01*
X163434264Y-97994387D01*
X163532927Y-97727532D01*
X168087073Y-97727532D01*
X168185736Y-97994387D01*
X168795461Y-98220908D01*
X169445460Y-98196856D01*
X169934264Y-97994387D01*
X170032927Y-97727532D01*
X169060000Y-96754605D01*
X168087073Y-97727532D01*
X163532927Y-97727532D01*
X162560000Y-96754605D01*
X161587073Y-97727532D01*
X116915000Y-97727532D01*
X116915000Y-96310461D01*
X160914092Y-96310461D01*
X160938144Y-96960460D01*
X161140613Y-97449264D01*
X161407468Y-97547927D01*
X162380395Y-96575000D01*
X162739605Y-96575000D01*
X163712532Y-97547927D01*
X163979387Y-97449264D01*
X164205908Y-96839539D01*
X164186331Y-96310461D01*
X167414092Y-96310461D01*
X167438144Y-96960460D01*
X167640613Y-97449264D01*
X167907468Y-97547927D01*
X168880395Y-96575000D01*
X169239605Y-96575000D01*
X170212532Y-97547927D01*
X170479387Y-97449264D01*
X170705908Y-96839539D01*
X170681856Y-96189540D01*
X170479387Y-95700736D01*
X170212532Y-95602073D01*
X169239605Y-96575000D01*
X168880395Y-96575000D01*
X167907468Y-95602073D01*
X167640613Y-95700736D01*
X167414092Y-96310461D01*
X164186331Y-96310461D01*
X164181856Y-96189540D01*
X163979387Y-95700736D01*
X163712532Y-95602073D01*
X162739605Y-96575000D01*
X162380395Y-96575000D01*
X161407468Y-95602073D01*
X161140613Y-95700736D01*
X160914092Y-96310461D01*
X116915000Y-96310461D01*
X116915000Y-95422468D01*
X161587073Y-95422468D01*
X162560000Y-96395395D01*
X163532927Y-95422468D01*
X168087073Y-95422468D01*
X169060000Y-96395395D01*
X170032927Y-95422468D01*
X169934264Y-95155613D01*
X169324539Y-94929092D01*
X168674540Y-94953144D01*
X168185736Y-95155613D01*
X168087073Y-95422468D01*
X163532927Y-95422468D01*
X163434264Y-95155613D01*
X162824539Y-94929092D01*
X162174540Y-94953144D01*
X161685736Y-95155613D01*
X161587073Y-95422468D01*
X116915000Y-95422468D01*
X116915000Y-92398795D01*
X160924716Y-92398795D01*
X161173106Y-92999943D01*
X161632637Y-93460278D01*
X162233352Y-93709716D01*
X162883795Y-93710284D01*
X163484943Y-93461894D01*
X163945278Y-93002363D01*
X164194716Y-92401648D01*
X164194718Y-92398795D01*
X167424716Y-92398795D01*
X167673106Y-92999943D01*
X168132637Y-93460278D01*
X168733352Y-93709716D01*
X169383795Y-93710284D01*
X169984943Y-93461894D01*
X170445278Y-93002363D01*
X170694716Y-92401648D01*
X170695284Y-91751205D01*
X170446894Y-91150057D01*
X169987363Y-90689722D01*
X169386648Y-90440284D01*
X168736205Y-90439716D01*
X168135057Y-90688106D01*
X167674722Y-91147637D01*
X167425284Y-91748352D01*
X167424716Y-92398795D01*
X164194718Y-92398795D01*
X164195284Y-91751205D01*
X163946894Y-91150057D01*
X163487363Y-90689722D01*
X162886648Y-90440284D01*
X162236205Y-90439716D01*
X161635057Y-90688106D01*
X161174722Y-91147637D01*
X160925284Y-91748352D01*
X160924716Y-92398795D01*
X116915000Y-92398795D01*
X116915000Y-85075854D01*
X117514457Y-85075854D01*
X117990727Y-86228515D01*
X118871847Y-87111174D01*
X120023674Y-87589454D01*
X121270854Y-87590543D01*
X122423515Y-87114273D01*
X123306174Y-86233153D01*
X123632657Y-85446892D01*
X142068514Y-85446892D01*
X142314817Y-85971358D01*
X142743076Y-86361645D01*
X143153110Y-86531476D01*
X143383000Y-86410155D01*
X143383000Y-85217000D01*
X142189181Y-85217000D01*
X142068514Y-85446892D01*
X123632657Y-85446892D01*
X123784454Y-85081326D01*
X123785543Y-83834146D01*
X123309273Y-82681485D01*
X123148975Y-82520907D01*
X142025000Y-82520907D01*
X142025000Y-82579093D01*
X142138039Y-83147378D01*
X142459946Y-83629147D01*
X142743101Y-83818345D01*
X142743076Y-83818355D01*
X142314817Y-84208642D01*
X142068514Y-84733108D01*
X142189181Y-84963000D01*
X143383000Y-84963000D01*
X143383000Y-84943000D01*
X143637000Y-84943000D01*
X143637000Y-84963000D01*
X143657000Y-84963000D01*
X143657000Y-85217000D01*
X143637000Y-85217000D01*
X143637000Y-86410155D01*
X143866890Y-86531476D01*
X144276924Y-86361645D01*
X144705183Y-85971358D01*
X144772298Y-85828447D01*
X144999946Y-86169147D01*
X145481715Y-86491054D01*
X146050000Y-86604093D01*
X146618285Y-86491054D01*
X147100054Y-86169147D01*
X147320000Y-85839974D01*
X147539946Y-86169147D01*
X148021715Y-86491054D01*
X148590000Y-86604093D01*
X149158285Y-86491054D01*
X149640054Y-86169147D01*
X149860000Y-85839974D01*
X150079946Y-86169147D01*
X150561715Y-86491054D01*
X151130000Y-86604093D01*
X151698285Y-86491054D01*
X152180054Y-86169147D01*
X152400000Y-85839974D01*
X152619946Y-86169147D01*
X153101715Y-86491054D01*
X153670000Y-86604093D01*
X154238285Y-86491054D01*
X154720054Y-86169147D01*
X155041961Y-85687378D01*
X155155000Y-85119093D01*
X155155000Y-85075854D01*
X173394457Y-85075854D01*
X173870727Y-86228515D01*
X174751847Y-87111174D01*
X175903674Y-87589454D01*
X177150854Y-87590543D01*
X178303515Y-87114273D01*
X179186174Y-86233153D01*
X179664454Y-85081326D01*
X179665543Y-83834146D01*
X179189273Y-82681485D01*
X178308153Y-81798826D01*
X177156326Y-81320546D01*
X175909146Y-81319457D01*
X174756485Y-81795727D01*
X173873826Y-82676847D01*
X173395546Y-83828674D01*
X173394457Y-85075854D01*
X155155000Y-85075854D01*
X155155000Y-85060907D01*
X155041961Y-84492622D01*
X154720054Y-84010853D01*
X154718821Y-84010029D01*
X154755317Y-84003162D01*
X154971441Y-83864090D01*
X155116431Y-83651890D01*
X155167440Y-83400000D01*
X155167440Y-81700000D01*
X155123162Y-81464683D01*
X154984090Y-81248559D01*
X154771890Y-81103569D01*
X154520000Y-81052560D01*
X152820000Y-81052560D01*
X152584683Y-81096838D01*
X152368559Y-81235910D01*
X152223569Y-81448110D01*
X152209914Y-81515541D01*
X152180054Y-81470853D01*
X151698285Y-81148946D01*
X151130000Y-81035907D01*
X150561715Y-81148946D01*
X150079946Y-81470853D01*
X149860000Y-81800026D01*
X149640054Y-81470853D01*
X149158285Y-81148946D01*
X148590000Y-81035907D01*
X148021715Y-81148946D01*
X147539946Y-81470853D01*
X147320000Y-81800026D01*
X147100054Y-81470853D01*
X146618285Y-81148946D01*
X146050000Y-81035907D01*
X145481715Y-81148946D01*
X144999946Y-81470853D01*
X144780000Y-81800026D01*
X144560054Y-81470853D01*
X144078285Y-81148946D01*
X143510000Y-81035907D01*
X142941715Y-81148946D01*
X142459946Y-81470853D01*
X142138039Y-81952622D01*
X142025000Y-82520907D01*
X123148975Y-82520907D01*
X122428153Y-81798826D01*
X121276326Y-81320546D01*
X120029146Y-81319457D01*
X118876485Y-81795727D01*
X117993826Y-82676847D01*
X117515546Y-83828674D01*
X117514457Y-85075854D01*
X116915000Y-85075854D01*
X116915000Y-84524931D01*
X117212161Y-83030999D01*
X118018791Y-81823791D01*
X119226001Y-81017161D01*
X120719931Y-80720000D01*
X176460069Y-80720000D01*
X177954001Y-81017161D01*
M02*
