M48
;DRILL file {KiCad 4.0.7} date 09/22/19 17:23:39
;FORMAT={2:4/ absolute / inch / suppress leading zeros}
FMAT,2
INCH,TZ
T1C0.016
T2C0.039
T3C0.043
T4C0.120
%
G90
G05
M72
T1
X53750Y-40750
X58250Y-40750
X58500Y-46500
X58750Y-42250
X62750Y-40750
X63000Y-50250
X63250Y-42250
X67250Y-40750
T2
X56500Y-32500
X56500Y-33500
X57500Y-32500
X57500Y-33500
X58500Y-32500
X58500Y-33500
X59500Y-32500
X59500Y-33500
X60500Y-32500
X60500Y-33500
T3
X50500Y-41000
X50500Y-42772
X50500Y-44750
X50500Y-46522
X50500Y-48500
X50500Y-50272
X50500Y-52250
X50500Y-54022
X53059Y-41000
X53059Y-42772
X53059Y-44750
X53059Y-46522
X53059Y-48500
X53059Y-50272
X53059Y-52250
X53059Y-54022
X55000Y-41000
X55000Y-42772
X55000Y-44750
X55000Y-46522
X55000Y-48500
X55000Y-50272
X55000Y-52250
X55000Y-54022
X57559Y-41000
X57559Y-42772
X57559Y-44750
X57559Y-46522
X57559Y-48500
X57559Y-50272
X57559Y-52250
X57559Y-54022
X59500Y-41000
X59500Y-42772
X59500Y-44750
X59500Y-46522
X59500Y-48500
X59500Y-50272
X59500Y-52250
X59500Y-54022
X62059Y-41000
X62059Y-42772
X62059Y-44750
X62059Y-46522
X62059Y-48500
X62059Y-50272
X62059Y-52250
X62059Y-54022
X64000Y-36250
X64000Y-38022
X64000Y-41000
X64000Y-42772
X64000Y-44750
X64000Y-46522
X64000Y-48500
X64000Y-50272
X64000Y-52250
X64000Y-54022
X66559Y-36250
X66559Y-38022
X66559Y-41000
X66559Y-42772
X66559Y-44750
X66559Y-46522
X66559Y-48500
X66559Y-50272
X66559Y-52250
X66559Y-54022
T4
X47500Y-33250
X47500Y-54000
X69500Y-33250
X69500Y-54000
T0
M30
