G04 #@! TF.FileFunction,Legend,Top*
%FSLAX46Y46*%
G04 Gerber Fmt 4.6, Leading zero omitted, Abs format (unit mm)*
G04 Created by KiCad (PCBNEW 4.0.7) date 09/22/19 23:17:33*
%MOMM*%
%LPD*%
G01*
G04 APERTURE LIST*
%ADD10C,0.100000*%
%ADD11C,0.150000*%
%ADD12C,0.300000*%
%ADD13C,0.200000*%
%ADD14C,0.120000*%
G04 APERTURE END LIST*
D10*
D11*
X131755238Y-41695714D02*
X131755238Y-42505238D01*
X131707619Y-42600476D01*
X131660000Y-42648095D01*
X131564761Y-42695714D01*
X131421904Y-42695714D01*
X131326666Y-42648095D01*
X131755238Y-42314762D02*
X131660000Y-42362381D01*
X131469523Y-42362381D01*
X131374285Y-42314762D01*
X131326666Y-42267143D01*
X131279047Y-42171905D01*
X131279047Y-41886190D01*
X131326666Y-41790952D01*
X131374285Y-41743333D01*
X131469523Y-41695714D01*
X131660000Y-41695714D01*
X131755238Y-41743333D01*
X132231428Y-42362381D02*
X132231428Y-41695714D01*
X132231428Y-41362381D02*
X132183809Y-41410000D01*
X132231428Y-41457619D01*
X132279047Y-41410000D01*
X132231428Y-41362381D01*
X132231428Y-41457619D01*
X132564761Y-41695714D02*
X132945713Y-41695714D01*
X132707618Y-41362381D02*
X132707618Y-42219524D01*
X132755237Y-42314762D01*
X132850475Y-42362381D01*
X132945713Y-42362381D01*
X133279047Y-42362381D02*
X133279047Y-41362381D01*
X133707619Y-42362381D02*
X133707619Y-41838571D01*
X133660000Y-41743333D01*
X133564762Y-41695714D01*
X133421904Y-41695714D01*
X133326666Y-41743333D01*
X133279047Y-41790952D01*
X134612381Y-41695714D02*
X134612381Y-42362381D01*
X134183809Y-41695714D02*
X134183809Y-42219524D01*
X134231428Y-42314762D01*
X134326666Y-42362381D01*
X134469524Y-42362381D01*
X134564762Y-42314762D01*
X134612381Y-42267143D01*
X135088571Y-42362381D02*
X135088571Y-41362381D01*
X135088571Y-41743333D02*
X135183809Y-41695714D01*
X135374286Y-41695714D01*
X135469524Y-41743333D01*
X135517143Y-41790952D01*
X135564762Y-41886190D01*
X135564762Y-42171905D01*
X135517143Y-42267143D01*
X135469524Y-42314762D01*
X135374286Y-42362381D01*
X135183809Y-42362381D01*
X135088571Y-42314762D01*
X135993333Y-42267143D02*
X136040952Y-42314762D01*
X135993333Y-42362381D01*
X135945714Y-42314762D01*
X135993333Y-42267143D01*
X135993333Y-42362381D01*
X136898095Y-42314762D02*
X136802857Y-42362381D01*
X136612380Y-42362381D01*
X136517142Y-42314762D01*
X136469523Y-42267143D01*
X136421904Y-42171905D01*
X136421904Y-41886190D01*
X136469523Y-41790952D01*
X136517142Y-41743333D01*
X136612380Y-41695714D01*
X136802857Y-41695714D01*
X136898095Y-41743333D01*
X137469523Y-42362381D02*
X137374285Y-42314762D01*
X137326666Y-42267143D01*
X137279047Y-42171905D01*
X137279047Y-41886190D01*
X137326666Y-41790952D01*
X137374285Y-41743333D01*
X137469523Y-41695714D01*
X137612381Y-41695714D01*
X137707619Y-41743333D01*
X137755238Y-41790952D01*
X137802857Y-41886190D01*
X137802857Y-42171905D01*
X137755238Y-42267143D01*
X137707619Y-42314762D01*
X137612381Y-42362381D01*
X137469523Y-42362381D01*
X138231428Y-42362381D02*
X138231428Y-41695714D01*
X138231428Y-41790952D02*
X138279047Y-41743333D01*
X138374285Y-41695714D01*
X138517143Y-41695714D01*
X138612381Y-41743333D01*
X138660000Y-41838571D01*
X138660000Y-42362381D01*
X138660000Y-41838571D02*
X138707619Y-41743333D01*
X138802857Y-41695714D01*
X138945714Y-41695714D01*
X139040952Y-41743333D01*
X139088571Y-41838571D01*
X139088571Y-42362381D01*
X140279047Y-41314762D02*
X139421904Y-42600476D01*
X140469523Y-41695714D02*
X140850475Y-41695714D01*
X140612380Y-41362381D02*
X140612380Y-42219524D01*
X140659999Y-42314762D01*
X140755237Y-42362381D01*
X140850475Y-42362381D01*
X141564762Y-42314762D02*
X141469524Y-42362381D01*
X141279047Y-42362381D01*
X141183809Y-42314762D01*
X141136190Y-42219524D01*
X141136190Y-41838571D01*
X141183809Y-41743333D01*
X141279047Y-41695714D01*
X141469524Y-41695714D01*
X141564762Y-41743333D01*
X141612381Y-41838571D01*
X141612381Y-41933810D01*
X141136190Y-42029048D01*
X142040952Y-42362381D02*
X142040952Y-41362381D01*
X142040952Y-41743333D02*
X142136190Y-41695714D01*
X142326667Y-41695714D01*
X142421905Y-41743333D01*
X142469524Y-41790952D01*
X142517143Y-41886190D01*
X142517143Y-42171905D01*
X142469524Y-42267143D01*
X142421905Y-42314762D01*
X142326667Y-42362381D01*
X142136190Y-42362381D01*
X142040952Y-42314762D01*
X143088571Y-42362381D02*
X142993333Y-42314762D01*
X142945714Y-42219524D01*
X142945714Y-41362381D01*
X131898095Y-40409762D02*
X132040952Y-40457381D01*
X132279048Y-40457381D01*
X132374286Y-40409762D01*
X132421905Y-40362143D01*
X132469524Y-40266905D01*
X132469524Y-40171667D01*
X132421905Y-40076429D01*
X132374286Y-40028810D01*
X132279048Y-39981190D01*
X132088571Y-39933571D01*
X131993333Y-39885952D01*
X131945714Y-39838333D01*
X131898095Y-39743095D01*
X131898095Y-39647857D01*
X131945714Y-39552619D01*
X131993333Y-39505000D01*
X132088571Y-39457381D01*
X132326667Y-39457381D01*
X132469524Y-39505000D01*
X133279048Y-40409762D02*
X133183810Y-40457381D01*
X132993333Y-40457381D01*
X132898095Y-40409762D01*
X132850476Y-40314524D01*
X132850476Y-39933571D01*
X132898095Y-39838333D01*
X132993333Y-39790714D01*
X133183810Y-39790714D01*
X133279048Y-39838333D01*
X133326667Y-39933571D01*
X133326667Y-40028810D01*
X132850476Y-40124048D01*
X133755238Y-40457381D02*
X133755238Y-39790714D01*
X133755238Y-39981190D02*
X133802857Y-39885952D01*
X133850476Y-39838333D01*
X133945714Y-39790714D01*
X134040953Y-39790714D01*
X134374286Y-40457381D02*
X134374286Y-39790714D01*
X134374286Y-39457381D02*
X134326667Y-39505000D01*
X134374286Y-39552619D01*
X134421905Y-39505000D01*
X134374286Y-39457381D01*
X134374286Y-39552619D01*
X135279048Y-40457381D02*
X135279048Y-39933571D01*
X135231429Y-39838333D01*
X135136191Y-39790714D01*
X134945714Y-39790714D01*
X134850476Y-39838333D01*
X135279048Y-40409762D02*
X135183810Y-40457381D01*
X134945714Y-40457381D01*
X134850476Y-40409762D01*
X134802857Y-40314524D01*
X134802857Y-40219286D01*
X134850476Y-40124048D01*
X134945714Y-40076429D01*
X135183810Y-40076429D01*
X135279048Y-40028810D01*
X135898095Y-40457381D02*
X135802857Y-40409762D01*
X135755238Y-40314524D01*
X135755238Y-39457381D01*
X137612382Y-40362143D02*
X137564763Y-40409762D01*
X137421906Y-40457381D01*
X137326668Y-40457381D01*
X137183810Y-40409762D01*
X137088572Y-40314524D01*
X137040953Y-40219286D01*
X136993334Y-40028810D01*
X136993334Y-39885952D01*
X137040953Y-39695476D01*
X137088572Y-39600238D01*
X137183810Y-39505000D01*
X137326668Y-39457381D01*
X137421906Y-39457381D01*
X137564763Y-39505000D01*
X137612382Y-39552619D01*
X138040953Y-40457381D02*
X138040953Y-39457381D01*
X138469525Y-40457381D02*
X138469525Y-39933571D01*
X138421906Y-39838333D01*
X138326668Y-39790714D01*
X138183810Y-39790714D01*
X138088572Y-39838333D01*
X138040953Y-39885952D01*
X138945715Y-40457381D02*
X138945715Y-39790714D01*
X138945715Y-39457381D02*
X138898096Y-39505000D01*
X138945715Y-39552619D01*
X138993334Y-39505000D01*
X138945715Y-39457381D01*
X138945715Y-39552619D01*
X139850477Y-40409762D02*
X139755239Y-40457381D01*
X139564762Y-40457381D01*
X139469524Y-40409762D01*
X139421905Y-40362143D01*
X139374286Y-40266905D01*
X139374286Y-39981190D01*
X139421905Y-39885952D01*
X139469524Y-39838333D01*
X139564762Y-39790714D01*
X139755239Y-39790714D01*
X139850477Y-39838333D01*
X140279048Y-40457381D02*
X140279048Y-39457381D01*
X140374286Y-40076429D02*
X140660001Y-40457381D01*
X140660001Y-39790714D02*
X140279048Y-40171667D01*
X141469525Y-40409762D02*
X141374287Y-40457381D01*
X141183810Y-40457381D01*
X141088572Y-40409762D01*
X141040953Y-40314524D01*
X141040953Y-39933571D01*
X141088572Y-39838333D01*
X141183810Y-39790714D01*
X141374287Y-39790714D01*
X141469525Y-39838333D01*
X141517144Y-39933571D01*
X141517144Y-40028810D01*
X141040953Y-40124048D01*
X141945715Y-39790714D02*
X141945715Y-40457381D01*
X141945715Y-39885952D02*
X141993334Y-39838333D01*
X142088572Y-39790714D01*
X142231430Y-39790714D01*
X142326668Y-39838333D01*
X142374287Y-39933571D01*
X142374287Y-40457381D01*
D12*
X126195716Y-38778571D02*
X125695716Y-38064286D01*
X125338573Y-38778571D02*
X125338573Y-37278571D01*
X125910001Y-37278571D01*
X126052859Y-37350000D01*
X126124287Y-37421429D01*
X126195716Y-37564286D01*
X126195716Y-37778571D01*
X126124287Y-37921429D01*
X126052859Y-37992857D01*
X125910001Y-38064286D01*
X125338573Y-38064286D01*
X127695716Y-38635714D02*
X127624287Y-38707143D01*
X127410001Y-38778571D01*
X127267144Y-38778571D01*
X127052859Y-38707143D01*
X126910001Y-38564286D01*
X126838573Y-38421429D01*
X126767144Y-38135714D01*
X126767144Y-37921429D01*
X126838573Y-37635714D01*
X126910001Y-37492857D01*
X127052859Y-37350000D01*
X127267144Y-37278571D01*
X127410001Y-37278571D01*
X127624287Y-37350000D01*
X127695716Y-37421429D01*
X128981430Y-37278571D02*
X128695716Y-37278571D01*
X128552859Y-37350000D01*
X128481430Y-37421429D01*
X128338573Y-37635714D01*
X128267144Y-37921429D01*
X128267144Y-38492857D01*
X128338573Y-38635714D01*
X128410001Y-38707143D01*
X128552859Y-38778571D01*
X128838573Y-38778571D01*
X128981430Y-38707143D01*
X129052859Y-38635714D01*
X129124287Y-38492857D01*
X129124287Y-38135714D01*
X129052859Y-37992857D01*
X128981430Y-37921429D01*
X128838573Y-37850000D01*
X128552859Y-37850000D01*
X128410001Y-37921429D01*
X128338573Y-37992857D01*
X128267144Y-38135714D01*
X129981430Y-37921429D02*
X129838572Y-37850000D01*
X129767144Y-37778571D01*
X129695715Y-37635714D01*
X129695715Y-37564286D01*
X129767144Y-37421429D01*
X129838572Y-37350000D01*
X129981430Y-37278571D01*
X130267144Y-37278571D01*
X130410001Y-37350000D01*
X130481430Y-37421429D01*
X130552858Y-37564286D01*
X130552858Y-37635714D01*
X130481430Y-37778571D01*
X130410001Y-37850000D01*
X130267144Y-37921429D01*
X129981430Y-37921429D01*
X129838572Y-37992857D01*
X129767144Y-38064286D01*
X129695715Y-38207143D01*
X129695715Y-38492857D01*
X129767144Y-38635714D01*
X129838572Y-38707143D01*
X129981430Y-38778571D01*
X130267144Y-38778571D01*
X130410001Y-38707143D01*
X130481430Y-38635714D01*
X130552858Y-38492857D01*
X130552858Y-38207143D01*
X130481430Y-38064286D01*
X130410001Y-37992857D01*
X130267144Y-37921429D01*
X131481429Y-37278571D02*
X131624286Y-37278571D01*
X131767143Y-37350000D01*
X131838572Y-37421429D01*
X131910001Y-37564286D01*
X131981429Y-37850000D01*
X131981429Y-38207143D01*
X131910001Y-38492857D01*
X131838572Y-38635714D01*
X131767143Y-38707143D01*
X131624286Y-38778571D01*
X131481429Y-38778571D01*
X131338572Y-38707143D01*
X131267143Y-38635714D01*
X131195715Y-38492857D01*
X131124286Y-38207143D01*
X131124286Y-37850000D01*
X131195715Y-37564286D01*
X131267143Y-37421429D01*
X131338572Y-37350000D01*
X131481429Y-37278571D01*
X132552857Y-37421429D02*
X132624286Y-37350000D01*
X132767143Y-37278571D01*
X133124286Y-37278571D01*
X133267143Y-37350000D01*
X133338572Y-37421429D01*
X133410000Y-37564286D01*
X133410000Y-37707143D01*
X133338572Y-37921429D01*
X132481429Y-38778571D01*
X133410000Y-38778571D01*
X135195714Y-38778571D02*
X135195714Y-37278571D01*
X135695714Y-38350000D01*
X136195714Y-37278571D01*
X136195714Y-38778571D01*
X136910000Y-38778571D02*
X136910000Y-37778571D01*
X136910000Y-37278571D02*
X136838571Y-37350000D01*
X136910000Y-37421429D01*
X136981428Y-37350000D01*
X136910000Y-37278571D01*
X136910000Y-37421429D01*
X138267143Y-38707143D02*
X138124286Y-38778571D01*
X137838572Y-38778571D01*
X137695714Y-38707143D01*
X137624286Y-38635714D01*
X137552857Y-38492857D01*
X137552857Y-38064286D01*
X137624286Y-37921429D01*
X137695714Y-37850000D01*
X137838572Y-37778571D01*
X138124286Y-37778571D01*
X138267143Y-37850000D01*
X138910000Y-38778571D02*
X138910000Y-37778571D01*
X138910000Y-38064286D02*
X138981428Y-37921429D01*
X139052857Y-37850000D01*
X139195714Y-37778571D01*
X139338571Y-37778571D01*
X140052857Y-38778571D02*
X139909999Y-38707143D01*
X139838571Y-38635714D01*
X139767142Y-38492857D01*
X139767142Y-38064286D01*
X139838571Y-37921429D01*
X139909999Y-37850000D01*
X140052857Y-37778571D01*
X140267142Y-37778571D01*
X140409999Y-37850000D01*
X140481428Y-37921429D01*
X140552857Y-38064286D01*
X140552857Y-38492857D01*
X140481428Y-38635714D01*
X140409999Y-38707143D01*
X140267142Y-38778571D01*
X140052857Y-38778571D01*
X141838571Y-38707143D02*
X141695714Y-38778571D01*
X141410000Y-38778571D01*
X141267142Y-38707143D01*
X141195714Y-38635714D01*
X141124285Y-38492857D01*
X141124285Y-38064286D01*
X141195714Y-37921429D01*
X141267142Y-37850000D01*
X141410000Y-37778571D01*
X141695714Y-37778571D01*
X141838571Y-37850000D01*
X142481428Y-38778571D02*
X142481428Y-37278571D01*
X143124285Y-38778571D02*
X143124285Y-37992857D01*
X143052856Y-37850000D01*
X142909999Y-37778571D01*
X142695714Y-37778571D01*
X142552856Y-37850000D01*
X142481428Y-37921429D01*
X143838571Y-38778571D02*
X143838571Y-37778571D01*
X143838571Y-37278571D02*
X143767142Y-37350000D01*
X143838571Y-37421429D01*
X143909999Y-37350000D01*
X143838571Y-37278571D01*
X143838571Y-37421429D01*
X145195714Y-38707143D02*
X145052857Y-38778571D01*
X144767143Y-38778571D01*
X144624285Y-38707143D01*
X144552857Y-38635714D01*
X144481428Y-38492857D01*
X144481428Y-38064286D01*
X144552857Y-37921429D01*
X144624285Y-37850000D01*
X144767143Y-37778571D01*
X145052857Y-37778571D01*
X145195714Y-37850000D01*
X145838571Y-38778571D02*
X145838571Y-37278571D01*
X145981428Y-38207143D02*
X146409999Y-38778571D01*
X146409999Y-37778571D02*
X145838571Y-38350000D01*
X147624285Y-38707143D02*
X147481428Y-38778571D01*
X147195714Y-38778571D01*
X147052857Y-38707143D01*
X146981428Y-38564286D01*
X146981428Y-37992857D01*
X147052857Y-37850000D01*
X147195714Y-37778571D01*
X147481428Y-37778571D01*
X147624285Y-37850000D01*
X147695714Y-37992857D01*
X147695714Y-38135714D01*
X146981428Y-38278571D01*
X148338571Y-37778571D02*
X148338571Y-38778571D01*
X148338571Y-37921429D02*
X148409999Y-37850000D01*
X148552857Y-37778571D01*
X148767142Y-37778571D01*
X148909999Y-37850000D01*
X148981428Y-37992857D01*
X148981428Y-38778571D01*
D13*
X184150000Y-40005000D02*
X187325000Y-40005000D01*
X184150000Y-46355000D02*
X184150000Y-40005000D01*
X184150000Y-56515000D02*
X184150000Y-50165000D01*
X187325000Y-56515000D02*
X184150000Y-56515000D01*
X187325000Y-40005000D02*
X194310000Y-40005000D01*
X187325000Y-56515000D02*
X194310000Y-56515000D01*
X194310000Y-55880000D02*
X194310000Y-56515000D01*
X194310000Y-55880000D02*
X194310000Y-55245000D01*
X194310000Y-41275000D02*
X194310000Y-40005000D01*
D10*
X176472857Y-47770952D02*
X176472857Y-48037619D01*
X176891905Y-48037619D02*
X176091905Y-48037619D01*
X176091905Y-47656666D01*
X176091905Y-47466191D02*
X176091905Y-47009048D01*
X176891905Y-47237619D02*
X176091905Y-47237619D01*
X176891905Y-46742381D02*
X176091905Y-46742381D01*
X176091905Y-46551905D01*
X176130000Y-46437619D01*
X176206190Y-46361428D01*
X176282381Y-46323333D01*
X176434762Y-46285238D01*
X176549048Y-46285238D01*
X176701429Y-46323333D01*
X176777619Y-46361428D01*
X176853810Y-46437619D01*
X176891905Y-46551905D01*
X176891905Y-46742381D01*
X176891905Y-45942381D02*
X176091905Y-45942381D01*
X171392857Y-47770952D02*
X171392857Y-48037619D01*
X171811905Y-48037619D02*
X171011905Y-48037619D01*
X171011905Y-47656666D01*
X171011905Y-47466191D02*
X171011905Y-47009048D01*
X171811905Y-47237619D02*
X171011905Y-47237619D01*
X171811905Y-46742381D02*
X171011905Y-46742381D01*
X171011905Y-46551905D01*
X171050000Y-46437619D01*
X171126190Y-46361428D01*
X171202381Y-46323333D01*
X171354762Y-46285238D01*
X171469048Y-46285238D01*
X171621429Y-46323333D01*
X171697619Y-46361428D01*
X171773810Y-46437619D01*
X171811905Y-46551905D01*
X171811905Y-46742381D01*
X171811905Y-45942381D02*
X171011905Y-45942381D01*
X173716905Y-48882381D02*
X173335952Y-49149048D01*
X173716905Y-49339524D02*
X172916905Y-49339524D01*
X172916905Y-49034762D01*
X172955000Y-48958571D01*
X172993095Y-48920476D01*
X173069286Y-48882381D01*
X173183571Y-48882381D01*
X173259762Y-48920476D01*
X173297857Y-48958571D01*
X173335952Y-49034762D01*
X173335952Y-49339524D01*
X172916905Y-48653810D02*
X172916905Y-48196667D01*
X173716905Y-48425238D02*
X172916905Y-48425238D01*
X173678810Y-47968095D02*
X173716905Y-47853809D01*
X173716905Y-47663333D01*
X173678810Y-47587143D01*
X173640714Y-47549047D01*
X173564524Y-47510952D01*
X173488333Y-47510952D01*
X173412143Y-47549047D01*
X173374048Y-47587143D01*
X173335952Y-47663333D01*
X173297857Y-47815714D01*
X173259762Y-47891905D01*
X173221667Y-47930000D01*
X173145476Y-47968095D01*
X173069286Y-47968095D01*
X172993095Y-47930000D01*
X172955000Y-47891905D01*
X172916905Y-47815714D01*
X172916905Y-47625238D01*
X172955000Y-47510952D01*
X173297857Y-46558571D02*
X173297857Y-46291904D01*
X173716905Y-46177618D02*
X173716905Y-46558571D01*
X172916905Y-46558571D01*
X172916905Y-46177618D01*
X173716905Y-45834761D02*
X172916905Y-45834761D01*
X173716905Y-45377618D01*
X172916905Y-45377618D01*
X173488333Y-45034761D02*
X173488333Y-44653809D01*
X173716905Y-45110952D02*
X172916905Y-44844285D01*
X173716905Y-44577618D01*
X173297857Y-44044285D02*
X173335952Y-43929999D01*
X173374048Y-43891904D01*
X173450238Y-43853809D01*
X173564524Y-43853809D01*
X173640714Y-43891904D01*
X173678810Y-43929999D01*
X173716905Y-44006190D01*
X173716905Y-44310952D01*
X172916905Y-44310952D01*
X172916905Y-44044285D01*
X172955000Y-43968095D01*
X172993095Y-43929999D01*
X173069286Y-43891904D01*
X173145476Y-43891904D01*
X173221667Y-43929999D01*
X173259762Y-43968095D01*
X173297857Y-44044285D01*
X173297857Y-44310952D01*
X173716905Y-43129999D02*
X173716905Y-43510952D01*
X172916905Y-43510952D01*
X173297857Y-42863333D02*
X173297857Y-42596666D01*
X173716905Y-42482380D02*
X173716905Y-42863333D01*
X172916905Y-42863333D01*
X172916905Y-42482380D01*
X177996905Y-49339524D02*
X178644524Y-49339524D01*
X178720714Y-49301429D01*
X178758810Y-49263333D01*
X178796905Y-49187143D01*
X178796905Y-49034762D01*
X178758810Y-48958571D01*
X178720714Y-48920476D01*
X178644524Y-48882381D01*
X177996905Y-48882381D01*
X178758810Y-48539524D02*
X178796905Y-48425238D01*
X178796905Y-48234762D01*
X178758810Y-48158572D01*
X178720714Y-48120476D01*
X178644524Y-48082381D01*
X178568333Y-48082381D01*
X178492143Y-48120476D01*
X178454048Y-48158572D01*
X178415952Y-48234762D01*
X178377857Y-48387143D01*
X178339762Y-48463334D01*
X178301667Y-48501429D01*
X178225476Y-48539524D01*
X178149286Y-48539524D01*
X178073095Y-48501429D01*
X178035000Y-48463334D01*
X177996905Y-48387143D01*
X177996905Y-48196667D01*
X178035000Y-48082381D01*
X178377857Y-47472857D02*
X178415952Y-47358571D01*
X178454048Y-47320476D01*
X178530238Y-47282381D01*
X178644524Y-47282381D01*
X178720714Y-47320476D01*
X178758810Y-47358571D01*
X178796905Y-47434762D01*
X178796905Y-47739524D01*
X177996905Y-47739524D01*
X177996905Y-47472857D01*
X178035000Y-47396667D01*
X178073095Y-47358571D01*
X178149286Y-47320476D01*
X178225476Y-47320476D01*
X178301667Y-47358571D01*
X178339762Y-47396667D01*
X178377857Y-47472857D01*
X178377857Y-47739524D01*
X178796905Y-46330000D02*
X177996905Y-46330000D01*
X177996905Y-46025238D01*
X178035000Y-45949047D01*
X178073095Y-45910952D01*
X178149286Y-45872857D01*
X178263571Y-45872857D01*
X178339762Y-45910952D01*
X178377857Y-45949047D01*
X178415952Y-46025238D01*
X178415952Y-46330000D01*
X177996905Y-45377619D02*
X177996905Y-45225238D01*
X178035000Y-45149047D01*
X178111190Y-45072857D01*
X178263571Y-45034762D01*
X178530238Y-45034762D01*
X178682619Y-45072857D01*
X178758810Y-45149047D01*
X178796905Y-45225238D01*
X178796905Y-45377619D01*
X178758810Y-45453809D01*
X178682619Y-45530000D01*
X178530238Y-45568095D01*
X178263571Y-45568095D01*
X178111190Y-45530000D01*
X178035000Y-45453809D01*
X177996905Y-45377619D01*
X177996905Y-44768095D02*
X178796905Y-44577619D01*
X178225476Y-44425238D01*
X178796905Y-44272857D01*
X177996905Y-44082381D01*
X178377857Y-43777619D02*
X178377857Y-43510952D01*
X178796905Y-43396666D02*
X178796905Y-43777619D01*
X177996905Y-43777619D01*
X177996905Y-43396666D01*
X178796905Y-42596666D02*
X178415952Y-42863333D01*
X178796905Y-43053809D02*
X177996905Y-43053809D01*
X177996905Y-42749047D01*
X178035000Y-42672856D01*
X178073095Y-42634761D01*
X178149286Y-42596666D01*
X178263571Y-42596666D01*
X178339762Y-42634761D01*
X178377857Y-42672856D01*
X178415952Y-42749047D01*
X178415952Y-43053809D01*
D13*
X179705000Y-49530000D02*
X179705000Y-41910000D01*
X177165000Y-41910000D02*
X177165000Y-49530000D01*
X174625000Y-49530000D02*
X174625000Y-41910000D01*
X172085000Y-41910000D02*
X172085000Y-49530000D01*
D10*
X158311905Y-47980477D02*
X158311905Y-48132858D01*
X158350000Y-48209048D01*
X158388095Y-48247143D01*
X158502381Y-48323334D01*
X158654762Y-48361429D01*
X158959524Y-48361429D01*
X159035714Y-48323334D01*
X159073810Y-48285239D01*
X159111905Y-48209048D01*
X159111905Y-48056667D01*
X159073810Y-47980477D01*
X159035714Y-47942381D01*
X158959524Y-47904286D01*
X158769048Y-47904286D01*
X158692857Y-47942381D01*
X158654762Y-47980477D01*
X158616667Y-48056667D01*
X158616667Y-48209048D01*
X158654762Y-48285239D01*
X158692857Y-48323334D01*
X158769048Y-48361429D01*
X158654762Y-47447143D02*
X158616667Y-47523334D01*
X158578571Y-47561429D01*
X158502381Y-47599524D01*
X158464286Y-47599524D01*
X158388095Y-47561429D01*
X158350000Y-47523334D01*
X158311905Y-47447143D01*
X158311905Y-47294762D01*
X158350000Y-47218572D01*
X158388095Y-47180476D01*
X158464286Y-47142381D01*
X158502381Y-47142381D01*
X158578571Y-47180476D01*
X158616667Y-47218572D01*
X158654762Y-47294762D01*
X158654762Y-47447143D01*
X158692857Y-47523334D01*
X158730952Y-47561429D01*
X158807143Y-47599524D01*
X158959524Y-47599524D01*
X159035714Y-47561429D01*
X159073810Y-47523334D01*
X159111905Y-47447143D01*
X159111905Y-47294762D01*
X159073810Y-47218572D01*
X159035714Y-47180476D01*
X158959524Y-47142381D01*
X158807143Y-47142381D01*
X158730952Y-47180476D01*
X158692857Y-47218572D01*
X158654762Y-47294762D01*
X158311905Y-46418571D02*
X158311905Y-46799524D01*
X158692857Y-46837619D01*
X158654762Y-46799524D01*
X158616667Y-46723333D01*
X158616667Y-46532857D01*
X158654762Y-46456667D01*
X158692857Y-46418571D01*
X158769048Y-46380476D01*
X158959524Y-46380476D01*
X159035714Y-46418571D01*
X159073810Y-46456667D01*
X159111905Y-46532857D01*
X159111905Y-46723333D01*
X159073810Y-46799524D01*
X159035714Y-46837619D01*
X158311905Y-45885238D02*
X158311905Y-45809047D01*
X158350000Y-45732857D01*
X158388095Y-45694762D01*
X158464286Y-45656666D01*
X158616667Y-45618571D01*
X158807143Y-45618571D01*
X158959524Y-45656666D01*
X159035714Y-45694762D01*
X159073810Y-45732857D01*
X159111905Y-45809047D01*
X159111905Y-45885238D01*
X159073810Y-45961428D01*
X159035714Y-45999524D01*
X158959524Y-46037619D01*
X158807143Y-46075714D01*
X158616667Y-46075714D01*
X158464286Y-46037619D01*
X158388095Y-45999524D01*
X158350000Y-45961428D01*
X158311905Y-45885238D01*
X153231905Y-47980477D02*
X153231905Y-48132858D01*
X153270000Y-48209048D01*
X153308095Y-48247143D01*
X153422381Y-48323334D01*
X153574762Y-48361429D01*
X153879524Y-48361429D01*
X153955714Y-48323334D01*
X153993810Y-48285239D01*
X154031905Y-48209048D01*
X154031905Y-48056667D01*
X153993810Y-47980477D01*
X153955714Y-47942381D01*
X153879524Y-47904286D01*
X153689048Y-47904286D01*
X153612857Y-47942381D01*
X153574762Y-47980477D01*
X153536667Y-48056667D01*
X153536667Y-48209048D01*
X153574762Y-48285239D01*
X153612857Y-48323334D01*
X153689048Y-48361429D01*
X153574762Y-47447143D02*
X153536667Y-47523334D01*
X153498571Y-47561429D01*
X153422381Y-47599524D01*
X153384286Y-47599524D01*
X153308095Y-47561429D01*
X153270000Y-47523334D01*
X153231905Y-47447143D01*
X153231905Y-47294762D01*
X153270000Y-47218572D01*
X153308095Y-47180476D01*
X153384286Y-47142381D01*
X153422381Y-47142381D01*
X153498571Y-47180476D01*
X153536667Y-47218572D01*
X153574762Y-47294762D01*
X153574762Y-47447143D01*
X153612857Y-47523334D01*
X153650952Y-47561429D01*
X153727143Y-47599524D01*
X153879524Y-47599524D01*
X153955714Y-47561429D01*
X153993810Y-47523334D01*
X154031905Y-47447143D01*
X154031905Y-47294762D01*
X153993810Y-47218572D01*
X153955714Y-47180476D01*
X153879524Y-47142381D01*
X153727143Y-47142381D01*
X153650952Y-47180476D01*
X153612857Y-47218572D01*
X153574762Y-47294762D01*
X153231905Y-46418571D02*
X153231905Y-46799524D01*
X153612857Y-46837619D01*
X153574762Y-46799524D01*
X153536667Y-46723333D01*
X153536667Y-46532857D01*
X153574762Y-46456667D01*
X153612857Y-46418571D01*
X153689048Y-46380476D01*
X153879524Y-46380476D01*
X153955714Y-46418571D01*
X153993810Y-46456667D01*
X154031905Y-46532857D01*
X154031905Y-46723333D01*
X153993810Y-46799524D01*
X153955714Y-46837619D01*
X153231905Y-45885238D02*
X153231905Y-45809047D01*
X153270000Y-45732857D01*
X153308095Y-45694762D01*
X153384286Y-45656666D01*
X153536667Y-45618571D01*
X153727143Y-45618571D01*
X153879524Y-45656666D01*
X153955714Y-45694762D01*
X153993810Y-45732857D01*
X154031905Y-45809047D01*
X154031905Y-45885238D01*
X153993810Y-45961428D01*
X153955714Y-45999524D01*
X153879524Y-46037619D01*
X153727143Y-46075714D01*
X153536667Y-46075714D01*
X153384286Y-46037619D01*
X153308095Y-45999524D01*
X153270000Y-45961428D01*
X153231905Y-45885238D01*
D13*
X161925000Y-49530000D02*
X161925000Y-44450000D01*
X159385000Y-44450000D02*
X159385000Y-49530000D01*
X156845000Y-49530000D02*
X156845000Y-44450000D01*
X154305000Y-44450000D02*
X154305000Y-49530000D01*
D10*
X156533810Y-49377619D02*
X156571905Y-49263333D01*
X156571905Y-49072857D01*
X156533810Y-48996667D01*
X156495714Y-48958571D01*
X156419524Y-48920476D01*
X156343333Y-48920476D01*
X156267143Y-48958571D01*
X156229048Y-48996667D01*
X156190952Y-49072857D01*
X156152857Y-49225238D01*
X156114762Y-49301429D01*
X156076667Y-49339524D01*
X156000476Y-49377619D01*
X155924286Y-49377619D01*
X155848095Y-49339524D01*
X155810000Y-49301429D01*
X155771905Y-49225238D01*
X155771905Y-49034762D01*
X155810000Y-48920476D01*
X156152857Y-48577619D02*
X156152857Y-48310952D01*
X156571905Y-48196666D02*
X156571905Y-48577619D01*
X155771905Y-48577619D01*
X155771905Y-48196666D01*
X156571905Y-47472856D02*
X156571905Y-47853809D01*
X155771905Y-47853809D01*
X156152857Y-47206190D02*
X156152857Y-46939523D01*
X156571905Y-46825237D02*
X156571905Y-47206190D01*
X155771905Y-47206190D01*
X155771905Y-46825237D01*
X156495714Y-46025237D02*
X156533810Y-46063332D01*
X156571905Y-46177618D01*
X156571905Y-46253808D01*
X156533810Y-46368094D01*
X156457619Y-46444285D01*
X156381429Y-46482380D01*
X156229048Y-46520475D01*
X156114762Y-46520475D01*
X155962381Y-46482380D01*
X155886190Y-46444285D01*
X155810000Y-46368094D01*
X155771905Y-46253808D01*
X155771905Y-46177618D01*
X155810000Y-46063332D01*
X155848095Y-46025237D01*
X155771905Y-45796666D02*
X155771905Y-45339523D01*
X156571905Y-45568094D02*
X155771905Y-45568094D01*
X155225714Y-48882381D02*
X155263810Y-48920476D01*
X155301905Y-49034762D01*
X155301905Y-49110952D01*
X155263810Y-49225238D01*
X155187619Y-49301429D01*
X155111429Y-49339524D01*
X154959048Y-49377619D01*
X154844762Y-49377619D01*
X154692381Y-49339524D01*
X154616190Y-49301429D01*
X154540000Y-49225238D01*
X154501905Y-49110952D01*
X154501905Y-49034762D01*
X154540000Y-48920476D01*
X154578095Y-48882381D01*
X155301905Y-48158571D02*
X155301905Y-48539524D01*
X154501905Y-48539524D01*
X154501905Y-47739524D02*
X154501905Y-47587143D01*
X154540000Y-47510952D01*
X154616190Y-47434762D01*
X154768571Y-47396667D01*
X155035238Y-47396667D01*
X155187619Y-47434762D01*
X155263810Y-47510952D01*
X155301905Y-47587143D01*
X155301905Y-47739524D01*
X155263810Y-47815714D01*
X155187619Y-47891905D01*
X155035238Y-47930000D01*
X154768571Y-47930000D01*
X154616190Y-47891905D01*
X154540000Y-47815714D01*
X154501905Y-47739524D01*
X155225714Y-46596667D02*
X155263810Y-46634762D01*
X155301905Y-46749048D01*
X155301905Y-46825238D01*
X155263810Y-46939524D01*
X155187619Y-47015715D01*
X155111429Y-47053810D01*
X154959048Y-47091905D01*
X154844762Y-47091905D01*
X154692381Y-47053810D01*
X154616190Y-47015715D01*
X154540000Y-46939524D01*
X154501905Y-46825238D01*
X154501905Y-46749048D01*
X154540000Y-46634762D01*
X154578095Y-46596667D01*
X155301905Y-46253810D02*
X154501905Y-46253810D01*
X155301905Y-45796667D02*
X154844762Y-46139524D01*
X154501905Y-45796667D02*
X154959048Y-46253810D01*
X161613810Y-49377619D02*
X161651905Y-49263333D01*
X161651905Y-49072857D01*
X161613810Y-48996667D01*
X161575714Y-48958571D01*
X161499524Y-48920476D01*
X161423333Y-48920476D01*
X161347143Y-48958571D01*
X161309048Y-48996667D01*
X161270952Y-49072857D01*
X161232857Y-49225238D01*
X161194762Y-49301429D01*
X161156667Y-49339524D01*
X161080476Y-49377619D01*
X161004286Y-49377619D01*
X160928095Y-49339524D01*
X160890000Y-49301429D01*
X160851905Y-49225238D01*
X160851905Y-49034762D01*
X160890000Y-48920476D01*
X161232857Y-48577619D02*
X161232857Y-48310952D01*
X161651905Y-48196666D02*
X161651905Y-48577619D01*
X160851905Y-48577619D01*
X160851905Y-48196666D01*
X161651905Y-47472856D02*
X161651905Y-47853809D01*
X160851905Y-47853809D01*
X161232857Y-47206190D02*
X161232857Y-46939523D01*
X161651905Y-46825237D02*
X161651905Y-47206190D01*
X160851905Y-47206190D01*
X160851905Y-46825237D01*
X161575714Y-46025237D02*
X161613810Y-46063332D01*
X161651905Y-46177618D01*
X161651905Y-46253808D01*
X161613810Y-46368094D01*
X161537619Y-46444285D01*
X161461429Y-46482380D01*
X161309048Y-46520475D01*
X161194762Y-46520475D01*
X161042381Y-46482380D01*
X160966190Y-46444285D01*
X160890000Y-46368094D01*
X160851905Y-46253808D01*
X160851905Y-46177618D01*
X160890000Y-46063332D01*
X160928095Y-46025237D01*
X160851905Y-45796666D02*
X160851905Y-45339523D01*
X161651905Y-45568094D02*
X160851905Y-45568094D01*
X160381905Y-49339524D02*
X159581905Y-49339524D01*
X160381905Y-48501429D02*
X160000952Y-48768096D01*
X160381905Y-48958572D02*
X159581905Y-48958572D01*
X159581905Y-48653810D01*
X159620000Y-48577619D01*
X159658095Y-48539524D01*
X159734286Y-48501429D01*
X159848571Y-48501429D01*
X159924762Y-48539524D01*
X159962857Y-48577619D01*
X160000952Y-48653810D01*
X160000952Y-48958572D01*
X160458095Y-47625238D02*
X160420000Y-47701429D01*
X160343810Y-47777619D01*
X160229524Y-47891905D01*
X160191429Y-47968096D01*
X160191429Y-48044286D01*
X160381905Y-48006191D02*
X160343810Y-48082381D01*
X160267619Y-48158572D01*
X160115238Y-48196667D01*
X159848571Y-48196667D01*
X159696190Y-48158572D01*
X159620000Y-48082381D01*
X159581905Y-48006191D01*
X159581905Y-47853810D01*
X159620000Y-47777619D01*
X159696190Y-47701429D01*
X159848571Y-47663334D01*
X160115238Y-47663334D01*
X160267619Y-47701429D01*
X160343810Y-47777619D01*
X160381905Y-47853810D01*
X160381905Y-48006191D01*
X159581905Y-46558572D02*
X159581905Y-46406191D01*
X159620000Y-46330000D01*
X159696190Y-46253810D01*
X159848571Y-46215715D01*
X160115238Y-46215715D01*
X160267619Y-46253810D01*
X160343810Y-46330000D01*
X160381905Y-46406191D01*
X160381905Y-46558572D01*
X160343810Y-46634762D01*
X160267619Y-46710953D01*
X160115238Y-46749048D01*
X159848571Y-46749048D01*
X159696190Y-46710953D01*
X159620000Y-46634762D01*
X159581905Y-46558572D01*
X159581905Y-45872858D02*
X160229524Y-45872858D01*
X160305714Y-45834763D01*
X160343810Y-45796667D01*
X160381905Y-45720477D01*
X160381905Y-45568096D01*
X160343810Y-45491905D01*
X160305714Y-45453810D01*
X160229524Y-45415715D01*
X159581905Y-45415715D01*
X159581905Y-45149049D02*
X159581905Y-44691906D01*
X160381905Y-44920477D02*
X159581905Y-44920477D01*
D13*
X102870000Y-45720000D02*
X106045000Y-45720000D01*
X120650000Y-45720000D02*
X117475000Y-45720000D01*
X120650000Y-41910000D02*
X120650000Y-45720000D01*
X102870000Y-41910000D02*
X102870000Y-45720000D01*
X118110000Y-41910000D02*
X118110000Y-44450000D01*
X115570000Y-41910000D02*
X115570000Y-44450000D01*
X113030000Y-41910000D02*
X113030000Y-44450000D01*
X110490000Y-41910000D02*
X110490000Y-44450000D01*
X107950000Y-41910000D02*
X107950000Y-44450000D01*
X105410000Y-41910000D02*
X105410000Y-44450000D01*
D10*
X106921904Y-46081905D02*
X106921904Y-45281905D01*
X107112380Y-45281905D01*
X107226666Y-45320000D01*
X107302857Y-45396190D01*
X107340952Y-45472381D01*
X107379047Y-45624762D01*
X107379047Y-45739048D01*
X107340952Y-45891429D01*
X107302857Y-45967619D01*
X107226666Y-46043810D01*
X107112380Y-46081905D01*
X106921904Y-46081905D01*
X107721904Y-45662857D02*
X107988571Y-45662857D01*
X108102857Y-46081905D02*
X107721904Y-46081905D01*
X107721904Y-45281905D01*
X108102857Y-45281905D01*
X108331428Y-45281905D02*
X108598095Y-46081905D01*
X108864762Y-45281905D01*
X109131428Y-46081905D02*
X109131428Y-45281905D01*
X109969523Y-46005714D02*
X109931428Y-46043810D01*
X109817142Y-46081905D01*
X109740952Y-46081905D01*
X109626666Y-46043810D01*
X109550475Y-45967619D01*
X109512380Y-45891429D01*
X109474285Y-45739048D01*
X109474285Y-45624762D01*
X109512380Y-45472381D01*
X109550475Y-45396190D01*
X109626666Y-45320000D01*
X109740952Y-45281905D01*
X109817142Y-45281905D01*
X109931428Y-45320000D01*
X109969523Y-45358095D01*
X110312380Y-45662857D02*
X110579047Y-45662857D01*
X110693333Y-46081905D02*
X110312380Y-46081905D01*
X110312380Y-45281905D01*
X110693333Y-45281905D01*
X111607619Y-45853333D02*
X111988571Y-45853333D01*
X111531428Y-46081905D02*
X111798095Y-45281905D01*
X112064762Y-46081905D01*
X112331428Y-46081905D02*
X112331428Y-45281905D01*
X112521904Y-45281905D01*
X112636190Y-45320000D01*
X112712381Y-45396190D01*
X112750476Y-45472381D01*
X112788571Y-45624762D01*
X112788571Y-45739048D01*
X112750476Y-45891429D01*
X112712381Y-45967619D01*
X112636190Y-46043810D01*
X112521904Y-46081905D01*
X112331428Y-46081905D01*
X113131428Y-46081905D02*
X113131428Y-45281905D01*
X113321904Y-45281905D01*
X113436190Y-45320000D01*
X113512381Y-45396190D01*
X113550476Y-45472381D01*
X113588571Y-45624762D01*
X113588571Y-45739048D01*
X113550476Y-45891429D01*
X113512381Y-45967619D01*
X113436190Y-46043810D01*
X113321904Y-46081905D01*
X113131428Y-46081905D01*
X114388571Y-46081905D02*
X114121904Y-45700952D01*
X113931428Y-46081905D02*
X113931428Y-45281905D01*
X114236190Y-45281905D01*
X114312381Y-45320000D01*
X114350476Y-45358095D01*
X114388571Y-45434286D01*
X114388571Y-45548571D01*
X114350476Y-45624762D01*
X114312381Y-45662857D01*
X114236190Y-45700952D01*
X113931428Y-45700952D01*
X114731428Y-45662857D02*
X114998095Y-45662857D01*
X115112381Y-46081905D02*
X114731428Y-46081905D01*
X114731428Y-45281905D01*
X115112381Y-45281905D01*
X115417143Y-46043810D02*
X115531429Y-46081905D01*
X115721905Y-46081905D01*
X115798095Y-46043810D01*
X115836191Y-46005714D01*
X115874286Y-45929524D01*
X115874286Y-45853333D01*
X115836191Y-45777143D01*
X115798095Y-45739048D01*
X115721905Y-45700952D01*
X115569524Y-45662857D01*
X115493333Y-45624762D01*
X115455238Y-45586667D01*
X115417143Y-45510476D01*
X115417143Y-45434286D01*
X115455238Y-45358095D01*
X115493333Y-45320000D01*
X115569524Y-45281905D01*
X115760000Y-45281905D01*
X115874286Y-45320000D01*
X116179048Y-46043810D02*
X116293334Y-46081905D01*
X116483810Y-46081905D01*
X116560000Y-46043810D01*
X116598096Y-46005714D01*
X116636191Y-45929524D01*
X116636191Y-45853333D01*
X116598096Y-45777143D01*
X116560000Y-45739048D01*
X116483810Y-45700952D01*
X116331429Y-45662857D01*
X116255238Y-45624762D01*
X116217143Y-45586667D01*
X116179048Y-45510476D01*
X116179048Y-45434286D01*
X116217143Y-45358095D01*
X116255238Y-45320000D01*
X116331429Y-45281905D01*
X116521905Y-45281905D01*
X116636191Y-45320000D01*
X119741905Y-43700476D02*
X118941905Y-43700476D01*
X118941905Y-43167143D02*
X118941905Y-43014762D01*
X118980000Y-42938571D01*
X119056190Y-42862381D01*
X119208571Y-42824286D01*
X119475238Y-42824286D01*
X119627619Y-42862381D01*
X119703810Y-42938571D01*
X119741905Y-43014762D01*
X119741905Y-43167143D01*
X119703810Y-43243333D01*
X119627619Y-43319524D01*
X119475238Y-43357619D01*
X119208571Y-43357619D01*
X119056190Y-43319524D01*
X118980000Y-43243333D01*
X118941905Y-43167143D01*
X118941905Y-42557619D02*
X118941905Y-42024286D01*
X119741905Y-42367143D01*
X118804000Y-43890952D02*
X118804000Y-41910000D01*
X117201905Y-43700476D02*
X116401905Y-43700476D01*
X116401905Y-43167143D02*
X116401905Y-43014762D01*
X116440000Y-42938571D01*
X116516190Y-42862381D01*
X116668571Y-42824286D01*
X116935238Y-42824286D01*
X117087619Y-42862381D01*
X117163810Y-42938571D01*
X117201905Y-43014762D01*
X117201905Y-43167143D01*
X117163810Y-43243333D01*
X117087619Y-43319524D01*
X116935238Y-43357619D01*
X116668571Y-43357619D01*
X116516190Y-43319524D01*
X116440000Y-43243333D01*
X116401905Y-43167143D01*
X116401905Y-42138572D02*
X116401905Y-42290953D01*
X116440000Y-42367143D01*
X116478095Y-42405238D01*
X116592381Y-42481429D01*
X116744762Y-42519524D01*
X117049524Y-42519524D01*
X117125714Y-42481429D01*
X117163810Y-42443334D01*
X117201905Y-42367143D01*
X117201905Y-42214762D01*
X117163810Y-42138572D01*
X117125714Y-42100476D01*
X117049524Y-42062381D01*
X116859048Y-42062381D01*
X116782857Y-42100476D01*
X116744762Y-42138572D01*
X116706667Y-42214762D01*
X116706667Y-42367143D01*
X116744762Y-42443334D01*
X116782857Y-42481429D01*
X116859048Y-42519524D01*
X116264000Y-43890952D02*
X116264000Y-41910000D01*
X114661905Y-43700476D02*
X113861905Y-43700476D01*
X113861905Y-43167143D02*
X113861905Y-43014762D01*
X113900000Y-42938571D01*
X113976190Y-42862381D01*
X114128571Y-42824286D01*
X114395238Y-42824286D01*
X114547619Y-42862381D01*
X114623810Y-42938571D01*
X114661905Y-43014762D01*
X114661905Y-43167143D01*
X114623810Y-43243333D01*
X114547619Y-43319524D01*
X114395238Y-43357619D01*
X114128571Y-43357619D01*
X113976190Y-43319524D01*
X113900000Y-43243333D01*
X113861905Y-43167143D01*
X113861905Y-42100476D02*
X113861905Y-42481429D01*
X114242857Y-42519524D01*
X114204762Y-42481429D01*
X114166667Y-42405238D01*
X114166667Y-42214762D01*
X114204762Y-42138572D01*
X114242857Y-42100476D01*
X114319048Y-42062381D01*
X114509524Y-42062381D01*
X114585714Y-42100476D01*
X114623810Y-42138572D01*
X114661905Y-42214762D01*
X114661905Y-42405238D01*
X114623810Y-42481429D01*
X114585714Y-42519524D01*
X113724000Y-43890952D02*
X113724000Y-41910000D01*
X112121905Y-43700476D02*
X111321905Y-43700476D01*
X111321905Y-43167143D02*
X111321905Y-43014762D01*
X111360000Y-42938571D01*
X111436190Y-42862381D01*
X111588571Y-42824286D01*
X111855238Y-42824286D01*
X112007619Y-42862381D01*
X112083810Y-42938571D01*
X112121905Y-43014762D01*
X112121905Y-43167143D01*
X112083810Y-43243333D01*
X112007619Y-43319524D01*
X111855238Y-43357619D01*
X111588571Y-43357619D01*
X111436190Y-43319524D01*
X111360000Y-43243333D01*
X111321905Y-43167143D01*
X111588571Y-42138572D02*
X112121905Y-42138572D01*
X111283810Y-42329048D02*
X111855238Y-42519524D01*
X111855238Y-42024286D01*
X111184000Y-43890952D02*
X111184000Y-41910000D01*
X109581905Y-43700476D02*
X108781905Y-43700476D01*
X108781905Y-43167143D02*
X108781905Y-43014762D01*
X108820000Y-42938571D01*
X108896190Y-42862381D01*
X109048571Y-42824286D01*
X109315238Y-42824286D01*
X109467619Y-42862381D01*
X109543810Y-42938571D01*
X109581905Y-43014762D01*
X109581905Y-43167143D01*
X109543810Y-43243333D01*
X109467619Y-43319524D01*
X109315238Y-43357619D01*
X109048571Y-43357619D01*
X108896190Y-43319524D01*
X108820000Y-43243333D01*
X108781905Y-43167143D01*
X108781905Y-42557619D02*
X108781905Y-42062381D01*
X109086667Y-42329048D01*
X109086667Y-42214762D01*
X109124762Y-42138572D01*
X109162857Y-42100476D01*
X109239048Y-42062381D01*
X109429524Y-42062381D01*
X109505714Y-42100476D01*
X109543810Y-42138572D01*
X109581905Y-42214762D01*
X109581905Y-42443334D01*
X109543810Y-42519524D01*
X109505714Y-42557619D01*
X108644000Y-43890952D02*
X108644000Y-41910000D01*
X107041905Y-43700476D02*
X106241905Y-43700476D01*
X106241905Y-43167143D02*
X106241905Y-43014762D01*
X106280000Y-42938571D01*
X106356190Y-42862381D01*
X106508571Y-42824286D01*
X106775238Y-42824286D01*
X106927619Y-42862381D01*
X107003810Y-42938571D01*
X107041905Y-43014762D01*
X107041905Y-43167143D01*
X107003810Y-43243333D01*
X106927619Y-43319524D01*
X106775238Y-43357619D01*
X106508571Y-43357619D01*
X106356190Y-43319524D01*
X106280000Y-43243333D01*
X106241905Y-43167143D01*
X106318095Y-42519524D02*
X106280000Y-42481429D01*
X106241905Y-42405238D01*
X106241905Y-42214762D01*
X106280000Y-42138572D01*
X106318095Y-42100476D01*
X106394286Y-42062381D01*
X106470476Y-42062381D01*
X106584762Y-42100476D01*
X107041905Y-42557619D01*
X107041905Y-42062381D01*
X106104000Y-43890952D02*
X106104000Y-41910000D01*
X104501905Y-43700476D02*
X103701905Y-43700476D01*
X103701905Y-43167143D02*
X103701905Y-43014762D01*
X103740000Y-42938571D01*
X103816190Y-42862381D01*
X103968571Y-42824286D01*
X104235238Y-42824286D01*
X104387619Y-42862381D01*
X104463810Y-42938571D01*
X104501905Y-43014762D01*
X104501905Y-43167143D01*
X104463810Y-43243333D01*
X104387619Y-43319524D01*
X104235238Y-43357619D01*
X103968571Y-43357619D01*
X103816190Y-43319524D01*
X103740000Y-43243333D01*
X103701905Y-43167143D01*
X104501905Y-42062381D02*
X104501905Y-42519524D01*
X104501905Y-42290953D02*
X103701905Y-42290953D01*
X103816190Y-42367143D01*
X103892381Y-42443334D01*
X103930476Y-42519524D01*
X103564000Y-43890952D02*
X103564000Y-41910000D01*
X189890477Y-41510000D02*
X189814286Y-41471905D01*
X189700001Y-41471905D01*
X189585715Y-41510000D01*
X189509524Y-41586190D01*
X189471429Y-41662381D01*
X189433334Y-41814762D01*
X189433334Y-41929048D01*
X189471429Y-42081429D01*
X189509524Y-42157619D01*
X189585715Y-42233810D01*
X189700001Y-42271905D01*
X189776191Y-42271905D01*
X189890477Y-42233810D01*
X189928572Y-42195714D01*
X189928572Y-41929048D01*
X189776191Y-41929048D01*
X190271429Y-42271905D02*
X190271429Y-41471905D01*
X190728572Y-42271905D01*
X190728572Y-41471905D01*
X191109524Y-42271905D02*
X191109524Y-41471905D01*
X191300000Y-41471905D01*
X191414286Y-41510000D01*
X191490477Y-41586190D01*
X191528572Y-41662381D01*
X191566667Y-41814762D01*
X191566667Y-41929048D01*
X191528572Y-42081429D01*
X191490477Y-42157619D01*
X191414286Y-42233810D01*
X191300000Y-42271905D01*
X191109524Y-42271905D01*
X190061905Y-44735714D02*
X190023810Y-44773810D01*
X189909524Y-44811905D01*
X189833334Y-44811905D01*
X189719048Y-44773810D01*
X189642857Y-44697619D01*
X189604762Y-44621429D01*
X189566667Y-44469048D01*
X189566667Y-44354762D01*
X189604762Y-44202381D01*
X189642857Y-44126190D01*
X189719048Y-44050000D01*
X189833334Y-44011905D01*
X189909524Y-44011905D01*
X190023810Y-44050000D01*
X190061905Y-44088095D01*
X190290476Y-44011905D02*
X190747619Y-44011905D01*
X190519048Y-44811905D02*
X190519048Y-44011905D01*
X190976191Y-44773810D02*
X191090477Y-44811905D01*
X191280953Y-44811905D01*
X191357143Y-44773810D01*
X191395239Y-44735714D01*
X191433334Y-44659524D01*
X191433334Y-44583333D01*
X191395239Y-44507143D01*
X191357143Y-44469048D01*
X191280953Y-44430952D01*
X191128572Y-44392857D01*
X191052381Y-44354762D01*
X191014286Y-44316667D01*
X190976191Y-44240476D01*
X190976191Y-44164286D01*
X191014286Y-44088095D01*
X191052381Y-44050000D01*
X191128572Y-44011905D01*
X191319048Y-44011905D01*
X191433334Y-44050000D01*
X189414286Y-43874000D02*
X191585715Y-43874000D01*
X189433333Y-46551905D02*
X189700000Y-47351905D01*
X189966667Y-46551905D01*
X190690476Y-47275714D02*
X190652381Y-47313810D01*
X190538095Y-47351905D01*
X190461905Y-47351905D01*
X190347619Y-47313810D01*
X190271428Y-47237619D01*
X190233333Y-47161429D01*
X190195238Y-47009048D01*
X190195238Y-46894762D01*
X190233333Y-46742381D01*
X190271428Y-46666190D01*
X190347619Y-46590000D01*
X190461905Y-46551905D01*
X190538095Y-46551905D01*
X190652381Y-46590000D01*
X190690476Y-46628095D01*
X191490476Y-47275714D02*
X191452381Y-47313810D01*
X191338095Y-47351905D01*
X191261905Y-47351905D01*
X191147619Y-47313810D01*
X191071428Y-47237619D01*
X191033333Y-47161429D01*
X190995238Y-47009048D01*
X190995238Y-46894762D01*
X191033333Y-46742381D01*
X191071428Y-46666190D01*
X191147619Y-46590000D01*
X191261905Y-46551905D01*
X191338095Y-46551905D01*
X191452381Y-46590000D01*
X191490476Y-46628095D01*
X189490476Y-49091905D02*
X189947619Y-49091905D01*
X189719048Y-49891905D02*
X189719048Y-49091905D01*
X190138096Y-49091905D02*
X190671429Y-49891905D01*
X190671429Y-49091905D02*
X190138096Y-49891905D01*
X190976191Y-49891905D02*
X190976191Y-49091905D01*
X191166667Y-49091905D01*
X191280953Y-49130000D01*
X191357144Y-49206190D01*
X191395239Y-49282381D01*
X191433334Y-49434762D01*
X191433334Y-49549048D01*
X191395239Y-49701429D01*
X191357144Y-49777619D01*
X191280953Y-49853810D01*
X191166667Y-49891905D01*
X190976191Y-49891905D01*
X189966667Y-52431905D02*
X189700000Y-52050952D01*
X189509524Y-52431905D02*
X189509524Y-51631905D01*
X189814286Y-51631905D01*
X189890477Y-51670000D01*
X189928572Y-51708095D01*
X189966667Y-51784286D01*
X189966667Y-51898571D01*
X189928572Y-51974762D01*
X189890477Y-52012857D01*
X189814286Y-52050952D01*
X189509524Y-52050952D01*
X190233334Y-51631905D02*
X190766667Y-52431905D01*
X190766667Y-51631905D02*
X190233334Y-52431905D01*
X191071429Y-52431905D02*
X191071429Y-51631905D01*
X191261905Y-51631905D01*
X191376191Y-51670000D01*
X191452382Y-51746190D01*
X191490477Y-51822381D01*
X191528572Y-51974762D01*
X191528572Y-52089048D01*
X191490477Y-52241429D01*
X191452382Y-52317619D01*
X191376191Y-52393810D01*
X191261905Y-52431905D01*
X191071429Y-52431905D01*
X190061905Y-54971905D02*
X189795238Y-54590952D01*
X189604762Y-54971905D02*
X189604762Y-54171905D01*
X189909524Y-54171905D01*
X189985715Y-54210000D01*
X190023810Y-54248095D01*
X190061905Y-54324286D01*
X190061905Y-54438571D01*
X190023810Y-54514762D01*
X189985715Y-54552857D01*
X189909524Y-54590952D01*
X189604762Y-54590952D01*
X190290476Y-54171905D02*
X190747619Y-54171905D01*
X190519048Y-54971905D02*
X190519048Y-54171905D01*
X190976191Y-54933810D02*
X191090477Y-54971905D01*
X191280953Y-54971905D01*
X191357143Y-54933810D01*
X191395239Y-54895714D01*
X191433334Y-54819524D01*
X191433334Y-54743333D01*
X191395239Y-54667143D01*
X191357143Y-54629048D01*
X191280953Y-54590952D01*
X191128572Y-54552857D01*
X191052381Y-54514762D01*
X191014286Y-54476667D01*
X190976191Y-54400476D01*
X190976191Y-54324286D01*
X191014286Y-54248095D01*
X191052381Y-54210000D01*
X191128572Y-54171905D01*
X191319048Y-54171905D01*
X191433334Y-54210000D01*
X189414286Y-54034000D02*
X191585715Y-54034000D01*
D14*
X147995000Y-51525000D02*
X147995000Y-56345000D01*
X145375000Y-51525000D02*
X145375000Y-56345000D01*
X147995000Y-51525000D02*
X147681000Y-51525000D01*
X145689000Y-51525000D02*
X145375000Y-51525000D01*
X147995000Y-56345000D02*
X147681000Y-56345000D01*
X145689000Y-56345000D02*
X145375000Y-56345000D01*
X114975000Y-51525000D02*
X114975000Y-56345000D01*
X112355000Y-51525000D02*
X112355000Y-56345000D01*
X114975000Y-51525000D02*
X114661000Y-51525000D01*
X112669000Y-51525000D02*
X112355000Y-51525000D01*
X114975000Y-56345000D02*
X114661000Y-56345000D01*
X112669000Y-56345000D02*
X112355000Y-56345000D01*
X130215000Y-51525000D02*
X130215000Y-56345000D01*
X127595000Y-51525000D02*
X127595000Y-56345000D01*
X130215000Y-51525000D02*
X129901000Y-51525000D01*
X127909000Y-51525000D02*
X127595000Y-51525000D01*
X130215000Y-56345000D02*
X129901000Y-56345000D01*
X127909000Y-56345000D02*
X127595000Y-56345000D01*
X198815000Y-81450000D02*
X99635000Y-81450000D01*
X99635000Y-81450000D02*
X99635000Y-84110000D01*
X99635000Y-84110000D02*
X198815000Y-84110000D01*
X198815000Y-84110000D02*
X198815000Y-81450000D01*
X197865000Y-84110000D02*
X197865000Y-90110000D01*
X197865000Y-90110000D02*
X197105000Y-90110000D01*
X197105000Y-90110000D02*
X197105000Y-84110000D01*
X197805000Y-84110000D02*
X197805000Y-90110000D01*
X197685000Y-84110000D02*
X197685000Y-90110000D01*
X197565000Y-84110000D02*
X197565000Y-90110000D01*
X197445000Y-84110000D02*
X197445000Y-90110000D01*
X197325000Y-84110000D02*
X197325000Y-90110000D01*
X197205000Y-84110000D02*
X197205000Y-90110000D01*
X197865000Y-81120000D02*
X197865000Y-81450000D01*
X197105000Y-81120000D02*
X197105000Y-81450000D01*
X196215000Y-81450000D02*
X196215000Y-84110000D01*
X195325000Y-84110000D02*
X195325000Y-90110000D01*
X195325000Y-90110000D02*
X194565000Y-90110000D01*
X194565000Y-90110000D02*
X194565000Y-84110000D01*
X195325000Y-81052929D02*
X195325000Y-81450000D01*
X194565000Y-81052929D02*
X194565000Y-81450000D01*
X193675000Y-81450000D02*
X193675000Y-84110000D01*
X192785000Y-84110000D02*
X192785000Y-90110000D01*
X192785000Y-90110000D02*
X192025000Y-90110000D01*
X192025000Y-90110000D02*
X192025000Y-84110000D01*
X192785000Y-81052929D02*
X192785000Y-81450000D01*
X192025000Y-81052929D02*
X192025000Y-81450000D01*
X191135000Y-81450000D02*
X191135000Y-84110000D01*
X190245000Y-84110000D02*
X190245000Y-90110000D01*
X190245000Y-90110000D02*
X189485000Y-90110000D01*
X189485000Y-90110000D02*
X189485000Y-84110000D01*
X190245000Y-81052929D02*
X190245000Y-81450000D01*
X189485000Y-81052929D02*
X189485000Y-81450000D01*
X188595000Y-81450000D02*
X188595000Y-84110000D01*
X187705000Y-84110000D02*
X187705000Y-90110000D01*
X187705000Y-90110000D02*
X186945000Y-90110000D01*
X186945000Y-90110000D02*
X186945000Y-84110000D01*
X187705000Y-81052929D02*
X187705000Y-81450000D01*
X186945000Y-81052929D02*
X186945000Y-81450000D01*
X186055000Y-81450000D02*
X186055000Y-84110000D01*
X185165000Y-84110000D02*
X185165000Y-90110000D01*
X185165000Y-90110000D02*
X184405000Y-90110000D01*
X184405000Y-90110000D02*
X184405000Y-84110000D01*
X185165000Y-81052929D02*
X185165000Y-81450000D01*
X184405000Y-81052929D02*
X184405000Y-81450000D01*
X183515000Y-81450000D02*
X183515000Y-84110000D01*
X182625000Y-84110000D02*
X182625000Y-90110000D01*
X182625000Y-90110000D02*
X181865000Y-90110000D01*
X181865000Y-90110000D02*
X181865000Y-84110000D01*
X182625000Y-81052929D02*
X182625000Y-81450000D01*
X181865000Y-81052929D02*
X181865000Y-81450000D01*
X180975000Y-81450000D02*
X180975000Y-84110000D01*
X180085000Y-84110000D02*
X180085000Y-90110000D01*
X180085000Y-90110000D02*
X179325000Y-90110000D01*
X179325000Y-90110000D02*
X179325000Y-84110000D01*
X180085000Y-81052929D02*
X180085000Y-81450000D01*
X179325000Y-81052929D02*
X179325000Y-81450000D01*
X178435000Y-81450000D02*
X178435000Y-84110000D01*
X177545000Y-84110000D02*
X177545000Y-90110000D01*
X177545000Y-90110000D02*
X176785000Y-90110000D01*
X176785000Y-90110000D02*
X176785000Y-84110000D01*
X177545000Y-81052929D02*
X177545000Y-81450000D01*
X176785000Y-81052929D02*
X176785000Y-81450000D01*
X175895000Y-81450000D02*
X175895000Y-84110000D01*
X175005000Y-84110000D02*
X175005000Y-90110000D01*
X175005000Y-90110000D02*
X174245000Y-90110000D01*
X174245000Y-90110000D02*
X174245000Y-84110000D01*
X175005000Y-81052929D02*
X175005000Y-81450000D01*
X174245000Y-81052929D02*
X174245000Y-81450000D01*
X173355000Y-81450000D02*
X173355000Y-84110000D01*
X172465000Y-84110000D02*
X172465000Y-90110000D01*
X172465000Y-90110000D02*
X171705000Y-90110000D01*
X171705000Y-90110000D02*
X171705000Y-84110000D01*
X172465000Y-81052929D02*
X172465000Y-81450000D01*
X171705000Y-81052929D02*
X171705000Y-81450000D01*
X170815000Y-81450000D02*
X170815000Y-84110000D01*
X169925000Y-84110000D02*
X169925000Y-90110000D01*
X169925000Y-90110000D02*
X169165000Y-90110000D01*
X169165000Y-90110000D02*
X169165000Y-84110000D01*
X169925000Y-81052929D02*
X169925000Y-81450000D01*
X169165000Y-81052929D02*
X169165000Y-81450000D01*
X168275000Y-81450000D02*
X168275000Y-84110000D01*
X167385000Y-84110000D02*
X167385000Y-90110000D01*
X167385000Y-90110000D02*
X166625000Y-90110000D01*
X166625000Y-90110000D02*
X166625000Y-84110000D01*
X167385000Y-81052929D02*
X167385000Y-81450000D01*
X166625000Y-81052929D02*
X166625000Y-81450000D01*
X165735000Y-81450000D02*
X165735000Y-84110000D01*
X164845000Y-84110000D02*
X164845000Y-90110000D01*
X164845000Y-90110000D02*
X164085000Y-90110000D01*
X164085000Y-90110000D02*
X164085000Y-84110000D01*
X164845000Y-81052929D02*
X164845000Y-81450000D01*
X164085000Y-81052929D02*
X164085000Y-81450000D01*
X163195000Y-81450000D02*
X163195000Y-84110000D01*
X162305000Y-84110000D02*
X162305000Y-90110000D01*
X162305000Y-90110000D02*
X161545000Y-90110000D01*
X161545000Y-90110000D02*
X161545000Y-84110000D01*
X162305000Y-81052929D02*
X162305000Y-81450000D01*
X161545000Y-81052929D02*
X161545000Y-81450000D01*
X160655000Y-81450000D02*
X160655000Y-84110000D01*
X159765000Y-84110000D02*
X159765000Y-90110000D01*
X159765000Y-90110000D02*
X159005000Y-90110000D01*
X159005000Y-90110000D02*
X159005000Y-84110000D01*
X159765000Y-81052929D02*
X159765000Y-81450000D01*
X159005000Y-81052929D02*
X159005000Y-81450000D01*
X158115000Y-81450000D02*
X158115000Y-84110000D01*
X157225000Y-84110000D02*
X157225000Y-90110000D01*
X157225000Y-90110000D02*
X156465000Y-90110000D01*
X156465000Y-90110000D02*
X156465000Y-84110000D01*
X157225000Y-81052929D02*
X157225000Y-81450000D01*
X156465000Y-81052929D02*
X156465000Y-81450000D01*
X155575000Y-81450000D02*
X155575000Y-84110000D01*
X154685000Y-84110000D02*
X154685000Y-90110000D01*
X154685000Y-90110000D02*
X153925000Y-90110000D01*
X153925000Y-90110000D02*
X153925000Y-84110000D01*
X154685000Y-81052929D02*
X154685000Y-81450000D01*
X153925000Y-81052929D02*
X153925000Y-81450000D01*
X153035000Y-81450000D02*
X153035000Y-84110000D01*
X152145000Y-84110000D02*
X152145000Y-90110000D01*
X152145000Y-90110000D02*
X151385000Y-90110000D01*
X151385000Y-90110000D02*
X151385000Y-84110000D01*
X152145000Y-81052929D02*
X152145000Y-81450000D01*
X151385000Y-81052929D02*
X151385000Y-81450000D01*
X150495000Y-81450000D02*
X150495000Y-84110000D01*
X149605000Y-84110000D02*
X149605000Y-90110000D01*
X149605000Y-90110000D02*
X148845000Y-90110000D01*
X148845000Y-90110000D02*
X148845000Y-84110000D01*
X149605000Y-81052929D02*
X149605000Y-81450000D01*
X148845000Y-81052929D02*
X148845000Y-81450000D01*
X147955000Y-81450000D02*
X147955000Y-84110000D01*
X147065000Y-84110000D02*
X147065000Y-90110000D01*
X147065000Y-90110000D02*
X146305000Y-90110000D01*
X146305000Y-90110000D02*
X146305000Y-84110000D01*
X147065000Y-81052929D02*
X147065000Y-81450000D01*
X146305000Y-81052929D02*
X146305000Y-81450000D01*
X145415000Y-81450000D02*
X145415000Y-84110000D01*
X144525000Y-84110000D02*
X144525000Y-90110000D01*
X144525000Y-90110000D02*
X143765000Y-90110000D01*
X143765000Y-90110000D02*
X143765000Y-84110000D01*
X144525000Y-81052929D02*
X144525000Y-81450000D01*
X143765000Y-81052929D02*
X143765000Y-81450000D01*
X142875000Y-81450000D02*
X142875000Y-84110000D01*
X141985000Y-84110000D02*
X141985000Y-90110000D01*
X141985000Y-90110000D02*
X141225000Y-90110000D01*
X141225000Y-90110000D02*
X141225000Y-84110000D01*
X141985000Y-81052929D02*
X141985000Y-81450000D01*
X141225000Y-81052929D02*
X141225000Y-81450000D01*
X140335000Y-81450000D02*
X140335000Y-84110000D01*
X139445000Y-84110000D02*
X139445000Y-90110000D01*
X139445000Y-90110000D02*
X138685000Y-90110000D01*
X138685000Y-90110000D02*
X138685000Y-84110000D01*
X139445000Y-81052929D02*
X139445000Y-81450000D01*
X138685000Y-81052929D02*
X138685000Y-81450000D01*
X137795000Y-81450000D02*
X137795000Y-84110000D01*
X136905000Y-84110000D02*
X136905000Y-90110000D01*
X136905000Y-90110000D02*
X136145000Y-90110000D01*
X136145000Y-90110000D02*
X136145000Y-84110000D01*
X136905000Y-81052929D02*
X136905000Y-81450000D01*
X136145000Y-81052929D02*
X136145000Y-81450000D01*
X135255000Y-81450000D02*
X135255000Y-84110000D01*
X134365000Y-84110000D02*
X134365000Y-90110000D01*
X134365000Y-90110000D02*
X133605000Y-90110000D01*
X133605000Y-90110000D02*
X133605000Y-84110000D01*
X134365000Y-81052929D02*
X134365000Y-81450000D01*
X133605000Y-81052929D02*
X133605000Y-81450000D01*
X132715000Y-81450000D02*
X132715000Y-84110000D01*
X131825000Y-84110000D02*
X131825000Y-90110000D01*
X131825000Y-90110000D02*
X131065000Y-90110000D01*
X131065000Y-90110000D02*
X131065000Y-84110000D01*
X131825000Y-81052929D02*
X131825000Y-81450000D01*
X131065000Y-81052929D02*
X131065000Y-81450000D01*
X130175000Y-81450000D02*
X130175000Y-84110000D01*
X129285000Y-84110000D02*
X129285000Y-90110000D01*
X129285000Y-90110000D02*
X128525000Y-90110000D01*
X128525000Y-90110000D02*
X128525000Y-84110000D01*
X129285000Y-81052929D02*
X129285000Y-81450000D01*
X128525000Y-81052929D02*
X128525000Y-81450000D01*
X127635000Y-81450000D02*
X127635000Y-84110000D01*
X126745000Y-84110000D02*
X126745000Y-90110000D01*
X126745000Y-90110000D02*
X125985000Y-90110000D01*
X125985000Y-90110000D02*
X125985000Y-84110000D01*
X126745000Y-81052929D02*
X126745000Y-81450000D01*
X125985000Y-81052929D02*
X125985000Y-81450000D01*
X125095000Y-81450000D02*
X125095000Y-84110000D01*
X124205000Y-84110000D02*
X124205000Y-90110000D01*
X124205000Y-90110000D02*
X123445000Y-90110000D01*
X123445000Y-90110000D02*
X123445000Y-84110000D01*
X124205000Y-81052929D02*
X124205000Y-81450000D01*
X123445000Y-81052929D02*
X123445000Y-81450000D01*
X122555000Y-81450000D02*
X122555000Y-84110000D01*
X121665000Y-84110000D02*
X121665000Y-90110000D01*
X121665000Y-90110000D02*
X120905000Y-90110000D01*
X120905000Y-90110000D02*
X120905000Y-84110000D01*
X121665000Y-81052929D02*
X121665000Y-81450000D01*
X120905000Y-81052929D02*
X120905000Y-81450000D01*
X120015000Y-81450000D02*
X120015000Y-84110000D01*
X119125000Y-84110000D02*
X119125000Y-90110000D01*
X119125000Y-90110000D02*
X118365000Y-90110000D01*
X118365000Y-90110000D02*
X118365000Y-84110000D01*
X119125000Y-81052929D02*
X119125000Y-81450000D01*
X118365000Y-81052929D02*
X118365000Y-81450000D01*
X117475000Y-81450000D02*
X117475000Y-84110000D01*
X116585000Y-84110000D02*
X116585000Y-90110000D01*
X116585000Y-90110000D02*
X115825000Y-90110000D01*
X115825000Y-90110000D02*
X115825000Y-84110000D01*
X116585000Y-81052929D02*
X116585000Y-81450000D01*
X115825000Y-81052929D02*
X115825000Y-81450000D01*
X114935000Y-81450000D02*
X114935000Y-84110000D01*
X114045000Y-84110000D02*
X114045000Y-90110000D01*
X114045000Y-90110000D02*
X113285000Y-90110000D01*
X113285000Y-90110000D02*
X113285000Y-84110000D01*
X114045000Y-81052929D02*
X114045000Y-81450000D01*
X113285000Y-81052929D02*
X113285000Y-81450000D01*
X112395000Y-81450000D02*
X112395000Y-84110000D01*
X111505000Y-84110000D02*
X111505000Y-90110000D01*
X111505000Y-90110000D02*
X110745000Y-90110000D01*
X110745000Y-90110000D02*
X110745000Y-84110000D01*
X111505000Y-81052929D02*
X111505000Y-81450000D01*
X110745000Y-81052929D02*
X110745000Y-81450000D01*
X109855000Y-81450000D02*
X109855000Y-84110000D01*
X108965000Y-84110000D02*
X108965000Y-90110000D01*
X108965000Y-90110000D02*
X108205000Y-90110000D01*
X108205000Y-90110000D02*
X108205000Y-84110000D01*
X108965000Y-81052929D02*
X108965000Y-81450000D01*
X108205000Y-81052929D02*
X108205000Y-81450000D01*
X107315000Y-81450000D02*
X107315000Y-84110000D01*
X106425000Y-84110000D02*
X106425000Y-90110000D01*
X106425000Y-90110000D02*
X105665000Y-90110000D01*
X105665000Y-90110000D02*
X105665000Y-84110000D01*
X106425000Y-81052929D02*
X106425000Y-81450000D01*
X105665000Y-81052929D02*
X105665000Y-81450000D01*
X104775000Y-81450000D02*
X104775000Y-84110000D01*
X103885000Y-84110000D02*
X103885000Y-90110000D01*
X103885000Y-90110000D02*
X103125000Y-90110000D01*
X103125000Y-90110000D02*
X103125000Y-84110000D01*
X103885000Y-81052929D02*
X103885000Y-81450000D01*
X103125000Y-81052929D02*
X103125000Y-81450000D01*
X102235000Y-81450000D02*
X102235000Y-84110000D01*
X101345000Y-84110000D02*
X101345000Y-90110000D01*
X101345000Y-90110000D02*
X100585000Y-90110000D01*
X100585000Y-90110000D02*
X100585000Y-84110000D01*
X101345000Y-81052929D02*
X101345000Y-81450000D01*
X100585000Y-81052929D02*
X100585000Y-81450000D01*
X197485000Y-78740000D02*
X198755000Y-78740000D01*
X198755000Y-78740000D02*
X198755000Y-80010000D01*
X120710000Y-41335000D02*
X120710000Y-36135000D01*
X105410000Y-41335000D02*
X120710000Y-41335000D01*
X102810000Y-36135000D02*
X120710000Y-36135000D01*
X105410000Y-41335000D02*
X105410000Y-38735000D01*
X105410000Y-38735000D02*
X102810000Y-38735000D01*
X102810000Y-38735000D02*
X102810000Y-36135000D01*
X104140000Y-41335000D02*
X102810000Y-41335000D01*
X102810000Y-41335000D02*
X102810000Y-40005000D01*
X172025000Y-41335000D02*
X174685000Y-41335000D01*
X172025000Y-38735000D02*
X172025000Y-41335000D01*
X174685000Y-38735000D02*
X174685000Y-41335000D01*
X172025000Y-38735000D02*
X174685000Y-38735000D01*
X172025000Y-37465000D02*
X172025000Y-36135000D01*
X172025000Y-36135000D02*
X173355000Y-36135000D01*
X177105000Y-41335000D02*
X179765000Y-41335000D01*
X177105000Y-38735000D02*
X177105000Y-41335000D01*
X179765000Y-38735000D02*
X179765000Y-41335000D01*
X177105000Y-38735000D02*
X179765000Y-38735000D01*
X177105000Y-37465000D02*
X177105000Y-36135000D01*
X177105000Y-36135000D02*
X178435000Y-36135000D01*
X154245000Y-43875000D02*
X156905000Y-43875000D01*
X154245000Y-38735000D02*
X154245000Y-43875000D01*
X156905000Y-38735000D02*
X156905000Y-43875000D01*
X154245000Y-38735000D02*
X156905000Y-38735000D01*
X154245000Y-37465000D02*
X154245000Y-36135000D01*
X154245000Y-36135000D02*
X155575000Y-36135000D01*
X159325000Y-43875000D02*
X161985000Y-43875000D01*
X159325000Y-38735000D02*
X159325000Y-43875000D01*
X161985000Y-38735000D02*
X161985000Y-43875000D01*
X159325000Y-38735000D02*
X161985000Y-38735000D01*
X159325000Y-37465000D02*
X159325000Y-36135000D01*
X159325000Y-36135000D02*
X160655000Y-36135000D01*
X192440000Y-67985000D02*
X192440000Y-65365000D01*
X192440000Y-65365000D02*
X186020000Y-65365000D01*
X186020000Y-65365000D02*
X186020000Y-67985000D01*
X186020000Y-67985000D02*
X192440000Y-67985000D01*
X193330000Y-66675000D02*
X192440000Y-66675000D01*
X185130000Y-66675000D02*
X186020000Y-66675000D01*
X192440000Y-64175000D02*
X192440000Y-61555000D01*
X192440000Y-61555000D02*
X186020000Y-61555000D01*
X186020000Y-61555000D02*
X186020000Y-64175000D01*
X186020000Y-64175000D02*
X192440000Y-64175000D01*
X193330000Y-62865000D02*
X192440000Y-62865000D01*
X185130000Y-62865000D02*
X186020000Y-62865000D01*
X192440000Y-60365000D02*
X192440000Y-57745000D01*
X192440000Y-57745000D02*
X186020000Y-57745000D01*
X186020000Y-57745000D02*
X186020000Y-60365000D01*
X186020000Y-60365000D02*
X192440000Y-60365000D01*
X193330000Y-59055000D02*
X192440000Y-59055000D01*
X185130000Y-59055000D02*
X186020000Y-59055000D01*
X122285000Y-50105000D02*
G75*
G02X120285000Y-50105000I-1000000J0D01*
G01*
X120285000Y-50105000D02*
X118635000Y-50105000D01*
X118635000Y-50105000D02*
X118635000Y-68005000D01*
X118635000Y-68005000D02*
X123935000Y-68005000D01*
X123935000Y-68005000D02*
X123935000Y-50105000D01*
X123935000Y-50105000D02*
X122285000Y-50105000D01*
X116145000Y-50045000D02*
X116145000Y-68065000D01*
X116145000Y-68065000D02*
X126425000Y-68065000D01*
X126425000Y-68065000D02*
X126425000Y-50045000D01*
X126425000Y-50045000D02*
X116145000Y-50045000D01*
X107045000Y-50105000D02*
G75*
G02X105045000Y-50105000I-1000000J0D01*
G01*
X105045000Y-50105000D02*
X103395000Y-50105000D01*
X103395000Y-50105000D02*
X103395000Y-70545000D01*
X103395000Y-70545000D02*
X108695000Y-70545000D01*
X108695000Y-70545000D02*
X108695000Y-50105000D01*
X108695000Y-50105000D02*
X107045000Y-50105000D01*
X100905000Y-50045000D02*
X100905000Y-70605000D01*
X100905000Y-70605000D02*
X111185000Y-70605000D01*
X111185000Y-70605000D02*
X111185000Y-50045000D01*
X111185000Y-50045000D02*
X100905000Y-50045000D01*
X132095000Y-71410000D02*
X144245000Y-71410000D01*
X131345000Y-51260000D02*
X131345000Y-70660000D01*
X143495000Y-50510000D02*
X132095000Y-50510000D01*
X144245000Y-71410000D02*
X144245000Y-51260000D01*
X144245000Y-51260000D02*
G75*
G03X143495000Y-50510000I-750000J0D01*
G01*
X132095000Y-50510000D02*
G75*
G03X131345000Y-51260000I0J-750000D01*
G01*
X131345000Y-70660000D02*
G75*
G03X132095000Y-71410000I750000J0D01*
G01*
X179765000Y-60055000D02*
G75*
G02X179765000Y-58055000I0J1000000D01*
G01*
X179765000Y-58055000D02*
X179765000Y-52595000D01*
X179765000Y-52595000D02*
X149165000Y-52595000D01*
X149165000Y-52595000D02*
X149165000Y-65515000D01*
X149165000Y-65515000D02*
X179765000Y-65515000D01*
X179765000Y-65515000D02*
X179765000Y-60055000D01*
X179825000Y-50105000D02*
X149105000Y-50105000D01*
X149105000Y-50105000D02*
X149105000Y-68005000D01*
X149105000Y-68005000D02*
X179825000Y-68005000D01*
X179825000Y-68005000D02*
X179825000Y-50105000D01*
D11*
X147042143Y-54141666D02*
X147089762Y-54189285D01*
X147137381Y-54332142D01*
X147137381Y-54427380D01*
X147089762Y-54570238D01*
X146994524Y-54665476D01*
X146899286Y-54713095D01*
X146708810Y-54760714D01*
X146565952Y-54760714D01*
X146375476Y-54713095D01*
X146280238Y-54665476D01*
X146185000Y-54570238D01*
X146137381Y-54427380D01*
X146137381Y-54332142D01*
X146185000Y-54189285D01*
X146232619Y-54141666D01*
X147137381Y-53189285D02*
X147137381Y-53760714D01*
X147137381Y-53475000D02*
X146137381Y-53475000D01*
X146280238Y-53570238D01*
X146375476Y-53665476D01*
X146423095Y-53760714D01*
X114022143Y-54141666D02*
X114069762Y-54189285D01*
X114117381Y-54332142D01*
X114117381Y-54427380D01*
X114069762Y-54570238D01*
X113974524Y-54665476D01*
X113879286Y-54713095D01*
X113688810Y-54760714D01*
X113545952Y-54760714D01*
X113355476Y-54713095D01*
X113260238Y-54665476D01*
X113165000Y-54570238D01*
X113117381Y-54427380D01*
X113117381Y-54332142D01*
X113165000Y-54189285D01*
X113212619Y-54141666D01*
X113212619Y-53760714D02*
X113165000Y-53713095D01*
X113117381Y-53617857D01*
X113117381Y-53379761D01*
X113165000Y-53284523D01*
X113212619Y-53236904D01*
X113307857Y-53189285D01*
X113403095Y-53189285D01*
X113545952Y-53236904D01*
X114117381Y-53808333D01*
X114117381Y-53189285D01*
X129262143Y-54141666D02*
X129309762Y-54189285D01*
X129357381Y-54332142D01*
X129357381Y-54427380D01*
X129309762Y-54570238D01*
X129214524Y-54665476D01*
X129119286Y-54713095D01*
X128928810Y-54760714D01*
X128785952Y-54760714D01*
X128595476Y-54713095D01*
X128500238Y-54665476D01*
X128405000Y-54570238D01*
X128357381Y-54427380D01*
X128357381Y-54332142D01*
X128405000Y-54189285D01*
X128452619Y-54141666D01*
X128357381Y-53808333D02*
X128357381Y-53189285D01*
X128738333Y-53522619D01*
X128738333Y-53379761D01*
X128785952Y-53284523D01*
X128833571Y-53236904D01*
X128928810Y-53189285D01*
X129166905Y-53189285D01*
X129262143Y-53236904D01*
X129309762Y-53284523D01*
X129357381Y-53379761D01*
X129357381Y-53665476D01*
X129309762Y-53760714D01*
X129262143Y-53808333D01*
X199207381Y-84728333D02*
X199921667Y-84728333D01*
X200064524Y-84775953D01*
X200159762Y-84871191D01*
X200207381Y-85014048D01*
X200207381Y-85109286D01*
X200207381Y-83728333D02*
X200207381Y-84299762D01*
X200207381Y-84014048D02*
X199207381Y-84014048D01*
X199350238Y-84109286D01*
X199445476Y-84204524D01*
X199493095Y-84299762D01*
D10*
X184092857Y-49040952D02*
X184092857Y-49307619D01*
X184511905Y-49307619D02*
X183711905Y-49307619D01*
X183711905Y-48926666D01*
X183711905Y-48736191D02*
X183711905Y-48279048D01*
X184511905Y-48507619D02*
X183711905Y-48507619D01*
X184511905Y-48012381D02*
X183711905Y-48012381D01*
X183711905Y-47821905D01*
X183750000Y-47707619D01*
X183826190Y-47631428D01*
X183902381Y-47593333D01*
X184054762Y-47555238D01*
X184169048Y-47555238D01*
X184321429Y-47593333D01*
X184397619Y-47631428D01*
X184473810Y-47707619D01*
X184511905Y-47821905D01*
X184511905Y-48012381D01*
X184511905Y-47212381D02*
X183711905Y-47212381D01*
D11*
X101266667Y-33742381D02*
X101266667Y-34456667D01*
X101219047Y-34599524D01*
X101123809Y-34694762D01*
X100980952Y-34742381D01*
X100885714Y-34742381D01*
X101647619Y-33742381D02*
X102266667Y-33742381D01*
X101933333Y-34123333D01*
X102076191Y-34123333D01*
X102171429Y-34170952D01*
X102219048Y-34218571D01*
X102266667Y-34313810D01*
X102266667Y-34551905D01*
X102219048Y-34647143D01*
X102171429Y-34694762D01*
X102076191Y-34742381D01*
X101790476Y-34742381D01*
X101695238Y-34694762D01*
X101647619Y-34647143D01*
X191587381Y-66841666D02*
X191111190Y-67175000D01*
X191587381Y-67413095D02*
X190587381Y-67413095D01*
X190587381Y-67032142D01*
X190635000Y-66936904D01*
X190682619Y-66889285D01*
X190777857Y-66841666D01*
X190920714Y-66841666D01*
X191015952Y-66889285D01*
X191063571Y-66936904D01*
X191111190Y-67032142D01*
X191111190Y-67413095D01*
X191587381Y-65889285D02*
X191587381Y-66460714D01*
X191587381Y-66175000D02*
X190587381Y-66175000D01*
X190730238Y-66270238D01*
X190825476Y-66365476D01*
X190873095Y-66460714D01*
X186793333Y-66222619D02*
X186840952Y-66175000D01*
X186936190Y-66127381D01*
X187174286Y-66127381D01*
X187269524Y-66175000D01*
X187317143Y-66222619D01*
X187364762Y-66317857D01*
X187364762Y-66413095D01*
X187317143Y-66555952D01*
X186745714Y-67127381D01*
X187364762Y-67127381D01*
X187793333Y-67127381D02*
X187793333Y-66127381D01*
X187888571Y-66746429D02*
X188174286Y-67127381D01*
X188174286Y-66460714D02*
X187793333Y-66841667D01*
X188555238Y-66222619D02*
X188602857Y-66175000D01*
X188698095Y-66127381D01*
X188936191Y-66127381D01*
X189031429Y-66175000D01*
X189079048Y-66222619D01*
X189126667Y-66317857D01*
X189126667Y-66413095D01*
X189079048Y-66555952D01*
X188507619Y-67127381D01*
X189126667Y-67127381D01*
X187777381Y-63031666D02*
X187301190Y-63365000D01*
X187777381Y-63603095D02*
X186777381Y-63603095D01*
X186777381Y-63222142D01*
X186825000Y-63126904D01*
X186872619Y-63079285D01*
X186967857Y-63031666D01*
X187110714Y-63031666D01*
X187205952Y-63079285D01*
X187253571Y-63126904D01*
X187301190Y-63222142D01*
X187301190Y-63603095D01*
X186872619Y-62650714D02*
X186825000Y-62603095D01*
X186777381Y-62507857D01*
X186777381Y-62269761D01*
X186825000Y-62174523D01*
X186872619Y-62126904D01*
X186967857Y-62079285D01*
X187063095Y-62079285D01*
X187205952Y-62126904D01*
X187777381Y-62698333D01*
X187777381Y-62079285D01*
X189333333Y-62412619D02*
X189380952Y-62365000D01*
X189476190Y-62317381D01*
X189714286Y-62317381D01*
X189809524Y-62365000D01*
X189857143Y-62412619D01*
X189904762Y-62507857D01*
X189904762Y-62603095D01*
X189857143Y-62745952D01*
X189285714Y-63317381D01*
X189904762Y-63317381D01*
X190333333Y-63317381D02*
X190333333Y-62317381D01*
X190428571Y-62936429D02*
X190714286Y-63317381D01*
X190714286Y-62650714D02*
X190333333Y-63031667D01*
X191047619Y-62317381D02*
X191714286Y-62317381D01*
X191285714Y-63317381D01*
X187777381Y-59221666D02*
X187301190Y-59555000D01*
X187777381Y-59793095D02*
X186777381Y-59793095D01*
X186777381Y-59412142D01*
X186825000Y-59316904D01*
X186872619Y-59269285D01*
X186967857Y-59221666D01*
X187110714Y-59221666D01*
X187205952Y-59269285D01*
X187253571Y-59316904D01*
X187301190Y-59412142D01*
X187301190Y-59793095D01*
X186777381Y-58888333D02*
X186777381Y-58269285D01*
X187158333Y-58602619D01*
X187158333Y-58459761D01*
X187205952Y-58364523D01*
X187253571Y-58316904D01*
X187348810Y-58269285D01*
X187586905Y-58269285D01*
X187682143Y-58316904D01*
X187729762Y-58364523D01*
X187777381Y-58459761D01*
X187777381Y-58745476D01*
X187729762Y-58840714D01*
X187682143Y-58888333D01*
X189333333Y-58602619D02*
X189380952Y-58555000D01*
X189476190Y-58507381D01*
X189714286Y-58507381D01*
X189809524Y-58555000D01*
X189857143Y-58602619D01*
X189904762Y-58697857D01*
X189904762Y-58793095D01*
X189857143Y-58935952D01*
X189285714Y-59507381D01*
X189904762Y-59507381D01*
X190333333Y-59507381D02*
X190333333Y-58507381D01*
X190428571Y-59126429D02*
X190714286Y-59507381D01*
X190714286Y-58840714D02*
X190333333Y-59221667D01*
X191047619Y-58507381D02*
X191714286Y-58507381D01*
X191285714Y-59507381D01*
X120523095Y-53427381D02*
X120523095Y-54236905D01*
X120570714Y-54332143D01*
X120618333Y-54379762D01*
X120713571Y-54427381D01*
X120904048Y-54427381D01*
X120999286Y-54379762D01*
X121046905Y-54332143D01*
X121094524Y-54236905D01*
X121094524Y-53427381D01*
X121523095Y-53522619D02*
X121570714Y-53475000D01*
X121665952Y-53427381D01*
X121904048Y-53427381D01*
X121999286Y-53475000D01*
X122046905Y-53522619D01*
X122094524Y-53617857D01*
X122094524Y-53713095D01*
X122046905Y-53855952D01*
X121475476Y-54427381D01*
X122094524Y-54427381D01*
X120737381Y-61697857D02*
X120737381Y-61031190D01*
X121737381Y-61459762D01*
X121070714Y-60221666D02*
X121737381Y-60221666D01*
X120689762Y-60459762D02*
X121404048Y-60697857D01*
X121404048Y-60078809D01*
X121737381Y-59221666D02*
X121737381Y-59697857D01*
X120737381Y-59697857D01*
X121689762Y-58935952D02*
X121737381Y-58793095D01*
X121737381Y-58554999D01*
X121689762Y-58459761D01*
X121642143Y-58412142D01*
X121546905Y-58364523D01*
X121451667Y-58364523D01*
X121356429Y-58412142D01*
X121308810Y-58459761D01*
X121261190Y-58554999D01*
X121213571Y-58745476D01*
X121165952Y-58840714D01*
X121118333Y-58888333D01*
X121023095Y-58935952D01*
X120927857Y-58935952D01*
X120832619Y-58888333D01*
X120785000Y-58840714D01*
X120737381Y-58745476D01*
X120737381Y-58507380D01*
X120785000Y-58364523D01*
X120737381Y-57745476D02*
X120737381Y-57650237D01*
X120785000Y-57554999D01*
X120832619Y-57507380D01*
X120927857Y-57459761D01*
X121118333Y-57412142D01*
X121356429Y-57412142D01*
X121546905Y-57459761D01*
X121642143Y-57507380D01*
X121689762Y-57554999D01*
X121737381Y-57650237D01*
X121737381Y-57745476D01*
X121689762Y-57840714D01*
X121642143Y-57888333D01*
X121546905Y-57935952D01*
X121356429Y-57983571D01*
X121118333Y-57983571D01*
X120927857Y-57935952D01*
X120832619Y-57888333D01*
X120785000Y-57840714D01*
X120737381Y-57745476D01*
X121070714Y-56554999D02*
X121737381Y-56554999D01*
X120689762Y-56793095D02*
X121404048Y-57031190D01*
X121404048Y-56412142D01*
X105283095Y-53427381D02*
X105283095Y-54236905D01*
X105330714Y-54332143D01*
X105378333Y-54379762D01*
X105473571Y-54427381D01*
X105664048Y-54427381D01*
X105759286Y-54379762D01*
X105806905Y-54332143D01*
X105854524Y-54236905D01*
X105854524Y-53427381D01*
X106235476Y-53427381D02*
X106854524Y-53427381D01*
X106521190Y-53808333D01*
X106664048Y-53808333D01*
X106759286Y-53855952D01*
X106806905Y-53903571D01*
X106854524Y-53998810D01*
X106854524Y-54236905D01*
X106806905Y-54332143D01*
X106759286Y-54379762D01*
X106664048Y-54427381D01*
X106378333Y-54427381D01*
X106283095Y-54379762D01*
X106235476Y-54332143D01*
X105497381Y-63444048D02*
X105497381Y-62777381D01*
X106497381Y-63205953D01*
X105830714Y-61967857D02*
X106497381Y-61967857D01*
X105449762Y-62205953D02*
X106164048Y-62444048D01*
X106164048Y-61825000D01*
X106497381Y-60967857D02*
X106497381Y-61444048D01*
X105497381Y-61444048D01*
X106449762Y-60682143D02*
X106497381Y-60539286D01*
X106497381Y-60301190D01*
X106449762Y-60205952D01*
X106402143Y-60158333D01*
X106306905Y-60110714D01*
X106211667Y-60110714D01*
X106116429Y-60158333D01*
X106068810Y-60205952D01*
X106021190Y-60301190D01*
X105973571Y-60491667D01*
X105925952Y-60586905D01*
X105878333Y-60634524D01*
X105783095Y-60682143D01*
X105687857Y-60682143D01*
X105592619Y-60634524D01*
X105545000Y-60586905D01*
X105497381Y-60491667D01*
X105497381Y-60253571D01*
X105545000Y-60110714D01*
X106497381Y-59158333D02*
X106497381Y-59729762D01*
X106497381Y-59444048D02*
X105497381Y-59444048D01*
X105640238Y-59539286D01*
X105735476Y-59634524D01*
X105783095Y-59729762D01*
X105497381Y-58825000D02*
X105497381Y-58205952D01*
X105878333Y-58539286D01*
X105878333Y-58396428D01*
X105925952Y-58301190D01*
X105973571Y-58253571D01*
X106068810Y-58205952D01*
X106306905Y-58205952D01*
X106402143Y-58253571D01*
X106449762Y-58301190D01*
X106497381Y-58396428D01*
X106497381Y-58682143D01*
X106449762Y-58777381D01*
X106402143Y-58825000D01*
X105925952Y-57634524D02*
X105878333Y-57729762D01*
X105830714Y-57777381D01*
X105735476Y-57825000D01*
X105687857Y-57825000D01*
X105592619Y-57777381D01*
X105545000Y-57729762D01*
X105497381Y-57634524D01*
X105497381Y-57444047D01*
X105545000Y-57348809D01*
X105592619Y-57301190D01*
X105687857Y-57253571D01*
X105735476Y-57253571D01*
X105830714Y-57301190D01*
X105878333Y-57348809D01*
X105925952Y-57444047D01*
X105925952Y-57634524D01*
X105973571Y-57729762D01*
X106021190Y-57777381D01*
X106116429Y-57825000D01*
X106306905Y-57825000D01*
X106402143Y-57777381D01*
X106449762Y-57729762D01*
X106497381Y-57634524D01*
X106497381Y-57444047D01*
X106449762Y-57348809D01*
X106402143Y-57301190D01*
X106306905Y-57253571D01*
X106116429Y-57253571D01*
X106021190Y-57301190D01*
X105973571Y-57348809D01*
X105925952Y-57444047D01*
X136985476Y-53427381D02*
X137652143Y-54427381D01*
X137652143Y-53427381D02*
X136985476Y-54427381D01*
X138556905Y-54427381D02*
X137985476Y-54427381D01*
X138271190Y-54427381D02*
X138271190Y-53427381D01*
X138175952Y-53570238D01*
X138080714Y-53665476D01*
X137985476Y-53713095D01*
X138247381Y-64880714D02*
X138247381Y-65452143D01*
X138247381Y-65166429D02*
X137247381Y-65166429D01*
X137390238Y-65261667D01*
X137485476Y-65356905D01*
X137533095Y-65452143D01*
X138152143Y-64452143D02*
X138199762Y-64404524D01*
X138247381Y-64452143D01*
X138199762Y-64499762D01*
X138152143Y-64452143D01*
X138247381Y-64452143D01*
X137675952Y-63833096D02*
X137628333Y-63928334D01*
X137580714Y-63975953D01*
X137485476Y-64023572D01*
X137437857Y-64023572D01*
X137342619Y-63975953D01*
X137295000Y-63928334D01*
X137247381Y-63833096D01*
X137247381Y-63642619D01*
X137295000Y-63547381D01*
X137342619Y-63499762D01*
X137437857Y-63452143D01*
X137485476Y-63452143D01*
X137580714Y-63499762D01*
X137628333Y-63547381D01*
X137675952Y-63642619D01*
X137675952Y-63833096D01*
X137723571Y-63928334D01*
X137771190Y-63975953D01*
X137866429Y-64023572D01*
X138056905Y-64023572D01*
X138152143Y-63975953D01*
X138199762Y-63928334D01*
X138247381Y-63833096D01*
X138247381Y-63642619D01*
X138199762Y-63547381D01*
X138152143Y-63499762D01*
X138056905Y-63452143D01*
X137866429Y-63452143D01*
X137771190Y-63499762D01*
X137723571Y-63547381D01*
X137675952Y-63642619D01*
X137580714Y-62595000D02*
X138247381Y-62595000D01*
X137199762Y-62833096D02*
X137914048Y-63071191D01*
X137914048Y-62452143D01*
X137247381Y-62166429D02*
X137247381Y-61547381D01*
X137628333Y-61880715D01*
X137628333Y-61737857D01*
X137675952Y-61642619D01*
X137723571Y-61595000D01*
X137818810Y-61547381D01*
X138056905Y-61547381D01*
X138152143Y-61595000D01*
X138199762Y-61642619D01*
X138247381Y-61737857D01*
X138247381Y-62023572D01*
X138199762Y-62118810D01*
X138152143Y-62166429D01*
X137342619Y-61166429D02*
X137295000Y-61118810D01*
X137247381Y-61023572D01*
X137247381Y-60785476D01*
X137295000Y-60690238D01*
X137342619Y-60642619D01*
X137437857Y-60595000D01*
X137533095Y-60595000D01*
X137675952Y-60642619D01*
X138247381Y-61214048D01*
X138247381Y-60595000D01*
X138247381Y-60166429D02*
X137247381Y-60166429D01*
X137961667Y-59833095D01*
X137247381Y-59499762D01*
X138247381Y-59499762D01*
X138247381Y-59023572D02*
X137247381Y-59023572D01*
X138247381Y-58595000D02*
X137723571Y-58595000D01*
X137628333Y-58642619D01*
X137580714Y-58737857D01*
X137580714Y-58880715D01*
X137628333Y-58975953D01*
X137675952Y-59023572D01*
X137580714Y-58214048D02*
X137580714Y-57690238D01*
X138247381Y-58214048D01*
X138247381Y-57690238D01*
X175133095Y-58507381D02*
X175133095Y-59316905D01*
X175180714Y-59412143D01*
X175228333Y-59459762D01*
X175323571Y-59507381D01*
X175514048Y-59507381D01*
X175609286Y-59459762D01*
X175656905Y-59412143D01*
X175704524Y-59316905D01*
X175704524Y-58507381D01*
X176704524Y-59507381D02*
X176133095Y-59507381D01*
X176418809Y-59507381D02*
X176418809Y-58507381D01*
X176323571Y-58650238D01*
X176228333Y-58745476D01*
X176133095Y-58793095D01*
X160456905Y-59507381D02*
X160456905Y-58507381D01*
X160790239Y-59221667D01*
X161123572Y-58507381D01*
X161123572Y-59507381D01*
X162171191Y-59412143D02*
X162123572Y-59459762D01*
X161980715Y-59507381D01*
X161885477Y-59507381D01*
X161742619Y-59459762D01*
X161647381Y-59364524D01*
X161599762Y-59269286D01*
X161552143Y-59078810D01*
X161552143Y-58935952D01*
X161599762Y-58745476D01*
X161647381Y-58650238D01*
X161742619Y-58555000D01*
X161885477Y-58507381D01*
X161980715Y-58507381D01*
X162123572Y-58555000D01*
X162171191Y-58602619D01*
X163028334Y-58507381D02*
X162837857Y-58507381D01*
X162742619Y-58555000D01*
X162695000Y-58602619D01*
X162599762Y-58745476D01*
X162552143Y-58935952D01*
X162552143Y-59316905D01*
X162599762Y-59412143D01*
X162647381Y-59459762D01*
X162742619Y-59507381D01*
X162933096Y-59507381D01*
X163028334Y-59459762D01*
X163075953Y-59412143D01*
X163123572Y-59316905D01*
X163123572Y-59078810D01*
X163075953Y-58983571D01*
X163028334Y-58935952D01*
X162933096Y-58888333D01*
X162742619Y-58888333D01*
X162647381Y-58935952D01*
X162599762Y-58983571D01*
X162552143Y-59078810D01*
X163695000Y-58935952D02*
X163599762Y-58888333D01*
X163552143Y-58840714D01*
X163504524Y-58745476D01*
X163504524Y-58697857D01*
X163552143Y-58602619D01*
X163599762Y-58555000D01*
X163695000Y-58507381D01*
X163885477Y-58507381D01*
X163980715Y-58555000D01*
X164028334Y-58602619D01*
X164075953Y-58697857D01*
X164075953Y-58745476D01*
X164028334Y-58840714D01*
X163980715Y-58888333D01*
X163885477Y-58935952D01*
X163695000Y-58935952D01*
X163599762Y-58983571D01*
X163552143Y-59031190D01*
X163504524Y-59126429D01*
X163504524Y-59316905D01*
X163552143Y-59412143D01*
X163599762Y-59459762D01*
X163695000Y-59507381D01*
X163885477Y-59507381D01*
X163980715Y-59459762D01*
X164028334Y-59412143D01*
X164075953Y-59316905D01*
X164075953Y-59126429D01*
X164028334Y-59031190D01*
X163980715Y-58983571D01*
X163885477Y-58935952D01*
X164980715Y-58507381D02*
X164504524Y-58507381D01*
X164456905Y-58983571D01*
X164504524Y-58935952D01*
X164599762Y-58888333D01*
X164837858Y-58888333D01*
X164933096Y-58935952D01*
X164980715Y-58983571D01*
X165028334Y-59078810D01*
X165028334Y-59316905D01*
X164980715Y-59412143D01*
X164933096Y-59459762D01*
X164837858Y-59507381D01*
X164599762Y-59507381D01*
X164504524Y-59459762D01*
X164456905Y-59412143D01*
X165647381Y-58507381D02*
X165742620Y-58507381D01*
X165837858Y-58555000D01*
X165885477Y-58602619D01*
X165933096Y-58697857D01*
X165980715Y-58888333D01*
X165980715Y-59126429D01*
X165933096Y-59316905D01*
X165885477Y-59412143D01*
X165837858Y-59459762D01*
X165742620Y-59507381D01*
X165647381Y-59507381D01*
X165552143Y-59459762D01*
X165504524Y-59412143D01*
X165456905Y-59316905D01*
X165409286Y-59126429D01*
X165409286Y-58888333D01*
X165456905Y-58697857D01*
X165504524Y-58602619D01*
X165552143Y-58555000D01*
X165647381Y-58507381D01*
M02*
