G04 #@! TF.FileFunction,Legend,Bot*
%FSLAX46Y46*%
G04 Gerber Fmt 4.6, Leading zero omitted, Abs format (unit mm)*
G04 Created by KiCad (PCBNEW 4.0.7) date 09/22/19 23:17:33*
%MOMM*%
%LPD*%
G01*
G04 APERTURE LIST*
%ADD10C,0.100000*%
%ADD11C,0.150000*%
%ADD12C,0.200000*%
%ADD13C,0.120000*%
G04 APERTURE END LIST*
D10*
D11*
X108600000Y-78557381D02*
X108933334Y-78081190D01*
X109171429Y-78557381D02*
X109171429Y-77557381D01*
X108790476Y-77557381D01*
X108695238Y-77605000D01*
X108647619Y-77652619D01*
X108600000Y-77747857D01*
X108600000Y-77890714D01*
X108647619Y-77985952D01*
X108695238Y-78033571D01*
X108790476Y-78081190D01*
X109171429Y-78081190D01*
X107790476Y-78509762D02*
X107885714Y-78557381D01*
X108076191Y-78557381D01*
X108171429Y-78509762D01*
X108219048Y-78414524D01*
X108219048Y-78033571D01*
X108171429Y-77938333D01*
X108076191Y-77890714D01*
X107885714Y-77890714D01*
X107790476Y-77938333D01*
X107742857Y-78033571D01*
X107742857Y-78128810D01*
X108219048Y-78224048D01*
X107409524Y-77890714D02*
X107171429Y-78557381D01*
X106933333Y-77890714D01*
X106552381Y-78557381D02*
X106552381Y-77890714D01*
X106552381Y-77557381D02*
X106600000Y-77605000D01*
X106552381Y-77652619D01*
X106504762Y-77605000D01*
X106552381Y-77557381D01*
X106552381Y-77652619D01*
X106123810Y-78509762D02*
X106028572Y-78557381D01*
X105838096Y-78557381D01*
X105742857Y-78509762D01*
X105695238Y-78414524D01*
X105695238Y-78366905D01*
X105742857Y-78271667D01*
X105838096Y-78224048D01*
X105980953Y-78224048D01*
X106076191Y-78176429D01*
X106123810Y-78081190D01*
X106123810Y-78033571D01*
X106076191Y-77938333D01*
X105980953Y-77890714D01*
X105838096Y-77890714D01*
X105742857Y-77938333D01*
X105266667Y-78557381D02*
X105266667Y-77890714D01*
X105266667Y-77557381D02*
X105314286Y-77605000D01*
X105266667Y-77652619D01*
X105219048Y-77605000D01*
X105266667Y-77557381D01*
X105266667Y-77652619D01*
X104647620Y-78557381D02*
X104742858Y-78509762D01*
X104790477Y-78462143D01*
X104838096Y-78366905D01*
X104838096Y-78081190D01*
X104790477Y-77985952D01*
X104742858Y-77938333D01*
X104647620Y-77890714D01*
X104504762Y-77890714D01*
X104409524Y-77938333D01*
X104361905Y-77985952D01*
X104314286Y-78081190D01*
X104314286Y-78366905D01*
X104361905Y-78462143D01*
X104409524Y-78509762D01*
X104504762Y-78557381D01*
X104647620Y-78557381D01*
X103885715Y-77890714D02*
X103885715Y-78557381D01*
X103885715Y-77985952D02*
X103838096Y-77938333D01*
X103742858Y-77890714D01*
X103600000Y-77890714D01*
X103504762Y-77938333D01*
X103457143Y-78033571D01*
X103457143Y-78557381D01*
X102266667Y-78271667D02*
X101790476Y-78271667D01*
X102361905Y-78557381D02*
X102028572Y-77557381D01*
X101695238Y-78557381D01*
D10*
X166655477Y-57466905D02*
X166655477Y-56666905D01*
X166388810Y-57238333D01*
X166122143Y-56666905D01*
X166122143Y-57466905D01*
X165284048Y-57390714D02*
X165322143Y-57428810D01*
X165436429Y-57466905D01*
X165512619Y-57466905D01*
X165626905Y-57428810D01*
X165703096Y-57352619D01*
X165741191Y-57276429D01*
X165779286Y-57124048D01*
X165779286Y-57009762D01*
X165741191Y-56857381D01*
X165703096Y-56781190D01*
X165626905Y-56705000D01*
X165512619Y-56666905D01*
X165436429Y-56666905D01*
X165322143Y-56705000D01*
X165284048Y-56743095D01*
X164598334Y-56666905D02*
X164750715Y-56666905D01*
X164826905Y-56705000D01*
X164865000Y-56743095D01*
X164941191Y-56857381D01*
X164979286Y-57009762D01*
X164979286Y-57314524D01*
X164941191Y-57390714D01*
X164903096Y-57428810D01*
X164826905Y-57466905D01*
X164674524Y-57466905D01*
X164598334Y-57428810D01*
X164560238Y-57390714D01*
X164522143Y-57314524D01*
X164522143Y-57124048D01*
X164560238Y-57047857D01*
X164598334Y-57009762D01*
X164674524Y-56971667D01*
X164826905Y-56971667D01*
X164903096Y-57009762D01*
X164941191Y-57047857D01*
X164979286Y-57124048D01*
X164065000Y-57009762D02*
X164141191Y-56971667D01*
X164179286Y-56933571D01*
X164217381Y-56857381D01*
X164217381Y-56819286D01*
X164179286Y-56743095D01*
X164141191Y-56705000D01*
X164065000Y-56666905D01*
X163912619Y-56666905D01*
X163836429Y-56705000D01*
X163798333Y-56743095D01*
X163760238Y-56819286D01*
X163760238Y-56857381D01*
X163798333Y-56933571D01*
X163836429Y-56971667D01*
X163912619Y-57009762D01*
X164065000Y-57009762D01*
X164141191Y-57047857D01*
X164179286Y-57085952D01*
X164217381Y-57162143D01*
X164217381Y-57314524D01*
X164179286Y-57390714D01*
X164141191Y-57428810D01*
X164065000Y-57466905D01*
X163912619Y-57466905D01*
X163836429Y-57428810D01*
X163798333Y-57390714D01*
X163760238Y-57314524D01*
X163760238Y-57162143D01*
X163798333Y-57085952D01*
X163836429Y-57047857D01*
X163912619Y-57009762D01*
X163036428Y-56666905D02*
X163417381Y-56666905D01*
X163455476Y-57047857D01*
X163417381Y-57009762D01*
X163341190Y-56971667D01*
X163150714Y-56971667D01*
X163074524Y-57009762D01*
X163036428Y-57047857D01*
X162998333Y-57124048D01*
X162998333Y-57314524D01*
X163036428Y-57390714D01*
X163074524Y-57428810D01*
X163150714Y-57466905D01*
X163341190Y-57466905D01*
X163417381Y-57428810D01*
X163455476Y-57390714D01*
X162503095Y-56666905D02*
X162426904Y-56666905D01*
X162350714Y-56705000D01*
X162312619Y-56743095D01*
X162274523Y-56819286D01*
X162236428Y-56971667D01*
X162236428Y-57162143D01*
X162274523Y-57314524D01*
X162312619Y-57390714D01*
X162350714Y-57428810D01*
X162426904Y-57466905D01*
X162503095Y-57466905D01*
X162579285Y-57428810D01*
X162617381Y-57390714D01*
X162655476Y-57314524D01*
X162693571Y-57162143D01*
X162693571Y-56971667D01*
X162655476Y-56819286D01*
X162617381Y-56743095D01*
X162579285Y-56705000D01*
X162503095Y-56666905D01*
X174598332Y-59838333D02*
X174217380Y-59838333D01*
X174674523Y-60066905D02*
X174407856Y-59266905D01*
X174141189Y-60066905D01*
X173912618Y-60028810D02*
X173798332Y-60066905D01*
X173607856Y-60066905D01*
X173531666Y-60028810D01*
X173493570Y-59990714D01*
X173455475Y-59914524D01*
X173455475Y-59838333D01*
X173493570Y-59762143D01*
X173531666Y-59724048D01*
X173607856Y-59685952D01*
X173760237Y-59647857D01*
X173836428Y-59609762D01*
X173874523Y-59571667D01*
X173912618Y-59495476D01*
X173912618Y-59419286D01*
X173874523Y-59343095D01*
X173836428Y-59305000D01*
X173760237Y-59266905D01*
X173569761Y-59266905D01*
X173455475Y-59305000D01*
X172960237Y-59685952D02*
X172960237Y-60066905D01*
X173226904Y-59266905D02*
X172960237Y-59685952D01*
X172693570Y-59266905D01*
X172426904Y-60066905D02*
X172426904Y-59266905D01*
X171969761Y-60066905D01*
X171969761Y-59266905D01*
X171131666Y-59990714D02*
X171169761Y-60028810D01*
X171284047Y-60066905D01*
X171360237Y-60066905D01*
X171474523Y-60028810D01*
X171550714Y-59952619D01*
X171588809Y-59876429D01*
X171626904Y-59724048D01*
X171626904Y-59609762D01*
X171588809Y-59457381D01*
X171550714Y-59381190D01*
X171474523Y-59305000D01*
X171360237Y-59266905D01*
X171284047Y-59266905D01*
X171169761Y-59305000D01*
X171131666Y-59343095D01*
X170788809Y-60066905D02*
X170788809Y-59266905D01*
X170788809Y-59647857D02*
X170331666Y-59647857D01*
X170331666Y-60066905D02*
X170331666Y-59266905D01*
X169493571Y-60066905D02*
X169760238Y-59685952D01*
X169950714Y-60066905D02*
X169950714Y-59266905D01*
X169645952Y-59266905D01*
X169569761Y-59305000D01*
X169531666Y-59343095D01*
X169493571Y-59419286D01*
X169493571Y-59533571D01*
X169531666Y-59609762D01*
X169569761Y-59647857D01*
X169645952Y-59685952D01*
X169950714Y-59685952D01*
X168998333Y-59266905D02*
X168845952Y-59266905D01*
X168769761Y-59305000D01*
X168693571Y-59381190D01*
X168655476Y-59533571D01*
X168655476Y-59800238D01*
X168693571Y-59952619D01*
X168769761Y-60028810D01*
X168845952Y-60066905D01*
X168998333Y-60066905D01*
X169074523Y-60028810D01*
X169150714Y-59952619D01*
X169188809Y-59800238D01*
X169188809Y-59533571D01*
X169150714Y-59381190D01*
X169074523Y-59305000D01*
X168998333Y-59266905D01*
X168312619Y-60066905D02*
X168312619Y-59266905D01*
X167855476Y-60066905D01*
X167855476Y-59266905D01*
X167322143Y-59266905D02*
X167169762Y-59266905D01*
X167093571Y-59305000D01*
X167017381Y-59381190D01*
X166979286Y-59533571D01*
X166979286Y-59800238D01*
X167017381Y-59952619D01*
X167093571Y-60028810D01*
X167169762Y-60066905D01*
X167322143Y-60066905D01*
X167398333Y-60028810D01*
X167474524Y-59952619D01*
X167512619Y-59800238D01*
X167512619Y-59533571D01*
X167474524Y-59381190D01*
X167398333Y-59305000D01*
X167322143Y-59266905D01*
X166636429Y-59266905D02*
X166636429Y-59914524D01*
X166598334Y-59990714D01*
X166560238Y-60028810D01*
X166484048Y-60066905D01*
X166331667Y-60066905D01*
X166255476Y-60028810D01*
X166217381Y-59990714D01*
X166179286Y-59914524D01*
X166179286Y-59266905D01*
X165836429Y-60028810D02*
X165722143Y-60066905D01*
X165531667Y-60066905D01*
X165455477Y-60028810D01*
X165417381Y-59990714D01*
X165379286Y-59914524D01*
X165379286Y-59838333D01*
X165417381Y-59762143D01*
X165455477Y-59724048D01*
X165531667Y-59685952D01*
X165684048Y-59647857D01*
X165760239Y-59609762D01*
X165798334Y-59571667D01*
X165836429Y-59495476D01*
X165836429Y-59419286D01*
X165798334Y-59343095D01*
X165760239Y-59305000D01*
X165684048Y-59266905D01*
X165493572Y-59266905D01*
X165379286Y-59305000D01*
X163969762Y-59990714D02*
X164007857Y-60028810D01*
X164122143Y-60066905D01*
X164198333Y-60066905D01*
X164312619Y-60028810D01*
X164388810Y-59952619D01*
X164426905Y-59876429D01*
X164465000Y-59724048D01*
X164465000Y-59609762D01*
X164426905Y-59457381D01*
X164388810Y-59381190D01*
X164312619Y-59305000D01*
X164198333Y-59266905D01*
X164122143Y-59266905D01*
X164007857Y-59305000D01*
X163969762Y-59343095D01*
X163474524Y-59266905D02*
X163322143Y-59266905D01*
X163245952Y-59305000D01*
X163169762Y-59381190D01*
X163131667Y-59533571D01*
X163131667Y-59800238D01*
X163169762Y-59952619D01*
X163245952Y-60028810D01*
X163322143Y-60066905D01*
X163474524Y-60066905D01*
X163550714Y-60028810D01*
X163626905Y-59952619D01*
X163665000Y-59800238D01*
X163665000Y-59533571D01*
X163626905Y-59381190D01*
X163550714Y-59305000D01*
X163474524Y-59266905D01*
X162788810Y-60066905D02*
X162788810Y-59266905D01*
X162522143Y-59838333D01*
X162255476Y-59266905D01*
X162255476Y-60066905D01*
X161874524Y-60066905D02*
X161874524Y-59266905D01*
X161607857Y-59838333D01*
X161341190Y-59266905D01*
X161341190Y-60066905D01*
X160960238Y-59266905D02*
X160960238Y-59914524D01*
X160922143Y-59990714D01*
X160884047Y-60028810D01*
X160807857Y-60066905D01*
X160655476Y-60066905D01*
X160579285Y-60028810D01*
X160541190Y-59990714D01*
X160503095Y-59914524D01*
X160503095Y-59266905D01*
X160122143Y-60066905D02*
X160122143Y-59266905D01*
X159665000Y-60066905D01*
X159665000Y-59266905D01*
X159284048Y-60066905D02*
X159284048Y-59266905D01*
X158445953Y-59990714D02*
X158484048Y-60028810D01*
X158598334Y-60066905D01*
X158674524Y-60066905D01*
X158788810Y-60028810D01*
X158865001Y-59952619D01*
X158903096Y-59876429D01*
X158941191Y-59724048D01*
X158941191Y-59609762D01*
X158903096Y-59457381D01*
X158865001Y-59381190D01*
X158788810Y-59305000D01*
X158674524Y-59266905D01*
X158598334Y-59266905D01*
X158484048Y-59305000D01*
X158445953Y-59343095D01*
X158141191Y-59838333D02*
X157760239Y-59838333D01*
X158217382Y-60066905D02*
X157950715Y-59266905D01*
X157684048Y-60066905D01*
X157531668Y-59266905D02*
X157074525Y-59266905D01*
X157303096Y-60066905D02*
X157303096Y-59266905D01*
X156807858Y-60066905D02*
X156807858Y-59266905D01*
X156274525Y-59266905D02*
X156122144Y-59266905D01*
X156045953Y-59305000D01*
X155969763Y-59381190D01*
X155931668Y-59533571D01*
X155931668Y-59800238D01*
X155969763Y-59952619D01*
X156045953Y-60028810D01*
X156122144Y-60066905D01*
X156274525Y-60066905D01*
X156350715Y-60028810D01*
X156426906Y-59952619D01*
X156465001Y-59800238D01*
X156465001Y-59533571D01*
X156426906Y-59381190D01*
X156350715Y-59305000D01*
X156274525Y-59266905D01*
X155588811Y-60066905D02*
X155588811Y-59266905D01*
X155131668Y-60066905D01*
X155131668Y-59266905D01*
X154788811Y-60028810D02*
X154674525Y-60066905D01*
X154484049Y-60066905D01*
X154407859Y-60028810D01*
X154369763Y-59990714D01*
X154331668Y-59914524D01*
X154331668Y-59838333D01*
X154369763Y-59762143D01*
X154407859Y-59724048D01*
X154484049Y-59685952D01*
X154636430Y-59647857D01*
X154712621Y-59609762D01*
X154750716Y-59571667D01*
X154788811Y-59495476D01*
X154788811Y-59419286D01*
X154750716Y-59343095D01*
X154712621Y-59305000D01*
X154636430Y-59266905D01*
X154445954Y-59266905D01*
X154331668Y-59305000D01*
X172674523Y-61366905D02*
X172674523Y-60566905D01*
X172293571Y-61366905D02*
X172293571Y-60566905D01*
X171836428Y-61366905D01*
X171836428Y-60566905D01*
X171569762Y-60566905D02*
X171112619Y-60566905D01*
X171341190Y-61366905D02*
X171341190Y-60566905D01*
X170845952Y-60947857D02*
X170579285Y-60947857D01*
X170464999Y-61366905D02*
X170845952Y-61366905D01*
X170845952Y-60566905D01*
X170464999Y-60566905D01*
X169664999Y-61366905D02*
X169931666Y-60985952D01*
X170122142Y-61366905D02*
X170122142Y-60566905D01*
X169817380Y-60566905D01*
X169741189Y-60605000D01*
X169703094Y-60643095D01*
X169664999Y-60719286D01*
X169664999Y-60833571D01*
X169703094Y-60909762D01*
X169741189Y-60947857D01*
X169817380Y-60985952D01*
X170122142Y-60985952D01*
X169055475Y-60947857D02*
X169322142Y-60947857D01*
X169322142Y-61366905D02*
X169322142Y-60566905D01*
X168941189Y-60566905D01*
X168674523Y-61138333D02*
X168293571Y-61138333D01*
X168750714Y-61366905D02*
X168484047Y-60566905D01*
X168217380Y-61366905D01*
X167493571Y-61290714D02*
X167531666Y-61328810D01*
X167645952Y-61366905D01*
X167722142Y-61366905D01*
X167836428Y-61328810D01*
X167912619Y-61252619D01*
X167950714Y-61176429D01*
X167988809Y-61024048D01*
X167988809Y-60909762D01*
X167950714Y-60757381D01*
X167912619Y-60681190D01*
X167836428Y-60605000D01*
X167722142Y-60566905D01*
X167645952Y-60566905D01*
X167531666Y-60605000D01*
X167493571Y-60643095D01*
X167150714Y-60947857D02*
X166884047Y-60947857D01*
X166769761Y-61366905D02*
X167150714Y-61366905D01*
X167150714Y-60566905D01*
X166769761Y-60566905D01*
X165855475Y-61138333D02*
X165474523Y-61138333D01*
X165931666Y-61366905D02*
X165664999Y-60566905D01*
X165398332Y-61366905D01*
X165131666Y-61366905D02*
X165131666Y-60566905D01*
X164941190Y-60566905D01*
X164826904Y-60605000D01*
X164750713Y-60681190D01*
X164712618Y-60757381D01*
X164674523Y-60909762D01*
X164674523Y-61024048D01*
X164712618Y-61176429D01*
X164750713Y-61252619D01*
X164826904Y-61328810D01*
X164941190Y-61366905D01*
X165131666Y-61366905D01*
X164369761Y-61138333D02*
X163988809Y-61138333D01*
X164445952Y-61366905D02*
X164179285Y-60566905D01*
X163912618Y-61366905D01*
X163645952Y-61366905D02*
X163645952Y-60566905D01*
X163341190Y-60566905D01*
X163264999Y-60605000D01*
X163226904Y-60643095D01*
X163188809Y-60719286D01*
X163188809Y-60833571D01*
X163226904Y-60909762D01*
X163264999Y-60947857D01*
X163341190Y-60985952D01*
X163645952Y-60985952D01*
X162960238Y-60566905D02*
X162503095Y-60566905D01*
X162731666Y-61366905D02*
X162731666Y-60566905D01*
X162236428Y-60947857D02*
X161969761Y-60947857D01*
X161855475Y-61366905D02*
X162236428Y-61366905D01*
X162236428Y-60566905D01*
X161855475Y-60566905D01*
X161055475Y-61366905D02*
X161322142Y-60985952D01*
X161512618Y-61366905D02*
X161512618Y-60566905D01*
X161207856Y-60566905D01*
X161131665Y-60605000D01*
X161093570Y-60643095D01*
X161055475Y-60719286D01*
X161055475Y-60833571D01*
X161093570Y-60909762D01*
X161131665Y-60947857D01*
X161207856Y-60985952D01*
X161512618Y-60985952D01*
X159874522Y-61671667D02*
X159912618Y-61633571D01*
X159988808Y-61519286D01*
X160026903Y-61443095D01*
X160064999Y-61328810D01*
X160103094Y-61138333D01*
X160103094Y-60985952D01*
X160064999Y-60795476D01*
X160026903Y-60681190D01*
X159988808Y-60605000D01*
X159912618Y-60490714D01*
X159874522Y-60452619D01*
X159607856Y-61138333D02*
X159226904Y-61138333D01*
X159684047Y-61366905D02*
X159417380Y-60566905D01*
X159150713Y-61366905D01*
X158426904Y-61290714D02*
X158464999Y-61328810D01*
X158579285Y-61366905D01*
X158655475Y-61366905D01*
X158769761Y-61328810D01*
X158845952Y-61252619D01*
X158884047Y-61176429D01*
X158922142Y-61024048D01*
X158922142Y-60909762D01*
X158884047Y-60757381D01*
X158845952Y-60681190D01*
X158769761Y-60605000D01*
X158655475Y-60566905D01*
X158579285Y-60566905D01*
X158464999Y-60605000D01*
X158426904Y-60643095D01*
X158084047Y-61366905D02*
X158084047Y-60566905D01*
X157741190Y-61138333D02*
X157360238Y-61138333D01*
X157817381Y-61366905D02*
X157550714Y-60566905D01*
X157284047Y-61366905D01*
X157093571Y-61671667D02*
X157055476Y-61633571D01*
X156979286Y-61519286D01*
X156941190Y-61443095D01*
X156903095Y-61328810D01*
X156865000Y-61138333D01*
X156865000Y-60985952D01*
X156903095Y-60795476D01*
X156941190Y-60681190D01*
X156979286Y-60605000D01*
X157055476Y-60490714D01*
X157093571Y-60452619D01*
X108559286Y-58538333D02*
X108178334Y-58538333D01*
X108635477Y-58766905D02*
X108368810Y-57966905D01*
X108102143Y-58766905D01*
X107835477Y-58766905D02*
X107835477Y-57966905D01*
X107645001Y-57966905D01*
X107530715Y-58005000D01*
X107454524Y-58081190D01*
X107416429Y-58157381D01*
X107378334Y-58309762D01*
X107378334Y-58424048D01*
X107416429Y-58576429D01*
X107454524Y-58652619D01*
X107530715Y-58728810D01*
X107645001Y-58766905D01*
X107835477Y-58766905D01*
X107035477Y-58766905D02*
X107035477Y-57966905D01*
X106845001Y-57966905D01*
X106730715Y-58005000D01*
X106654524Y-58081190D01*
X106616429Y-58157381D01*
X106578334Y-58309762D01*
X106578334Y-58424048D01*
X106616429Y-58576429D01*
X106654524Y-58652619D01*
X106730715Y-58728810D01*
X106845001Y-58766905D01*
X107035477Y-58766905D01*
X105778334Y-58766905D02*
X106045001Y-58385952D01*
X106235477Y-58766905D02*
X106235477Y-57966905D01*
X105930715Y-57966905D01*
X105854524Y-58005000D01*
X105816429Y-58043095D01*
X105778334Y-58119286D01*
X105778334Y-58233571D01*
X105816429Y-58309762D01*
X105854524Y-58347857D01*
X105930715Y-58385952D01*
X106235477Y-58385952D01*
X105435477Y-58347857D02*
X105168810Y-58347857D01*
X105054524Y-58766905D02*
X105435477Y-58766905D01*
X105435477Y-57966905D01*
X105054524Y-57966905D01*
X104749762Y-58728810D02*
X104635476Y-58766905D01*
X104445000Y-58766905D01*
X104368810Y-58728810D01*
X104330714Y-58690714D01*
X104292619Y-58614524D01*
X104292619Y-58538333D01*
X104330714Y-58462143D01*
X104368810Y-58424048D01*
X104445000Y-58385952D01*
X104597381Y-58347857D01*
X104673572Y-58309762D01*
X104711667Y-58271667D01*
X104749762Y-58195476D01*
X104749762Y-58119286D01*
X104711667Y-58043095D01*
X104673572Y-58005000D01*
X104597381Y-57966905D01*
X104406905Y-57966905D01*
X104292619Y-58005000D01*
X103987857Y-58728810D02*
X103873571Y-58766905D01*
X103683095Y-58766905D01*
X103606905Y-58728810D01*
X103568809Y-58690714D01*
X103530714Y-58614524D01*
X103530714Y-58538333D01*
X103568809Y-58462143D01*
X103606905Y-58424048D01*
X103683095Y-58385952D01*
X103835476Y-58347857D01*
X103911667Y-58309762D01*
X103949762Y-58271667D01*
X103987857Y-58195476D01*
X103987857Y-58119286D01*
X103949762Y-58043095D01*
X103911667Y-58005000D01*
X103835476Y-57966905D01*
X103645000Y-57966905D01*
X103530714Y-58005000D01*
X108597381Y-60066905D02*
X108597381Y-59266905D01*
X108406905Y-59266905D01*
X108292619Y-59305000D01*
X108216428Y-59381190D01*
X108178333Y-59457381D01*
X108140238Y-59609762D01*
X108140238Y-59724048D01*
X108178333Y-59876429D01*
X108216428Y-59952619D01*
X108292619Y-60028810D01*
X108406905Y-60066905D01*
X108597381Y-60066905D01*
X107797381Y-59647857D02*
X107530714Y-59647857D01*
X107416428Y-60066905D02*
X107797381Y-60066905D01*
X107797381Y-59266905D01*
X107416428Y-59266905D01*
X106616428Y-59990714D02*
X106654523Y-60028810D01*
X106768809Y-60066905D01*
X106844999Y-60066905D01*
X106959285Y-60028810D01*
X107035476Y-59952619D01*
X107073571Y-59876429D01*
X107111666Y-59724048D01*
X107111666Y-59609762D01*
X107073571Y-59457381D01*
X107035476Y-59381190D01*
X106959285Y-59305000D01*
X106844999Y-59266905D01*
X106768809Y-59266905D01*
X106654523Y-59305000D01*
X106616428Y-59343095D01*
X106121190Y-59266905D02*
X105968809Y-59266905D01*
X105892618Y-59305000D01*
X105816428Y-59381190D01*
X105778333Y-59533571D01*
X105778333Y-59800238D01*
X105816428Y-59952619D01*
X105892618Y-60028810D01*
X105968809Y-60066905D01*
X106121190Y-60066905D01*
X106197380Y-60028810D01*
X106273571Y-59952619D01*
X106311666Y-59800238D01*
X106311666Y-59533571D01*
X106273571Y-59381190D01*
X106197380Y-59305000D01*
X106121190Y-59266905D01*
X105435476Y-60066905D02*
X105435476Y-59266905D01*
X105245000Y-59266905D01*
X105130714Y-59305000D01*
X105054523Y-59381190D01*
X105016428Y-59457381D01*
X104978333Y-59609762D01*
X104978333Y-59724048D01*
X105016428Y-59876429D01*
X105054523Y-59952619D01*
X105130714Y-60028810D01*
X105245000Y-60066905D01*
X105435476Y-60066905D01*
X104635476Y-59647857D02*
X104368809Y-59647857D01*
X104254523Y-60066905D02*
X104635476Y-60066905D01*
X104635476Y-59266905D01*
X104254523Y-59266905D01*
X103454523Y-60066905D02*
X103721190Y-59685952D01*
X103911666Y-60066905D02*
X103911666Y-59266905D01*
X103606904Y-59266905D01*
X103530713Y-59305000D01*
X103492618Y-59343095D01*
X103454523Y-59419286D01*
X103454523Y-59533571D01*
X103492618Y-59609762D01*
X103530713Y-59647857D01*
X103606904Y-59685952D01*
X103911666Y-59685952D01*
X122256429Y-58766905D02*
X122256429Y-57966905D01*
X122256429Y-58347857D02*
X121799286Y-58347857D01*
X121799286Y-58766905D02*
X121799286Y-57966905D01*
X121418334Y-58347857D02*
X121151667Y-58347857D01*
X121037381Y-58766905D02*
X121418334Y-58766905D01*
X121418334Y-57966905D01*
X121037381Y-57966905D01*
X120770714Y-57966905D02*
X120237381Y-58766905D01*
X120237381Y-57966905D02*
X120770714Y-58766905D01*
X123875476Y-60066905D02*
X123875476Y-59266905D01*
X123494524Y-60066905D02*
X123494524Y-59266905D01*
X123037381Y-60066905D01*
X123037381Y-59266905D01*
X122770715Y-59266905D02*
X122504048Y-60066905D01*
X122237381Y-59266905D01*
X121970715Y-59647857D02*
X121704048Y-59647857D01*
X121589762Y-60066905D02*
X121970715Y-60066905D01*
X121970715Y-59266905D01*
X121589762Y-59266905D01*
X120789762Y-60066905D02*
X121056429Y-59685952D01*
X121246905Y-60066905D02*
X121246905Y-59266905D01*
X120942143Y-59266905D01*
X120865952Y-59305000D01*
X120827857Y-59343095D01*
X120789762Y-59419286D01*
X120789762Y-59533571D01*
X120827857Y-59609762D01*
X120865952Y-59647857D01*
X120942143Y-59685952D01*
X121246905Y-59685952D01*
X120561191Y-59266905D02*
X120104048Y-59266905D01*
X120332619Y-60066905D02*
X120332619Y-59266905D01*
X119837381Y-59647857D02*
X119570714Y-59647857D01*
X119456428Y-60066905D02*
X119837381Y-60066905D01*
X119837381Y-59266905D01*
X119456428Y-59266905D01*
X118656428Y-60066905D02*
X118923095Y-59685952D01*
X119113571Y-60066905D02*
X119113571Y-59266905D01*
X118808809Y-59266905D01*
X118732618Y-59305000D01*
X118694523Y-59343095D01*
X118656428Y-59419286D01*
X118656428Y-59533571D01*
X118694523Y-59609762D01*
X118732618Y-59647857D01*
X118808809Y-59685952D01*
X119113571Y-59685952D01*
D12*
X125095000Y-68580000D02*
X125095000Y-67310000D01*
X117475000Y-68580000D02*
X125095000Y-68580000D01*
X117475000Y-67310000D02*
X117475000Y-68580000D01*
X109855000Y-71120000D02*
X109855000Y-69850000D01*
X102235000Y-71120000D02*
X109855000Y-71120000D01*
X102235000Y-69850000D02*
X102235000Y-71120000D01*
X109855000Y-49530000D02*
X109855000Y-50800000D01*
X102235000Y-49530000D02*
X109855000Y-49530000D01*
X102235000Y-50800000D02*
X102235000Y-49530000D01*
X125095000Y-49530000D02*
X125095000Y-50800000D01*
X117475000Y-49530000D02*
X125095000Y-49530000D01*
X117475000Y-50800000D02*
X117475000Y-49530000D01*
X148590000Y-66675000D02*
X149860000Y-66675000D01*
X148590000Y-51435000D02*
X148590000Y-66675000D01*
X149860000Y-51435000D02*
X148590000Y-51435000D01*
X180340000Y-66675000D02*
X179070000Y-66675000D01*
X180340000Y-51435000D02*
X180340000Y-66675000D01*
X179070000Y-51435000D02*
X180340000Y-51435000D01*
X194310000Y-56515000D02*
X194310000Y-55245000D01*
X184150000Y-56515000D02*
X194310000Y-56515000D01*
X184150000Y-50165000D02*
X184150000Y-56515000D01*
X194310000Y-40005000D02*
X194310000Y-41275000D01*
X184150000Y-40005000D02*
X194310000Y-40005000D01*
X184150000Y-46355000D02*
X184150000Y-40005000D01*
D10*
X184207143Y-49040952D02*
X184207143Y-49307619D01*
X183788095Y-49307619D02*
X184588095Y-49307619D01*
X184588095Y-48926666D01*
X184588095Y-48736191D02*
X184588095Y-48279048D01*
X183788095Y-48507619D02*
X184588095Y-48507619D01*
X183788095Y-48012381D02*
X184588095Y-48012381D01*
X184588095Y-47821905D01*
X184550000Y-47707619D01*
X184473810Y-47631428D01*
X184397619Y-47593333D01*
X184245238Y-47555238D01*
X184130952Y-47555238D01*
X183978571Y-47593333D01*
X183902381Y-47631428D01*
X183826190Y-47707619D01*
X183788095Y-47821905D01*
X183788095Y-48012381D01*
X183788095Y-47212381D02*
X184588095Y-47212381D01*
X191693810Y-46551905D02*
X191427143Y-47351905D01*
X191160476Y-46551905D01*
X190436667Y-47275714D02*
X190474762Y-47313810D01*
X190589048Y-47351905D01*
X190665238Y-47351905D01*
X190779524Y-47313810D01*
X190855715Y-47237619D01*
X190893810Y-47161429D01*
X190931905Y-47009048D01*
X190931905Y-46894762D01*
X190893810Y-46742381D01*
X190855715Y-46666190D01*
X190779524Y-46590000D01*
X190665238Y-46551905D01*
X190589048Y-46551905D01*
X190474762Y-46590000D01*
X190436667Y-46628095D01*
X189636667Y-47275714D02*
X189674762Y-47313810D01*
X189789048Y-47351905D01*
X189865238Y-47351905D01*
X189979524Y-47313810D01*
X190055715Y-47237619D01*
X190093810Y-47161429D01*
X190131905Y-47009048D01*
X190131905Y-46894762D01*
X190093810Y-46742381D01*
X190055715Y-46666190D01*
X189979524Y-46590000D01*
X189865238Y-46551905D01*
X189789048Y-46551905D01*
X189674762Y-46590000D01*
X189636667Y-46628095D01*
X191160476Y-41510000D02*
X191236667Y-41471905D01*
X191350952Y-41471905D01*
X191465238Y-41510000D01*
X191541429Y-41586190D01*
X191579524Y-41662381D01*
X191617619Y-41814762D01*
X191617619Y-41929048D01*
X191579524Y-42081429D01*
X191541429Y-42157619D01*
X191465238Y-42233810D01*
X191350952Y-42271905D01*
X191274762Y-42271905D01*
X191160476Y-42233810D01*
X191122381Y-42195714D01*
X191122381Y-41929048D01*
X191274762Y-41929048D01*
X190322381Y-42271905D02*
X190589048Y-41890952D01*
X190779524Y-42271905D02*
X190779524Y-41471905D01*
X190474762Y-41471905D01*
X190398571Y-41510000D01*
X190360476Y-41548095D01*
X190322381Y-41624286D01*
X190322381Y-41738571D01*
X190360476Y-41814762D01*
X190398571Y-41852857D01*
X190474762Y-41890952D01*
X190779524Y-41890952D01*
X189827143Y-41471905D02*
X189674762Y-41471905D01*
X189598571Y-41510000D01*
X189522381Y-41586190D01*
X189484286Y-41738571D01*
X189484286Y-42005238D01*
X189522381Y-42157619D01*
X189598571Y-42233810D01*
X189674762Y-42271905D01*
X189827143Y-42271905D01*
X189903333Y-42233810D01*
X189979524Y-42157619D01*
X190017619Y-42005238D01*
X190017619Y-41738571D01*
X189979524Y-41586190D01*
X189903333Y-41510000D01*
X189827143Y-41471905D01*
X189141429Y-41471905D02*
X189141429Y-42119524D01*
X189103334Y-42195714D01*
X189065238Y-42233810D01*
X188989048Y-42271905D01*
X188836667Y-42271905D01*
X188760476Y-42233810D01*
X188722381Y-42195714D01*
X188684286Y-42119524D01*
X188684286Y-41471905D01*
X188303334Y-42271905D02*
X188303334Y-41471905D01*
X187846191Y-42271905D01*
X187846191Y-41471905D01*
X187465239Y-42271905D02*
X187465239Y-41471905D01*
X187274763Y-41471905D01*
X187160477Y-41510000D01*
X187084286Y-41586190D01*
X187046191Y-41662381D01*
X187008096Y-41814762D01*
X187008096Y-41929048D01*
X187046191Y-42081429D01*
X187084286Y-42157619D01*
X187160477Y-42233810D01*
X187274763Y-42271905D01*
X187465239Y-42271905D01*
X191122381Y-54321905D02*
X191389048Y-53940952D01*
X191579524Y-54321905D02*
X191579524Y-53521905D01*
X191274762Y-53521905D01*
X191198571Y-53560000D01*
X191160476Y-53598095D01*
X191122381Y-53674286D01*
X191122381Y-53788571D01*
X191160476Y-53864762D01*
X191198571Y-53902857D01*
X191274762Y-53940952D01*
X191579524Y-53940952D01*
X190779524Y-53902857D02*
X190512857Y-53902857D01*
X190398571Y-54321905D02*
X190779524Y-54321905D01*
X190779524Y-53521905D01*
X190398571Y-53521905D01*
X189522380Y-54398095D02*
X189598571Y-54360000D01*
X189674761Y-54283810D01*
X189789047Y-54169524D01*
X189865238Y-54131429D01*
X189941428Y-54131429D01*
X189903333Y-54321905D02*
X189979523Y-54283810D01*
X190055714Y-54207619D01*
X190093809Y-54055238D01*
X190093809Y-53788571D01*
X190055714Y-53636190D01*
X189979523Y-53560000D01*
X189903333Y-53521905D01*
X189750952Y-53521905D01*
X189674761Y-53560000D01*
X189598571Y-53636190D01*
X189560476Y-53788571D01*
X189560476Y-54055238D01*
X189598571Y-54207619D01*
X189674761Y-54283810D01*
X189750952Y-54321905D01*
X189903333Y-54321905D01*
X189217619Y-53521905D02*
X189217619Y-54169524D01*
X189179524Y-54245714D01*
X189141428Y-54283810D01*
X189065238Y-54321905D01*
X188912857Y-54321905D01*
X188836666Y-54283810D01*
X188798571Y-54245714D01*
X188760476Y-54169524D01*
X188760476Y-53521905D01*
X188379524Y-53902857D02*
X188112857Y-53902857D01*
X187998571Y-54321905D02*
X188379524Y-54321905D01*
X188379524Y-53521905D01*
X187998571Y-53521905D01*
X187693809Y-54283810D02*
X187579523Y-54321905D01*
X187389047Y-54321905D01*
X187312857Y-54283810D01*
X187274761Y-54245714D01*
X187236666Y-54169524D01*
X187236666Y-54093333D01*
X187274761Y-54017143D01*
X187312857Y-53979048D01*
X187389047Y-53940952D01*
X187541428Y-53902857D01*
X187617619Y-53864762D01*
X187655714Y-53826667D01*
X187693809Y-53750476D01*
X187693809Y-53674286D01*
X187655714Y-53598095D01*
X187617619Y-53560000D01*
X187541428Y-53521905D01*
X187350952Y-53521905D01*
X187236666Y-53560000D01*
X187008095Y-53521905D02*
X186550952Y-53521905D01*
X186779523Y-54321905D02*
X186779523Y-53521905D01*
X191693810Y-54821905D02*
X191236667Y-54821905D01*
X191465238Y-55621905D02*
X191465238Y-54821905D01*
X190817619Y-54821905D02*
X190665238Y-54821905D01*
X190589047Y-54860000D01*
X190512857Y-54936190D01*
X190474762Y-55088571D01*
X190474762Y-55355238D01*
X190512857Y-55507619D01*
X190589047Y-55583810D01*
X190665238Y-55621905D01*
X190817619Y-55621905D01*
X190893809Y-55583810D01*
X190970000Y-55507619D01*
X191008095Y-55355238D01*
X191008095Y-55088571D01*
X190970000Y-54936190D01*
X190893809Y-54860000D01*
X190817619Y-54821905D01*
X189560476Y-55583810D02*
X189446190Y-55621905D01*
X189255714Y-55621905D01*
X189179524Y-55583810D01*
X189141428Y-55545714D01*
X189103333Y-55469524D01*
X189103333Y-55393333D01*
X189141428Y-55317143D01*
X189179524Y-55279048D01*
X189255714Y-55240952D01*
X189408095Y-55202857D01*
X189484286Y-55164762D01*
X189522381Y-55126667D01*
X189560476Y-55050476D01*
X189560476Y-54974286D01*
X189522381Y-54898095D01*
X189484286Y-54860000D01*
X189408095Y-54821905D01*
X189217619Y-54821905D01*
X189103333Y-54860000D01*
X188760476Y-55202857D02*
X188493809Y-55202857D01*
X188379523Y-55621905D02*
X188760476Y-55621905D01*
X188760476Y-54821905D01*
X188379523Y-54821905D01*
X188036666Y-55621905D02*
X188036666Y-54821905D01*
X187579523Y-55621905D01*
X187579523Y-54821905D01*
X187198571Y-55621905D02*
X187198571Y-54821905D01*
X187008095Y-54821905D01*
X186893809Y-54860000D01*
X186817618Y-54936190D01*
X186779523Y-55012381D01*
X186741428Y-55164762D01*
X186741428Y-55279048D01*
X186779523Y-55431429D01*
X186817618Y-55507619D01*
X186893809Y-55583810D01*
X187008095Y-55621905D01*
X187198571Y-55621905D01*
X191122381Y-44085714D02*
X191160476Y-44123810D01*
X191274762Y-44161905D01*
X191350952Y-44161905D01*
X191465238Y-44123810D01*
X191541429Y-44047619D01*
X191579524Y-43971429D01*
X191617619Y-43819048D01*
X191617619Y-43704762D01*
X191579524Y-43552381D01*
X191541429Y-43476190D01*
X191465238Y-43400000D01*
X191350952Y-43361905D01*
X191274762Y-43361905D01*
X191160476Y-43400000D01*
X191122381Y-43438095D01*
X190398571Y-44161905D02*
X190779524Y-44161905D01*
X190779524Y-43361905D01*
X190131905Y-43742857D02*
X189865238Y-43742857D01*
X189750952Y-44161905D02*
X190131905Y-44161905D01*
X190131905Y-43361905D01*
X189750952Y-43361905D01*
X189446190Y-43933333D02*
X189065238Y-43933333D01*
X189522381Y-44161905D02*
X189255714Y-43361905D01*
X188989047Y-44161905D01*
X188265238Y-44161905D02*
X188531905Y-43780952D01*
X188722381Y-44161905D02*
X188722381Y-43361905D01*
X188417619Y-43361905D01*
X188341428Y-43400000D01*
X188303333Y-43438095D01*
X188265238Y-43514286D01*
X188265238Y-43628571D01*
X188303333Y-43704762D01*
X188341428Y-43742857D01*
X188417619Y-43780952D01*
X188722381Y-43780952D01*
X191693810Y-44661905D02*
X191236667Y-44661905D01*
X191465238Y-45461905D02*
X191465238Y-44661905D01*
X190817619Y-44661905D02*
X190665238Y-44661905D01*
X190589047Y-44700000D01*
X190512857Y-44776190D01*
X190474762Y-44928571D01*
X190474762Y-45195238D01*
X190512857Y-45347619D01*
X190589047Y-45423810D01*
X190665238Y-45461905D01*
X190817619Y-45461905D01*
X190893809Y-45423810D01*
X190970000Y-45347619D01*
X191008095Y-45195238D01*
X191008095Y-44928571D01*
X190970000Y-44776190D01*
X190893809Y-44700000D01*
X190817619Y-44661905D01*
X189560476Y-45423810D02*
X189446190Y-45461905D01*
X189255714Y-45461905D01*
X189179524Y-45423810D01*
X189141428Y-45385714D01*
X189103333Y-45309524D01*
X189103333Y-45233333D01*
X189141428Y-45157143D01*
X189179524Y-45119048D01*
X189255714Y-45080952D01*
X189408095Y-45042857D01*
X189484286Y-45004762D01*
X189522381Y-44966667D01*
X189560476Y-44890476D01*
X189560476Y-44814286D01*
X189522381Y-44738095D01*
X189484286Y-44700000D01*
X189408095Y-44661905D01*
X189217619Y-44661905D01*
X189103333Y-44700000D01*
X188760476Y-45042857D02*
X188493809Y-45042857D01*
X188379523Y-45461905D02*
X188760476Y-45461905D01*
X188760476Y-44661905D01*
X188379523Y-44661905D01*
X188036666Y-45461905D02*
X188036666Y-44661905D01*
X187579523Y-45461905D01*
X187579523Y-44661905D01*
X187198571Y-45461905D02*
X187198571Y-44661905D01*
X187008095Y-44661905D01*
X186893809Y-44700000D01*
X186817618Y-44776190D01*
X186779523Y-44852381D01*
X186741428Y-45004762D01*
X186741428Y-45119048D01*
X186779523Y-45271429D01*
X186817618Y-45347619D01*
X186893809Y-45423810D01*
X187008095Y-45461905D01*
X187198571Y-45461905D01*
X191693810Y-49091905D02*
X191236667Y-49091905D01*
X191465238Y-49891905D02*
X191465238Y-49091905D01*
X191046190Y-49091905D02*
X190512857Y-49891905D01*
X190512857Y-49091905D02*
X191046190Y-49891905D01*
X189598571Y-49891905D02*
X189598571Y-49091905D01*
X189408095Y-49091905D01*
X189293809Y-49130000D01*
X189217618Y-49206190D01*
X189179523Y-49282381D01*
X189141428Y-49434762D01*
X189141428Y-49549048D01*
X189179523Y-49701429D01*
X189217618Y-49777619D01*
X189293809Y-49853810D01*
X189408095Y-49891905D01*
X189598571Y-49891905D01*
X188798571Y-49472857D02*
X188531904Y-49472857D01*
X188417618Y-49891905D02*
X188798571Y-49891905D01*
X188798571Y-49091905D01*
X188417618Y-49091905D01*
X188189047Y-49091905D02*
X187922380Y-49891905D01*
X187655713Y-49091905D01*
X187389047Y-49891905D02*
X187389047Y-49091905D01*
X186550952Y-49815714D02*
X186589047Y-49853810D01*
X186703333Y-49891905D01*
X186779523Y-49891905D01*
X186893809Y-49853810D01*
X186970000Y-49777619D01*
X187008095Y-49701429D01*
X187046190Y-49549048D01*
X187046190Y-49434762D01*
X187008095Y-49282381D01*
X186970000Y-49206190D01*
X186893809Y-49130000D01*
X186779523Y-49091905D01*
X186703333Y-49091905D01*
X186589047Y-49130000D01*
X186550952Y-49168095D01*
X186208095Y-49472857D02*
X185941428Y-49472857D01*
X185827142Y-49891905D02*
X186208095Y-49891905D01*
X186208095Y-49091905D01*
X185827142Y-49091905D01*
X191122381Y-52431905D02*
X191389048Y-52050952D01*
X191579524Y-52431905D02*
X191579524Y-51631905D01*
X191274762Y-51631905D01*
X191198571Y-51670000D01*
X191160476Y-51708095D01*
X191122381Y-51784286D01*
X191122381Y-51898571D01*
X191160476Y-51974762D01*
X191198571Y-52012857D01*
X191274762Y-52050952D01*
X191579524Y-52050952D01*
X190855714Y-51631905D02*
X190322381Y-52431905D01*
X190322381Y-51631905D02*
X190855714Y-52431905D01*
X189408095Y-52431905D02*
X189408095Y-51631905D01*
X189217619Y-51631905D01*
X189103333Y-51670000D01*
X189027142Y-51746190D01*
X188989047Y-51822381D01*
X188950952Y-51974762D01*
X188950952Y-52089048D01*
X188989047Y-52241429D01*
X189027142Y-52317619D01*
X189103333Y-52393810D01*
X189217619Y-52431905D01*
X189408095Y-52431905D01*
X188608095Y-52012857D02*
X188341428Y-52012857D01*
X188227142Y-52431905D02*
X188608095Y-52431905D01*
X188608095Y-51631905D01*
X188227142Y-51631905D01*
X187998571Y-51631905D02*
X187731904Y-52431905D01*
X187465237Y-51631905D01*
X187198571Y-52431905D02*
X187198571Y-51631905D01*
X186360476Y-52355714D02*
X186398571Y-52393810D01*
X186512857Y-52431905D01*
X186589047Y-52431905D01*
X186703333Y-52393810D01*
X186779524Y-52317619D01*
X186817619Y-52241429D01*
X186855714Y-52089048D01*
X186855714Y-51974762D01*
X186817619Y-51822381D01*
X186779524Y-51746190D01*
X186703333Y-51670000D01*
X186589047Y-51631905D01*
X186512857Y-51631905D01*
X186398571Y-51670000D01*
X186360476Y-51708095D01*
X186017619Y-52012857D02*
X185750952Y-52012857D01*
X185636666Y-52431905D02*
X186017619Y-52431905D01*
X186017619Y-51631905D01*
X185636666Y-51631905D01*
D12*
X163195000Y-50165000D02*
X163195000Y-48895000D01*
X154305000Y-50165000D02*
X163195000Y-50165000D01*
X180975000Y-50165000D02*
X180975000Y-48895000D01*
X172085000Y-50165000D02*
X180975000Y-50165000D01*
D10*
X181032143Y-47770952D02*
X181032143Y-48037619D01*
X180613095Y-48037619D02*
X181413095Y-48037619D01*
X181413095Y-47656666D01*
X181413095Y-47466191D02*
X181413095Y-47009048D01*
X180613095Y-47237619D02*
X181413095Y-47237619D01*
X180613095Y-46742381D02*
X181413095Y-46742381D01*
X181413095Y-46551905D01*
X181375000Y-46437619D01*
X181298810Y-46361428D01*
X181222619Y-46323333D01*
X181070238Y-46285238D01*
X180955952Y-46285238D01*
X180803571Y-46323333D01*
X180727381Y-46361428D01*
X180651190Y-46437619D01*
X180613095Y-46551905D01*
X180613095Y-46742381D01*
X180613095Y-45942381D02*
X181413095Y-45942381D01*
D12*
X156845000Y-40005000D02*
X156210000Y-40005000D01*
X156845000Y-37465000D02*
X156845000Y-40005000D01*
X156210000Y-37465000D02*
X156845000Y-37465000D01*
X179705000Y-49530000D02*
X179705000Y-41910000D01*
X177165000Y-41910000D02*
X177165000Y-49530000D01*
X174625000Y-49530000D02*
X174625000Y-41910000D01*
X172085000Y-41910000D02*
X172085000Y-49530000D01*
D10*
X173158095Y-49187143D02*
X173158095Y-49034762D01*
X173120000Y-48958571D01*
X173043810Y-48882381D01*
X172891429Y-48844286D01*
X172624762Y-48844286D01*
X172472381Y-48882381D01*
X172396190Y-48958571D01*
X172358095Y-49034762D01*
X172358095Y-49187143D01*
X172396190Y-49263333D01*
X172472381Y-49339524D01*
X172624762Y-49377619D01*
X172891429Y-49377619D01*
X173043810Y-49339524D01*
X173120000Y-49263333D01*
X173158095Y-49187143D01*
X172358095Y-48501429D02*
X173158095Y-48501429D01*
X172358095Y-48044286D01*
X173158095Y-48044286D01*
X172358095Y-46596667D02*
X172739048Y-46863334D01*
X172358095Y-47053810D02*
X173158095Y-47053810D01*
X173158095Y-46749048D01*
X173120000Y-46672857D01*
X173081905Y-46634762D01*
X173005714Y-46596667D01*
X172891429Y-46596667D01*
X172815238Y-46634762D01*
X172777143Y-46672857D01*
X172739048Y-46749048D01*
X172739048Y-47053810D01*
X172777143Y-46253810D02*
X172777143Y-45987143D01*
X172358095Y-45872857D02*
X172358095Y-46253810D01*
X173158095Y-46253810D01*
X173158095Y-45872857D01*
X172434286Y-45072857D02*
X172396190Y-45110952D01*
X172358095Y-45225238D01*
X172358095Y-45301428D01*
X172396190Y-45415714D01*
X172472381Y-45491905D01*
X172548571Y-45530000D01*
X172700952Y-45568095D01*
X172815238Y-45568095D01*
X172967619Y-45530000D01*
X173043810Y-45491905D01*
X173120000Y-45415714D01*
X173158095Y-45301428D01*
X173158095Y-45225238D01*
X173120000Y-45110952D01*
X173081905Y-45072857D01*
X172777143Y-44730000D02*
X172777143Y-44463333D01*
X172358095Y-44349047D02*
X172358095Y-44730000D01*
X173158095Y-44730000D01*
X173158095Y-44349047D01*
X172358095Y-44006190D02*
X173158095Y-44006190D01*
X173158095Y-43739524D02*
X172358095Y-43472857D01*
X173158095Y-43206190D01*
X172777143Y-42939524D02*
X172777143Y-42672857D01*
X172358095Y-42558571D02*
X172358095Y-42939524D01*
X173158095Y-42939524D01*
X173158095Y-42558571D01*
X174047143Y-49339524D02*
X174047143Y-49072857D01*
X173628095Y-48958571D02*
X173628095Y-49339524D01*
X174428095Y-49339524D01*
X174428095Y-48958571D01*
X173628095Y-48615714D02*
X174428095Y-48615714D01*
X173628095Y-48158571D01*
X174428095Y-48158571D01*
X173856667Y-47815714D02*
X173856667Y-47434762D01*
X173628095Y-47891905D02*
X174428095Y-47625238D01*
X173628095Y-47358571D01*
X174047143Y-46825238D02*
X174009048Y-46710952D01*
X173970952Y-46672857D01*
X173894762Y-46634762D01*
X173780476Y-46634762D01*
X173704286Y-46672857D01*
X173666190Y-46710952D01*
X173628095Y-46787143D01*
X173628095Y-47091905D01*
X174428095Y-47091905D01*
X174428095Y-46825238D01*
X174390000Y-46749048D01*
X174351905Y-46710952D01*
X174275714Y-46672857D01*
X174199524Y-46672857D01*
X174123333Y-46710952D01*
X174085238Y-46749048D01*
X174047143Y-46825238D01*
X174047143Y-47091905D01*
X173628095Y-45910952D02*
X173628095Y-46291905D01*
X174428095Y-46291905D01*
X174047143Y-45644286D02*
X174047143Y-45377619D01*
X173628095Y-45263333D02*
X173628095Y-45644286D01*
X174428095Y-45644286D01*
X174428095Y-45263333D01*
X173628095Y-44310952D02*
X174428095Y-44310952D01*
X173628095Y-43472857D02*
X174009048Y-43739524D01*
X173628095Y-43930000D02*
X174428095Y-43930000D01*
X174428095Y-43625238D01*
X174390000Y-43549047D01*
X174351905Y-43510952D01*
X174275714Y-43472857D01*
X174161429Y-43472857D01*
X174085238Y-43510952D01*
X174047143Y-43549047D01*
X174009048Y-43625238D01*
X174009048Y-43930000D01*
X173551905Y-42596666D02*
X173590000Y-42672857D01*
X173666190Y-42749047D01*
X173780476Y-42863333D01*
X173818571Y-42939524D01*
X173818571Y-43015714D01*
X173628095Y-42977619D02*
X173666190Y-43053809D01*
X173742381Y-43130000D01*
X173894762Y-43168095D01*
X174161429Y-43168095D01*
X174313810Y-43130000D01*
X174390000Y-43053809D01*
X174428095Y-42977619D01*
X174428095Y-42825238D01*
X174390000Y-42749047D01*
X174313810Y-42672857D01*
X174161429Y-42634762D01*
X173894762Y-42634762D01*
X173742381Y-42672857D01*
X173666190Y-42749047D01*
X173628095Y-42825238D01*
X173628095Y-42977619D01*
X178708095Y-49339524D02*
X179508095Y-49339524D01*
X179508095Y-49034762D01*
X179470000Y-48958571D01*
X179431905Y-48920476D01*
X179355714Y-48882381D01*
X179241429Y-48882381D01*
X179165238Y-48920476D01*
X179127143Y-48958571D01*
X179089048Y-49034762D01*
X179089048Y-49339524D01*
X179508095Y-48387143D02*
X179508095Y-48234762D01*
X179470000Y-48158571D01*
X179393810Y-48082381D01*
X179241429Y-48044286D01*
X178974762Y-48044286D01*
X178822381Y-48082381D01*
X178746190Y-48158571D01*
X178708095Y-48234762D01*
X178708095Y-48387143D01*
X178746190Y-48463333D01*
X178822381Y-48539524D01*
X178974762Y-48577619D01*
X179241429Y-48577619D01*
X179393810Y-48539524D01*
X179470000Y-48463333D01*
X179508095Y-48387143D01*
X179508095Y-47777619D02*
X178708095Y-47587143D01*
X179279524Y-47434762D01*
X178708095Y-47282381D01*
X179508095Y-47091905D01*
X179127143Y-46787143D02*
X179127143Y-46520476D01*
X178708095Y-46406190D02*
X178708095Y-46787143D01*
X179508095Y-46787143D01*
X179508095Y-46406190D01*
X178708095Y-45606190D02*
X179089048Y-45872857D01*
X178708095Y-46063333D02*
X179508095Y-46063333D01*
X179508095Y-45758571D01*
X179470000Y-45682380D01*
X179431905Y-45644285D01*
X179355714Y-45606190D01*
X179241429Y-45606190D01*
X179165238Y-45644285D01*
X179127143Y-45682380D01*
X179089048Y-45758571D01*
X179089048Y-46063333D01*
X177857143Y-49072857D02*
X177857143Y-49339524D01*
X177438095Y-49339524D02*
X178238095Y-49339524D01*
X178238095Y-48958571D01*
X177438095Y-48196667D02*
X177819048Y-48463334D01*
X177438095Y-48653810D02*
X178238095Y-48653810D01*
X178238095Y-48349048D01*
X178200000Y-48272857D01*
X178161905Y-48234762D01*
X178085714Y-48196667D01*
X177971429Y-48196667D01*
X177895238Y-48234762D01*
X177857143Y-48272857D01*
X177819048Y-48349048D01*
X177819048Y-48653810D01*
X178238095Y-47701429D02*
X178238095Y-47549048D01*
X178200000Y-47472857D01*
X178123810Y-47396667D01*
X177971429Y-47358572D01*
X177704762Y-47358572D01*
X177552381Y-47396667D01*
X177476190Y-47472857D01*
X177438095Y-47549048D01*
X177438095Y-47701429D01*
X177476190Y-47777619D01*
X177552381Y-47853810D01*
X177704762Y-47891905D01*
X177971429Y-47891905D01*
X178123810Y-47853810D01*
X178200000Y-47777619D01*
X178238095Y-47701429D01*
X177438095Y-47015715D02*
X178238095Y-47015715D01*
X177666667Y-46749048D01*
X178238095Y-46482381D01*
X177438095Y-46482381D01*
X178238095Y-45491905D02*
X177590476Y-45491905D01*
X177514286Y-45453810D01*
X177476190Y-45415714D01*
X177438095Y-45339524D01*
X177438095Y-45187143D01*
X177476190Y-45110952D01*
X177514286Y-45072857D01*
X177590476Y-45034762D01*
X178238095Y-45034762D01*
X177476190Y-44691905D02*
X177438095Y-44577619D01*
X177438095Y-44387143D01*
X177476190Y-44310953D01*
X177514286Y-44272857D01*
X177590476Y-44234762D01*
X177666667Y-44234762D01*
X177742857Y-44272857D01*
X177780952Y-44310953D01*
X177819048Y-44387143D01*
X177857143Y-44539524D01*
X177895238Y-44615715D01*
X177933333Y-44653810D01*
X178009524Y-44691905D01*
X178085714Y-44691905D01*
X178161905Y-44653810D01*
X178200000Y-44615715D01*
X178238095Y-44539524D01*
X178238095Y-44349048D01*
X178200000Y-44234762D01*
X177857143Y-43625238D02*
X177819048Y-43510952D01*
X177780952Y-43472857D01*
X177704762Y-43434762D01*
X177590476Y-43434762D01*
X177514286Y-43472857D01*
X177476190Y-43510952D01*
X177438095Y-43587143D01*
X177438095Y-43891905D01*
X178238095Y-43891905D01*
X178238095Y-43625238D01*
X178200000Y-43549048D01*
X178161905Y-43510952D01*
X178085714Y-43472857D01*
X178009524Y-43472857D01*
X177933333Y-43510952D01*
X177895238Y-43549048D01*
X177857143Y-43625238D01*
X177857143Y-43891905D01*
X163633095Y-47980477D02*
X163633095Y-48132858D01*
X163595000Y-48209048D01*
X163556905Y-48247143D01*
X163442619Y-48323334D01*
X163290238Y-48361429D01*
X162985476Y-48361429D01*
X162909286Y-48323334D01*
X162871190Y-48285239D01*
X162833095Y-48209048D01*
X162833095Y-48056667D01*
X162871190Y-47980477D01*
X162909286Y-47942381D01*
X162985476Y-47904286D01*
X163175952Y-47904286D01*
X163252143Y-47942381D01*
X163290238Y-47980477D01*
X163328333Y-48056667D01*
X163328333Y-48209048D01*
X163290238Y-48285239D01*
X163252143Y-48323334D01*
X163175952Y-48361429D01*
X163290238Y-47447143D02*
X163328333Y-47523334D01*
X163366429Y-47561429D01*
X163442619Y-47599524D01*
X163480714Y-47599524D01*
X163556905Y-47561429D01*
X163595000Y-47523334D01*
X163633095Y-47447143D01*
X163633095Y-47294762D01*
X163595000Y-47218572D01*
X163556905Y-47180476D01*
X163480714Y-47142381D01*
X163442619Y-47142381D01*
X163366429Y-47180476D01*
X163328333Y-47218572D01*
X163290238Y-47294762D01*
X163290238Y-47447143D01*
X163252143Y-47523334D01*
X163214048Y-47561429D01*
X163137857Y-47599524D01*
X162985476Y-47599524D01*
X162909286Y-47561429D01*
X162871190Y-47523334D01*
X162833095Y-47447143D01*
X162833095Y-47294762D01*
X162871190Y-47218572D01*
X162909286Y-47180476D01*
X162985476Y-47142381D01*
X163137857Y-47142381D01*
X163214048Y-47180476D01*
X163252143Y-47218572D01*
X163290238Y-47294762D01*
X163633095Y-46418571D02*
X163633095Y-46799524D01*
X163252143Y-46837619D01*
X163290238Y-46799524D01*
X163328333Y-46723333D01*
X163328333Y-46532857D01*
X163290238Y-46456667D01*
X163252143Y-46418571D01*
X163175952Y-46380476D01*
X162985476Y-46380476D01*
X162909286Y-46418571D01*
X162871190Y-46456667D01*
X162833095Y-46532857D01*
X162833095Y-46723333D01*
X162871190Y-46799524D01*
X162909286Y-46837619D01*
X163633095Y-45885238D02*
X163633095Y-45809047D01*
X163595000Y-45732857D01*
X163556905Y-45694762D01*
X163480714Y-45656666D01*
X163328333Y-45618571D01*
X163137857Y-45618571D01*
X162985476Y-45656666D01*
X162909286Y-45694762D01*
X162871190Y-45732857D01*
X162833095Y-45809047D01*
X162833095Y-45885238D01*
X162871190Y-45961428D01*
X162909286Y-45999524D01*
X162985476Y-46037619D01*
X163137857Y-46075714D01*
X163328333Y-46075714D01*
X163480714Y-46037619D01*
X163556905Y-45999524D01*
X163595000Y-45961428D01*
X163633095Y-45885238D01*
X159696190Y-49377619D02*
X159658095Y-49263333D01*
X159658095Y-49072857D01*
X159696190Y-48996667D01*
X159734286Y-48958571D01*
X159810476Y-48920476D01*
X159886667Y-48920476D01*
X159962857Y-48958571D01*
X160000952Y-48996667D01*
X160039048Y-49072857D01*
X160077143Y-49225238D01*
X160115238Y-49301429D01*
X160153333Y-49339524D01*
X160229524Y-49377619D01*
X160305714Y-49377619D01*
X160381905Y-49339524D01*
X160420000Y-49301429D01*
X160458095Y-49225238D01*
X160458095Y-49034762D01*
X160420000Y-48920476D01*
X160077143Y-48577619D02*
X160077143Y-48310952D01*
X159658095Y-48196666D02*
X159658095Y-48577619D01*
X160458095Y-48577619D01*
X160458095Y-48196666D01*
X159658095Y-47472856D02*
X159658095Y-47853809D01*
X160458095Y-47853809D01*
X160077143Y-47206190D02*
X160077143Y-46939523D01*
X159658095Y-46825237D02*
X159658095Y-47206190D01*
X160458095Y-47206190D01*
X160458095Y-46825237D01*
X159734286Y-46025237D02*
X159696190Y-46063332D01*
X159658095Y-46177618D01*
X159658095Y-46253808D01*
X159696190Y-46368094D01*
X159772381Y-46444285D01*
X159848571Y-46482380D01*
X160000952Y-46520475D01*
X160115238Y-46520475D01*
X160267619Y-46482380D01*
X160343810Y-46444285D01*
X160420000Y-46368094D01*
X160458095Y-46253808D01*
X160458095Y-46177618D01*
X160420000Y-46063332D01*
X160381905Y-46025237D01*
X160458095Y-45796666D02*
X160458095Y-45339523D01*
X159658095Y-45568094D02*
X160458095Y-45568094D01*
X160928095Y-49339524D02*
X161728095Y-49339524D01*
X160928095Y-48501429D02*
X161309048Y-48768096D01*
X160928095Y-48958572D02*
X161728095Y-48958572D01*
X161728095Y-48653810D01*
X161690000Y-48577619D01*
X161651905Y-48539524D01*
X161575714Y-48501429D01*
X161461429Y-48501429D01*
X161385238Y-48539524D01*
X161347143Y-48577619D01*
X161309048Y-48653810D01*
X161309048Y-48958572D01*
X160851905Y-47625238D02*
X160890000Y-47701429D01*
X160966190Y-47777619D01*
X161080476Y-47891905D01*
X161118571Y-47968096D01*
X161118571Y-48044286D01*
X160928095Y-48006191D02*
X160966190Y-48082381D01*
X161042381Y-48158572D01*
X161194762Y-48196667D01*
X161461429Y-48196667D01*
X161613810Y-48158572D01*
X161690000Y-48082381D01*
X161728095Y-48006191D01*
X161728095Y-47853810D01*
X161690000Y-47777619D01*
X161613810Y-47701429D01*
X161461429Y-47663334D01*
X161194762Y-47663334D01*
X161042381Y-47701429D01*
X160966190Y-47777619D01*
X160928095Y-47853810D01*
X160928095Y-48006191D01*
X161728095Y-46558572D02*
X161728095Y-46406191D01*
X161690000Y-46330000D01*
X161613810Y-46253810D01*
X161461429Y-46215715D01*
X161194762Y-46215715D01*
X161042381Y-46253810D01*
X160966190Y-46330000D01*
X160928095Y-46406191D01*
X160928095Y-46558572D01*
X160966190Y-46634762D01*
X161042381Y-46710953D01*
X161194762Y-46749048D01*
X161461429Y-46749048D01*
X161613810Y-46710953D01*
X161690000Y-46634762D01*
X161728095Y-46558572D01*
X161728095Y-45872858D02*
X161080476Y-45872858D01*
X161004286Y-45834763D01*
X160966190Y-45796667D01*
X160928095Y-45720477D01*
X160928095Y-45568096D01*
X160966190Y-45491905D01*
X161004286Y-45453810D01*
X161080476Y-45415715D01*
X161728095Y-45415715D01*
X161728095Y-45149049D02*
X161728095Y-44691906D01*
X160928095Y-44920477D02*
X161728095Y-44920477D01*
D12*
X161925000Y-49530000D02*
X161925000Y-44450000D01*
X159385000Y-44450000D02*
X159385000Y-49530000D01*
D10*
X154616190Y-49377619D02*
X154578095Y-49263333D01*
X154578095Y-49072857D01*
X154616190Y-48996667D01*
X154654286Y-48958571D01*
X154730476Y-48920476D01*
X154806667Y-48920476D01*
X154882857Y-48958571D01*
X154920952Y-48996667D01*
X154959048Y-49072857D01*
X154997143Y-49225238D01*
X155035238Y-49301429D01*
X155073333Y-49339524D01*
X155149524Y-49377619D01*
X155225714Y-49377619D01*
X155301905Y-49339524D01*
X155340000Y-49301429D01*
X155378095Y-49225238D01*
X155378095Y-49034762D01*
X155340000Y-48920476D01*
X154997143Y-48577619D02*
X154997143Y-48310952D01*
X154578095Y-48196666D02*
X154578095Y-48577619D01*
X155378095Y-48577619D01*
X155378095Y-48196666D01*
X154578095Y-47472856D02*
X154578095Y-47853809D01*
X155378095Y-47853809D01*
X154997143Y-47206190D02*
X154997143Y-46939523D01*
X154578095Y-46825237D02*
X154578095Y-47206190D01*
X155378095Y-47206190D01*
X155378095Y-46825237D01*
X154654286Y-46025237D02*
X154616190Y-46063332D01*
X154578095Y-46177618D01*
X154578095Y-46253808D01*
X154616190Y-46368094D01*
X154692381Y-46444285D01*
X154768571Y-46482380D01*
X154920952Y-46520475D01*
X155035238Y-46520475D01*
X155187619Y-46482380D01*
X155263810Y-46444285D01*
X155340000Y-46368094D01*
X155378095Y-46253808D01*
X155378095Y-46177618D01*
X155340000Y-46063332D01*
X155301905Y-46025237D01*
X155378095Y-45796666D02*
X155378095Y-45339523D01*
X154578095Y-45568094D02*
X155378095Y-45568094D01*
X155924286Y-48882381D02*
X155886190Y-48920476D01*
X155848095Y-49034762D01*
X155848095Y-49110952D01*
X155886190Y-49225238D01*
X155962381Y-49301429D01*
X156038571Y-49339524D01*
X156190952Y-49377619D01*
X156305238Y-49377619D01*
X156457619Y-49339524D01*
X156533810Y-49301429D01*
X156610000Y-49225238D01*
X156648095Y-49110952D01*
X156648095Y-49034762D01*
X156610000Y-48920476D01*
X156571905Y-48882381D01*
X155848095Y-48158571D02*
X155848095Y-48539524D01*
X156648095Y-48539524D01*
X156648095Y-47739524D02*
X156648095Y-47587143D01*
X156610000Y-47510952D01*
X156533810Y-47434762D01*
X156381429Y-47396667D01*
X156114762Y-47396667D01*
X155962381Y-47434762D01*
X155886190Y-47510952D01*
X155848095Y-47587143D01*
X155848095Y-47739524D01*
X155886190Y-47815714D01*
X155962381Y-47891905D01*
X156114762Y-47930000D01*
X156381429Y-47930000D01*
X156533810Y-47891905D01*
X156610000Y-47815714D01*
X156648095Y-47739524D01*
X155924286Y-46596667D02*
X155886190Y-46634762D01*
X155848095Y-46749048D01*
X155848095Y-46825238D01*
X155886190Y-46939524D01*
X155962381Y-47015715D01*
X156038571Y-47053810D01*
X156190952Y-47091905D01*
X156305238Y-47091905D01*
X156457619Y-47053810D01*
X156533810Y-47015715D01*
X156610000Y-46939524D01*
X156648095Y-46825238D01*
X156648095Y-46749048D01*
X156610000Y-46634762D01*
X156571905Y-46596667D01*
X155848095Y-46253810D02*
X156648095Y-46253810D01*
X155848095Y-45796667D02*
X156305238Y-46139524D01*
X156648095Y-45796667D02*
X156190952Y-46253810D01*
D12*
X154305000Y-47625000D02*
X154305000Y-49530000D01*
X156845000Y-44450000D02*
X156845000Y-49530000D01*
X154305000Y-44450000D02*
X154305000Y-47625000D01*
D10*
X163506190Y-43351191D02*
X163468095Y-43236905D01*
X163468095Y-43046429D01*
X163506190Y-42970239D01*
X163544286Y-42932143D01*
X163620476Y-42894048D01*
X163696667Y-42894048D01*
X163772857Y-42932143D01*
X163810952Y-42970239D01*
X163849048Y-43046429D01*
X163887143Y-43198810D01*
X163925238Y-43275001D01*
X163963333Y-43313096D01*
X164039524Y-43351191D01*
X164115714Y-43351191D01*
X164191905Y-43313096D01*
X164230000Y-43275001D01*
X164268095Y-43198810D01*
X164268095Y-43008334D01*
X164230000Y-42894048D01*
X163849048Y-42398810D02*
X163468095Y-42398810D01*
X164268095Y-42665477D02*
X163849048Y-42398810D01*
X164268095Y-42132143D01*
X163506190Y-41903572D02*
X163468095Y-41789286D01*
X163468095Y-41598810D01*
X163506190Y-41522620D01*
X163544286Y-41484524D01*
X163620476Y-41446429D01*
X163696667Y-41446429D01*
X163772857Y-41484524D01*
X163810952Y-41522620D01*
X163849048Y-41598810D01*
X163887143Y-41751191D01*
X163925238Y-41827382D01*
X163963333Y-41865477D01*
X164039524Y-41903572D01*
X164115714Y-41903572D01*
X164191905Y-41865477D01*
X164230000Y-41827382D01*
X164268095Y-41751191D01*
X164268095Y-41560715D01*
X164230000Y-41446429D01*
X164268095Y-41217858D02*
X164268095Y-40760715D01*
X163468095Y-40989286D02*
X164268095Y-40989286D01*
X163887143Y-40494048D02*
X163887143Y-40227381D01*
X163468095Y-40113095D02*
X163468095Y-40494048D01*
X164268095Y-40494048D01*
X164268095Y-40113095D01*
X163468095Y-39770238D02*
X164268095Y-39770238D01*
X163696667Y-39503571D01*
X164268095Y-39236904D01*
X163468095Y-39236904D01*
X166008095Y-39173095D02*
X166389048Y-39439762D01*
X166008095Y-39630238D02*
X166808095Y-39630238D01*
X166808095Y-39325476D01*
X166770000Y-39249285D01*
X166731905Y-39211190D01*
X166655714Y-39173095D01*
X166541429Y-39173095D01*
X166465238Y-39211190D01*
X166427143Y-39249285D01*
X166389048Y-39325476D01*
X166389048Y-39630238D01*
X166808095Y-38944524D02*
X166808095Y-38487381D01*
X166008095Y-38715952D02*
X166808095Y-38715952D01*
X166046190Y-38258809D02*
X166008095Y-38144523D01*
X166008095Y-37954047D01*
X166046190Y-37877857D01*
X166084286Y-37839761D01*
X166160476Y-37801666D01*
X166236667Y-37801666D01*
X166312857Y-37839761D01*
X166350952Y-37877857D01*
X166389048Y-37954047D01*
X166427143Y-38106428D01*
X166465238Y-38182619D01*
X166503333Y-38220714D01*
X166579524Y-38258809D01*
X166655714Y-38258809D01*
X166731905Y-38220714D01*
X166770000Y-38182619D01*
X166808095Y-38106428D01*
X166808095Y-37915952D01*
X166770000Y-37801666D01*
X166946000Y-39820714D02*
X166946000Y-37649285D01*
D12*
X165735000Y-36195000D02*
X159385000Y-36195000D01*
X165735000Y-41275000D02*
X165735000Y-36195000D01*
X165100000Y-41275000D02*
X166370000Y-41275000D01*
X153035000Y-43815000D02*
X153035000Y-38735000D01*
X163195000Y-43815000D02*
X163195000Y-38735000D01*
X159385000Y-43815000D02*
X163195000Y-43815000D01*
X153035000Y-43815000D02*
X156845000Y-43815000D01*
X162560000Y-38735000D02*
X163830000Y-38735000D01*
X156845000Y-36195000D02*
X150495000Y-36195000D01*
D10*
X151568095Y-39782619D02*
X151568095Y-39630238D01*
X151530000Y-39554047D01*
X151453810Y-39477857D01*
X151301429Y-39439762D01*
X151034762Y-39439762D01*
X150882381Y-39477857D01*
X150806190Y-39554047D01*
X150768095Y-39630238D01*
X150768095Y-39782619D01*
X150806190Y-39858809D01*
X150882381Y-39935000D01*
X151034762Y-39973095D01*
X151301429Y-39973095D01*
X151453810Y-39935000D01*
X151530000Y-39858809D01*
X151568095Y-39782619D01*
X150806190Y-39135000D02*
X150768095Y-39020714D01*
X150768095Y-38830238D01*
X150806190Y-38754048D01*
X150844286Y-38715952D01*
X150920476Y-38677857D01*
X150996667Y-38677857D01*
X151072857Y-38715952D01*
X151110952Y-38754048D01*
X151149048Y-38830238D01*
X151187143Y-38982619D01*
X151225238Y-39058810D01*
X151263333Y-39096905D01*
X151339524Y-39135000D01*
X151415714Y-39135000D01*
X151491905Y-39096905D01*
X151530000Y-39058810D01*
X151568095Y-38982619D01*
X151568095Y-38792143D01*
X151530000Y-38677857D01*
X150844286Y-37877857D02*
X150806190Y-37915952D01*
X150768095Y-38030238D01*
X150768095Y-38106428D01*
X150806190Y-38220714D01*
X150882381Y-38296905D01*
X150958571Y-38335000D01*
X151110952Y-38373095D01*
X151225238Y-38373095D01*
X151377619Y-38335000D01*
X151453810Y-38296905D01*
X151530000Y-38220714D01*
X151568095Y-38106428D01*
X151568095Y-38030238D01*
X151530000Y-37915952D01*
X151491905Y-37877857D01*
X150844286Y-37535000D02*
X150806190Y-37496905D01*
X150768095Y-37535000D01*
X150806190Y-37573095D01*
X150844286Y-37535000D01*
X150768095Y-37535000D01*
D12*
X150495000Y-41275000D02*
X150495000Y-36195000D01*
X151130000Y-41275000D02*
X149860000Y-41275000D01*
D10*
X153727143Y-41446429D02*
X153727143Y-41179762D01*
X153308095Y-41065476D02*
X153308095Y-41446429D01*
X154108095Y-41446429D01*
X154108095Y-41065476D01*
D12*
X153670000Y-38735000D02*
X152400000Y-38735000D01*
X144780000Y-36195000D02*
X102870000Y-36195000D01*
X144780000Y-41910000D02*
X144780000Y-36195000D01*
X137160000Y-47625000D02*
X144780000Y-47625000D01*
X121920000Y-47625000D02*
X129540000Y-47625000D01*
X144780000Y-47625000D02*
X144780000Y-41910000D01*
X137160000Y-41910000D02*
X137160000Y-46355000D01*
X129540000Y-41910000D02*
X129540000Y-46355000D01*
D10*
X135883334Y-47986905D02*
X136150001Y-47605952D01*
X136340477Y-47986905D02*
X136340477Y-47186905D01*
X136035715Y-47186905D01*
X135959524Y-47225000D01*
X135921429Y-47263095D01*
X135883334Y-47339286D01*
X135883334Y-47453571D01*
X135921429Y-47529762D01*
X135959524Y-47567857D01*
X136035715Y-47605952D01*
X136340477Y-47605952D01*
X135540477Y-47567857D02*
X135273810Y-47567857D01*
X135159524Y-47986905D02*
X135540477Y-47986905D01*
X135540477Y-47186905D01*
X135159524Y-47186905D01*
X134397619Y-47225000D02*
X134473810Y-47186905D01*
X134588095Y-47186905D01*
X134702381Y-47225000D01*
X134778572Y-47301190D01*
X134816667Y-47377381D01*
X134854762Y-47529762D01*
X134854762Y-47644048D01*
X134816667Y-47796429D01*
X134778572Y-47872619D01*
X134702381Y-47948810D01*
X134588095Y-47986905D01*
X134511905Y-47986905D01*
X134397619Y-47948810D01*
X134359524Y-47910714D01*
X134359524Y-47644048D01*
X134511905Y-47644048D01*
X134016667Y-47986905D02*
X134016667Y-47186905D01*
X133673810Y-47948810D02*
X133559524Y-47986905D01*
X133369048Y-47986905D01*
X133292858Y-47948810D01*
X133254762Y-47910714D01*
X133216667Y-47834524D01*
X133216667Y-47758333D01*
X133254762Y-47682143D01*
X133292858Y-47644048D01*
X133369048Y-47605952D01*
X133521429Y-47567857D01*
X133597620Y-47529762D01*
X133635715Y-47491667D01*
X133673810Y-47415476D01*
X133673810Y-47339286D01*
X133635715Y-47263095D01*
X133597620Y-47225000D01*
X133521429Y-47186905D01*
X133330953Y-47186905D01*
X133216667Y-47225000D01*
X132988096Y-47186905D02*
X132530953Y-47186905D01*
X132759524Y-47986905D02*
X132759524Y-47186905D01*
X132264286Y-47567857D02*
X131997619Y-47567857D01*
X131883333Y-47986905D02*
X132264286Y-47986905D01*
X132264286Y-47186905D01*
X131883333Y-47186905D01*
X131083333Y-47986905D02*
X131350000Y-47605952D01*
X131540476Y-47986905D02*
X131540476Y-47186905D01*
X131235714Y-47186905D01*
X131159523Y-47225000D01*
X131121428Y-47263095D01*
X131083333Y-47339286D01*
X131083333Y-47453571D01*
X131121428Y-47529762D01*
X131159523Y-47567857D01*
X131235714Y-47605952D01*
X131540476Y-47605952D01*
X130778571Y-47948810D02*
X130664285Y-47986905D01*
X130473809Y-47986905D01*
X130397619Y-47948810D01*
X130359523Y-47910714D01*
X130321428Y-47834524D01*
X130321428Y-47758333D01*
X130359523Y-47682143D01*
X130397619Y-47644048D01*
X130473809Y-47605952D01*
X130626190Y-47567857D01*
X130702381Y-47529762D01*
X130740476Y-47491667D01*
X130778571Y-47415476D01*
X130778571Y-47339286D01*
X130740476Y-47263095D01*
X130702381Y-47225000D01*
X130626190Y-47186905D01*
X130435714Y-47186905D01*
X130321428Y-47225000D01*
D12*
X121920000Y-47625000D02*
X121920000Y-41910000D01*
D10*
X134950000Y-42106905D02*
X134759524Y-42906905D01*
X134607143Y-42335476D01*
X134454762Y-42906905D01*
X134264286Y-42106905D01*
X133502381Y-42906905D02*
X133769048Y-42525952D01*
X133959524Y-42906905D02*
X133959524Y-42106905D01*
X133654762Y-42106905D01*
X133578571Y-42145000D01*
X133540476Y-42183095D01*
X133502381Y-42259286D01*
X133502381Y-42373571D01*
X133540476Y-42449762D01*
X133578571Y-42487857D01*
X133654762Y-42525952D01*
X133959524Y-42525952D01*
X133159524Y-42906905D02*
X133159524Y-42106905D01*
X132892858Y-42106905D02*
X132435715Y-42106905D01*
X132664286Y-42906905D02*
X132664286Y-42106905D01*
X132169048Y-42487857D02*
X131902381Y-42487857D01*
X131788095Y-42906905D02*
X132169048Y-42906905D01*
X132169048Y-42106905D01*
X131788095Y-42106905D01*
X135064286Y-41969000D02*
X131635714Y-41969000D01*
X126587143Y-42906905D02*
X126853810Y-42525952D01*
X127044286Y-42906905D02*
X127044286Y-42106905D01*
X126739524Y-42106905D01*
X126663333Y-42145000D01*
X126625238Y-42183095D01*
X126587143Y-42259286D01*
X126587143Y-42373571D01*
X126625238Y-42449762D01*
X126663333Y-42487857D01*
X126739524Y-42525952D01*
X127044286Y-42525952D01*
X126244286Y-42487857D02*
X125977619Y-42487857D01*
X125863333Y-42906905D02*
X126244286Y-42906905D01*
X126244286Y-42106905D01*
X125863333Y-42106905D01*
X125558571Y-42678333D02*
X125177619Y-42678333D01*
X125634762Y-42906905D02*
X125368095Y-42106905D01*
X125101428Y-42906905D01*
X124834762Y-42906905D02*
X124834762Y-42106905D01*
X124644286Y-42106905D01*
X124530000Y-42145000D01*
X124453809Y-42221190D01*
X124415714Y-42297381D01*
X124377619Y-42449762D01*
X124377619Y-42564048D01*
X124415714Y-42716429D01*
X124453809Y-42792619D01*
X124530000Y-42868810D01*
X124644286Y-42906905D01*
X124834762Y-42906905D01*
X135388095Y-44720714D02*
X135426190Y-44758810D01*
X135540476Y-44796905D01*
X135616666Y-44796905D01*
X135730952Y-44758810D01*
X135807143Y-44682619D01*
X135845238Y-44606429D01*
X135883333Y-44454048D01*
X135883333Y-44339762D01*
X135845238Y-44187381D01*
X135807143Y-44111190D01*
X135730952Y-44035000D01*
X135616666Y-43996905D01*
X135540476Y-43996905D01*
X135426190Y-44035000D01*
X135388095Y-44073095D01*
X134892857Y-43996905D02*
X134740476Y-43996905D01*
X134664285Y-44035000D01*
X134588095Y-44111190D01*
X134550000Y-44263571D01*
X134550000Y-44530238D01*
X134588095Y-44682619D01*
X134664285Y-44758810D01*
X134740476Y-44796905D01*
X134892857Y-44796905D01*
X134969047Y-44758810D01*
X135045238Y-44682619D01*
X135083333Y-44530238D01*
X135083333Y-44263571D01*
X135045238Y-44111190D01*
X134969047Y-44035000D01*
X134892857Y-43996905D01*
X134207143Y-44796905D02*
X134207143Y-43996905D01*
X133750000Y-44796905D01*
X133750000Y-43996905D01*
X133483334Y-43996905D02*
X133026191Y-43996905D01*
X133254762Y-44796905D02*
X133254762Y-43996905D01*
X132302381Y-44796905D02*
X132569048Y-44415952D01*
X132759524Y-44796905D02*
X132759524Y-43996905D01*
X132454762Y-43996905D01*
X132378571Y-44035000D01*
X132340476Y-44073095D01*
X132302381Y-44149286D01*
X132302381Y-44263571D01*
X132340476Y-44339762D01*
X132378571Y-44377857D01*
X132454762Y-44415952D01*
X132759524Y-44415952D01*
X131807143Y-43996905D02*
X131654762Y-43996905D01*
X131578571Y-44035000D01*
X131502381Y-44111190D01*
X131464286Y-44263571D01*
X131464286Y-44530238D01*
X131502381Y-44682619D01*
X131578571Y-44758810D01*
X131654762Y-44796905D01*
X131807143Y-44796905D01*
X131883333Y-44758810D01*
X131959524Y-44682619D01*
X131997619Y-44530238D01*
X131997619Y-44263571D01*
X131959524Y-44111190D01*
X131883333Y-44035000D01*
X131807143Y-43996905D01*
X130740476Y-44796905D02*
X131121429Y-44796905D01*
X131121429Y-43996905D01*
X136073810Y-45296905D02*
X135616667Y-45296905D01*
X135845238Y-46096905D02*
X135845238Y-45296905D01*
X134892857Y-46096905D02*
X135159524Y-45715952D01*
X135350000Y-46096905D02*
X135350000Y-45296905D01*
X135045238Y-45296905D01*
X134969047Y-45335000D01*
X134930952Y-45373095D01*
X134892857Y-45449286D01*
X134892857Y-45563571D01*
X134930952Y-45639762D01*
X134969047Y-45677857D01*
X135045238Y-45715952D01*
X135350000Y-45715952D01*
X134588095Y-45868333D02*
X134207143Y-45868333D01*
X134664286Y-46096905D02*
X134397619Y-45296905D01*
X134130952Y-46096905D01*
X133864286Y-46096905D02*
X133864286Y-45296905D01*
X133407143Y-46096905D01*
X133407143Y-45296905D01*
X133064286Y-46058810D02*
X132950000Y-46096905D01*
X132759524Y-46096905D01*
X132683334Y-46058810D01*
X132645238Y-46020714D01*
X132607143Y-45944524D01*
X132607143Y-45868333D01*
X132645238Y-45792143D01*
X132683334Y-45754048D01*
X132759524Y-45715952D01*
X132911905Y-45677857D01*
X132988096Y-45639762D01*
X133026191Y-45601667D01*
X133064286Y-45525476D01*
X133064286Y-45449286D01*
X133026191Y-45373095D01*
X132988096Y-45335000D01*
X132911905Y-45296905D01*
X132721429Y-45296905D01*
X132607143Y-45335000D01*
X132264286Y-46096905D02*
X132264286Y-45296905D01*
X131997619Y-45868333D01*
X131730952Y-45296905D01*
X131730952Y-46096905D01*
X131350000Y-46096905D02*
X131350000Y-45296905D01*
X131083334Y-45296905D02*
X130626191Y-45296905D01*
X130854762Y-46096905D02*
X130854762Y-45296905D01*
X127710952Y-44758810D02*
X127596666Y-44796905D01*
X127406190Y-44796905D01*
X127330000Y-44758810D01*
X127291904Y-44720714D01*
X127253809Y-44644524D01*
X127253809Y-44568333D01*
X127291904Y-44492143D01*
X127330000Y-44454048D01*
X127406190Y-44415952D01*
X127558571Y-44377857D01*
X127634762Y-44339762D01*
X127672857Y-44301667D01*
X127710952Y-44225476D01*
X127710952Y-44149286D01*
X127672857Y-44073095D01*
X127634762Y-44035000D01*
X127558571Y-43996905D01*
X127368095Y-43996905D01*
X127253809Y-44035000D01*
X127025238Y-43996905D02*
X126568095Y-43996905D01*
X126796666Y-44796905D02*
X126796666Y-43996905D01*
X126339523Y-44568333D02*
X125958571Y-44568333D01*
X126415714Y-44796905D02*
X126149047Y-43996905D01*
X125882380Y-44796905D01*
X125730000Y-43996905D02*
X125272857Y-43996905D01*
X125501428Y-44796905D02*
X125501428Y-43996905D01*
X125006190Y-43996905D02*
X125006190Y-44644524D01*
X124968095Y-44720714D01*
X124929999Y-44758810D01*
X124853809Y-44796905D01*
X124701428Y-44796905D01*
X124625237Y-44758810D01*
X124587142Y-44720714D01*
X124549047Y-44644524D01*
X124549047Y-43996905D01*
X124206190Y-44758810D02*
X124091904Y-44796905D01*
X123901428Y-44796905D01*
X123825238Y-44758810D01*
X123787142Y-44720714D01*
X123749047Y-44644524D01*
X123749047Y-44568333D01*
X123787142Y-44492143D01*
X123825238Y-44454048D01*
X123901428Y-44415952D01*
X124053809Y-44377857D01*
X124130000Y-44339762D01*
X124168095Y-44301667D01*
X124206190Y-44225476D01*
X124206190Y-44149286D01*
X124168095Y-44073095D01*
X124130000Y-44035000D01*
X124053809Y-43996905D01*
X123863333Y-43996905D01*
X123749047Y-44035000D01*
X127501429Y-46096905D02*
X127768096Y-45715952D01*
X127958572Y-46096905D02*
X127958572Y-45296905D01*
X127653810Y-45296905D01*
X127577619Y-45335000D01*
X127539524Y-45373095D01*
X127501429Y-45449286D01*
X127501429Y-45563571D01*
X127539524Y-45639762D01*
X127577619Y-45677857D01*
X127653810Y-45715952D01*
X127958572Y-45715952D01*
X127158572Y-45677857D02*
X126891905Y-45677857D01*
X126777619Y-46096905D02*
X127158572Y-46096905D01*
X127158572Y-45296905D01*
X126777619Y-45296905D01*
X125977619Y-46020714D02*
X126015714Y-46058810D01*
X126130000Y-46096905D01*
X126206190Y-46096905D01*
X126320476Y-46058810D01*
X126396667Y-45982619D01*
X126434762Y-45906429D01*
X126472857Y-45754048D01*
X126472857Y-45639762D01*
X126434762Y-45487381D01*
X126396667Y-45411190D01*
X126320476Y-45335000D01*
X126206190Y-45296905D01*
X126130000Y-45296905D01*
X126015714Y-45335000D01*
X125977619Y-45373095D01*
X125634762Y-45677857D02*
X125368095Y-45677857D01*
X125253809Y-46096905D02*
X125634762Y-46096905D01*
X125634762Y-45296905D01*
X125253809Y-45296905D01*
X124910952Y-46096905D02*
X124910952Y-45296905D01*
X124644286Y-45296905D02*
X124377619Y-46096905D01*
X124110952Y-45296905D01*
X123844286Y-45677857D02*
X123577619Y-45677857D01*
X123463333Y-46096905D02*
X123844286Y-46096905D01*
X123844286Y-45296905D01*
X123463333Y-45296905D01*
X142665238Y-44758810D02*
X142550952Y-44796905D01*
X142360476Y-44796905D01*
X142284286Y-44758810D01*
X142246190Y-44720714D01*
X142208095Y-44644524D01*
X142208095Y-44568333D01*
X142246190Y-44492143D01*
X142284286Y-44454048D01*
X142360476Y-44415952D01*
X142512857Y-44377857D01*
X142589048Y-44339762D01*
X142627143Y-44301667D01*
X142665238Y-44225476D01*
X142665238Y-44149286D01*
X142627143Y-44073095D01*
X142589048Y-44035000D01*
X142512857Y-43996905D01*
X142322381Y-43996905D01*
X142208095Y-44035000D01*
X142436667Y-43882619D02*
X142436667Y-44911190D01*
X141903333Y-44073095D02*
X141865238Y-44035000D01*
X141789047Y-43996905D01*
X141598571Y-43996905D01*
X141522381Y-44035000D01*
X141484285Y-44073095D01*
X141446190Y-44149286D01*
X141446190Y-44225476D01*
X141484285Y-44339762D01*
X141941428Y-44796905D01*
X141446190Y-44796905D01*
X141179523Y-44796905D02*
X140760476Y-44263571D01*
X141179523Y-44263571D02*
X140760476Y-44796905D01*
X140303333Y-43996905D02*
X140227142Y-43996905D01*
X140150952Y-44035000D01*
X140112857Y-44073095D01*
X140074761Y-44149286D01*
X140036666Y-44301667D01*
X140036666Y-44492143D01*
X140074761Y-44644524D01*
X140112857Y-44720714D01*
X140150952Y-44758810D01*
X140227142Y-44796905D01*
X140303333Y-44796905D01*
X140379523Y-44758810D01*
X140417619Y-44720714D01*
X140455714Y-44644524D01*
X140493809Y-44492143D01*
X140493809Y-44301667D01*
X140455714Y-44149286D01*
X140417619Y-44073095D01*
X140379523Y-44035000D01*
X140303333Y-43996905D01*
X139541428Y-43996905D02*
X139465237Y-43996905D01*
X139389047Y-44035000D01*
X139350952Y-44073095D01*
X139312856Y-44149286D01*
X139274761Y-44301667D01*
X139274761Y-44492143D01*
X139312856Y-44644524D01*
X139350952Y-44720714D01*
X139389047Y-44758810D01*
X139465237Y-44796905D01*
X139541428Y-44796905D01*
X139617618Y-44758810D01*
X139655714Y-44720714D01*
X139693809Y-44644524D01*
X139731904Y-44492143D01*
X139731904Y-44301667D01*
X139693809Y-44149286D01*
X139655714Y-44073095D01*
X139617618Y-44035000D01*
X139541428Y-43996905D01*
X142665238Y-46058810D02*
X142550952Y-46096905D01*
X142360476Y-46096905D01*
X142284286Y-46058810D01*
X142246190Y-46020714D01*
X142208095Y-45944524D01*
X142208095Y-45868333D01*
X142246190Y-45792143D01*
X142284286Y-45754048D01*
X142360476Y-45715952D01*
X142512857Y-45677857D01*
X142589048Y-45639762D01*
X142627143Y-45601667D01*
X142665238Y-45525476D01*
X142665238Y-45449286D01*
X142627143Y-45373095D01*
X142589048Y-45335000D01*
X142512857Y-45296905D01*
X142322381Y-45296905D01*
X142208095Y-45335000D01*
X142436667Y-45182619D02*
X142436667Y-46211190D01*
X141903333Y-45373095D02*
X141865238Y-45335000D01*
X141789047Y-45296905D01*
X141598571Y-45296905D01*
X141522381Y-45335000D01*
X141484285Y-45373095D01*
X141446190Y-45449286D01*
X141446190Y-45525476D01*
X141484285Y-45639762D01*
X141941428Y-46096905D01*
X141446190Y-46096905D01*
X141179523Y-46096905D02*
X140760476Y-45563571D01*
X141179523Y-45563571D02*
X140760476Y-46096905D01*
X140303333Y-45296905D02*
X140227142Y-45296905D01*
X140150952Y-45335000D01*
X140112857Y-45373095D01*
X140074761Y-45449286D01*
X140036666Y-45601667D01*
X140036666Y-45792143D01*
X140074761Y-45944524D01*
X140112857Y-46020714D01*
X140150952Y-46058810D01*
X140227142Y-46096905D01*
X140303333Y-46096905D01*
X140379523Y-46058810D01*
X140417619Y-46020714D01*
X140455714Y-45944524D01*
X140493809Y-45792143D01*
X140493809Y-45601667D01*
X140455714Y-45449286D01*
X140417619Y-45373095D01*
X140379523Y-45335000D01*
X140303333Y-45296905D01*
X139274761Y-46096905D02*
X139731904Y-46096905D01*
X139503333Y-46096905D02*
X139503333Y-45296905D01*
X139579523Y-45411190D01*
X139655714Y-45487381D01*
X139731904Y-45525476D01*
D12*
X105410000Y-46355000D02*
X105410000Y-41910000D01*
X107950000Y-41910000D02*
X107950000Y-46355000D01*
X110490000Y-46355000D02*
X110490000Y-41910000D01*
X113030000Y-41910000D02*
X113030000Y-46355000D01*
X115570000Y-46355000D02*
X115570000Y-41910000D01*
X118110000Y-41910000D02*
X118110000Y-46355000D01*
X120650000Y-47625000D02*
X120650000Y-41910000D01*
X117475000Y-47625000D02*
X120650000Y-47625000D01*
X102870000Y-47625000D02*
X106045000Y-47625000D01*
X102870000Y-41910000D02*
X102870000Y-47625000D01*
D10*
X116598096Y-47986905D02*
X116598096Y-47186905D01*
X116407620Y-47186905D01*
X116293334Y-47225000D01*
X116217143Y-47301190D01*
X116179048Y-47377381D01*
X116140953Y-47529762D01*
X116140953Y-47644048D01*
X116179048Y-47796429D01*
X116217143Y-47872619D01*
X116293334Y-47948810D01*
X116407620Y-47986905D01*
X116598096Y-47986905D01*
X115798096Y-47567857D02*
X115531429Y-47567857D01*
X115417143Y-47986905D02*
X115798096Y-47986905D01*
X115798096Y-47186905D01*
X115417143Y-47186905D01*
X115188572Y-47186905D02*
X114921905Y-47986905D01*
X114655238Y-47186905D01*
X114388572Y-47986905D02*
X114388572Y-47186905D01*
X113550477Y-47910714D02*
X113588572Y-47948810D01*
X113702858Y-47986905D01*
X113779048Y-47986905D01*
X113893334Y-47948810D01*
X113969525Y-47872619D01*
X114007620Y-47796429D01*
X114045715Y-47644048D01*
X114045715Y-47529762D01*
X114007620Y-47377381D01*
X113969525Y-47301190D01*
X113893334Y-47225000D01*
X113779048Y-47186905D01*
X113702858Y-47186905D01*
X113588572Y-47225000D01*
X113550477Y-47263095D01*
X113207620Y-47567857D02*
X112940953Y-47567857D01*
X112826667Y-47986905D02*
X113207620Y-47986905D01*
X113207620Y-47186905D01*
X112826667Y-47186905D01*
X111912381Y-47758333D02*
X111531429Y-47758333D01*
X111988572Y-47986905D02*
X111721905Y-47186905D01*
X111455238Y-47986905D01*
X111188572Y-47986905D02*
X111188572Y-47186905D01*
X110998096Y-47186905D01*
X110883810Y-47225000D01*
X110807619Y-47301190D01*
X110769524Y-47377381D01*
X110731429Y-47529762D01*
X110731429Y-47644048D01*
X110769524Y-47796429D01*
X110807619Y-47872619D01*
X110883810Y-47948810D01*
X110998096Y-47986905D01*
X111188572Y-47986905D01*
X110388572Y-47986905D02*
X110388572Y-47186905D01*
X110198096Y-47186905D01*
X110083810Y-47225000D01*
X110007619Y-47301190D01*
X109969524Y-47377381D01*
X109931429Y-47529762D01*
X109931429Y-47644048D01*
X109969524Y-47796429D01*
X110007619Y-47872619D01*
X110083810Y-47948810D01*
X110198096Y-47986905D01*
X110388572Y-47986905D01*
X109131429Y-47986905D02*
X109398096Y-47605952D01*
X109588572Y-47986905D02*
X109588572Y-47186905D01*
X109283810Y-47186905D01*
X109207619Y-47225000D01*
X109169524Y-47263095D01*
X109131429Y-47339286D01*
X109131429Y-47453571D01*
X109169524Y-47529762D01*
X109207619Y-47567857D01*
X109283810Y-47605952D01*
X109588572Y-47605952D01*
X108788572Y-47567857D02*
X108521905Y-47567857D01*
X108407619Y-47986905D02*
X108788572Y-47986905D01*
X108788572Y-47186905D01*
X108407619Y-47186905D01*
X108102857Y-47948810D02*
X107988571Y-47986905D01*
X107798095Y-47986905D01*
X107721905Y-47948810D01*
X107683809Y-47910714D01*
X107645714Y-47834524D01*
X107645714Y-47758333D01*
X107683809Y-47682143D01*
X107721905Y-47644048D01*
X107798095Y-47605952D01*
X107950476Y-47567857D01*
X108026667Y-47529762D01*
X108064762Y-47491667D01*
X108102857Y-47415476D01*
X108102857Y-47339286D01*
X108064762Y-47263095D01*
X108026667Y-47225000D01*
X107950476Y-47186905D01*
X107760000Y-47186905D01*
X107645714Y-47225000D01*
X107340952Y-47948810D02*
X107226666Y-47986905D01*
X107036190Y-47986905D01*
X106960000Y-47948810D01*
X106921904Y-47910714D01*
X106883809Y-47834524D01*
X106883809Y-47758333D01*
X106921904Y-47682143D01*
X106960000Y-47644048D01*
X107036190Y-47605952D01*
X107188571Y-47567857D01*
X107264762Y-47529762D01*
X107302857Y-47491667D01*
X107340952Y-47415476D01*
X107340952Y-47339286D01*
X107302857Y-47263095D01*
X107264762Y-47225000D01*
X107188571Y-47186905D01*
X106998095Y-47186905D01*
X106883809Y-47225000D01*
X118421190Y-46202619D02*
X118383095Y-46088333D01*
X118383095Y-45897857D01*
X118421190Y-45821667D01*
X118459286Y-45783571D01*
X118535476Y-45745476D01*
X118611667Y-45745476D01*
X118687857Y-45783571D01*
X118725952Y-45821667D01*
X118764048Y-45897857D01*
X118802143Y-46050238D01*
X118840238Y-46126429D01*
X118878333Y-46164524D01*
X118954524Y-46202619D01*
X119030714Y-46202619D01*
X119106905Y-46164524D01*
X119145000Y-46126429D01*
X119183095Y-46050238D01*
X119183095Y-45859762D01*
X119145000Y-45745476D01*
X119297381Y-45974048D02*
X118268810Y-45974048D01*
X119106905Y-45440714D02*
X119145000Y-45402619D01*
X119183095Y-45326428D01*
X119183095Y-45135952D01*
X119145000Y-45059762D01*
X119106905Y-45021666D01*
X119030714Y-44983571D01*
X118954524Y-44983571D01*
X118840238Y-45021666D01*
X118383095Y-45478809D01*
X118383095Y-44983571D01*
X118802143Y-44640714D02*
X118802143Y-44374047D01*
X118383095Y-44259761D02*
X118383095Y-44640714D01*
X119183095Y-44640714D01*
X119183095Y-44259761D01*
X119183095Y-43764523D02*
X119183095Y-43688332D01*
X119145000Y-43612142D01*
X119106905Y-43574047D01*
X119030714Y-43535951D01*
X118878333Y-43497856D01*
X118687857Y-43497856D01*
X118535476Y-43535951D01*
X118459286Y-43574047D01*
X118421190Y-43612142D01*
X118383095Y-43688332D01*
X118383095Y-43764523D01*
X118421190Y-43840713D01*
X118459286Y-43878809D01*
X118535476Y-43916904D01*
X118687857Y-43954999D01*
X118878333Y-43954999D01*
X119030714Y-43916904D01*
X119106905Y-43878809D01*
X119145000Y-43840713D01*
X119183095Y-43764523D01*
X118383095Y-42735951D02*
X118383095Y-43193094D01*
X118383095Y-42964523D02*
X119183095Y-42964523D01*
X119068810Y-43040713D01*
X118992619Y-43116904D01*
X118954524Y-43193094D01*
X115881190Y-46202619D02*
X115843095Y-46088333D01*
X115843095Y-45897857D01*
X115881190Y-45821667D01*
X115919286Y-45783571D01*
X115995476Y-45745476D01*
X116071667Y-45745476D01*
X116147857Y-45783571D01*
X116185952Y-45821667D01*
X116224048Y-45897857D01*
X116262143Y-46050238D01*
X116300238Y-46126429D01*
X116338333Y-46164524D01*
X116414524Y-46202619D01*
X116490714Y-46202619D01*
X116566905Y-46164524D01*
X116605000Y-46126429D01*
X116643095Y-46050238D01*
X116643095Y-45859762D01*
X116605000Y-45745476D01*
X116757381Y-45974048D02*
X115728810Y-45974048D01*
X116566905Y-45440714D02*
X116605000Y-45402619D01*
X116643095Y-45326428D01*
X116643095Y-45135952D01*
X116605000Y-45059762D01*
X116566905Y-45021666D01*
X116490714Y-44983571D01*
X116414524Y-44983571D01*
X116300238Y-45021666D01*
X115843095Y-45478809D01*
X115843095Y-44983571D01*
X115919286Y-44183571D02*
X115881190Y-44221666D01*
X115843095Y-44335952D01*
X115843095Y-44412142D01*
X115881190Y-44526428D01*
X115957381Y-44602619D01*
X116033571Y-44640714D01*
X116185952Y-44678809D01*
X116300238Y-44678809D01*
X116452619Y-44640714D01*
X116528810Y-44602619D01*
X116605000Y-44526428D01*
X116643095Y-44412142D01*
X116643095Y-44335952D01*
X116605000Y-44221666D01*
X116566905Y-44183571D01*
X116643095Y-43688333D02*
X116643095Y-43612142D01*
X116605000Y-43535952D01*
X116566905Y-43497857D01*
X116490714Y-43459761D01*
X116338333Y-43421666D01*
X116147857Y-43421666D01*
X115995476Y-43459761D01*
X115919286Y-43497857D01*
X115881190Y-43535952D01*
X115843095Y-43612142D01*
X115843095Y-43688333D01*
X115881190Y-43764523D01*
X115919286Y-43802619D01*
X115995476Y-43840714D01*
X116147857Y-43878809D01*
X116338333Y-43878809D01*
X116490714Y-43840714D01*
X116566905Y-43802619D01*
X116605000Y-43764523D01*
X116643095Y-43688333D01*
X115843095Y-42659761D02*
X115843095Y-43116904D01*
X115843095Y-42888333D02*
X116643095Y-42888333D01*
X116528810Y-42964523D01*
X116452619Y-43040714D01*
X116414524Y-43116904D01*
X113341190Y-46202619D02*
X113303095Y-46088333D01*
X113303095Y-45897857D01*
X113341190Y-45821667D01*
X113379286Y-45783571D01*
X113455476Y-45745476D01*
X113531667Y-45745476D01*
X113607857Y-45783571D01*
X113645952Y-45821667D01*
X113684048Y-45897857D01*
X113722143Y-46050238D01*
X113760238Y-46126429D01*
X113798333Y-46164524D01*
X113874524Y-46202619D01*
X113950714Y-46202619D01*
X114026905Y-46164524D01*
X114065000Y-46126429D01*
X114103095Y-46050238D01*
X114103095Y-45859762D01*
X114065000Y-45745476D01*
X114217381Y-45974048D02*
X113188810Y-45974048D01*
X114026905Y-45440714D02*
X114065000Y-45402619D01*
X114103095Y-45326428D01*
X114103095Y-45135952D01*
X114065000Y-45059762D01*
X114026905Y-45021666D01*
X113950714Y-44983571D01*
X113874524Y-44983571D01*
X113760238Y-45021666D01*
X113303095Y-45478809D01*
X113303095Y-44983571D01*
X113531667Y-44678809D02*
X113531667Y-44297857D01*
X113303095Y-44755000D02*
X114103095Y-44488333D01*
X113303095Y-44221666D01*
X114103095Y-43802619D02*
X114103095Y-43726428D01*
X114065000Y-43650238D01*
X114026905Y-43612143D01*
X113950714Y-43574047D01*
X113798333Y-43535952D01*
X113607857Y-43535952D01*
X113455476Y-43574047D01*
X113379286Y-43612143D01*
X113341190Y-43650238D01*
X113303095Y-43726428D01*
X113303095Y-43802619D01*
X113341190Y-43878809D01*
X113379286Y-43916905D01*
X113455476Y-43955000D01*
X113607857Y-43993095D01*
X113798333Y-43993095D01*
X113950714Y-43955000D01*
X114026905Y-43916905D01*
X114065000Y-43878809D01*
X114103095Y-43802619D01*
X113303095Y-42774047D02*
X113303095Y-43231190D01*
X113303095Y-43002619D02*
X114103095Y-43002619D01*
X113988810Y-43078809D01*
X113912619Y-43155000D01*
X113874524Y-43231190D01*
X110801190Y-46202619D02*
X110763095Y-46088333D01*
X110763095Y-45897857D01*
X110801190Y-45821667D01*
X110839286Y-45783571D01*
X110915476Y-45745476D01*
X110991667Y-45745476D01*
X111067857Y-45783571D01*
X111105952Y-45821667D01*
X111144048Y-45897857D01*
X111182143Y-46050238D01*
X111220238Y-46126429D01*
X111258333Y-46164524D01*
X111334524Y-46202619D01*
X111410714Y-46202619D01*
X111486905Y-46164524D01*
X111525000Y-46126429D01*
X111563095Y-46050238D01*
X111563095Y-45859762D01*
X111525000Y-45745476D01*
X111677381Y-45974048D02*
X110648810Y-45974048D01*
X111486905Y-45440714D02*
X111525000Y-45402619D01*
X111563095Y-45326428D01*
X111563095Y-45135952D01*
X111525000Y-45059762D01*
X111486905Y-45021666D01*
X111410714Y-44983571D01*
X111334524Y-44983571D01*
X111220238Y-45021666D01*
X110763095Y-45478809D01*
X110763095Y-44983571D01*
X111220238Y-44526428D02*
X111258333Y-44602619D01*
X111296429Y-44640714D01*
X111372619Y-44678809D01*
X111410714Y-44678809D01*
X111486905Y-44640714D01*
X111525000Y-44602619D01*
X111563095Y-44526428D01*
X111563095Y-44374047D01*
X111525000Y-44297857D01*
X111486905Y-44259761D01*
X111410714Y-44221666D01*
X111372619Y-44221666D01*
X111296429Y-44259761D01*
X111258333Y-44297857D01*
X111220238Y-44374047D01*
X111220238Y-44526428D01*
X111182143Y-44602619D01*
X111144048Y-44640714D01*
X111067857Y-44678809D01*
X110915476Y-44678809D01*
X110839286Y-44640714D01*
X110801190Y-44602619D01*
X110763095Y-44526428D01*
X110763095Y-44374047D01*
X110801190Y-44297857D01*
X110839286Y-44259761D01*
X110915476Y-44221666D01*
X111067857Y-44221666D01*
X111144048Y-44259761D01*
X111182143Y-44297857D01*
X111220238Y-44374047D01*
X111563095Y-43726428D02*
X111563095Y-43650237D01*
X111525000Y-43574047D01*
X111486905Y-43535952D01*
X111410714Y-43497856D01*
X111258333Y-43459761D01*
X111067857Y-43459761D01*
X110915476Y-43497856D01*
X110839286Y-43535952D01*
X110801190Y-43574047D01*
X110763095Y-43650237D01*
X110763095Y-43726428D01*
X110801190Y-43802618D01*
X110839286Y-43840714D01*
X110915476Y-43878809D01*
X111067857Y-43916904D01*
X111258333Y-43916904D01*
X111410714Y-43878809D01*
X111486905Y-43840714D01*
X111525000Y-43802618D01*
X111563095Y-43726428D01*
X110763095Y-42697856D02*
X110763095Y-43154999D01*
X110763095Y-42926428D02*
X111563095Y-42926428D01*
X111448810Y-43002618D01*
X111372619Y-43078809D01*
X111334524Y-43154999D01*
X108261190Y-46202619D02*
X108223095Y-46088333D01*
X108223095Y-45897857D01*
X108261190Y-45821667D01*
X108299286Y-45783571D01*
X108375476Y-45745476D01*
X108451667Y-45745476D01*
X108527857Y-45783571D01*
X108565952Y-45821667D01*
X108604048Y-45897857D01*
X108642143Y-46050238D01*
X108680238Y-46126429D01*
X108718333Y-46164524D01*
X108794524Y-46202619D01*
X108870714Y-46202619D01*
X108946905Y-46164524D01*
X108985000Y-46126429D01*
X109023095Y-46050238D01*
X109023095Y-45859762D01*
X108985000Y-45745476D01*
X109137381Y-45974048D02*
X108108810Y-45974048D01*
X108946905Y-45440714D02*
X108985000Y-45402619D01*
X109023095Y-45326428D01*
X109023095Y-45135952D01*
X108985000Y-45059762D01*
X108946905Y-45021666D01*
X108870714Y-44983571D01*
X108794524Y-44983571D01*
X108680238Y-45021666D01*
X108223095Y-45478809D01*
X108223095Y-44983571D01*
X109023095Y-44297857D02*
X109023095Y-44450238D01*
X108985000Y-44526428D01*
X108946905Y-44564523D01*
X108832619Y-44640714D01*
X108680238Y-44678809D01*
X108375476Y-44678809D01*
X108299286Y-44640714D01*
X108261190Y-44602619D01*
X108223095Y-44526428D01*
X108223095Y-44374047D01*
X108261190Y-44297857D01*
X108299286Y-44259761D01*
X108375476Y-44221666D01*
X108565952Y-44221666D01*
X108642143Y-44259761D01*
X108680238Y-44297857D01*
X108718333Y-44374047D01*
X108718333Y-44526428D01*
X108680238Y-44602619D01*
X108642143Y-44640714D01*
X108565952Y-44678809D01*
X109023095Y-43726428D02*
X109023095Y-43650237D01*
X108985000Y-43574047D01*
X108946905Y-43535952D01*
X108870714Y-43497856D01*
X108718333Y-43459761D01*
X108527857Y-43459761D01*
X108375476Y-43497856D01*
X108299286Y-43535952D01*
X108261190Y-43574047D01*
X108223095Y-43650237D01*
X108223095Y-43726428D01*
X108261190Y-43802618D01*
X108299286Y-43840714D01*
X108375476Y-43878809D01*
X108527857Y-43916904D01*
X108718333Y-43916904D01*
X108870714Y-43878809D01*
X108946905Y-43840714D01*
X108985000Y-43802618D01*
X109023095Y-43726428D01*
X108223095Y-42697856D02*
X108223095Y-43154999D01*
X108223095Y-42926428D02*
X109023095Y-42926428D01*
X108908810Y-43002618D01*
X108832619Y-43078809D01*
X108794524Y-43154999D01*
X105721190Y-46202619D02*
X105683095Y-46088333D01*
X105683095Y-45897857D01*
X105721190Y-45821667D01*
X105759286Y-45783571D01*
X105835476Y-45745476D01*
X105911667Y-45745476D01*
X105987857Y-45783571D01*
X106025952Y-45821667D01*
X106064048Y-45897857D01*
X106102143Y-46050238D01*
X106140238Y-46126429D01*
X106178333Y-46164524D01*
X106254524Y-46202619D01*
X106330714Y-46202619D01*
X106406905Y-46164524D01*
X106445000Y-46126429D01*
X106483095Y-46050238D01*
X106483095Y-45859762D01*
X106445000Y-45745476D01*
X106597381Y-45974048D02*
X105568810Y-45974048D01*
X106406905Y-45440714D02*
X106445000Y-45402619D01*
X106483095Y-45326428D01*
X106483095Y-45135952D01*
X106445000Y-45059762D01*
X106406905Y-45021666D01*
X106330714Y-44983571D01*
X106254524Y-44983571D01*
X106140238Y-45021666D01*
X105683095Y-45478809D01*
X105683095Y-44983571D01*
X106216429Y-44297857D02*
X105683095Y-44297857D01*
X106521190Y-44488333D02*
X105949762Y-44678809D01*
X105949762Y-44183571D01*
X106483095Y-43726428D02*
X106483095Y-43650237D01*
X106445000Y-43574047D01*
X106406905Y-43535952D01*
X106330714Y-43497856D01*
X106178333Y-43459761D01*
X105987857Y-43459761D01*
X105835476Y-43497856D01*
X105759286Y-43535952D01*
X105721190Y-43574047D01*
X105683095Y-43650237D01*
X105683095Y-43726428D01*
X105721190Y-43802618D01*
X105759286Y-43840714D01*
X105835476Y-43878809D01*
X105987857Y-43916904D01*
X106178333Y-43916904D01*
X106330714Y-43878809D01*
X106406905Y-43840714D01*
X106445000Y-43802618D01*
X106483095Y-43726428D01*
X105683095Y-42697856D02*
X105683095Y-43154999D01*
X105683095Y-42926428D02*
X106483095Y-42926428D01*
X106368810Y-43002618D01*
X106292619Y-43078809D01*
X106254524Y-43154999D01*
X119691190Y-46202619D02*
X119653095Y-46088333D01*
X119653095Y-45897857D01*
X119691190Y-45821667D01*
X119729286Y-45783571D01*
X119805476Y-45745476D01*
X119881667Y-45745476D01*
X119957857Y-45783571D01*
X119995952Y-45821667D01*
X120034048Y-45897857D01*
X120072143Y-46050238D01*
X120110238Y-46126429D01*
X120148333Y-46164524D01*
X120224524Y-46202619D01*
X120300714Y-46202619D01*
X120376905Y-46164524D01*
X120415000Y-46126429D01*
X120453095Y-46050238D01*
X120453095Y-45859762D01*
X120415000Y-45745476D01*
X120567381Y-45974048D02*
X119538810Y-45974048D01*
X120376905Y-45440714D02*
X120415000Y-45402619D01*
X120453095Y-45326428D01*
X120453095Y-45135952D01*
X120415000Y-45059762D01*
X120376905Y-45021666D01*
X120300714Y-44983571D01*
X120224524Y-44983571D01*
X120110238Y-45021666D01*
X119653095Y-45478809D01*
X119653095Y-44983571D01*
X120072143Y-44640714D02*
X120072143Y-44374047D01*
X119653095Y-44259761D02*
X119653095Y-44640714D01*
X120453095Y-44640714D01*
X120453095Y-44259761D01*
X120453095Y-43764523D02*
X120453095Y-43688332D01*
X120415000Y-43612142D01*
X120376905Y-43574047D01*
X120300714Y-43535951D01*
X120148333Y-43497856D01*
X119957857Y-43497856D01*
X119805476Y-43535951D01*
X119729286Y-43574047D01*
X119691190Y-43612142D01*
X119653095Y-43688332D01*
X119653095Y-43764523D01*
X119691190Y-43840713D01*
X119729286Y-43878809D01*
X119805476Y-43916904D01*
X119957857Y-43954999D01*
X120148333Y-43954999D01*
X120300714Y-43916904D01*
X120376905Y-43878809D01*
X120415000Y-43840713D01*
X120453095Y-43764523D01*
X120453095Y-43002618D02*
X120453095Y-42926427D01*
X120415000Y-42850237D01*
X120376905Y-42812142D01*
X120300714Y-42774046D01*
X120148333Y-42735951D01*
X119957857Y-42735951D01*
X119805476Y-42774046D01*
X119729286Y-42812142D01*
X119691190Y-42850237D01*
X119653095Y-42926427D01*
X119653095Y-43002618D01*
X119691190Y-43078808D01*
X119729286Y-43116904D01*
X119805476Y-43154999D01*
X119957857Y-43193094D01*
X120148333Y-43193094D01*
X120300714Y-43154999D01*
X120376905Y-43116904D01*
X120415000Y-43078808D01*
X120453095Y-43002618D01*
X119957857Y-42393094D02*
X119957857Y-41783570D01*
X117151190Y-46202619D02*
X117113095Y-46088333D01*
X117113095Y-45897857D01*
X117151190Y-45821667D01*
X117189286Y-45783571D01*
X117265476Y-45745476D01*
X117341667Y-45745476D01*
X117417857Y-45783571D01*
X117455952Y-45821667D01*
X117494048Y-45897857D01*
X117532143Y-46050238D01*
X117570238Y-46126429D01*
X117608333Y-46164524D01*
X117684524Y-46202619D01*
X117760714Y-46202619D01*
X117836905Y-46164524D01*
X117875000Y-46126429D01*
X117913095Y-46050238D01*
X117913095Y-45859762D01*
X117875000Y-45745476D01*
X118027381Y-45974048D02*
X116998810Y-45974048D01*
X117836905Y-45440714D02*
X117875000Y-45402619D01*
X117913095Y-45326428D01*
X117913095Y-45135952D01*
X117875000Y-45059762D01*
X117836905Y-45021666D01*
X117760714Y-44983571D01*
X117684524Y-44983571D01*
X117570238Y-45021666D01*
X117113095Y-45478809D01*
X117113095Y-44983571D01*
X117189286Y-44183571D02*
X117151190Y-44221666D01*
X117113095Y-44335952D01*
X117113095Y-44412142D01*
X117151190Y-44526428D01*
X117227381Y-44602619D01*
X117303571Y-44640714D01*
X117455952Y-44678809D01*
X117570238Y-44678809D01*
X117722619Y-44640714D01*
X117798810Y-44602619D01*
X117875000Y-44526428D01*
X117913095Y-44412142D01*
X117913095Y-44335952D01*
X117875000Y-44221666D01*
X117836905Y-44183571D01*
X117913095Y-43688333D02*
X117913095Y-43612142D01*
X117875000Y-43535952D01*
X117836905Y-43497857D01*
X117760714Y-43459761D01*
X117608333Y-43421666D01*
X117417857Y-43421666D01*
X117265476Y-43459761D01*
X117189286Y-43497857D01*
X117151190Y-43535952D01*
X117113095Y-43612142D01*
X117113095Y-43688333D01*
X117151190Y-43764523D01*
X117189286Y-43802619D01*
X117265476Y-43840714D01*
X117417857Y-43878809D01*
X117608333Y-43878809D01*
X117760714Y-43840714D01*
X117836905Y-43802619D01*
X117875000Y-43764523D01*
X117913095Y-43688333D01*
X117913095Y-42926428D02*
X117913095Y-42850237D01*
X117875000Y-42774047D01*
X117836905Y-42735952D01*
X117760714Y-42697856D01*
X117608333Y-42659761D01*
X117417857Y-42659761D01*
X117265476Y-42697856D01*
X117189286Y-42735952D01*
X117151190Y-42774047D01*
X117113095Y-42850237D01*
X117113095Y-42926428D01*
X117151190Y-43002618D01*
X117189286Y-43040714D01*
X117265476Y-43078809D01*
X117417857Y-43116904D01*
X117608333Y-43116904D01*
X117760714Y-43078809D01*
X117836905Y-43040714D01*
X117875000Y-43002618D01*
X117913095Y-42926428D01*
X117417857Y-42316904D02*
X117417857Y-41707380D01*
X114611190Y-46202619D02*
X114573095Y-46088333D01*
X114573095Y-45897857D01*
X114611190Y-45821667D01*
X114649286Y-45783571D01*
X114725476Y-45745476D01*
X114801667Y-45745476D01*
X114877857Y-45783571D01*
X114915952Y-45821667D01*
X114954048Y-45897857D01*
X114992143Y-46050238D01*
X115030238Y-46126429D01*
X115068333Y-46164524D01*
X115144524Y-46202619D01*
X115220714Y-46202619D01*
X115296905Y-46164524D01*
X115335000Y-46126429D01*
X115373095Y-46050238D01*
X115373095Y-45859762D01*
X115335000Y-45745476D01*
X115487381Y-45974048D02*
X114458810Y-45974048D01*
X115296905Y-45440714D02*
X115335000Y-45402619D01*
X115373095Y-45326428D01*
X115373095Y-45135952D01*
X115335000Y-45059762D01*
X115296905Y-45021666D01*
X115220714Y-44983571D01*
X115144524Y-44983571D01*
X115030238Y-45021666D01*
X114573095Y-45478809D01*
X114573095Y-44983571D01*
X114801667Y-44678809D02*
X114801667Y-44297857D01*
X114573095Y-44755000D02*
X115373095Y-44488333D01*
X114573095Y-44221666D01*
X115373095Y-43802619D02*
X115373095Y-43726428D01*
X115335000Y-43650238D01*
X115296905Y-43612143D01*
X115220714Y-43574047D01*
X115068333Y-43535952D01*
X114877857Y-43535952D01*
X114725476Y-43574047D01*
X114649286Y-43612143D01*
X114611190Y-43650238D01*
X114573095Y-43726428D01*
X114573095Y-43802619D01*
X114611190Y-43878809D01*
X114649286Y-43916905D01*
X114725476Y-43955000D01*
X114877857Y-43993095D01*
X115068333Y-43993095D01*
X115220714Y-43955000D01*
X115296905Y-43916905D01*
X115335000Y-43878809D01*
X115373095Y-43802619D01*
X115373095Y-43040714D02*
X115373095Y-42964523D01*
X115335000Y-42888333D01*
X115296905Y-42850238D01*
X115220714Y-42812142D01*
X115068333Y-42774047D01*
X114877857Y-42774047D01*
X114725476Y-42812142D01*
X114649286Y-42850238D01*
X114611190Y-42888333D01*
X114573095Y-42964523D01*
X114573095Y-43040714D01*
X114611190Y-43116904D01*
X114649286Y-43155000D01*
X114725476Y-43193095D01*
X114877857Y-43231190D01*
X115068333Y-43231190D01*
X115220714Y-43193095D01*
X115296905Y-43155000D01*
X115335000Y-43116904D01*
X115373095Y-43040714D01*
X114877857Y-42431190D02*
X114877857Y-41821666D01*
X112071190Y-46202619D02*
X112033095Y-46088333D01*
X112033095Y-45897857D01*
X112071190Y-45821667D01*
X112109286Y-45783571D01*
X112185476Y-45745476D01*
X112261667Y-45745476D01*
X112337857Y-45783571D01*
X112375952Y-45821667D01*
X112414048Y-45897857D01*
X112452143Y-46050238D01*
X112490238Y-46126429D01*
X112528333Y-46164524D01*
X112604524Y-46202619D01*
X112680714Y-46202619D01*
X112756905Y-46164524D01*
X112795000Y-46126429D01*
X112833095Y-46050238D01*
X112833095Y-45859762D01*
X112795000Y-45745476D01*
X112947381Y-45974048D02*
X111918810Y-45974048D01*
X112756905Y-45440714D02*
X112795000Y-45402619D01*
X112833095Y-45326428D01*
X112833095Y-45135952D01*
X112795000Y-45059762D01*
X112756905Y-45021666D01*
X112680714Y-44983571D01*
X112604524Y-44983571D01*
X112490238Y-45021666D01*
X112033095Y-45478809D01*
X112033095Y-44983571D01*
X112490238Y-44526428D02*
X112528333Y-44602619D01*
X112566429Y-44640714D01*
X112642619Y-44678809D01*
X112680714Y-44678809D01*
X112756905Y-44640714D01*
X112795000Y-44602619D01*
X112833095Y-44526428D01*
X112833095Y-44374047D01*
X112795000Y-44297857D01*
X112756905Y-44259761D01*
X112680714Y-44221666D01*
X112642619Y-44221666D01*
X112566429Y-44259761D01*
X112528333Y-44297857D01*
X112490238Y-44374047D01*
X112490238Y-44526428D01*
X112452143Y-44602619D01*
X112414048Y-44640714D01*
X112337857Y-44678809D01*
X112185476Y-44678809D01*
X112109286Y-44640714D01*
X112071190Y-44602619D01*
X112033095Y-44526428D01*
X112033095Y-44374047D01*
X112071190Y-44297857D01*
X112109286Y-44259761D01*
X112185476Y-44221666D01*
X112337857Y-44221666D01*
X112414048Y-44259761D01*
X112452143Y-44297857D01*
X112490238Y-44374047D01*
X112833095Y-43726428D02*
X112833095Y-43650237D01*
X112795000Y-43574047D01*
X112756905Y-43535952D01*
X112680714Y-43497856D01*
X112528333Y-43459761D01*
X112337857Y-43459761D01*
X112185476Y-43497856D01*
X112109286Y-43535952D01*
X112071190Y-43574047D01*
X112033095Y-43650237D01*
X112033095Y-43726428D01*
X112071190Y-43802618D01*
X112109286Y-43840714D01*
X112185476Y-43878809D01*
X112337857Y-43916904D01*
X112528333Y-43916904D01*
X112680714Y-43878809D01*
X112756905Y-43840714D01*
X112795000Y-43802618D01*
X112833095Y-43726428D01*
X112833095Y-42964523D02*
X112833095Y-42888332D01*
X112795000Y-42812142D01*
X112756905Y-42774047D01*
X112680714Y-42735951D01*
X112528333Y-42697856D01*
X112337857Y-42697856D01*
X112185476Y-42735951D01*
X112109286Y-42774047D01*
X112071190Y-42812142D01*
X112033095Y-42888332D01*
X112033095Y-42964523D01*
X112071190Y-43040713D01*
X112109286Y-43078809D01*
X112185476Y-43116904D01*
X112337857Y-43154999D01*
X112528333Y-43154999D01*
X112680714Y-43116904D01*
X112756905Y-43078809D01*
X112795000Y-43040713D01*
X112833095Y-42964523D01*
X112337857Y-42354999D02*
X112337857Y-41745475D01*
X109531190Y-46202619D02*
X109493095Y-46088333D01*
X109493095Y-45897857D01*
X109531190Y-45821667D01*
X109569286Y-45783571D01*
X109645476Y-45745476D01*
X109721667Y-45745476D01*
X109797857Y-45783571D01*
X109835952Y-45821667D01*
X109874048Y-45897857D01*
X109912143Y-46050238D01*
X109950238Y-46126429D01*
X109988333Y-46164524D01*
X110064524Y-46202619D01*
X110140714Y-46202619D01*
X110216905Y-46164524D01*
X110255000Y-46126429D01*
X110293095Y-46050238D01*
X110293095Y-45859762D01*
X110255000Y-45745476D01*
X110407381Y-45974048D02*
X109378810Y-45974048D01*
X110216905Y-45440714D02*
X110255000Y-45402619D01*
X110293095Y-45326428D01*
X110293095Y-45135952D01*
X110255000Y-45059762D01*
X110216905Y-45021666D01*
X110140714Y-44983571D01*
X110064524Y-44983571D01*
X109950238Y-45021666D01*
X109493095Y-45478809D01*
X109493095Y-44983571D01*
X110293095Y-44297857D02*
X110293095Y-44450238D01*
X110255000Y-44526428D01*
X110216905Y-44564523D01*
X110102619Y-44640714D01*
X109950238Y-44678809D01*
X109645476Y-44678809D01*
X109569286Y-44640714D01*
X109531190Y-44602619D01*
X109493095Y-44526428D01*
X109493095Y-44374047D01*
X109531190Y-44297857D01*
X109569286Y-44259761D01*
X109645476Y-44221666D01*
X109835952Y-44221666D01*
X109912143Y-44259761D01*
X109950238Y-44297857D01*
X109988333Y-44374047D01*
X109988333Y-44526428D01*
X109950238Y-44602619D01*
X109912143Y-44640714D01*
X109835952Y-44678809D01*
X110293095Y-43726428D02*
X110293095Y-43650237D01*
X110255000Y-43574047D01*
X110216905Y-43535952D01*
X110140714Y-43497856D01*
X109988333Y-43459761D01*
X109797857Y-43459761D01*
X109645476Y-43497856D01*
X109569286Y-43535952D01*
X109531190Y-43574047D01*
X109493095Y-43650237D01*
X109493095Y-43726428D01*
X109531190Y-43802618D01*
X109569286Y-43840714D01*
X109645476Y-43878809D01*
X109797857Y-43916904D01*
X109988333Y-43916904D01*
X110140714Y-43878809D01*
X110216905Y-43840714D01*
X110255000Y-43802618D01*
X110293095Y-43726428D01*
X110293095Y-42964523D02*
X110293095Y-42888332D01*
X110255000Y-42812142D01*
X110216905Y-42774047D01*
X110140714Y-42735951D01*
X109988333Y-42697856D01*
X109797857Y-42697856D01*
X109645476Y-42735951D01*
X109569286Y-42774047D01*
X109531190Y-42812142D01*
X109493095Y-42888332D01*
X109493095Y-42964523D01*
X109531190Y-43040713D01*
X109569286Y-43078809D01*
X109645476Y-43116904D01*
X109797857Y-43154999D01*
X109988333Y-43154999D01*
X110140714Y-43116904D01*
X110216905Y-43078809D01*
X110255000Y-43040713D01*
X110293095Y-42964523D01*
X109797857Y-42354999D02*
X109797857Y-41745475D01*
X106991190Y-46202619D02*
X106953095Y-46088333D01*
X106953095Y-45897857D01*
X106991190Y-45821667D01*
X107029286Y-45783571D01*
X107105476Y-45745476D01*
X107181667Y-45745476D01*
X107257857Y-45783571D01*
X107295952Y-45821667D01*
X107334048Y-45897857D01*
X107372143Y-46050238D01*
X107410238Y-46126429D01*
X107448333Y-46164524D01*
X107524524Y-46202619D01*
X107600714Y-46202619D01*
X107676905Y-46164524D01*
X107715000Y-46126429D01*
X107753095Y-46050238D01*
X107753095Y-45859762D01*
X107715000Y-45745476D01*
X107867381Y-45974048D02*
X106838810Y-45974048D01*
X107676905Y-45440714D02*
X107715000Y-45402619D01*
X107753095Y-45326428D01*
X107753095Y-45135952D01*
X107715000Y-45059762D01*
X107676905Y-45021666D01*
X107600714Y-44983571D01*
X107524524Y-44983571D01*
X107410238Y-45021666D01*
X106953095Y-45478809D01*
X106953095Y-44983571D01*
X107486429Y-44297857D02*
X106953095Y-44297857D01*
X107791190Y-44488333D02*
X107219762Y-44678809D01*
X107219762Y-44183571D01*
X107753095Y-43726428D02*
X107753095Y-43650237D01*
X107715000Y-43574047D01*
X107676905Y-43535952D01*
X107600714Y-43497856D01*
X107448333Y-43459761D01*
X107257857Y-43459761D01*
X107105476Y-43497856D01*
X107029286Y-43535952D01*
X106991190Y-43574047D01*
X106953095Y-43650237D01*
X106953095Y-43726428D01*
X106991190Y-43802618D01*
X107029286Y-43840714D01*
X107105476Y-43878809D01*
X107257857Y-43916904D01*
X107448333Y-43916904D01*
X107600714Y-43878809D01*
X107676905Y-43840714D01*
X107715000Y-43802618D01*
X107753095Y-43726428D01*
X107753095Y-42964523D02*
X107753095Y-42888332D01*
X107715000Y-42812142D01*
X107676905Y-42774047D01*
X107600714Y-42735951D01*
X107448333Y-42697856D01*
X107257857Y-42697856D01*
X107105476Y-42735951D01*
X107029286Y-42774047D01*
X106991190Y-42812142D01*
X106953095Y-42888332D01*
X106953095Y-42964523D01*
X106991190Y-43040713D01*
X107029286Y-43078809D01*
X107105476Y-43116904D01*
X107257857Y-43154999D01*
X107448333Y-43154999D01*
X107600714Y-43116904D01*
X107676905Y-43078809D01*
X107715000Y-43040713D01*
X107753095Y-42964523D01*
X107257857Y-42354999D02*
X107257857Y-41745475D01*
X103181190Y-46202619D02*
X103143095Y-46088333D01*
X103143095Y-45897857D01*
X103181190Y-45821667D01*
X103219286Y-45783571D01*
X103295476Y-45745476D01*
X103371667Y-45745476D01*
X103447857Y-45783571D01*
X103485952Y-45821667D01*
X103524048Y-45897857D01*
X103562143Y-46050238D01*
X103600238Y-46126429D01*
X103638333Y-46164524D01*
X103714524Y-46202619D01*
X103790714Y-46202619D01*
X103866905Y-46164524D01*
X103905000Y-46126429D01*
X103943095Y-46050238D01*
X103943095Y-45859762D01*
X103905000Y-45745476D01*
X104057381Y-45974048D02*
X103028810Y-45974048D01*
X103866905Y-45440714D02*
X103905000Y-45402619D01*
X103943095Y-45326428D01*
X103943095Y-45135952D01*
X103905000Y-45059762D01*
X103866905Y-45021666D01*
X103790714Y-44983571D01*
X103714524Y-44983571D01*
X103600238Y-45021666D01*
X103143095Y-45478809D01*
X103143095Y-44983571D01*
X103866905Y-44678809D02*
X103905000Y-44640714D01*
X103943095Y-44564523D01*
X103943095Y-44374047D01*
X103905000Y-44297857D01*
X103866905Y-44259761D01*
X103790714Y-44221666D01*
X103714524Y-44221666D01*
X103600238Y-44259761D01*
X103143095Y-44716904D01*
X103143095Y-44221666D01*
X103943095Y-43726428D02*
X103943095Y-43650237D01*
X103905000Y-43574047D01*
X103866905Y-43535952D01*
X103790714Y-43497856D01*
X103638333Y-43459761D01*
X103447857Y-43459761D01*
X103295476Y-43497856D01*
X103219286Y-43535952D01*
X103181190Y-43574047D01*
X103143095Y-43650237D01*
X103143095Y-43726428D01*
X103181190Y-43802618D01*
X103219286Y-43840714D01*
X103295476Y-43878809D01*
X103447857Y-43916904D01*
X103638333Y-43916904D01*
X103790714Y-43878809D01*
X103866905Y-43840714D01*
X103905000Y-43802618D01*
X103943095Y-43726428D01*
X103143095Y-42697856D02*
X103143095Y-43154999D01*
X103143095Y-42926428D02*
X103943095Y-42926428D01*
X103828810Y-43002618D01*
X103752619Y-43078809D01*
X103714524Y-43154999D01*
X104451190Y-46202619D02*
X104413095Y-46088333D01*
X104413095Y-45897857D01*
X104451190Y-45821667D01*
X104489286Y-45783571D01*
X104565476Y-45745476D01*
X104641667Y-45745476D01*
X104717857Y-45783571D01*
X104755952Y-45821667D01*
X104794048Y-45897857D01*
X104832143Y-46050238D01*
X104870238Y-46126429D01*
X104908333Y-46164524D01*
X104984524Y-46202619D01*
X105060714Y-46202619D01*
X105136905Y-46164524D01*
X105175000Y-46126429D01*
X105213095Y-46050238D01*
X105213095Y-45859762D01*
X105175000Y-45745476D01*
X105327381Y-45974048D02*
X104298810Y-45974048D01*
X105136905Y-45440714D02*
X105175000Y-45402619D01*
X105213095Y-45326428D01*
X105213095Y-45135952D01*
X105175000Y-45059762D01*
X105136905Y-45021666D01*
X105060714Y-44983571D01*
X104984524Y-44983571D01*
X104870238Y-45021666D01*
X104413095Y-45478809D01*
X104413095Y-44983571D01*
X105136905Y-44678809D02*
X105175000Y-44640714D01*
X105213095Y-44564523D01*
X105213095Y-44374047D01*
X105175000Y-44297857D01*
X105136905Y-44259761D01*
X105060714Y-44221666D01*
X104984524Y-44221666D01*
X104870238Y-44259761D01*
X104413095Y-44716904D01*
X104413095Y-44221666D01*
X105213095Y-43726428D02*
X105213095Y-43650237D01*
X105175000Y-43574047D01*
X105136905Y-43535952D01*
X105060714Y-43497856D01*
X104908333Y-43459761D01*
X104717857Y-43459761D01*
X104565476Y-43497856D01*
X104489286Y-43535952D01*
X104451190Y-43574047D01*
X104413095Y-43650237D01*
X104413095Y-43726428D01*
X104451190Y-43802618D01*
X104489286Y-43840714D01*
X104565476Y-43878809D01*
X104717857Y-43916904D01*
X104908333Y-43916904D01*
X105060714Y-43878809D01*
X105136905Y-43840714D01*
X105175000Y-43802618D01*
X105213095Y-43726428D01*
X105213095Y-42964523D02*
X105213095Y-42888332D01*
X105175000Y-42812142D01*
X105136905Y-42774047D01*
X105060714Y-42735951D01*
X104908333Y-42697856D01*
X104717857Y-42697856D01*
X104565476Y-42735951D01*
X104489286Y-42774047D01*
X104451190Y-42812142D01*
X104413095Y-42888332D01*
X104413095Y-42964523D01*
X104451190Y-43040713D01*
X104489286Y-43078809D01*
X104565476Y-43116904D01*
X104717857Y-43154999D01*
X104908333Y-43154999D01*
X105060714Y-43116904D01*
X105136905Y-43078809D01*
X105175000Y-43040713D01*
X105213095Y-42964523D01*
X104717857Y-42354999D02*
X104717857Y-41745475D01*
D13*
X195750000Y-55940000D02*
X195750000Y-40580000D01*
X195750000Y-40580000D02*
X198410000Y-40580000D01*
X198410000Y-40580000D02*
X198410000Y-55940000D01*
X198410000Y-55940000D02*
X195750000Y-55940000D01*
X198410000Y-54990000D02*
X204410000Y-54990000D01*
X204410000Y-54990000D02*
X204410000Y-54230000D01*
X204410000Y-54230000D02*
X198410000Y-54230000D01*
X198410000Y-54930000D02*
X204410000Y-54930000D01*
X198410000Y-54810000D02*
X204410000Y-54810000D01*
X198410000Y-54690000D02*
X204410000Y-54690000D01*
X198410000Y-54570000D02*
X204410000Y-54570000D01*
X198410000Y-54450000D02*
X204410000Y-54450000D01*
X198410000Y-54330000D02*
X204410000Y-54330000D01*
X195420000Y-54990000D02*
X195750000Y-54990000D01*
X195420000Y-54230000D02*
X195750000Y-54230000D01*
X195750000Y-53340000D02*
X198410000Y-53340000D01*
X198410000Y-52450000D02*
X204410000Y-52450000D01*
X204410000Y-52450000D02*
X204410000Y-51690000D01*
X204410000Y-51690000D02*
X198410000Y-51690000D01*
X195352929Y-52450000D02*
X195750000Y-52450000D01*
X195352929Y-51690000D02*
X195750000Y-51690000D01*
X195750000Y-50800000D02*
X198410000Y-50800000D01*
X198410000Y-49910000D02*
X204410000Y-49910000D01*
X204410000Y-49910000D02*
X204410000Y-49150000D01*
X204410000Y-49150000D02*
X198410000Y-49150000D01*
X195352929Y-49910000D02*
X195750000Y-49910000D01*
X195352929Y-49150000D02*
X195750000Y-49150000D01*
X195750000Y-48260000D02*
X198410000Y-48260000D01*
X198410000Y-47370000D02*
X204410000Y-47370000D01*
X204410000Y-47370000D02*
X204410000Y-46610000D01*
X204410000Y-46610000D02*
X198410000Y-46610000D01*
X195352929Y-47370000D02*
X195750000Y-47370000D01*
X195352929Y-46610000D02*
X195750000Y-46610000D01*
X195750000Y-45720000D02*
X198410000Y-45720000D01*
X198410000Y-44830000D02*
X204410000Y-44830000D01*
X204410000Y-44830000D02*
X204410000Y-44070000D01*
X204410000Y-44070000D02*
X198410000Y-44070000D01*
X195352929Y-44830000D02*
X195750000Y-44830000D01*
X195352929Y-44070000D02*
X195750000Y-44070000D01*
X195750000Y-43180000D02*
X198410000Y-43180000D01*
X198410000Y-42290000D02*
X204410000Y-42290000D01*
X204410000Y-42290000D02*
X204410000Y-41530000D01*
X204410000Y-41530000D02*
X198410000Y-41530000D01*
X195352929Y-42290000D02*
X195750000Y-42290000D01*
X195352929Y-41530000D02*
X195750000Y-41530000D01*
X193040000Y-54610000D02*
X193040000Y-55880000D01*
X193040000Y-55880000D02*
X194310000Y-55880000D01*
D11*
X199028333Y-56332381D02*
X199028333Y-57046667D01*
X199075953Y-57189524D01*
X199171191Y-57284762D01*
X199314048Y-57332381D01*
X199409286Y-57332381D01*
X198599762Y-56427619D02*
X198552143Y-56380000D01*
X198456905Y-56332381D01*
X198218809Y-56332381D01*
X198123571Y-56380000D01*
X198075952Y-56427619D01*
X198028333Y-56522857D01*
X198028333Y-56618095D01*
X198075952Y-56760952D01*
X198647381Y-57332381D01*
X198028333Y-57332381D01*
M02*
