G04 #@! TF.FileFunction,Copper,L2,Bot,Signal*
%FSLAX46Y46*%
G04 Gerber Fmt 4.6, Leading zero omitted, Abs format (unit mm)*
G04 Created by KiCad (PCBNEW 4.0.7) date 09/22/19 23:17:32*
%MOMM*%
%LPD*%
G01*
G04 APERTURE LIST*
%ADD10C,0.100000*%
%ADD11C,1.600000*%
%ADD12R,1.700000X1.700000*%
%ADD13O,1.700000X1.700000*%
%ADD14O,1.600000X1.600000*%
%ADD15R,1.600000X1.600000*%
%ADD16C,0.600000*%
%ADD17C,0.250000*%
%ADD18C,0.254000*%
G04 APERTURE END LIST*
D10*
D11*
X146685000Y-51435000D03*
X146685000Y-56435000D03*
X113665000Y-51435000D03*
X113665000Y-56435000D03*
X128905000Y-51435000D03*
X128905000Y-56435000D03*
D12*
X197485000Y-80010000D03*
D13*
X194945000Y-80010000D03*
X192405000Y-80010000D03*
X189865000Y-80010000D03*
X187325000Y-80010000D03*
X184785000Y-80010000D03*
X182245000Y-80010000D03*
X179705000Y-80010000D03*
X177165000Y-80010000D03*
X174625000Y-80010000D03*
X172085000Y-80010000D03*
X169545000Y-80010000D03*
X167005000Y-80010000D03*
X164465000Y-80010000D03*
X161925000Y-80010000D03*
X159385000Y-80010000D03*
X156845000Y-80010000D03*
X154305000Y-80010000D03*
X151765000Y-80010000D03*
X149225000Y-80010000D03*
X146685000Y-80010000D03*
X144145000Y-80010000D03*
X141605000Y-80010000D03*
X139065000Y-80010000D03*
X136525000Y-80010000D03*
X133985000Y-80010000D03*
X131445000Y-80010000D03*
X128905000Y-80010000D03*
X126365000Y-80010000D03*
X123825000Y-80010000D03*
X121285000Y-80010000D03*
X118745000Y-80010000D03*
X116205000Y-80010000D03*
X113665000Y-80010000D03*
X111125000Y-80010000D03*
X108585000Y-80010000D03*
X106045000Y-80010000D03*
X103505000Y-80010000D03*
X100965000Y-80010000D03*
D12*
X194310000Y-54610000D03*
D13*
X194310000Y-52070000D03*
X194310000Y-49530000D03*
X194310000Y-46990000D03*
X194310000Y-44450000D03*
X194310000Y-41910000D03*
D12*
X104140000Y-40005000D03*
D13*
X104140000Y-37465000D03*
X106680000Y-40005000D03*
X106680000Y-37465000D03*
X109220000Y-40005000D03*
X109220000Y-37465000D03*
X111760000Y-40005000D03*
X111760000Y-37465000D03*
X114300000Y-40005000D03*
X114300000Y-37465000D03*
X116840000Y-40005000D03*
X116840000Y-37465000D03*
X119380000Y-40005000D03*
X119380000Y-37465000D03*
D12*
X173355000Y-37465000D03*
D13*
X173355000Y-40005000D03*
D12*
X178435000Y-37465000D03*
D13*
X178435000Y-40005000D03*
D12*
X155575000Y-37465000D03*
D13*
X155575000Y-40005000D03*
X155575000Y-42545000D03*
D12*
X160655000Y-37465000D03*
D13*
X160655000Y-40005000D03*
X160655000Y-42545000D03*
D11*
X194310000Y-66675000D03*
D14*
X184150000Y-66675000D03*
D11*
X194310000Y-62865000D03*
D14*
X184150000Y-62865000D03*
D11*
X194310000Y-59055000D03*
D14*
X184150000Y-59055000D03*
D15*
X117475000Y-51435000D03*
D14*
X125095000Y-66675000D03*
X117475000Y-53975000D03*
X125095000Y-64135000D03*
X117475000Y-56515000D03*
X125095000Y-61595000D03*
X117475000Y-59055000D03*
X125095000Y-59055000D03*
X117475000Y-61595000D03*
X125095000Y-56515000D03*
X117475000Y-64135000D03*
X125095000Y-53975000D03*
X117475000Y-66675000D03*
X125095000Y-51435000D03*
D15*
X102235000Y-51435000D03*
D14*
X109855000Y-69215000D03*
X102235000Y-53975000D03*
X109855000Y-66675000D03*
X102235000Y-56515000D03*
X109855000Y-64135000D03*
X102235000Y-59055000D03*
X109855000Y-61595000D03*
X102235000Y-61595000D03*
X109855000Y-59055000D03*
X102235000Y-64135000D03*
X109855000Y-56515000D03*
X102235000Y-66675000D03*
X109855000Y-53975000D03*
X102235000Y-69215000D03*
X109855000Y-51435000D03*
D15*
X141605000Y-68580000D03*
D11*
X133985000Y-68580000D03*
X133985000Y-53340000D03*
X141605000Y-53340000D03*
D15*
X178435000Y-51435000D03*
D14*
X150495000Y-66675000D03*
X175895000Y-51435000D03*
X153035000Y-66675000D03*
X173355000Y-51435000D03*
X155575000Y-66675000D03*
X170815000Y-51435000D03*
X158115000Y-66675000D03*
X168275000Y-51435000D03*
X160655000Y-66675000D03*
X165735000Y-51435000D03*
X163195000Y-66675000D03*
X163195000Y-51435000D03*
X165735000Y-66675000D03*
X160655000Y-51435000D03*
X168275000Y-66675000D03*
X158115000Y-51435000D03*
X170815000Y-66675000D03*
X155575000Y-51435000D03*
X173355000Y-66675000D03*
X153035000Y-51435000D03*
X175895000Y-66675000D03*
X150495000Y-51435000D03*
X178435000Y-66675000D03*
D16*
X100330000Y-49530000D03*
X133985000Y-76200000D03*
X135255000Y-78740000D03*
X103505000Y-76200000D03*
X154305000Y-76835000D03*
X153670000Y-77470000D03*
X104775000Y-77470000D03*
X153035000Y-78105000D03*
X106680000Y-78105000D03*
X154305000Y-70485000D03*
X154940000Y-76200000D03*
X158750000Y-76835000D03*
X153035000Y-76200000D03*
X153035000Y-70485000D03*
X151765000Y-76200000D03*
X151765000Y-70485000D03*
X151765000Y-49530000D03*
X152400000Y-46355000D03*
X147955000Y-76200000D03*
X148590000Y-70485000D03*
X196850000Y-53975000D03*
X192405000Y-58420000D03*
X190500000Y-53340000D03*
X105410000Y-55880000D03*
X106045000Y-58420000D03*
X106680000Y-60960000D03*
X107315000Y-63500000D03*
X107950000Y-66040000D03*
X105410000Y-67945000D03*
X111125000Y-67945000D03*
X127635000Y-47625000D03*
X133985000Y-49530000D03*
X134620000Y-46355000D03*
X158750000Y-49530000D03*
X127000000Y-46990000D03*
X170815000Y-40005000D03*
X169545000Y-37465000D03*
X164465000Y-46990000D03*
X175895000Y-53975000D03*
X150495000Y-53340000D03*
X147955000Y-69850000D03*
X150495000Y-76200000D03*
D17*
X133985000Y-68580000D02*
X133985000Y-76200000D01*
X154305000Y-80010000D02*
X154305000Y-79375000D01*
X154305000Y-79375000D02*
X153670000Y-78740000D01*
X100330000Y-78105000D02*
X100330000Y-77470000D01*
X100965000Y-78740000D02*
X100330000Y-78105000D01*
X153670000Y-78740000D02*
X135255000Y-78740000D01*
X135255000Y-78740000D02*
X100965000Y-78740000D01*
X100330000Y-63500000D02*
X100330000Y-77470000D01*
X178435000Y-37465000D02*
X178435000Y-36830000D01*
X178435000Y-36830000D02*
X177800000Y-36195000D01*
X100330000Y-38735000D02*
X100330000Y-49530000D01*
X102870000Y-36195000D02*
X100330000Y-38735000D01*
X177800000Y-36195000D02*
X158115000Y-36195000D01*
X158115000Y-36195000D02*
X102870000Y-36195000D01*
X100330000Y-49530000D02*
X100330000Y-63500000D01*
X100330000Y-63500000D02*
X100965000Y-64135000D01*
X100965000Y-64135000D02*
X102235000Y-64135000D01*
X103505000Y-76200000D02*
X104140000Y-76835000D01*
X104140000Y-76835000D02*
X113030000Y-76835000D01*
X154305000Y-76835000D02*
X113030000Y-76835000D01*
X153670000Y-77470000D02*
X112395000Y-77470000D01*
X104775000Y-77470000D02*
X112395000Y-77470000D01*
X153035000Y-78105000D02*
X111125000Y-78105000D01*
X106680000Y-78105000D02*
X111125000Y-78105000D01*
X154305000Y-70485000D02*
X154305000Y-75565000D01*
X154305000Y-75565000D02*
X154940000Y-76200000D01*
X158750000Y-76835000D02*
X159385000Y-77470000D01*
X159385000Y-77470000D02*
X159385000Y-80010000D01*
X153035000Y-76200000D02*
X153035000Y-70485000D01*
X151765000Y-70485000D02*
X151765000Y-76200000D01*
X151765000Y-49530000D02*
X152400000Y-48895000D01*
X152400000Y-48895000D02*
X152400000Y-46355000D01*
X148590000Y-75565000D02*
X147955000Y-76200000D01*
X148590000Y-70485000D02*
X148590000Y-75565000D01*
X196215000Y-54610000D02*
X194310000Y-54610000D01*
X196850000Y-53975000D02*
X196215000Y-54610000D01*
X194310000Y-49530000D02*
X193040000Y-49530000D01*
X192405000Y-50165000D02*
X193040000Y-49530000D01*
X192405000Y-50165000D02*
X192405000Y-58420000D01*
X192405000Y-44450000D02*
X191770000Y-44450000D01*
X191135000Y-45085000D02*
X191770000Y-44450000D01*
X191135000Y-52705000D02*
X191135000Y-45085000D01*
X191135000Y-52705000D02*
X190500000Y-53340000D01*
X194310000Y-44450000D02*
X192405000Y-44450000D01*
X104140000Y-49530000D02*
X104140000Y-40005000D01*
X105410000Y-50800000D02*
X104140000Y-49530000D01*
X105410000Y-55880000D02*
X105410000Y-50800000D01*
X106680000Y-40005000D02*
X106680000Y-46355000D01*
X106045000Y-46990000D02*
X106045000Y-58420000D01*
X106680000Y-46355000D02*
X106045000Y-46990000D01*
X109220000Y-40005000D02*
X109220000Y-46355000D01*
X106680000Y-47625000D02*
X106680000Y-60960000D01*
X107315000Y-46990000D02*
X106680000Y-47625000D01*
X108585000Y-46990000D02*
X107315000Y-46990000D01*
X109220000Y-46355000D02*
X108585000Y-46990000D01*
X111760000Y-40005000D02*
X111760000Y-46990000D01*
X107315000Y-48260000D02*
X107315000Y-63500000D01*
X107950000Y-47625000D02*
X107315000Y-48260000D01*
X111125000Y-47625000D02*
X107950000Y-47625000D01*
X111760000Y-46990000D02*
X111125000Y-47625000D01*
X114300000Y-40005000D02*
X114300000Y-47625000D01*
X107950000Y-48895000D02*
X107950000Y-66040000D01*
X108585000Y-48260000D02*
X107950000Y-48895000D01*
X113665000Y-48260000D02*
X108585000Y-48260000D01*
X114300000Y-47625000D02*
X113665000Y-48260000D01*
X116840000Y-40005000D02*
X116840000Y-48260000D01*
X108585000Y-68580000D02*
X109220000Y-69215000D01*
X108585000Y-49530000D02*
X108585000Y-68580000D01*
X109220000Y-48895000D02*
X108585000Y-49530000D01*
X116205000Y-48895000D02*
X109220000Y-48895000D01*
X116840000Y-48260000D02*
X116205000Y-48895000D01*
X109220000Y-69215000D02*
X109855000Y-69215000D01*
X119380000Y-40005000D02*
X119380000Y-48895000D01*
X103505000Y-67945000D02*
X102235000Y-66675000D01*
X105410000Y-67945000D02*
X103505000Y-67945000D01*
X111125000Y-50165000D02*
X111125000Y-67945000D01*
X111760000Y-49530000D02*
X111125000Y-50165000D01*
X118745000Y-49530000D02*
X111760000Y-49530000D01*
X119380000Y-48895000D02*
X118745000Y-49530000D01*
X125095000Y-56515000D02*
X126365000Y-56515000D01*
X127000000Y-48260000D02*
X127635000Y-47625000D01*
X127000000Y-55880000D02*
X127000000Y-48260000D01*
X126365000Y-56515000D02*
X127000000Y-55880000D01*
X133985000Y-46990000D02*
X133985000Y-49530000D01*
X134620000Y-46355000D02*
X133985000Y-46990000D01*
X158115000Y-48260000D02*
X158115000Y-48895000D01*
X158115000Y-48895000D02*
X158750000Y-49530000D01*
X155575000Y-40005000D02*
X157480000Y-40005000D01*
X158115000Y-40640000D02*
X157480000Y-40005000D01*
X158115000Y-48260000D02*
X158115000Y-40640000D01*
X125095000Y-53975000D02*
X125730000Y-53975000D01*
X125730000Y-53975000D02*
X126365000Y-53340000D01*
X126365000Y-53340000D02*
X126365000Y-47625000D01*
X126365000Y-47625000D02*
X127000000Y-46990000D01*
X170180000Y-37465000D02*
X170815000Y-38100000D01*
X170815000Y-38100000D02*
X170815000Y-40005000D01*
X169545000Y-37465000D02*
X170180000Y-37465000D01*
X164465000Y-49530000D02*
X163195000Y-50800000D01*
X164465000Y-46990000D02*
X164465000Y-49530000D01*
X163195000Y-50800000D02*
X163195000Y-51435000D01*
X175895000Y-53975000D02*
X175895000Y-51435000D01*
X160655000Y-42545000D02*
X160020000Y-42545000D01*
X160020000Y-42545000D02*
X159385000Y-43180000D01*
X159385000Y-43180000D02*
X159385000Y-52705000D01*
X159385000Y-52705000D02*
X151130000Y-52705000D01*
X151130000Y-52705000D02*
X150495000Y-53340000D01*
X150495000Y-70485000D02*
X149860000Y-69850000D01*
X148590000Y-69850000D02*
X147955000Y-69850000D01*
X149860000Y-69850000D02*
X148590000Y-69850000D01*
X150495000Y-76200000D02*
X150495000Y-70485000D01*
D18*
G36*
X198045000Y-40299092D02*
X198045000Y-78512560D01*
X196635000Y-78512560D01*
X196399683Y-78556838D01*
X196183559Y-78695910D01*
X196038569Y-78908110D01*
X196024914Y-78975541D01*
X195995054Y-78930853D01*
X195513285Y-78608946D01*
X194945000Y-78495907D01*
X194376715Y-78608946D01*
X193894946Y-78930853D01*
X193675000Y-79260026D01*
X193455054Y-78930853D01*
X192973285Y-78608946D01*
X192405000Y-78495907D01*
X191836715Y-78608946D01*
X191354946Y-78930853D01*
X191135000Y-79260026D01*
X190915054Y-78930853D01*
X190433285Y-78608946D01*
X189865000Y-78495907D01*
X189296715Y-78608946D01*
X188814946Y-78930853D01*
X188595000Y-79260026D01*
X188375054Y-78930853D01*
X187893285Y-78608946D01*
X187325000Y-78495907D01*
X186756715Y-78608946D01*
X186274946Y-78930853D01*
X186055000Y-79260026D01*
X185835054Y-78930853D01*
X185353285Y-78608946D01*
X184785000Y-78495907D01*
X184216715Y-78608946D01*
X183734946Y-78930853D01*
X183515000Y-79260026D01*
X183295054Y-78930853D01*
X182813285Y-78608946D01*
X182245000Y-78495907D01*
X181676715Y-78608946D01*
X181194946Y-78930853D01*
X180975000Y-79260026D01*
X180755054Y-78930853D01*
X180273285Y-78608946D01*
X179705000Y-78495907D01*
X179136715Y-78608946D01*
X178654946Y-78930853D01*
X178435000Y-79260026D01*
X178215054Y-78930853D01*
X177733285Y-78608946D01*
X177165000Y-78495907D01*
X176596715Y-78608946D01*
X176114946Y-78930853D01*
X175895000Y-79260026D01*
X175675054Y-78930853D01*
X175193285Y-78608946D01*
X174625000Y-78495907D01*
X174056715Y-78608946D01*
X173574946Y-78930853D01*
X173355000Y-79260026D01*
X173135054Y-78930853D01*
X172653285Y-78608946D01*
X172085000Y-78495907D01*
X171516715Y-78608946D01*
X171034946Y-78930853D01*
X170815000Y-79260026D01*
X170595054Y-78930853D01*
X170113285Y-78608946D01*
X169545000Y-78495907D01*
X168976715Y-78608946D01*
X168494946Y-78930853D01*
X168275000Y-79260026D01*
X168055054Y-78930853D01*
X167573285Y-78608946D01*
X167005000Y-78495907D01*
X166436715Y-78608946D01*
X165954946Y-78930853D01*
X165735000Y-79260026D01*
X165515054Y-78930853D01*
X165033285Y-78608946D01*
X164465000Y-78495907D01*
X163896715Y-78608946D01*
X163414946Y-78930853D01*
X163195000Y-79260026D01*
X162975054Y-78930853D01*
X162493285Y-78608946D01*
X161925000Y-78495907D01*
X161356715Y-78608946D01*
X160874946Y-78930853D01*
X160655000Y-79260026D01*
X160435054Y-78930853D01*
X160145000Y-78737046D01*
X160145000Y-77470000D01*
X160087148Y-77179161D01*
X159922401Y-76932599D01*
X159685122Y-76695320D01*
X159685162Y-76649833D01*
X159543117Y-76306057D01*
X159280327Y-76042808D01*
X158936799Y-75900162D01*
X158564833Y-75899838D01*
X158221057Y-76041883D01*
X157957808Y-76304673D01*
X157815162Y-76648201D01*
X157814838Y-77020167D01*
X157956883Y-77363943D01*
X158219673Y-77627192D01*
X158563201Y-77769838D01*
X158610077Y-77769879D01*
X158625000Y-77784802D01*
X158625000Y-78737046D01*
X158334946Y-78930853D01*
X158107298Y-79271553D01*
X158040183Y-79128642D01*
X157611924Y-78738355D01*
X157201890Y-78568524D01*
X156972000Y-78689845D01*
X156972000Y-79883000D01*
X156992000Y-79883000D01*
X156992000Y-80137000D01*
X156972000Y-80137000D01*
X156972000Y-80157000D01*
X156718000Y-80157000D01*
X156718000Y-80137000D01*
X156698000Y-80137000D01*
X156698000Y-79883000D01*
X156718000Y-79883000D01*
X156718000Y-78689845D01*
X156488110Y-78568524D01*
X156078076Y-78738355D01*
X155649817Y-79128642D01*
X155582702Y-79271553D01*
X155355054Y-78930853D01*
X154873285Y-78608946D01*
X154549304Y-78544502D01*
X154233461Y-78228659D01*
X154462192Y-78000327D01*
X154571765Y-77736446D01*
X154833943Y-77628117D01*
X155097192Y-77365327D01*
X155206765Y-77101446D01*
X155468943Y-76993117D01*
X155732192Y-76730327D01*
X155874838Y-76386799D01*
X155875162Y-76014833D01*
X155733117Y-75671057D01*
X155470327Y-75407808D01*
X155126799Y-75265162D01*
X155079923Y-75265121D01*
X155065000Y-75250198D01*
X155065000Y-71047463D01*
X155097192Y-71015327D01*
X155239838Y-70671799D01*
X155240162Y-70299833D01*
X155098117Y-69956057D01*
X154835327Y-69692808D01*
X154491799Y-69550162D01*
X154119833Y-69549838D01*
X153776057Y-69691883D01*
X153670046Y-69797710D01*
X153565327Y-69692808D01*
X153221799Y-69550162D01*
X152849833Y-69549838D01*
X152506057Y-69691883D01*
X152400046Y-69797710D01*
X152295327Y-69692808D01*
X151951799Y-69550162D01*
X151579833Y-69549838D01*
X151236057Y-69691883D01*
X151006171Y-69921369D01*
X150397401Y-69312599D01*
X150150839Y-69147852D01*
X149860000Y-69090000D01*
X148517463Y-69090000D01*
X148485327Y-69057808D01*
X148141799Y-68915162D01*
X147769833Y-68914838D01*
X147426057Y-69056883D01*
X147162808Y-69319673D01*
X147020162Y-69663201D01*
X147019838Y-70035167D01*
X147161883Y-70378943D01*
X147424673Y-70642192D01*
X147688554Y-70751765D01*
X147796883Y-71013943D01*
X147830000Y-71047118D01*
X147830000Y-75250198D01*
X147815320Y-75264878D01*
X147769833Y-75264838D01*
X147426057Y-75406883D01*
X147162808Y-75669673D01*
X147020162Y-76013201D01*
X147020108Y-76075000D01*
X134920110Y-76075000D01*
X134920162Y-76014833D01*
X134778117Y-75671057D01*
X134745000Y-75637882D01*
X134745000Y-69818646D01*
X134796800Y-69797243D01*
X135200824Y-69393923D01*
X135419750Y-68866691D01*
X135420248Y-68295813D01*
X135207119Y-67780000D01*
X140157560Y-67780000D01*
X140157560Y-69380000D01*
X140201838Y-69615317D01*
X140340910Y-69831441D01*
X140553110Y-69976431D01*
X140805000Y-70027440D01*
X142405000Y-70027440D01*
X142640317Y-69983162D01*
X142856441Y-69844090D01*
X143001431Y-69631890D01*
X143052440Y-69380000D01*
X143052440Y-67780000D01*
X143008162Y-67544683D01*
X142869090Y-67328559D01*
X142656890Y-67183569D01*
X142405000Y-67132560D01*
X140805000Y-67132560D01*
X140569683Y-67176838D01*
X140353559Y-67315910D01*
X140208569Y-67528110D01*
X140157560Y-67780000D01*
X135207119Y-67780000D01*
X135202243Y-67768200D01*
X134798923Y-67364176D01*
X134271691Y-67145250D01*
X133700813Y-67144752D01*
X133173200Y-67362757D01*
X132769176Y-67766077D01*
X132550250Y-68293309D01*
X132549752Y-68864187D01*
X132767757Y-69391800D01*
X133171077Y-69795824D01*
X133225000Y-69818215D01*
X133225000Y-75637537D01*
X133192808Y-75669673D01*
X133050162Y-76013201D01*
X133050108Y-76075000D01*
X104454802Y-76075000D01*
X104440122Y-76060320D01*
X104440162Y-76014833D01*
X104298117Y-75671057D01*
X104035327Y-75407808D01*
X103691799Y-75265162D01*
X103319833Y-75264838D01*
X102976057Y-75406883D01*
X102712808Y-75669673D01*
X102570162Y-76013201D01*
X102569838Y-76385167D01*
X102711883Y-76728943D01*
X102974673Y-76992192D01*
X103318201Y-77134838D01*
X103365077Y-77134879D01*
X103602599Y-77372401D01*
X103839946Y-77530991D01*
X103839838Y-77655167D01*
X103974056Y-77980000D01*
X101279802Y-77980000D01*
X101090000Y-77790198D01*
X101090000Y-70047404D01*
X101379866Y-70367389D01*
X101885959Y-70606914D01*
X102108000Y-70485629D01*
X102108000Y-69342000D01*
X102362000Y-69342000D01*
X102362000Y-70485629D01*
X102584041Y-70606914D01*
X103090134Y-70367389D01*
X103466041Y-69952423D01*
X103626904Y-69564039D01*
X103504915Y-69342000D01*
X102362000Y-69342000D01*
X102108000Y-69342000D01*
X102088000Y-69342000D01*
X102088000Y-69088000D01*
X102108000Y-69088000D01*
X102108000Y-69068000D01*
X102362000Y-69068000D01*
X102362000Y-69088000D01*
X103504915Y-69088000D01*
X103626904Y-68865961D01*
X103560236Y-68705000D01*
X104847537Y-68705000D01*
X104879673Y-68737192D01*
X105223201Y-68879838D01*
X105595167Y-68880162D01*
X105938943Y-68738117D01*
X106202192Y-68475327D01*
X106344838Y-68131799D01*
X106345162Y-67759833D01*
X106203117Y-67416057D01*
X105940327Y-67152808D01*
X105596799Y-67010162D01*
X105224833Y-67009838D01*
X104881057Y-67151883D01*
X104847882Y-67185000D01*
X103819802Y-67185000D01*
X103633688Y-66998886D01*
X103698113Y-66675000D01*
X103588880Y-66125849D01*
X103277811Y-65660302D01*
X102895725Y-65405000D01*
X103277811Y-65149698D01*
X103588880Y-64684151D01*
X103698113Y-64135000D01*
X103588880Y-63585849D01*
X103277811Y-63120302D01*
X102895725Y-62865000D01*
X103277811Y-62609698D01*
X103588880Y-62144151D01*
X103698113Y-61595000D01*
X103588880Y-61045849D01*
X103277811Y-60580302D01*
X102873297Y-60310014D01*
X103090134Y-60207389D01*
X103466041Y-59792423D01*
X103626904Y-59404039D01*
X103504915Y-59182000D01*
X102362000Y-59182000D01*
X102362000Y-59202000D01*
X102108000Y-59202000D01*
X102108000Y-59182000D01*
X102088000Y-59182000D01*
X102088000Y-58928000D01*
X102108000Y-58928000D01*
X102108000Y-58908000D01*
X102362000Y-58908000D01*
X102362000Y-58928000D01*
X103504915Y-58928000D01*
X103626904Y-58705961D01*
X103466041Y-58317577D01*
X103090134Y-57902611D01*
X102873297Y-57799986D01*
X103277811Y-57529698D01*
X103588880Y-57064151D01*
X103698113Y-56515000D01*
X103588880Y-55965849D01*
X103277811Y-55500302D01*
X102895725Y-55245000D01*
X103277811Y-54989698D01*
X103588880Y-54524151D01*
X103698113Y-53975000D01*
X103588880Y-53425849D01*
X103277811Y-52960302D01*
X103133535Y-52863899D01*
X103270317Y-52838162D01*
X103486441Y-52699090D01*
X103631431Y-52486890D01*
X103682440Y-52235000D01*
X103682440Y-50635000D01*
X103638162Y-50399683D01*
X103499090Y-50183559D01*
X103286890Y-50038569D01*
X103035000Y-49987560D01*
X101435000Y-49987560D01*
X101199683Y-50031838D01*
X101090000Y-50102417D01*
X101090000Y-50092463D01*
X101122192Y-50060327D01*
X101264838Y-49716799D01*
X101265162Y-49344833D01*
X101123117Y-49001057D01*
X101090000Y-48967882D01*
X101090000Y-39049802D01*
X102655000Y-37484802D01*
X102655000Y-37494093D01*
X102768039Y-38062378D01*
X103089946Y-38544147D01*
X103091179Y-38544971D01*
X103054683Y-38551838D01*
X102838559Y-38690910D01*
X102693569Y-38903110D01*
X102642560Y-39155000D01*
X102642560Y-40855000D01*
X102686838Y-41090317D01*
X102825910Y-41306441D01*
X103038110Y-41451431D01*
X103290000Y-41502440D01*
X103380000Y-41502440D01*
X103380000Y-49530000D01*
X103437852Y-49820839D01*
X103602599Y-50067401D01*
X104650000Y-51114802D01*
X104650000Y-55317537D01*
X104617808Y-55349673D01*
X104475162Y-55693201D01*
X104474838Y-56065167D01*
X104616883Y-56408943D01*
X104879673Y-56672192D01*
X105223201Y-56814838D01*
X105285000Y-56814892D01*
X105285000Y-57857537D01*
X105252808Y-57889673D01*
X105110162Y-58233201D01*
X105109838Y-58605167D01*
X105251883Y-58948943D01*
X105514673Y-59212192D01*
X105858201Y-59354838D01*
X105920000Y-59354892D01*
X105920000Y-60397537D01*
X105887808Y-60429673D01*
X105745162Y-60773201D01*
X105744838Y-61145167D01*
X105886883Y-61488943D01*
X106149673Y-61752192D01*
X106493201Y-61894838D01*
X106555000Y-61894892D01*
X106555000Y-62937537D01*
X106522808Y-62969673D01*
X106380162Y-63313201D01*
X106379838Y-63685167D01*
X106521883Y-64028943D01*
X106784673Y-64292192D01*
X107128201Y-64434838D01*
X107190000Y-64434892D01*
X107190000Y-65477537D01*
X107157808Y-65509673D01*
X107015162Y-65853201D01*
X107014838Y-66225167D01*
X107156883Y-66568943D01*
X107419673Y-66832192D01*
X107763201Y-66974838D01*
X107825000Y-66974892D01*
X107825000Y-68580000D01*
X107882852Y-68870839D01*
X108047599Y-69117401D01*
X108453141Y-69522943D01*
X108501120Y-69764151D01*
X108812189Y-70229698D01*
X109277736Y-70540767D01*
X109826887Y-70650000D01*
X109883113Y-70650000D01*
X110432264Y-70540767D01*
X110897811Y-70229698D01*
X111208880Y-69764151D01*
X111318113Y-69215000D01*
X111251499Y-68880111D01*
X111310167Y-68880162D01*
X111653943Y-68738117D01*
X111917192Y-68475327D01*
X112059838Y-68131799D01*
X112060162Y-67759833D01*
X111918117Y-67416057D01*
X111885000Y-67382882D01*
X111885000Y-67024039D01*
X116083096Y-67024039D01*
X116243959Y-67412423D01*
X116619866Y-67827389D01*
X117125959Y-68066914D01*
X117348000Y-67945629D01*
X117348000Y-66802000D01*
X117602000Y-66802000D01*
X117602000Y-67945629D01*
X117824041Y-68066914D01*
X118330134Y-67827389D01*
X118706041Y-67412423D01*
X118866904Y-67024039D01*
X118744915Y-66802000D01*
X117602000Y-66802000D01*
X117348000Y-66802000D01*
X116205085Y-66802000D01*
X116083096Y-67024039D01*
X111885000Y-67024039D01*
X111885000Y-66675000D01*
X123631887Y-66675000D01*
X123741120Y-67224151D01*
X124052189Y-67689698D01*
X124517736Y-68000767D01*
X125066887Y-68110000D01*
X125123113Y-68110000D01*
X125672264Y-68000767D01*
X126137811Y-67689698D01*
X126448880Y-67224151D01*
X126558113Y-66675000D01*
X126552521Y-66646887D01*
X149060000Y-66646887D01*
X149060000Y-66703113D01*
X149169233Y-67252264D01*
X149480302Y-67717811D01*
X149945849Y-68028880D01*
X150495000Y-68138113D01*
X151044151Y-68028880D01*
X151509698Y-67717811D01*
X151765000Y-67335725D01*
X152020302Y-67717811D01*
X152485849Y-68028880D01*
X153035000Y-68138113D01*
X153584151Y-68028880D01*
X154049698Y-67717811D01*
X154305000Y-67335725D01*
X154560302Y-67717811D01*
X155025849Y-68028880D01*
X155575000Y-68138113D01*
X156124151Y-68028880D01*
X156589698Y-67717811D01*
X156845000Y-67335725D01*
X157100302Y-67717811D01*
X157565849Y-68028880D01*
X158115000Y-68138113D01*
X158664151Y-68028880D01*
X159129698Y-67717811D01*
X159385000Y-67335725D01*
X159640302Y-67717811D01*
X160105849Y-68028880D01*
X160655000Y-68138113D01*
X161204151Y-68028880D01*
X161669698Y-67717811D01*
X161925000Y-67335725D01*
X162180302Y-67717811D01*
X162645849Y-68028880D01*
X163195000Y-68138113D01*
X163744151Y-68028880D01*
X164209698Y-67717811D01*
X164465000Y-67335725D01*
X164720302Y-67717811D01*
X165185849Y-68028880D01*
X165735000Y-68138113D01*
X166284151Y-68028880D01*
X166749698Y-67717811D01*
X167005000Y-67335725D01*
X167260302Y-67717811D01*
X167725849Y-68028880D01*
X168275000Y-68138113D01*
X168824151Y-68028880D01*
X169289698Y-67717811D01*
X169545000Y-67335725D01*
X169800302Y-67717811D01*
X170265849Y-68028880D01*
X170815000Y-68138113D01*
X171364151Y-68028880D01*
X171829698Y-67717811D01*
X172085000Y-67335725D01*
X172340302Y-67717811D01*
X172805849Y-68028880D01*
X173355000Y-68138113D01*
X173904151Y-68028880D01*
X174369698Y-67717811D01*
X174639986Y-67313297D01*
X174742611Y-67530134D01*
X175157577Y-67906041D01*
X175545961Y-68066904D01*
X175768000Y-67944915D01*
X175768000Y-66802000D01*
X176022000Y-66802000D01*
X176022000Y-67944915D01*
X176244039Y-68066904D01*
X176632423Y-67906041D01*
X177047389Y-67530134D01*
X177165000Y-67281633D01*
X177282611Y-67530134D01*
X177697577Y-67906041D01*
X178085961Y-68066904D01*
X178308000Y-67944915D01*
X178308000Y-66802000D01*
X178562000Y-66802000D01*
X178562000Y-67944915D01*
X178784039Y-68066904D01*
X179172423Y-67906041D01*
X179587389Y-67530134D01*
X179826914Y-67024041D01*
X179705629Y-66802000D01*
X178562000Y-66802000D01*
X178308000Y-66802000D01*
X176022000Y-66802000D01*
X175768000Y-66802000D01*
X175748000Y-66802000D01*
X175748000Y-66675000D01*
X182686887Y-66675000D01*
X182796120Y-67224151D01*
X183107189Y-67689698D01*
X183572736Y-68000767D01*
X184121887Y-68110000D01*
X184178113Y-68110000D01*
X184727264Y-68000767D01*
X185192811Y-67689698D01*
X185503880Y-67224151D01*
X185556584Y-66959187D01*
X192874752Y-66959187D01*
X193092757Y-67486800D01*
X193496077Y-67890824D01*
X194023309Y-68109750D01*
X194594187Y-68110248D01*
X195121800Y-67892243D01*
X195525824Y-67488923D01*
X195744750Y-66961691D01*
X195745248Y-66390813D01*
X195527243Y-65863200D01*
X195123923Y-65459176D01*
X194596691Y-65240250D01*
X194025813Y-65239752D01*
X193498200Y-65457757D01*
X193094176Y-65861077D01*
X192875250Y-66388309D01*
X192874752Y-66959187D01*
X185556584Y-66959187D01*
X185613113Y-66675000D01*
X185503880Y-66125849D01*
X185192811Y-65660302D01*
X184727264Y-65349233D01*
X184178113Y-65240000D01*
X184121887Y-65240000D01*
X183572736Y-65349233D01*
X183107189Y-65660302D01*
X182796120Y-66125849D01*
X182686887Y-66675000D01*
X175748000Y-66675000D01*
X175748000Y-66548000D01*
X175768000Y-66548000D01*
X175768000Y-65405085D01*
X176022000Y-65405085D01*
X176022000Y-66548000D01*
X178308000Y-66548000D01*
X178308000Y-65405085D01*
X178562000Y-65405085D01*
X178562000Y-66548000D01*
X179705629Y-66548000D01*
X179826914Y-66325959D01*
X179587389Y-65819866D01*
X179172423Y-65443959D01*
X178784039Y-65283096D01*
X178562000Y-65405085D01*
X178308000Y-65405085D01*
X178085961Y-65283096D01*
X177697577Y-65443959D01*
X177282611Y-65819866D01*
X177165000Y-66068367D01*
X177047389Y-65819866D01*
X176632423Y-65443959D01*
X176244039Y-65283096D01*
X176022000Y-65405085D01*
X175768000Y-65405085D01*
X175545961Y-65283096D01*
X175157577Y-65443959D01*
X174742611Y-65819866D01*
X174639986Y-66036703D01*
X174369698Y-65632189D01*
X173904151Y-65321120D01*
X173355000Y-65211887D01*
X172805849Y-65321120D01*
X172340302Y-65632189D01*
X172085000Y-66014275D01*
X171829698Y-65632189D01*
X171364151Y-65321120D01*
X170815000Y-65211887D01*
X170265849Y-65321120D01*
X169800302Y-65632189D01*
X169545000Y-66014275D01*
X169289698Y-65632189D01*
X168824151Y-65321120D01*
X168275000Y-65211887D01*
X167725849Y-65321120D01*
X167260302Y-65632189D01*
X167005000Y-66014275D01*
X166749698Y-65632189D01*
X166284151Y-65321120D01*
X165735000Y-65211887D01*
X165185849Y-65321120D01*
X164720302Y-65632189D01*
X164465000Y-66014275D01*
X164209698Y-65632189D01*
X163744151Y-65321120D01*
X163195000Y-65211887D01*
X162645849Y-65321120D01*
X162180302Y-65632189D01*
X161925000Y-66014275D01*
X161669698Y-65632189D01*
X161204151Y-65321120D01*
X160655000Y-65211887D01*
X160105849Y-65321120D01*
X159640302Y-65632189D01*
X159385000Y-66014275D01*
X159129698Y-65632189D01*
X158664151Y-65321120D01*
X158115000Y-65211887D01*
X157565849Y-65321120D01*
X157100302Y-65632189D01*
X156845000Y-66014275D01*
X156589698Y-65632189D01*
X156124151Y-65321120D01*
X155575000Y-65211887D01*
X155025849Y-65321120D01*
X154560302Y-65632189D01*
X154305000Y-66014275D01*
X154049698Y-65632189D01*
X153584151Y-65321120D01*
X153035000Y-65211887D01*
X152485849Y-65321120D01*
X152020302Y-65632189D01*
X151765000Y-66014275D01*
X151509698Y-65632189D01*
X151044151Y-65321120D01*
X150495000Y-65211887D01*
X149945849Y-65321120D01*
X149480302Y-65632189D01*
X149169233Y-66097736D01*
X149060000Y-66646887D01*
X126552521Y-66646887D01*
X126448880Y-66125849D01*
X126137811Y-65660302D01*
X125733297Y-65390014D01*
X125950134Y-65287389D01*
X126326041Y-64872423D01*
X126486904Y-64484039D01*
X126364915Y-64262000D01*
X125222000Y-64262000D01*
X125222000Y-64282000D01*
X124968000Y-64282000D01*
X124968000Y-64262000D01*
X123825085Y-64262000D01*
X123703096Y-64484039D01*
X123863959Y-64872423D01*
X124239866Y-65287389D01*
X124456703Y-65390014D01*
X124052189Y-65660302D01*
X123741120Y-66125849D01*
X123631887Y-66675000D01*
X111885000Y-66675000D01*
X111885000Y-64135000D01*
X116011887Y-64135000D01*
X116121120Y-64684151D01*
X116432189Y-65149698D01*
X116836703Y-65419986D01*
X116619866Y-65522611D01*
X116243959Y-65937577D01*
X116083096Y-66325961D01*
X116205085Y-66548000D01*
X117348000Y-66548000D01*
X117348000Y-66528000D01*
X117602000Y-66528000D01*
X117602000Y-66548000D01*
X118744915Y-66548000D01*
X118866904Y-66325961D01*
X118706041Y-65937577D01*
X118330134Y-65522611D01*
X118113297Y-65419986D01*
X118517811Y-65149698D01*
X118828880Y-64684151D01*
X118938113Y-64135000D01*
X118828880Y-63585849D01*
X118517811Y-63120302D01*
X118113297Y-62850014D01*
X118330134Y-62747389D01*
X118706041Y-62332423D01*
X118866904Y-61944039D01*
X118744915Y-61722000D01*
X117602000Y-61722000D01*
X117602000Y-61742000D01*
X117348000Y-61742000D01*
X117348000Y-61722000D01*
X116205085Y-61722000D01*
X116083096Y-61944039D01*
X116243959Y-62332423D01*
X116619866Y-62747389D01*
X116836703Y-62850014D01*
X116432189Y-63120302D01*
X116121120Y-63585849D01*
X116011887Y-64135000D01*
X111885000Y-64135000D01*
X111885000Y-61595000D01*
X123631887Y-61595000D01*
X123741120Y-62144151D01*
X124052189Y-62609698D01*
X124456703Y-62879986D01*
X124239866Y-62982611D01*
X123863959Y-63397577D01*
X123703096Y-63785961D01*
X123825085Y-64008000D01*
X124968000Y-64008000D01*
X124968000Y-63988000D01*
X125222000Y-63988000D01*
X125222000Y-64008000D01*
X126364915Y-64008000D01*
X126486904Y-63785961D01*
X126326041Y-63397577D01*
X125950134Y-62982611D01*
X125733297Y-62879986D01*
X125755725Y-62865000D01*
X182686887Y-62865000D01*
X182796120Y-63414151D01*
X183107189Y-63879698D01*
X183572736Y-64190767D01*
X184121887Y-64300000D01*
X184178113Y-64300000D01*
X184727264Y-64190767D01*
X185192811Y-63879698D01*
X185503880Y-63414151D01*
X185556584Y-63149187D01*
X192874752Y-63149187D01*
X193092757Y-63676800D01*
X193496077Y-64080824D01*
X194023309Y-64299750D01*
X194594187Y-64300248D01*
X195121800Y-64082243D01*
X195525824Y-63678923D01*
X195744750Y-63151691D01*
X195745248Y-62580813D01*
X195527243Y-62053200D01*
X195123923Y-61649176D01*
X194596691Y-61430250D01*
X194025813Y-61429752D01*
X193498200Y-61647757D01*
X193094176Y-62051077D01*
X192875250Y-62578309D01*
X192874752Y-63149187D01*
X185556584Y-63149187D01*
X185613113Y-62865000D01*
X185503880Y-62315849D01*
X185192811Y-61850302D01*
X184727264Y-61539233D01*
X184178113Y-61430000D01*
X184121887Y-61430000D01*
X183572736Y-61539233D01*
X183107189Y-61850302D01*
X182796120Y-62315849D01*
X182686887Y-62865000D01*
X125755725Y-62865000D01*
X126137811Y-62609698D01*
X126448880Y-62144151D01*
X126558113Y-61595000D01*
X126448880Y-61045849D01*
X126137811Y-60580302D01*
X125733297Y-60310014D01*
X125950134Y-60207389D01*
X126326041Y-59792423D01*
X126486904Y-59404039D01*
X126364915Y-59182000D01*
X125222000Y-59182000D01*
X125222000Y-59202000D01*
X124968000Y-59202000D01*
X124968000Y-59182000D01*
X123825085Y-59182000D01*
X123703096Y-59404039D01*
X123863959Y-59792423D01*
X124239866Y-60207389D01*
X124456703Y-60310014D01*
X124052189Y-60580302D01*
X123741120Y-61045849D01*
X123631887Y-61595000D01*
X111885000Y-61595000D01*
X111885000Y-59055000D01*
X116011887Y-59055000D01*
X116121120Y-59604151D01*
X116432189Y-60069698D01*
X116836703Y-60339986D01*
X116619866Y-60442611D01*
X116243959Y-60857577D01*
X116083096Y-61245961D01*
X116205085Y-61468000D01*
X117348000Y-61468000D01*
X117348000Y-61448000D01*
X117602000Y-61448000D01*
X117602000Y-61468000D01*
X118744915Y-61468000D01*
X118866904Y-61245961D01*
X118706041Y-60857577D01*
X118330134Y-60442611D01*
X118113297Y-60339986D01*
X118517811Y-60069698D01*
X118828880Y-59604151D01*
X118938113Y-59055000D01*
X182686887Y-59055000D01*
X182796120Y-59604151D01*
X183107189Y-60069698D01*
X183572736Y-60380767D01*
X184121887Y-60490000D01*
X184178113Y-60490000D01*
X184727264Y-60380767D01*
X185192811Y-60069698D01*
X185503880Y-59604151D01*
X185613113Y-59055000D01*
X185503880Y-58505849D01*
X185192811Y-58040302D01*
X184727264Y-57729233D01*
X184178113Y-57620000D01*
X184121887Y-57620000D01*
X183572736Y-57729233D01*
X183107189Y-58040302D01*
X182796120Y-58505849D01*
X182686887Y-59055000D01*
X118938113Y-59055000D01*
X118828880Y-58505849D01*
X118517811Y-58040302D01*
X118113297Y-57770014D01*
X118330134Y-57667389D01*
X118706041Y-57252423D01*
X118866904Y-56864039D01*
X118744915Y-56642000D01*
X117602000Y-56642000D01*
X117602000Y-56662000D01*
X117348000Y-56662000D01*
X117348000Y-56642000D01*
X116205085Y-56642000D01*
X116083096Y-56864039D01*
X116243959Y-57252423D01*
X116619866Y-57667389D01*
X116836703Y-57770014D01*
X116432189Y-58040302D01*
X116121120Y-58505849D01*
X116011887Y-59055000D01*
X111885000Y-59055000D01*
X111885000Y-57442745D01*
X112836861Y-57442745D01*
X112910995Y-57688864D01*
X113448223Y-57881965D01*
X114018454Y-57854778D01*
X114419005Y-57688864D01*
X114493139Y-57442745D01*
X113665000Y-56614605D01*
X112836861Y-57442745D01*
X111885000Y-57442745D01*
X111885000Y-56218223D01*
X112218035Y-56218223D01*
X112245222Y-56788454D01*
X112411136Y-57189005D01*
X112657255Y-57263139D01*
X113485395Y-56435000D01*
X113844605Y-56435000D01*
X114672745Y-57263139D01*
X114918864Y-57189005D01*
X115111965Y-56651777D01*
X115084778Y-56081546D01*
X114918864Y-55680995D01*
X114672745Y-55606861D01*
X113844605Y-56435000D01*
X113485395Y-56435000D01*
X112657255Y-55606861D01*
X112411136Y-55680995D01*
X112218035Y-56218223D01*
X111885000Y-56218223D01*
X111885000Y-55427255D01*
X112836861Y-55427255D01*
X113665000Y-56255395D01*
X114493139Y-55427255D01*
X114419005Y-55181136D01*
X113881777Y-54988035D01*
X113311546Y-55015222D01*
X112910995Y-55181136D01*
X112836861Y-55427255D01*
X111885000Y-55427255D01*
X111885000Y-53975000D01*
X116011887Y-53975000D01*
X116121120Y-54524151D01*
X116432189Y-54989698D01*
X116836703Y-55259986D01*
X116619866Y-55362611D01*
X116243959Y-55777577D01*
X116083096Y-56165961D01*
X116205085Y-56388000D01*
X117348000Y-56388000D01*
X117348000Y-56368000D01*
X117602000Y-56368000D01*
X117602000Y-56388000D01*
X118744915Y-56388000D01*
X118866904Y-56165961D01*
X118706041Y-55777577D01*
X118330134Y-55362611D01*
X118113297Y-55259986D01*
X118517811Y-54989698D01*
X118828880Y-54524151D01*
X118938113Y-53975000D01*
X118828880Y-53425849D01*
X118517811Y-52960302D01*
X118382665Y-52870000D01*
X118401309Y-52870000D01*
X118634698Y-52773327D01*
X118813327Y-52594699D01*
X118910000Y-52361310D01*
X118910000Y-51720750D01*
X118751250Y-51562000D01*
X117602000Y-51562000D01*
X117602000Y-51582000D01*
X117348000Y-51582000D01*
X117348000Y-51562000D01*
X116198750Y-51562000D01*
X116040000Y-51720750D01*
X116040000Y-52361310D01*
X116136673Y-52594699D01*
X116315302Y-52773327D01*
X116548691Y-52870000D01*
X116567335Y-52870000D01*
X116432189Y-52960302D01*
X116121120Y-53425849D01*
X116011887Y-53975000D01*
X111885000Y-53975000D01*
X111885000Y-50479802D01*
X112074802Y-50290000D01*
X112780831Y-50290000D01*
X112449176Y-50621077D01*
X112230250Y-51148309D01*
X112229752Y-51719187D01*
X112447757Y-52246800D01*
X112851077Y-52650824D01*
X113378309Y-52869750D01*
X113949187Y-52870248D01*
X114476800Y-52652243D01*
X114880824Y-52248923D01*
X115099750Y-51721691D01*
X115100000Y-51435000D01*
X123631887Y-51435000D01*
X123741120Y-51984151D01*
X124052189Y-52449698D01*
X124434275Y-52705000D01*
X124052189Y-52960302D01*
X123741120Y-53425849D01*
X123631887Y-53975000D01*
X123741120Y-54524151D01*
X124052189Y-54989698D01*
X124434275Y-55245000D01*
X124052189Y-55500302D01*
X123741120Y-55965849D01*
X123631887Y-56515000D01*
X123741120Y-57064151D01*
X124052189Y-57529698D01*
X124456703Y-57799986D01*
X124239866Y-57902611D01*
X123863959Y-58317577D01*
X123703096Y-58705961D01*
X123825085Y-58928000D01*
X124968000Y-58928000D01*
X124968000Y-58908000D01*
X125222000Y-58908000D01*
X125222000Y-58928000D01*
X126364915Y-58928000D01*
X126486904Y-58705961D01*
X126326041Y-58317577D01*
X125950134Y-57902611D01*
X125733297Y-57799986D01*
X126137811Y-57529698D01*
X126195911Y-57442745D01*
X128076861Y-57442745D01*
X128150995Y-57688864D01*
X128688223Y-57881965D01*
X129258454Y-57854778D01*
X129659005Y-57688864D01*
X129733139Y-57442745D01*
X145856861Y-57442745D01*
X145930995Y-57688864D01*
X146468223Y-57881965D01*
X147038454Y-57854778D01*
X147439005Y-57688864D01*
X147513139Y-57442745D01*
X146685000Y-56614605D01*
X145856861Y-57442745D01*
X129733139Y-57442745D01*
X128905000Y-56614605D01*
X128076861Y-57442745D01*
X126195911Y-57442745D01*
X126307995Y-57275000D01*
X126365000Y-57275000D01*
X126655839Y-57217148D01*
X126902401Y-57052401D01*
X127470711Y-56484091D01*
X127485222Y-56788454D01*
X127651136Y-57189005D01*
X127897255Y-57263139D01*
X128725395Y-56435000D01*
X129084605Y-56435000D01*
X129912745Y-57263139D01*
X130158864Y-57189005D01*
X130351965Y-56651777D01*
X130331295Y-56218223D01*
X145238035Y-56218223D01*
X145265222Y-56788454D01*
X145431136Y-57189005D01*
X145677255Y-57263139D01*
X146505395Y-56435000D01*
X146864605Y-56435000D01*
X147692745Y-57263139D01*
X147938864Y-57189005D01*
X148131965Y-56651777D01*
X148104778Y-56081546D01*
X147938864Y-55680995D01*
X147692745Y-55606861D01*
X146864605Y-56435000D01*
X146505395Y-56435000D01*
X145677255Y-55606861D01*
X145431136Y-55680995D01*
X145238035Y-56218223D01*
X130331295Y-56218223D01*
X130324778Y-56081546D01*
X130158864Y-55680995D01*
X129912745Y-55606861D01*
X129084605Y-56435000D01*
X128725395Y-56435000D01*
X127897255Y-55606861D01*
X127760000Y-55648204D01*
X127760000Y-55427255D01*
X128076861Y-55427255D01*
X128905000Y-56255395D01*
X129733139Y-55427255D01*
X145856861Y-55427255D01*
X146685000Y-56255395D01*
X147513139Y-55427255D01*
X147439005Y-55181136D01*
X146901777Y-54988035D01*
X146331546Y-55015222D01*
X145930995Y-55181136D01*
X145856861Y-55427255D01*
X129733139Y-55427255D01*
X129659005Y-55181136D01*
X129121777Y-54988035D01*
X128551546Y-55015222D01*
X128150995Y-55181136D01*
X128076861Y-55427255D01*
X127760000Y-55427255D01*
X127760000Y-53624187D01*
X132549752Y-53624187D01*
X132767757Y-54151800D01*
X133171077Y-54555824D01*
X133698309Y-54774750D01*
X134269187Y-54775248D01*
X134796800Y-54557243D01*
X135006663Y-54347745D01*
X140776861Y-54347745D01*
X140850995Y-54593864D01*
X141388223Y-54786965D01*
X141958454Y-54759778D01*
X142359005Y-54593864D01*
X142433139Y-54347745D01*
X141605000Y-53519605D01*
X140776861Y-54347745D01*
X135006663Y-54347745D01*
X135200824Y-54153923D01*
X135419750Y-53626691D01*
X135420189Y-53123223D01*
X140158035Y-53123223D01*
X140185222Y-53693454D01*
X140351136Y-54094005D01*
X140597255Y-54168139D01*
X141425395Y-53340000D01*
X141784605Y-53340000D01*
X142612745Y-54168139D01*
X142858864Y-54094005D01*
X143051965Y-53556777D01*
X143024778Y-52986546D01*
X142858864Y-52585995D01*
X142612745Y-52511861D01*
X141784605Y-53340000D01*
X141425395Y-53340000D01*
X140597255Y-52511861D01*
X140351136Y-52585995D01*
X140158035Y-53123223D01*
X135420189Y-53123223D01*
X135420248Y-53055813D01*
X135202243Y-52528200D01*
X135006640Y-52332255D01*
X140776861Y-52332255D01*
X141605000Y-53160395D01*
X142433139Y-52332255D01*
X142359005Y-52086136D01*
X141821777Y-51893035D01*
X141251546Y-51920222D01*
X140850995Y-52086136D01*
X140776861Y-52332255D01*
X135006640Y-52332255D01*
X134798923Y-52124176D01*
X134271691Y-51905250D01*
X133700813Y-51904752D01*
X133173200Y-52122757D01*
X132769176Y-52526077D01*
X132550250Y-53053309D01*
X132549752Y-53624187D01*
X127760000Y-53624187D01*
X127760000Y-52319169D01*
X128091077Y-52650824D01*
X128618309Y-52869750D01*
X129189187Y-52870248D01*
X129716800Y-52652243D01*
X130120824Y-52248923D01*
X130339750Y-51721691D01*
X130339752Y-51719187D01*
X145249752Y-51719187D01*
X145467757Y-52246800D01*
X145871077Y-52650824D01*
X146398309Y-52869750D01*
X146969187Y-52870248D01*
X147496800Y-52652243D01*
X147900824Y-52248923D01*
X148119750Y-51721691D01*
X148120248Y-51150813D01*
X147902243Y-50623200D01*
X147498923Y-50219176D01*
X146971691Y-50000250D01*
X146400813Y-49999752D01*
X145873200Y-50217757D01*
X145469176Y-50621077D01*
X145250250Y-51148309D01*
X145249752Y-51719187D01*
X130339752Y-51719187D01*
X130340248Y-51150813D01*
X130122243Y-50623200D01*
X129718923Y-50219176D01*
X129191691Y-50000250D01*
X128620813Y-49999752D01*
X128093200Y-50217757D01*
X127760000Y-50550376D01*
X127760000Y-49715167D01*
X133049838Y-49715167D01*
X133191883Y-50058943D01*
X133454673Y-50322192D01*
X133798201Y-50464838D01*
X134170167Y-50465162D01*
X134513943Y-50323117D01*
X134777192Y-50060327D01*
X134919838Y-49716799D01*
X134920162Y-49344833D01*
X134778117Y-49001057D01*
X134745000Y-48967882D01*
X134745000Y-47304802D01*
X134759680Y-47290122D01*
X134805167Y-47290162D01*
X135148943Y-47148117D01*
X135412192Y-46885327D01*
X135554838Y-46541799D01*
X135555162Y-46169833D01*
X135413117Y-45826057D01*
X135150327Y-45562808D01*
X134806799Y-45420162D01*
X134434833Y-45419838D01*
X134091057Y-45561883D01*
X133827808Y-45824673D01*
X133685162Y-46168201D01*
X133685121Y-46215077D01*
X133447599Y-46452599D01*
X133282852Y-46699161D01*
X133225000Y-46990000D01*
X133225000Y-48967537D01*
X133192808Y-48999673D01*
X133050162Y-49343201D01*
X133049838Y-49715167D01*
X127760000Y-49715167D01*
X127760000Y-48574802D01*
X127774680Y-48560122D01*
X127820167Y-48560162D01*
X128163943Y-48418117D01*
X128427192Y-48155327D01*
X128569838Y-47811799D01*
X128570162Y-47439833D01*
X128428117Y-47096057D01*
X128165327Y-46832808D01*
X127901446Y-46723235D01*
X127793117Y-46461057D01*
X127530327Y-46197808D01*
X127186799Y-46055162D01*
X126814833Y-46054838D01*
X126471057Y-46196883D01*
X126207808Y-46459673D01*
X126065162Y-46803201D01*
X126065121Y-46850077D01*
X125827599Y-47087599D01*
X125662852Y-47334161D01*
X125605000Y-47625000D01*
X125605000Y-50095853D01*
X125123113Y-50000000D01*
X125066887Y-50000000D01*
X124517736Y-50109233D01*
X124052189Y-50420302D01*
X123741120Y-50885849D01*
X123631887Y-51435000D01*
X115100000Y-51435000D01*
X115100248Y-51150813D01*
X114882243Y-50623200D01*
X114549624Y-50290000D01*
X116130584Y-50290000D01*
X116040000Y-50508690D01*
X116040000Y-51149250D01*
X116198750Y-51308000D01*
X117348000Y-51308000D01*
X117348000Y-51288000D01*
X117602000Y-51288000D01*
X117602000Y-51308000D01*
X118751250Y-51308000D01*
X118910000Y-51149250D01*
X118910000Y-50508690D01*
X118813751Y-50276324D01*
X119035839Y-50232148D01*
X119282401Y-50067401D01*
X119917401Y-49432401D01*
X120082148Y-49185839D01*
X120140000Y-48895000D01*
X120140000Y-41277954D01*
X120430054Y-41084147D01*
X120751961Y-40602378D01*
X120865000Y-40034093D01*
X120865000Y-39975907D01*
X120751961Y-39407622D01*
X120430054Y-38925853D01*
X120144422Y-38735000D01*
X120430054Y-38544147D01*
X120751961Y-38062378D01*
X120865000Y-37494093D01*
X120865000Y-37435907D01*
X120769342Y-36955000D01*
X154077560Y-36955000D01*
X154077560Y-38315000D01*
X154121838Y-38550317D01*
X154260910Y-38766441D01*
X154473110Y-38911431D01*
X154540541Y-38925086D01*
X154495853Y-38954946D01*
X154173946Y-39436715D01*
X154060907Y-40005000D01*
X154173946Y-40573285D01*
X154495853Y-41055054D01*
X154825026Y-41275000D01*
X154495853Y-41494946D01*
X154173946Y-41976715D01*
X154060907Y-42545000D01*
X154173946Y-43113285D01*
X154495853Y-43595054D01*
X154977622Y-43916961D01*
X155545907Y-44030000D01*
X155604093Y-44030000D01*
X156172378Y-43916961D01*
X156654147Y-43595054D01*
X156976054Y-43113285D01*
X157089093Y-42545000D01*
X156976054Y-41976715D01*
X156654147Y-41494946D01*
X156324974Y-41275000D01*
X156654147Y-41055054D01*
X156847954Y-40765000D01*
X157165198Y-40765000D01*
X157355000Y-40954802D01*
X157355000Y-48895000D01*
X157412852Y-49185839D01*
X157577599Y-49432401D01*
X157814878Y-49669680D01*
X157814838Y-49715167D01*
X157935653Y-50007561D01*
X157565849Y-50081120D01*
X157100302Y-50392189D01*
X156845000Y-50774275D01*
X156589698Y-50392189D01*
X156124151Y-50081120D01*
X155575000Y-49971887D01*
X155025849Y-50081120D01*
X154560302Y-50392189D01*
X154305000Y-50774275D01*
X154049698Y-50392189D01*
X153584151Y-50081120D01*
X153035000Y-49971887D01*
X152548933Y-50068572D01*
X152557192Y-50060327D01*
X152699838Y-49716799D01*
X152699879Y-49669923D01*
X152937401Y-49432401D01*
X153102148Y-49185839D01*
X153160000Y-48895000D01*
X153160000Y-46917463D01*
X153192192Y-46885327D01*
X153334838Y-46541799D01*
X153335162Y-46169833D01*
X153193117Y-45826057D01*
X152930327Y-45562808D01*
X152586799Y-45420162D01*
X152214833Y-45419838D01*
X151871057Y-45561883D01*
X151607808Y-45824673D01*
X151465162Y-46168201D01*
X151464838Y-46540167D01*
X151606883Y-46883943D01*
X151640000Y-46917118D01*
X151640000Y-48580198D01*
X151625320Y-48594878D01*
X151579833Y-48594838D01*
X151236057Y-48736883D01*
X150972808Y-48999673D01*
X150830162Y-49343201D01*
X150829838Y-49715167D01*
X150971883Y-50058943D01*
X150981601Y-50068678D01*
X150495000Y-49971887D01*
X149945849Y-50081120D01*
X149480302Y-50392189D01*
X149169233Y-50857736D01*
X149060000Y-51406887D01*
X149060000Y-51463113D01*
X149169233Y-52012264D01*
X149480302Y-52477811D01*
X149812736Y-52699937D01*
X149702808Y-52809673D01*
X149560162Y-53153201D01*
X149559838Y-53525167D01*
X149701883Y-53868943D01*
X149964673Y-54132192D01*
X150308201Y-54274838D01*
X150680167Y-54275162D01*
X151023943Y-54133117D01*
X151287192Y-53870327D01*
X151429838Y-53526799D01*
X151429879Y-53479923D01*
X151444802Y-53465000D01*
X159385000Y-53465000D01*
X159675839Y-53407148D01*
X159922401Y-53242401D01*
X160087148Y-52995839D01*
X160127460Y-52793179D01*
X160655000Y-52898113D01*
X161204151Y-52788880D01*
X161669698Y-52477811D01*
X161925000Y-52095725D01*
X162180302Y-52477811D01*
X162645849Y-52788880D01*
X163195000Y-52898113D01*
X163744151Y-52788880D01*
X164209698Y-52477811D01*
X164465000Y-52095725D01*
X164720302Y-52477811D01*
X165185849Y-52788880D01*
X165735000Y-52898113D01*
X166284151Y-52788880D01*
X166749698Y-52477811D01*
X167005000Y-52095725D01*
X167260302Y-52477811D01*
X167725849Y-52788880D01*
X168275000Y-52898113D01*
X168824151Y-52788880D01*
X169289698Y-52477811D01*
X169545000Y-52095725D01*
X169800302Y-52477811D01*
X170265849Y-52788880D01*
X170815000Y-52898113D01*
X171364151Y-52788880D01*
X171829698Y-52477811D01*
X172085000Y-52095725D01*
X172340302Y-52477811D01*
X172805849Y-52788880D01*
X173355000Y-52898113D01*
X173904151Y-52788880D01*
X174369698Y-52477811D01*
X174625000Y-52095725D01*
X174880302Y-52477811D01*
X175135000Y-52647995D01*
X175135000Y-53412537D01*
X175102808Y-53444673D01*
X174960162Y-53788201D01*
X174959838Y-54160167D01*
X175101883Y-54503943D01*
X175364673Y-54767192D01*
X175708201Y-54909838D01*
X176080167Y-54910162D01*
X176423943Y-54768117D01*
X176687192Y-54505327D01*
X176829838Y-54161799D01*
X176830162Y-53789833D01*
X176720805Y-53525167D01*
X189564838Y-53525167D01*
X189706883Y-53868943D01*
X189969673Y-54132192D01*
X190313201Y-54274838D01*
X190685167Y-54275162D01*
X191028943Y-54133117D01*
X191292192Y-53870327D01*
X191434838Y-53526799D01*
X191434879Y-53479923D01*
X191645000Y-53269802D01*
X191645000Y-57857537D01*
X191612808Y-57889673D01*
X191470162Y-58233201D01*
X191469838Y-58605167D01*
X191611883Y-58948943D01*
X191874673Y-59212192D01*
X192218201Y-59354838D01*
X192590167Y-59355162D01*
X192874841Y-59237538D01*
X192874752Y-59339187D01*
X193092757Y-59866800D01*
X193496077Y-60270824D01*
X194023309Y-60489750D01*
X194594187Y-60490248D01*
X195121800Y-60272243D01*
X195525824Y-59868923D01*
X195744750Y-59341691D01*
X195745248Y-58770813D01*
X195527243Y-58243200D01*
X195123923Y-57839176D01*
X194596691Y-57620250D01*
X194025813Y-57619752D01*
X193498200Y-57837757D01*
X193270156Y-58065404D01*
X193198117Y-57891057D01*
X193165000Y-57857882D01*
X193165000Y-56026975D01*
X193208110Y-56056431D01*
X193460000Y-56107440D01*
X195160000Y-56107440D01*
X195395317Y-56063162D01*
X195611441Y-55924090D01*
X195756431Y-55711890D01*
X195807440Y-55460000D01*
X195807440Y-55370000D01*
X196215000Y-55370000D01*
X196505839Y-55312148D01*
X196752401Y-55147401D01*
X196989680Y-54910122D01*
X197035167Y-54910162D01*
X197378943Y-54768117D01*
X197642192Y-54505327D01*
X197784838Y-54161799D01*
X197785162Y-53789833D01*
X197643117Y-53446057D01*
X197380327Y-53182808D01*
X197036799Y-53040162D01*
X196664833Y-53039838D01*
X196321057Y-53181883D01*
X196057808Y-53444673D01*
X195915162Y-53788201D01*
X195915121Y-53835077D01*
X195900198Y-53850000D01*
X195807440Y-53850000D01*
X195807440Y-53760000D01*
X195763162Y-53524683D01*
X195624090Y-53308559D01*
X195411890Y-53163569D01*
X195344459Y-53149914D01*
X195389147Y-53120054D01*
X195711054Y-52638285D01*
X195824093Y-52070000D01*
X195711054Y-51501715D01*
X195389147Y-51019946D01*
X195059974Y-50800000D01*
X195389147Y-50580054D01*
X195711054Y-50098285D01*
X195824093Y-49530000D01*
X195711054Y-48961715D01*
X195389147Y-48479946D01*
X195059974Y-48260000D01*
X195389147Y-48040054D01*
X195711054Y-47558285D01*
X195824093Y-46990000D01*
X195711054Y-46421715D01*
X195389147Y-45939946D01*
X195059974Y-45720000D01*
X195389147Y-45500054D01*
X195711054Y-45018285D01*
X195824093Y-44450000D01*
X195711054Y-43881715D01*
X195389147Y-43399946D01*
X195048447Y-43172298D01*
X195191358Y-43105183D01*
X195581645Y-42676924D01*
X195751476Y-42266890D01*
X195630155Y-42037000D01*
X194437000Y-42037000D01*
X194437000Y-42057000D01*
X194183000Y-42057000D01*
X194183000Y-42037000D01*
X192989845Y-42037000D01*
X192868524Y-42266890D01*
X193038355Y-42676924D01*
X193428642Y-43105183D01*
X193571553Y-43172298D01*
X193230853Y-43399946D01*
X193037046Y-43690000D01*
X191770000Y-43690000D01*
X191479161Y-43747852D01*
X191232599Y-43912599D01*
X190597599Y-44547599D01*
X190432852Y-44794161D01*
X190375000Y-45085000D01*
X190375000Y-52390198D01*
X190360320Y-52404878D01*
X190314833Y-52404838D01*
X189971057Y-52546883D01*
X189707808Y-52809673D01*
X189565162Y-53153201D01*
X189564838Y-53525167D01*
X176720805Y-53525167D01*
X176688117Y-53446057D01*
X176655000Y-53412882D01*
X176655000Y-52647995D01*
X176909698Y-52477811D01*
X177000000Y-52342665D01*
X177000000Y-52361309D01*
X177096673Y-52594698D01*
X177275301Y-52773327D01*
X177508690Y-52870000D01*
X178149250Y-52870000D01*
X178308000Y-52711250D01*
X178308000Y-51562000D01*
X178562000Y-51562000D01*
X178562000Y-52711250D01*
X178720750Y-52870000D01*
X179361310Y-52870000D01*
X179594699Y-52773327D01*
X179773327Y-52594698D01*
X179870000Y-52361309D01*
X179870000Y-51720750D01*
X179711250Y-51562000D01*
X178562000Y-51562000D01*
X178308000Y-51562000D01*
X178288000Y-51562000D01*
X178288000Y-51308000D01*
X178308000Y-51308000D01*
X178308000Y-50158750D01*
X178562000Y-50158750D01*
X178562000Y-51308000D01*
X179711250Y-51308000D01*
X179870000Y-51149250D01*
X179870000Y-50508691D01*
X179773327Y-50275302D01*
X179594699Y-50096673D01*
X179361310Y-50000000D01*
X178720750Y-50000000D01*
X178562000Y-50158750D01*
X178308000Y-50158750D01*
X178149250Y-50000000D01*
X177508690Y-50000000D01*
X177275301Y-50096673D01*
X177096673Y-50275302D01*
X177000000Y-50508691D01*
X177000000Y-50527335D01*
X176909698Y-50392189D01*
X176444151Y-50081120D01*
X175895000Y-49971887D01*
X175345849Y-50081120D01*
X174880302Y-50392189D01*
X174625000Y-50774275D01*
X174369698Y-50392189D01*
X173904151Y-50081120D01*
X173355000Y-49971887D01*
X172805849Y-50081120D01*
X172340302Y-50392189D01*
X172085000Y-50774275D01*
X171829698Y-50392189D01*
X171364151Y-50081120D01*
X170815000Y-49971887D01*
X170265849Y-50081120D01*
X169800302Y-50392189D01*
X169545000Y-50774275D01*
X169289698Y-50392189D01*
X168824151Y-50081120D01*
X168275000Y-49971887D01*
X167725849Y-50081120D01*
X167260302Y-50392189D01*
X167005000Y-50774275D01*
X166749698Y-50392189D01*
X166284151Y-50081120D01*
X165735000Y-49971887D01*
X165185849Y-50081120D01*
X164720302Y-50392189D01*
X164465000Y-50774275D01*
X164397119Y-50672683D01*
X165002401Y-50067401D01*
X165167148Y-49820840D01*
X165225000Y-49530000D01*
X165225000Y-47552463D01*
X165257192Y-47520327D01*
X165399838Y-47176799D01*
X165400162Y-46804833D01*
X165258117Y-46461057D01*
X164995327Y-46197808D01*
X164651799Y-46055162D01*
X164279833Y-46054838D01*
X163936057Y-46196883D01*
X163672808Y-46459673D01*
X163530162Y-46803201D01*
X163529838Y-47175167D01*
X163671883Y-47518943D01*
X163705000Y-47552118D01*
X163705000Y-49215198D01*
X162887057Y-50033141D01*
X162645849Y-50081120D01*
X162180302Y-50392189D01*
X161925000Y-50774275D01*
X161669698Y-50392189D01*
X161204151Y-50081120D01*
X160655000Y-49971887D01*
X160145000Y-50073332D01*
X160145000Y-43934342D01*
X160625907Y-44030000D01*
X160684093Y-44030000D01*
X161252378Y-43916961D01*
X161734147Y-43595054D01*
X162056054Y-43113285D01*
X162169093Y-42545000D01*
X162056054Y-41976715D01*
X161773011Y-41553110D01*
X192868524Y-41553110D01*
X192989845Y-41783000D01*
X194183000Y-41783000D01*
X194183000Y-40589181D01*
X194437000Y-40589181D01*
X194437000Y-41783000D01*
X195630155Y-41783000D01*
X195751476Y-41553110D01*
X195581645Y-41143076D01*
X195191358Y-40714817D01*
X194666892Y-40468514D01*
X194437000Y-40589181D01*
X194183000Y-40589181D01*
X193953108Y-40468514D01*
X193428642Y-40714817D01*
X193038355Y-41143076D01*
X192868524Y-41553110D01*
X161773011Y-41553110D01*
X161734147Y-41494946D01*
X161404974Y-41275000D01*
X161734147Y-41055054D01*
X162056054Y-40573285D01*
X162169093Y-40005000D01*
X162056054Y-39436715D01*
X161734147Y-38954946D01*
X161692548Y-38927150D01*
X161740317Y-38918162D01*
X161956441Y-38779090D01*
X162101431Y-38566890D01*
X162152440Y-38315000D01*
X162152440Y-36955000D01*
X168744367Y-36955000D01*
X168610162Y-37278201D01*
X168609838Y-37650167D01*
X168751883Y-37993943D01*
X169014673Y-38257192D01*
X169358201Y-38399838D01*
X169730167Y-38400162D01*
X169949665Y-38309467D01*
X170055000Y-38414802D01*
X170055000Y-39442537D01*
X170022808Y-39474673D01*
X169880162Y-39818201D01*
X169879838Y-40190167D01*
X170021883Y-40533943D01*
X170284673Y-40797192D01*
X170628201Y-40939838D01*
X171000167Y-40940162D01*
X171343943Y-40798117D01*
X171607192Y-40535327D01*
X171749838Y-40191799D01*
X171750162Y-39819833D01*
X171608117Y-39476057D01*
X171575000Y-39442882D01*
X171575000Y-38100000D01*
X171517148Y-37809161D01*
X171352401Y-37562599D01*
X170744802Y-36955000D01*
X171857560Y-36955000D01*
X171857560Y-38315000D01*
X171901838Y-38550317D01*
X172040910Y-38766441D01*
X172253110Y-38911431D01*
X172320541Y-38925086D01*
X172275853Y-38954946D01*
X171953946Y-39436715D01*
X171840907Y-40005000D01*
X171953946Y-40573285D01*
X172275853Y-41055054D01*
X172757622Y-41376961D01*
X173325907Y-41490000D01*
X173384093Y-41490000D01*
X173952378Y-41376961D01*
X174434147Y-41055054D01*
X174756054Y-40573285D01*
X174869093Y-40005000D01*
X174756054Y-39436715D01*
X174434147Y-38954946D01*
X174392548Y-38927150D01*
X174440317Y-38918162D01*
X174656441Y-38779090D01*
X174801431Y-38566890D01*
X174852440Y-38315000D01*
X174852440Y-36955000D01*
X176937560Y-36955000D01*
X176937560Y-38315000D01*
X176981838Y-38550317D01*
X177120910Y-38766441D01*
X177333110Y-38911431D01*
X177400541Y-38925086D01*
X177355853Y-38954946D01*
X177033946Y-39436715D01*
X176920907Y-40005000D01*
X177033946Y-40573285D01*
X177355853Y-41055054D01*
X177837622Y-41376961D01*
X178405907Y-41490000D01*
X178464093Y-41490000D01*
X179032378Y-41376961D01*
X179514147Y-41055054D01*
X179836054Y-40573285D01*
X179949093Y-40005000D01*
X179836054Y-39436715D01*
X179514147Y-38954946D01*
X179472548Y-38927150D01*
X179520317Y-38918162D01*
X179736441Y-38779090D01*
X179881431Y-38566890D01*
X179932440Y-38315000D01*
X179932440Y-36615000D01*
X179888162Y-36379683D01*
X179817583Y-36270000D01*
X194015908Y-36270000D01*
X198045000Y-40299092D01*
X198045000Y-40299092D01*
G37*
X198045000Y-40299092D02*
X198045000Y-78512560D01*
X196635000Y-78512560D01*
X196399683Y-78556838D01*
X196183559Y-78695910D01*
X196038569Y-78908110D01*
X196024914Y-78975541D01*
X195995054Y-78930853D01*
X195513285Y-78608946D01*
X194945000Y-78495907D01*
X194376715Y-78608946D01*
X193894946Y-78930853D01*
X193675000Y-79260026D01*
X193455054Y-78930853D01*
X192973285Y-78608946D01*
X192405000Y-78495907D01*
X191836715Y-78608946D01*
X191354946Y-78930853D01*
X191135000Y-79260026D01*
X190915054Y-78930853D01*
X190433285Y-78608946D01*
X189865000Y-78495907D01*
X189296715Y-78608946D01*
X188814946Y-78930853D01*
X188595000Y-79260026D01*
X188375054Y-78930853D01*
X187893285Y-78608946D01*
X187325000Y-78495907D01*
X186756715Y-78608946D01*
X186274946Y-78930853D01*
X186055000Y-79260026D01*
X185835054Y-78930853D01*
X185353285Y-78608946D01*
X184785000Y-78495907D01*
X184216715Y-78608946D01*
X183734946Y-78930853D01*
X183515000Y-79260026D01*
X183295054Y-78930853D01*
X182813285Y-78608946D01*
X182245000Y-78495907D01*
X181676715Y-78608946D01*
X181194946Y-78930853D01*
X180975000Y-79260026D01*
X180755054Y-78930853D01*
X180273285Y-78608946D01*
X179705000Y-78495907D01*
X179136715Y-78608946D01*
X178654946Y-78930853D01*
X178435000Y-79260026D01*
X178215054Y-78930853D01*
X177733285Y-78608946D01*
X177165000Y-78495907D01*
X176596715Y-78608946D01*
X176114946Y-78930853D01*
X175895000Y-79260026D01*
X175675054Y-78930853D01*
X175193285Y-78608946D01*
X174625000Y-78495907D01*
X174056715Y-78608946D01*
X173574946Y-78930853D01*
X173355000Y-79260026D01*
X173135054Y-78930853D01*
X172653285Y-78608946D01*
X172085000Y-78495907D01*
X171516715Y-78608946D01*
X171034946Y-78930853D01*
X170815000Y-79260026D01*
X170595054Y-78930853D01*
X170113285Y-78608946D01*
X169545000Y-78495907D01*
X168976715Y-78608946D01*
X168494946Y-78930853D01*
X168275000Y-79260026D01*
X168055054Y-78930853D01*
X167573285Y-78608946D01*
X167005000Y-78495907D01*
X166436715Y-78608946D01*
X165954946Y-78930853D01*
X165735000Y-79260026D01*
X165515054Y-78930853D01*
X165033285Y-78608946D01*
X164465000Y-78495907D01*
X163896715Y-78608946D01*
X163414946Y-78930853D01*
X163195000Y-79260026D01*
X162975054Y-78930853D01*
X162493285Y-78608946D01*
X161925000Y-78495907D01*
X161356715Y-78608946D01*
X160874946Y-78930853D01*
X160655000Y-79260026D01*
X160435054Y-78930853D01*
X160145000Y-78737046D01*
X160145000Y-77470000D01*
X160087148Y-77179161D01*
X159922401Y-76932599D01*
X159685122Y-76695320D01*
X159685162Y-76649833D01*
X159543117Y-76306057D01*
X159280327Y-76042808D01*
X158936799Y-75900162D01*
X158564833Y-75899838D01*
X158221057Y-76041883D01*
X157957808Y-76304673D01*
X157815162Y-76648201D01*
X157814838Y-77020167D01*
X157956883Y-77363943D01*
X158219673Y-77627192D01*
X158563201Y-77769838D01*
X158610077Y-77769879D01*
X158625000Y-77784802D01*
X158625000Y-78737046D01*
X158334946Y-78930853D01*
X158107298Y-79271553D01*
X158040183Y-79128642D01*
X157611924Y-78738355D01*
X157201890Y-78568524D01*
X156972000Y-78689845D01*
X156972000Y-79883000D01*
X156992000Y-79883000D01*
X156992000Y-80137000D01*
X156972000Y-80137000D01*
X156972000Y-80157000D01*
X156718000Y-80157000D01*
X156718000Y-80137000D01*
X156698000Y-80137000D01*
X156698000Y-79883000D01*
X156718000Y-79883000D01*
X156718000Y-78689845D01*
X156488110Y-78568524D01*
X156078076Y-78738355D01*
X155649817Y-79128642D01*
X155582702Y-79271553D01*
X155355054Y-78930853D01*
X154873285Y-78608946D01*
X154549304Y-78544502D01*
X154233461Y-78228659D01*
X154462192Y-78000327D01*
X154571765Y-77736446D01*
X154833943Y-77628117D01*
X155097192Y-77365327D01*
X155206765Y-77101446D01*
X155468943Y-76993117D01*
X155732192Y-76730327D01*
X155874838Y-76386799D01*
X155875162Y-76014833D01*
X155733117Y-75671057D01*
X155470327Y-75407808D01*
X155126799Y-75265162D01*
X155079923Y-75265121D01*
X155065000Y-75250198D01*
X155065000Y-71047463D01*
X155097192Y-71015327D01*
X155239838Y-70671799D01*
X155240162Y-70299833D01*
X155098117Y-69956057D01*
X154835327Y-69692808D01*
X154491799Y-69550162D01*
X154119833Y-69549838D01*
X153776057Y-69691883D01*
X153670046Y-69797710D01*
X153565327Y-69692808D01*
X153221799Y-69550162D01*
X152849833Y-69549838D01*
X152506057Y-69691883D01*
X152400046Y-69797710D01*
X152295327Y-69692808D01*
X151951799Y-69550162D01*
X151579833Y-69549838D01*
X151236057Y-69691883D01*
X151006171Y-69921369D01*
X150397401Y-69312599D01*
X150150839Y-69147852D01*
X149860000Y-69090000D01*
X148517463Y-69090000D01*
X148485327Y-69057808D01*
X148141799Y-68915162D01*
X147769833Y-68914838D01*
X147426057Y-69056883D01*
X147162808Y-69319673D01*
X147020162Y-69663201D01*
X147019838Y-70035167D01*
X147161883Y-70378943D01*
X147424673Y-70642192D01*
X147688554Y-70751765D01*
X147796883Y-71013943D01*
X147830000Y-71047118D01*
X147830000Y-75250198D01*
X147815320Y-75264878D01*
X147769833Y-75264838D01*
X147426057Y-75406883D01*
X147162808Y-75669673D01*
X147020162Y-76013201D01*
X147020108Y-76075000D01*
X134920110Y-76075000D01*
X134920162Y-76014833D01*
X134778117Y-75671057D01*
X134745000Y-75637882D01*
X134745000Y-69818646D01*
X134796800Y-69797243D01*
X135200824Y-69393923D01*
X135419750Y-68866691D01*
X135420248Y-68295813D01*
X135207119Y-67780000D01*
X140157560Y-67780000D01*
X140157560Y-69380000D01*
X140201838Y-69615317D01*
X140340910Y-69831441D01*
X140553110Y-69976431D01*
X140805000Y-70027440D01*
X142405000Y-70027440D01*
X142640317Y-69983162D01*
X142856441Y-69844090D01*
X143001431Y-69631890D01*
X143052440Y-69380000D01*
X143052440Y-67780000D01*
X143008162Y-67544683D01*
X142869090Y-67328559D01*
X142656890Y-67183569D01*
X142405000Y-67132560D01*
X140805000Y-67132560D01*
X140569683Y-67176838D01*
X140353559Y-67315910D01*
X140208569Y-67528110D01*
X140157560Y-67780000D01*
X135207119Y-67780000D01*
X135202243Y-67768200D01*
X134798923Y-67364176D01*
X134271691Y-67145250D01*
X133700813Y-67144752D01*
X133173200Y-67362757D01*
X132769176Y-67766077D01*
X132550250Y-68293309D01*
X132549752Y-68864187D01*
X132767757Y-69391800D01*
X133171077Y-69795824D01*
X133225000Y-69818215D01*
X133225000Y-75637537D01*
X133192808Y-75669673D01*
X133050162Y-76013201D01*
X133050108Y-76075000D01*
X104454802Y-76075000D01*
X104440122Y-76060320D01*
X104440162Y-76014833D01*
X104298117Y-75671057D01*
X104035327Y-75407808D01*
X103691799Y-75265162D01*
X103319833Y-75264838D01*
X102976057Y-75406883D01*
X102712808Y-75669673D01*
X102570162Y-76013201D01*
X102569838Y-76385167D01*
X102711883Y-76728943D01*
X102974673Y-76992192D01*
X103318201Y-77134838D01*
X103365077Y-77134879D01*
X103602599Y-77372401D01*
X103839946Y-77530991D01*
X103839838Y-77655167D01*
X103974056Y-77980000D01*
X101279802Y-77980000D01*
X101090000Y-77790198D01*
X101090000Y-70047404D01*
X101379866Y-70367389D01*
X101885959Y-70606914D01*
X102108000Y-70485629D01*
X102108000Y-69342000D01*
X102362000Y-69342000D01*
X102362000Y-70485629D01*
X102584041Y-70606914D01*
X103090134Y-70367389D01*
X103466041Y-69952423D01*
X103626904Y-69564039D01*
X103504915Y-69342000D01*
X102362000Y-69342000D01*
X102108000Y-69342000D01*
X102088000Y-69342000D01*
X102088000Y-69088000D01*
X102108000Y-69088000D01*
X102108000Y-69068000D01*
X102362000Y-69068000D01*
X102362000Y-69088000D01*
X103504915Y-69088000D01*
X103626904Y-68865961D01*
X103560236Y-68705000D01*
X104847537Y-68705000D01*
X104879673Y-68737192D01*
X105223201Y-68879838D01*
X105595167Y-68880162D01*
X105938943Y-68738117D01*
X106202192Y-68475327D01*
X106344838Y-68131799D01*
X106345162Y-67759833D01*
X106203117Y-67416057D01*
X105940327Y-67152808D01*
X105596799Y-67010162D01*
X105224833Y-67009838D01*
X104881057Y-67151883D01*
X104847882Y-67185000D01*
X103819802Y-67185000D01*
X103633688Y-66998886D01*
X103698113Y-66675000D01*
X103588880Y-66125849D01*
X103277811Y-65660302D01*
X102895725Y-65405000D01*
X103277811Y-65149698D01*
X103588880Y-64684151D01*
X103698113Y-64135000D01*
X103588880Y-63585849D01*
X103277811Y-63120302D01*
X102895725Y-62865000D01*
X103277811Y-62609698D01*
X103588880Y-62144151D01*
X103698113Y-61595000D01*
X103588880Y-61045849D01*
X103277811Y-60580302D01*
X102873297Y-60310014D01*
X103090134Y-60207389D01*
X103466041Y-59792423D01*
X103626904Y-59404039D01*
X103504915Y-59182000D01*
X102362000Y-59182000D01*
X102362000Y-59202000D01*
X102108000Y-59202000D01*
X102108000Y-59182000D01*
X102088000Y-59182000D01*
X102088000Y-58928000D01*
X102108000Y-58928000D01*
X102108000Y-58908000D01*
X102362000Y-58908000D01*
X102362000Y-58928000D01*
X103504915Y-58928000D01*
X103626904Y-58705961D01*
X103466041Y-58317577D01*
X103090134Y-57902611D01*
X102873297Y-57799986D01*
X103277811Y-57529698D01*
X103588880Y-57064151D01*
X103698113Y-56515000D01*
X103588880Y-55965849D01*
X103277811Y-55500302D01*
X102895725Y-55245000D01*
X103277811Y-54989698D01*
X103588880Y-54524151D01*
X103698113Y-53975000D01*
X103588880Y-53425849D01*
X103277811Y-52960302D01*
X103133535Y-52863899D01*
X103270317Y-52838162D01*
X103486441Y-52699090D01*
X103631431Y-52486890D01*
X103682440Y-52235000D01*
X103682440Y-50635000D01*
X103638162Y-50399683D01*
X103499090Y-50183559D01*
X103286890Y-50038569D01*
X103035000Y-49987560D01*
X101435000Y-49987560D01*
X101199683Y-50031838D01*
X101090000Y-50102417D01*
X101090000Y-50092463D01*
X101122192Y-50060327D01*
X101264838Y-49716799D01*
X101265162Y-49344833D01*
X101123117Y-49001057D01*
X101090000Y-48967882D01*
X101090000Y-39049802D01*
X102655000Y-37484802D01*
X102655000Y-37494093D01*
X102768039Y-38062378D01*
X103089946Y-38544147D01*
X103091179Y-38544971D01*
X103054683Y-38551838D01*
X102838559Y-38690910D01*
X102693569Y-38903110D01*
X102642560Y-39155000D01*
X102642560Y-40855000D01*
X102686838Y-41090317D01*
X102825910Y-41306441D01*
X103038110Y-41451431D01*
X103290000Y-41502440D01*
X103380000Y-41502440D01*
X103380000Y-49530000D01*
X103437852Y-49820839D01*
X103602599Y-50067401D01*
X104650000Y-51114802D01*
X104650000Y-55317537D01*
X104617808Y-55349673D01*
X104475162Y-55693201D01*
X104474838Y-56065167D01*
X104616883Y-56408943D01*
X104879673Y-56672192D01*
X105223201Y-56814838D01*
X105285000Y-56814892D01*
X105285000Y-57857537D01*
X105252808Y-57889673D01*
X105110162Y-58233201D01*
X105109838Y-58605167D01*
X105251883Y-58948943D01*
X105514673Y-59212192D01*
X105858201Y-59354838D01*
X105920000Y-59354892D01*
X105920000Y-60397537D01*
X105887808Y-60429673D01*
X105745162Y-60773201D01*
X105744838Y-61145167D01*
X105886883Y-61488943D01*
X106149673Y-61752192D01*
X106493201Y-61894838D01*
X106555000Y-61894892D01*
X106555000Y-62937537D01*
X106522808Y-62969673D01*
X106380162Y-63313201D01*
X106379838Y-63685167D01*
X106521883Y-64028943D01*
X106784673Y-64292192D01*
X107128201Y-64434838D01*
X107190000Y-64434892D01*
X107190000Y-65477537D01*
X107157808Y-65509673D01*
X107015162Y-65853201D01*
X107014838Y-66225167D01*
X107156883Y-66568943D01*
X107419673Y-66832192D01*
X107763201Y-66974838D01*
X107825000Y-66974892D01*
X107825000Y-68580000D01*
X107882852Y-68870839D01*
X108047599Y-69117401D01*
X108453141Y-69522943D01*
X108501120Y-69764151D01*
X108812189Y-70229698D01*
X109277736Y-70540767D01*
X109826887Y-70650000D01*
X109883113Y-70650000D01*
X110432264Y-70540767D01*
X110897811Y-70229698D01*
X111208880Y-69764151D01*
X111318113Y-69215000D01*
X111251499Y-68880111D01*
X111310167Y-68880162D01*
X111653943Y-68738117D01*
X111917192Y-68475327D01*
X112059838Y-68131799D01*
X112060162Y-67759833D01*
X111918117Y-67416057D01*
X111885000Y-67382882D01*
X111885000Y-67024039D01*
X116083096Y-67024039D01*
X116243959Y-67412423D01*
X116619866Y-67827389D01*
X117125959Y-68066914D01*
X117348000Y-67945629D01*
X117348000Y-66802000D01*
X117602000Y-66802000D01*
X117602000Y-67945629D01*
X117824041Y-68066914D01*
X118330134Y-67827389D01*
X118706041Y-67412423D01*
X118866904Y-67024039D01*
X118744915Y-66802000D01*
X117602000Y-66802000D01*
X117348000Y-66802000D01*
X116205085Y-66802000D01*
X116083096Y-67024039D01*
X111885000Y-67024039D01*
X111885000Y-66675000D01*
X123631887Y-66675000D01*
X123741120Y-67224151D01*
X124052189Y-67689698D01*
X124517736Y-68000767D01*
X125066887Y-68110000D01*
X125123113Y-68110000D01*
X125672264Y-68000767D01*
X126137811Y-67689698D01*
X126448880Y-67224151D01*
X126558113Y-66675000D01*
X126552521Y-66646887D01*
X149060000Y-66646887D01*
X149060000Y-66703113D01*
X149169233Y-67252264D01*
X149480302Y-67717811D01*
X149945849Y-68028880D01*
X150495000Y-68138113D01*
X151044151Y-68028880D01*
X151509698Y-67717811D01*
X151765000Y-67335725D01*
X152020302Y-67717811D01*
X152485849Y-68028880D01*
X153035000Y-68138113D01*
X153584151Y-68028880D01*
X154049698Y-67717811D01*
X154305000Y-67335725D01*
X154560302Y-67717811D01*
X155025849Y-68028880D01*
X155575000Y-68138113D01*
X156124151Y-68028880D01*
X156589698Y-67717811D01*
X156845000Y-67335725D01*
X157100302Y-67717811D01*
X157565849Y-68028880D01*
X158115000Y-68138113D01*
X158664151Y-68028880D01*
X159129698Y-67717811D01*
X159385000Y-67335725D01*
X159640302Y-67717811D01*
X160105849Y-68028880D01*
X160655000Y-68138113D01*
X161204151Y-68028880D01*
X161669698Y-67717811D01*
X161925000Y-67335725D01*
X162180302Y-67717811D01*
X162645849Y-68028880D01*
X163195000Y-68138113D01*
X163744151Y-68028880D01*
X164209698Y-67717811D01*
X164465000Y-67335725D01*
X164720302Y-67717811D01*
X165185849Y-68028880D01*
X165735000Y-68138113D01*
X166284151Y-68028880D01*
X166749698Y-67717811D01*
X167005000Y-67335725D01*
X167260302Y-67717811D01*
X167725849Y-68028880D01*
X168275000Y-68138113D01*
X168824151Y-68028880D01*
X169289698Y-67717811D01*
X169545000Y-67335725D01*
X169800302Y-67717811D01*
X170265849Y-68028880D01*
X170815000Y-68138113D01*
X171364151Y-68028880D01*
X171829698Y-67717811D01*
X172085000Y-67335725D01*
X172340302Y-67717811D01*
X172805849Y-68028880D01*
X173355000Y-68138113D01*
X173904151Y-68028880D01*
X174369698Y-67717811D01*
X174639986Y-67313297D01*
X174742611Y-67530134D01*
X175157577Y-67906041D01*
X175545961Y-68066904D01*
X175768000Y-67944915D01*
X175768000Y-66802000D01*
X176022000Y-66802000D01*
X176022000Y-67944915D01*
X176244039Y-68066904D01*
X176632423Y-67906041D01*
X177047389Y-67530134D01*
X177165000Y-67281633D01*
X177282611Y-67530134D01*
X177697577Y-67906041D01*
X178085961Y-68066904D01*
X178308000Y-67944915D01*
X178308000Y-66802000D01*
X178562000Y-66802000D01*
X178562000Y-67944915D01*
X178784039Y-68066904D01*
X179172423Y-67906041D01*
X179587389Y-67530134D01*
X179826914Y-67024041D01*
X179705629Y-66802000D01*
X178562000Y-66802000D01*
X178308000Y-66802000D01*
X176022000Y-66802000D01*
X175768000Y-66802000D01*
X175748000Y-66802000D01*
X175748000Y-66675000D01*
X182686887Y-66675000D01*
X182796120Y-67224151D01*
X183107189Y-67689698D01*
X183572736Y-68000767D01*
X184121887Y-68110000D01*
X184178113Y-68110000D01*
X184727264Y-68000767D01*
X185192811Y-67689698D01*
X185503880Y-67224151D01*
X185556584Y-66959187D01*
X192874752Y-66959187D01*
X193092757Y-67486800D01*
X193496077Y-67890824D01*
X194023309Y-68109750D01*
X194594187Y-68110248D01*
X195121800Y-67892243D01*
X195525824Y-67488923D01*
X195744750Y-66961691D01*
X195745248Y-66390813D01*
X195527243Y-65863200D01*
X195123923Y-65459176D01*
X194596691Y-65240250D01*
X194025813Y-65239752D01*
X193498200Y-65457757D01*
X193094176Y-65861077D01*
X192875250Y-66388309D01*
X192874752Y-66959187D01*
X185556584Y-66959187D01*
X185613113Y-66675000D01*
X185503880Y-66125849D01*
X185192811Y-65660302D01*
X184727264Y-65349233D01*
X184178113Y-65240000D01*
X184121887Y-65240000D01*
X183572736Y-65349233D01*
X183107189Y-65660302D01*
X182796120Y-66125849D01*
X182686887Y-66675000D01*
X175748000Y-66675000D01*
X175748000Y-66548000D01*
X175768000Y-66548000D01*
X175768000Y-65405085D01*
X176022000Y-65405085D01*
X176022000Y-66548000D01*
X178308000Y-66548000D01*
X178308000Y-65405085D01*
X178562000Y-65405085D01*
X178562000Y-66548000D01*
X179705629Y-66548000D01*
X179826914Y-66325959D01*
X179587389Y-65819866D01*
X179172423Y-65443959D01*
X178784039Y-65283096D01*
X178562000Y-65405085D01*
X178308000Y-65405085D01*
X178085961Y-65283096D01*
X177697577Y-65443959D01*
X177282611Y-65819866D01*
X177165000Y-66068367D01*
X177047389Y-65819866D01*
X176632423Y-65443959D01*
X176244039Y-65283096D01*
X176022000Y-65405085D01*
X175768000Y-65405085D01*
X175545961Y-65283096D01*
X175157577Y-65443959D01*
X174742611Y-65819866D01*
X174639986Y-66036703D01*
X174369698Y-65632189D01*
X173904151Y-65321120D01*
X173355000Y-65211887D01*
X172805849Y-65321120D01*
X172340302Y-65632189D01*
X172085000Y-66014275D01*
X171829698Y-65632189D01*
X171364151Y-65321120D01*
X170815000Y-65211887D01*
X170265849Y-65321120D01*
X169800302Y-65632189D01*
X169545000Y-66014275D01*
X169289698Y-65632189D01*
X168824151Y-65321120D01*
X168275000Y-65211887D01*
X167725849Y-65321120D01*
X167260302Y-65632189D01*
X167005000Y-66014275D01*
X166749698Y-65632189D01*
X166284151Y-65321120D01*
X165735000Y-65211887D01*
X165185849Y-65321120D01*
X164720302Y-65632189D01*
X164465000Y-66014275D01*
X164209698Y-65632189D01*
X163744151Y-65321120D01*
X163195000Y-65211887D01*
X162645849Y-65321120D01*
X162180302Y-65632189D01*
X161925000Y-66014275D01*
X161669698Y-65632189D01*
X161204151Y-65321120D01*
X160655000Y-65211887D01*
X160105849Y-65321120D01*
X159640302Y-65632189D01*
X159385000Y-66014275D01*
X159129698Y-65632189D01*
X158664151Y-65321120D01*
X158115000Y-65211887D01*
X157565849Y-65321120D01*
X157100302Y-65632189D01*
X156845000Y-66014275D01*
X156589698Y-65632189D01*
X156124151Y-65321120D01*
X155575000Y-65211887D01*
X155025849Y-65321120D01*
X154560302Y-65632189D01*
X154305000Y-66014275D01*
X154049698Y-65632189D01*
X153584151Y-65321120D01*
X153035000Y-65211887D01*
X152485849Y-65321120D01*
X152020302Y-65632189D01*
X151765000Y-66014275D01*
X151509698Y-65632189D01*
X151044151Y-65321120D01*
X150495000Y-65211887D01*
X149945849Y-65321120D01*
X149480302Y-65632189D01*
X149169233Y-66097736D01*
X149060000Y-66646887D01*
X126552521Y-66646887D01*
X126448880Y-66125849D01*
X126137811Y-65660302D01*
X125733297Y-65390014D01*
X125950134Y-65287389D01*
X126326041Y-64872423D01*
X126486904Y-64484039D01*
X126364915Y-64262000D01*
X125222000Y-64262000D01*
X125222000Y-64282000D01*
X124968000Y-64282000D01*
X124968000Y-64262000D01*
X123825085Y-64262000D01*
X123703096Y-64484039D01*
X123863959Y-64872423D01*
X124239866Y-65287389D01*
X124456703Y-65390014D01*
X124052189Y-65660302D01*
X123741120Y-66125849D01*
X123631887Y-66675000D01*
X111885000Y-66675000D01*
X111885000Y-64135000D01*
X116011887Y-64135000D01*
X116121120Y-64684151D01*
X116432189Y-65149698D01*
X116836703Y-65419986D01*
X116619866Y-65522611D01*
X116243959Y-65937577D01*
X116083096Y-66325961D01*
X116205085Y-66548000D01*
X117348000Y-66548000D01*
X117348000Y-66528000D01*
X117602000Y-66528000D01*
X117602000Y-66548000D01*
X118744915Y-66548000D01*
X118866904Y-66325961D01*
X118706041Y-65937577D01*
X118330134Y-65522611D01*
X118113297Y-65419986D01*
X118517811Y-65149698D01*
X118828880Y-64684151D01*
X118938113Y-64135000D01*
X118828880Y-63585849D01*
X118517811Y-63120302D01*
X118113297Y-62850014D01*
X118330134Y-62747389D01*
X118706041Y-62332423D01*
X118866904Y-61944039D01*
X118744915Y-61722000D01*
X117602000Y-61722000D01*
X117602000Y-61742000D01*
X117348000Y-61742000D01*
X117348000Y-61722000D01*
X116205085Y-61722000D01*
X116083096Y-61944039D01*
X116243959Y-62332423D01*
X116619866Y-62747389D01*
X116836703Y-62850014D01*
X116432189Y-63120302D01*
X116121120Y-63585849D01*
X116011887Y-64135000D01*
X111885000Y-64135000D01*
X111885000Y-61595000D01*
X123631887Y-61595000D01*
X123741120Y-62144151D01*
X124052189Y-62609698D01*
X124456703Y-62879986D01*
X124239866Y-62982611D01*
X123863959Y-63397577D01*
X123703096Y-63785961D01*
X123825085Y-64008000D01*
X124968000Y-64008000D01*
X124968000Y-63988000D01*
X125222000Y-63988000D01*
X125222000Y-64008000D01*
X126364915Y-64008000D01*
X126486904Y-63785961D01*
X126326041Y-63397577D01*
X125950134Y-62982611D01*
X125733297Y-62879986D01*
X125755725Y-62865000D01*
X182686887Y-62865000D01*
X182796120Y-63414151D01*
X183107189Y-63879698D01*
X183572736Y-64190767D01*
X184121887Y-64300000D01*
X184178113Y-64300000D01*
X184727264Y-64190767D01*
X185192811Y-63879698D01*
X185503880Y-63414151D01*
X185556584Y-63149187D01*
X192874752Y-63149187D01*
X193092757Y-63676800D01*
X193496077Y-64080824D01*
X194023309Y-64299750D01*
X194594187Y-64300248D01*
X195121800Y-64082243D01*
X195525824Y-63678923D01*
X195744750Y-63151691D01*
X195745248Y-62580813D01*
X195527243Y-62053200D01*
X195123923Y-61649176D01*
X194596691Y-61430250D01*
X194025813Y-61429752D01*
X193498200Y-61647757D01*
X193094176Y-62051077D01*
X192875250Y-62578309D01*
X192874752Y-63149187D01*
X185556584Y-63149187D01*
X185613113Y-62865000D01*
X185503880Y-62315849D01*
X185192811Y-61850302D01*
X184727264Y-61539233D01*
X184178113Y-61430000D01*
X184121887Y-61430000D01*
X183572736Y-61539233D01*
X183107189Y-61850302D01*
X182796120Y-62315849D01*
X182686887Y-62865000D01*
X125755725Y-62865000D01*
X126137811Y-62609698D01*
X126448880Y-62144151D01*
X126558113Y-61595000D01*
X126448880Y-61045849D01*
X126137811Y-60580302D01*
X125733297Y-60310014D01*
X125950134Y-60207389D01*
X126326041Y-59792423D01*
X126486904Y-59404039D01*
X126364915Y-59182000D01*
X125222000Y-59182000D01*
X125222000Y-59202000D01*
X124968000Y-59202000D01*
X124968000Y-59182000D01*
X123825085Y-59182000D01*
X123703096Y-59404039D01*
X123863959Y-59792423D01*
X124239866Y-60207389D01*
X124456703Y-60310014D01*
X124052189Y-60580302D01*
X123741120Y-61045849D01*
X123631887Y-61595000D01*
X111885000Y-61595000D01*
X111885000Y-59055000D01*
X116011887Y-59055000D01*
X116121120Y-59604151D01*
X116432189Y-60069698D01*
X116836703Y-60339986D01*
X116619866Y-60442611D01*
X116243959Y-60857577D01*
X116083096Y-61245961D01*
X116205085Y-61468000D01*
X117348000Y-61468000D01*
X117348000Y-61448000D01*
X117602000Y-61448000D01*
X117602000Y-61468000D01*
X118744915Y-61468000D01*
X118866904Y-61245961D01*
X118706041Y-60857577D01*
X118330134Y-60442611D01*
X118113297Y-60339986D01*
X118517811Y-60069698D01*
X118828880Y-59604151D01*
X118938113Y-59055000D01*
X182686887Y-59055000D01*
X182796120Y-59604151D01*
X183107189Y-60069698D01*
X183572736Y-60380767D01*
X184121887Y-60490000D01*
X184178113Y-60490000D01*
X184727264Y-60380767D01*
X185192811Y-60069698D01*
X185503880Y-59604151D01*
X185613113Y-59055000D01*
X185503880Y-58505849D01*
X185192811Y-58040302D01*
X184727264Y-57729233D01*
X184178113Y-57620000D01*
X184121887Y-57620000D01*
X183572736Y-57729233D01*
X183107189Y-58040302D01*
X182796120Y-58505849D01*
X182686887Y-59055000D01*
X118938113Y-59055000D01*
X118828880Y-58505849D01*
X118517811Y-58040302D01*
X118113297Y-57770014D01*
X118330134Y-57667389D01*
X118706041Y-57252423D01*
X118866904Y-56864039D01*
X118744915Y-56642000D01*
X117602000Y-56642000D01*
X117602000Y-56662000D01*
X117348000Y-56662000D01*
X117348000Y-56642000D01*
X116205085Y-56642000D01*
X116083096Y-56864039D01*
X116243959Y-57252423D01*
X116619866Y-57667389D01*
X116836703Y-57770014D01*
X116432189Y-58040302D01*
X116121120Y-58505849D01*
X116011887Y-59055000D01*
X111885000Y-59055000D01*
X111885000Y-57442745D01*
X112836861Y-57442745D01*
X112910995Y-57688864D01*
X113448223Y-57881965D01*
X114018454Y-57854778D01*
X114419005Y-57688864D01*
X114493139Y-57442745D01*
X113665000Y-56614605D01*
X112836861Y-57442745D01*
X111885000Y-57442745D01*
X111885000Y-56218223D01*
X112218035Y-56218223D01*
X112245222Y-56788454D01*
X112411136Y-57189005D01*
X112657255Y-57263139D01*
X113485395Y-56435000D01*
X113844605Y-56435000D01*
X114672745Y-57263139D01*
X114918864Y-57189005D01*
X115111965Y-56651777D01*
X115084778Y-56081546D01*
X114918864Y-55680995D01*
X114672745Y-55606861D01*
X113844605Y-56435000D01*
X113485395Y-56435000D01*
X112657255Y-55606861D01*
X112411136Y-55680995D01*
X112218035Y-56218223D01*
X111885000Y-56218223D01*
X111885000Y-55427255D01*
X112836861Y-55427255D01*
X113665000Y-56255395D01*
X114493139Y-55427255D01*
X114419005Y-55181136D01*
X113881777Y-54988035D01*
X113311546Y-55015222D01*
X112910995Y-55181136D01*
X112836861Y-55427255D01*
X111885000Y-55427255D01*
X111885000Y-53975000D01*
X116011887Y-53975000D01*
X116121120Y-54524151D01*
X116432189Y-54989698D01*
X116836703Y-55259986D01*
X116619866Y-55362611D01*
X116243959Y-55777577D01*
X116083096Y-56165961D01*
X116205085Y-56388000D01*
X117348000Y-56388000D01*
X117348000Y-56368000D01*
X117602000Y-56368000D01*
X117602000Y-56388000D01*
X118744915Y-56388000D01*
X118866904Y-56165961D01*
X118706041Y-55777577D01*
X118330134Y-55362611D01*
X118113297Y-55259986D01*
X118517811Y-54989698D01*
X118828880Y-54524151D01*
X118938113Y-53975000D01*
X118828880Y-53425849D01*
X118517811Y-52960302D01*
X118382665Y-52870000D01*
X118401309Y-52870000D01*
X118634698Y-52773327D01*
X118813327Y-52594699D01*
X118910000Y-52361310D01*
X118910000Y-51720750D01*
X118751250Y-51562000D01*
X117602000Y-51562000D01*
X117602000Y-51582000D01*
X117348000Y-51582000D01*
X117348000Y-51562000D01*
X116198750Y-51562000D01*
X116040000Y-51720750D01*
X116040000Y-52361310D01*
X116136673Y-52594699D01*
X116315302Y-52773327D01*
X116548691Y-52870000D01*
X116567335Y-52870000D01*
X116432189Y-52960302D01*
X116121120Y-53425849D01*
X116011887Y-53975000D01*
X111885000Y-53975000D01*
X111885000Y-50479802D01*
X112074802Y-50290000D01*
X112780831Y-50290000D01*
X112449176Y-50621077D01*
X112230250Y-51148309D01*
X112229752Y-51719187D01*
X112447757Y-52246800D01*
X112851077Y-52650824D01*
X113378309Y-52869750D01*
X113949187Y-52870248D01*
X114476800Y-52652243D01*
X114880824Y-52248923D01*
X115099750Y-51721691D01*
X115100000Y-51435000D01*
X123631887Y-51435000D01*
X123741120Y-51984151D01*
X124052189Y-52449698D01*
X124434275Y-52705000D01*
X124052189Y-52960302D01*
X123741120Y-53425849D01*
X123631887Y-53975000D01*
X123741120Y-54524151D01*
X124052189Y-54989698D01*
X124434275Y-55245000D01*
X124052189Y-55500302D01*
X123741120Y-55965849D01*
X123631887Y-56515000D01*
X123741120Y-57064151D01*
X124052189Y-57529698D01*
X124456703Y-57799986D01*
X124239866Y-57902611D01*
X123863959Y-58317577D01*
X123703096Y-58705961D01*
X123825085Y-58928000D01*
X124968000Y-58928000D01*
X124968000Y-58908000D01*
X125222000Y-58908000D01*
X125222000Y-58928000D01*
X126364915Y-58928000D01*
X126486904Y-58705961D01*
X126326041Y-58317577D01*
X125950134Y-57902611D01*
X125733297Y-57799986D01*
X126137811Y-57529698D01*
X126195911Y-57442745D01*
X128076861Y-57442745D01*
X128150995Y-57688864D01*
X128688223Y-57881965D01*
X129258454Y-57854778D01*
X129659005Y-57688864D01*
X129733139Y-57442745D01*
X145856861Y-57442745D01*
X145930995Y-57688864D01*
X146468223Y-57881965D01*
X147038454Y-57854778D01*
X147439005Y-57688864D01*
X147513139Y-57442745D01*
X146685000Y-56614605D01*
X145856861Y-57442745D01*
X129733139Y-57442745D01*
X128905000Y-56614605D01*
X128076861Y-57442745D01*
X126195911Y-57442745D01*
X126307995Y-57275000D01*
X126365000Y-57275000D01*
X126655839Y-57217148D01*
X126902401Y-57052401D01*
X127470711Y-56484091D01*
X127485222Y-56788454D01*
X127651136Y-57189005D01*
X127897255Y-57263139D01*
X128725395Y-56435000D01*
X129084605Y-56435000D01*
X129912745Y-57263139D01*
X130158864Y-57189005D01*
X130351965Y-56651777D01*
X130331295Y-56218223D01*
X145238035Y-56218223D01*
X145265222Y-56788454D01*
X145431136Y-57189005D01*
X145677255Y-57263139D01*
X146505395Y-56435000D01*
X146864605Y-56435000D01*
X147692745Y-57263139D01*
X147938864Y-57189005D01*
X148131965Y-56651777D01*
X148104778Y-56081546D01*
X147938864Y-55680995D01*
X147692745Y-55606861D01*
X146864605Y-56435000D01*
X146505395Y-56435000D01*
X145677255Y-55606861D01*
X145431136Y-55680995D01*
X145238035Y-56218223D01*
X130331295Y-56218223D01*
X130324778Y-56081546D01*
X130158864Y-55680995D01*
X129912745Y-55606861D01*
X129084605Y-56435000D01*
X128725395Y-56435000D01*
X127897255Y-55606861D01*
X127760000Y-55648204D01*
X127760000Y-55427255D01*
X128076861Y-55427255D01*
X128905000Y-56255395D01*
X129733139Y-55427255D01*
X145856861Y-55427255D01*
X146685000Y-56255395D01*
X147513139Y-55427255D01*
X147439005Y-55181136D01*
X146901777Y-54988035D01*
X146331546Y-55015222D01*
X145930995Y-55181136D01*
X145856861Y-55427255D01*
X129733139Y-55427255D01*
X129659005Y-55181136D01*
X129121777Y-54988035D01*
X128551546Y-55015222D01*
X128150995Y-55181136D01*
X128076861Y-55427255D01*
X127760000Y-55427255D01*
X127760000Y-53624187D01*
X132549752Y-53624187D01*
X132767757Y-54151800D01*
X133171077Y-54555824D01*
X133698309Y-54774750D01*
X134269187Y-54775248D01*
X134796800Y-54557243D01*
X135006663Y-54347745D01*
X140776861Y-54347745D01*
X140850995Y-54593864D01*
X141388223Y-54786965D01*
X141958454Y-54759778D01*
X142359005Y-54593864D01*
X142433139Y-54347745D01*
X141605000Y-53519605D01*
X140776861Y-54347745D01*
X135006663Y-54347745D01*
X135200824Y-54153923D01*
X135419750Y-53626691D01*
X135420189Y-53123223D01*
X140158035Y-53123223D01*
X140185222Y-53693454D01*
X140351136Y-54094005D01*
X140597255Y-54168139D01*
X141425395Y-53340000D01*
X141784605Y-53340000D01*
X142612745Y-54168139D01*
X142858864Y-54094005D01*
X143051965Y-53556777D01*
X143024778Y-52986546D01*
X142858864Y-52585995D01*
X142612745Y-52511861D01*
X141784605Y-53340000D01*
X141425395Y-53340000D01*
X140597255Y-52511861D01*
X140351136Y-52585995D01*
X140158035Y-53123223D01*
X135420189Y-53123223D01*
X135420248Y-53055813D01*
X135202243Y-52528200D01*
X135006640Y-52332255D01*
X140776861Y-52332255D01*
X141605000Y-53160395D01*
X142433139Y-52332255D01*
X142359005Y-52086136D01*
X141821777Y-51893035D01*
X141251546Y-51920222D01*
X140850995Y-52086136D01*
X140776861Y-52332255D01*
X135006640Y-52332255D01*
X134798923Y-52124176D01*
X134271691Y-51905250D01*
X133700813Y-51904752D01*
X133173200Y-52122757D01*
X132769176Y-52526077D01*
X132550250Y-53053309D01*
X132549752Y-53624187D01*
X127760000Y-53624187D01*
X127760000Y-52319169D01*
X128091077Y-52650824D01*
X128618309Y-52869750D01*
X129189187Y-52870248D01*
X129716800Y-52652243D01*
X130120824Y-52248923D01*
X130339750Y-51721691D01*
X130339752Y-51719187D01*
X145249752Y-51719187D01*
X145467757Y-52246800D01*
X145871077Y-52650824D01*
X146398309Y-52869750D01*
X146969187Y-52870248D01*
X147496800Y-52652243D01*
X147900824Y-52248923D01*
X148119750Y-51721691D01*
X148120248Y-51150813D01*
X147902243Y-50623200D01*
X147498923Y-50219176D01*
X146971691Y-50000250D01*
X146400813Y-49999752D01*
X145873200Y-50217757D01*
X145469176Y-50621077D01*
X145250250Y-51148309D01*
X145249752Y-51719187D01*
X130339752Y-51719187D01*
X130340248Y-51150813D01*
X130122243Y-50623200D01*
X129718923Y-50219176D01*
X129191691Y-50000250D01*
X128620813Y-49999752D01*
X128093200Y-50217757D01*
X127760000Y-50550376D01*
X127760000Y-49715167D01*
X133049838Y-49715167D01*
X133191883Y-50058943D01*
X133454673Y-50322192D01*
X133798201Y-50464838D01*
X134170167Y-50465162D01*
X134513943Y-50323117D01*
X134777192Y-50060327D01*
X134919838Y-49716799D01*
X134920162Y-49344833D01*
X134778117Y-49001057D01*
X134745000Y-48967882D01*
X134745000Y-47304802D01*
X134759680Y-47290122D01*
X134805167Y-47290162D01*
X135148943Y-47148117D01*
X135412192Y-46885327D01*
X135554838Y-46541799D01*
X135555162Y-46169833D01*
X135413117Y-45826057D01*
X135150327Y-45562808D01*
X134806799Y-45420162D01*
X134434833Y-45419838D01*
X134091057Y-45561883D01*
X133827808Y-45824673D01*
X133685162Y-46168201D01*
X133685121Y-46215077D01*
X133447599Y-46452599D01*
X133282852Y-46699161D01*
X133225000Y-46990000D01*
X133225000Y-48967537D01*
X133192808Y-48999673D01*
X133050162Y-49343201D01*
X133049838Y-49715167D01*
X127760000Y-49715167D01*
X127760000Y-48574802D01*
X127774680Y-48560122D01*
X127820167Y-48560162D01*
X128163943Y-48418117D01*
X128427192Y-48155327D01*
X128569838Y-47811799D01*
X128570162Y-47439833D01*
X128428117Y-47096057D01*
X128165327Y-46832808D01*
X127901446Y-46723235D01*
X127793117Y-46461057D01*
X127530327Y-46197808D01*
X127186799Y-46055162D01*
X126814833Y-46054838D01*
X126471057Y-46196883D01*
X126207808Y-46459673D01*
X126065162Y-46803201D01*
X126065121Y-46850077D01*
X125827599Y-47087599D01*
X125662852Y-47334161D01*
X125605000Y-47625000D01*
X125605000Y-50095853D01*
X125123113Y-50000000D01*
X125066887Y-50000000D01*
X124517736Y-50109233D01*
X124052189Y-50420302D01*
X123741120Y-50885849D01*
X123631887Y-51435000D01*
X115100000Y-51435000D01*
X115100248Y-51150813D01*
X114882243Y-50623200D01*
X114549624Y-50290000D01*
X116130584Y-50290000D01*
X116040000Y-50508690D01*
X116040000Y-51149250D01*
X116198750Y-51308000D01*
X117348000Y-51308000D01*
X117348000Y-51288000D01*
X117602000Y-51288000D01*
X117602000Y-51308000D01*
X118751250Y-51308000D01*
X118910000Y-51149250D01*
X118910000Y-50508690D01*
X118813751Y-50276324D01*
X119035839Y-50232148D01*
X119282401Y-50067401D01*
X119917401Y-49432401D01*
X120082148Y-49185839D01*
X120140000Y-48895000D01*
X120140000Y-41277954D01*
X120430054Y-41084147D01*
X120751961Y-40602378D01*
X120865000Y-40034093D01*
X120865000Y-39975907D01*
X120751961Y-39407622D01*
X120430054Y-38925853D01*
X120144422Y-38735000D01*
X120430054Y-38544147D01*
X120751961Y-38062378D01*
X120865000Y-37494093D01*
X120865000Y-37435907D01*
X120769342Y-36955000D01*
X154077560Y-36955000D01*
X154077560Y-38315000D01*
X154121838Y-38550317D01*
X154260910Y-38766441D01*
X154473110Y-38911431D01*
X154540541Y-38925086D01*
X154495853Y-38954946D01*
X154173946Y-39436715D01*
X154060907Y-40005000D01*
X154173946Y-40573285D01*
X154495853Y-41055054D01*
X154825026Y-41275000D01*
X154495853Y-41494946D01*
X154173946Y-41976715D01*
X154060907Y-42545000D01*
X154173946Y-43113285D01*
X154495853Y-43595054D01*
X154977622Y-43916961D01*
X155545907Y-44030000D01*
X155604093Y-44030000D01*
X156172378Y-43916961D01*
X156654147Y-43595054D01*
X156976054Y-43113285D01*
X157089093Y-42545000D01*
X156976054Y-41976715D01*
X156654147Y-41494946D01*
X156324974Y-41275000D01*
X156654147Y-41055054D01*
X156847954Y-40765000D01*
X157165198Y-40765000D01*
X157355000Y-40954802D01*
X157355000Y-48895000D01*
X157412852Y-49185839D01*
X157577599Y-49432401D01*
X157814878Y-49669680D01*
X157814838Y-49715167D01*
X157935653Y-50007561D01*
X157565849Y-50081120D01*
X157100302Y-50392189D01*
X156845000Y-50774275D01*
X156589698Y-50392189D01*
X156124151Y-50081120D01*
X155575000Y-49971887D01*
X155025849Y-50081120D01*
X154560302Y-50392189D01*
X154305000Y-50774275D01*
X154049698Y-50392189D01*
X153584151Y-50081120D01*
X153035000Y-49971887D01*
X152548933Y-50068572D01*
X152557192Y-50060327D01*
X152699838Y-49716799D01*
X152699879Y-49669923D01*
X152937401Y-49432401D01*
X153102148Y-49185839D01*
X153160000Y-48895000D01*
X153160000Y-46917463D01*
X153192192Y-46885327D01*
X153334838Y-46541799D01*
X153335162Y-46169833D01*
X153193117Y-45826057D01*
X152930327Y-45562808D01*
X152586799Y-45420162D01*
X152214833Y-45419838D01*
X151871057Y-45561883D01*
X151607808Y-45824673D01*
X151465162Y-46168201D01*
X151464838Y-46540167D01*
X151606883Y-46883943D01*
X151640000Y-46917118D01*
X151640000Y-48580198D01*
X151625320Y-48594878D01*
X151579833Y-48594838D01*
X151236057Y-48736883D01*
X150972808Y-48999673D01*
X150830162Y-49343201D01*
X150829838Y-49715167D01*
X150971883Y-50058943D01*
X150981601Y-50068678D01*
X150495000Y-49971887D01*
X149945849Y-50081120D01*
X149480302Y-50392189D01*
X149169233Y-50857736D01*
X149060000Y-51406887D01*
X149060000Y-51463113D01*
X149169233Y-52012264D01*
X149480302Y-52477811D01*
X149812736Y-52699937D01*
X149702808Y-52809673D01*
X149560162Y-53153201D01*
X149559838Y-53525167D01*
X149701883Y-53868943D01*
X149964673Y-54132192D01*
X150308201Y-54274838D01*
X150680167Y-54275162D01*
X151023943Y-54133117D01*
X151287192Y-53870327D01*
X151429838Y-53526799D01*
X151429879Y-53479923D01*
X151444802Y-53465000D01*
X159385000Y-53465000D01*
X159675839Y-53407148D01*
X159922401Y-53242401D01*
X160087148Y-52995839D01*
X160127460Y-52793179D01*
X160655000Y-52898113D01*
X161204151Y-52788880D01*
X161669698Y-52477811D01*
X161925000Y-52095725D01*
X162180302Y-52477811D01*
X162645849Y-52788880D01*
X163195000Y-52898113D01*
X163744151Y-52788880D01*
X164209698Y-52477811D01*
X164465000Y-52095725D01*
X164720302Y-52477811D01*
X165185849Y-52788880D01*
X165735000Y-52898113D01*
X166284151Y-52788880D01*
X166749698Y-52477811D01*
X167005000Y-52095725D01*
X167260302Y-52477811D01*
X167725849Y-52788880D01*
X168275000Y-52898113D01*
X168824151Y-52788880D01*
X169289698Y-52477811D01*
X169545000Y-52095725D01*
X169800302Y-52477811D01*
X170265849Y-52788880D01*
X170815000Y-52898113D01*
X171364151Y-52788880D01*
X171829698Y-52477811D01*
X172085000Y-52095725D01*
X172340302Y-52477811D01*
X172805849Y-52788880D01*
X173355000Y-52898113D01*
X173904151Y-52788880D01*
X174369698Y-52477811D01*
X174625000Y-52095725D01*
X174880302Y-52477811D01*
X175135000Y-52647995D01*
X175135000Y-53412537D01*
X175102808Y-53444673D01*
X174960162Y-53788201D01*
X174959838Y-54160167D01*
X175101883Y-54503943D01*
X175364673Y-54767192D01*
X175708201Y-54909838D01*
X176080167Y-54910162D01*
X176423943Y-54768117D01*
X176687192Y-54505327D01*
X176829838Y-54161799D01*
X176830162Y-53789833D01*
X176720805Y-53525167D01*
X189564838Y-53525167D01*
X189706883Y-53868943D01*
X189969673Y-54132192D01*
X190313201Y-54274838D01*
X190685167Y-54275162D01*
X191028943Y-54133117D01*
X191292192Y-53870327D01*
X191434838Y-53526799D01*
X191434879Y-53479923D01*
X191645000Y-53269802D01*
X191645000Y-57857537D01*
X191612808Y-57889673D01*
X191470162Y-58233201D01*
X191469838Y-58605167D01*
X191611883Y-58948943D01*
X191874673Y-59212192D01*
X192218201Y-59354838D01*
X192590167Y-59355162D01*
X192874841Y-59237538D01*
X192874752Y-59339187D01*
X193092757Y-59866800D01*
X193496077Y-60270824D01*
X194023309Y-60489750D01*
X194594187Y-60490248D01*
X195121800Y-60272243D01*
X195525824Y-59868923D01*
X195744750Y-59341691D01*
X195745248Y-58770813D01*
X195527243Y-58243200D01*
X195123923Y-57839176D01*
X194596691Y-57620250D01*
X194025813Y-57619752D01*
X193498200Y-57837757D01*
X193270156Y-58065404D01*
X193198117Y-57891057D01*
X193165000Y-57857882D01*
X193165000Y-56026975D01*
X193208110Y-56056431D01*
X193460000Y-56107440D01*
X195160000Y-56107440D01*
X195395317Y-56063162D01*
X195611441Y-55924090D01*
X195756431Y-55711890D01*
X195807440Y-55460000D01*
X195807440Y-55370000D01*
X196215000Y-55370000D01*
X196505839Y-55312148D01*
X196752401Y-55147401D01*
X196989680Y-54910122D01*
X197035167Y-54910162D01*
X197378943Y-54768117D01*
X197642192Y-54505327D01*
X197784838Y-54161799D01*
X197785162Y-53789833D01*
X197643117Y-53446057D01*
X197380327Y-53182808D01*
X197036799Y-53040162D01*
X196664833Y-53039838D01*
X196321057Y-53181883D01*
X196057808Y-53444673D01*
X195915162Y-53788201D01*
X195915121Y-53835077D01*
X195900198Y-53850000D01*
X195807440Y-53850000D01*
X195807440Y-53760000D01*
X195763162Y-53524683D01*
X195624090Y-53308559D01*
X195411890Y-53163569D01*
X195344459Y-53149914D01*
X195389147Y-53120054D01*
X195711054Y-52638285D01*
X195824093Y-52070000D01*
X195711054Y-51501715D01*
X195389147Y-51019946D01*
X195059974Y-50800000D01*
X195389147Y-50580054D01*
X195711054Y-50098285D01*
X195824093Y-49530000D01*
X195711054Y-48961715D01*
X195389147Y-48479946D01*
X195059974Y-48260000D01*
X195389147Y-48040054D01*
X195711054Y-47558285D01*
X195824093Y-46990000D01*
X195711054Y-46421715D01*
X195389147Y-45939946D01*
X195059974Y-45720000D01*
X195389147Y-45500054D01*
X195711054Y-45018285D01*
X195824093Y-44450000D01*
X195711054Y-43881715D01*
X195389147Y-43399946D01*
X195048447Y-43172298D01*
X195191358Y-43105183D01*
X195581645Y-42676924D01*
X195751476Y-42266890D01*
X195630155Y-42037000D01*
X194437000Y-42037000D01*
X194437000Y-42057000D01*
X194183000Y-42057000D01*
X194183000Y-42037000D01*
X192989845Y-42037000D01*
X192868524Y-42266890D01*
X193038355Y-42676924D01*
X193428642Y-43105183D01*
X193571553Y-43172298D01*
X193230853Y-43399946D01*
X193037046Y-43690000D01*
X191770000Y-43690000D01*
X191479161Y-43747852D01*
X191232599Y-43912599D01*
X190597599Y-44547599D01*
X190432852Y-44794161D01*
X190375000Y-45085000D01*
X190375000Y-52390198D01*
X190360320Y-52404878D01*
X190314833Y-52404838D01*
X189971057Y-52546883D01*
X189707808Y-52809673D01*
X189565162Y-53153201D01*
X189564838Y-53525167D01*
X176720805Y-53525167D01*
X176688117Y-53446057D01*
X176655000Y-53412882D01*
X176655000Y-52647995D01*
X176909698Y-52477811D01*
X177000000Y-52342665D01*
X177000000Y-52361309D01*
X177096673Y-52594698D01*
X177275301Y-52773327D01*
X177508690Y-52870000D01*
X178149250Y-52870000D01*
X178308000Y-52711250D01*
X178308000Y-51562000D01*
X178562000Y-51562000D01*
X178562000Y-52711250D01*
X178720750Y-52870000D01*
X179361310Y-52870000D01*
X179594699Y-52773327D01*
X179773327Y-52594698D01*
X179870000Y-52361309D01*
X179870000Y-51720750D01*
X179711250Y-51562000D01*
X178562000Y-51562000D01*
X178308000Y-51562000D01*
X178288000Y-51562000D01*
X178288000Y-51308000D01*
X178308000Y-51308000D01*
X178308000Y-50158750D01*
X178562000Y-50158750D01*
X178562000Y-51308000D01*
X179711250Y-51308000D01*
X179870000Y-51149250D01*
X179870000Y-50508691D01*
X179773327Y-50275302D01*
X179594699Y-50096673D01*
X179361310Y-50000000D01*
X178720750Y-50000000D01*
X178562000Y-50158750D01*
X178308000Y-50158750D01*
X178149250Y-50000000D01*
X177508690Y-50000000D01*
X177275301Y-50096673D01*
X177096673Y-50275302D01*
X177000000Y-50508691D01*
X177000000Y-50527335D01*
X176909698Y-50392189D01*
X176444151Y-50081120D01*
X175895000Y-49971887D01*
X175345849Y-50081120D01*
X174880302Y-50392189D01*
X174625000Y-50774275D01*
X174369698Y-50392189D01*
X173904151Y-50081120D01*
X173355000Y-49971887D01*
X172805849Y-50081120D01*
X172340302Y-50392189D01*
X172085000Y-50774275D01*
X171829698Y-50392189D01*
X171364151Y-50081120D01*
X170815000Y-49971887D01*
X170265849Y-50081120D01*
X169800302Y-50392189D01*
X169545000Y-50774275D01*
X169289698Y-50392189D01*
X168824151Y-50081120D01*
X168275000Y-49971887D01*
X167725849Y-50081120D01*
X167260302Y-50392189D01*
X167005000Y-50774275D01*
X166749698Y-50392189D01*
X166284151Y-50081120D01*
X165735000Y-49971887D01*
X165185849Y-50081120D01*
X164720302Y-50392189D01*
X164465000Y-50774275D01*
X164397119Y-50672683D01*
X165002401Y-50067401D01*
X165167148Y-49820840D01*
X165225000Y-49530000D01*
X165225000Y-47552463D01*
X165257192Y-47520327D01*
X165399838Y-47176799D01*
X165400162Y-46804833D01*
X165258117Y-46461057D01*
X164995327Y-46197808D01*
X164651799Y-46055162D01*
X164279833Y-46054838D01*
X163936057Y-46196883D01*
X163672808Y-46459673D01*
X163530162Y-46803201D01*
X163529838Y-47175167D01*
X163671883Y-47518943D01*
X163705000Y-47552118D01*
X163705000Y-49215198D01*
X162887057Y-50033141D01*
X162645849Y-50081120D01*
X162180302Y-50392189D01*
X161925000Y-50774275D01*
X161669698Y-50392189D01*
X161204151Y-50081120D01*
X160655000Y-49971887D01*
X160145000Y-50073332D01*
X160145000Y-43934342D01*
X160625907Y-44030000D01*
X160684093Y-44030000D01*
X161252378Y-43916961D01*
X161734147Y-43595054D01*
X162056054Y-43113285D01*
X162169093Y-42545000D01*
X162056054Y-41976715D01*
X161773011Y-41553110D01*
X192868524Y-41553110D01*
X192989845Y-41783000D01*
X194183000Y-41783000D01*
X194183000Y-40589181D01*
X194437000Y-40589181D01*
X194437000Y-41783000D01*
X195630155Y-41783000D01*
X195751476Y-41553110D01*
X195581645Y-41143076D01*
X195191358Y-40714817D01*
X194666892Y-40468514D01*
X194437000Y-40589181D01*
X194183000Y-40589181D01*
X193953108Y-40468514D01*
X193428642Y-40714817D01*
X193038355Y-41143076D01*
X192868524Y-41553110D01*
X161773011Y-41553110D01*
X161734147Y-41494946D01*
X161404974Y-41275000D01*
X161734147Y-41055054D01*
X162056054Y-40573285D01*
X162169093Y-40005000D01*
X162056054Y-39436715D01*
X161734147Y-38954946D01*
X161692548Y-38927150D01*
X161740317Y-38918162D01*
X161956441Y-38779090D01*
X162101431Y-38566890D01*
X162152440Y-38315000D01*
X162152440Y-36955000D01*
X168744367Y-36955000D01*
X168610162Y-37278201D01*
X168609838Y-37650167D01*
X168751883Y-37993943D01*
X169014673Y-38257192D01*
X169358201Y-38399838D01*
X169730167Y-38400162D01*
X169949665Y-38309467D01*
X170055000Y-38414802D01*
X170055000Y-39442537D01*
X170022808Y-39474673D01*
X169880162Y-39818201D01*
X169879838Y-40190167D01*
X170021883Y-40533943D01*
X170284673Y-40797192D01*
X170628201Y-40939838D01*
X171000167Y-40940162D01*
X171343943Y-40798117D01*
X171607192Y-40535327D01*
X171749838Y-40191799D01*
X171750162Y-39819833D01*
X171608117Y-39476057D01*
X171575000Y-39442882D01*
X171575000Y-38100000D01*
X171517148Y-37809161D01*
X171352401Y-37562599D01*
X170744802Y-36955000D01*
X171857560Y-36955000D01*
X171857560Y-38315000D01*
X171901838Y-38550317D01*
X172040910Y-38766441D01*
X172253110Y-38911431D01*
X172320541Y-38925086D01*
X172275853Y-38954946D01*
X171953946Y-39436715D01*
X171840907Y-40005000D01*
X171953946Y-40573285D01*
X172275853Y-41055054D01*
X172757622Y-41376961D01*
X173325907Y-41490000D01*
X173384093Y-41490000D01*
X173952378Y-41376961D01*
X174434147Y-41055054D01*
X174756054Y-40573285D01*
X174869093Y-40005000D01*
X174756054Y-39436715D01*
X174434147Y-38954946D01*
X174392548Y-38927150D01*
X174440317Y-38918162D01*
X174656441Y-38779090D01*
X174801431Y-38566890D01*
X174852440Y-38315000D01*
X174852440Y-36955000D01*
X176937560Y-36955000D01*
X176937560Y-38315000D01*
X176981838Y-38550317D01*
X177120910Y-38766441D01*
X177333110Y-38911431D01*
X177400541Y-38925086D01*
X177355853Y-38954946D01*
X177033946Y-39436715D01*
X176920907Y-40005000D01*
X177033946Y-40573285D01*
X177355853Y-41055054D01*
X177837622Y-41376961D01*
X178405907Y-41490000D01*
X178464093Y-41490000D01*
X179032378Y-41376961D01*
X179514147Y-41055054D01*
X179836054Y-40573285D01*
X179949093Y-40005000D01*
X179836054Y-39436715D01*
X179514147Y-38954946D01*
X179472548Y-38927150D01*
X179520317Y-38918162D01*
X179736441Y-38779090D01*
X179881431Y-38566890D01*
X179932440Y-38315000D01*
X179932440Y-36615000D01*
X179888162Y-36379683D01*
X179817583Y-36270000D01*
X194015908Y-36270000D01*
X198045000Y-40299092D01*
M02*
