M48
;DRILL file {KiCad 4.0.7} date 09/22/19 23:17:35
;FORMAT={2:4/ absolute / inch / suppress leading zeros}
FMAT,2
INCH,TZ
T1C0.016
T2C0.031
T3C0.039
%
G90
G05
M72
T1
X39500Y-19500
X40750Y-30000
X41250Y-30500
X41500Y-22000
X41500Y-26750
X41750Y-23000
X42000Y-24000
X42000Y-30750
X42250Y-25000
X42500Y-26000
X43750Y-26750
X50000Y-18500
X50250Y-18750
X52750Y-19500
X52750Y-30000
X53000Y-18250
X53250Y-31000
X58250Y-27500
X58250Y-30000
X58500Y-27750
X59250Y-21000
X59250Y-30000
X59750Y-19500
X59750Y-27750
X59750Y-30000
X60000Y-18250
X60250Y-27750
X60250Y-30000
X60250Y-30750
X60500Y-30500
X60750Y-27750
X60750Y-30250
X61000Y-30000
X62500Y-19500
X62500Y-30250
X64750Y-18500
X66750Y-14750
X67250Y-15750
X69250Y-21250
X75000Y-21000
X75750Y-23000
X77500Y-21250
T2
X40250Y-20250
X40250Y-21250
X40250Y-22250
X40250Y-23250
X40250Y-24250
X40250Y-25250
X40250Y-26250
X40250Y-27250
X43250Y-20250
X43250Y-21250
X43250Y-22250
X43250Y-23250
X43250Y-24250
X43250Y-25250
X43250Y-26250
X43250Y-27250
X44750Y-20250
X44750Y-22219
X46250Y-20250
X46250Y-21250
X46250Y-22250
X46250Y-23250
X46250Y-24250
X46250Y-25250
X46250Y-26250
X49250Y-20250
X49250Y-21250
X49250Y-22250
X49250Y-23250
X49250Y-24250
X49250Y-25250
X49250Y-26250
X50750Y-20250
X50750Y-22219
X52750Y-21000
X52750Y-27000
X55750Y-21000
X55750Y-27000
X57750Y-20250
X57750Y-22219
X59250Y-20250
X59250Y-26250
X60250Y-20250
X60250Y-26250
X61250Y-20250
X61250Y-26250
X62250Y-20250
X62250Y-26250
X63250Y-20250
X63250Y-26250
X64250Y-20250
X64250Y-26250
X65250Y-20250
X65250Y-26250
X66250Y-20250
X66250Y-26250
X67250Y-20250
X67250Y-26250
X68250Y-20250
X68250Y-26250
X69250Y-20250
X69250Y-26250
X70250Y-20250
X70250Y-26250
X72500Y-23250
X72500Y-24750
X72500Y-26250
X76500Y-23250
X76500Y-24750
X76500Y-26250
T3
X39750Y-31500
X40750Y-31500
X41000Y-14750
X41000Y-15750
X41750Y-31500
X42000Y-14750
X42000Y-15750
X42750Y-31500
X43000Y-14750
X43000Y-15750
X43750Y-31500
X44000Y-14750
X44000Y-15750
X44750Y-31500
X45000Y-14750
X45000Y-15750
X45750Y-31500
X46000Y-14750
X46000Y-15750
X46750Y-31500
X47000Y-14750
X47000Y-15750
X47750Y-31500
X48750Y-31500
X49750Y-31500
X50750Y-31500
X51750Y-31500
X52750Y-31500
X53750Y-31500
X54750Y-31500
X55750Y-31500
X56750Y-31500
X57750Y-31500
X58750Y-31500
X59750Y-31500
X60750Y-31500
X61250Y-14750
X61250Y-15750
X61250Y-16750
X61750Y-31500
X62750Y-31500
X63250Y-14750
X63250Y-15750
X63250Y-16750
X63750Y-31500
X64750Y-31500
X65750Y-31500
X66750Y-31500
X67750Y-31500
X68250Y-14750
X68250Y-15750
X68750Y-31500
X69750Y-31500
X70250Y-14750
X70250Y-15750
X70750Y-31500
X71750Y-31500
X72750Y-31500
X73750Y-31500
X74750Y-31500
X75750Y-31500
X76500Y-16500
X76500Y-17500
X76500Y-18500
X76500Y-19500
X76500Y-20500
X76500Y-21500
X76750Y-31500
X77750Y-31500
T0
M30
