G04 #@! TF.FileFunction,Copper,L1,Top,Signal*
%FSLAX46Y46*%
G04 Gerber Fmt 4.6, Leading zero omitted, Abs format (unit mm)*
G04 Created by KiCad (PCBNEW 4.0.7) date 09/22/19 23:17:32*
%MOMM*%
%LPD*%
G01*
G04 APERTURE LIST*
%ADD10C,0.100000*%
%ADD11C,1.600000*%
%ADD12R,1.700000X1.700000*%
%ADD13O,1.700000X1.700000*%
%ADD14O,1.600000X1.600000*%
%ADD15R,1.600000X1.600000*%
%ADD16C,0.600000*%
%ADD17C,0.250000*%
G04 APERTURE END LIST*
D10*
D11*
X146685000Y-51435000D03*
X146685000Y-56435000D03*
X113665000Y-51435000D03*
X113665000Y-56435000D03*
X128905000Y-51435000D03*
X128905000Y-56435000D03*
D12*
X197485000Y-80010000D03*
D13*
X194945000Y-80010000D03*
X192405000Y-80010000D03*
X189865000Y-80010000D03*
X187325000Y-80010000D03*
X184785000Y-80010000D03*
X182245000Y-80010000D03*
X179705000Y-80010000D03*
X177165000Y-80010000D03*
X174625000Y-80010000D03*
X172085000Y-80010000D03*
X169545000Y-80010000D03*
X167005000Y-80010000D03*
X164465000Y-80010000D03*
X161925000Y-80010000D03*
X159385000Y-80010000D03*
X156845000Y-80010000D03*
X154305000Y-80010000D03*
X151765000Y-80010000D03*
X149225000Y-80010000D03*
X146685000Y-80010000D03*
X144145000Y-80010000D03*
X141605000Y-80010000D03*
X139065000Y-80010000D03*
X136525000Y-80010000D03*
X133985000Y-80010000D03*
X131445000Y-80010000D03*
X128905000Y-80010000D03*
X126365000Y-80010000D03*
X123825000Y-80010000D03*
X121285000Y-80010000D03*
X118745000Y-80010000D03*
X116205000Y-80010000D03*
X113665000Y-80010000D03*
X111125000Y-80010000D03*
X108585000Y-80010000D03*
X106045000Y-80010000D03*
X103505000Y-80010000D03*
X100965000Y-80010000D03*
D12*
X194310000Y-54610000D03*
D13*
X194310000Y-52070000D03*
X194310000Y-49530000D03*
X194310000Y-46990000D03*
X194310000Y-44450000D03*
X194310000Y-41910000D03*
D12*
X104140000Y-40005000D03*
D13*
X104140000Y-37465000D03*
X106680000Y-40005000D03*
X106680000Y-37465000D03*
X109220000Y-40005000D03*
X109220000Y-37465000D03*
X111760000Y-40005000D03*
X111760000Y-37465000D03*
X114300000Y-40005000D03*
X114300000Y-37465000D03*
X116840000Y-40005000D03*
X116840000Y-37465000D03*
X119380000Y-40005000D03*
X119380000Y-37465000D03*
D12*
X173355000Y-37465000D03*
D13*
X173355000Y-40005000D03*
D12*
X178435000Y-37465000D03*
D13*
X178435000Y-40005000D03*
D12*
X155575000Y-37465000D03*
D13*
X155575000Y-40005000D03*
X155575000Y-42545000D03*
D12*
X160655000Y-37465000D03*
D13*
X160655000Y-40005000D03*
X160655000Y-42545000D03*
D11*
X194310000Y-66675000D03*
D14*
X184150000Y-66675000D03*
D11*
X194310000Y-62865000D03*
D14*
X184150000Y-62865000D03*
D11*
X194310000Y-59055000D03*
D14*
X184150000Y-59055000D03*
D15*
X117475000Y-51435000D03*
D14*
X125095000Y-66675000D03*
X117475000Y-53975000D03*
X125095000Y-64135000D03*
X117475000Y-56515000D03*
X125095000Y-61595000D03*
X117475000Y-59055000D03*
X125095000Y-59055000D03*
X117475000Y-61595000D03*
X125095000Y-56515000D03*
X117475000Y-64135000D03*
X125095000Y-53975000D03*
X117475000Y-66675000D03*
X125095000Y-51435000D03*
D15*
X102235000Y-51435000D03*
D14*
X109855000Y-69215000D03*
X102235000Y-53975000D03*
X109855000Y-66675000D03*
X102235000Y-56515000D03*
X109855000Y-64135000D03*
X102235000Y-59055000D03*
X109855000Y-61595000D03*
X102235000Y-61595000D03*
X109855000Y-59055000D03*
X102235000Y-64135000D03*
X109855000Y-56515000D03*
X102235000Y-66675000D03*
X109855000Y-53975000D03*
X102235000Y-69215000D03*
X109855000Y-51435000D03*
D15*
X141605000Y-68580000D03*
D11*
X133985000Y-68580000D03*
X133985000Y-53340000D03*
X141605000Y-53340000D03*
D15*
X178435000Y-51435000D03*
D14*
X150495000Y-66675000D03*
X175895000Y-51435000D03*
X153035000Y-66675000D03*
X173355000Y-51435000D03*
X155575000Y-66675000D03*
X170815000Y-51435000D03*
X158115000Y-66675000D03*
X168275000Y-51435000D03*
X160655000Y-66675000D03*
X165735000Y-51435000D03*
X163195000Y-66675000D03*
X163195000Y-51435000D03*
X165735000Y-66675000D03*
X160655000Y-51435000D03*
X168275000Y-66675000D03*
X158115000Y-51435000D03*
X170815000Y-66675000D03*
X155575000Y-51435000D03*
X173355000Y-66675000D03*
X153035000Y-51435000D03*
X175895000Y-66675000D03*
X150495000Y-51435000D03*
X178435000Y-66675000D03*
D16*
X100330000Y-49530000D03*
X133985000Y-76200000D03*
X135255000Y-78740000D03*
X103505000Y-76200000D03*
X154305000Y-76835000D03*
X153670000Y-77470000D03*
X104775000Y-77470000D03*
X153035000Y-78105000D03*
X106680000Y-78105000D03*
X154305000Y-70485000D03*
X154940000Y-76200000D03*
X158750000Y-76835000D03*
X153035000Y-76200000D03*
X153035000Y-70485000D03*
X151765000Y-76200000D03*
X151765000Y-70485000D03*
X151765000Y-49530000D03*
X152400000Y-46355000D03*
X147955000Y-76200000D03*
X148590000Y-70485000D03*
X196850000Y-53975000D03*
X192405000Y-58420000D03*
X190500000Y-53340000D03*
X105410000Y-55880000D03*
X106045000Y-58420000D03*
X106680000Y-60960000D03*
X107315000Y-63500000D03*
X107950000Y-66040000D03*
X105410000Y-67945000D03*
X111125000Y-67945000D03*
X127635000Y-47625000D03*
X133985000Y-49530000D03*
X134620000Y-46355000D03*
X158750000Y-49530000D03*
X127000000Y-46990000D03*
X170815000Y-40005000D03*
X169545000Y-37465000D03*
X164465000Y-46990000D03*
X175895000Y-53975000D03*
X150495000Y-53340000D03*
X147955000Y-69850000D03*
X150495000Y-76200000D03*
D17*
X158115000Y-53340000D02*
X158750000Y-53975000D01*
X158750000Y-62865000D02*
X159385000Y-63500000D01*
X158750000Y-53975000D02*
X158750000Y-62865000D01*
X184150000Y-66675000D02*
X182245000Y-66675000D01*
X182245000Y-66675000D02*
X181610000Y-66040000D01*
X181610000Y-66040000D02*
X181610000Y-64135000D01*
X181610000Y-64135000D02*
X180975000Y-63500000D01*
X180975000Y-63500000D02*
X159385000Y-63500000D01*
X146050000Y-48895000D02*
X154940000Y-48895000D01*
X155575000Y-49530000D02*
X155575000Y-51435000D01*
X154940000Y-48895000D02*
X155575000Y-49530000D01*
X128270000Y-48895000D02*
X146050000Y-48895000D01*
X146685000Y-49530000D02*
X146685000Y-51435000D01*
X146050000Y-48895000D02*
X146685000Y-49530000D01*
X146685000Y-51435000D02*
X150495000Y-51435000D01*
X155575000Y-51435000D02*
X155575000Y-52705000D01*
X155575000Y-52705000D02*
X156210000Y-53340000D01*
X156210000Y-53340000D02*
X157480000Y-53340000D01*
X157480000Y-53340000D02*
X158115000Y-53340000D01*
X158115000Y-53340000D02*
X160020000Y-53340000D01*
X160020000Y-53340000D02*
X160655000Y-52705000D01*
X160655000Y-52705000D02*
X160655000Y-51435000D01*
X125095000Y-51435000D02*
X128905000Y-51435000D01*
X113030000Y-48895000D02*
X128270000Y-48895000D01*
X128905000Y-49530000D02*
X128905000Y-51435000D01*
X128270000Y-48895000D02*
X128905000Y-49530000D01*
X113665000Y-51435000D02*
X113665000Y-49530000D01*
X113030000Y-48895000D02*
X113665000Y-49530000D01*
X100965000Y-48895000D02*
X113030000Y-48895000D01*
X100965000Y-48895000D02*
X100330000Y-49530000D01*
X109855000Y-51435000D02*
X113665000Y-51435000D01*
X135255000Y-78740000D02*
X133985000Y-77470000D01*
X133985000Y-76200000D02*
X133985000Y-77470000D01*
X102235000Y-56515000D02*
X102870000Y-56515000D01*
X102870000Y-56515000D02*
X103505000Y-57150000D01*
X103505000Y-57150000D02*
X103505000Y-76200000D01*
X158115000Y-77470000D02*
X157480000Y-77470000D01*
X189865000Y-78105000D02*
X189230000Y-77470000D01*
X189230000Y-77470000D02*
X158115000Y-77470000D01*
X189865000Y-80010000D02*
X189865000Y-78105000D01*
X156845000Y-76835000D02*
X154305000Y-76835000D01*
X157480000Y-77470000D02*
X156845000Y-76835000D01*
X102235000Y-53975000D02*
X103505000Y-53975000D01*
X156210000Y-77470000D02*
X153670000Y-77470000D01*
X156845000Y-78105000D02*
X175260000Y-78105000D01*
X187325000Y-78740000D02*
X186690000Y-78105000D01*
X186690000Y-78105000D02*
X175260000Y-78105000D01*
X187325000Y-78740000D02*
X187325000Y-80010000D01*
X156845000Y-78105000D02*
X156210000Y-77470000D01*
X104140000Y-76835000D02*
X104775000Y-77470000D01*
X104140000Y-54610000D02*
X104140000Y-76835000D01*
X103505000Y-53975000D02*
X104140000Y-54610000D01*
X104775000Y-76200000D02*
X106680000Y-78105000D01*
X154940000Y-78105000D02*
X153035000Y-78105000D01*
X155575000Y-78740000D02*
X154940000Y-78105000D01*
X184150000Y-78740000D02*
X155575000Y-78740000D01*
X184785000Y-79375000D02*
X184150000Y-78740000D01*
X104140000Y-51435000D02*
X104775000Y-52070000D01*
X104775000Y-52070000D02*
X104775000Y-76200000D01*
X104140000Y-51435000D02*
X102235000Y-51435000D01*
X184785000Y-80010000D02*
X184785000Y-79375000D01*
X153035000Y-51435000D02*
X153035000Y-52070000D01*
X153035000Y-52070000D02*
X154305000Y-53340000D01*
X154305000Y-53340000D02*
X154305000Y-70485000D01*
X154940000Y-76200000D02*
X157480000Y-76200000D01*
X157480000Y-76200000D02*
X158115000Y-76835000D01*
X158115000Y-76835000D02*
X158750000Y-76835000D01*
X152400000Y-77470000D02*
X153035000Y-76835000D01*
X153035000Y-76835000D02*
X153035000Y-76200000D01*
X151765000Y-78740000D02*
X151765000Y-78105000D01*
X151765000Y-78105000D02*
X152400000Y-77470000D01*
X151765000Y-80010000D02*
X151765000Y-78740000D01*
X153035000Y-70485000D02*
X153035000Y-66675000D01*
X152400000Y-46355000D02*
X152400000Y-43180000D01*
X151765000Y-76835000D02*
X151765000Y-76200000D01*
X151765000Y-70485000D02*
X151765000Y-49530000D01*
X151130000Y-77470000D02*
X150495000Y-78105000D01*
X146685000Y-78740000D02*
X147320000Y-78105000D01*
X146685000Y-80010000D02*
X146685000Y-78740000D01*
X147320000Y-78105000D02*
X150495000Y-78105000D01*
X151130000Y-77470000D02*
X151765000Y-76835000D01*
X153035000Y-42545000D02*
X155575000Y-42545000D01*
X152400000Y-43180000D02*
X153035000Y-42545000D01*
X150495000Y-66675000D02*
X149225000Y-66675000D01*
X148590000Y-67310000D02*
X148590000Y-70485000D01*
X149225000Y-66675000D02*
X148590000Y-67310000D01*
X139065000Y-76835000D02*
X139065000Y-78105000D01*
X139700000Y-76200000D02*
X139065000Y-76835000D01*
X147955000Y-76200000D02*
X139700000Y-76200000D01*
X139065000Y-78105000D02*
X139065000Y-80010000D01*
X173355000Y-74930000D02*
X172720000Y-75565000D01*
X131445000Y-76200000D02*
X131445000Y-77470000D01*
X132080000Y-75565000D02*
X131445000Y-76200000D01*
X172720000Y-75565000D02*
X132080000Y-75565000D01*
X173355000Y-66675000D02*
X173355000Y-74930000D01*
X131445000Y-77470000D02*
X131445000Y-80010000D01*
X128905000Y-76835000D02*
X128905000Y-75565000D01*
X170180000Y-74930000D02*
X170815000Y-74295000D01*
X129540000Y-74930000D02*
X170180000Y-74930000D01*
X128905000Y-75565000D02*
X129540000Y-74930000D01*
X128905000Y-80010000D02*
X128905000Y-76835000D01*
X170815000Y-74295000D02*
X170815000Y-66675000D01*
X126365000Y-76200000D02*
X126365000Y-74930000D01*
X167640000Y-74295000D02*
X168275000Y-73660000D01*
X127000000Y-74295000D02*
X167640000Y-74295000D01*
X126365000Y-74930000D02*
X127000000Y-74295000D01*
X168275000Y-66675000D02*
X168275000Y-73660000D01*
X126365000Y-76200000D02*
X126365000Y-80010000D01*
X165735000Y-73025000D02*
X165100000Y-73660000D01*
X123825000Y-74295000D02*
X123825000Y-75565000D01*
X124460000Y-73660000D02*
X123825000Y-74295000D01*
X165100000Y-73660000D02*
X124460000Y-73660000D01*
X123825000Y-80010000D02*
X123825000Y-75565000D01*
X165735000Y-73025000D02*
X165735000Y-66675000D01*
X121285000Y-74930000D02*
X121285000Y-73660000D01*
X162560000Y-73025000D02*
X163195000Y-72390000D01*
X121920000Y-73025000D02*
X162560000Y-73025000D01*
X121285000Y-73660000D02*
X121920000Y-73025000D01*
X163195000Y-66675000D02*
X163195000Y-72390000D01*
X121285000Y-74930000D02*
X121285000Y-80010000D01*
X160655000Y-71755000D02*
X160020000Y-72390000D01*
X118745000Y-73025000D02*
X118745000Y-74295000D01*
X119380000Y-72390000D02*
X118745000Y-73025000D01*
X160020000Y-72390000D02*
X119380000Y-72390000D01*
X118745000Y-80010000D02*
X118745000Y-74295000D01*
X160655000Y-71755000D02*
X160655000Y-66675000D01*
X116205000Y-73660000D02*
X116205000Y-72390000D01*
X157480000Y-71755000D02*
X158115000Y-71120000D01*
X116840000Y-71755000D02*
X157480000Y-71755000D01*
X116205000Y-72390000D02*
X116840000Y-71755000D01*
X158115000Y-66675000D02*
X158115000Y-71120000D01*
X116205000Y-73660000D02*
X116205000Y-80010000D01*
X155575000Y-70485000D02*
X154940000Y-71120000D01*
X113665000Y-71755000D02*
X113665000Y-73025000D01*
X114300000Y-71120000D02*
X113665000Y-71755000D01*
X154940000Y-71120000D02*
X114300000Y-71120000D01*
X113665000Y-80010000D02*
X113665000Y-73025000D01*
X155575000Y-70485000D02*
X155575000Y-66675000D01*
X100965000Y-80010000D02*
X100965000Y-77470000D01*
X100965000Y-62230000D02*
X101600000Y-61595000D01*
X100965000Y-77470000D02*
X100965000Y-62230000D01*
X101600000Y-61595000D02*
X102235000Y-61595000D01*
X173355000Y-40005000D02*
X174625000Y-38735000D01*
X174625000Y-38735000D02*
X195580000Y-38735000D01*
X195580000Y-38735000D02*
X196850000Y-40005000D01*
X196850000Y-40005000D02*
X196850000Y-53975000D01*
X194310000Y-62865000D02*
X195580000Y-62865000D01*
X195580000Y-52070000D02*
X194310000Y-52070000D01*
X196215000Y-52705000D02*
X195580000Y-52070000D01*
X196215000Y-62230000D02*
X196215000Y-52705000D01*
X195580000Y-62865000D02*
X196215000Y-62230000D01*
X194310000Y-59055000D02*
X193040000Y-59055000D01*
X193040000Y-59055000D02*
X192405000Y-58420000D01*
X178435000Y-40005000D02*
X195580000Y-40005000D01*
X195580000Y-46990000D02*
X194310000Y-46990000D01*
X196215000Y-46355000D02*
X195580000Y-46990000D01*
X196215000Y-40640000D02*
X196215000Y-46355000D01*
X195580000Y-40005000D02*
X196215000Y-40640000D01*
X168275000Y-51435000D02*
X168275000Y-52705000D01*
X168910000Y-53340000D02*
X190500000Y-53340000D01*
X168275000Y-52705000D02*
X168910000Y-53340000D01*
X109855000Y-56515000D02*
X106045000Y-56515000D01*
X106045000Y-56515000D02*
X105410000Y-55880000D01*
X136525000Y-48260000D02*
X121920000Y-48260000D01*
X158115000Y-49530000D02*
X156845000Y-48260000D01*
X156845000Y-48260000D02*
X136525000Y-48260000D01*
X158115000Y-51435000D02*
X158115000Y-49530000D01*
X120650000Y-37465000D02*
X119380000Y-37465000D01*
X121285000Y-38100000D02*
X120650000Y-37465000D01*
X121285000Y-47625000D02*
X121285000Y-38100000D01*
X121920000Y-48260000D02*
X121285000Y-47625000D01*
X116840000Y-37465000D02*
X119380000Y-37465000D01*
X114300000Y-37465000D02*
X116840000Y-37465000D01*
X111760000Y-37465000D02*
X114300000Y-37465000D01*
X109220000Y-37465000D02*
X111760000Y-37465000D01*
X106680000Y-37465000D02*
X109220000Y-37465000D01*
X104140000Y-37465000D02*
X106680000Y-37465000D01*
X106680000Y-59055000D02*
X109855000Y-59055000D01*
X106045000Y-58420000D02*
X106680000Y-59055000D01*
X107315000Y-61595000D02*
X109855000Y-61595000D01*
X106680000Y-60960000D02*
X107315000Y-61595000D01*
X107950000Y-64135000D02*
X109855000Y-64135000D01*
X107315000Y-63500000D02*
X107950000Y-64135000D01*
X108585000Y-66675000D02*
X109855000Y-66675000D01*
X107950000Y-66040000D02*
X108585000Y-66675000D01*
X111125000Y-67945000D02*
X105410000Y-67945000D01*
X170180000Y-46990000D02*
X169545000Y-47625000D01*
X169545000Y-47625000D02*
X164465000Y-47625000D01*
X172085000Y-37465000D02*
X173355000Y-37465000D01*
X170180000Y-39370000D02*
X170180000Y-46990000D01*
X172085000Y-37465000D02*
X170180000Y-39370000D01*
X128905000Y-47625000D02*
X164465000Y-47625000D01*
X127635000Y-47625000D02*
X128905000Y-47625000D01*
X140970000Y-46355000D02*
X134620000Y-46355000D01*
X151765000Y-38100000D02*
X151765000Y-45720000D01*
X151765000Y-45720000D02*
X151130000Y-46355000D01*
X151130000Y-46355000D02*
X140970000Y-46355000D01*
X155575000Y-37465000D02*
X152400000Y-37465000D01*
X152400000Y-37465000D02*
X151765000Y-38100000D01*
X133985000Y-49530000D02*
X133985000Y-53340000D01*
X173355000Y-51435000D02*
X173355000Y-50165000D01*
X172720000Y-49530000D02*
X170180000Y-49530000D01*
X173355000Y-50165000D02*
X172720000Y-49530000D01*
X170180000Y-49530000D02*
X170815000Y-50165000D01*
X158750000Y-49530000D02*
X170180000Y-49530000D01*
X170815000Y-51435000D02*
X170815000Y-50165000D01*
X127000000Y-46990000D02*
X139700000Y-46990000D01*
X159385000Y-37465000D02*
X158750000Y-38100000D01*
X158750000Y-38100000D02*
X158750000Y-46355000D01*
X158750000Y-46355000D02*
X158115000Y-46990000D01*
X158115000Y-46990000D02*
X139700000Y-46990000D01*
X159385000Y-37465000D02*
X160655000Y-37465000D01*
X191770000Y-45085000D02*
X191770000Y-66040000D01*
X190500000Y-43815000D02*
X191770000Y-45085000D01*
X171450000Y-43815000D02*
X190500000Y-43815000D01*
X170815000Y-43180000D02*
X171450000Y-43815000D01*
X192405000Y-66675000D02*
X194310000Y-66675000D01*
X191770000Y-66040000D02*
X192405000Y-66675000D01*
X160655000Y-37465000D02*
X169545000Y-37465000D01*
X170815000Y-40005000D02*
X170815000Y-43180000D01*
X160655000Y-40005000D02*
X162560000Y-40005000D01*
X164465000Y-41910000D02*
X164465000Y-46990000D01*
X162560000Y-40005000D02*
X164465000Y-41910000D01*
X184150000Y-62865000D02*
X166370000Y-62865000D01*
X165735000Y-62230000D02*
X165735000Y-51435000D01*
X166370000Y-62865000D02*
X165735000Y-62230000D01*
X184150000Y-59055000D02*
X176530000Y-59055000D01*
X175895000Y-58420000D02*
X175895000Y-53975000D01*
X176530000Y-59055000D02*
X175895000Y-58420000D01*
X150495000Y-53340000D02*
X150495000Y-58420000D01*
X150495000Y-58420000D02*
X149860000Y-59055000D01*
X149860000Y-59055000D02*
X147955000Y-59055000D01*
X147320000Y-59690000D02*
X147955000Y-59055000D01*
X147320000Y-69215000D02*
X147320000Y-59690000D01*
X147955000Y-69850000D02*
X147320000Y-69215000D01*
X144145000Y-77470000D02*
X144780000Y-76835000D01*
X144780000Y-76835000D02*
X149860000Y-76835000D01*
X149860000Y-76835000D02*
X150495000Y-76200000D01*
X144145000Y-80010000D02*
X144145000Y-77470000D01*
M02*
