M48
;DRILL file {KiCad 4.0.7} date 09/22/19 17:22:34
;FORMAT={2:4/ absolute / inch / suppress leading zeros}
FMAT,2
INCH,TZ
T1C0.016
T2C0.024
T3C0.030
T4C0.031
T5C0.035
T6C0.039
T7C0.043
T8C0.047
T9C0.120
%
G90
G05
M72
T1
X39750Y-33250
X40000Y-53250
X40000Y-56500
X40250Y-53750
X40750Y-53750
X41500Y-53250
X41500Y-54000
X41750Y-44500
X41750Y-45500
X41750Y-46500
X42500Y-53750
X42500Y-54500
X43750Y-44750
X44250Y-34250
X44250Y-34750
X44250Y-41750
X44500Y-34000
X44500Y-35000
X44500Y-41500
X44750Y-34250
X44750Y-34750
X44750Y-41750
X45500Y-48500
X45500Y-49500
X45500Y-50500
X47250Y-47250
X47250Y-48000
X47250Y-50250
X47250Y-51750
X47250Y-52750
X48750Y-31500
X48750Y-54750
X49000Y-31000
X50000Y-47500
X50250Y-46750
X50250Y-50250
X50250Y-50750
X50500Y-42500
X50500Y-48500
X51500Y-41500
X51750Y-36250
X51750Y-41250
X51750Y-46250
X52000Y-39500
X52000Y-41000
X52250Y-40250
X52250Y-41250
X52500Y-34750
X52750Y-40250
X52750Y-41000
X53000Y-39250
X53000Y-40750
X53250Y-36250
X53250Y-41250
X53250Y-48250
X53250Y-49750
X53500Y-35500
X53500Y-41500
X54250Y-23000
X54750Y-42250
X55250Y-51250
X55500Y-51500
X55750Y-55000
X58750Y-47000
X59250Y-44250
X60250Y-38750
X60500Y-50500
X60750Y-23000
X61250Y-36750
X62750Y-32750
X63250Y-34750
X63250Y-38000
X64250Y-35000
X65000Y-51000
X65750Y-38750
X66750Y-36750
X68750Y-34750
X68750Y-38000
X69250Y-31000
X69500Y-52750
X70750Y-31000
X71000Y-30250
X71000Y-31250
X71250Y-30000
X71500Y-30250
X72000Y-41250
X72000Y-41750
X72500Y-27000
X72500Y-48500
X72750Y-35500
X72750Y-48750
X73000Y-36000
X74250Y-53500
X74250Y-54000
X74500Y-48250
X74500Y-51000
X74750Y-41250
X74750Y-48000
T2
X48500Y-24750
X49000Y-24250
X49000Y-25250
X59000Y-24750
X59500Y-24250
X59500Y-25250
X66500Y-29500
X67000Y-30000
X67500Y-29500
X69250Y-27500
X69250Y-29500
X69750Y-27000
X69750Y-30000
X70250Y-27500
X70250Y-29500
T3
X71677Y-33750
X71677Y-34750
X71677Y-35750
X71677Y-37750
X71677Y-38750
X71677Y-39750
X73823Y-33750
X73823Y-34750
X73823Y-35750
X73823Y-37750
X73823Y-38750
X73823Y-39750
X75427Y-33750
X75427Y-34750
X75427Y-35750
X75427Y-37750
X75427Y-38750
X75427Y-39750
X77573Y-33750
X77573Y-34750
X77573Y-35750
X77573Y-37750
X77573Y-38750
X77573Y-39750
T4
X45000Y-46000
X45000Y-47000
X45000Y-48000
X45000Y-49000
X45000Y-50000
X45000Y-51000
X45000Y-52000
X45000Y-54000
X45000Y-55500
X45250Y-27000
X45250Y-28500
X45250Y-30000
X45500Y-23750
X45500Y-25719
X47000Y-23750
X47000Y-25719
X48000Y-46000
X48000Y-47000
X48000Y-48000
X48000Y-49000
X48000Y-50000
X48000Y-51000
X48000Y-52000
X49000Y-54000
X49000Y-55500
X49250Y-27000
X49250Y-28500
X49250Y-30000
X49500Y-46000
X49500Y-47969
X49500Y-49000
X49500Y-50969
X50000Y-54000
X50000Y-55500
X50500Y-24000
X50500Y-27000
X50500Y-28500
X50500Y-30000
X51000Y-25500
X51000Y-33000
X51000Y-34000
X51000Y-35000
X51000Y-36000
X51000Y-37000
X51000Y-38000
X51000Y-39000
X51000Y-40000
X51000Y-41000
X51000Y-42000
X51000Y-46000
X51000Y-47000
X51000Y-48000
X51000Y-49000
X51000Y-50000
X51000Y-51000
X51000Y-52000
X51531Y-31500
X53500Y-31500
X54000Y-25500
X54000Y-33000
X54000Y-34000
X54000Y-35000
X54000Y-36000
X54000Y-37000
X54000Y-38000
X54000Y-39000
X54000Y-40000
X54000Y-41000
X54000Y-42000
X54000Y-46000
X54000Y-47000
X54000Y-48000
X54000Y-49000
X54000Y-50000
X54000Y-51000
X54000Y-52000
X54000Y-54000
X54000Y-55500
X54500Y-24000
X54500Y-27000
X54500Y-28500
X54500Y-30000
X55250Y-33000
X55250Y-34250
X55250Y-35500
X55250Y-36750
X55250Y-38000
X55250Y-39250
X55250Y-40500
X55750Y-27000
X55750Y-28500
X55750Y-30000
X56000Y-23750
X56000Y-25719
X57500Y-23750
X57500Y-25719
X59250Y-33000
X59250Y-34250
X59250Y-35500
X59250Y-36750
X59250Y-38000
X59250Y-39250
X59250Y-40500
X59750Y-27000
X59750Y-28500
X59750Y-30000
X60500Y-33750
X60500Y-39750
X61000Y-24000
X61000Y-25500
X61000Y-27000
X61000Y-28500
X61000Y-30000
X61500Y-33750
X61500Y-39750
X62500Y-33750
X62500Y-39750
X63500Y-33750
X63500Y-39750
X64500Y-33750
X64500Y-39750
X65000Y-24000
X65000Y-25500
X65000Y-27000
X65000Y-28500
X65000Y-30000
X66000Y-33750
X66000Y-39750
X66031Y-27000
X66750Y-24000
X66750Y-25500
X67000Y-33750
X67000Y-39750
X68000Y-27000
X68000Y-33750
X68000Y-39750
X69000Y-33750
X69000Y-39750
X69750Y-24000
X69750Y-25500
X70000Y-33750
X70000Y-39750
X71500Y-24000
X71500Y-25500
X71500Y-27000
X71500Y-28500
X75500Y-24000
X75500Y-25500
X75500Y-27000
X75500Y-28500
T5
X42750Y-29750
X43750Y-29750
T6
X41250Y-33000
X41250Y-34000
X41250Y-35000
X41250Y-36000
X41250Y-37000
X41250Y-38000
X41250Y-39000
X41250Y-40000
X41250Y-41000
X41250Y-42000
X41250Y-43000
X41250Y-44000
X41250Y-45000
X41250Y-46000
X41250Y-47000
X41250Y-48000
X41250Y-49000
X41250Y-50000
X41250Y-51000
X41250Y-52000
X42250Y-33000
X42250Y-34000
X42250Y-35000
X42250Y-36000
X42250Y-37000
X42250Y-38000
X42250Y-39000
X42250Y-40000
X42250Y-41000
X42250Y-42000
X42250Y-43000
X42250Y-44000
X42250Y-45000
X42250Y-46000
X42250Y-47000
X42250Y-48000
X42250Y-49000
X42250Y-50000
X42250Y-51000
X42250Y-52000
X75750Y-49250
X75750Y-50250
X75750Y-51250
X75750Y-52250
X75750Y-53250
X76750Y-49250
X76750Y-50250
X76750Y-51250
X76750Y-52250
X76750Y-53250
T7
X57250Y-42500
X57250Y-44272
X57250Y-46250
X57250Y-48022
X57250Y-50000
X57250Y-51772
X57250Y-53750
X57250Y-55522
X59809Y-42500
X59809Y-44272
X59809Y-46250
X59809Y-48022
X59809Y-50000
X59809Y-51772
X59809Y-53750
X59809Y-55522
X61750Y-42500
X61750Y-44272
X61750Y-46250
X61750Y-48022
X61750Y-50000
X61750Y-51772
X61750Y-53750
X61750Y-55522
X64309Y-42500
X64309Y-44272
X64309Y-46250
X64309Y-48022
X64309Y-50000
X64309Y-51772
X64309Y-53750
X64309Y-55522
X66250Y-42500
X66250Y-44272
X66250Y-46250
X66250Y-48022
X66250Y-50000
X66250Y-51772
X66250Y-53750
X66250Y-55522
X68809Y-42500
X68809Y-44272
X68809Y-46250
X68809Y-48022
X68809Y-50000
X68809Y-51772
X68809Y-53750
X68809Y-55522
X70750Y-42500
X70750Y-44272
X70750Y-46250
X70750Y-48022
X70750Y-50000
X70750Y-51772
X70750Y-53750
X70750Y-55522
X73309Y-42500
X73309Y-44272
X73309Y-46250
X73309Y-48022
X73309Y-50000
X73309Y-51772
X73309Y-53750
X73309Y-55522
X75250Y-42500
X75250Y-44272
X77809Y-42500
X77809Y-44272
T8
X41122Y-25750
X43093Y-23781
X43093Y-24766
X43093Y-26734
X43093Y-27719
T9
X41000Y-29500
X41000Y-55250
X77000Y-29500
X77000Y-55250
T0
M30
