G04 #@! TF.FileFunction,Soldermask,Bot*
%FSLAX46Y46*%
G04 Gerber Fmt 4.6, Leading zero omitted, Abs format (unit mm)*
G04 Created by KiCad (PCBNEW 4.0.7) date 11/27/19 18:03:54*
%MOMM*%
%LPD*%
G01*
G04 APERTURE LIST*
%ADD10C,0.100000*%
%ADD11R,2.100000X2.100000*%
%ADD12O,2.100000X2.100000*%
%ADD13C,5.400000*%
%ADD14C,2.000000*%
%ADD15O,1.924000X2.924000*%
%ADD16R,2.200000X2.200000*%
%ADD17C,2.200000*%
%ADD18R,2.000000X2.000000*%
%ADD19O,2.000000X2.000000*%
%ADD20R,2.900000X3.900000*%
%ADD21O,3.900000X2.150000*%
%ADD22C,1.400000*%
%ADD23R,1.400000X1.400000*%
%ADD24C,2.400000*%
%ADD25C,1.924000*%
%ADD26R,1.924000X1.924000*%
G04 APERTURE END LIST*
D10*
D11*
X107315000Y-132080000D03*
D12*
X104775000Y-132080000D03*
X107315000Y-129540000D03*
X104775000Y-129540000D03*
X107315000Y-127000000D03*
X104775000Y-127000000D03*
X107315000Y-124460000D03*
X104775000Y-124460000D03*
X107315000Y-121920000D03*
X104775000Y-121920000D03*
X107315000Y-119380000D03*
X104775000Y-119380000D03*
X107315000Y-116840000D03*
X104775000Y-116840000D03*
X107315000Y-114300000D03*
X104775000Y-114300000D03*
X107315000Y-111760000D03*
X104775000Y-111760000D03*
X107315000Y-109220000D03*
X104775000Y-109220000D03*
X107315000Y-106680000D03*
X104775000Y-106680000D03*
X107315000Y-104140000D03*
X104775000Y-104140000D03*
X107315000Y-101600000D03*
X104775000Y-101600000D03*
X107315000Y-99060000D03*
X104775000Y-99060000D03*
X107315000Y-96520000D03*
X104775000Y-96520000D03*
X107315000Y-93980000D03*
X104775000Y-93980000D03*
X107315000Y-91440000D03*
X104775000Y-91440000D03*
X107315000Y-88900000D03*
X104775000Y-88900000D03*
X107315000Y-86360000D03*
X104775000Y-86360000D03*
X107315000Y-83820000D03*
X104775000Y-83820000D03*
D13*
X104140000Y-140335000D03*
X195580000Y-140335000D03*
X195580000Y-74930000D03*
X104140000Y-74930000D03*
D14*
X135890000Y-80010000D03*
X130890000Y-80010000D03*
X125730000Y-116840000D03*
X125730000Y-121840000D03*
X125730000Y-124460000D03*
X125730000Y-129460000D03*
X142240000Y-60325000D03*
X142240000Y-65325000D03*
X146050000Y-60325000D03*
X146050000Y-65325000D03*
X172720000Y-68580000D03*
X167720000Y-68580000D03*
X119380000Y-60325000D03*
X119380000Y-65325000D03*
X115570000Y-60325000D03*
X115570000Y-65325000D03*
D15*
X167640000Y-100965000D03*
X170180000Y-100965000D03*
X172720000Y-100965000D03*
X175260000Y-100965000D03*
X177800000Y-100965000D03*
X177800000Y-85725000D03*
X175260000Y-85725000D03*
X172720000Y-85725000D03*
X170180000Y-85725000D03*
X167640000Y-85725000D03*
X153670000Y-100965000D03*
X156210000Y-100965000D03*
X158750000Y-100965000D03*
X161290000Y-100965000D03*
X163830000Y-100965000D03*
X163830000Y-85725000D03*
X161290000Y-85725000D03*
X158750000Y-85725000D03*
X156210000Y-85725000D03*
X153670000Y-85725000D03*
D16*
X108585000Y-75565000D03*
D17*
X111125000Y-75565000D03*
D18*
X177165000Y-60960000D03*
D19*
X169545000Y-60960000D03*
D18*
X169545000Y-64770000D03*
D19*
X177165000Y-64770000D03*
D18*
X129540000Y-64770000D03*
D19*
X137160000Y-64770000D03*
D20*
X104449000Y-65405000D03*
D21*
X109455000Y-60405000D03*
X109455000Y-70405000D03*
X109455000Y-62905000D03*
X109455000Y-67905000D03*
D22*
X177165000Y-68580000D03*
X178435000Y-69850000D03*
D23*
X175895000Y-69850000D03*
D22*
X177165000Y-76200000D03*
X175895000Y-74930000D03*
D23*
X178435000Y-74930000D03*
D22*
X170180000Y-76200000D03*
X168910000Y-74930000D03*
D23*
X171450000Y-74930000D03*
D22*
X149860000Y-62865000D03*
X151130000Y-61595000D03*
D23*
X151130000Y-64135000D03*
D22*
X123190000Y-62865000D03*
X124460000Y-61595000D03*
D23*
X124460000Y-64135000D03*
D14*
X114300000Y-137160000D03*
D19*
X124460000Y-137160000D03*
D14*
X114300000Y-140970000D03*
D19*
X124460000Y-140970000D03*
D14*
X127000000Y-140970000D03*
D19*
X137160000Y-140970000D03*
D14*
X127000000Y-137160000D03*
D19*
X137160000Y-137160000D03*
D14*
X150495000Y-102870000D03*
D19*
X140335000Y-102870000D03*
D14*
X150495000Y-99695000D03*
D19*
X140335000Y-99695000D03*
D14*
X150495000Y-96520000D03*
D19*
X140335000Y-96520000D03*
D14*
X150495000Y-93345000D03*
D19*
X140335000Y-93345000D03*
D14*
X150495000Y-90170000D03*
D19*
X140335000Y-90170000D03*
D14*
X150495000Y-83820000D03*
D19*
X140335000Y-83820000D03*
D14*
X150495000Y-86995000D03*
D19*
X140335000Y-86995000D03*
D14*
X114935000Y-72390000D03*
D19*
X125095000Y-72390000D03*
D14*
X114935000Y-68580000D03*
D19*
X125095000Y-68580000D03*
D14*
X165100000Y-60960000D03*
D19*
X154940000Y-60960000D03*
D14*
X154940000Y-76200000D03*
D19*
X165100000Y-76200000D03*
D14*
X141605000Y-76200000D03*
D19*
X151765000Y-76200000D03*
D14*
X114935000Y-76200000D03*
D19*
X125095000Y-76200000D03*
D14*
X165100000Y-72390000D03*
D19*
X154940000Y-72390000D03*
D14*
X141605000Y-72390000D03*
D19*
X151765000Y-72390000D03*
D14*
X151765000Y-68580000D03*
D19*
X141605000Y-68580000D03*
D14*
X165100000Y-68580000D03*
D19*
X154940000Y-68580000D03*
D14*
X165100000Y-64770000D03*
D19*
X154940000Y-64770000D03*
D14*
X128270000Y-60960000D03*
D19*
X138430000Y-60960000D03*
D14*
X128270000Y-72390000D03*
D19*
X138430000Y-72390000D03*
D14*
X128270000Y-68580000D03*
D19*
X138430000Y-68580000D03*
D14*
X128270000Y-76200000D03*
D19*
X138430000Y-76200000D03*
D24*
X191135000Y-112450000D03*
X191135000Y-107950000D03*
X197635000Y-112450000D03*
X197635000Y-107950000D03*
X145415000Y-141025000D03*
X145415000Y-136525000D03*
X151915000Y-141025000D03*
X151915000Y-136525000D03*
X145415000Y-131500000D03*
X145415000Y-127000000D03*
X151915000Y-131500000D03*
X151915000Y-127000000D03*
X145415000Y-121975000D03*
X145415000Y-117475000D03*
X151915000Y-121975000D03*
X151915000Y-117475000D03*
X145415000Y-112450000D03*
X145415000Y-107950000D03*
X151915000Y-112450000D03*
X151915000Y-107950000D03*
X156845000Y-141025000D03*
X156845000Y-136525000D03*
X163345000Y-141025000D03*
X163345000Y-136525000D03*
X156845000Y-131500000D03*
X156845000Y-127000000D03*
X163345000Y-131500000D03*
X163345000Y-127000000D03*
X156845000Y-121975000D03*
X156845000Y-117475000D03*
X163345000Y-121975000D03*
X163345000Y-117475000D03*
X156845000Y-112450000D03*
X156845000Y-107950000D03*
X163345000Y-112450000D03*
X163345000Y-107950000D03*
X168275000Y-141025000D03*
X168275000Y-136525000D03*
X174775000Y-141025000D03*
X174775000Y-136525000D03*
X168275000Y-131500000D03*
X168275000Y-127000000D03*
X174775000Y-131500000D03*
X174775000Y-127000000D03*
X168275000Y-121975000D03*
X168275000Y-117475000D03*
X174775000Y-121975000D03*
X174775000Y-117475000D03*
X168275000Y-112450000D03*
X168275000Y-107950000D03*
X174775000Y-112450000D03*
X174775000Y-107950000D03*
X179705000Y-141025000D03*
X179705000Y-136525000D03*
X186205000Y-141025000D03*
X186205000Y-136525000D03*
X179705000Y-131500000D03*
X179705000Y-127000000D03*
X186205000Y-131500000D03*
X186205000Y-127000000D03*
X179705000Y-121975000D03*
X179705000Y-117475000D03*
X186205000Y-121975000D03*
X186205000Y-117475000D03*
X179705000Y-112450000D03*
X179705000Y-107950000D03*
X186205000Y-112450000D03*
X186205000Y-107950000D03*
D18*
X129540000Y-83820000D03*
D19*
X137160000Y-106680000D03*
X129540000Y-86360000D03*
X137160000Y-104140000D03*
X129540000Y-88900000D03*
X137160000Y-101600000D03*
X129540000Y-91440000D03*
X137160000Y-99060000D03*
X129540000Y-93980000D03*
X137160000Y-96520000D03*
X129540000Y-96520000D03*
X137160000Y-93980000D03*
X129540000Y-99060000D03*
X137160000Y-91440000D03*
X129540000Y-101600000D03*
X137160000Y-88900000D03*
X129540000Y-104140000D03*
X137160000Y-86360000D03*
X129540000Y-106680000D03*
X137160000Y-83820000D03*
D18*
X114300000Y-116840000D03*
D19*
X121920000Y-132080000D03*
X114300000Y-119380000D03*
X121920000Y-129540000D03*
X114300000Y-121920000D03*
X121920000Y-127000000D03*
X114300000Y-124460000D03*
X121920000Y-124460000D03*
X114300000Y-127000000D03*
X121920000Y-121920000D03*
X114300000Y-129540000D03*
X121920000Y-119380000D03*
X114300000Y-132080000D03*
X121920000Y-116840000D03*
D18*
X129540000Y-116840000D03*
D19*
X137160000Y-132080000D03*
X129540000Y-119380000D03*
X137160000Y-129540000D03*
X129540000Y-121920000D03*
X137160000Y-127000000D03*
X129540000Y-124460000D03*
X137160000Y-124460000D03*
X129540000Y-127000000D03*
X137160000Y-121920000D03*
X129540000Y-129540000D03*
X137160000Y-119380000D03*
X129540000Y-132080000D03*
X137160000Y-116840000D03*
D14*
X181610000Y-60960000D03*
D19*
X191770000Y-60960000D03*
D14*
X181610000Y-64770000D03*
D19*
X191770000Y-64770000D03*
D14*
X181610000Y-68580000D03*
D19*
X191770000Y-68580000D03*
D14*
X181610000Y-72390000D03*
D19*
X191770000Y-72390000D03*
D11*
X192405000Y-135255000D03*
D12*
X194945000Y-135255000D03*
X192405000Y-132715000D03*
X194945000Y-132715000D03*
X192405000Y-130175000D03*
X194945000Y-130175000D03*
X192405000Y-127635000D03*
X194945000Y-127635000D03*
X192405000Y-125095000D03*
X194945000Y-125095000D03*
D25*
X191585000Y-85725000D03*
X191585000Y-88265000D03*
D26*
X191585000Y-90805000D03*
D25*
X197035000Y-90805000D03*
X197035000Y-88265000D03*
X197035000Y-85725000D03*
X182060000Y-85725000D03*
X182060000Y-88265000D03*
D26*
X182060000Y-90805000D03*
D25*
X187510000Y-90805000D03*
X187510000Y-88265000D03*
X187510000Y-85725000D03*
X191585000Y-95885000D03*
X191585000Y-98425000D03*
D26*
X191585000Y-100965000D03*
D25*
X197035000Y-100965000D03*
X197035000Y-98425000D03*
X197035000Y-95885000D03*
X182060000Y-95885000D03*
X182060000Y-98425000D03*
D26*
X182060000Y-100965000D03*
D25*
X187510000Y-100965000D03*
X187510000Y-98425000D03*
X187510000Y-95885000D03*
M02*
