G04 #@! TF.FileFunction,Copper,L1,Top,Signal*
%FSLAX46Y46*%
G04 Gerber Fmt 4.6, Leading zero omitted, Abs format (unit mm)*
G04 Created by KiCad (PCBNEW 4.0.7) date 11/14/19 19:03:20*
%MOMM*%
%LPD*%
G01*
G04 APERTURE LIST*
%ADD10C,0.100000*%
%ADD11R,1.700000X1.700000*%
%ADD12O,1.700000X1.700000*%
%ADD13C,5.000000*%
%ADD14C,1.600000*%
%ADD15O,1.524000X2.524000*%
%ADD16R,1.800000X1.800000*%
%ADD17C,1.800000*%
%ADD18R,1.600000X1.600000*%
%ADD19O,1.600000X1.600000*%
%ADD20R,2.500000X3.500000*%
%ADD21O,3.500000X1.750000*%
%ADD22C,1.000000*%
%ADD23R,1.000000X1.000000*%
%ADD24C,2.000000*%
%ADD25C,1.524000*%
%ADD26R,1.524000X1.524000*%
%ADD27C,0.600000*%
%ADD28C,0.250000*%
G04 APERTURE END LIST*
D10*
D11*
X107315000Y-132080000D03*
D12*
X104775000Y-132080000D03*
X107315000Y-129540000D03*
X104775000Y-129540000D03*
X107315000Y-127000000D03*
X104775000Y-127000000D03*
X107315000Y-124460000D03*
X104775000Y-124460000D03*
X107315000Y-121920000D03*
X104775000Y-121920000D03*
X107315000Y-119380000D03*
X104775000Y-119380000D03*
X107315000Y-116840000D03*
X104775000Y-116840000D03*
X107315000Y-114300000D03*
X104775000Y-114300000D03*
X107315000Y-111760000D03*
X104775000Y-111760000D03*
X107315000Y-109220000D03*
X104775000Y-109220000D03*
X107315000Y-106680000D03*
X104775000Y-106680000D03*
X107315000Y-104140000D03*
X104775000Y-104140000D03*
X107315000Y-101600000D03*
X104775000Y-101600000D03*
X107315000Y-99060000D03*
X104775000Y-99060000D03*
X107315000Y-96520000D03*
X104775000Y-96520000D03*
X107315000Y-93980000D03*
X104775000Y-93980000D03*
X107315000Y-91440000D03*
X104775000Y-91440000D03*
X107315000Y-88900000D03*
X104775000Y-88900000D03*
X107315000Y-86360000D03*
X104775000Y-86360000D03*
X107315000Y-83820000D03*
X104775000Y-83820000D03*
D13*
X104140000Y-140335000D03*
X195580000Y-140335000D03*
X195580000Y-74930000D03*
X104140000Y-74930000D03*
D14*
X135890000Y-80010000D03*
X130890000Y-80010000D03*
X125730000Y-116840000D03*
X125730000Y-121840000D03*
X125730000Y-124460000D03*
X125730000Y-129460000D03*
X142240000Y-60325000D03*
X142240000Y-65325000D03*
X146050000Y-60325000D03*
X146050000Y-65325000D03*
X172720000Y-68580000D03*
X167720000Y-68580000D03*
X119380000Y-60325000D03*
X119380000Y-65325000D03*
X115570000Y-60325000D03*
X115570000Y-65325000D03*
D15*
X167640000Y-100965000D03*
X170180000Y-100965000D03*
X172720000Y-100965000D03*
X175260000Y-100965000D03*
X177800000Y-100965000D03*
X177800000Y-85725000D03*
X175260000Y-85725000D03*
X172720000Y-85725000D03*
X170180000Y-85725000D03*
X167640000Y-85725000D03*
X153670000Y-100965000D03*
X156210000Y-100965000D03*
X158750000Y-100965000D03*
X161290000Y-100965000D03*
X163830000Y-100965000D03*
X163830000Y-85725000D03*
X161290000Y-85725000D03*
X158750000Y-85725000D03*
X156210000Y-85725000D03*
X153670000Y-85725000D03*
D16*
X108585000Y-75565000D03*
D17*
X111125000Y-75565000D03*
D18*
X177165000Y-60960000D03*
D19*
X169545000Y-60960000D03*
D18*
X169545000Y-64770000D03*
D19*
X177165000Y-64770000D03*
D18*
X129540000Y-64770000D03*
D19*
X137160000Y-64770000D03*
D20*
X104449000Y-65405000D03*
D21*
X109455000Y-60405000D03*
X109455000Y-70405000D03*
X109455000Y-62905000D03*
X109455000Y-67905000D03*
D22*
X177165000Y-68580000D03*
X178435000Y-69850000D03*
D23*
X175895000Y-69850000D03*
D22*
X177165000Y-76200000D03*
X175895000Y-74930000D03*
D23*
X178435000Y-74930000D03*
D22*
X170180000Y-76200000D03*
X168910000Y-74930000D03*
D23*
X171450000Y-74930000D03*
D22*
X149860000Y-62865000D03*
X151130000Y-61595000D03*
D23*
X151130000Y-64135000D03*
D22*
X123190000Y-62865000D03*
X124460000Y-61595000D03*
D23*
X124460000Y-64135000D03*
D14*
X114300000Y-137160000D03*
D19*
X124460000Y-137160000D03*
D14*
X114300000Y-140970000D03*
D19*
X124460000Y-140970000D03*
D14*
X127000000Y-140970000D03*
D19*
X137160000Y-140970000D03*
D14*
X127000000Y-137160000D03*
D19*
X137160000Y-137160000D03*
D14*
X150495000Y-102870000D03*
D19*
X140335000Y-102870000D03*
D14*
X150495000Y-99695000D03*
D19*
X140335000Y-99695000D03*
D14*
X150495000Y-96520000D03*
D19*
X140335000Y-96520000D03*
D14*
X150495000Y-93345000D03*
D19*
X140335000Y-93345000D03*
D14*
X150495000Y-90170000D03*
D19*
X140335000Y-90170000D03*
D14*
X150495000Y-83820000D03*
D19*
X140335000Y-83820000D03*
D14*
X150495000Y-86995000D03*
D19*
X140335000Y-86995000D03*
D14*
X114935000Y-72390000D03*
D19*
X125095000Y-72390000D03*
D14*
X114935000Y-68580000D03*
D19*
X125095000Y-68580000D03*
D14*
X165100000Y-60960000D03*
D19*
X154940000Y-60960000D03*
D14*
X154940000Y-76200000D03*
D19*
X165100000Y-76200000D03*
D14*
X141605000Y-76200000D03*
D19*
X151765000Y-76200000D03*
D14*
X114935000Y-76200000D03*
D19*
X125095000Y-76200000D03*
D14*
X165100000Y-72390000D03*
D19*
X154940000Y-72390000D03*
D14*
X141605000Y-72390000D03*
D19*
X151765000Y-72390000D03*
D14*
X151765000Y-68580000D03*
D19*
X141605000Y-68580000D03*
D14*
X165100000Y-68580000D03*
D19*
X154940000Y-68580000D03*
D14*
X165100000Y-64770000D03*
D19*
X154940000Y-64770000D03*
D14*
X128270000Y-60960000D03*
D19*
X138430000Y-60960000D03*
D14*
X128270000Y-72390000D03*
D19*
X138430000Y-72390000D03*
D14*
X128270000Y-68580000D03*
D19*
X138430000Y-68580000D03*
D14*
X128270000Y-76200000D03*
D19*
X138430000Y-76200000D03*
D24*
X191135000Y-112450000D03*
X191135000Y-107950000D03*
X197635000Y-112450000D03*
X197635000Y-107950000D03*
X145415000Y-141025000D03*
X145415000Y-136525000D03*
X151915000Y-141025000D03*
X151915000Y-136525000D03*
X145415000Y-131500000D03*
X145415000Y-127000000D03*
X151915000Y-131500000D03*
X151915000Y-127000000D03*
X145415000Y-121975000D03*
X145415000Y-117475000D03*
X151915000Y-121975000D03*
X151915000Y-117475000D03*
X145415000Y-112450000D03*
X145415000Y-107950000D03*
X151915000Y-112450000D03*
X151915000Y-107950000D03*
X156845000Y-141025000D03*
X156845000Y-136525000D03*
X163345000Y-141025000D03*
X163345000Y-136525000D03*
X156845000Y-131500000D03*
X156845000Y-127000000D03*
X163345000Y-131500000D03*
X163345000Y-127000000D03*
X156845000Y-121975000D03*
X156845000Y-117475000D03*
X163345000Y-121975000D03*
X163345000Y-117475000D03*
X156845000Y-112450000D03*
X156845000Y-107950000D03*
X163345000Y-112450000D03*
X163345000Y-107950000D03*
X168275000Y-141025000D03*
X168275000Y-136525000D03*
X174775000Y-141025000D03*
X174775000Y-136525000D03*
X168275000Y-131500000D03*
X168275000Y-127000000D03*
X174775000Y-131500000D03*
X174775000Y-127000000D03*
X168275000Y-121975000D03*
X168275000Y-117475000D03*
X174775000Y-121975000D03*
X174775000Y-117475000D03*
X168275000Y-112450000D03*
X168275000Y-107950000D03*
X174775000Y-112450000D03*
X174775000Y-107950000D03*
X179705000Y-141025000D03*
X179705000Y-136525000D03*
X186205000Y-141025000D03*
X186205000Y-136525000D03*
X179705000Y-131500000D03*
X179705000Y-127000000D03*
X186205000Y-131500000D03*
X186205000Y-127000000D03*
X179705000Y-121975000D03*
X179705000Y-117475000D03*
X186205000Y-121975000D03*
X186205000Y-117475000D03*
X179705000Y-112450000D03*
X179705000Y-107950000D03*
X186205000Y-112450000D03*
X186205000Y-107950000D03*
D18*
X129540000Y-83820000D03*
D19*
X137160000Y-106680000D03*
X129540000Y-86360000D03*
X137160000Y-104140000D03*
X129540000Y-88900000D03*
X137160000Y-101600000D03*
X129540000Y-91440000D03*
X137160000Y-99060000D03*
X129540000Y-93980000D03*
X137160000Y-96520000D03*
X129540000Y-96520000D03*
X137160000Y-93980000D03*
X129540000Y-99060000D03*
X137160000Y-91440000D03*
X129540000Y-101600000D03*
X137160000Y-88900000D03*
X129540000Y-104140000D03*
X137160000Y-86360000D03*
X129540000Y-106680000D03*
X137160000Y-83820000D03*
D18*
X114300000Y-116840000D03*
D19*
X121920000Y-132080000D03*
X114300000Y-119380000D03*
X121920000Y-129540000D03*
X114300000Y-121920000D03*
X121920000Y-127000000D03*
X114300000Y-124460000D03*
X121920000Y-124460000D03*
X114300000Y-127000000D03*
X121920000Y-121920000D03*
X114300000Y-129540000D03*
X121920000Y-119380000D03*
X114300000Y-132080000D03*
X121920000Y-116840000D03*
D18*
X129540000Y-116840000D03*
D19*
X137160000Y-132080000D03*
X129540000Y-119380000D03*
X137160000Y-129540000D03*
X129540000Y-121920000D03*
X137160000Y-127000000D03*
X129540000Y-124460000D03*
X137160000Y-124460000D03*
X129540000Y-127000000D03*
X137160000Y-121920000D03*
X129540000Y-129540000D03*
X137160000Y-119380000D03*
X129540000Y-132080000D03*
X137160000Y-116840000D03*
D14*
X181610000Y-60960000D03*
D19*
X191770000Y-60960000D03*
D14*
X181610000Y-64770000D03*
D19*
X191770000Y-64770000D03*
D14*
X181610000Y-68580000D03*
D19*
X191770000Y-68580000D03*
D14*
X181610000Y-72390000D03*
D19*
X191770000Y-72390000D03*
D11*
X192405000Y-135255000D03*
D12*
X194945000Y-135255000D03*
X192405000Y-132715000D03*
X194945000Y-132715000D03*
X192405000Y-130175000D03*
X194945000Y-130175000D03*
X192405000Y-127635000D03*
X194945000Y-127635000D03*
X192405000Y-125095000D03*
X194945000Y-125095000D03*
D25*
X191585000Y-85725000D03*
X191585000Y-88265000D03*
D26*
X191585000Y-90805000D03*
D25*
X197035000Y-90805000D03*
X197035000Y-88265000D03*
X197035000Y-85725000D03*
X182060000Y-85725000D03*
X182060000Y-88265000D03*
D26*
X182060000Y-90805000D03*
D25*
X187510000Y-90805000D03*
X187510000Y-88265000D03*
X187510000Y-85725000D03*
X191585000Y-95885000D03*
X191585000Y-98425000D03*
D26*
X191585000Y-100965000D03*
D25*
X197035000Y-100965000D03*
X197035000Y-98425000D03*
X197035000Y-95885000D03*
X182060000Y-95885000D03*
X182060000Y-98425000D03*
D26*
X182060000Y-100965000D03*
D25*
X187510000Y-100965000D03*
X187510000Y-98425000D03*
X187510000Y-95885000D03*
D27*
X124460000Y-78740000D03*
X184150000Y-68580000D03*
X137795000Y-58420000D03*
X154305000Y-58420000D03*
X101600000Y-143510000D03*
X100965000Y-84455000D03*
X167005000Y-98425000D03*
X153035000Y-98425000D03*
X169545000Y-93345000D03*
X155575000Y-93345000D03*
X179705000Y-78740000D03*
X160655000Y-96520000D03*
X174625000Y-96520000D03*
X163195000Y-88900000D03*
X174625000Y-88265000D03*
X160655000Y-88265000D03*
X175895000Y-78740000D03*
X159385000Y-83185000D03*
X105410000Y-135255000D03*
X135890000Y-90170000D03*
X135890000Y-105410000D03*
X184785000Y-90170000D03*
X184150000Y-123190000D03*
X135255000Y-92075000D03*
X135255000Y-104775000D03*
X120015000Y-133985000D03*
X134620000Y-103505000D03*
X134620000Y-99695000D03*
X185420000Y-91440000D03*
X184785000Y-123825000D03*
X133985000Y-104140000D03*
X133985000Y-102235000D03*
X112395000Y-106045000D03*
X112395000Y-88265000D03*
X111125000Y-113665000D03*
X123825000Y-80010000D03*
X112395000Y-86995000D03*
X132715000Y-102235000D03*
X132715000Y-104775000D03*
X132080000Y-104140000D03*
X132080000Y-100330000D03*
X131445000Y-92075000D03*
X131445000Y-104775000D03*
X128270000Y-107950000D03*
X139065000Y-107315000D03*
X182880000Y-104775000D03*
X130810000Y-105410000D03*
X127000000Y-120650000D03*
X128270000Y-123190000D03*
X106045000Y-113030000D03*
X115570000Y-123190000D03*
X150495000Y-112395000D03*
X149225000Y-119380000D03*
X189865000Y-121920000D03*
X115570000Y-125730000D03*
X106045000Y-115570000D03*
X189230000Y-129540000D03*
X189230000Y-122555000D03*
X140335000Y-130175000D03*
X106045000Y-118110000D03*
X115570000Y-128270000D03*
X141605000Y-139700000D03*
X140970000Y-130810000D03*
X188595000Y-135890000D03*
X188595000Y-137160000D03*
X107950000Y-136525000D03*
X103505000Y-136525000D03*
X176530000Y-133985000D03*
X107950000Y-138430000D03*
X102235000Y-136525000D03*
X105410000Y-137160000D03*
X123825000Y-139065000D03*
X165100000Y-129540000D03*
X133350000Y-88265000D03*
X101600000Y-135255000D03*
X153670000Y-128270000D03*
X180975000Y-76200000D03*
X181610000Y-76835000D03*
X180340000Y-79375000D03*
X189865000Y-104775000D03*
X120015000Y-121920000D03*
X120015000Y-120015000D03*
X131445000Y-117475000D03*
X127635000Y-127635000D03*
X127635000Y-128905000D03*
X182880000Y-106045000D03*
X135255000Y-122555000D03*
X135255000Y-126365000D03*
X120015000Y-131445000D03*
X120015000Y-127635000D03*
X127635000Y-118745000D03*
X113665000Y-106045000D03*
X113665000Y-88265000D03*
X113665000Y-86995000D03*
X113030000Y-88900000D03*
X113030000Y-105410000D03*
X113030000Y-86360000D03*
X180340000Y-76835000D03*
D28*
X129540000Y-124460000D02*
X125730000Y-124460000D01*
X179705000Y-62865000D02*
X179705000Y-65405000D01*
X176530000Y-66040000D02*
X175895000Y-66675000D01*
X179070000Y-66040000D02*
X176530000Y-66040000D01*
X179705000Y-65405000D02*
X179070000Y-66040000D01*
X175895000Y-67310000D02*
X175895000Y-66675000D01*
X175895000Y-69850000D02*
X175895000Y-67310000D01*
X191770000Y-68580000D02*
X184150000Y-68580000D01*
X179705000Y-60325000D02*
X180340000Y-60960000D01*
X179705000Y-61595000D02*
X179705000Y-60325000D01*
X179705000Y-60325000D02*
X179705000Y-59055000D01*
X179705000Y-59055000D02*
X179070000Y-58420000D01*
X179705000Y-62865000D02*
X179705000Y-61595000D01*
X100965000Y-79375000D02*
X100965000Y-62230000D01*
X104775000Y-58420000D02*
X137795000Y-58420000D01*
X137795000Y-58420000D02*
X154305000Y-58420000D01*
X154305000Y-58420000D02*
X179070000Y-58420000D01*
X100965000Y-62230000D02*
X104775000Y-58420000D01*
X180340000Y-60960000D02*
X181610000Y-60960000D01*
X124460000Y-78740000D02*
X114300000Y-78740000D01*
X101600000Y-78740000D02*
X100965000Y-79375000D01*
X114300000Y-78740000D02*
X101600000Y-78740000D01*
X100965000Y-81915000D02*
X100965000Y-84455000D01*
X100965000Y-79375000D02*
X100965000Y-81915000D01*
X125095000Y-78740000D02*
X124460000Y-78740000D01*
X135255000Y-78740000D02*
X135890000Y-79375000D01*
X135255000Y-78740000D02*
X125095000Y-78740000D01*
X135890000Y-80010000D02*
X135890000Y-79375000D01*
X113665000Y-143510000D02*
X126365000Y-143510000D01*
X127000000Y-142875000D02*
X127000000Y-140970000D01*
X126365000Y-143510000D02*
X127000000Y-142875000D01*
X102235000Y-143510000D02*
X113665000Y-143510000D01*
X101600000Y-143510000D02*
X102235000Y-143510000D01*
X101600000Y-83820000D02*
X100965000Y-84455000D01*
X104775000Y-83820000D02*
X101600000Y-83820000D01*
X114300000Y-142875000D02*
X114300000Y-140970000D01*
X113665000Y-143510000D02*
X114300000Y-142875000D01*
X121920000Y-116840000D02*
X125730000Y-116840000D01*
X153035000Y-98425000D02*
X167005000Y-98425000D01*
X150495000Y-90170000D02*
X149675002Y-90170000D01*
X149860000Y-98425000D02*
X153035000Y-98425000D01*
X149225000Y-97790000D02*
X149860000Y-98425000D01*
X149225000Y-90620002D02*
X149225000Y-97790000D01*
X149675002Y-90170000D02*
X149225000Y-90620002D01*
X155575000Y-93345000D02*
X169545000Y-93345000D01*
X155575000Y-93345000D02*
X150495000Y-93345000D01*
X179705000Y-82550000D02*
X179705000Y-83185000D01*
X179705000Y-83185000D02*
X179070000Y-83820000D01*
X172720000Y-85725000D02*
X172720000Y-84455000D01*
X179705000Y-82550000D02*
X179705000Y-78740000D01*
X173355000Y-83820000D02*
X179070000Y-83820000D01*
X172720000Y-84455000D02*
X173355000Y-83820000D01*
X150495000Y-96520000D02*
X160655000Y-96520000D01*
X160655000Y-96520000D02*
X174625000Y-96520000D01*
X163195000Y-88900000D02*
X149225000Y-88900000D01*
X149225000Y-99695000D02*
X150495000Y-99695000D01*
X148590000Y-99060000D02*
X149225000Y-99695000D01*
X148590000Y-89535000D02*
X148590000Y-99060000D01*
X149225000Y-88900000D02*
X148590000Y-89535000D01*
X177800000Y-88265000D02*
X177800000Y-85725000D01*
X177165000Y-88900000D02*
X177800000Y-88265000D01*
X163195000Y-88900000D02*
X177165000Y-88900000D01*
X149225000Y-88265000D02*
X148590000Y-88265000D01*
X160655000Y-88265000D02*
X149225000Y-88265000D01*
X148590000Y-102870000D02*
X150495000Y-102870000D01*
X147955000Y-102235000D02*
X148590000Y-102870000D01*
X147955000Y-88900000D02*
X147955000Y-102235000D01*
X148590000Y-88265000D02*
X147955000Y-88900000D01*
X160655000Y-88265000D02*
X174625000Y-88265000D01*
X155575000Y-83820000D02*
X169545000Y-83820000D01*
X170180000Y-84455000D02*
X170180000Y-85725000D01*
X169545000Y-83820000D02*
X170180000Y-84455000D01*
X150495000Y-83820000D02*
X155575000Y-83820000D01*
X156210000Y-84455000D02*
X156210000Y-85725000D01*
X155575000Y-83820000D02*
X156210000Y-84455000D01*
X150495000Y-86995000D02*
X151765000Y-86995000D01*
X151765000Y-86995000D02*
X152400000Y-87630000D01*
X153035000Y-87630000D02*
X167005000Y-87630000D01*
X167640000Y-86995000D02*
X167640000Y-85725000D01*
X167005000Y-87630000D02*
X167640000Y-86995000D01*
X153670000Y-86995000D02*
X153670000Y-85725000D01*
X153035000Y-87630000D02*
X153670000Y-86995000D01*
X152400000Y-87630000D02*
X153035000Y-87630000D01*
X175895000Y-82550000D02*
X175895000Y-78740000D01*
X175260000Y-83185000D02*
X175895000Y-82550000D01*
X159385000Y-83185000D02*
X175260000Y-83185000D01*
X141605000Y-68580000D02*
X141605000Y-65960000D01*
X141605000Y-65960000D02*
X142240000Y-65325000D01*
X141605000Y-68580000D02*
X141605000Y-72390000D01*
X151765000Y-68580000D02*
X154940000Y-68580000D01*
X146050000Y-65325000D02*
X151050000Y-65325000D01*
X151765000Y-66040000D02*
X151765000Y-68580000D01*
X151050000Y-65325000D02*
X151765000Y-66040000D01*
X177165000Y-60960000D02*
X177165000Y-62230000D01*
X165100000Y-63500000D02*
X165100000Y-64770000D01*
X165735000Y-62865000D02*
X165100000Y-63500000D01*
X176530000Y-62865000D02*
X165735000Y-62865000D01*
X177165000Y-62230000D02*
X176530000Y-62865000D01*
X165100000Y-68580000D02*
X167720000Y-68580000D01*
X169545000Y-60960000D02*
X169545000Y-59690000D01*
X120015000Y-59055000D02*
X167005000Y-59055000D01*
X120015000Y-59055000D02*
X119380000Y-59690000D01*
X168910000Y-59055000D02*
X167005000Y-59055000D01*
X169545000Y-59690000D02*
X168910000Y-59055000D01*
X119380000Y-60325000D02*
X119380000Y-59690000D01*
X124460000Y-61595000D02*
X120015000Y-61595000D01*
X119380000Y-62230000D02*
X119380000Y-65325000D01*
X120015000Y-61595000D02*
X119380000Y-62230000D01*
X124460000Y-61595000D02*
X127635000Y-61595000D01*
X127635000Y-61595000D02*
X128270000Y-60960000D01*
X127635000Y-74295000D02*
X118110000Y-74295000D01*
X117475000Y-73660000D02*
X117475000Y-69850000D01*
X118110000Y-74295000D02*
X117475000Y-73660000D01*
X138430000Y-76200000D02*
X138430000Y-74930000D01*
X116840000Y-60325000D02*
X115570000Y-60325000D01*
X117475000Y-69850000D02*
X117475000Y-60960000D01*
X117475000Y-60960000D02*
X116840000Y-60325000D01*
X137795000Y-74295000D02*
X127635000Y-74295000D01*
X138430000Y-74930000D02*
X137795000Y-74295000D01*
X115570000Y-65325000D02*
X110410000Y-65325000D01*
X109455000Y-64370000D02*
X109455000Y-62905000D01*
X110410000Y-65325000D02*
X109455000Y-64370000D01*
X141605000Y-76200000D02*
X141605000Y-77019998D01*
X108585000Y-76835000D02*
X108585000Y-75565000D01*
X109220000Y-77470000D02*
X108585000Y-76835000D01*
X141154998Y-77470000D02*
X109220000Y-77470000D01*
X141605000Y-77019998D02*
X141154998Y-77470000D01*
X141605000Y-76200000D02*
X143510000Y-76200000D01*
X144780000Y-61595000D02*
X151130000Y-61595000D01*
X144145000Y-62230000D02*
X144780000Y-61595000D01*
X144145000Y-75565000D02*
X144145000Y-62230000D01*
X143510000Y-76200000D02*
X144145000Y-75565000D01*
X111125000Y-75565000D02*
X114300000Y-75565000D01*
X114300000Y-75565000D02*
X114935000Y-76200000D01*
X129540000Y-64770000D02*
X129540000Y-66040000D01*
X130175000Y-66675000D02*
X130175000Y-69215000D01*
X129540000Y-66040000D02*
X130175000Y-66675000D01*
X123190000Y-62865000D02*
X128905000Y-62865000D01*
X129540000Y-63500000D02*
X129540000Y-64770000D01*
X128905000Y-62865000D02*
X129540000Y-63500000D01*
X138430000Y-68580000D02*
X130810000Y-68580000D01*
X130810000Y-68580000D02*
X130175000Y-69215000D01*
X129540000Y-72390000D02*
X128270000Y-72390000D01*
X130175000Y-69215000D02*
X130175000Y-71755000D01*
X130175000Y-71755000D02*
X129540000Y-72390000D01*
X110090000Y-67905000D02*
X114260000Y-67905000D01*
X114260000Y-67905000D02*
X114935000Y-68580000D01*
X142875000Y-132715000D02*
X142875000Y-133350000D01*
X105410000Y-135255000D02*
X140335000Y-135255000D01*
X142875000Y-132715000D02*
X142875000Y-125730000D01*
X142875000Y-125730000D02*
X143510000Y-125095000D01*
X143510000Y-125095000D02*
X192405000Y-125095000D01*
X142875000Y-133350000D02*
X140970000Y-135255000D01*
X140970000Y-135255000D02*
X140335000Y-135255000D01*
X193040000Y-114935000D02*
X193040000Y-124460000D01*
X193040000Y-124460000D02*
X192405000Y-125095000D01*
X192405000Y-107950000D02*
X193040000Y-108585000D01*
X193040000Y-109855000D02*
X193040000Y-108585000D01*
X193040000Y-114935000D02*
X193040000Y-109855000D01*
X191135000Y-107950000D02*
X192405000Y-107950000D01*
X192405000Y-107950000D02*
X193040000Y-107950000D01*
X193040000Y-107950000D02*
X197635000Y-107950000D01*
X112395000Y-127000000D02*
X112395000Y-118745000D01*
X116840000Y-115570000D02*
X118745000Y-115570000D01*
X116205000Y-116205000D02*
X116840000Y-115570000D01*
X116205000Y-117475000D02*
X116205000Y-116205000D01*
X115570000Y-118110000D02*
X116205000Y-117475000D01*
X113030000Y-118110000D02*
X115570000Y-118110000D01*
X112395000Y-118745000D02*
X113030000Y-118110000D01*
X121285000Y-115570000D02*
X118745000Y-115570000D01*
X134620000Y-115570000D02*
X135255000Y-115570000D01*
X135890000Y-90170000D02*
X137160000Y-88900000D01*
X135890000Y-114935000D02*
X135890000Y-105410000D01*
X135255000Y-115570000D02*
X135890000Y-114935000D01*
X121285000Y-115570000D02*
X134620000Y-115570000D01*
X111760000Y-129540000D02*
X112395000Y-128905000D01*
X107315000Y-129540000D02*
X111760000Y-129540000D01*
X112395000Y-128905000D02*
X112395000Y-127000000D01*
X184785000Y-90170000D02*
X185420000Y-89535000D01*
X137795000Y-133985000D02*
X139700000Y-133985000D01*
X102870000Y-130810000D02*
X102870000Y-130175000D01*
X104775000Y-129540000D02*
X103505000Y-129540000D01*
X102870000Y-130175000D02*
X103505000Y-129540000D01*
X102870000Y-130810000D02*
X102870000Y-132715000D01*
X102870000Y-132715000D02*
X103505000Y-133350000D01*
X103505000Y-133350000D02*
X118110000Y-133350000D01*
X120650000Y-133350000D02*
X118110000Y-133350000D01*
X121285000Y-133985000D02*
X137795000Y-133985000D01*
X120650000Y-133350000D02*
X121285000Y-133985000D01*
X142240000Y-123825000D02*
X183515000Y-123825000D01*
X141605000Y-124460000D02*
X142240000Y-123825000D01*
X141605000Y-132080000D02*
X141605000Y-124460000D01*
X139700000Y-133985000D02*
X141605000Y-132080000D01*
X183515000Y-123825000D02*
X184150000Y-123190000D01*
X190315000Y-89535000D02*
X191585000Y-88265000D01*
X185420000Y-89535000D02*
X190315000Y-89535000D01*
X104775000Y-129540000D02*
X104140000Y-129540000D01*
X111760000Y-126365000D02*
X111760000Y-116840000D01*
X113665000Y-114935000D02*
X111760000Y-116840000D01*
X113665000Y-114935000D02*
X118110000Y-114935000D01*
X120650000Y-114935000D02*
X118110000Y-114935000D01*
X135255000Y-114300000D02*
X135255000Y-114484998D01*
X135255000Y-104775000D02*
X135255000Y-114300000D01*
X135890000Y-91440000D02*
X135255000Y-92075000D01*
X134804998Y-114935000D02*
X133985000Y-114935000D01*
X135255000Y-114484998D02*
X134804998Y-114935000D01*
X120650000Y-114935000D02*
X133985000Y-114935000D01*
X135890000Y-91440000D02*
X137160000Y-91440000D01*
X111125000Y-127000000D02*
X111760000Y-126365000D01*
X107315000Y-127000000D02*
X111125000Y-127000000D01*
X120015000Y-133985000D02*
X118745000Y-133985000D01*
X102870000Y-127000000D02*
X102235000Y-127635000D01*
X102235000Y-127635000D02*
X102235000Y-133350000D01*
X102235000Y-133350000D02*
X102870000Y-133985000D01*
X102870000Y-133985000D02*
X118745000Y-133985000D01*
X102870000Y-127000000D02*
X104775000Y-127000000D01*
X113665000Y-114300000D02*
X113030000Y-114300000D01*
X111125000Y-116205000D02*
X111125000Y-116840000D01*
X113030000Y-114300000D02*
X111125000Y-116205000D01*
X117475000Y-114300000D02*
X113665000Y-114300000D01*
X111125000Y-123825000D02*
X110490000Y-124460000D01*
X107315000Y-124460000D02*
X110490000Y-124460000D01*
X111125000Y-116840000D02*
X111125000Y-123825000D01*
X120015000Y-114300000D02*
X117475000Y-114300000D01*
X135255000Y-99060000D02*
X134620000Y-99695000D01*
X133985000Y-114300000D02*
X133350000Y-114300000D01*
X134620000Y-113665000D02*
X133985000Y-114300000D01*
X134620000Y-103505000D02*
X134620000Y-113665000D01*
X120015000Y-114300000D02*
X133350000Y-114300000D01*
X135255000Y-99060000D02*
X137160000Y-99060000D01*
X184785000Y-90805000D02*
X184150000Y-90805000D01*
X185420000Y-91440000D02*
X184785000Y-90805000D01*
X184150000Y-124460000D02*
X184785000Y-123825000D01*
X126365000Y-134620000D02*
X140335000Y-134620000D01*
X104775000Y-124460000D02*
X102235000Y-124460000D01*
X102235000Y-134620000D02*
X121920000Y-134620000D01*
X101600000Y-133985000D02*
X102235000Y-134620000D01*
X101600000Y-125095000D02*
X101600000Y-133985000D01*
X102235000Y-124460000D02*
X101600000Y-125095000D01*
X126365000Y-134620000D02*
X121920000Y-134620000D01*
X142875000Y-124460000D02*
X150495000Y-124460000D01*
X142240000Y-125095000D02*
X142875000Y-124460000D01*
X142240000Y-132715000D02*
X142240000Y-125095000D01*
X140335000Y-134620000D02*
X142240000Y-132715000D01*
X150495000Y-124460000D02*
X184150000Y-124460000D01*
X184150000Y-90805000D02*
X182060000Y-90805000D01*
X113030000Y-113665000D02*
X112395000Y-113665000D01*
X110490000Y-115570000D02*
X110490000Y-116205000D01*
X112395000Y-113665000D02*
X110490000Y-115570000D01*
X116840000Y-113665000D02*
X113030000Y-113665000D01*
X110490000Y-121285000D02*
X109855000Y-121920000D01*
X110490000Y-116205000D02*
X110490000Y-121285000D01*
X107315000Y-121920000D02*
X109855000Y-121920000D01*
X119380000Y-113665000D02*
X116840000Y-113665000D01*
X134620000Y-101600000D02*
X133985000Y-102235000D01*
X133350000Y-113665000D02*
X132715000Y-113665000D01*
X133985000Y-113030000D02*
X133350000Y-113665000D01*
X133985000Y-104140000D02*
X133985000Y-113030000D01*
X119380000Y-113665000D02*
X132715000Y-113665000D01*
X134620000Y-101600000D02*
X137160000Y-101600000D01*
X112395000Y-106045000D02*
X112395000Y-88265000D01*
X109855000Y-115570000D02*
X109855000Y-114935000D01*
X109855000Y-114935000D02*
X111125000Y-113665000D01*
X109855000Y-120015000D02*
X109220000Y-120650000D01*
X109855000Y-115570000D02*
X109855000Y-120015000D01*
X123190000Y-80645000D02*
X122555000Y-80645000D01*
X123825000Y-80010000D02*
X123190000Y-80645000D01*
X104775000Y-121920000D02*
X106045000Y-120650000D01*
X106045000Y-120650000D02*
X109220000Y-120650000D01*
X113665000Y-80645000D02*
X122555000Y-80645000D01*
X112395000Y-81915000D02*
X113665000Y-80645000D01*
X112395000Y-86995000D02*
X112395000Y-81915000D01*
X111125000Y-113030000D02*
X110490000Y-113030000D01*
X109220000Y-114300000D02*
X109220000Y-114935000D01*
X110490000Y-113030000D02*
X109220000Y-114300000D01*
X132715000Y-112395000D02*
X132080000Y-113030000D01*
X109220000Y-118745000D02*
X108585000Y-119380000D01*
X107315000Y-119380000D02*
X108585000Y-119380000D01*
X109220000Y-114935000D02*
X109220000Y-118745000D01*
X132080000Y-113030000D02*
X111125000Y-113030000D01*
X132080000Y-101600000D02*
X129540000Y-101600000D01*
X132715000Y-102235000D02*
X132080000Y-101600000D01*
X132715000Y-112395000D02*
X132715000Y-104775000D01*
X110490000Y-112395000D02*
X109855000Y-112395000D01*
X108585000Y-113665000D02*
X108585000Y-114300000D01*
X109855000Y-112395000D02*
X108585000Y-113665000D01*
X132080000Y-111760000D02*
X131445000Y-112395000D01*
X108585000Y-116205000D02*
X107950000Y-116840000D01*
X108585000Y-114300000D02*
X108585000Y-116205000D01*
X131445000Y-112395000D02*
X110490000Y-112395000D01*
X107950000Y-116840000D02*
X107315000Y-116840000D01*
X132080000Y-111760000D02*
X132080000Y-104140000D01*
X130810000Y-99060000D02*
X129540000Y-99060000D01*
X131445000Y-99695000D02*
X130810000Y-99060000D01*
X132080000Y-100330000D02*
X131445000Y-99695000D01*
X109855000Y-111760000D02*
X109220000Y-111760000D01*
X109220000Y-111760000D02*
X107315000Y-113665000D01*
X107315000Y-113665000D02*
X107315000Y-114300000D01*
X131445000Y-111125000D02*
X130810000Y-111760000D01*
X130810000Y-111760000D02*
X109855000Y-111760000D01*
X130810000Y-91440000D02*
X129540000Y-91440000D01*
X131445000Y-92075000D02*
X130810000Y-91440000D01*
X131445000Y-111125000D02*
X131445000Y-104775000D01*
X128270000Y-107950000D02*
X128270000Y-110490000D01*
X127635000Y-111125000D02*
X108585000Y-111125000D01*
X107315000Y-111760000D02*
X107950000Y-111125000D01*
X108585000Y-111125000D02*
X107950000Y-111125000D01*
X128270000Y-110490000D02*
X127635000Y-111125000D01*
X128270000Y-105410000D02*
X127635000Y-106045000D01*
X127000000Y-106680000D02*
X126365000Y-106680000D01*
X127635000Y-106045000D02*
X127000000Y-106680000D01*
X107315000Y-106680000D02*
X126365000Y-106680000D01*
X139065000Y-107315000D02*
X139065000Y-106680000D01*
X139700000Y-106045000D02*
X142875000Y-106045000D01*
X139065000Y-106680000D02*
X139700000Y-106045000D01*
X144780000Y-104775000D02*
X182880000Y-104775000D01*
X144145000Y-104775000D02*
X144780000Y-104775000D01*
X142875000Y-106045000D02*
X144145000Y-104775000D01*
X130810000Y-105410000D02*
X128270000Y-105410000D01*
X140335000Y-121920000D02*
X140335000Y-120015000D01*
X140970000Y-119380000D02*
X142875000Y-119380000D01*
X140335000Y-120015000D02*
X140970000Y-119380000D01*
X132080000Y-123190000D02*
X139700000Y-123190000D01*
X128270000Y-123190000D02*
X132080000Y-123190000D01*
X115570000Y-123190000D02*
X118745000Y-123190000D01*
X102870000Y-109220000D02*
X102870000Y-112395000D01*
X103320002Y-104140000D02*
X102870000Y-104590002D01*
X102870000Y-104590002D02*
X102870000Y-109220000D01*
X104775000Y-104140000D02*
X103320002Y-104140000D01*
X103505000Y-113030000D02*
X106045000Y-113030000D01*
X102870000Y-112395000D02*
X103505000Y-113030000D01*
X120015000Y-120650000D02*
X126365000Y-120650000D01*
X119380000Y-121285000D02*
X120015000Y-120650000D01*
X119380000Y-122555000D02*
X119380000Y-121285000D01*
X118745000Y-123190000D02*
X119380000Y-122555000D01*
X126365000Y-120650000D02*
X127000000Y-120650000D01*
X142875000Y-119380000D02*
X149225000Y-119380000D01*
X140335000Y-122555000D02*
X140335000Y-121920000D01*
X139700000Y-123190000D02*
X140335000Y-122555000D01*
X150495000Y-112395000D02*
X150495000Y-112450000D01*
X150495000Y-112450000D02*
X150495000Y-112395000D01*
X150495000Y-112395000D02*
X150495000Y-112450000D01*
X174775000Y-112450000D02*
X168275000Y-112450000D01*
X179705000Y-112450000D02*
X174775000Y-112450000D01*
X186205000Y-112450000D02*
X188650000Y-112450000D01*
X188650000Y-112450000D02*
X189865000Y-113665000D01*
X189865000Y-113665000D02*
X189865000Y-121920000D01*
X145415000Y-112450000D02*
X150495000Y-112450000D01*
X150495000Y-112450000D02*
X151915000Y-112450000D01*
X151915000Y-112450000D02*
X156845000Y-112450000D01*
X156845000Y-112450000D02*
X163345000Y-112450000D01*
X163345000Y-112450000D02*
X168275000Y-112450000D01*
X179705000Y-112450000D02*
X186205000Y-112450000D01*
X145415000Y-121975000D02*
X141550000Y-121975000D01*
X115570000Y-125730000D02*
X132080000Y-125730000D01*
X102235000Y-106045000D02*
X102235000Y-114935000D01*
X102870000Y-101600000D02*
X102235000Y-102235000D01*
X102235000Y-102235000D02*
X102235000Y-106045000D01*
X102870000Y-101600000D02*
X104775000Y-101600000D01*
X102870000Y-115570000D02*
X106045000Y-115570000D01*
X102235000Y-114935000D02*
X102870000Y-115570000D01*
X140335000Y-125730000D02*
X132080000Y-125730000D01*
X140970000Y-125095000D02*
X140335000Y-125730000D01*
X140970000Y-122555000D02*
X140970000Y-125095000D01*
X141550000Y-121975000D02*
X140970000Y-122555000D01*
X192405000Y-130175000D02*
X189865000Y-130175000D01*
X189865000Y-130175000D02*
X189230000Y-129540000D01*
X189230000Y-122555000D02*
X188595000Y-121920000D01*
X188595000Y-121920000D02*
X186260000Y-121920000D01*
X191770000Y-130175000D02*
X192405000Y-130175000D01*
X186260000Y-121920000D02*
X186205000Y-121975000D01*
X145415000Y-121975000D02*
X151915000Y-121975000D01*
X151915000Y-121975000D02*
X156845000Y-121975000D01*
X156845000Y-121975000D02*
X163345000Y-121975000D01*
X163345000Y-121975000D02*
X168275000Y-121975000D01*
X168275000Y-121975000D02*
X174775000Y-121975000D01*
X174775000Y-121975000D02*
X179705000Y-121975000D01*
X179705000Y-121975000D02*
X186205000Y-121975000D01*
X139700000Y-129540000D02*
X140335000Y-130175000D01*
X139700000Y-129540000D02*
X138430000Y-128270000D01*
X138430000Y-128270000D02*
X127000000Y-128270000D01*
X127000000Y-128270000D02*
X124460000Y-128270000D01*
X101600000Y-117475000D02*
X102235000Y-118110000D01*
X102235000Y-118110000D02*
X106045000Y-118110000D01*
X102235000Y-99060000D02*
X104775000Y-99060000D01*
X101600000Y-99695000D02*
X101600000Y-105410000D01*
X102235000Y-99060000D02*
X101600000Y-99695000D01*
X101600000Y-105410000D02*
X101600000Y-117475000D01*
X115570000Y-128270000D02*
X119380000Y-128270000D01*
X124460000Y-128270000D02*
X119380000Y-128270000D01*
X186205000Y-131500000D02*
X188650000Y-131500000D01*
X189865000Y-132715000D02*
X192405000Y-132715000D01*
X188650000Y-131500000D02*
X189865000Y-132715000D01*
X179705000Y-131500000D02*
X186205000Y-131500000D01*
X174775000Y-131500000D02*
X179705000Y-131500000D01*
X168275000Y-131500000D02*
X174775000Y-131500000D01*
X163345000Y-131500000D02*
X168275000Y-131500000D01*
X156845000Y-131500000D02*
X163345000Y-131500000D01*
X151915000Y-131500000D02*
X156845000Y-131500000D01*
X145415000Y-131500000D02*
X151915000Y-131500000D01*
X139700000Y-130810000D02*
X140970000Y-130810000D01*
X139065000Y-130810000D02*
X130810000Y-130810000D01*
X123190000Y-130810000D02*
X123825000Y-131445000D01*
X123825000Y-131445000D02*
X127635000Y-131445000D01*
X127635000Y-131445000D02*
X128270000Y-130810000D01*
X128270000Y-130810000D02*
X130810000Y-130810000D01*
X118745000Y-130810000D02*
X109855000Y-130810000D01*
X105410000Y-123190000D02*
X106045000Y-123825000D01*
X106045000Y-123825000D02*
X106045000Y-130175000D01*
X106045000Y-130175000D02*
X106680000Y-130810000D01*
X106680000Y-130810000D02*
X109855000Y-130810000D01*
X104775000Y-96520000D02*
X101600000Y-96520000D01*
X100965000Y-122555000D02*
X101600000Y-123190000D01*
X100965000Y-97155000D02*
X100965000Y-122555000D01*
X101600000Y-96520000D02*
X100965000Y-97155000D01*
X101600000Y-123190000D02*
X105410000Y-123190000D01*
X118745000Y-130810000D02*
X123190000Y-130810000D01*
X139700000Y-130810000D02*
X139065000Y-130810000D01*
X142240000Y-140970000D02*
X145360000Y-140970000D01*
X141605000Y-140335000D02*
X142240000Y-140970000D01*
X141605000Y-139700000D02*
X141605000Y-140335000D01*
X145360000Y-140970000D02*
X145415000Y-141025000D01*
X186205000Y-141025000D02*
X187905000Y-141025000D01*
X189230000Y-135255000D02*
X192405000Y-135255000D01*
X188595000Y-135890000D02*
X189230000Y-135255000D01*
X188595000Y-140335000D02*
X188595000Y-137160000D01*
X187905000Y-141025000D02*
X188595000Y-140335000D01*
X174775000Y-141025000D02*
X179705000Y-141025000D01*
X179705000Y-141025000D02*
X186205000Y-141025000D01*
X168275000Y-141025000D02*
X174775000Y-141025000D01*
X163345000Y-141025000D02*
X168275000Y-141025000D01*
X156845000Y-141025000D02*
X163345000Y-141025000D01*
X151915000Y-141025000D02*
X156845000Y-141025000D01*
X145415000Y-141025000D02*
X151915000Y-141025000D01*
X107950000Y-136525000D02*
X111760000Y-136525000D01*
X121285000Y-138430000D02*
X113030000Y-138430000D01*
X135255000Y-138430000D02*
X121285000Y-138430000D01*
X136525000Y-137160000D02*
X135255000Y-138430000D01*
X112395000Y-137160000D02*
X111760000Y-136525000D01*
X112395000Y-137795000D02*
X112395000Y-137160000D01*
X113030000Y-138430000D02*
X112395000Y-137795000D01*
X137160000Y-137160000D02*
X136525000Y-137160000D01*
X142240000Y-136525000D02*
X137795000Y-136525000D01*
X137795000Y-136525000D02*
X137160000Y-137160000D01*
X144780000Y-134620000D02*
X144145000Y-134620000D01*
X144145000Y-134620000D02*
X142240000Y-136525000D01*
X186205000Y-136525000D02*
X194310000Y-136525000D01*
X194310000Y-136525000D02*
X194945000Y-135890000D01*
X194945000Y-135890000D02*
X194945000Y-135255000D01*
X149225000Y-134620000D02*
X177800000Y-134620000D01*
X144780000Y-134620000D02*
X149225000Y-134620000D01*
X177800000Y-134620000D02*
X179705000Y-136525000D01*
X179705000Y-136525000D02*
X186205000Y-136525000D01*
X179705000Y-117475000D02*
X186205000Y-117475000D01*
X179705000Y-127000000D02*
X186205000Y-127000000D01*
X186205000Y-107950000D02*
X179705000Y-107950000D01*
X103505000Y-136525000D02*
X106680000Y-136525000D01*
X106680000Y-136525000D02*
X107315000Y-137160000D01*
X107315000Y-137160000D02*
X107315000Y-139065000D01*
X107315000Y-139065000D02*
X107950000Y-139700000D01*
X107950000Y-139700000D02*
X111760000Y-139700000D01*
X111760000Y-139700000D02*
X120015000Y-139700000D01*
X136525000Y-139700000D02*
X120015000Y-139700000D01*
X137160000Y-140970000D02*
X137160000Y-140335000D01*
X137160000Y-140335000D02*
X136525000Y-139700000D01*
X137160000Y-139700000D02*
X136525000Y-139700000D01*
X194945000Y-132715000D02*
X194945000Y-133350000D01*
X194945000Y-133350000D02*
X194310000Y-133985000D01*
X194310000Y-133985000D02*
X176530000Y-133985000D01*
X142240000Y-139065000D02*
X167640000Y-139065000D01*
X139700000Y-139065000D02*
X142055002Y-139065000D01*
X142055002Y-139065000D02*
X142240000Y-139065000D01*
X137795000Y-139065000D02*
X137160000Y-139700000D01*
X139700000Y-139065000D02*
X137795000Y-139065000D01*
X168275000Y-138430000D02*
X168275000Y-136525000D01*
X167640000Y-139065000D02*
X168275000Y-138430000D01*
X168275000Y-136525000D02*
X174775000Y-136525000D01*
X168275000Y-127000000D02*
X174775000Y-127000000D01*
X168275000Y-117475000D02*
X174775000Y-117475000D01*
X174775000Y-107950000D02*
X168275000Y-107950000D01*
X105410000Y-137160000D02*
X102870000Y-137160000D01*
X102870000Y-137160000D02*
X102235000Y-136525000D01*
X111760000Y-139065000D02*
X108585000Y-139065000D01*
X112395000Y-139065000D02*
X111760000Y-139065000D01*
X123825000Y-139065000D02*
X112395000Y-139065000D01*
X108585000Y-139065000D02*
X107950000Y-138430000D01*
X136525000Y-139065000D02*
X125095000Y-139065000D01*
X125095000Y-139065000D02*
X123825000Y-139065000D01*
X136525000Y-139065000D02*
X137160000Y-138430000D01*
X187960000Y-129540000D02*
X165100000Y-129540000D01*
X191135000Y-131445000D02*
X189865000Y-131445000D01*
X194310000Y-131445000D02*
X191135000Y-131445000D01*
X194945000Y-130810000D02*
X194310000Y-131445000D01*
X189865000Y-131445000D02*
X187960000Y-129540000D01*
X194945000Y-130175000D02*
X194945000Y-130810000D01*
X156210000Y-138430000D02*
X156845000Y-137795000D01*
X137160000Y-138430000D02*
X156210000Y-138430000D01*
X156845000Y-137795000D02*
X156845000Y-136525000D01*
X156845000Y-107950000D02*
X163345000Y-107950000D01*
X156845000Y-117475000D02*
X163345000Y-117475000D01*
X156845000Y-136525000D02*
X163345000Y-136525000D01*
X156845000Y-127000000D02*
X163345000Y-127000000D01*
X108585000Y-87630000D02*
X107315000Y-86360000D01*
X132715000Y-87630000D02*
X108585000Y-87630000D01*
X133350000Y-88265000D02*
X132715000Y-87630000D01*
X123825000Y-135890000D02*
X112395000Y-135890000D01*
X102235000Y-135890000D02*
X112395000Y-135890000D01*
X102235000Y-135890000D02*
X101600000Y-135255000D01*
X124460000Y-137160000D02*
X124460000Y-136525000D01*
X124460000Y-136525000D02*
X123825000Y-135890000D01*
X125095000Y-135890000D02*
X123825000Y-135890000D01*
X143510000Y-133350000D02*
X143510000Y-133985000D01*
X141605000Y-135890000D02*
X140970000Y-135890000D01*
X143510000Y-133985000D02*
X141605000Y-135890000D01*
X187960000Y-128905000D02*
X194310000Y-128905000D01*
X194310000Y-128905000D02*
X194945000Y-128270000D01*
X194945000Y-128270000D02*
X194945000Y-127635000D01*
X187960000Y-128905000D02*
X154305000Y-128905000D01*
X194945000Y-127635000D02*
X194945000Y-128270000D01*
X154305000Y-128905000D02*
X153670000Y-128270000D01*
X125095000Y-135890000D02*
X140970000Y-135890000D01*
X143510000Y-133350000D02*
X143510000Y-127635000D01*
X143510000Y-127635000D02*
X144145000Y-127000000D01*
X144145000Y-127000000D02*
X145415000Y-127000000D01*
X145415000Y-107950000D02*
X151915000Y-107950000D01*
X145415000Y-117475000D02*
X151915000Y-117475000D01*
X151915000Y-136525000D02*
X145415000Y-136525000D01*
X145415000Y-127000000D02*
X151915000Y-127000000D01*
X177165000Y-67945000D02*
X177165000Y-67310000D01*
X191135000Y-66675000D02*
X191770000Y-66040000D01*
X177800000Y-66675000D02*
X191135000Y-66675000D01*
X177165000Y-67310000D02*
X177800000Y-66675000D01*
X177165000Y-68580000D02*
X177165000Y-67945000D01*
X191770000Y-66040000D02*
X191770000Y-64770000D01*
X191770000Y-64770000D02*
X191770000Y-60960000D01*
X177165000Y-76200000D02*
X180975000Y-76200000D01*
X181610000Y-68580000D02*
X181610000Y-72390000D01*
X154940000Y-76200000D02*
X154940000Y-76835000D01*
X154940000Y-76835000D02*
X155575000Y-77470000D01*
X151765000Y-76200000D02*
X151765000Y-76835000D01*
X151765000Y-76835000D02*
X152400000Y-77470000D01*
X170180000Y-76200000D02*
X170180000Y-76835000D01*
X169545000Y-77470000D02*
X155575000Y-77470000D01*
X155575000Y-77470000D02*
X152400000Y-77470000D01*
X170180000Y-76835000D02*
X169545000Y-77470000D01*
X182060000Y-88265000D02*
X182880000Y-88265000D01*
X181610000Y-73660000D02*
X168910000Y-73660000D01*
X182245000Y-74295000D02*
X181610000Y-73660000D01*
X182245000Y-76200000D02*
X182245000Y-74295000D01*
X181610000Y-76835000D02*
X182245000Y-76200000D01*
X180340000Y-87630000D02*
X180340000Y-79375000D01*
X180975000Y-88265000D02*
X180340000Y-87630000D01*
X182880000Y-88265000D02*
X180975000Y-88265000D01*
X164465000Y-66675000D02*
X163830000Y-66675000D01*
X163830000Y-60960000D02*
X165100000Y-60960000D01*
X163195000Y-61595000D02*
X163830000Y-60960000D01*
X163195000Y-66040000D02*
X163195000Y-61595000D01*
X163830000Y-66675000D02*
X163195000Y-66040000D01*
X168910000Y-74930000D02*
X168910000Y-73660000D01*
X168910000Y-73660000D02*
X168910000Y-67310000D01*
X168275000Y-66675000D02*
X164465000Y-66675000D01*
X168910000Y-67310000D02*
X168275000Y-66675000D01*
X164465000Y-60960000D02*
X165100000Y-60960000D01*
X151765000Y-72390000D02*
X154940000Y-72390000D01*
X135890000Y-97790000D02*
X132080000Y-97790000D01*
X140970000Y-97790000D02*
X135890000Y-97790000D01*
X141605000Y-98425000D02*
X140970000Y-97790000D01*
X141605000Y-102235000D02*
X141605000Y-98425000D01*
X140970000Y-102870000D02*
X141605000Y-102235000D01*
X130810000Y-93980000D02*
X129540000Y-93980000D01*
X131445000Y-94615000D02*
X130810000Y-93980000D01*
X131445000Y-97155000D02*
X131445000Y-94615000D01*
X132080000Y-97790000D02*
X131445000Y-97155000D01*
X140335000Y-102870000D02*
X140970000Y-102870000D01*
X132080000Y-99060000D02*
X133350000Y-100330000D01*
X133350000Y-100330000D02*
X135890000Y-100330000D01*
X130810000Y-97790000D02*
X132080000Y-99060000D01*
X140335000Y-99695000D02*
X139065000Y-99695000D01*
X137795000Y-100330000D02*
X135890000Y-100330000D01*
X137795000Y-100330000D02*
X138430000Y-100330000D01*
X139065000Y-99695000D02*
X138430000Y-100330000D01*
X130810000Y-97790000D02*
X130810000Y-97155000D01*
X130810000Y-97155000D02*
X130175000Y-96520000D01*
X140335000Y-99695000D02*
X139700000Y-99695000D01*
X130175000Y-96520000D02*
X129540000Y-96520000D01*
X140970000Y-104140000D02*
X142240000Y-102870000D01*
X132715000Y-102870000D02*
X136525000Y-102870000D01*
X138430000Y-103505000D02*
X139065000Y-104140000D01*
X141605000Y-96520000D02*
X140335000Y-96520000D01*
X142240000Y-97155000D02*
X141605000Y-96520000D01*
X142240000Y-102870000D02*
X142240000Y-97155000D01*
X139065000Y-104140000D02*
X140970000Y-104140000D01*
X129540000Y-104140000D02*
X130810000Y-102870000D01*
X137795000Y-102870000D02*
X138430000Y-103505000D01*
X130810000Y-102870000D02*
X132715000Y-102870000D01*
X136525000Y-102870000D02*
X137795000Y-102870000D01*
X141605000Y-104775000D02*
X142875000Y-103505000D01*
X137160000Y-104140000D02*
X137795000Y-104140000D01*
X137795000Y-104140000D02*
X138430000Y-104775000D01*
X142240000Y-93345000D02*
X141605000Y-93345000D01*
X142875000Y-93980000D02*
X142240000Y-93345000D01*
X142875000Y-103505000D02*
X142875000Y-93980000D01*
X138430000Y-104775000D02*
X141605000Y-104775000D01*
X141605000Y-93345000D02*
X140335000Y-93345000D01*
X137160000Y-96520000D02*
X138430000Y-96520000D01*
X139065000Y-90805000D02*
X139700000Y-90170000D01*
X139065000Y-95885000D02*
X139065000Y-90805000D01*
X138430000Y-96520000D02*
X139065000Y-95885000D01*
X139700000Y-90170000D02*
X140335000Y-90170000D01*
X137160000Y-93980000D02*
X137795000Y-93980000D01*
X137795000Y-93980000D02*
X138430000Y-93345000D01*
X138430000Y-93345000D02*
X138430000Y-88900000D01*
X138430000Y-88900000D02*
X139065000Y-88265000D01*
X139065000Y-88265000D02*
X141605000Y-88265000D01*
X141605000Y-88265000D02*
X142240000Y-87630000D01*
X142240000Y-87630000D02*
X142240000Y-84455000D01*
X142240000Y-84455000D02*
X141605000Y-83820000D01*
X141605000Y-83820000D02*
X140335000Y-83820000D01*
X137160000Y-86360000D02*
X139700000Y-86360000D01*
X139700000Y-86360000D02*
X140335000Y-86995000D01*
X143510000Y-106680000D02*
X144780000Y-105410000D01*
X144780000Y-105410000D02*
X145415000Y-105410000D01*
X188595000Y-105410000D02*
X189230000Y-105410000D01*
X189230000Y-105410000D02*
X189865000Y-104775000D01*
X183515000Y-105410000D02*
X188595000Y-105410000D01*
X145415000Y-105410000D02*
X154305000Y-105410000D01*
X154305000Y-105410000D02*
X183515000Y-105410000D01*
X137795000Y-118110000D02*
X138430000Y-118110000D01*
X140970000Y-106680000D02*
X143510000Y-106680000D01*
X139065000Y-108585000D02*
X140970000Y-106680000D01*
X139065000Y-117475000D02*
X139065000Y-108585000D01*
X138430000Y-118110000D02*
X139065000Y-117475000D01*
X120015000Y-118745000D02*
X120015000Y-120015000D01*
X120015000Y-123190000D02*
X118745000Y-124460000D01*
X118745000Y-124460000D02*
X114300000Y-124460000D01*
X132080000Y-118110000D02*
X137795000Y-118110000D01*
X120650000Y-118110000D02*
X123825000Y-118110000D01*
X120015000Y-118745000D02*
X120650000Y-118110000D01*
X132080000Y-118110000D02*
X123825000Y-118110000D01*
X120015000Y-121920000D02*
X120015000Y-123190000D01*
X137795000Y-108585000D02*
X136525000Y-109855000D01*
X142240000Y-105410000D02*
X143510000Y-104140000D01*
X143510000Y-104140000D02*
X144145000Y-104140000D01*
X138430000Y-107315000D02*
X138430000Y-107950000D01*
X138430000Y-107950000D02*
X137795000Y-108585000D01*
X141605000Y-105410000D02*
X142240000Y-105410000D01*
X139700000Y-105410000D02*
X141605000Y-105410000D01*
X131445000Y-117475000D02*
X132715000Y-116205000D01*
X132715000Y-116205000D02*
X135890000Y-116205000D01*
X135890000Y-116205000D02*
X136525000Y-115570000D01*
X139065000Y-105410000D02*
X138430000Y-106045000D01*
X138430000Y-106045000D02*
X138430000Y-107315000D01*
X136525000Y-109855000D02*
X136525000Y-115570000D01*
X139700000Y-105410000D02*
X139065000Y-105410000D01*
X191585000Y-103690000D02*
X191585000Y-100965000D01*
X144145000Y-104140000D02*
X191135000Y-104140000D01*
X191135000Y-104140000D02*
X191585000Y-103690000D01*
X127635000Y-127635000D02*
X127000000Y-127000000D01*
X129540000Y-129540000D02*
X128270000Y-129540000D01*
X128270000Y-129540000D02*
X127635000Y-128905000D01*
X121920000Y-127000000D02*
X127000000Y-127000000D01*
X121920000Y-127000000D02*
X122555000Y-127000000D01*
X138430000Y-121920000D02*
X139065000Y-121920000D01*
X139700000Y-121285000D02*
X139700000Y-118745000D01*
X139065000Y-121920000D02*
X139700000Y-121285000D01*
X139700000Y-111125000D02*
X139700000Y-118745000D01*
X144145000Y-107315000D02*
X141605000Y-107315000D01*
X139700000Y-109220000D02*
X139700000Y-111125000D01*
X141605000Y-107315000D02*
X139700000Y-109220000D01*
X144145000Y-107315000D02*
X144780000Y-106680000D01*
X145415000Y-106045000D02*
X144780000Y-106680000D01*
X146050000Y-106045000D02*
X170815000Y-106045000D01*
X182880000Y-106045000D02*
X170815000Y-106045000D01*
X146050000Y-106045000D02*
X145415000Y-106045000D01*
X138430000Y-121920000D02*
X137160000Y-121920000D01*
X129540000Y-127000000D02*
X134620000Y-127000000D01*
X135890000Y-121920000D02*
X137160000Y-121920000D01*
X135255000Y-122555000D02*
X135890000Y-121920000D01*
X134620000Y-127000000D02*
X135255000Y-126365000D01*
X121920000Y-132080000D02*
X120650000Y-132080000D01*
X120650000Y-132080000D02*
X120015000Y-131445000D01*
X119380000Y-127000000D02*
X120015000Y-127635000D01*
X119380000Y-127000000D02*
X114300000Y-127000000D01*
X114300000Y-127000000D02*
X113665000Y-127000000D01*
X114300000Y-129540000D02*
X121920000Y-129540000D01*
X127635000Y-122555000D02*
X127000000Y-123190000D01*
X126365000Y-123190000D02*
X127000000Y-123190000D01*
X121920000Y-124460000D02*
X123190000Y-123190000D01*
X123190000Y-123190000D02*
X126365000Y-123190000D01*
X127635000Y-122555000D02*
X127635000Y-118745000D01*
X139700000Y-79375000D02*
X140335000Y-78740000D01*
X170815000Y-78740000D02*
X171450000Y-78105000D01*
X140335000Y-78740000D02*
X170815000Y-78740000D01*
X113665000Y-106045000D02*
X113665000Y-88265000D01*
X114300000Y-86360000D02*
X114935000Y-86360000D01*
X113665000Y-86995000D02*
X114300000Y-86360000D01*
X129540000Y-86360000D02*
X114935000Y-86360000D01*
X129540000Y-86360000D02*
X135255000Y-86360000D01*
X139700000Y-81280000D02*
X139700000Y-79375000D01*
X139065000Y-81915000D02*
X139700000Y-81280000D01*
X136525000Y-81915000D02*
X139065000Y-81915000D01*
X135890000Y-82550000D02*
X136525000Y-81915000D01*
X135890000Y-85725000D02*
X135890000Y-82550000D01*
X135255000Y-86360000D02*
X135890000Y-85725000D01*
X171450000Y-78105000D02*
X174625000Y-78105000D01*
X191770000Y-76200000D02*
X191770000Y-77470000D01*
X191135000Y-78105000D02*
X189865000Y-78105000D01*
X191770000Y-77470000D02*
X191135000Y-78105000D01*
X191770000Y-76200000D02*
X191770000Y-72390000D01*
X189865000Y-78105000D02*
X180975000Y-78105000D01*
X174625000Y-78105000D02*
X180975000Y-78105000D01*
X170815000Y-77470000D02*
X170180000Y-78105000D01*
X139700000Y-78105000D02*
X139065000Y-78740000D01*
X170180000Y-78105000D02*
X139700000Y-78105000D01*
X113030000Y-88900000D02*
X113030000Y-105410000D01*
X113030000Y-86360000D02*
X113030000Y-82550000D01*
X127000000Y-81280000D02*
X114300000Y-81280000D01*
X174625000Y-77470000D02*
X179705000Y-77470000D01*
X179705000Y-77470000D02*
X180340000Y-76835000D01*
X170815000Y-77470000D02*
X174625000Y-77470000D01*
X139065000Y-78740000D02*
X139065000Y-80645000D01*
X139065000Y-80645000D02*
X138430000Y-81280000D01*
X138430000Y-81280000D02*
X127000000Y-81280000D01*
X114300000Y-81280000D02*
X113030000Y-82550000D01*
M02*
