G04 #@! TF.FileFunction,Copper,L1,Top,Signal*
%FSLAX46Y46*%
G04 Gerber Fmt 4.6, Leading zero omitted, Abs format (unit mm)*
G04 Created by KiCad (PCBNEW 4.0.7) date 12/19/19 18:47:52*
%MOMM*%
%LPD*%
G01*
G04 APERTURE LIST*
%ADD10C,0.100000*%
%ADD11R,1.600000X1.600000*%
%ADD12O,1.600000X1.600000*%
%ADD13R,1.700000X1.700000*%
%ADD14O,1.700000X1.700000*%
%ADD15C,5.000000*%
%ADD16C,1.600000*%
%ADD17R,1.800000X1.800000*%
%ADD18C,1.800000*%
%ADD19C,1.520000*%
%ADD20R,1.520000X1.520000*%
%ADD21C,1.524000*%
%ADD22C,0.600000*%
%ADD23C,0.250000*%
G04 APERTURE END LIST*
D10*
D11*
X117475000Y-76835000D03*
D12*
X125095000Y-99695000D03*
X117475000Y-79375000D03*
X125095000Y-97155000D03*
X117475000Y-81915000D03*
X125095000Y-94615000D03*
X117475000Y-84455000D03*
X125095000Y-92075000D03*
X117475000Y-86995000D03*
X125095000Y-89535000D03*
X117475000Y-89535000D03*
X125095000Y-86995000D03*
X117475000Y-92075000D03*
X125095000Y-84455000D03*
X117475000Y-94615000D03*
X125095000Y-81915000D03*
X117475000Y-97155000D03*
X125095000Y-79375000D03*
X117475000Y-99695000D03*
X125095000Y-76835000D03*
D13*
X107315000Y-132080000D03*
D14*
X104775000Y-132080000D03*
X107315000Y-129540000D03*
X104775000Y-129540000D03*
X107315000Y-127000000D03*
X104775000Y-127000000D03*
X107315000Y-124460000D03*
X104775000Y-124460000D03*
X107315000Y-121920000D03*
X104775000Y-121920000D03*
X107315000Y-119380000D03*
X104775000Y-119380000D03*
X107315000Y-116840000D03*
X104775000Y-116840000D03*
X107315000Y-114300000D03*
X104775000Y-114300000D03*
X107315000Y-111760000D03*
X104775000Y-111760000D03*
X107315000Y-109220000D03*
X104775000Y-109220000D03*
X107315000Y-106680000D03*
X104775000Y-106680000D03*
X107315000Y-104140000D03*
X104775000Y-104140000D03*
X107315000Y-101600000D03*
X104775000Y-101600000D03*
X107315000Y-99060000D03*
X104775000Y-99060000D03*
X107315000Y-96520000D03*
X104775000Y-96520000D03*
X107315000Y-93980000D03*
X104775000Y-93980000D03*
X107315000Y-91440000D03*
X104775000Y-91440000D03*
X107315000Y-88900000D03*
X104775000Y-88900000D03*
X107315000Y-86360000D03*
X104775000Y-86360000D03*
X107315000Y-83820000D03*
X104775000Y-83820000D03*
D15*
X195580000Y-74930000D03*
X104140000Y-74930000D03*
D16*
X139065000Y-73025000D03*
X134065000Y-73025000D03*
X123825000Y-73025000D03*
X118825000Y-73025000D03*
X180975000Y-60325000D03*
D12*
X180975000Y-70485000D03*
D16*
X177165000Y-60325000D03*
D12*
X177165000Y-70485000D03*
D16*
X173355000Y-60325000D03*
D12*
X173355000Y-70485000D03*
D16*
X169545000Y-60325000D03*
D12*
X169545000Y-70485000D03*
D16*
X165735000Y-60325000D03*
D12*
X165735000Y-70485000D03*
D16*
X161925000Y-60325000D03*
D12*
X161925000Y-70485000D03*
D16*
X158115000Y-60325000D03*
D12*
X158115000Y-70485000D03*
D16*
X154305000Y-60325000D03*
D12*
X154305000Y-70485000D03*
D11*
X132715000Y-76835000D03*
D12*
X140335000Y-99695000D03*
X132715000Y-79375000D03*
X140335000Y-97155000D03*
X132715000Y-81915000D03*
X140335000Y-94615000D03*
X132715000Y-84455000D03*
X140335000Y-92075000D03*
X132715000Y-86995000D03*
X140335000Y-89535000D03*
X132715000Y-89535000D03*
X140335000Y-86995000D03*
X132715000Y-92075000D03*
X140335000Y-84455000D03*
X132715000Y-94615000D03*
X140335000Y-81915000D03*
X132715000Y-97155000D03*
X140335000Y-79375000D03*
X132715000Y-99695000D03*
X140335000Y-76835000D03*
D17*
X180975000Y-50800000D03*
D18*
X180975000Y-53340000D03*
D17*
X163195000Y-50800000D03*
D18*
X163195000Y-53340000D03*
D17*
X154305000Y-50800000D03*
D18*
X154305000Y-53340000D03*
D17*
X145415000Y-50800000D03*
D18*
X145415000Y-53340000D03*
D17*
X136525000Y-50800000D03*
D18*
X136525000Y-53340000D03*
D17*
X127635000Y-50800000D03*
D18*
X127635000Y-53340000D03*
D17*
X118745000Y-50800000D03*
D18*
X118745000Y-53340000D03*
D17*
X172085000Y-50800000D03*
D18*
X172085000Y-53340000D03*
D16*
X128905000Y-88265000D03*
D12*
X128905000Y-78105000D03*
D16*
X115570000Y-62865000D03*
X115570000Y-67865000D03*
D13*
X128905000Y-97155000D03*
D14*
X128905000Y-99695000D03*
D11*
X120015000Y-69215000D03*
D12*
X137795000Y-61595000D03*
X122555000Y-69215000D03*
X135255000Y-61595000D03*
X125095000Y-69215000D03*
X132715000Y-61595000D03*
X127635000Y-69215000D03*
X130175000Y-61595000D03*
X130175000Y-69215000D03*
X127635000Y-61595000D03*
X132715000Y-69215000D03*
X125095000Y-61595000D03*
X135255000Y-69215000D03*
X122555000Y-61595000D03*
X137795000Y-69215000D03*
X120015000Y-61595000D03*
D13*
X113030000Y-79375000D03*
D14*
X113030000Y-81915000D03*
X113030000Y-84455000D03*
X113030000Y-86995000D03*
X113030000Y-89535000D03*
X113030000Y-92075000D03*
X113030000Y-94615000D03*
X113030000Y-97155000D03*
X113030000Y-99695000D03*
D13*
X142240000Y-64135000D03*
D14*
X142240000Y-66675000D03*
D19*
X127635000Y-104775000D03*
X125095000Y-104775000D03*
D20*
X130175000Y-104775000D03*
D21*
X130730000Y-125857000D03*
X120730000Y-125730000D03*
X118230000Y-125730000D03*
X133230000Y-125857000D03*
D22*
X102235000Y-84455000D03*
X123825000Y-100965000D03*
X123825000Y-107950000D03*
X123190000Y-113030000D03*
X138430000Y-102235000D03*
X122555000Y-112395000D03*
X123190000Y-107315000D03*
X123190000Y-101600000D03*
X123190000Y-85090000D03*
X138430000Y-85090000D03*
X137795000Y-101600000D03*
X121920000Y-111760000D03*
X122555000Y-107950000D03*
X122555000Y-100965000D03*
X122555000Y-92710000D03*
X137795000Y-92710000D03*
X137160000Y-100965000D03*
X121285000Y-111125000D03*
X121920000Y-107315000D03*
X121920000Y-100330000D03*
X121920000Y-95250000D03*
X137160000Y-95250000D03*
X136525000Y-100330000D03*
X120015000Y-110490000D03*
X120650000Y-107950000D03*
X120650000Y-100330000D03*
X120650000Y-95250000D03*
X133350000Y-104140000D03*
X135890000Y-95250000D03*
X119380000Y-109855000D03*
X120015000Y-107315000D03*
X120015000Y-100965000D03*
X120015000Y-92710000D03*
X132715000Y-103505000D03*
X135255000Y-92710000D03*
X118745000Y-109220000D03*
X119380000Y-107950000D03*
X119380000Y-101600000D03*
X119380000Y-85090000D03*
X132080000Y-102870000D03*
X134620000Y-85090000D03*
X118745000Y-100965000D03*
X131445000Y-102235000D03*
X176530000Y-74295000D03*
X172720000Y-75565000D03*
X168910000Y-76835000D03*
X165100000Y-77470000D03*
X161290000Y-76200000D03*
X157480000Y-74930000D03*
X153670000Y-73660000D03*
X121920000Y-71120000D03*
X113030000Y-72390000D03*
X114300000Y-69850000D03*
X122555000Y-71755000D03*
X136525000Y-77470000D03*
X136525000Y-99060000D03*
X129540000Y-71755000D03*
X128905000Y-67945000D03*
X121285000Y-67945000D03*
X121285000Y-72390000D03*
X121285000Y-77470000D03*
X121285000Y-99060000D03*
X114935000Y-86360000D03*
X122555000Y-87630000D03*
X122555000Y-91440000D03*
X115570000Y-96520000D03*
X118745000Y-80645000D03*
X125730000Y-113665000D03*
X125095000Y-107950000D03*
D23*
X102235000Y-130175000D02*
X102870000Y-130810000D01*
X102235000Y-84455000D02*
X102235000Y-130175000D01*
X116205000Y-125730000D02*
X115570000Y-126365000D01*
X118230000Y-125730000D02*
X116205000Y-125730000D01*
X114935000Y-130810000D02*
X102870000Y-130810000D01*
X115570000Y-130175000D02*
X114935000Y-130810000D01*
X115570000Y-126365000D02*
X115570000Y-130175000D01*
X118230000Y-125730000D02*
X120730000Y-125730000D01*
X113030000Y-79375000D02*
X113030000Y-73660000D01*
X113030000Y-73660000D02*
X113665000Y-73025000D01*
X132080000Y-70485000D02*
X138430000Y-70485000D01*
X139065000Y-71120000D02*
X139065000Y-73025000D01*
X138430000Y-70485000D02*
X139065000Y-71120000D01*
X123825000Y-73025000D02*
X123825000Y-71120000D01*
X123825000Y-71120000D02*
X123190000Y-70485000D01*
X113665000Y-71120000D02*
X114300000Y-70485000D01*
X114300000Y-70485000D02*
X123190000Y-70485000D01*
X132080000Y-70485000D02*
X132715000Y-69850000D01*
X123190000Y-70485000D02*
X132080000Y-70485000D01*
X132715000Y-69850000D02*
X132715000Y-69215000D01*
X123825000Y-73025000D02*
X123825000Y-72390000D01*
X115570000Y-62865000D02*
X113665000Y-64770000D01*
X113665000Y-64770000D02*
X113665000Y-71120000D01*
X113665000Y-71120000D02*
X113665000Y-71755000D01*
X113665000Y-71755000D02*
X113665000Y-73025000D01*
X113665000Y-78740000D02*
X113030000Y-79375000D01*
X120015000Y-61595000D02*
X116840000Y-61595000D01*
X116840000Y-61595000D02*
X115570000Y-62865000D01*
X140335000Y-76835000D02*
X140335000Y-74295000D01*
X140335000Y-74295000D02*
X139065000Y-73025000D01*
X125095000Y-76835000D02*
X125095000Y-74295000D01*
X125095000Y-74295000D02*
X123825000Y-73025000D01*
X113030000Y-79375000D02*
X105410000Y-79375000D01*
X105410000Y-79375000D02*
X104775000Y-80010000D01*
X104775000Y-80010000D02*
X104775000Y-83820000D01*
X172085000Y-53340000D02*
X172085000Y-54610000D01*
X176530000Y-55245000D02*
X177165000Y-55880000D01*
X172720000Y-55245000D02*
X176530000Y-55245000D01*
X172085000Y-54610000D02*
X172720000Y-55245000D01*
X177165000Y-60325000D02*
X177165000Y-55880000D01*
X123825000Y-100965000D02*
X123825000Y-107950000D01*
X135890000Y-112395000D02*
X135890000Y-102870000D01*
X135255000Y-113030000D02*
X135890000Y-112395000D01*
X114300000Y-121920000D02*
X114300000Y-113665000D01*
X113665000Y-129540000D02*
X114300000Y-128905000D01*
X114300000Y-128905000D02*
X114300000Y-121920000D01*
X107315000Y-129540000D02*
X113665000Y-129540000D01*
X114935000Y-113030000D02*
X123190000Y-113030000D01*
X123190000Y-113030000D02*
X129540000Y-113030000D01*
X114300000Y-113665000D02*
X114935000Y-113030000D01*
X129540000Y-113030000D02*
X135255000Y-113030000D01*
X137795000Y-102235000D02*
X138430000Y-102235000D01*
X136525000Y-102235000D02*
X137795000Y-102235000D01*
X135890000Y-102870000D02*
X136525000Y-102235000D01*
X125095000Y-84455000D02*
X123825000Y-84455000D01*
X123190000Y-101600000D02*
X123190000Y-107315000D01*
X123825000Y-84455000D02*
X123190000Y-85090000D01*
X135255000Y-111760000D02*
X135255000Y-102235000D01*
X134620000Y-112395000D02*
X135255000Y-111760000D01*
X113665000Y-121920000D02*
X113665000Y-113030000D01*
X113030000Y-127000000D02*
X113665000Y-126365000D01*
X113665000Y-126365000D02*
X113665000Y-121920000D01*
X107315000Y-127000000D02*
X113030000Y-127000000D01*
X114300000Y-112395000D02*
X117475000Y-112395000D01*
X113665000Y-113030000D02*
X114300000Y-112395000D01*
X117475000Y-112395000D02*
X122555000Y-112395000D01*
X122555000Y-112395000D02*
X134620000Y-112395000D01*
X139065000Y-84455000D02*
X140335000Y-84455000D01*
X138430000Y-85090000D02*
X139065000Y-84455000D01*
X135890000Y-101600000D02*
X137795000Y-101600000D01*
X135255000Y-102235000D02*
X135890000Y-101600000D01*
X125095000Y-92075000D02*
X123190000Y-92075000D01*
X122555000Y-100965000D02*
X122555000Y-107950000D01*
X123190000Y-92075000D02*
X122555000Y-92710000D01*
X134620000Y-111125000D02*
X134620000Y-101600000D01*
X134620000Y-111125000D02*
X133985000Y-111760000D01*
X133985000Y-111760000D02*
X121920000Y-111760000D01*
X121920000Y-111760000D02*
X113665000Y-111760000D01*
X113665000Y-111760000D02*
X113030000Y-112395000D01*
X113030000Y-112395000D02*
X113030000Y-123825000D01*
X113030000Y-123825000D02*
X112395000Y-124460000D01*
X107315000Y-124460000D02*
X112395000Y-124460000D01*
X138430000Y-92075000D02*
X140335000Y-92075000D01*
X137795000Y-92710000D02*
X138430000Y-92075000D01*
X135255000Y-100965000D02*
X137160000Y-100965000D01*
X134620000Y-101600000D02*
X135255000Y-100965000D01*
X125095000Y-94615000D02*
X122555000Y-94615000D01*
X121920000Y-100330000D02*
X121920000Y-107315000D01*
X122555000Y-94615000D02*
X121920000Y-95250000D01*
X133985000Y-110490000D02*
X133985000Y-100965000D01*
X111760000Y-121920000D02*
X112395000Y-121285000D01*
X112395000Y-121285000D02*
X112395000Y-111760000D01*
X112395000Y-111760000D02*
X113030000Y-111125000D01*
X113030000Y-111125000D02*
X121285000Y-111125000D01*
X121285000Y-111125000D02*
X133350000Y-111125000D01*
X133350000Y-111125000D02*
X133985000Y-110490000D01*
X107315000Y-121920000D02*
X111760000Y-121920000D01*
X137795000Y-94615000D02*
X140335000Y-94615000D01*
X137160000Y-95250000D02*
X137795000Y-94615000D01*
X134620000Y-100330000D02*
X136525000Y-100330000D01*
X133985000Y-100965000D02*
X134620000Y-100330000D01*
X117475000Y-94615000D02*
X120015000Y-94615000D01*
X120650000Y-100330000D02*
X120650000Y-107950000D01*
X120015000Y-94615000D02*
X120650000Y-95250000D01*
X132715000Y-110490000D02*
X133350000Y-109855000D01*
X133350000Y-109855000D02*
X133350000Y-104140000D01*
X107315000Y-119380000D02*
X111125000Y-119380000D01*
X112395000Y-110490000D02*
X120015000Y-110490000D01*
X120015000Y-110490000D02*
X132080000Y-110490000D01*
X111760000Y-111125000D02*
X112395000Y-110490000D01*
X111760000Y-118745000D02*
X111760000Y-111125000D01*
X111125000Y-119380000D02*
X111760000Y-118745000D01*
X132080000Y-110490000D02*
X132715000Y-110490000D01*
X135255000Y-94615000D02*
X132715000Y-94615000D01*
X135890000Y-95250000D02*
X135255000Y-94615000D01*
X117475000Y-92075000D02*
X119380000Y-92075000D01*
X120015000Y-100965000D02*
X120015000Y-107315000D01*
X119380000Y-92075000D02*
X120015000Y-92710000D01*
X132080000Y-109855000D02*
X132715000Y-109220000D01*
X132715000Y-109220000D02*
X132715000Y-103505000D01*
X107315000Y-116840000D02*
X110490000Y-116840000D01*
X111125000Y-116205000D02*
X110490000Y-116840000D01*
X111125000Y-110490000D02*
X111125000Y-116205000D01*
X111760000Y-109855000D02*
X111125000Y-110490000D01*
X131445000Y-109855000D02*
X119380000Y-109855000D01*
X119380000Y-109855000D02*
X111760000Y-109855000D01*
X131445000Y-109855000D02*
X132080000Y-109855000D01*
X134620000Y-92075000D02*
X132715000Y-92075000D01*
X135255000Y-92710000D02*
X134620000Y-92075000D01*
X117475000Y-84455000D02*
X118745000Y-84455000D01*
X119380000Y-101600000D02*
X119380000Y-107950000D01*
X118745000Y-84455000D02*
X119380000Y-85090000D01*
X131445000Y-109220000D02*
X132080000Y-108585000D01*
X132080000Y-108585000D02*
X132080000Y-102870000D01*
X107315000Y-114300000D02*
X109855000Y-114300000D01*
X110490000Y-113665000D02*
X109855000Y-114300000D01*
X110490000Y-109855000D02*
X110490000Y-113665000D01*
X111125000Y-109220000D02*
X110490000Y-109855000D01*
X130810000Y-109220000D02*
X118745000Y-109220000D01*
X118745000Y-109220000D02*
X111125000Y-109220000D01*
X130810000Y-109220000D02*
X131445000Y-109220000D01*
X133985000Y-84455000D02*
X132715000Y-84455000D01*
X134620000Y-85090000D02*
X133985000Y-84455000D01*
X118745000Y-100965000D02*
X118745000Y-107950000D01*
X118745000Y-107950000D02*
X118110000Y-108585000D01*
X130175000Y-108585000D02*
X130810000Y-108585000D01*
X115570000Y-108585000D02*
X118110000Y-108585000D01*
X118110000Y-108585000D02*
X130175000Y-108585000D01*
X110490000Y-108585000D02*
X115570000Y-108585000D01*
X109855000Y-109220000D02*
X110490000Y-108585000D01*
X109855000Y-111125000D02*
X109855000Y-109220000D01*
X109220000Y-111760000D02*
X109855000Y-111125000D01*
X107315000Y-111760000D02*
X109220000Y-111760000D01*
X131445000Y-107950000D02*
X131445000Y-102235000D01*
X130810000Y-108585000D02*
X131445000Y-107950000D01*
X143510000Y-74295000D02*
X176530000Y-74295000D01*
X137795000Y-86995000D02*
X139065000Y-85725000D01*
X139065000Y-85725000D02*
X142240000Y-85725000D01*
X142240000Y-85725000D02*
X142875000Y-85090000D01*
X142875000Y-85090000D02*
X142875000Y-74930000D01*
X132715000Y-86995000D02*
X137795000Y-86995000D01*
X142875000Y-74930000D02*
X143510000Y-74295000D01*
X144145000Y-83820000D02*
X144145000Y-76200000D01*
X137795000Y-89535000D02*
X139065000Y-88265000D01*
X139065000Y-88265000D02*
X143510000Y-88265000D01*
X143510000Y-88265000D02*
X144145000Y-87630000D01*
X144145000Y-87630000D02*
X144145000Y-83820000D01*
X132715000Y-89535000D02*
X137795000Y-89535000D01*
X144780000Y-75565000D02*
X172720000Y-75565000D01*
X144145000Y-76200000D02*
X144780000Y-75565000D01*
X145415000Y-77470000D02*
X146050000Y-76835000D01*
X144780000Y-95885000D02*
X145415000Y-95250000D01*
X145415000Y-95250000D02*
X145415000Y-77470000D01*
X132715000Y-97155000D02*
X137795000Y-97155000D01*
X139065000Y-95885000D02*
X141605000Y-95885000D01*
X137795000Y-97155000D02*
X139065000Y-95885000D01*
X141605000Y-95885000D02*
X144780000Y-95885000D01*
X146050000Y-76835000D02*
X168910000Y-76835000D01*
X146050000Y-78105000D02*
X146685000Y-77470000D01*
X145415000Y-97155000D02*
X146050000Y-96520000D01*
X146050000Y-96520000D02*
X146050000Y-78105000D01*
X140335000Y-97155000D02*
X145415000Y-97155000D01*
X146685000Y-77470000D02*
X165100000Y-77470000D01*
X144780000Y-83820000D02*
X144780000Y-76835000D01*
X144145000Y-89535000D02*
X144780000Y-88900000D01*
X144780000Y-88900000D02*
X144780000Y-83820000D01*
X140335000Y-89535000D02*
X144145000Y-89535000D01*
X145415000Y-76200000D02*
X161290000Y-76200000D01*
X144780000Y-76835000D02*
X145415000Y-76200000D01*
X143510000Y-78740000D02*
X143510000Y-75565000D01*
X142875000Y-86995000D02*
X143510000Y-86360000D01*
X143510000Y-86360000D02*
X143510000Y-78740000D01*
X140335000Y-86995000D02*
X142875000Y-86995000D01*
X144145000Y-74930000D02*
X157480000Y-74930000D01*
X143510000Y-75565000D02*
X144145000Y-74930000D01*
X142875000Y-73660000D02*
X153670000Y-73660000D01*
X140335000Y-79375000D02*
X141605000Y-79375000D01*
X142240000Y-78740000D02*
X142240000Y-74295000D01*
X141605000Y-79375000D02*
X142240000Y-78740000D01*
X142875000Y-73660000D02*
X142240000Y-74295000D01*
X180975000Y-60325000D02*
X180975000Y-53340000D01*
X163195000Y-54610000D02*
X163195000Y-55429998D01*
X172720000Y-55880000D02*
X173355000Y-56515000D01*
X163645002Y-55880000D02*
X172720000Y-55880000D01*
X163195000Y-55429998D02*
X163645002Y-55880000D01*
X173355000Y-60325000D02*
X173355000Y-56515000D01*
X163195000Y-54610000D02*
X163195000Y-53340000D01*
X154305000Y-55245000D02*
X154305000Y-55880000D01*
X168910000Y-56515000D02*
X169545000Y-57150000D01*
X154940000Y-56515000D02*
X168910000Y-56515000D01*
X154305000Y-55880000D02*
X154940000Y-56515000D01*
X169545000Y-60325000D02*
X169545000Y-57150000D01*
X154305000Y-55245000D02*
X154305000Y-53340000D01*
X145415000Y-55880000D02*
X145415000Y-56515000D01*
X165100000Y-57150000D02*
X165735000Y-57785000D01*
X146050000Y-57150000D02*
X165100000Y-57150000D01*
X145415000Y-56515000D02*
X146050000Y-57150000D01*
X165735000Y-60325000D02*
X165735000Y-57785000D01*
X145415000Y-55880000D02*
X145415000Y-53340000D01*
X136525000Y-56515000D02*
X136525000Y-57150000D01*
X161290000Y-57785000D02*
X161925000Y-58420000D01*
X137160000Y-57785000D02*
X161290000Y-57785000D01*
X136525000Y-57150000D02*
X137160000Y-57785000D01*
X161925000Y-60325000D02*
X161925000Y-58420000D01*
X136525000Y-56515000D02*
X136525000Y-53340000D01*
X127635000Y-57150000D02*
X127635000Y-57785000D01*
X157480000Y-58420000D02*
X158115000Y-59055000D01*
X128270000Y-58420000D02*
X157480000Y-58420000D01*
X127635000Y-57785000D02*
X128270000Y-58420000D01*
X158115000Y-60325000D02*
X158115000Y-59055000D01*
X127635000Y-57150000D02*
X127635000Y-53340000D01*
X154305000Y-60325000D02*
X154305000Y-59690000D01*
X154305000Y-59690000D02*
X153670000Y-59055000D01*
X153670000Y-59055000D02*
X119380000Y-59055000D01*
X119380000Y-59055000D02*
X118745000Y-58420000D01*
X118745000Y-58420000D02*
X118745000Y-53340000D01*
X114935000Y-72390000D02*
X114935000Y-71755000D01*
X107315000Y-91440000D02*
X109220000Y-91440000D01*
X114300000Y-80645000D02*
X114935000Y-80010000D01*
X110490000Y-80645000D02*
X114300000Y-80645000D01*
X109855000Y-81280000D02*
X110490000Y-80645000D01*
X109855000Y-90805000D02*
X109855000Y-81280000D01*
X109220000Y-91440000D02*
X109855000Y-90805000D01*
X114935000Y-80010000D02*
X114935000Y-72390000D01*
X115570000Y-71120000D02*
X121920000Y-71120000D01*
X114935000Y-71755000D02*
X115570000Y-71120000D01*
X102870000Y-86995000D02*
X102870000Y-89535000D01*
X106045000Y-90170000D02*
X107315000Y-88900000D01*
X103505000Y-90170000D02*
X106045000Y-90170000D01*
X102870000Y-89535000D02*
X103505000Y-90170000D01*
X107315000Y-88900000D02*
X106680000Y-88900000D01*
X102870000Y-86995000D02*
X102870000Y-84455000D01*
X107950000Y-72390000D02*
X113030000Y-72390000D01*
X107315000Y-73025000D02*
X107950000Y-72390000D01*
X107315000Y-78105000D02*
X107315000Y-73025000D01*
X106680000Y-78740000D02*
X107315000Y-78105000D01*
X103505000Y-78740000D02*
X106680000Y-78740000D01*
X102870000Y-79375000D02*
X103505000Y-78740000D01*
X102870000Y-84455000D02*
X102870000Y-79375000D01*
X115570000Y-69215000D02*
X114935000Y-69215000D01*
X114935000Y-69215000D02*
X114300000Y-69850000D01*
X115570000Y-69215000D02*
X120015000Y-69215000D01*
X142240000Y-73025000D02*
X180340000Y-73025000D01*
X141605000Y-73660000D02*
X142240000Y-73025000D01*
X140970000Y-78105000D02*
X141605000Y-77470000D01*
X141605000Y-77470000D02*
X141605000Y-74295000D01*
X133350000Y-79375000D02*
X134620000Y-78105000D01*
X134620000Y-78105000D02*
X140970000Y-78105000D01*
X141605000Y-74295000D02*
X141605000Y-73660000D01*
X180975000Y-72390000D02*
X180975000Y-70485000D01*
X180340000Y-73025000D02*
X180975000Y-72390000D01*
X132715000Y-79375000D02*
X133350000Y-79375000D01*
X118745000Y-78105000D02*
X127635000Y-78105000D01*
X117475000Y-79375000D02*
X118745000Y-78105000D01*
X127635000Y-78105000D02*
X128905000Y-78105000D01*
X130810000Y-78740000D02*
X130175000Y-78105000D01*
X130175000Y-78105000D02*
X128905000Y-78105000D01*
X128905000Y-97155000D02*
X130175000Y-97155000D01*
X130810000Y-96520000D02*
X130810000Y-78740000D01*
X130175000Y-97155000D02*
X130810000Y-96520000D01*
X115570000Y-81280000D02*
X115570000Y-82550000D01*
X116205000Y-71755000D02*
X115570000Y-72390000D01*
X115570000Y-72390000D02*
X115570000Y-81280000D01*
X122555000Y-71755000D02*
X116840000Y-71755000D01*
X116840000Y-71755000D02*
X116205000Y-71755000D01*
X108585000Y-109220000D02*
X107315000Y-109220000D01*
X109220000Y-108585000D02*
X108585000Y-109220000D01*
X109220000Y-92710000D02*
X109220000Y-108585000D01*
X110490000Y-91440000D02*
X109220000Y-92710000D01*
X110490000Y-83820000D02*
X110490000Y-91440000D01*
X111125000Y-83185000D02*
X110490000Y-83820000D01*
X114935000Y-83185000D02*
X111125000Y-83185000D01*
X115570000Y-82550000D02*
X114935000Y-83185000D01*
X128270000Y-67310000D02*
X128905000Y-67945000D01*
X127635000Y-61595000D02*
X127635000Y-62865000D01*
X128270000Y-63500000D02*
X128270000Y-67310000D01*
X127635000Y-62865000D02*
X128270000Y-63500000D01*
X140335000Y-99695000D02*
X137160000Y-99695000D01*
X135890000Y-71755000D02*
X132080000Y-71755000D01*
X136525000Y-72390000D02*
X135890000Y-71755000D01*
X136525000Y-77470000D02*
X136525000Y-72390000D01*
X137160000Y-99695000D02*
X136525000Y-99060000D01*
X132080000Y-71755000D02*
X129540000Y-71755000D01*
X123825000Y-62865000D02*
X124460000Y-62865000D01*
X124460000Y-62865000D02*
X125095000Y-62230000D01*
X125095000Y-62230000D02*
X125095000Y-61595000D01*
X125095000Y-99695000D02*
X121920000Y-99695000D01*
X121920000Y-62865000D02*
X123825000Y-62865000D01*
X121285000Y-63500000D02*
X121920000Y-62865000D01*
X121285000Y-67945000D02*
X121285000Y-63500000D01*
X121285000Y-77470000D02*
X121285000Y-72390000D01*
X121920000Y-99695000D02*
X121285000Y-99060000D01*
X115570000Y-86995000D02*
X114935000Y-86360000D01*
X117475000Y-86995000D02*
X115570000Y-86995000D01*
X117475000Y-89535000D02*
X114935000Y-89535000D01*
X114300000Y-85090000D02*
X113665000Y-84455000D01*
X114300000Y-88900000D02*
X114300000Y-85090000D01*
X114935000Y-89535000D02*
X114300000Y-88900000D01*
X113665000Y-84455000D02*
X113030000Y-84455000D01*
X111760000Y-98425000D02*
X111125000Y-97790000D01*
X111125000Y-87630000D02*
X111760000Y-86995000D01*
X111125000Y-97790000D02*
X111125000Y-87630000D01*
X117475000Y-97155000D02*
X116205000Y-98425000D01*
X111760000Y-86995000D02*
X113030000Y-86995000D01*
X116205000Y-98425000D02*
X111760000Y-98425000D01*
X113030000Y-89535000D02*
X112395000Y-89535000D01*
X112395000Y-89535000D02*
X111760000Y-90170000D01*
X111760000Y-95250000D02*
X112395000Y-95885000D01*
X111760000Y-90170000D02*
X111760000Y-95250000D01*
X115570000Y-95885000D02*
X123825000Y-95885000D01*
X112395000Y-95885000D02*
X115570000Y-95885000D01*
X123825000Y-95885000D02*
X125095000Y-97155000D01*
X113030000Y-92075000D02*
X114300000Y-90805000D01*
X123825000Y-90805000D02*
X125095000Y-89535000D01*
X114300000Y-90805000D02*
X123825000Y-90805000D01*
X113030000Y-94615000D02*
X114300000Y-93345000D01*
X123190000Y-86995000D02*
X125095000Y-86995000D01*
X122555000Y-87630000D02*
X123190000Y-86995000D01*
X121920000Y-92075000D02*
X122555000Y-91440000D01*
X121920000Y-92710000D02*
X121920000Y-92075000D01*
X121285000Y-93345000D02*
X121920000Y-92710000D01*
X114300000Y-93345000D02*
X121285000Y-93345000D01*
X125095000Y-79375000D02*
X123825000Y-80645000D01*
X114935000Y-97155000D02*
X113030000Y-97155000D01*
X115570000Y-96520000D02*
X114935000Y-97155000D01*
X123825000Y-80645000D02*
X118745000Y-80645000D01*
X137795000Y-61595000D02*
X137795000Y-63500000D01*
X138430000Y-64135000D02*
X142240000Y-64135000D01*
X137795000Y-63500000D02*
X138430000Y-64135000D01*
X142240000Y-66675000D02*
X135890000Y-66675000D01*
X135255000Y-66040000D02*
X135255000Y-61595000D01*
X135890000Y-66675000D02*
X135255000Y-66040000D01*
X125095000Y-104775000D02*
X125095000Y-107950000D01*
X126365000Y-125730000D02*
X130603000Y-125730000D01*
X125730000Y-125095000D02*
X126365000Y-125730000D01*
X125730000Y-113665000D02*
X125730000Y-125095000D01*
X130603000Y-125730000D02*
X130730000Y-125857000D01*
X130730000Y-125857000D02*
X133230000Y-125857000D01*
X127635000Y-104775000D02*
X127635000Y-89535000D01*
X127635000Y-89535000D02*
X128905000Y-88265000D01*
M02*
