G04 #@! TF.FileFunction,Copper,L2,Bot,Signal*
%FSLAX46Y46*%
G04 Gerber Fmt 4.6, Leading zero omitted, Abs format (unit mm)*
G04 Created by KiCad (PCBNEW 4.0.7) date 11/16/19 02:17:40*
%MOMM*%
%LPD*%
G01*
G04 APERTURE LIST*
%ADD10C,0.100000*%
%ADD11R,1.700000X1.700000*%
%ADD12O,1.700000X1.700000*%
%ADD13C,5.000000*%
%ADD14C,1.600000*%
%ADD15O,1.600000X1.600000*%
%ADD16R,1.600000X1.600000*%
%ADD17R,1.800000X1.800000*%
%ADD18C,1.800000*%
%ADD19C,1.524000*%
%ADD20C,0.600000*%
%ADD21C,0.250000*%
%ADD22C,0.254000*%
G04 APERTURE END LIST*
D10*
D11*
X107315000Y-132080000D03*
D12*
X104775000Y-132080000D03*
X107315000Y-129540000D03*
X104775000Y-129540000D03*
X107315000Y-127000000D03*
X104775000Y-127000000D03*
X107315000Y-124460000D03*
X104775000Y-124460000D03*
X107315000Y-121920000D03*
X104775000Y-121920000D03*
X107315000Y-119380000D03*
X104775000Y-119380000D03*
X107315000Y-116840000D03*
X104775000Y-116840000D03*
X107315000Y-114300000D03*
X104775000Y-114300000D03*
X107315000Y-111760000D03*
X104775000Y-111760000D03*
X107315000Y-109220000D03*
X104775000Y-109220000D03*
X107315000Y-106680000D03*
X104775000Y-106680000D03*
X107315000Y-104140000D03*
X104775000Y-104140000D03*
X107315000Y-101600000D03*
X104775000Y-101600000D03*
X107315000Y-99060000D03*
X104775000Y-99060000D03*
X107315000Y-96520000D03*
X104775000Y-96520000D03*
X107315000Y-93980000D03*
X104775000Y-93980000D03*
X107315000Y-91440000D03*
X104775000Y-91440000D03*
X107315000Y-88900000D03*
X104775000Y-88900000D03*
X107315000Y-86360000D03*
X104775000Y-86360000D03*
X107315000Y-83820000D03*
X104775000Y-83820000D03*
D13*
X195580000Y-74930000D03*
X104140000Y-74930000D03*
D14*
X135890000Y-80010000D03*
X130890000Y-80010000D03*
X120650000Y-80010000D03*
X115650000Y-80010000D03*
X150495000Y-83820000D03*
D15*
X140335000Y-83820000D03*
D14*
X150495000Y-90170000D03*
D15*
X140335000Y-90170000D03*
D14*
X150495000Y-100330000D03*
D15*
X140335000Y-100330000D03*
D14*
X150495000Y-103505000D03*
D15*
X140335000Y-103505000D03*
D14*
X150495000Y-106680000D03*
D15*
X140335000Y-106680000D03*
D14*
X150495000Y-97155000D03*
D15*
X140335000Y-97155000D03*
D14*
X150495000Y-93345000D03*
D15*
X140335000Y-93345000D03*
D14*
X150495000Y-86995000D03*
D15*
X140335000Y-86995000D03*
D16*
X129540000Y-83820000D03*
D15*
X137160000Y-106680000D03*
X129540000Y-86360000D03*
X137160000Y-104140000D03*
X129540000Y-88900000D03*
X137160000Y-101600000D03*
X129540000Y-91440000D03*
X137160000Y-99060000D03*
X129540000Y-93980000D03*
X137160000Y-96520000D03*
X129540000Y-96520000D03*
X137160000Y-93980000D03*
X129540000Y-99060000D03*
X137160000Y-91440000D03*
X129540000Y-101600000D03*
X137160000Y-88900000D03*
X129540000Y-104140000D03*
X137160000Y-86360000D03*
X129540000Y-106680000D03*
X137160000Y-83820000D03*
D17*
X179705000Y-70485000D03*
D18*
X182245000Y-70485000D03*
D17*
X161925000Y-70485000D03*
D18*
X164465000Y-70485000D03*
D17*
X153035000Y-70485000D03*
D18*
X155575000Y-70485000D03*
D17*
X144145000Y-70485000D03*
D18*
X146685000Y-70485000D03*
D17*
X135255000Y-70485000D03*
D18*
X137795000Y-70485000D03*
D17*
X126365000Y-70485000D03*
D18*
X128905000Y-70485000D03*
D17*
X117475000Y-70485000D03*
D18*
X120015000Y-70485000D03*
D19*
X130730000Y-125857000D03*
X120730000Y-125730000D03*
X118230000Y-125730000D03*
X133230000Y-125730000D03*
D16*
X114300000Y-83820000D03*
D15*
X121920000Y-106680000D03*
X114300000Y-86360000D03*
X121920000Y-104140000D03*
X114300000Y-88900000D03*
X121920000Y-101600000D03*
X114300000Y-91440000D03*
X121920000Y-99060000D03*
X114300000Y-93980000D03*
X121920000Y-96520000D03*
X114300000Y-96520000D03*
X121920000Y-93980000D03*
X114300000Y-99060000D03*
X121920000Y-91440000D03*
X114300000Y-101600000D03*
X121920000Y-88900000D03*
X114300000Y-104140000D03*
X121920000Y-86360000D03*
X114300000Y-106680000D03*
X121920000Y-83820000D03*
D17*
X170815000Y-70485000D03*
D18*
X173355000Y-70485000D03*
D14*
X125730000Y-96520000D03*
D15*
X125730000Y-86360000D03*
D20*
X145415000Y-89535000D03*
X145415000Y-85090000D03*
X135890000Y-105410000D03*
X135255000Y-92075000D03*
X135255000Y-103505000D03*
X134620000Y-104140000D03*
X134620000Y-100965000D03*
X133985000Y-102235000D03*
X133985000Y-103505000D03*
X132715000Y-102235000D03*
X132715000Y-103505000D03*
X132080000Y-104140000D03*
X132080000Y-99695000D03*
X131445000Y-104775000D03*
X131445000Y-92075000D03*
X130810000Y-105410000D03*
X144780000Y-99695000D03*
X144780000Y-85725000D03*
X144145000Y-102870000D03*
X144145000Y-85090000D03*
X143510000Y-85725000D03*
X143510000Y-106045000D03*
X142875000Y-96520000D03*
X142875000Y-85090000D03*
X142240000Y-92710000D03*
X142240000Y-85725000D03*
X133350000Y-92075000D03*
X125730000Y-107950000D03*
X125730000Y-113665000D03*
D21*
X137160000Y-83820000D02*
X137160000Y-81280000D01*
X137160000Y-81280000D02*
X135890000Y-80010000D01*
X121920000Y-83820000D02*
X121920000Y-81280000D01*
X121920000Y-81280000D02*
X120650000Y-80010000D01*
X145415000Y-85090000D02*
X145415000Y-89535000D01*
X135890000Y-89535000D02*
X136525000Y-88900000D01*
X135890000Y-105410000D02*
X135890000Y-89535000D01*
X136525000Y-88900000D02*
X137160000Y-88900000D01*
X135255000Y-103505000D02*
X135255000Y-92075000D01*
X134620000Y-100965000D02*
X134620000Y-104140000D01*
X133985000Y-103505000D02*
X133985000Y-102235000D01*
X132715000Y-103505000D02*
X132715000Y-102235000D01*
X132080000Y-99695000D02*
X132080000Y-104140000D01*
X131445000Y-92075000D02*
X131445000Y-104775000D01*
X130810000Y-89535000D02*
X130175000Y-88900000D01*
X130810000Y-105410000D02*
X130810000Y-89535000D01*
X130175000Y-88900000D02*
X129540000Y-88900000D01*
X144780000Y-85725000D02*
X144780000Y-99695000D01*
X144145000Y-85090000D02*
X144145000Y-102870000D01*
X143510000Y-85725000D02*
X143510000Y-106045000D01*
X142875000Y-85090000D02*
X142875000Y-96520000D01*
X142240000Y-85725000D02*
X142240000Y-92710000D01*
X133985000Y-106680000D02*
X137160000Y-106680000D01*
X133350000Y-106045000D02*
X133985000Y-106680000D01*
X133350000Y-92075000D02*
X133350000Y-106045000D01*
X125730000Y-113665000D02*
X125730000Y-107950000D01*
D22*
G36*
X196369001Y-63237161D02*
X197576209Y-64043791D01*
X198382839Y-65251001D01*
X198680000Y-66744931D01*
X198680000Y-74223125D01*
X198239273Y-73156485D01*
X197358153Y-72273826D01*
X196206326Y-71795546D01*
X194959146Y-71794457D01*
X193806485Y-72270727D01*
X192923826Y-73151847D01*
X192445546Y-74303674D01*
X192444457Y-75550854D01*
X192920727Y-76703515D01*
X193801847Y-77586174D01*
X194870699Y-78030000D01*
X151765000Y-78030000D01*
X151493295Y-78084046D01*
X151262954Y-78237954D01*
X151109046Y-78468295D01*
X151055000Y-78740000D01*
X151055000Y-82498738D01*
X150781691Y-82385250D01*
X150210813Y-82384752D01*
X149683200Y-82602757D01*
X149279176Y-83006077D01*
X149060250Y-83533309D01*
X149059752Y-84104187D01*
X149277757Y-84631800D01*
X149681077Y-85035824D01*
X150208309Y-85254750D01*
X150779187Y-85255248D01*
X151055000Y-85141285D01*
X151055000Y-85673738D01*
X150781691Y-85560250D01*
X150210813Y-85559752D01*
X149683200Y-85777757D01*
X149279176Y-86181077D01*
X149060250Y-86708309D01*
X149059752Y-87279187D01*
X149277757Y-87806800D01*
X149681077Y-88210824D01*
X150208309Y-88429750D01*
X150779187Y-88430248D01*
X151055000Y-88316285D01*
X151055000Y-88848738D01*
X150781691Y-88735250D01*
X150210813Y-88734752D01*
X149683200Y-88952757D01*
X149279176Y-89356077D01*
X149060250Y-89883309D01*
X149059752Y-90454187D01*
X149277757Y-90981800D01*
X149681077Y-91385824D01*
X150208309Y-91604750D01*
X150779187Y-91605248D01*
X151055000Y-91491285D01*
X151055000Y-92023738D01*
X150781691Y-91910250D01*
X150210813Y-91909752D01*
X149683200Y-92127757D01*
X149279176Y-92531077D01*
X149060250Y-93058309D01*
X149059752Y-93629187D01*
X149277757Y-94156800D01*
X149681077Y-94560824D01*
X150208309Y-94779750D01*
X150779187Y-94780248D01*
X151055000Y-94666285D01*
X151055000Y-95833738D01*
X150781691Y-95720250D01*
X150210813Y-95719752D01*
X149683200Y-95937757D01*
X149279176Y-96341077D01*
X149060250Y-96868309D01*
X149059752Y-97439187D01*
X149277757Y-97966800D01*
X149681077Y-98370824D01*
X150208309Y-98589750D01*
X150779187Y-98590248D01*
X151055000Y-98476285D01*
X151055000Y-99008738D01*
X150781691Y-98895250D01*
X150210813Y-98894752D01*
X149683200Y-99112757D01*
X149279176Y-99516077D01*
X149060250Y-100043309D01*
X149059752Y-100614187D01*
X149277757Y-101141800D01*
X149681077Y-101545824D01*
X150208309Y-101764750D01*
X150779187Y-101765248D01*
X151055000Y-101651285D01*
X151055000Y-102183738D01*
X150781691Y-102070250D01*
X150210813Y-102069752D01*
X149683200Y-102287757D01*
X149279176Y-102691077D01*
X149060250Y-103218309D01*
X149059752Y-103789187D01*
X149277757Y-104316800D01*
X149681077Y-104720824D01*
X150208309Y-104939750D01*
X150779187Y-104940248D01*
X151055000Y-104826285D01*
X151055000Y-105358738D01*
X150781691Y-105245250D01*
X150210813Y-105244752D01*
X149683200Y-105462757D01*
X149279176Y-105866077D01*
X149060250Y-106393309D01*
X149059752Y-106964187D01*
X149277757Y-107491800D01*
X149660289Y-107875000D01*
X141107970Y-107875000D01*
X141377811Y-107694698D01*
X141688880Y-107229151D01*
X141798113Y-106680000D01*
X141688880Y-106130849D01*
X141377811Y-105665302D01*
X140912264Y-105354233D01*
X140363113Y-105245000D01*
X140306887Y-105245000D01*
X139757736Y-105354233D01*
X139292189Y-105665302D01*
X138981120Y-106130849D01*
X138871887Y-106680000D01*
X138981120Y-107229151D01*
X139292189Y-107694698D01*
X139562030Y-107875000D01*
X137932970Y-107875000D01*
X138202811Y-107694698D01*
X138513880Y-107229151D01*
X138623113Y-106680000D01*
X138513880Y-106130849D01*
X138202811Y-105665302D01*
X137820725Y-105410000D01*
X138202811Y-105154698D01*
X138513880Y-104689151D01*
X138623113Y-104140000D01*
X138513880Y-103590849D01*
X138456518Y-103505000D01*
X138871887Y-103505000D01*
X138981120Y-104054151D01*
X139292189Y-104519698D01*
X139757736Y-104830767D01*
X140306887Y-104940000D01*
X140363113Y-104940000D01*
X140912264Y-104830767D01*
X141377811Y-104519698D01*
X141688880Y-104054151D01*
X141798113Y-103505000D01*
X141688880Y-102955849D01*
X141377811Y-102490302D01*
X140912264Y-102179233D01*
X140363113Y-102070000D01*
X140306887Y-102070000D01*
X139757736Y-102179233D01*
X139292189Y-102490302D01*
X138981120Y-102955849D01*
X138871887Y-103505000D01*
X138456518Y-103505000D01*
X138202811Y-103125302D01*
X137820725Y-102870000D01*
X138202811Y-102614698D01*
X138513880Y-102149151D01*
X138623113Y-101600000D01*
X138513880Y-101050849D01*
X138202811Y-100585302D01*
X137820725Y-100330000D01*
X138871887Y-100330000D01*
X138981120Y-100879151D01*
X139292189Y-101344698D01*
X139757736Y-101655767D01*
X140306887Y-101765000D01*
X140363113Y-101765000D01*
X140912264Y-101655767D01*
X141377811Y-101344698D01*
X141688880Y-100879151D01*
X141798113Y-100330000D01*
X141688880Y-99780849D01*
X141377811Y-99315302D01*
X140912264Y-99004233D01*
X140363113Y-98895000D01*
X140306887Y-98895000D01*
X139757736Y-99004233D01*
X139292189Y-99315302D01*
X138981120Y-99780849D01*
X138871887Y-100330000D01*
X137820725Y-100330000D01*
X138202811Y-100074698D01*
X138513880Y-99609151D01*
X138623113Y-99060000D01*
X138513880Y-98510849D01*
X138202811Y-98045302D01*
X137820725Y-97790000D01*
X138202811Y-97534698D01*
X138456517Y-97155000D01*
X138871887Y-97155000D01*
X138981120Y-97704151D01*
X139292189Y-98169698D01*
X139757736Y-98480767D01*
X140306887Y-98590000D01*
X140363113Y-98590000D01*
X140912264Y-98480767D01*
X141377811Y-98169698D01*
X141688880Y-97704151D01*
X141798113Y-97155000D01*
X141688880Y-96605849D01*
X141377811Y-96140302D01*
X140912264Y-95829233D01*
X140363113Y-95720000D01*
X140306887Y-95720000D01*
X139757736Y-95829233D01*
X139292189Y-96140302D01*
X138981120Y-96605849D01*
X138871887Y-97155000D01*
X138456517Y-97155000D01*
X138513880Y-97069151D01*
X138623113Y-96520000D01*
X138513880Y-95970849D01*
X138202811Y-95505302D01*
X137820725Y-95250000D01*
X138202811Y-94994698D01*
X138513880Y-94529151D01*
X138623113Y-93980000D01*
X138513880Y-93430849D01*
X138202811Y-92965302D01*
X137820725Y-92710000D01*
X138202811Y-92454698D01*
X138513880Y-91989151D01*
X138623113Y-91440000D01*
X138513880Y-90890849D01*
X138202811Y-90425302D01*
X137820725Y-90170000D01*
X138202811Y-89914698D01*
X138513880Y-89449151D01*
X138623113Y-88900000D01*
X138513880Y-88350849D01*
X138202811Y-87885302D01*
X137820725Y-87630000D01*
X138202811Y-87374698D01*
X138456517Y-86995000D01*
X138871887Y-86995000D01*
X138981120Y-87544151D01*
X139292189Y-88009698D01*
X139757736Y-88320767D01*
X140306887Y-88430000D01*
X140363113Y-88430000D01*
X140912264Y-88320767D01*
X141377811Y-88009698D01*
X141480000Y-87856762D01*
X141480000Y-89308238D01*
X141377811Y-89155302D01*
X140912264Y-88844233D01*
X140363113Y-88735000D01*
X140306887Y-88735000D01*
X139757736Y-88844233D01*
X139292189Y-89155302D01*
X138981120Y-89620849D01*
X138871887Y-90170000D01*
X138981120Y-90719151D01*
X139292189Y-91184698D01*
X139757736Y-91495767D01*
X140306887Y-91605000D01*
X140363113Y-91605000D01*
X140912264Y-91495767D01*
X141377811Y-91184698D01*
X141480000Y-91031762D01*
X141480000Y-92147537D01*
X141447808Y-92179673D01*
X141382406Y-92337178D01*
X141377811Y-92330302D01*
X140912264Y-92019233D01*
X140363113Y-91910000D01*
X140306887Y-91910000D01*
X139757736Y-92019233D01*
X139292189Y-92330302D01*
X138981120Y-92795849D01*
X138871887Y-93345000D01*
X138981120Y-93894151D01*
X139292189Y-94359698D01*
X139757736Y-94670767D01*
X140306887Y-94780000D01*
X140363113Y-94780000D01*
X140912264Y-94670767D01*
X141377811Y-94359698D01*
X141688880Y-93894151D01*
X141762484Y-93524121D01*
X142053201Y-93644838D01*
X142115000Y-93644892D01*
X142115000Y-95957537D01*
X142082808Y-95989673D01*
X141940162Y-96333201D01*
X141939838Y-96705167D01*
X142081883Y-97048943D01*
X142344673Y-97312192D01*
X142688201Y-97454838D01*
X142750000Y-97454892D01*
X142750000Y-105482537D01*
X142717808Y-105514673D01*
X142575162Y-105858201D01*
X142574838Y-106230167D01*
X142716883Y-106573943D01*
X142979673Y-106837192D01*
X143323201Y-106979838D01*
X143695167Y-106980162D01*
X144038943Y-106838117D01*
X144302192Y-106575327D01*
X144444838Y-106231799D01*
X144445162Y-105859833D01*
X144303117Y-105516057D01*
X144270000Y-105482882D01*
X144270000Y-103805110D01*
X144330167Y-103805162D01*
X144673943Y-103663117D01*
X144937192Y-103400327D01*
X145079838Y-103056799D01*
X145080162Y-102684833D01*
X144938117Y-102341057D01*
X144905000Y-102307882D01*
X144905000Y-100630110D01*
X144965167Y-100630162D01*
X145308943Y-100488117D01*
X145572192Y-100225327D01*
X145714838Y-99881799D01*
X145715162Y-99509833D01*
X145573117Y-99166057D01*
X145540000Y-99132882D01*
X145540000Y-90470110D01*
X145600167Y-90470162D01*
X145943943Y-90328117D01*
X146207192Y-90065327D01*
X146349838Y-89721799D01*
X146350162Y-89349833D01*
X146208117Y-89006057D01*
X146175000Y-88972882D01*
X146175000Y-85652463D01*
X146207192Y-85620327D01*
X146349838Y-85276799D01*
X146350162Y-84904833D01*
X146208117Y-84561057D01*
X145945327Y-84297808D01*
X145601799Y-84155162D01*
X145229833Y-84154838D01*
X144886057Y-84296883D01*
X144780046Y-84402710D01*
X144675327Y-84297808D01*
X144331799Y-84155162D01*
X143959833Y-84154838D01*
X143616057Y-84296883D01*
X143510046Y-84402710D01*
X143405327Y-84297808D01*
X143061799Y-84155162D01*
X142689833Y-84154838D01*
X142346057Y-84296883D01*
X142082808Y-84559673D01*
X141973235Y-84823554D01*
X141711057Y-84931883D01*
X141447808Y-85194673D01*
X141305162Y-85538201D01*
X141304838Y-85910167D01*
X141317039Y-85939695D01*
X140912264Y-85669233D01*
X140363113Y-85560000D01*
X140306887Y-85560000D01*
X139757736Y-85669233D01*
X139292189Y-85980302D01*
X138981120Y-86445849D01*
X138871887Y-86995000D01*
X138456517Y-86995000D01*
X138513880Y-86909151D01*
X138623113Y-86360000D01*
X138513880Y-85810849D01*
X138202811Y-85345302D01*
X137820725Y-85090000D01*
X138202811Y-84834698D01*
X138513880Y-84369151D01*
X138623113Y-83820000D01*
X138871887Y-83820000D01*
X138981120Y-84369151D01*
X139292189Y-84834698D01*
X139757736Y-85145767D01*
X140306887Y-85255000D01*
X140363113Y-85255000D01*
X140912264Y-85145767D01*
X141377811Y-84834698D01*
X141688880Y-84369151D01*
X141798113Y-83820000D01*
X141688880Y-83270849D01*
X141377811Y-82805302D01*
X140912264Y-82494233D01*
X140363113Y-82385000D01*
X140306887Y-82385000D01*
X139757736Y-82494233D01*
X139292189Y-82805302D01*
X138981120Y-83270849D01*
X138871887Y-83820000D01*
X138623113Y-83820000D01*
X138513880Y-83270849D01*
X138202811Y-82805302D01*
X137920000Y-82616333D01*
X137920000Y-81280000D01*
X137862148Y-80989161D01*
X137862148Y-80989160D01*
X137697401Y-80742599D01*
X137303256Y-80348454D01*
X137324750Y-80296691D01*
X137325248Y-79725813D01*
X137107243Y-79198200D01*
X136703923Y-78794176D01*
X136176691Y-78575250D01*
X135605813Y-78574752D01*
X135078200Y-78792757D01*
X134674176Y-79196077D01*
X134455250Y-79723309D01*
X134454752Y-80294187D01*
X134672757Y-80821800D01*
X135076077Y-81225824D01*
X135603309Y-81444750D01*
X136174187Y-81445248D01*
X136228149Y-81422951D01*
X136400000Y-81594802D01*
X136400000Y-82616333D01*
X136117189Y-82805302D01*
X135806120Y-83270849D01*
X135696887Y-83820000D01*
X135806120Y-84369151D01*
X136117189Y-84834698D01*
X136499275Y-85090000D01*
X136117189Y-85345302D01*
X135806120Y-85810849D01*
X135696887Y-86360000D01*
X135806120Y-86909151D01*
X136117189Y-87374698D01*
X136499275Y-87630000D01*
X136117189Y-87885302D01*
X135806120Y-88350849D01*
X135758141Y-88592057D01*
X135352599Y-88997599D01*
X135187852Y-89244161D01*
X135130000Y-89535000D01*
X135130000Y-91139890D01*
X135069833Y-91139838D01*
X134726057Y-91281883D01*
X134462808Y-91544673D01*
X134320162Y-91888201D01*
X134319838Y-92260167D01*
X134461883Y-92603943D01*
X134495000Y-92637118D01*
X134495000Y-100029890D01*
X134434833Y-100029838D01*
X134110000Y-100164056D01*
X134110000Y-92637463D01*
X134142192Y-92605327D01*
X134284838Y-92261799D01*
X134285162Y-91889833D01*
X134143117Y-91546057D01*
X133880327Y-91282808D01*
X133536799Y-91140162D01*
X133164833Y-91139838D01*
X132821057Y-91281883D01*
X132557808Y-91544673D01*
X132415162Y-91888201D01*
X132414838Y-92260167D01*
X132556883Y-92603943D01*
X132590000Y-92637118D01*
X132590000Y-98894367D01*
X132266799Y-98760162D01*
X132205000Y-98760108D01*
X132205000Y-92637463D01*
X132237192Y-92605327D01*
X132379838Y-92261799D01*
X132380162Y-91889833D01*
X132238117Y-91546057D01*
X131975327Y-91282808D01*
X131631799Y-91140162D01*
X131570000Y-91140108D01*
X131570000Y-89535000D01*
X131512148Y-89244161D01*
X131347401Y-88997599D01*
X130941859Y-88592057D01*
X130893880Y-88350849D01*
X130582811Y-87885302D01*
X130200725Y-87630000D01*
X130582811Y-87374698D01*
X130893880Y-86909151D01*
X131003113Y-86360000D01*
X130893880Y-85810849D01*
X130582811Y-85345302D01*
X130447665Y-85255000D01*
X130466309Y-85255000D01*
X130699698Y-85158327D01*
X130878327Y-84979699D01*
X130975000Y-84746310D01*
X130975000Y-84105750D01*
X130816250Y-83947000D01*
X129667000Y-83947000D01*
X129667000Y-83967000D01*
X129413000Y-83967000D01*
X129413000Y-83947000D01*
X128263750Y-83947000D01*
X128105000Y-84105750D01*
X128105000Y-84746310D01*
X128201673Y-84979699D01*
X128380302Y-85158327D01*
X128613691Y-85255000D01*
X128632335Y-85255000D01*
X128497189Y-85345302D01*
X128186120Y-85810849D01*
X128076887Y-86360000D01*
X128186120Y-86909151D01*
X128497189Y-87374698D01*
X128879275Y-87630000D01*
X128497189Y-87885302D01*
X128186120Y-88350849D01*
X128076887Y-88900000D01*
X128186120Y-89449151D01*
X128497189Y-89914698D01*
X128879275Y-90170000D01*
X128497189Y-90425302D01*
X128186120Y-90890849D01*
X128076887Y-91440000D01*
X128186120Y-91989151D01*
X128497189Y-92454698D01*
X128879275Y-92710000D01*
X128497189Y-92965302D01*
X128186120Y-93430849D01*
X128076887Y-93980000D01*
X128186120Y-94529151D01*
X128497189Y-94994698D01*
X128879275Y-95250000D01*
X128497189Y-95505302D01*
X128186120Y-95970849D01*
X128076887Y-96520000D01*
X128186120Y-97069151D01*
X128497189Y-97534698D01*
X128879275Y-97790000D01*
X128497189Y-98045302D01*
X128186120Y-98510849D01*
X128076887Y-99060000D01*
X128186120Y-99609151D01*
X128497189Y-100074698D01*
X128879275Y-100330000D01*
X128497189Y-100585302D01*
X128186120Y-101050849D01*
X128076887Y-101600000D01*
X128186120Y-102149151D01*
X128497189Y-102614698D01*
X128879275Y-102870000D01*
X128497189Y-103125302D01*
X128186120Y-103590849D01*
X128076887Y-104140000D01*
X128186120Y-104689151D01*
X128497189Y-105154698D01*
X128901703Y-105424986D01*
X128684866Y-105527611D01*
X128308959Y-105942577D01*
X128148096Y-106330961D01*
X128270085Y-106553000D01*
X129413000Y-106553000D01*
X129413000Y-106533000D01*
X129667000Y-106533000D01*
X129667000Y-106553000D01*
X130809915Y-106553000D01*
X130924136Y-106345100D01*
X130995167Y-106345162D01*
X131338943Y-106203117D01*
X131602192Y-105940327D01*
X131711765Y-105676446D01*
X131973943Y-105568117D01*
X132237192Y-105305327D01*
X132346765Y-105041446D01*
X132590000Y-104940944D01*
X132590000Y-106045000D01*
X132647852Y-106335839D01*
X132812599Y-106582401D01*
X133447599Y-107217401D01*
X133694161Y-107382148D01*
X133985000Y-107440000D01*
X135947005Y-107440000D01*
X136117189Y-107694698D01*
X136418681Y-107896148D01*
X136253295Y-107929046D01*
X136022954Y-108082954D01*
X135869046Y-108313295D01*
X135815000Y-108585000D01*
X135815000Y-114935000D01*
X135828643Y-115003586D01*
X135828643Y-115073514D01*
X135855403Y-115138119D01*
X135869046Y-115206705D01*
X135907896Y-115264849D01*
X135934657Y-115329455D01*
X139165541Y-120164817D01*
X140272526Y-125730000D01*
X139165541Y-131295183D01*
X136013119Y-136013119D01*
X131295185Y-139165541D01*
X125729998Y-140272525D01*
X120164817Y-139165541D01*
X115329455Y-135934657D01*
X115264849Y-135907896D01*
X115206705Y-135869046D01*
X115138119Y-135855403D01*
X115073514Y-135828643D01*
X115003586Y-135828643D01*
X114935000Y-135815000D01*
X104844931Y-135815000D01*
X103351001Y-135517839D01*
X102143791Y-134711209D01*
X101337161Y-133504001D01*
X101040000Y-132010069D01*
X101040000Y-83820000D01*
X103260907Y-83820000D01*
X103373946Y-84388285D01*
X103695853Y-84870054D01*
X104025026Y-85090000D01*
X103695853Y-85309946D01*
X103373946Y-85791715D01*
X103260907Y-86360000D01*
X103373946Y-86928285D01*
X103695853Y-87410054D01*
X104025026Y-87630000D01*
X103695853Y-87849946D01*
X103373946Y-88331715D01*
X103260907Y-88900000D01*
X103373946Y-89468285D01*
X103695853Y-89950054D01*
X104025026Y-90170000D01*
X103695853Y-90389946D01*
X103373946Y-90871715D01*
X103260907Y-91440000D01*
X103373946Y-92008285D01*
X103695853Y-92490054D01*
X104025026Y-92710000D01*
X103695853Y-92929946D01*
X103373946Y-93411715D01*
X103260907Y-93980000D01*
X103373946Y-94548285D01*
X103695853Y-95030054D01*
X104025026Y-95250000D01*
X103695853Y-95469946D01*
X103373946Y-95951715D01*
X103260907Y-96520000D01*
X103373946Y-97088285D01*
X103695853Y-97570054D01*
X104025026Y-97790000D01*
X103695853Y-98009946D01*
X103373946Y-98491715D01*
X103260907Y-99060000D01*
X103373946Y-99628285D01*
X103695853Y-100110054D01*
X104025026Y-100330000D01*
X103695853Y-100549946D01*
X103373946Y-101031715D01*
X103260907Y-101600000D01*
X103373946Y-102168285D01*
X103695853Y-102650054D01*
X104025026Y-102870000D01*
X103695853Y-103089946D01*
X103373946Y-103571715D01*
X103260907Y-104140000D01*
X103373946Y-104708285D01*
X103695853Y-105190054D01*
X104025026Y-105410000D01*
X103695853Y-105629946D01*
X103373946Y-106111715D01*
X103260907Y-106680000D01*
X103373946Y-107248285D01*
X103695853Y-107730054D01*
X104025026Y-107950000D01*
X103695853Y-108169946D01*
X103373946Y-108651715D01*
X103260907Y-109220000D01*
X103373946Y-109788285D01*
X103695853Y-110270054D01*
X104025026Y-110490000D01*
X103695853Y-110709946D01*
X103373946Y-111191715D01*
X103260907Y-111760000D01*
X103373946Y-112328285D01*
X103695853Y-112810054D01*
X104025026Y-113030000D01*
X103695853Y-113249946D01*
X103373946Y-113731715D01*
X103260907Y-114300000D01*
X103373946Y-114868285D01*
X103695853Y-115350054D01*
X104025026Y-115570000D01*
X103695853Y-115789946D01*
X103373946Y-116271715D01*
X103260907Y-116840000D01*
X103373946Y-117408285D01*
X103695853Y-117890054D01*
X104025026Y-118110000D01*
X103695853Y-118329946D01*
X103373946Y-118811715D01*
X103260907Y-119380000D01*
X103373946Y-119948285D01*
X103695853Y-120430054D01*
X104025026Y-120650000D01*
X103695853Y-120869946D01*
X103373946Y-121351715D01*
X103260907Y-121920000D01*
X103373946Y-122488285D01*
X103695853Y-122970054D01*
X104025026Y-123190000D01*
X103695853Y-123409946D01*
X103373946Y-123891715D01*
X103260907Y-124460000D01*
X103373946Y-125028285D01*
X103695853Y-125510054D01*
X104025026Y-125730000D01*
X103695853Y-125949946D01*
X103373946Y-126431715D01*
X103260907Y-127000000D01*
X103373946Y-127568285D01*
X103695853Y-128050054D01*
X104025026Y-128270000D01*
X103695853Y-128489946D01*
X103373946Y-128971715D01*
X103260907Y-129540000D01*
X103373946Y-130108285D01*
X103695853Y-130590054D01*
X104025026Y-130810000D01*
X103695853Y-131029946D01*
X103373946Y-131511715D01*
X103260907Y-132080000D01*
X103373946Y-132648285D01*
X103695853Y-133130054D01*
X104177622Y-133451961D01*
X104745907Y-133565000D01*
X104804093Y-133565000D01*
X105372378Y-133451961D01*
X105854147Y-133130054D01*
X105858097Y-133124142D01*
X105926673Y-133289699D01*
X106105302Y-133468327D01*
X106338691Y-133565000D01*
X107029250Y-133565000D01*
X107188000Y-133406250D01*
X107188000Y-132207000D01*
X107442000Y-132207000D01*
X107442000Y-133406250D01*
X107600750Y-133565000D01*
X108291309Y-133565000D01*
X108524698Y-133468327D01*
X108703327Y-133289699D01*
X108800000Y-133056310D01*
X108800000Y-132365750D01*
X108641250Y-132207000D01*
X107442000Y-132207000D01*
X107188000Y-132207000D01*
X107168000Y-132207000D01*
X107168000Y-131953000D01*
X107188000Y-131953000D01*
X107188000Y-131933000D01*
X107442000Y-131933000D01*
X107442000Y-131953000D01*
X108641250Y-131953000D01*
X108800000Y-131794250D01*
X108800000Y-131103690D01*
X108703327Y-130870301D01*
X108524698Y-130691673D01*
X108350223Y-130619403D01*
X108394147Y-130590054D01*
X108716054Y-130108285D01*
X108829093Y-129540000D01*
X108716054Y-128971715D01*
X108394147Y-128489946D01*
X108064974Y-128270000D01*
X108394147Y-128050054D01*
X108716054Y-127568285D01*
X108829093Y-127000000D01*
X108716054Y-126431715D01*
X108432043Y-126006661D01*
X116832758Y-126006661D01*
X117044990Y-126520303D01*
X117437630Y-126913629D01*
X117950900Y-127126757D01*
X118506661Y-127127242D01*
X119020303Y-126915010D01*
X119413629Y-126522370D01*
X119479900Y-126362772D01*
X119544990Y-126520303D01*
X119937630Y-126913629D01*
X120450900Y-127126757D01*
X121006661Y-127127242D01*
X121520303Y-126915010D01*
X121598235Y-126837213D01*
X129929392Y-126837213D01*
X129998857Y-127079397D01*
X130522302Y-127266144D01*
X131077368Y-127238362D01*
X131461143Y-127079397D01*
X131530608Y-126837213D01*
X131403608Y-126710213D01*
X132429392Y-126710213D01*
X132498857Y-126952397D01*
X133022302Y-127139144D01*
X133577368Y-127111362D01*
X133961143Y-126952397D01*
X134030608Y-126710213D01*
X133230000Y-125909605D01*
X132429392Y-126710213D01*
X131403608Y-126710213D01*
X130730000Y-126036605D01*
X129929392Y-126837213D01*
X121598235Y-126837213D01*
X121913629Y-126522370D01*
X122126757Y-126009100D01*
X122127070Y-125649302D01*
X129320856Y-125649302D01*
X129348638Y-126204368D01*
X129507603Y-126588143D01*
X129749787Y-126657608D01*
X130550395Y-125857000D01*
X130909605Y-125857000D01*
X131710213Y-126657608D01*
X131952397Y-126588143D01*
X132002286Y-126448306D01*
X132007603Y-126461143D01*
X132249787Y-126530608D01*
X133050395Y-125730000D01*
X133409605Y-125730000D01*
X134210213Y-126530608D01*
X134452397Y-126461143D01*
X134639144Y-125937698D01*
X134611362Y-125382632D01*
X134452397Y-124998857D01*
X134210213Y-124929392D01*
X133409605Y-125730000D01*
X133050395Y-125730000D01*
X132249787Y-124929392D01*
X132007603Y-124998857D01*
X131957714Y-125138694D01*
X131952397Y-125125857D01*
X131710213Y-125056392D01*
X130909605Y-125857000D01*
X130550395Y-125857000D01*
X129749787Y-125056392D01*
X129507603Y-125125857D01*
X129320856Y-125649302D01*
X122127070Y-125649302D01*
X122127242Y-125453339D01*
X121915010Y-124939697D01*
X121852210Y-124876787D01*
X129929392Y-124876787D01*
X130730000Y-125677395D01*
X131530608Y-124876787D01*
X131494181Y-124749787D01*
X132429392Y-124749787D01*
X133230000Y-125550395D01*
X134030608Y-124749787D01*
X133961143Y-124507603D01*
X133437698Y-124320856D01*
X132882632Y-124348638D01*
X132498857Y-124507603D01*
X132429392Y-124749787D01*
X131494181Y-124749787D01*
X131461143Y-124634603D01*
X130937698Y-124447856D01*
X130382632Y-124475638D01*
X129998857Y-124634603D01*
X129929392Y-124876787D01*
X121852210Y-124876787D01*
X121522370Y-124546371D01*
X121009100Y-124333243D01*
X120453339Y-124332758D01*
X119939697Y-124544990D01*
X119546371Y-124937630D01*
X119480100Y-125097228D01*
X119415010Y-124939697D01*
X119022370Y-124546371D01*
X118509100Y-124333243D01*
X117953339Y-124332758D01*
X117439697Y-124544990D01*
X117046371Y-124937630D01*
X116833243Y-125450900D01*
X116832758Y-126006661D01*
X108432043Y-126006661D01*
X108394147Y-125949946D01*
X108064974Y-125730000D01*
X108394147Y-125510054D01*
X108716054Y-125028285D01*
X108829093Y-124460000D01*
X108716054Y-123891715D01*
X108394147Y-123409946D01*
X108064974Y-123190000D01*
X108394147Y-122970054D01*
X108716054Y-122488285D01*
X108829093Y-121920000D01*
X108716054Y-121351715D01*
X108394147Y-120869946D01*
X108064974Y-120650000D01*
X108394147Y-120430054D01*
X108716054Y-119948285D01*
X108829093Y-119380000D01*
X108716054Y-118811715D01*
X108394147Y-118329946D01*
X108064974Y-118110000D01*
X108394147Y-117890054D01*
X108716054Y-117408285D01*
X108829093Y-116840000D01*
X108716054Y-116271715D01*
X108394147Y-115789946D01*
X108064974Y-115570000D01*
X108394147Y-115350054D01*
X108716054Y-114868285D01*
X108829093Y-114300000D01*
X108716054Y-113731715D01*
X108394147Y-113249946D01*
X108064974Y-113030000D01*
X108394147Y-112810054D01*
X108716054Y-112328285D01*
X108829093Y-111760000D01*
X108716054Y-111191715D01*
X108394147Y-110709946D01*
X108064974Y-110490000D01*
X108394147Y-110270054D01*
X108716054Y-109788285D01*
X108829093Y-109220000D01*
X108716054Y-108651715D01*
X108394147Y-108169946D01*
X108342097Y-108135167D01*
X124794838Y-108135167D01*
X124936883Y-108478943D01*
X124970000Y-108512118D01*
X124970000Y-113102537D01*
X124937808Y-113134673D01*
X124795162Y-113478201D01*
X124794838Y-113850167D01*
X124936883Y-114193943D01*
X125199673Y-114457192D01*
X125543201Y-114599838D01*
X125915167Y-114600162D01*
X126258943Y-114458117D01*
X126522192Y-114195327D01*
X126664838Y-113851799D01*
X126665162Y-113479833D01*
X126523117Y-113136057D01*
X126490000Y-113102882D01*
X126490000Y-108512463D01*
X126522192Y-108480327D01*
X126664838Y-108136799D01*
X126665162Y-107764833D01*
X126523117Y-107421057D01*
X126260327Y-107157808D01*
X125950219Y-107029039D01*
X128148096Y-107029039D01*
X128308959Y-107417423D01*
X128684866Y-107832389D01*
X129190959Y-108071914D01*
X129413000Y-107950629D01*
X129413000Y-106807000D01*
X129667000Y-106807000D01*
X129667000Y-107950629D01*
X129889041Y-108071914D01*
X130395134Y-107832389D01*
X130771041Y-107417423D01*
X130931904Y-107029039D01*
X130809915Y-106807000D01*
X129667000Y-106807000D01*
X129413000Y-106807000D01*
X128270085Y-106807000D01*
X128148096Y-107029039D01*
X125950219Y-107029039D01*
X125916799Y-107015162D01*
X125544833Y-107014838D01*
X125201057Y-107156883D01*
X124937808Y-107419673D01*
X124795162Y-107763201D01*
X124794838Y-108135167D01*
X108342097Y-108135167D01*
X108064974Y-107950000D01*
X108394147Y-107730054D01*
X108716054Y-107248285D01*
X108759664Y-107029039D01*
X112908096Y-107029039D01*
X113068959Y-107417423D01*
X113444866Y-107832389D01*
X113950959Y-108071914D01*
X114173000Y-107950629D01*
X114173000Y-106807000D01*
X114427000Y-106807000D01*
X114427000Y-107950629D01*
X114649041Y-108071914D01*
X115155134Y-107832389D01*
X115531041Y-107417423D01*
X115691904Y-107029039D01*
X115569915Y-106807000D01*
X114427000Y-106807000D01*
X114173000Y-106807000D01*
X113030085Y-106807000D01*
X112908096Y-107029039D01*
X108759664Y-107029039D01*
X108829093Y-106680000D01*
X108716054Y-106111715D01*
X108394147Y-105629946D01*
X108064974Y-105410000D01*
X108394147Y-105190054D01*
X108716054Y-104708285D01*
X108829093Y-104140000D01*
X112836887Y-104140000D01*
X112946120Y-104689151D01*
X113257189Y-105154698D01*
X113661703Y-105424986D01*
X113444866Y-105527611D01*
X113068959Y-105942577D01*
X112908096Y-106330961D01*
X113030085Y-106553000D01*
X114173000Y-106553000D01*
X114173000Y-106533000D01*
X114427000Y-106533000D01*
X114427000Y-106553000D01*
X115569915Y-106553000D01*
X115691904Y-106330961D01*
X115531041Y-105942577D01*
X115155134Y-105527611D01*
X114938297Y-105424986D01*
X115342811Y-105154698D01*
X115653880Y-104689151D01*
X115763113Y-104140000D01*
X120456887Y-104140000D01*
X120566120Y-104689151D01*
X120877189Y-105154698D01*
X121259275Y-105410000D01*
X120877189Y-105665302D01*
X120566120Y-106130849D01*
X120456887Y-106680000D01*
X120566120Y-107229151D01*
X120877189Y-107694698D01*
X121342736Y-108005767D01*
X121891887Y-108115000D01*
X121948113Y-108115000D01*
X122497264Y-108005767D01*
X122962811Y-107694698D01*
X123273880Y-107229151D01*
X123383113Y-106680000D01*
X123273880Y-106130849D01*
X122962811Y-105665302D01*
X122580725Y-105410000D01*
X122962811Y-105154698D01*
X123273880Y-104689151D01*
X123383113Y-104140000D01*
X123273880Y-103590849D01*
X122962811Y-103125302D01*
X122558297Y-102855014D01*
X122775134Y-102752389D01*
X123151041Y-102337423D01*
X123311904Y-101949039D01*
X123189915Y-101727000D01*
X122047000Y-101727000D01*
X122047000Y-101747000D01*
X121793000Y-101747000D01*
X121793000Y-101727000D01*
X120650085Y-101727000D01*
X120528096Y-101949039D01*
X120688959Y-102337423D01*
X121064866Y-102752389D01*
X121281703Y-102855014D01*
X120877189Y-103125302D01*
X120566120Y-103590849D01*
X120456887Y-104140000D01*
X115763113Y-104140000D01*
X115653880Y-103590849D01*
X115342811Y-103125302D01*
X114938297Y-102855014D01*
X115155134Y-102752389D01*
X115531041Y-102337423D01*
X115691904Y-101949039D01*
X115569915Y-101727000D01*
X114427000Y-101727000D01*
X114427000Y-101747000D01*
X114173000Y-101747000D01*
X114173000Y-101727000D01*
X113030085Y-101727000D01*
X112908096Y-101949039D01*
X113068959Y-102337423D01*
X113444866Y-102752389D01*
X113661703Y-102855014D01*
X113257189Y-103125302D01*
X112946120Y-103590849D01*
X112836887Y-104140000D01*
X108829093Y-104140000D01*
X108716054Y-103571715D01*
X108394147Y-103089946D01*
X108064974Y-102870000D01*
X108394147Y-102650054D01*
X108716054Y-102168285D01*
X108829093Y-101600000D01*
X108716054Y-101031715D01*
X108394147Y-100549946D01*
X108064974Y-100330000D01*
X108394147Y-100110054D01*
X108716054Y-99628285D01*
X108759664Y-99409039D01*
X112908096Y-99409039D01*
X113068959Y-99797423D01*
X113444866Y-100212389D01*
X113693367Y-100330000D01*
X113444866Y-100447611D01*
X113068959Y-100862577D01*
X112908096Y-101250961D01*
X113030085Y-101473000D01*
X114173000Y-101473000D01*
X114173000Y-99187000D01*
X114427000Y-99187000D01*
X114427000Y-101473000D01*
X115569915Y-101473000D01*
X115691904Y-101250961D01*
X115531041Y-100862577D01*
X115155134Y-100447611D01*
X114906633Y-100330000D01*
X115155134Y-100212389D01*
X115531041Y-99797423D01*
X115691904Y-99409039D01*
X120528096Y-99409039D01*
X120688959Y-99797423D01*
X121064866Y-100212389D01*
X121313367Y-100330000D01*
X121064866Y-100447611D01*
X120688959Y-100862577D01*
X120528096Y-101250961D01*
X120650085Y-101473000D01*
X121793000Y-101473000D01*
X121793000Y-99187000D01*
X122047000Y-99187000D01*
X122047000Y-101473000D01*
X123189915Y-101473000D01*
X123311904Y-101250961D01*
X123151041Y-100862577D01*
X122775134Y-100447611D01*
X122526633Y-100330000D01*
X122775134Y-100212389D01*
X123151041Y-99797423D01*
X123311904Y-99409039D01*
X123189915Y-99187000D01*
X122047000Y-99187000D01*
X121793000Y-99187000D01*
X120650085Y-99187000D01*
X120528096Y-99409039D01*
X115691904Y-99409039D01*
X115569915Y-99187000D01*
X114427000Y-99187000D01*
X114173000Y-99187000D01*
X113030085Y-99187000D01*
X112908096Y-99409039D01*
X108759664Y-99409039D01*
X108829093Y-99060000D01*
X108716054Y-98491715D01*
X108394147Y-98009946D01*
X108064974Y-97790000D01*
X108394147Y-97570054D01*
X108716054Y-97088285D01*
X108829093Y-96520000D01*
X108716054Y-95951715D01*
X108394147Y-95469946D01*
X108064974Y-95250000D01*
X108394147Y-95030054D01*
X108716054Y-94548285D01*
X108829093Y-93980000D01*
X112836887Y-93980000D01*
X112946120Y-94529151D01*
X113257189Y-94994698D01*
X113639275Y-95250000D01*
X113257189Y-95505302D01*
X112946120Y-95970849D01*
X112836887Y-96520000D01*
X112946120Y-97069151D01*
X113257189Y-97534698D01*
X113661703Y-97804986D01*
X113444866Y-97907611D01*
X113068959Y-98322577D01*
X112908096Y-98710961D01*
X113030085Y-98933000D01*
X114173000Y-98933000D01*
X114173000Y-98913000D01*
X114427000Y-98913000D01*
X114427000Y-98933000D01*
X115569915Y-98933000D01*
X115691904Y-98710961D01*
X115531041Y-98322577D01*
X115155134Y-97907611D01*
X114938297Y-97804986D01*
X115342811Y-97534698D01*
X115653880Y-97069151D01*
X115763113Y-96520000D01*
X115653880Y-95970849D01*
X115342811Y-95505302D01*
X114960725Y-95250000D01*
X115342811Y-94994698D01*
X115653880Y-94529151D01*
X115763113Y-93980000D01*
X120456887Y-93980000D01*
X120566120Y-94529151D01*
X120877189Y-94994698D01*
X121259275Y-95250000D01*
X120877189Y-95505302D01*
X120566120Y-95970849D01*
X120456887Y-96520000D01*
X120566120Y-97069151D01*
X120877189Y-97534698D01*
X121281703Y-97804986D01*
X121064866Y-97907611D01*
X120688959Y-98322577D01*
X120528096Y-98710961D01*
X120650085Y-98933000D01*
X121793000Y-98933000D01*
X121793000Y-98913000D01*
X122047000Y-98913000D01*
X122047000Y-98933000D01*
X123189915Y-98933000D01*
X123311904Y-98710961D01*
X123151041Y-98322577D01*
X122775134Y-97907611D01*
X122558297Y-97804986D01*
X122962811Y-97534698D01*
X123273880Y-97069151D01*
X123326584Y-96804187D01*
X124294752Y-96804187D01*
X124512757Y-97331800D01*
X124916077Y-97735824D01*
X125443309Y-97954750D01*
X126014187Y-97955248D01*
X126541800Y-97737243D01*
X126945824Y-97333923D01*
X127164750Y-96806691D01*
X127165248Y-96235813D01*
X126947243Y-95708200D01*
X126543923Y-95304176D01*
X126016691Y-95085250D01*
X125445813Y-95084752D01*
X124918200Y-95302757D01*
X124514176Y-95706077D01*
X124295250Y-96233309D01*
X124294752Y-96804187D01*
X123326584Y-96804187D01*
X123383113Y-96520000D01*
X123273880Y-95970849D01*
X122962811Y-95505302D01*
X122580725Y-95250000D01*
X122962811Y-94994698D01*
X123273880Y-94529151D01*
X123383113Y-93980000D01*
X123273880Y-93430849D01*
X122962811Y-92965302D01*
X122558297Y-92695014D01*
X122775134Y-92592389D01*
X123151041Y-92177423D01*
X123311904Y-91789039D01*
X123189915Y-91567000D01*
X122047000Y-91567000D01*
X122047000Y-91587000D01*
X121793000Y-91587000D01*
X121793000Y-91567000D01*
X120650085Y-91567000D01*
X120528096Y-91789039D01*
X120688959Y-92177423D01*
X121064866Y-92592389D01*
X121281703Y-92695014D01*
X120877189Y-92965302D01*
X120566120Y-93430849D01*
X120456887Y-93980000D01*
X115763113Y-93980000D01*
X115653880Y-93430849D01*
X115342811Y-92965302D01*
X114938297Y-92695014D01*
X115155134Y-92592389D01*
X115531041Y-92177423D01*
X115691904Y-91789039D01*
X115569915Y-91567000D01*
X114427000Y-91567000D01*
X114427000Y-91587000D01*
X114173000Y-91587000D01*
X114173000Y-91567000D01*
X113030085Y-91567000D01*
X112908096Y-91789039D01*
X113068959Y-92177423D01*
X113444866Y-92592389D01*
X113661703Y-92695014D01*
X113257189Y-92965302D01*
X112946120Y-93430849D01*
X112836887Y-93980000D01*
X108829093Y-93980000D01*
X108716054Y-93411715D01*
X108394147Y-92929946D01*
X108064974Y-92710000D01*
X108394147Y-92490054D01*
X108716054Y-92008285D01*
X108829093Y-91440000D01*
X108716054Y-90871715D01*
X108394147Y-90389946D01*
X108064974Y-90170000D01*
X108394147Y-89950054D01*
X108716054Y-89468285D01*
X108829093Y-88900000D01*
X108716054Y-88331715D01*
X108394147Y-87849946D01*
X108064974Y-87630000D01*
X108394147Y-87410054D01*
X108716054Y-86928285D01*
X108829093Y-86360000D01*
X112836887Y-86360000D01*
X112946120Y-86909151D01*
X113257189Y-87374698D01*
X113639275Y-87630000D01*
X113257189Y-87885302D01*
X112946120Y-88350849D01*
X112836887Y-88900000D01*
X112946120Y-89449151D01*
X113257189Y-89914698D01*
X113661703Y-90184986D01*
X113444866Y-90287611D01*
X113068959Y-90702577D01*
X112908096Y-91090961D01*
X113030085Y-91313000D01*
X114173000Y-91313000D01*
X114173000Y-91293000D01*
X114427000Y-91293000D01*
X114427000Y-91313000D01*
X115569915Y-91313000D01*
X115691904Y-91090961D01*
X115531041Y-90702577D01*
X115155134Y-90287611D01*
X114938297Y-90184986D01*
X115342811Y-89914698D01*
X115653880Y-89449151D01*
X115693684Y-89249039D01*
X120528096Y-89249039D01*
X120688959Y-89637423D01*
X121064866Y-90052389D01*
X121313367Y-90170000D01*
X121064866Y-90287611D01*
X120688959Y-90702577D01*
X120528096Y-91090961D01*
X120650085Y-91313000D01*
X121793000Y-91313000D01*
X121793000Y-89027000D01*
X122047000Y-89027000D01*
X122047000Y-91313000D01*
X123189915Y-91313000D01*
X123311904Y-91090961D01*
X123151041Y-90702577D01*
X122775134Y-90287611D01*
X122526633Y-90170000D01*
X122775134Y-90052389D01*
X123151041Y-89637423D01*
X123311904Y-89249039D01*
X123189915Y-89027000D01*
X122047000Y-89027000D01*
X121793000Y-89027000D01*
X120650085Y-89027000D01*
X120528096Y-89249039D01*
X115693684Y-89249039D01*
X115763113Y-88900000D01*
X115653880Y-88350849D01*
X115342811Y-87885302D01*
X114960725Y-87630000D01*
X115342811Y-87374698D01*
X115653880Y-86909151D01*
X115763113Y-86360000D01*
X115653880Y-85810849D01*
X115342811Y-85345302D01*
X115207665Y-85255000D01*
X115226309Y-85255000D01*
X115459698Y-85158327D01*
X115638327Y-84979699D01*
X115735000Y-84746310D01*
X115735000Y-84105750D01*
X115576250Y-83947000D01*
X114427000Y-83947000D01*
X114427000Y-83967000D01*
X114173000Y-83967000D01*
X114173000Y-83947000D01*
X113023750Y-83947000D01*
X112865000Y-84105750D01*
X112865000Y-84746310D01*
X112961673Y-84979699D01*
X113140302Y-85158327D01*
X113373691Y-85255000D01*
X113392335Y-85255000D01*
X113257189Y-85345302D01*
X112946120Y-85810849D01*
X112836887Y-86360000D01*
X108829093Y-86360000D01*
X108716054Y-85791715D01*
X108394147Y-85309946D01*
X108053447Y-85082298D01*
X108196358Y-85015183D01*
X108586645Y-84586924D01*
X108756476Y-84176890D01*
X108635155Y-83947000D01*
X107442000Y-83947000D01*
X107442000Y-83967000D01*
X107188000Y-83967000D01*
X107188000Y-83947000D01*
X107168000Y-83947000D01*
X107168000Y-83693000D01*
X107188000Y-83693000D01*
X107188000Y-82499181D01*
X107442000Y-82499181D01*
X107442000Y-83693000D01*
X108635155Y-83693000D01*
X108756476Y-83463110D01*
X108586645Y-83053076D01*
X108441392Y-82893690D01*
X112865000Y-82893690D01*
X112865000Y-83534250D01*
X113023750Y-83693000D01*
X114173000Y-83693000D01*
X114173000Y-82543750D01*
X114427000Y-82543750D01*
X114427000Y-83693000D01*
X115576250Y-83693000D01*
X115735000Y-83534250D01*
X115735000Y-82893690D01*
X115638327Y-82660301D01*
X115459698Y-82481673D01*
X115226309Y-82385000D01*
X114585750Y-82385000D01*
X114427000Y-82543750D01*
X114173000Y-82543750D01*
X114014250Y-82385000D01*
X113373691Y-82385000D01*
X113140302Y-82481673D01*
X112961673Y-82660301D01*
X112865000Y-82893690D01*
X108441392Y-82893690D01*
X108196358Y-82624817D01*
X107671892Y-82378514D01*
X107442000Y-82499181D01*
X107188000Y-82499181D01*
X106958108Y-82378514D01*
X106433642Y-82624817D01*
X106043355Y-83053076D01*
X106043345Y-83053101D01*
X105854147Y-82769946D01*
X105372378Y-82448039D01*
X104804093Y-82335000D01*
X104745907Y-82335000D01*
X104177622Y-82448039D01*
X103695853Y-82769946D01*
X103373946Y-83251715D01*
X103260907Y-83820000D01*
X101040000Y-83820000D01*
X101040000Y-81017745D01*
X114821861Y-81017745D01*
X114895995Y-81263864D01*
X115433223Y-81456965D01*
X116003454Y-81429778D01*
X116404005Y-81263864D01*
X116478139Y-81017745D01*
X115650000Y-80189605D01*
X114821861Y-81017745D01*
X101040000Y-81017745D01*
X101040000Y-79793223D01*
X114203035Y-79793223D01*
X114230222Y-80363454D01*
X114396136Y-80764005D01*
X114642255Y-80838139D01*
X115470395Y-80010000D01*
X115829605Y-80010000D01*
X116657745Y-80838139D01*
X116903864Y-80764005D01*
X117072735Y-80294187D01*
X119214752Y-80294187D01*
X119432757Y-80821800D01*
X119836077Y-81225824D01*
X120363309Y-81444750D01*
X120934187Y-81445248D01*
X120988149Y-81422951D01*
X121160000Y-81594802D01*
X121160000Y-82616333D01*
X120877189Y-82805302D01*
X120566120Y-83270849D01*
X120456887Y-83820000D01*
X120566120Y-84369151D01*
X120877189Y-84834698D01*
X121259275Y-85090000D01*
X120877189Y-85345302D01*
X120566120Y-85810849D01*
X120456887Y-86360000D01*
X120566120Y-86909151D01*
X120877189Y-87374698D01*
X121281703Y-87644986D01*
X121064866Y-87747611D01*
X120688959Y-88162577D01*
X120528096Y-88550961D01*
X120650085Y-88773000D01*
X121793000Y-88773000D01*
X121793000Y-88753000D01*
X122047000Y-88753000D01*
X122047000Y-88773000D01*
X123189915Y-88773000D01*
X123311904Y-88550961D01*
X123151041Y-88162577D01*
X122775134Y-87747611D01*
X122558297Y-87644986D01*
X122962811Y-87374698D01*
X123273880Y-86909151D01*
X123383113Y-86360000D01*
X123377521Y-86331887D01*
X124295000Y-86331887D01*
X124295000Y-86388113D01*
X124404233Y-86937264D01*
X124715302Y-87402811D01*
X125180849Y-87713880D01*
X125730000Y-87823113D01*
X126279151Y-87713880D01*
X126744698Y-87402811D01*
X127055767Y-86937264D01*
X127165000Y-86388113D01*
X127165000Y-86331887D01*
X127055767Y-85782736D01*
X126744698Y-85317189D01*
X126279151Y-85006120D01*
X125730000Y-84896887D01*
X125180849Y-85006120D01*
X124715302Y-85317189D01*
X124404233Y-85782736D01*
X124295000Y-86331887D01*
X123377521Y-86331887D01*
X123273880Y-85810849D01*
X122962811Y-85345302D01*
X122580725Y-85090000D01*
X122962811Y-84834698D01*
X123273880Y-84369151D01*
X123383113Y-83820000D01*
X123273880Y-83270849D01*
X123021871Y-82893690D01*
X128105000Y-82893690D01*
X128105000Y-83534250D01*
X128263750Y-83693000D01*
X129413000Y-83693000D01*
X129413000Y-82543750D01*
X129667000Y-82543750D01*
X129667000Y-83693000D01*
X130816250Y-83693000D01*
X130975000Y-83534250D01*
X130975000Y-82893690D01*
X130878327Y-82660301D01*
X130699698Y-82481673D01*
X130466309Y-82385000D01*
X129825750Y-82385000D01*
X129667000Y-82543750D01*
X129413000Y-82543750D01*
X129254250Y-82385000D01*
X128613691Y-82385000D01*
X128380302Y-82481673D01*
X128201673Y-82660301D01*
X128105000Y-82893690D01*
X123021871Y-82893690D01*
X122962811Y-82805302D01*
X122680000Y-82616333D01*
X122680000Y-81280000D01*
X122627834Y-81017745D01*
X130061861Y-81017745D01*
X130135995Y-81263864D01*
X130673223Y-81456965D01*
X131243454Y-81429778D01*
X131644005Y-81263864D01*
X131718139Y-81017745D01*
X130890000Y-80189605D01*
X130061861Y-81017745D01*
X122627834Y-81017745D01*
X122622148Y-80989161D01*
X122622148Y-80989160D01*
X122457401Y-80742599D01*
X122063256Y-80348454D01*
X122084750Y-80296691D01*
X122085189Y-79793223D01*
X129443035Y-79793223D01*
X129470222Y-80363454D01*
X129636136Y-80764005D01*
X129882255Y-80838139D01*
X130710395Y-80010000D01*
X131069605Y-80010000D01*
X131897745Y-80838139D01*
X132143864Y-80764005D01*
X132336965Y-80226777D01*
X132309778Y-79656546D01*
X132143864Y-79255995D01*
X131897745Y-79181861D01*
X131069605Y-80010000D01*
X130710395Y-80010000D01*
X129882255Y-79181861D01*
X129636136Y-79255995D01*
X129443035Y-79793223D01*
X122085189Y-79793223D01*
X122085248Y-79725813D01*
X121867243Y-79198200D01*
X121671640Y-79002255D01*
X130061861Y-79002255D01*
X130890000Y-79830395D01*
X131718139Y-79002255D01*
X131644005Y-78756136D01*
X131106777Y-78563035D01*
X130536546Y-78590222D01*
X130135995Y-78756136D01*
X130061861Y-79002255D01*
X121671640Y-79002255D01*
X121463923Y-78794176D01*
X120936691Y-78575250D01*
X120365813Y-78574752D01*
X119838200Y-78792757D01*
X119434176Y-79196077D01*
X119215250Y-79723309D01*
X119214752Y-80294187D01*
X117072735Y-80294187D01*
X117096965Y-80226777D01*
X117069778Y-79656546D01*
X116903864Y-79255995D01*
X116657745Y-79181861D01*
X115829605Y-80010000D01*
X115470395Y-80010000D01*
X114642255Y-79181861D01*
X114396136Y-79255995D01*
X114203035Y-79793223D01*
X101040000Y-79793223D01*
X101040000Y-79002255D01*
X114821861Y-79002255D01*
X115650000Y-79830395D01*
X116478139Y-79002255D01*
X116404005Y-78756136D01*
X115866777Y-78563035D01*
X115296546Y-78590222D01*
X114895995Y-78756136D01*
X114821861Y-79002255D01*
X101040000Y-79002255D01*
X101040000Y-75636875D01*
X101480727Y-76703515D01*
X102361847Y-77586174D01*
X103513674Y-78064454D01*
X104760854Y-78065543D01*
X105913515Y-77589273D01*
X106796174Y-76708153D01*
X107274454Y-75556326D01*
X107275543Y-74309146D01*
X106799273Y-73156485D01*
X106108994Y-72465000D01*
X113030000Y-72465000D01*
X113301705Y-72410954D01*
X113532046Y-72257046D01*
X113685954Y-72026705D01*
X113740000Y-71755000D01*
X113740000Y-70770750D01*
X115940000Y-70770750D01*
X115940000Y-71511310D01*
X116036673Y-71744699D01*
X116215302Y-71923327D01*
X116448691Y-72020000D01*
X117189250Y-72020000D01*
X117348000Y-71861250D01*
X117348000Y-70612000D01*
X116098750Y-70612000D01*
X115940000Y-70770750D01*
X113740000Y-70770750D01*
X113740000Y-69458690D01*
X115940000Y-69458690D01*
X115940000Y-70199250D01*
X116098750Y-70358000D01*
X117348000Y-70358000D01*
X117348000Y-69108750D01*
X117602000Y-69108750D01*
X117602000Y-70358000D01*
X117622000Y-70358000D01*
X117622000Y-70612000D01*
X117602000Y-70612000D01*
X117602000Y-71861250D01*
X117760750Y-72020000D01*
X118501309Y-72020000D01*
X118734698Y-71923327D01*
X118913327Y-71744699D01*
X118969119Y-71610006D01*
X119144357Y-71785551D01*
X119708330Y-72019733D01*
X120318991Y-72020265D01*
X120883371Y-71787068D01*
X121315551Y-71355643D01*
X121549733Y-70791670D01*
X121549751Y-70770750D01*
X124830000Y-70770750D01*
X124830000Y-71511310D01*
X124926673Y-71744699D01*
X125105302Y-71923327D01*
X125338691Y-72020000D01*
X126079250Y-72020000D01*
X126238000Y-71861250D01*
X126238000Y-70612000D01*
X124988750Y-70612000D01*
X124830000Y-70770750D01*
X121549751Y-70770750D01*
X121550265Y-70181009D01*
X121317068Y-69616629D01*
X121159405Y-69458690D01*
X124830000Y-69458690D01*
X124830000Y-70199250D01*
X124988750Y-70358000D01*
X126238000Y-70358000D01*
X126238000Y-69108750D01*
X126492000Y-69108750D01*
X126492000Y-70358000D01*
X126512000Y-70358000D01*
X126512000Y-70612000D01*
X126492000Y-70612000D01*
X126492000Y-71861250D01*
X126650750Y-72020000D01*
X127391309Y-72020000D01*
X127624698Y-71923327D01*
X127803327Y-71744699D01*
X127859119Y-71610006D01*
X128034357Y-71785551D01*
X128598330Y-72019733D01*
X129208991Y-72020265D01*
X129773371Y-71787068D01*
X130205551Y-71355643D01*
X130439733Y-70791670D01*
X130439751Y-70770750D01*
X133720000Y-70770750D01*
X133720000Y-71511310D01*
X133816673Y-71744699D01*
X133995302Y-71923327D01*
X134228691Y-72020000D01*
X134969250Y-72020000D01*
X135128000Y-71861250D01*
X135128000Y-70612000D01*
X133878750Y-70612000D01*
X133720000Y-70770750D01*
X130439751Y-70770750D01*
X130440265Y-70181009D01*
X130207068Y-69616629D01*
X130049405Y-69458690D01*
X133720000Y-69458690D01*
X133720000Y-70199250D01*
X133878750Y-70358000D01*
X135128000Y-70358000D01*
X135128000Y-69108750D01*
X135382000Y-69108750D01*
X135382000Y-70358000D01*
X135402000Y-70358000D01*
X135402000Y-70612000D01*
X135382000Y-70612000D01*
X135382000Y-71861250D01*
X135540750Y-72020000D01*
X136281309Y-72020000D01*
X136514698Y-71923327D01*
X136693327Y-71744699D01*
X136749119Y-71610006D01*
X136924357Y-71785551D01*
X137488330Y-72019733D01*
X138098991Y-72020265D01*
X138663371Y-71787068D01*
X139095551Y-71355643D01*
X139329733Y-70791670D01*
X139329751Y-70770750D01*
X142610000Y-70770750D01*
X142610000Y-71511310D01*
X142706673Y-71744699D01*
X142885302Y-71923327D01*
X143118691Y-72020000D01*
X143859250Y-72020000D01*
X144018000Y-71861250D01*
X144018000Y-70612000D01*
X142768750Y-70612000D01*
X142610000Y-70770750D01*
X139329751Y-70770750D01*
X139330265Y-70181009D01*
X139097068Y-69616629D01*
X138939405Y-69458690D01*
X142610000Y-69458690D01*
X142610000Y-70199250D01*
X142768750Y-70358000D01*
X144018000Y-70358000D01*
X144018000Y-69108750D01*
X144272000Y-69108750D01*
X144272000Y-70358000D01*
X144292000Y-70358000D01*
X144292000Y-70612000D01*
X144272000Y-70612000D01*
X144272000Y-71861250D01*
X144430750Y-72020000D01*
X145171309Y-72020000D01*
X145404698Y-71923327D01*
X145583327Y-71744699D01*
X145639119Y-71610006D01*
X145814357Y-71785551D01*
X146378330Y-72019733D01*
X146988991Y-72020265D01*
X147553371Y-71787068D01*
X147985551Y-71355643D01*
X148219733Y-70791670D01*
X148219751Y-70770750D01*
X151500000Y-70770750D01*
X151500000Y-71511310D01*
X151596673Y-71744699D01*
X151775302Y-71923327D01*
X152008691Y-72020000D01*
X152749250Y-72020000D01*
X152908000Y-71861250D01*
X152908000Y-70612000D01*
X151658750Y-70612000D01*
X151500000Y-70770750D01*
X148219751Y-70770750D01*
X148220265Y-70181009D01*
X147987068Y-69616629D01*
X147829405Y-69458690D01*
X151500000Y-69458690D01*
X151500000Y-70199250D01*
X151658750Y-70358000D01*
X152908000Y-70358000D01*
X152908000Y-69108750D01*
X153162000Y-69108750D01*
X153162000Y-70358000D01*
X153182000Y-70358000D01*
X153182000Y-70612000D01*
X153162000Y-70612000D01*
X153162000Y-71861250D01*
X153320750Y-72020000D01*
X154061309Y-72020000D01*
X154294698Y-71923327D01*
X154473327Y-71744699D01*
X154529119Y-71610006D01*
X154704357Y-71785551D01*
X155268330Y-72019733D01*
X155878991Y-72020265D01*
X156443371Y-71787068D01*
X156875551Y-71355643D01*
X157109733Y-70791670D01*
X157109751Y-70770750D01*
X160390000Y-70770750D01*
X160390000Y-71511310D01*
X160486673Y-71744699D01*
X160665302Y-71923327D01*
X160898691Y-72020000D01*
X161639250Y-72020000D01*
X161798000Y-71861250D01*
X161798000Y-70612000D01*
X160548750Y-70612000D01*
X160390000Y-70770750D01*
X157109751Y-70770750D01*
X157110265Y-70181009D01*
X156877068Y-69616629D01*
X156719405Y-69458690D01*
X160390000Y-69458690D01*
X160390000Y-70199250D01*
X160548750Y-70358000D01*
X161798000Y-70358000D01*
X161798000Y-69108750D01*
X162052000Y-69108750D01*
X162052000Y-70358000D01*
X162072000Y-70358000D01*
X162072000Y-70612000D01*
X162052000Y-70612000D01*
X162052000Y-71861250D01*
X162210750Y-72020000D01*
X162951309Y-72020000D01*
X163184698Y-71923327D01*
X163363327Y-71744699D01*
X163419119Y-71610006D01*
X163594357Y-71785551D01*
X164158330Y-72019733D01*
X164768991Y-72020265D01*
X165333371Y-71787068D01*
X165765551Y-71355643D01*
X165999733Y-70791670D01*
X165999751Y-70770750D01*
X169280000Y-70770750D01*
X169280000Y-71511310D01*
X169376673Y-71744699D01*
X169555302Y-71923327D01*
X169788691Y-72020000D01*
X170529250Y-72020000D01*
X170688000Y-71861250D01*
X170688000Y-70612000D01*
X169438750Y-70612000D01*
X169280000Y-70770750D01*
X165999751Y-70770750D01*
X166000265Y-70181009D01*
X165767068Y-69616629D01*
X165609405Y-69458690D01*
X169280000Y-69458690D01*
X169280000Y-70199250D01*
X169438750Y-70358000D01*
X170688000Y-70358000D01*
X170688000Y-69108750D01*
X170942000Y-69108750D01*
X170942000Y-70358000D01*
X170962000Y-70358000D01*
X170962000Y-70612000D01*
X170942000Y-70612000D01*
X170942000Y-71861250D01*
X171100750Y-72020000D01*
X171841309Y-72020000D01*
X172074698Y-71923327D01*
X172253327Y-71744699D01*
X172309119Y-71610006D01*
X172484357Y-71785551D01*
X173048330Y-72019733D01*
X173658991Y-72020265D01*
X174223371Y-71787068D01*
X174655551Y-71355643D01*
X174889733Y-70791670D01*
X174889751Y-70770750D01*
X178170000Y-70770750D01*
X178170000Y-71511310D01*
X178266673Y-71744699D01*
X178445302Y-71923327D01*
X178678691Y-72020000D01*
X179419250Y-72020000D01*
X179578000Y-71861250D01*
X179578000Y-70612000D01*
X178328750Y-70612000D01*
X178170000Y-70770750D01*
X174889751Y-70770750D01*
X174890265Y-70181009D01*
X174657068Y-69616629D01*
X174499405Y-69458690D01*
X178170000Y-69458690D01*
X178170000Y-70199250D01*
X178328750Y-70358000D01*
X179578000Y-70358000D01*
X179578000Y-69108750D01*
X179832000Y-69108750D01*
X179832000Y-70358000D01*
X179852000Y-70358000D01*
X179852000Y-70612000D01*
X179832000Y-70612000D01*
X179832000Y-71861250D01*
X179990750Y-72020000D01*
X180731309Y-72020000D01*
X180964698Y-71923327D01*
X181143327Y-71744699D01*
X181199119Y-71610006D01*
X181374357Y-71785551D01*
X181938330Y-72019733D01*
X182548991Y-72020265D01*
X183113371Y-71787068D01*
X183545551Y-71355643D01*
X183779733Y-70791670D01*
X183780265Y-70181009D01*
X183547068Y-69616629D01*
X183115643Y-69184449D01*
X182551670Y-68950267D01*
X181941009Y-68949735D01*
X181376629Y-69182932D01*
X181199159Y-69360092D01*
X181143327Y-69225301D01*
X180964698Y-69046673D01*
X180731309Y-68950000D01*
X179990750Y-68950000D01*
X179832000Y-69108750D01*
X179578000Y-69108750D01*
X179419250Y-68950000D01*
X178678691Y-68950000D01*
X178445302Y-69046673D01*
X178266673Y-69225301D01*
X178170000Y-69458690D01*
X174499405Y-69458690D01*
X174225643Y-69184449D01*
X173661670Y-68950267D01*
X173051009Y-68949735D01*
X172486629Y-69182932D01*
X172309159Y-69360092D01*
X172253327Y-69225301D01*
X172074698Y-69046673D01*
X171841309Y-68950000D01*
X171100750Y-68950000D01*
X170942000Y-69108750D01*
X170688000Y-69108750D01*
X170529250Y-68950000D01*
X169788691Y-68950000D01*
X169555302Y-69046673D01*
X169376673Y-69225301D01*
X169280000Y-69458690D01*
X165609405Y-69458690D01*
X165335643Y-69184449D01*
X164771670Y-68950267D01*
X164161009Y-68949735D01*
X163596629Y-69182932D01*
X163419159Y-69360092D01*
X163363327Y-69225301D01*
X163184698Y-69046673D01*
X162951309Y-68950000D01*
X162210750Y-68950000D01*
X162052000Y-69108750D01*
X161798000Y-69108750D01*
X161639250Y-68950000D01*
X160898691Y-68950000D01*
X160665302Y-69046673D01*
X160486673Y-69225301D01*
X160390000Y-69458690D01*
X156719405Y-69458690D01*
X156445643Y-69184449D01*
X155881670Y-68950267D01*
X155271009Y-68949735D01*
X154706629Y-69182932D01*
X154529159Y-69360092D01*
X154473327Y-69225301D01*
X154294698Y-69046673D01*
X154061309Y-68950000D01*
X153320750Y-68950000D01*
X153162000Y-69108750D01*
X152908000Y-69108750D01*
X152749250Y-68950000D01*
X152008691Y-68950000D01*
X151775302Y-69046673D01*
X151596673Y-69225301D01*
X151500000Y-69458690D01*
X147829405Y-69458690D01*
X147555643Y-69184449D01*
X146991670Y-68950267D01*
X146381009Y-68949735D01*
X145816629Y-69182932D01*
X145639159Y-69360092D01*
X145583327Y-69225301D01*
X145404698Y-69046673D01*
X145171309Y-68950000D01*
X144430750Y-68950000D01*
X144272000Y-69108750D01*
X144018000Y-69108750D01*
X143859250Y-68950000D01*
X143118691Y-68950000D01*
X142885302Y-69046673D01*
X142706673Y-69225301D01*
X142610000Y-69458690D01*
X138939405Y-69458690D01*
X138665643Y-69184449D01*
X138101670Y-68950267D01*
X137491009Y-68949735D01*
X136926629Y-69182932D01*
X136749159Y-69360092D01*
X136693327Y-69225301D01*
X136514698Y-69046673D01*
X136281309Y-68950000D01*
X135540750Y-68950000D01*
X135382000Y-69108750D01*
X135128000Y-69108750D01*
X134969250Y-68950000D01*
X134228691Y-68950000D01*
X133995302Y-69046673D01*
X133816673Y-69225301D01*
X133720000Y-69458690D01*
X130049405Y-69458690D01*
X129775643Y-69184449D01*
X129211670Y-68950267D01*
X128601009Y-68949735D01*
X128036629Y-69182932D01*
X127859159Y-69360092D01*
X127803327Y-69225301D01*
X127624698Y-69046673D01*
X127391309Y-68950000D01*
X126650750Y-68950000D01*
X126492000Y-69108750D01*
X126238000Y-69108750D01*
X126079250Y-68950000D01*
X125338691Y-68950000D01*
X125105302Y-69046673D01*
X124926673Y-69225301D01*
X124830000Y-69458690D01*
X121159405Y-69458690D01*
X120885643Y-69184449D01*
X120321670Y-68950267D01*
X119711009Y-68949735D01*
X119146629Y-69182932D01*
X118969159Y-69360092D01*
X118913327Y-69225301D01*
X118734698Y-69046673D01*
X118501309Y-68950000D01*
X117760750Y-68950000D01*
X117602000Y-69108750D01*
X117348000Y-69108750D01*
X117189250Y-68950000D01*
X116448691Y-68950000D01*
X116215302Y-69046673D01*
X116036673Y-69225301D01*
X115940000Y-69458690D01*
X113740000Y-69458690D01*
X113740000Y-62940000D01*
X194875069Y-62940000D01*
X196369001Y-63237161D01*
X196369001Y-63237161D01*
G37*
X196369001Y-63237161D02*
X197576209Y-64043791D01*
X198382839Y-65251001D01*
X198680000Y-66744931D01*
X198680000Y-74223125D01*
X198239273Y-73156485D01*
X197358153Y-72273826D01*
X196206326Y-71795546D01*
X194959146Y-71794457D01*
X193806485Y-72270727D01*
X192923826Y-73151847D01*
X192445546Y-74303674D01*
X192444457Y-75550854D01*
X192920727Y-76703515D01*
X193801847Y-77586174D01*
X194870699Y-78030000D01*
X151765000Y-78030000D01*
X151493295Y-78084046D01*
X151262954Y-78237954D01*
X151109046Y-78468295D01*
X151055000Y-78740000D01*
X151055000Y-82498738D01*
X150781691Y-82385250D01*
X150210813Y-82384752D01*
X149683200Y-82602757D01*
X149279176Y-83006077D01*
X149060250Y-83533309D01*
X149059752Y-84104187D01*
X149277757Y-84631800D01*
X149681077Y-85035824D01*
X150208309Y-85254750D01*
X150779187Y-85255248D01*
X151055000Y-85141285D01*
X151055000Y-85673738D01*
X150781691Y-85560250D01*
X150210813Y-85559752D01*
X149683200Y-85777757D01*
X149279176Y-86181077D01*
X149060250Y-86708309D01*
X149059752Y-87279187D01*
X149277757Y-87806800D01*
X149681077Y-88210824D01*
X150208309Y-88429750D01*
X150779187Y-88430248D01*
X151055000Y-88316285D01*
X151055000Y-88848738D01*
X150781691Y-88735250D01*
X150210813Y-88734752D01*
X149683200Y-88952757D01*
X149279176Y-89356077D01*
X149060250Y-89883309D01*
X149059752Y-90454187D01*
X149277757Y-90981800D01*
X149681077Y-91385824D01*
X150208309Y-91604750D01*
X150779187Y-91605248D01*
X151055000Y-91491285D01*
X151055000Y-92023738D01*
X150781691Y-91910250D01*
X150210813Y-91909752D01*
X149683200Y-92127757D01*
X149279176Y-92531077D01*
X149060250Y-93058309D01*
X149059752Y-93629187D01*
X149277757Y-94156800D01*
X149681077Y-94560824D01*
X150208309Y-94779750D01*
X150779187Y-94780248D01*
X151055000Y-94666285D01*
X151055000Y-95833738D01*
X150781691Y-95720250D01*
X150210813Y-95719752D01*
X149683200Y-95937757D01*
X149279176Y-96341077D01*
X149060250Y-96868309D01*
X149059752Y-97439187D01*
X149277757Y-97966800D01*
X149681077Y-98370824D01*
X150208309Y-98589750D01*
X150779187Y-98590248D01*
X151055000Y-98476285D01*
X151055000Y-99008738D01*
X150781691Y-98895250D01*
X150210813Y-98894752D01*
X149683200Y-99112757D01*
X149279176Y-99516077D01*
X149060250Y-100043309D01*
X149059752Y-100614187D01*
X149277757Y-101141800D01*
X149681077Y-101545824D01*
X150208309Y-101764750D01*
X150779187Y-101765248D01*
X151055000Y-101651285D01*
X151055000Y-102183738D01*
X150781691Y-102070250D01*
X150210813Y-102069752D01*
X149683200Y-102287757D01*
X149279176Y-102691077D01*
X149060250Y-103218309D01*
X149059752Y-103789187D01*
X149277757Y-104316800D01*
X149681077Y-104720824D01*
X150208309Y-104939750D01*
X150779187Y-104940248D01*
X151055000Y-104826285D01*
X151055000Y-105358738D01*
X150781691Y-105245250D01*
X150210813Y-105244752D01*
X149683200Y-105462757D01*
X149279176Y-105866077D01*
X149060250Y-106393309D01*
X149059752Y-106964187D01*
X149277757Y-107491800D01*
X149660289Y-107875000D01*
X141107970Y-107875000D01*
X141377811Y-107694698D01*
X141688880Y-107229151D01*
X141798113Y-106680000D01*
X141688880Y-106130849D01*
X141377811Y-105665302D01*
X140912264Y-105354233D01*
X140363113Y-105245000D01*
X140306887Y-105245000D01*
X139757736Y-105354233D01*
X139292189Y-105665302D01*
X138981120Y-106130849D01*
X138871887Y-106680000D01*
X138981120Y-107229151D01*
X139292189Y-107694698D01*
X139562030Y-107875000D01*
X137932970Y-107875000D01*
X138202811Y-107694698D01*
X138513880Y-107229151D01*
X138623113Y-106680000D01*
X138513880Y-106130849D01*
X138202811Y-105665302D01*
X137820725Y-105410000D01*
X138202811Y-105154698D01*
X138513880Y-104689151D01*
X138623113Y-104140000D01*
X138513880Y-103590849D01*
X138456518Y-103505000D01*
X138871887Y-103505000D01*
X138981120Y-104054151D01*
X139292189Y-104519698D01*
X139757736Y-104830767D01*
X140306887Y-104940000D01*
X140363113Y-104940000D01*
X140912264Y-104830767D01*
X141377811Y-104519698D01*
X141688880Y-104054151D01*
X141798113Y-103505000D01*
X141688880Y-102955849D01*
X141377811Y-102490302D01*
X140912264Y-102179233D01*
X140363113Y-102070000D01*
X140306887Y-102070000D01*
X139757736Y-102179233D01*
X139292189Y-102490302D01*
X138981120Y-102955849D01*
X138871887Y-103505000D01*
X138456518Y-103505000D01*
X138202811Y-103125302D01*
X137820725Y-102870000D01*
X138202811Y-102614698D01*
X138513880Y-102149151D01*
X138623113Y-101600000D01*
X138513880Y-101050849D01*
X138202811Y-100585302D01*
X137820725Y-100330000D01*
X138871887Y-100330000D01*
X138981120Y-100879151D01*
X139292189Y-101344698D01*
X139757736Y-101655767D01*
X140306887Y-101765000D01*
X140363113Y-101765000D01*
X140912264Y-101655767D01*
X141377811Y-101344698D01*
X141688880Y-100879151D01*
X141798113Y-100330000D01*
X141688880Y-99780849D01*
X141377811Y-99315302D01*
X140912264Y-99004233D01*
X140363113Y-98895000D01*
X140306887Y-98895000D01*
X139757736Y-99004233D01*
X139292189Y-99315302D01*
X138981120Y-99780849D01*
X138871887Y-100330000D01*
X137820725Y-100330000D01*
X138202811Y-100074698D01*
X138513880Y-99609151D01*
X138623113Y-99060000D01*
X138513880Y-98510849D01*
X138202811Y-98045302D01*
X137820725Y-97790000D01*
X138202811Y-97534698D01*
X138456517Y-97155000D01*
X138871887Y-97155000D01*
X138981120Y-97704151D01*
X139292189Y-98169698D01*
X139757736Y-98480767D01*
X140306887Y-98590000D01*
X140363113Y-98590000D01*
X140912264Y-98480767D01*
X141377811Y-98169698D01*
X141688880Y-97704151D01*
X141798113Y-97155000D01*
X141688880Y-96605849D01*
X141377811Y-96140302D01*
X140912264Y-95829233D01*
X140363113Y-95720000D01*
X140306887Y-95720000D01*
X139757736Y-95829233D01*
X139292189Y-96140302D01*
X138981120Y-96605849D01*
X138871887Y-97155000D01*
X138456517Y-97155000D01*
X138513880Y-97069151D01*
X138623113Y-96520000D01*
X138513880Y-95970849D01*
X138202811Y-95505302D01*
X137820725Y-95250000D01*
X138202811Y-94994698D01*
X138513880Y-94529151D01*
X138623113Y-93980000D01*
X138513880Y-93430849D01*
X138202811Y-92965302D01*
X137820725Y-92710000D01*
X138202811Y-92454698D01*
X138513880Y-91989151D01*
X138623113Y-91440000D01*
X138513880Y-90890849D01*
X138202811Y-90425302D01*
X137820725Y-90170000D01*
X138202811Y-89914698D01*
X138513880Y-89449151D01*
X138623113Y-88900000D01*
X138513880Y-88350849D01*
X138202811Y-87885302D01*
X137820725Y-87630000D01*
X138202811Y-87374698D01*
X138456517Y-86995000D01*
X138871887Y-86995000D01*
X138981120Y-87544151D01*
X139292189Y-88009698D01*
X139757736Y-88320767D01*
X140306887Y-88430000D01*
X140363113Y-88430000D01*
X140912264Y-88320767D01*
X141377811Y-88009698D01*
X141480000Y-87856762D01*
X141480000Y-89308238D01*
X141377811Y-89155302D01*
X140912264Y-88844233D01*
X140363113Y-88735000D01*
X140306887Y-88735000D01*
X139757736Y-88844233D01*
X139292189Y-89155302D01*
X138981120Y-89620849D01*
X138871887Y-90170000D01*
X138981120Y-90719151D01*
X139292189Y-91184698D01*
X139757736Y-91495767D01*
X140306887Y-91605000D01*
X140363113Y-91605000D01*
X140912264Y-91495767D01*
X141377811Y-91184698D01*
X141480000Y-91031762D01*
X141480000Y-92147537D01*
X141447808Y-92179673D01*
X141382406Y-92337178D01*
X141377811Y-92330302D01*
X140912264Y-92019233D01*
X140363113Y-91910000D01*
X140306887Y-91910000D01*
X139757736Y-92019233D01*
X139292189Y-92330302D01*
X138981120Y-92795849D01*
X138871887Y-93345000D01*
X138981120Y-93894151D01*
X139292189Y-94359698D01*
X139757736Y-94670767D01*
X140306887Y-94780000D01*
X140363113Y-94780000D01*
X140912264Y-94670767D01*
X141377811Y-94359698D01*
X141688880Y-93894151D01*
X141762484Y-93524121D01*
X142053201Y-93644838D01*
X142115000Y-93644892D01*
X142115000Y-95957537D01*
X142082808Y-95989673D01*
X141940162Y-96333201D01*
X141939838Y-96705167D01*
X142081883Y-97048943D01*
X142344673Y-97312192D01*
X142688201Y-97454838D01*
X142750000Y-97454892D01*
X142750000Y-105482537D01*
X142717808Y-105514673D01*
X142575162Y-105858201D01*
X142574838Y-106230167D01*
X142716883Y-106573943D01*
X142979673Y-106837192D01*
X143323201Y-106979838D01*
X143695167Y-106980162D01*
X144038943Y-106838117D01*
X144302192Y-106575327D01*
X144444838Y-106231799D01*
X144445162Y-105859833D01*
X144303117Y-105516057D01*
X144270000Y-105482882D01*
X144270000Y-103805110D01*
X144330167Y-103805162D01*
X144673943Y-103663117D01*
X144937192Y-103400327D01*
X145079838Y-103056799D01*
X145080162Y-102684833D01*
X144938117Y-102341057D01*
X144905000Y-102307882D01*
X144905000Y-100630110D01*
X144965167Y-100630162D01*
X145308943Y-100488117D01*
X145572192Y-100225327D01*
X145714838Y-99881799D01*
X145715162Y-99509833D01*
X145573117Y-99166057D01*
X145540000Y-99132882D01*
X145540000Y-90470110D01*
X145600167Y-90470162D01*
X145943943Y-90328117D01*
X146207192Y-90065327D01*
X146349838Y-89721799D01*
X146350162Y-89349833D01*
X146208117Y-89006057D01*
X146175000Y-88972882D01*
X146175000Y-85652463D01*
X146207192Y-85620327D01*
X146349838Y-85276799D01*
X146350162Y-84904833D01*
X146208117Y-84561057D01*
X145945327Y-84297808D01*
X145601799Y-84155162D01*
X145229833Y-84154838D01*
X144886057Y-84296883D01*
X144780046Y-84402710D01*
X144675327Y-84297808D01*
X144331799Y-84155162D01*
X143959833Y-84154838D01*
X143616057Y-84296883D01*
X143510046Y-84402710D01*
X143405327Y-84297808D01*
X143061799Y-84155162D01*
X142689833Y-84154838D01*
X142346057Y-84296883D01*
X142082808Y-84559673D01*
X141973235Y-84823554D01*
X141711057Y-84931883D01*
X141447808Y-85194673D01*
X141305162Y-85538201D01*
X141304838Y-85910167D01*
X141317039Y-85939695D01*
X140912264Y-85669233D01*
X140363113Y-85560000D01*
X140306887Y-85560000D01*
X139757736Y-85669233D01*
X139292189Y-85980302D01*
X138981120Y-86445849D01*
X138871887Y-86995000D01*
X138456517Y-86995000D01*
X138513880Y-86909151D01*
X138623113Y-86360000D01*
X138513880Y-85810849D01*
X138202811Y-85345302D01*
X137820725Y-85090000D01*
X138202811Y-84834698D01*
X138513880Y-84369151D01*
X138623113Y-83820000D01*
X138871887Y-83820000D01*
X138981120Y-84369151D01*
X139292189Y-84834698D01*
X139757736Y-85145767D01*
X140306887Y-85255000D01*
X140363113Y-85255000D01*
X140912264Y-85145767D01*
X141377811Y-84834698D01*
X141688880Y-84369151D01*
X141798113Y-83820000D01*
X141688880Y-83270849D01*
X141377811Y-82805302D01*
X140912264Y-82494233D01*
X140363113Y-82385000D01*
X140306887Y-82385000D01*
X139757736Y-82494233D01*
X139292189Y-82805302D01*
X138981120Y-83270849D01*
X138871887Y-83820000D01*
X138623113Y-83820000D01*
X138513880Y-83270849D01*
X138202811Y-82805302D01*
X137920000Y-82616333D01*
X137920000Y-81280000D01*
X137862148Y-80989161D01*
X137862148Y-80989160D01*
X137697401Y-80742599D01*
X137303256Y-80348454D01*
X137324750Y-80296691D01*
X137325248Y-79725813D01*
X137107243Y-79198200D01*
X136703923Y-78794176D01*
X136176691Y-78575250D01*
X135605813Y-78574752D01*
X135078200Y-78792757D01*
X134674176Y-79196077D01*
X134455250Y-79723309D01*
X134454752Y-80294187D01*
X134672757Y-80821800D01*
X135076077Y-81225824D01*
X135603309Y-81444750D01*
X136174187Y-81445248D01*
X136228149Y-81422951D01*
X136400000Y-81594802D01*
X136400000Y-82616333D01*
X136117189Y-82805302D01*
X135806120Y-83270849D01*
X135696887Y-83820000D01*
X135806120Y-84369151D01*
X136117189Y-84834698D01*
X136499275Y-85090000D01*
X136117189Y-85345302D01*
X135806120Y-85810849D01*
X135696887Y-86360000D01*
X135806120Y-86909151D01*
X136117189Y-87374698D01*
X136499275Y-87630000D01*
X136117189Y-87885302D01*
X135806120Y-88350849D01*
X135758141Y-88592057D01*
X135352599Y-88997599D01*
X135187852Y-89244161D01*
X135130000Y-89535000D01*
X135130000Y-91139890D01*
X135069833Y-91139838D01*
X134726057Y-91281883D01*
X134462808Y-91544673D01*
X134320162Y-91888201D01*
X134319838Y-92260167D01*
X134461883Y-92603943D01*
X134495000Y-92637118D01*
X134495000Y-100029890D01*
X134434833Y-100029838D01*
X134110000Y-100164056D01*
X134110000Y-92637463D01*
X134142192Y-92605327D01*
X134284838Y-92261799D01*
X134285162Y-91889833D01*
X134143117Y-91546057D01*
X133880327Y-91282808D01*
X133536799Y-91140162D01*
X133164833Y-91139838D01*
X132821057Y-91281883D01*
X132557808Y-91544673D01*
X132415162Y-91888201D01*
X132414838Y-92260167D01*
X132556883Y-92603943D01*
X132590000Y-92637118D01*
X132590000Y-98894367D01*
X132266799Y-98760162D01*
X132205000Y-98760108D01*
X132205000Y-92637463D01*
X132237192Y-92605327D01*
X132379838Y-92261799D01*
X132380162Y-91889833D01*
X132238117Y-91546057D01*
X131975327Y-91282808D01*
X131631799Y-91140162D01*
X131570000Y-91140108D01*
X131570000Y-89535000D01*
X131512148Y-89244161D01*
X131347401Y-88997599D01*
X130941859Y-88592057D01*
X130893880Y-88350849D01*
X130582811Y-87885302D01*
X130200725Y-87630000D01*
X130582811Y-87374698D01*
X130893880Y-86909151D01*
X131003113Y-86360000D01*
X130893880Y-85810849D01*
X130582811Y-85345302D01*
X130447665Y-85255000D01*
X130466309Y-85255000D01*
X130699698Y-85158327D01*
X130878327Y-84979699D01*
X130975000Y-84746310D01*
X130975000Y-84105750D01*
X130816250Y-83947000D01*
X129667000Y-83947000D01*
X129667000Y-83967000D01*
X129413000Y-83967000D01*
X129413000Y-83947000D01*
X128263750Y-83947000D01*
X128105000Y-84105750D01*
X128105000Y-84746310D01*
X128201673Y-84979699D01*
X128380302Y-85158327D01*
X128613691Y-85255000D01*
X128632335Y-85255000D01*
X128497189Y-85345302D01*
X128186120Y-85810849D01*
X128076887Y-86360000D01*
X128186120Y-86909151D01*
X128497189Y-87374698D01*
X128879275Y-87630000D01*
X128497189Y-87885302D01*
X128186120Y-88350849D01*
X128076887Y-88900000D01*
X128186120Y-89449151D01*
X128497189Y-89914698D01*
X128879275Y-90170000D01*
X128497189Y-90425302D01*
X128186120Y-90890849D01*
X128076887Y-91440000D01*
X128186120Y-91989151D01*
X128497189Y-92454698D01*
X128879275Y-92710000D01*
X128497189Y-92965302D01*
X128186120Y-93430849D01*
X128076887Y-93980000D01*
X128186120Y-94529151D01*
X128497189Y-94994698D01*
X128879275Y-95250000D01*
X128497189Y-95505302D01*
X128186120Y-95970849D01*
X128076887Y-96520000D01*
X128186120Y-97069151D01*
X128497189Y-97534698D01*
X128879275Y-97790000D01*
X128497189Y-98045302D01*
X128186120Y-98510849D01*
X128076887Y-99060000D01*
X128186120Y-99609151D01*
X128497189Y-100074698D01*
X128879275Y-100330000D01*
X128497189Y-100585302D01*
X128186120Y-101050849D01*
X128076887Y-101600000D01*
X128186120Y-102149151D01*
X128497189Y-102614698D01*
X128879275Y-102870000D01*
X128497189Y-103125302D01*
X128186120Y-103590849D01*
X128076887Y-104140000D01*
X128186120Y-104689151D01*
X128497189Y-105154698D01*
X128901703Y-105424986D01*
X128684866Y-105527611D01*
X128308959Y-105942577D01*
X128148096Y-106330961D01*
X128270085Y-106553000D01*
X129413000Y-106553000D01*
X129413000Y-106533000D01*
X129667000Y-106533000D01*
X129667000Y-106553000D01*
X130809915Y-106553000D01*
X130924136Y-106345100D01*
X130995167Y-106345162D01*
X131338943Y-106203117D01*
X131602192Y-105940327D01*
X131711765Y-105676446D01*
X131973943Y-105568117D01*
X132237192Y-105305327D01*
X132346765Y-105041446D01*
X132590000Y-104940944D01*
X132590000Y-106045000D01*
X132647852Y-106335839D01*
X132812599Y-106582401D01*
X133447599Y-107217401D01*
X133694161Y-107382148D01*
X133985000Y-107440000D01*
X135947005Y-107440000D01*
X136117189Y-107694698D01*
X136418681Y-107896148D01*
X136253295Y-107929046D01*
X136022954Y-108082954D01*
X135869046Y-108313295D01*
X135815000Y-108585000D01*
X135815000Y-114935000D01*
X135828643Y-115003586D01*
X135828643Y-115073514D01*
X135855403Y-115138119D01*
X135869046Y-115206705D01*
X135907896Y-115264849D01*
X135934657Y-115329455D01*
X139165541Y-120164817D01*
X140272526Y-125730000D01*
X139165541Y-131295183D01*
X136013119Y-136013119D01*
X131295185Y-139165541D01*
X125729998Y-140272525D01*
X120164817Y-139165541D01*
X115329455Y-135934657D01*
X115264849Y-135907896D01*
X115206705Y-135869046D01*
X115138119Y-135855403D01*
X115073514Y-135828643D01*
X115003586Y-135828643D01*
X114935000Y-135815000D01*
X104844931Y-135815000D01*
X103351001Y-135517839D01*
X102143791Y-134711209D01*
X101337161Y-133504001D01*
X101040000Y-132010069D01*
X101040000Y-83820000D01*
X103260907Y-83820000D01*
X103373946Y-84388285D01*
X103695853Y-84870054D01*
X104025026Y-85090000D01*
X103695853Y-85309946D01*
X103373946Y-85791715D01*
X103260907Y-86360000D01*
X103373946Y-86928285D01*
X103695853Y-87410054D01*
X104025026Y-87630000D01*
X103695853Y-87849946D01*
X103373946Y-88331715D01*
X103260907Y-88900000D01*
X103373946Y-89468285D01*
X103695853Y-89950054D01*
X104025026Y-90170000D01*
X103695853Y-90389946D01*
X103373946Y-90871715D01*
X103260907Y-91440000D01*
X103373946Y-92008285D01*
X103695853Y-92490054D01*
X104025026Y-92710000D01*
X103695853Y-92929946D01*
X103373946Y-93411715D01*
X103260907Y-93980000D01*
X103373946Y-94548285D01*
X103695853Y-95030054D01*
X104025026Y-95250000D01*
X103695853Y-95469946D01*
X103373946Y-95951715D01*
X103260907Y-96520000D01*
X103373946Y-97088285D01*
X103695853Y-97570054D01*
X104025026Y-97790000D01*
X103695853Y-98009946D01*
X103373946Y-98491715D01*
X103260907Y-99060000D01*
X103373946Y-99628285D01*
X103695853Y-100110054D01*
X104025026Y-100330000D01*
X103695853Y-100549946D01*
X103373946Y-101031715D01*
X103260907Y-101600000D01*
X103373946Y-102168285D01*
X103695853Y-102650054D01*
X104025026Y-102870000D01*
X103695853Y-103089946D01*
X103373946Y-103571715D01*
X103260907Y-104140000D01*
X103373946Y-104708285D01*
X103695853Y-105190054D01*
X104025026Y-105410000D01*
X103695853Y-105629946D01*
X103373946Y-106111715D01*
X103260907Y-106680000D01*
X103373946Y-107248285D01*
X103695853Y-107730054D01*
X104025026Y-107950000D01*
X103695853Y-108169946D01*
X103373946Y-108651715D01*
X103260907Y-109220000D01*
X103373946Y-109788285D01*
X103695853Y-110270054D01*
X104025026Y-110490000D01*
X103695853Y-110709946D01*
X103373946Y-111191715D01*
X103260907Y-111760000D01*
X103373946Y-112328285D01*
X103695853Y-112810054D01*
X104025026Y-113030000D01*
X103695853Y-113249946D01*
X103373946Y-113731715D01*
X103260907Y-114300000D01*
X103373946Y-114868285D01*
X103695853Y-115350054D01*
X104025026Y-115570000D01*
X103695853Y-115789946D01*
X103373946Y-116271715D01*
X103260907Y-116840000D01*
X103373946Y-117408285D01*
X103695853Y-117890054D01*
X104025026Y-118110000D01*
X103695853Y-118329946D01*
X103373946Y-118811715D01*
X103260907Y-119380000D01*
X103373946Y-119948285D01*
X103695853Y-120430054D01*
X104025026Y-120650000D01*
X103695853Y-120869946D01*
X103373946Y-121351715D01*
X103260907Y-121920000D01*
X103373946Y-122488285D01*
X103695853Y-122970054D01*
X104025026Y-123190000D01*
X103695853Y-123409946D01*
X103373946Y-123891715D01*
X103260907Y-124460000D01*
X103373946Y-125028285D01*
X103695853Y-125510054D01*
X104025026Y-125730000D01*
X103695853Y-125949946D01*
X103373946Y-126431715D01*
X103260907Y-127000000D01*
X103373946Y-127568285D01*
X103695853Y-128050054D01*
X104025026Y-128270000D01*
X103695853Y-128489946D01*
X103373946Y-128971715D01*
X103260907Y-129540000D01*
X103373946Y-130108285D01*
X103695853Y-130590054D01*
X104025026Y-130810000D01*
X103695853Y-131029946D01*
X103373946Y-131511715D01*
X103260907Y-132080000D01*
X103373946Y-132648285D01*
X103695853Y-133130054D01*
X104177622Y-133451961D01*
X104745907Y-133565000D01*
X104804093Y-133565000D01*
X105372378Y-133451961D01*
X105854147Y-133130054D01*
X105858097Y-133124142D01*
X105926673Y-133289699D01*
X106105302Y-133468327D01*
X106338691Y-133565000D01*
X107029250Y-133565000D01*
X107188000Y-133406250D01*
X107188000Y-132207000D01*
X107442000Y-132207000D01*
X107442000Y-133406250D01*
X107600750Y-133565000D01*
X108291309Y-133565000D01*
X108524698Y-133468327D01*
X108703327Y-133289699D01*
X108800000Y-133056310D01*
X108800000Y-132365750D01*
X108641250Y-132207000D01*
X107442000Y-132207000D01*
X107188000Y-132207000D01*
X107168000Y-132207000D01*
X107168000Y-131953000D01*
X107188000Y-131953000D01*
X107188000Y-131933000D01*
X107442000Y-131933000D01*
X107442000Y-131953000D01*
X108641250Y-131953000D01*
X108800000Y-131794250D01*
X108800000Y-131103690D01*
X108703327Y-130870301D01*
X108524698Y-130691673D01*
X108350223Y-130619403D01*
X108394147Y-130590054D01*
X108716054Y-130108285D01*
X108829093Y-129540000D01*
X108716054Y-128971715D01*
X108394147Y-128489946D01*
X108064974Y-128270000D01*
X108394147Y-128050054D01*
X108716054Y-127568285D01*
X108829093Y-127000000D01*
X108716054Y-126431715D01*
X108432043Y-126006661D01*
X116832758Y-126006661D01*
X117044990Y-126520303D01*
X117437630Y-126913629D01*
X117950900Y-127126757D01*
X118506661Y-127127242D01*
X119020303Y-126915010D01*
X119413629Y-126522370D01*
X119479900Y-126362772D01*
X119544990Y-126520303D01*
X119937630Y-126913629D01*
X120450900Y-127126757D01*
X121006661Y-127127242D01*
X121520303Y-126915010D01*
X121598235Y-126837213D01*
X129929392Y-126837213D01*
X129998857Y-127079397D01*
X130522302Y-127266144D01*
X131077368Y-127238362D01*
X131461143Y-127079397D01*
X131530608Y-126837213D01*
X131403608Y-126710213D01*
X132429392Y-126710213D01*
X132498857Y-126952397D01*
X133022302Y-127139144D01*
X133577368Y-127111362D01*
X133961143Y-126952397D01*
X134030608Y-126710213D01*
X133230000Y-125909605D01*
X132429392Y-126710213D01*
X131403608Y-126710213D01*
X130730000Y-126036605D01*
X129929392Y-126837213D01*
X121598235Y-126837213D01*
X121913629Y-126522370D01*
X122126757Y-126009100D01*
X122127070Y-125649302D01*
X129320856Y-125649302D01*
X129348638Y-126204368D01*
X129507603Y-126588143D01*
X129749787Y-126657608D01*
X130550395Y-125857000D01*
X130909605Y-125857000D01*
X131710213Y-126657608D01*
X131952397Y-126588143D01*
X132002286Y-126448306D01*
X132007603Y-126461143D01*
X132249787Y-126530608D01*
X133050395Y-125730000D01*
X133409605Y-125730000D01*
X134210213Y-126530608D01*
X134452397Y-126461143D01*
X134639144Y-125937698D01*
X134611362Y-125382632D01*
X134452397Y-124998857D01*
X134210213Y-124929392D01*
X133409605Y-125730000D01*
X133050395Y-125730000D01*
X132249787Y-124929392D01*
X132007603Y-124998857D01*
X131957714Y-125138694D01*
X131952397Y-125125857D01*
X131710213Y-125056392D01*
X130909605Y-125857000D01*
X130550395Y-125857000D01*
X129749787Y-125056392D01*
X129507603Y-125125857D01*
X129320856Y-125649302D01*
X122127070Y-125649302D01*
X122127242Y-125453339D01*
X121915010Y-124939697D01*
X121852210Y-124876787D01*
X129929392Y-124876787D01*
X130730000Y-125677395D01*
X131530608Y-124876787D01*
X131494181Y-124749787D01*
X132429392Y-124749787D01*
X133230000Y-125550395D01*
X134030608Y-124749787D01*
X133961143Y-124507603D01*
X133437698Y-124320856D01*
X132882632Y-124348638D01*
X132498857Y-124507603D01*
X132429392Y-124749787D01*
X131494181Y-124749787D01*
X131461143Y-124634603D01*
X130937698Y-124447856D01*
X130382632Y-124475638D01*
X129998857Y-124634603D01*
X129929392Y-124876787D01*
X121852210Y-124876787D01*
X121522370Y-124546371D01*
X121009100Y-124333243D01*
X120453339Y-124332758D01*
X119939697Y-124544990D01*
X119546371Y-124937630D01*
X119480100Y-125097228D01*
X119415010Y-124939697D01*
X119022370Y-124546371D01*
X118509100Y-124333243D01*
X117953339Y-124332758D01*
X117439697Y-124544990D01*
X117046371Y-124937630D01*
X116833243Y-125450900D01*
X116832758Y-126006661D01*
X108432043Y-126006661D01*
X108394147Y-125949946D01*
X108064974Y-125730000D01*
X108394147Y-125510054D01*
X108716054Y-125028285D01*
X108829093Y-124460000D01*
X108716054Y-123891715D01*
X108394147Y-123409946D01*
X108064974Y-123190000D01*
X108394147Y-122970054D01*
X108716054Y-122488285D01*
X108829093Y-121920000D01*
X108716054Y-121351715D01*
X108394147Y-120869946D01*
X108064974Y-120650000D01*
X108394147Y-120430054D01*
X108716054Y-119948285D01*
X108829093Y-119380000D01*
X108716054Y-118811715D01*
X108394147Y-118329946D01*
X108064974Y-118110000D01*
X108394147Y-117890054D01*
X108716054Y-117408285D01*
X108829093Y-116840000D01*
X108716054Y-116271715D01*
X108394147Y-115789946D01*
X108064974Y-115570000D01*
X108394147Y-115350054D01*
X108716054Y-114868285D01*
X108829093Y-114300000D01*
X108716054Y-113731715D01*
X108394147Y-113249946D01*
X108064974Y-113030000D01*
X108394147Y-112810054D01*
X108716054Y-112328285D01*
X108829093Y-111760000D01*
X108716054Y-111191715D01*
X108394147Y-110709946D01*
X108064974Y-110490000D01*
X108394147Y-110270054D01*
X108716054Y-109788285D01*
X108829093Y-109220000D01*
X108716054Y-108651715D01*
X108394147Y-108169946D01*
X108342097Y-108135167D01*
X124794838Y-108135167D01*
X124936883Y-108478943D01*
X124970000Y-108512118D01*
X124970000Y-113102537D01*
X124937808Y-113134673D01*
X124795162Y-113478201D01*
X124794838Y-113850167D01*
X124936883Y-114193943D01*
X125199673Y-114457192D01*
X125543201Y-114599838D01*
X125915167Y-114600162D01*
X126258943Y-114458117D01*
X126522192Y-114195327D01*
X126664838Y-113851799D01*
X126665162Y-113479833D01*
X126523117Y-113136057D01*
X126490000Y-113102882D01*
X126490000Y-108512463D01*
X126522192Y-108480327D01*
X126664838Y-108136799D01*
X126665162Y-107764833D01*
X126523117Y-107421057D01*
X126260327Y-107157808D01*
X125950219Y-107029039D01*
X128148096Y-107029039D01*
X128308959Y-107417423D01*
X128684866Y-107832389D01*
X129190959Y-108071914D01*
X129413000Y-107950629D01*
X129413000Y-106807000D01*
X129667000Y-106807000D01*
X129667000Y-107950629D01*
X129889041Y-108071914D01*
X130395134Y-107832389D01*
X130771041Y-107417423D01*
X130931904Y-107029039D01*
X130809915Y-106807000D01*
X129667000Y-106807000D01*
X129413000Y-106807000D01*
X128270085Y-106807000D01*
X128148096Y-107029039D01*
X125950219Y-107029039D01*
X125916799Y-107015162D01*
X125544833Y-107014838D01*
X125201057Y-107156883D01*
X124937808Y-107419673D01*
X124795162Y-107763201D01*
X124794838Y-108135167D01*
X108342097Y-108135167D01*
X108064974Y-107950000D01*
X108394147Y-107730054D01*
X108716054Y-107248285D01*
X108759664Y-107029039D01*
X112908096Y-107029039D01*
X113068959Y-107417423D01*
X113444866Y-107832389D01*
X113950959Y-108071914D01*
X114173000Y-107950629D01*
X114173000Y-106807000D01*
X114427000Y-106807000D01*
X114427000Y-107950629D01*
X114649041Y-108071914D01*
X115155134Y-107832389D01*
X115531041Y-107417423D01*
X115691904Y-107029039D01*
X115569915Y-106807000D01*
X114427000Y-106807000D01*
X114173000Y-106807000D01*
X113030085Y-106807000D01*
X112908096Y-107029039D01*
X108759664Y-107029039D01*
X108829093Y-106680000D01*
X108716054Y-106111715D01*
X108394147Y-105629946D01*
X108064974Y-105410000D01*
X108394147Y-105190054D01*
X108716054Y-104708285D01*
X108829093Y-104140000D01*
X112836887Y-104140000D01*
X112946120Y-104689151D01*
X113257189Y-105154698D01*
X113661703Y-105424986D01*
X113444866Y-105527611D01*
X113068959Y-105942577D01*
X112908096Y-106330961D01*
X113030085Y-106553000D01*
X114173000Y-106553000D01*
X114173000Y-106533000D01*
X114427000Y-106533000D01*
X114427000Y-106553000D01*
X115569915Y-106553000D01*
X115691904Y-106330961D01*
X115531041Y-105942577D01*
X115155134Y-105527611D01*
X114938297Y-105424986D01*
X115342811Y-105154698D01*
X115653880Y-104689151D01*
X115763113Y-104140000D01*
X120456887Y-104140000D01*
X120566120Y-104689151D01*
X120877189Y-105154698D01*
X121259275Y-105410000D01*
X120877189Y-105665302D01*
X120566120Y-106130849D01*
X120456887Y-106680000D01*
X120566120Y-107229151D01*
X120877189Y-107694698D01*
X121342736Y-108005767D01*
X121891887Y-108115000D01*
X121948113Y-108115000D01*
X122497264Y-108005767D01*
X122962811Y-107694698D01*
X123273880Y-107229151D01*
X123383113Y-106680000D01*
X123273880Y-106130849D01*
X122962811Y-105665302D01*
X122580725Y-105410000D01*
X122962811Y-105154698D01*
X123273880Y-104689151D01*
X123383113Y-104140000D01*
X123273880Y-103590849D01*
X122962811Y-103125302D01*
X122558297Y-102855014D01*
X122775134Y-102752389D01*
X123151041Y-102337423D01*
X123311904Y-101949039D01*
X123189915Y-101727000D01*
X122047000Y-101727000D01*
X122047000Y-101747000D01*
X121793000Y-101747000D01*
X121793000Y-101727000D01*
X120650085Y-101727000D01*
X120528096Y-101949039D01*
X120688959Y-102337423D01*
X121064866Y-102752389D01*
X121281703Y-102855014D01*
X120877189Y-103125302D01*
X120566120Y-103590849D01*
X120456887Y-104140000D01*
X115763113Y-104140000D01*
X115653880Y-103590849D01*
X115342811Y-103125302D01*
X114938297Y-102855014D01*
X115155134Y-102752389D01*
X115531041Y-102337423D01*
X115691904Y-101949039D01*
X115569915Y-101727000D01*
X114427000Y-101727000D01*
X114427000Y-101747000D01*
X114173000Y-101747000D01*
X114173000Y-101727000D01*
X113030085Y-101727000D01*
X112908096Y-101949039D01*
X113068959Y-102337423D01*
X113444866Y-102752389D01*
X113661703Y-102855014D01*
X113257189Y-103125302D01*
X112946120Y-103590849D01*
X112836887Y-104140000D01*
X108829093Y-104140000D01*
X108716054Y-103571715D01*
X108394147Y-103089946D01*
X108064974Y-102870000D01*
X108394147Y-102650054D01*
X108716054Y-102168285D01*
X108829093Y-101600000D01*
X108716054Y-101031715D01*
X108394147Y-100549946D01*
X108064974Y-100330000D01*
X108394147Y-100110054D01*
X108716054Y-99628285D01*
X108759664Y-99409039D01*
X112908096Y-99409039D01*
X113068959Y-99797423D01*
X113444866Y-100212389D01*
X113693367Y-100330000D01*
X113444866Y-100447611D01*
X113068959Y-100862577D01*
X112908096Y-101250961D01*
X113030085Y-101473000D01*
X114173000Y-101473000D01*
X114173000Y-99187000D01*
X114427000Y-99187000D01*
X114427000Y-101473000D01*
X115569915Y-101473000D01*
X115691904Y-101250961D01*
X115531041Y-100862577D01*
X115155134Y-100447611D01*
X114906633Y-100330000D01*
X115155134Y-100212389D01*
X115531041Y-99797423D01*
X115691904Y-99409039D01*
X120528096Y-99409039D01*
X120688959Y-99797423D01*
X121064866Y-100212389D01*
X121313367Y-100330000D01*
X121064866Y-100447611D01*
X120688959Y-100862577D01*
X120528096Y-101250961D01*
X120650085Y-101473000D01*
X121793000Y-101473000D01*
X121793000Y-99187000D01*
X122047000Y-99187000D01*
X122047000Y-101473000D01*
X123189915Y-101473000D01*
X123311904Y-101250961D01*
X123151041Y-100862577D01*
X122775134Y-100447611D01*
X122526633Y-100330000D01*
X122775134Y-100212389D01*
X123151041Y-99797423D01*
X123311904Y-99409039D01*
X123189915Y-99187000D01*
X122047000Y-99187000D01*
X121793000Y-99187000D01*
X120650085Y-99187000D01*
X120528096Y-99409039D01*
X115691904Y-99409039D01*
X115569915Y-99187000D01*
X114427000Y-99187000D01*
X114173000Y-99187000D01*
X113030085Y-99187000D01*
X112908096Y-99409039D01*
X108759664Y-99409039D01*
X108829093Y-99060000D01*
X108716054Y-98491715D01*
X108394147Y-98009946D01*
X108064974Y-97790000D01*
X108394147Y-97570054D01*
X108716054Y-97088285D01*
X108829093Y-96520000D01*
X108716054Y-95951715D01*
X108394147Y-95469946D01*
X108064974Y-95250000D01*
X108394147Y-95030054D01*
X108716054Y-94548285D01*
X108829093Y-93980000D01*
X112836887Y-93980000D01*
X112946120Y-94529151D01*
X113257189Y-94994698D01*
X113639275Y-95250000D01*
X113257189Y-95505302D01*
X112946120Y-95970849D01*
X112836887Y-96520000D01*
X112946120Y-97069151D01*
X113257189Y-97534698D01*
X113661703Y-97804986D01*
X113444866Y-97907611D01*
X113068959Y-98322577D01*
X112908096Y-98710961D01*
X113030085Y-98933000D01*
X114173000Y-98933000D01*
X114173000Y-98913000D01*
X114427000Y-98913000D01*
X114427000Y-98933000D01*
X115569915Y-98933000D01*
X115691904Y-98710961D01*
X115531041Y-98322577D01*
X115155134Y-97907611D01*
X114938297Y-97804986D01*
X115342811Y-97534698D01*
X115653880Y-97069151D01*
X115763113Y-96520000D01*
X115653880Y-95970849D01*
X115342811Y-95505302D01*
X114960725Y-95250000D01*
X115342811Y-94994698D01*
X115653880Y-94529151D01*
X115763113Y-93980000D01*
X120456887Y-93980000D01*
X120566120Y-94529151D01*
X120877189Y-94994698D01*
X121259275Y-95250000D01*
X120877189Y-95505302D01*
X120566120Y-95970849D01*
X120456887Y-96520000D01*
X120566120Y-97069151D01*
X120877189Y-97534698D01*
X121281703Y-97804986D01*
X121064866Y-97907611D01*
X120688959Y-98322577D01*
X120528096Y-98710961D01*
X120650085Y-98933000D01*
X121793000Y-98933000D01*
X121793000Y-98913000D01*
X122047000Y-98913000D01*
X122047000Y-98933000D01*
X123189915Y-98933000D01*
X123311904Y-98710961D01*
X123151041Y-98322577D01*
X122775134Y-97907611D01*
X122558297Y-97804986D01*
X122962811Y-97534698D01*
X123273880Y-97069151D01*
X123326584Y-96804187D01*
X124294752Y-96804187D01*
X124512757Y-97331800D01*
X124916077Y-97735824D01*
X125443309Y-97954750D01*
X126014187Y-97955248D01*
X126541800Y-97737243D01*
X126945824Y-97333923D01*
X127164750Y-96806691D01*
X127165248Y-96235813D01*
X126947243Y-95708200D01*
X126543923Y-95304176D01*
X126016691Y-95085250D01*
X125445813Y-95084752D01*
X124918200Y-95302757D01*
X124514176Y-95706077D01*
X124295250Y-96233309D01*
X124294752Y-96804187D01*
X123326584Y-96804187D01*
X123383113Y-96520000D01*
X123273880Y-95970849D01*
X122962811Y-95505302D01*
X122580725Y-95250000D01*
X122962811Y-94994698D01*
X123273880Y-94529151D01*
X123383113Y-93980000D01*
X123273880Y-93430849D01*
X122962811Y-92965302D01*
X122558297Y-92695014D01*
X122775134Y-92592389D01*
X123151041Y-92177423D01*
X123311904Y-91789039D01*
X123189915Y-91567000D01*
X122047000Y-91567000D01*
X122047000Y-91587000D01*
X121793000Y-91587000D01*
X121793000Y-91567000D01*
X120650085Y-91567000D01*
X120528096Y-91789039D01*
X120688959Y-92177423D01*
X121064866Y-92592389D01*
X121281703Y-92695014D01*
X120877189Y-92965302D01*
X120566120Y-93430849D01*
X120456887Y-93980000D01*
X115763113Y-93980000D01*
X115653880Y-93430849D01*
X115342811Y-92965302D01*
X114938297Y-92695014D01*
X115155134Y-92592389D01*
X115531041Y-92177423D01*
X115691904Y-91789039D01*
X115569915Y-91567000D01*
X114427000Y-91567000D01*
X114427000Y-91587000D01*
X114173000Y-91587000D01*
X114173000Y-91567000D01*
X113030085Y-91567000D01*
X112908096Y-91789039D01*
X113068959Y-92177423D01*
X113444866Y-92592389D01*
X113661703Y-92695014D01*
X113257189Y-92965302D01*
X112946120Y-93430849D01*
X112836887Y-93980000D01*
X108829093Y-93980000D01*
X108716054Y-93411715D01*
X108394147Y-92929946D01*
X108064974Y-92710000D01*
X108394147Y-92490054D01*
X108716054Y-92008285D01*
X108829093Y-91440000D01*
X108716054Y-90871715D01*
X108394147Y-90389946D01*
X108064974Y-90170000D01*
X108394147Y-89950054D01*
X108716054Y-89468285D01*
X108829093Y-88900000D01*
X108716054Y-88331715D01*
X108394147Y-87849946D01*
X108064974Y-87630000D01*
X108394147Y-87410054D01*
X108716054Y-86928285D01*
X108829093Y-86360000D01*
X112836887Y-86360000D01*
X112946120Y-86909151D01*
X113257189Y-87374698D01*
X113639275Y-87630000D01*
X113257189Y-87885302D01*
X112946120Y-88350849D01*
X112836887Y-88900000D01*
X112946120Y-89449151D01*
X113257189Y-89914698D01*
X113661703Y-90184986D01*
X113444866Y-90287611D01*
X113068959Y-90702577D01*
X112908096Y-91090961D01*
X113030085Y-91313000D01*
X114173000Y-91313000D01*
X114173000Y-91293000D01*
X114427000Y-91293000D01*
X114427000Y-91313000D01*
X115569915Y-91313000D01*
X115691904Y-91090961D01*
X115531041Y-90702577D01*
X115155134Y-90287611D01*
X114938297Y-90184986D01*
X115342811Y-89914698D01*
X115653880Y-89449151D01*
X115693684Y-89249039D01*
X120528096Y-89249039D01*
X120688959Y-89637423D01*
X121064866Y-90052389D01*
X121313367Y-90170000D01*
X121064866Y-90287611D01*
X120688959Y-90702577D01*
X120528096Y-91090961D01*
X120650085Y-91313000D01*
X121793000Y-91313000D01*
X121793000Y-89027000D01*
X122047000Y-89027000D01*
X122047000Y-91313000D01*
X123189915Y-91313000D01*
X123311904Y-91090961D01*
X123151041Y-90702577D01*
X122775134Y-90287611D01*
X122526633Y-90170000D01*
X122775134Y-90052389D01*
X123151041Y-89637423D01*
X123311904Y-89249039D01*
X123189915Y-89027000D01*
X122047000Y-89027000D01*
X121793000Y-89027000D01*
X120650085Y-89027000D01*
X120528096Y-89249039D01*
X115693684Y-89249039D01*
X115763113Y-88900000D01*
X115653880Y-88350849D01*
X115342811Y-87885302D01*
X114960725Y-87630000D01*
X115342811Y-87374698D01*
X115653880Y-86909151D01*
X115763113Y-86360000D01*
X115653880Y-85810849D01*
X115342811Y-85345302D01*
X115207665Y-85255000D01*
X115226309Y-85255000D01*
X115459698Y-85158327D01*
X115638327Y-84979699D01*
X115735000Y-84746310D01*
X115735000Y-84105750D01*
X115576250Y-83947000D01*
X114427000Y-83947000D01*
X114427000Y-83967000D01*
X114173000Y-83967000D01*
X114173000Y-83947000D01*
X113023750Y-83947000D01*
X112865000Y-84105750D01*
X112865000Y-84746310D01*
X112961673Y-84979699D01*
X113140302Y-85158327D01*
X113373691Y-85255000D01*
X113392335Y-85255000D01*
X113257189Y-85345302D01*
X112946120Y-85810849D01*
X112836887Y-86360000D01*
X108829093Y-86360000D01*
X108716054Y-85791715D01*
X108394147Y-85309946D01*
X108053447Y-85082298D01*
X108196358Y-85015183D01*
X108586645Y-84586924D01*
X108756476Y-84176890D01*
X108635155Y-83947000D01*
X107442000Y-83947000D01*
X107442000Y-83967000D01*
X107188000Y-83967000D01*
X107188000Y-83947000D01*
X107168000Y-83947000D01*
X107168000Y-83693000D01*
X107188000Y-83693000D01*
X107188000Y-82499181D01*
X107442000Y-82499181D01*
X107442000Y-83693000D01*
X108635155Y-83693000D01*
X108756476Y-83463110D01*
X108586645Y-83053076D01*
X108441392Y-82893690D01*
X112865000Y-82893690D01*
X112865000Y-83534250D01*
X113023750Y-83693000D01*
X114173000Y-83693000D01*
X114173000Y-82543750D01*
X114427000Y-82543750D01*
X114427000Y-83693000D01*
X115576250Y-83693000D01*
X115735000Y-83534250D01*
X115735000Y-82893690D01*
X115638327Y-82660301D01*
X115459698Y-82481673D01*
X115226309Y-82385000D01*
X114585750Y-82385000D01*
X114427000Y-82543750D01*
X114173000Y-82543750D01*
X114014250Y-82385000D01*
X113373691Y-82385000D01*
X113140302Y-82481673D01*
X112961673Y-82660301D01*
X112865000Y-82893690D01*
X108441392Y-82893690D01*
X108196358Y-82624817D01*
X107671892Y-82378514D01*
X107442000Y-82499181D01*
X107188000Y-82499181D01*
X106958108Y-82378514D01*
X106433642Y-82624817D01*
X106043355Y-83053076D01*
X106043345Y-83053101D01*
X105854147Y-82769946D01*
X105372378Y-82448039D01*
X104804093Y-82335000D01*
X104745907Y-82335000D01*
X104177622Y-82448039D01*
X103695853Y-82769946D01*
X103373946Y-83251715D01*
X103260907Y-83820000D01*
X101040000Y-83820000D01*
X101040000Y-81017745D01*
X114821861Y-81017745D01*
X114895995Y-81263864D01*
X115433223Y-81456965D01*
X116003454Y-81429778D01*
X116404005Y-81263864D01*
X116478139Y-81017745D01*
X115650000Y-80189605D01*
X114821861Y-81017745D01*
X101040000Y-81017745D01*
X101040000Y-79793223D01*
X114203035Y-79793223D01*
X114230222Y-80363454D01*
X114396136Y-80764005D01*
X114642255Y-80838139D01*
X115470395Y-80010000D01*
X115829605Y-80010000D01*
X116657745Y-80838139D01*
X116903864Y-80764005D01*
X117072735Y-80294187D01*
X119214752Y-80294187D01*
X119432757Y-80821800D01*
X119836077Y-81225824D01*
X120363309Y-81444750D01*
X120934187Y-81445248D01*
X120988149Y-81422951D01*
X121160000Y-81594802D01*
X121160000Y-82616333D01*
X120877189Y-82805302D01*
X120566120Y-83270849D01*
X120456887Y-83820000D01*
X120566120Y-84369151D01*
X120877189Y-84834698D01*
X121259275Y-85090000D01*
X120877189Y-85345302D01*
X120566120Y-85810849D01*
X120456887Y-86360000D01*
X120566120Y-86909151D01*
X120877189Y-87374698D01*
X121281703Y-87644986D01*
X121064866Y-87747611D01*
X120688959Y-88162577D01*
X120528096Y-88550961D01*
X120650085Y-88773000D01*
X121793000Y-88773000D01*
X121793000Y-88753000D01*
X122047000Y-88753000D01*
X122047000Y-88773000D01*
X123189915Y-88773000D01*
X123311904Y-88550961D01*
X123151041Y-88162577D01*
X122775134Y-87747611D01*
X122558297Y-87644986D01*
X122962811Y-87374698D01*
X123273880Y-86909151D01*
X123383113Y-86360000D01*
X123377521Y-86331887D01*
X124295000Y-86331887D01*
X124295000Y-86388113D01*
X124404233Y-86937264D01*
X124715302Y-87402811D01*
X125180849Y-87713880D01*
X125730000Y-87823113D01*
X126279151Y-87713880D01*
X126744698Y-87402811D01*
X127055767Y-86937264D01*
X127165000Y-86388113D01*
X127165000Y-86331887D01*
X127055767Y-85782736D01*
X126744698Y-85317189D01*
X126279151Y-85006120D01*
X125730000Y-84896887D01*
X125180849Y-85006120D01*
X124715302Y-85317189D01*
X124404233Y-85782736D01*
X124295000Y-86331887D01*
X123377521Y-86331887D01*
X123273880Y-85810849D01*
X122962811Y-85345302D01*
X122580725Y-85090000D01*
X122962811Y-84834698D01*
X123273880Y-84369151D01*
X123383113Y-83820000D01*
X123273880Y-83270849D01*
X123021871Y-82893690D01*
X128105000Y-82893690D01*
X128105000Y-83534250D01*
X128263750Y-83693000D01*
X129413000Y-83693000D01*
X129413000Y-82543750D01*
X129667000Y-82543750D01*
X129667000Y-83693000D01*
X130816250Y-83693000D01*
X130975000Y-83534250D01*
X130975000Y-82893690D01*
X130878327Y-82660301D01*
X130699698Y-82481673D01*
X130466309Y-82385000D01*
X129825750Y-82385000D01*
X129667000Y-82543750D01*
X129413000Y-82543750D01*
X129254250Y-82385000D01*
X128613691Y-82385000D01*
X128380302Y-82481673D01*
X128201673Y-82660301D01*
X128105000Y-82893690D01*
X123021871Y-82893690D01*
X122962811Y-82805302D01*
X122680000Y-82616333D01*
X122680000Y-81280000D01*
X122627834Y-81017745D01*
X130061861Y-81017745D01*
X130135995Y-81263864D01*
X130673223Y-81456965D01*
X131243454Y-81429778D01*
X131644005Y-81263864D01*
X131718139Y-81017745D01*
X130890000Y-80189605D01*
X130061861Y-81017745D01*
X122627834Y-81017745D01*
X122622148Y-80989161D01*
X122622148Y-80989160D01*
X122457401Y-80742599D01*
X122063256Y-80348454D01*
X122084750Y-80296691D01*
X122085189Y-79793223D01*
X129443035Y-79793223D01*
X129470222Y-80363454D01*
X129636136Y-80764005D01*
X129882255Y-80838139D01*
X130710395Y-80010000D01*
X131069605Y-80010000D01*
X131897745Y-80838139D01*
X132143864Y-80764005D01*
X132336965Y-80226777D01*
X132309778Y-79656546D01*
X132143864Y-79255995D01*
X131897745Y-79181861D01*
X131069605Y-80010000D01*
X130710395Y-80010000D01*
X129882255Y-79181861D01*
X129636136Y-79255995D01*
X129443035Y-79793223D01*
X122085189Y-79793223D01*
X122085248Y-79725813D01*
X121867243Y-79198200D01*
X121671640Y-79002255D01*
X130061861Y-79002255D01*
X130890000Y-79830395D01*
X131718139Y-79002255D01*
X131644005Y-78756136D01*
X131106777Y-78563035D01*
X130536546Y-78590222D01*
X130135995Y-78756136D01*
X130061861Y-79002255D01*
X121671640Y-79002255D01*
X121463923Y-78794176D01*
X120936691Y-78575250D01*
X120365813Y-78574752D01*
X119838200Y-78792757D01*
X119434176Y-79196077D01*
X119215250Y-79723309D01*
X119214752Y-80294187D01*
X117072735Y-80294187D01*
X117096965Y-80226777D01*
X117069778Y-79656546D01*
X116903864Y-79255995D01*
X116657745Y-79181861D01*
X115829605Y-80010000D01*
X115470395Y-80010000D01*
X114642255Y-79181861D01*
X114396136Y-79255995D01*
X114203035Y-79793223D01*
X101040000Y-79793223D01*
X101040000Y-79002255D01*
X114821861Y-79002255D01*
X115650000Y-79830395D01*
X116478139Y-79002255D01*
X116404005Y-78756136D01*
X115866777Y-78563035D01*
X115296546Y-78590222D01*
X114895995Y-78756136D01*
X114821861Y-79002255D01*
X101040000Y-79002255D01*
X101040000Y-75636875D01*
X101480727Y-76703515D01*
X102361847Y-77586174D01*
X103513674Y-78064454D01*
X104760854Y-78065543D01*
X105913515Y-77589273D01*
X106796174Y-76708153D01*
X107274454Y-75556326D01*
X107275543Y-74309146D01*
X106799273Y-73156485D01*
X106108994Y-72465000D01*
X113030000Y-72465000D01*
X113301705Y-72410954D01*
X113532046Y-72257046D01*
X113685954Y-72026705D01*
X113740000Y-71755000D01*
X113740000Y-70770750D01*
X115940000Y-70770750D01*
X115940000Y-71511310D01*
X116036673Y-71744699D01*
X116215302Y-71923327D01*
X116448691Y-72020000D01*
X117189250Y-72020000D01*
X117348000Y-71861250D01*
X117348000Y-70612000D01*
X116098750Y-70612000D01*
X115940000Y-70770750D01*
X113740000Y-70770750D01*
X113740000Y-69458690D01*
X115940000Y-69458690D01*
X115940000Y-70199250D01*
X116098750Y-70358000D01*
X117348000Y-70358000D01*
X117348000Y-69108750D01*
X117602000Y-69108750D01*
X117602000Y-70358000D01*
X117622000Y-70358000D01*
X117622000Y-70612000D01*
X117602000Y-70612000D01*
X117602000Y-71861250D01*
X117760750Y-72020000D01*
X118501309Y-72020000D01*
X118734698Y-71923327D01*
X118913327Y-71744699D01*
X118969119Y-71610006D01*
X119144357Y-71785551D01*
X119708330Y-72019733D01*
X120318991Y-72020265D01*
X120883371Y-71787068D01*
X121315551Y-71355643D01*
X121549733Y-70791670D01*
X121549751Y-70770750D01*
X124830000Y-70770750D01*
X124830000Y-71511310D01*
X124926673Y-71744699D01*
X125105302Y-71923327D01*
X125338691Y-72020000D01*
X126079250Y-72020000D01*
X126238000Y-71861250D01*
X126238000Y-70612000D01*
X124988750Y-70612000D01*
X124830000Y-70770750D01*
X121549751Y-70770750D01*
X121550265Y-70181009D01*
X121317068Y-69616629D01*
X121159405Y-69458690D01*
X124830000Y-69458690D01*
X124830000Y-70199250D01*
X124988750Y-70358000D01*
X126238000Y-70358000D01*
X126238000Y-69108750D01*
X126492000Y-69108750D01*
X126492000Y-70358000D01*
X126512000Y-70358000D01*
X126512000Y-70612000D01*
X126492000Y-70612000D01*
X126492000Y-71861250D01*
X126650750Y-72020000D01*
X127391309Y-72020000D01*
X127624698Y-71923327D01*
X127803327Y-71744699D01*
X127859119Y-71610006D01*
X128034357Y-71785551D01*
X128598330Y-72019733D01*
X129208991Y-72020265D01*
X129773371Y-71787068D01*
X130205551Y-71355643D01*
X130439733Y-70791670D01*
X130439751Y-70770750D01*
X133720000Y-70770750D01*
X133720000Y-71511310D01*
X133816673Y-71744699D01*
X133995302Y-71923327D01*
X134228691Y-72020000D01*
X134969250Y-72020000D01*
X135128000Y-71861250D01*
X135128000Y-70612000D01*
X133878750Y-70612000D01*
X133720000Y-70770750D01*
X130439751Y-70770750D01*
X130440265Y-70181009D01*
X130207068Y-69616629D01*
X130049405Y-69458690D01*
X133720000Y-69458690D01*
X133720000Y-70199250D01*
X133878750Y-70358000D01*
X135128000Y-70358000D01*
X135128000Y-69108750D01*
X135382000Y-69108750D01*
X135382000Y-70358000D01*
X135402000Y-70358000D01*
X135402000Y-70612000D01*
X135382000Y-70612000D01*
X135382000Y-71861250D01*
X135540750Y-72020000D01*
X136281309Y-72020000D01*
X136514698Y-71923327D01*
X136693327Y-71744699D01*
X136749119Y-71610006D01*
X136924357Y-71785551D01*
X137488330Y-72019733D01*
X138098991Y-72020265D01*
X138663371Y-71787068D01*
X139095551Y-71355643D01*
X139329733Y-70791670D01*
X139329751Y-70770750D01*
X142610000Y-70770750D01*
X142610000Y-71511310D01*
X142706673Y-71744699D01*
X142885302Y-71923327D01*
X143118691Y-72020000D01*
X143859250Y-72020000D01*
X144018000Y-71861250D01*
X144018000Y-70612000D01*
X142768750Y-70612000D01*
X142610000Y-70770750D01*
X139329751Y-70770750D01*
X139330265Y-70181009D01*
X139097068Y-69616629D01*
X138939405Y-69458690D01*
X142610000Y-69458690D01*
X142610000Y-70199250D01*
X142768750Y-70358000D01*
X144018000Y-70358000D01*
X144018000Y-69108750D01*
X144272000Y-69108750D01*
X144272000Y-70358000D01*
X144292000Y-70358000D01*
X144292000Y-70612000D01*
X144272000Y-70612000D01*
X144272000Y-71861250D01*
X144430750Y-72020000D01*
X145171309Y-72020000D01*
X145404698Y-71923327D01*
X145583327Y-71744699D01*
X145639119Y-71610006D01*
X145814357Y-71785551D01*
X146378330Y-72019733D01*
X146988991Y-72020265D01*
X147553371Y-71787068D01*
X147985551Y-71355643D01*
X148219733Y-70791670D01*
X148219751Y-70770750D01*
X151500000Y-70770750D01*
X151500000Y-71511310D01*
X151596673Y-71744699D01*
X151775302Y-71923327D01*
X152008691Y-72020000D01*
X152749250Y-72020000D01*
X152908000Y-71861250D01*
X152908000Y-70612000D01*
X151658750Y-70612000D01*
X151500000Y-70770750D01*
X148219751Y-70770750D01*
X148220265Y-70181009D01*
X147987068Y-69616629D01*
X147829405Y-69458690D01*
X151500000Y-69458690D01*
X151500000Y-70199250D01*
X151658750Y-70358000D01*
X152908000Y-70358000D01*
X152908000Y-69108750D01*
X153162000Y-69108750D01*
X153162000Y-70358000D01*
X153182000Y-70358000D01*
X153182000Y-70612000D01*
X153162000Y-70612000D01*
X153162000Y-71861250D01*
X153320750Y-72020000D01*
X154061309Y-72020000D01*
X154294698Y-71923327D01*
X154473327Y-71744699D01*
X154529119Y-71610006D01*
X154704357Y-71785551D01*
X155268330Y-72019733D01*
X155878991Y-72020265D01*
X156443371Y-71787068D01*
X156875551Y-71355643D01*
X157109733Y-70791670D01*
X157109751Y-70770750D01*
X160390000Y-70770750D01*
X160390000Y-71511310D01*
X160486673Y-71744699D01*
X160665302Y-71923327D01*
X160898691Y-72020000D01*
X161639250Y-72020000D01*
X161798000Y-71861250D01*
X161798000Y-70612000D01*
X160548750Y-70612000D01*
X160390000Y-70770750D01*
X157109751Y-70770750D01*
X157110265Y-70181009D01*
X156877068Y-69616629D01*
X156719405Y-69458690D01*
X160390000Y-69458690D01*
X160390000Y-70199250D01*
X160548750Y-70358000D01*
X161798000Y-70358000D01*
X161798000Y-69108750D01*
X162052000Y-69108750D01*
X162052000Y-70358000D01*
X162072000Y-70358000D01*
X162072000Y-70612000D01*
X162052000Y-70612000D01*
X162052000Y-71861250D01*
X162210750Y-72020000D01*
X162951309Y-72020000D01*
X163184698Y-71923327D01*
X163363327Y-71744699D01*
X163419119Y-71610006D01*
X163594357Y-71785551D01*
X164158330Y-72019733D01*
X164768991Y-72020265D01*
X165333371Y-71787068D01*
X165765551Y-71355643D01*
X165999733Y-70791670D01*
X165999751Y-70770750D01*
X169280000Y-70770750D01*
X169280000Y-71511310D01*
X169376673Y-71744699D01*
X169555302Y-71923327D01*
X169788691Y-72020000D01*
X170529250Y-72020000D01*
X170688000Y-71861250D01*
X170688000Y-70612000D01*
X169438750Y-70612000D01*
X169280000Y-70770750D01*
X165999751Y-70770750D01*
X166000265Y-70181009D01*
X165767068Y-69616629D01*
X165609405Y-69458690D01*
X169280000Y-69458690D01*
X169280000Y-70199250D01*
X169438750Y-70358000D01*
X170688000Y-70358000D01*
X170688000Y-69108750D01*
X170942000Y-69108750D01*
X170942000Y-70358000D01*
X170962000Y-70358000D01*
X170962000Y-70612000D01*
X170942000Y-70612000D01*
X170942000Y-71861250D01*
X171100750Y-72020000D01*
X171841309Y-72020000D01*
X172074698Y-71923327D01*
X172253327Y-71744699D01*
X172309119Y-71610006D01*
X172484357Y-71785551D01*
X173048330Y-72019733D01*
X173658991Y-72020265D01*
X174223371Y-71787068D01*
X174655551Y-71355643D01*
X174889733Y-70791670D01*
X174889751Y-70770750D01*
X178170000Y-70770750D01*
X178170000Y-71511310D01*
X178266673Y-71744699D01*
X178445302Y-71923327D01*
X178678691Y-72020000D01*
X179419250Y-72020000D01*
X179578000Y-71861250D01*
X179578000Y-70612000D01*
X178328750Y-70612000D01*
X178170000Y-70770750D01*
X174889751Y-70770750D01*
X174890265Y-70181009D01*
X174657068Y-69616629D01*
X174499405Y-69458690D01*
X178170000Y-69458690D01*
X178170000Y-70199250D01*
X178328750Y-70358000D01*
X179578000Y-70358000D01*
X179578000Y-69108750D01*
X179832000Y-69108750D01*
X179832000Y-70358000D01*
X179852000Y-70358000D01*
X179852000Y-70612000D01*
X179832000Y-70612000D01*
X179832000Y-71861250D01*
X179990750Y-72020000D01*
X180731309Y-72020000D01*
X180964698Y-71923327D01*
X181143327Y-71744699D01*
X181199119Y-71610006D01*
X181374357Y-71785551D01*
X181938330Y-72019733D01*
X182548991Y-72020265D01*
X183113371Y-71787068D01*
X183545551Y-71355643D01*
X183779733Y-70791670D01*
X183780265Y-70181009D01*
X183547068Y-69616629D01*
X183115643Y-69184449D01*
X182551670Y-68950267D01*
X181941009Y-68949735D01*
X181376629Y-69182932D01*
X181199159Y-69360092D01*
X181143327Y-69225301D01*
X180964698Y-69046673D01*
X180731309Y-68950000D01*
X179990750Y-68950000D01*
X179832000Y-69108750D01*
X179578000Y-69108750D01*
X179419250Y-68950000D01*
X178678691Y-68950000D01*
X178445302Y-69046673D01*
X178266673Y-69225301D01*
X178170000Y-69458690D01*
X174499405Y-69458690D01*
X174225643Y-69184449D01*
X173661670Y-68950267D01*
X173051009Y-68949735D01*
X172486629Y-69182932D01*
X172309159Y-69360092D01*
X172253327Y-69225301D01*
X172074698Y-69046673D01*
X171841309Y-68950000D01*
X171100750Y-68950000D01*
X170942000Y-69108750D01*
X170688000Y-69108750D01*
X170529250Y-68950000D01*
X169788691Y-68950000D01*
X169555302Y-69046673D01*
X169376673Y-69225301D01*
X169280000Y-69458690D01*
X165609405Y-69458690D01*
X165335643Y-69184449D01*
X164771670Y-68950267D01*
X164161009Y-68949735D01*
X163596629Y-69182932D01*
X163419159Y-69360092D01*
X163363327Y-69225301D01*
X163184698Y-69046673D01*
X162951309Y-68950000D01*
X162210750Y-68950000D01*
X162052000Y-69108750D01*
X161798000Y-69108750D01*
X161639250Y-68950000D01*
X160898691Y-68950000D01*
X160665302Y-69046673D01*
X160486673Y-69225301D01*
X160390000Y-69458690D01*
X156719405Y-69458690D01*
X156445643Y-69184449D01*
X155881670Y-68950267D01*
X155271009Y-68949735D01*
X154706629Y-69182932D01*
X154529159Y-69360092D01*
X154473327Y-69225301D01*
X154294698Y-69046673D01*
X154061309Y-68950000D01*
X153320750Y-68950000D01*
X153162000Y-69108750D01*
X152908000Y-69108750D01*
X152749250Y-68950000D01*
X152008691Y-68950000D01*
X151775302Y-69046673D01*
X151596673Y-69225301D01*
X151500000Y-69458690D01*
X147829405Y-69458690D01*
X147555643Y-69184449D01*
X146991670Y-68950267D01*
X146381009Y-68949735D01*
X145816629Y-69182932D01*
X145639159Y-69360092D01*
X145583327Y-69225301D01*
X145404698Y-69046673D01*
X145171309Y-68950000D01*
X144430750Y-68950000D01*
X144272000Y-69108750D01*
X144018000Y-69108750D01*
X143859250Y-68950000D01*
X143118691Y-68950000D01*
X142885302Y-69046673D01*
X142706673Y-69225301D01*
X142610000Y-69458690D01*
X138939405Y-69458690D01*
X138665643Y-69184449D01*
X138101670Y-68950267D01*
X137491009Y-68949735D01*
X136926629Y-69182932D01*
X136749159Y-69360092D01*
X136693327Y-69225301D01*
X136514698Y-69046673D01*
X136281309Y-68950000D01*
X135540750Y-68950000D01*
X135382000Y-69108750D01*
X135128000Y-69108750D01*
X134969250Y-68950000D01*
X134228691Y-68950000D01*
X133995302Y-69046673D01*
X133816673Y-69225301D01*
X133720000Y-69458690D01*
X130049405Y-69458690D01*
X129775643Y-69184449D01*
X129211670Y-68950267D01*
X128601009Y-68949735D01*
X128036629Y-69182932D01*
X127859159Y-69360092D01*
X127803327Y-69225301D01*
X127624698Y-69046673D01*
X127391309Y-68950000D01*
X126650750Y-68950000D01*
X126492000Y-69108750D01*
X126238000Y-69108750D01*
X126079250Y-68950000D01*
X125338691Y-68950000D01*
X125105302Y-69046673D01*
X124926673Y-69225301D01*
X124830000Y-69458690D01*
X121159405Y-69458690D01*
X120885643Y-69184449D01*
X120321670Y-68950267D01*
X119711009Y-68949735D01*
X119146629Y-69182932D01*
X118969159Y-69360092D01*
X118913327Y-69225301D01*
X118734698Y-69046673D01*
X118501309Y-68950000D01*
X117760750Y-68950000D01*
X117602000Y-69108750D01*
X117348000Y-69108750D01*
X117189250Y-68950000D01*
X116448691Y-68950000D01*
X116215302Y-69046673D01*
X116036673Y-69225301D01*
X115940000Y-69458690D01*
X113740000Y-69458690D01*
X113740000Y-62940000D01*
X194875069Y-62940000D01*
X196369001Y-63237161D01*
M02*
