M48
;DRILL file {KiCad 4.0.7} date 12/03/19 23:34:16
;FORMAT={2:4/ absolute / inch / suppress leading zeros}
FMAT,2
INCH,TZ
T1C0.016
T2C0.030
T3C0.031
T4C0.035
T5C0.039
T6C0.120
%
G90
G05
M72
T1
X44500Y-28500
X45000Y-27500
X45250Y-34000
X45500Y-38000
X46750Y-31750
X46750Y-39750
X46750Y-43000
X47000Y-33500
X47000Y-40000
X47000Y-42500
X47000Y-43250
X47250Y-36500
X47250Y-39750
X47250Y-42250
X47250Y-43500
X47500Y-37500
X47500Y-39500
X47500Y-42500
X47750Y-26750
X47750Y-28500
X47750Y-30500
X47750Y-39000
X47750Y-43750
X48000Y-28000
X48000Y-37500
X48000Y-39500
X48000Y-42250
X48000Y-44000
X48250Y-28250
X48250Y-34500
X48250Y-36000
X48250Y-36500
X48250Y-39750
X48250Y-42500
X48250Y-44250
X48500Y-33500
X48500Y-40000
X48500Y-42250
X48500Y-44500
X48750Y-39750
X48750Y-42500
X50000Y-42500
X50000Y-44750
X50750Y-26750
X51000Y-28250
X51750Y-40250
X52000Y-40500
X52250Y-40750
X52500Y-41000
X53000Y-33500
X53250Y-36500
X53500Y-37500
X53750Y-30500
X53750Y-39000
X53750Y-39500
X54000Y-37500
X54000Y-39750
X54250Y-36500
X54250Y-40000
X54500Y-33500
X54500Y-40250
X60500Y-29000
X62000Y-29500
X63500Y-30000
X65000Y-30500
X66500Y-30250
X68000Y-29750
X69500Y-29250
T2
X46547Y-49500
X47531Y-49500
X51469Y-49550
X52453Y-49500
T3
X45500Y-24750
X45500Y-26719
X46250Y-30250
X46250Y-31250
X46250Y-32250
X46250Y-33250
X46250Y-34250
X46250Y-35250
X46250Y-36250
X46250Y-37250
X46250Y-38250
X46250Y-39250
X46781Y-28750
X47250Y-24250
X47250Y-27250
X48250Y-24250
X48250Y-27250
X48750Y-28750
X49250Y-24250
X49250Y-27250
X49250Y-30250
X49250Y-31250
X49250Y-32250
X49250Y-33250
X49250Y-34250
X49250Y-35250
X49250Y-36250
X49250Y-37250
X49250Y-38250
X49250Y-39250
X50250Y-24250
X50250Y-27250
X50750Y-30750
X50750Y-34750
X51250Y-24250
X51250Y-27250
X52250Y-24250
X52250Y-27250
X52250Y-30250
X52250Y-31250
X52250Y-32250
X52250Y-33250
X52250Y-34250
X52250Y-35250
X52250Y-36250
X52250Y-37250
X52250Y-38250
X52250Y-39250
X52781Y-28750
X53250Y-24250
X53250Y-27250
X54250Y-24250
X54250Y-27250
X54750Y-28750
X55250Y-30250
X55250Y-31250
X55250Y-32250
X55250Y-33250
X55250Y-34250
X55250Y-35250
X55250Y-36250
X55250Y-37250
X55250Y-38250
X55250Y-39250
X60750Y-23750
X60750Y-27750
X62250Y-23750
X62250Y-27750
X63750Y-23750
X63750Y-27750
X65250Y-23750
X65250Y-27750
X66750Y-23750
X66750Y-27750
X68250Y-23750
X68250Y-27750
X69750Y-23750
X69750Y-27750
X71250Y-23750
X71250Y-27750
T4
X46750Y-20000
X46750Y-21000
X50250Y-20000
X50250Y-21000
X53750Y-20000
X53750Y-21000
X57250Y-20000
X57250Y-21000
X60750Y-20000
X60750Y-21000
X64250Y-20000
X64250Y-21000
X67750Y-20000
X67750Y-21000
X71250Y-20000
X71250Y-21000
T5
X41250Y-33000
X41250Y-34000
X41250Y-35000
X41250Y-36000
X41250Y-37000
X41250Y-38000
X41250Y-39000
X41250Y-40000
X41250Y-41000
X41250Y-42000
X41250Y-43000
X41250Y-44000
X41250Y-45000
X41250Y-46000
X41250Y-47000
X41250Y-48000
X41250Y-49000
X41250Y-50000
X41250Y-51000
X41250Y-52000
X42250Y-33000
X42250Y-34000
X42250Y-35000
X42250Y-36000
X42250Y-37000
X42250Y-38000
X42250Y-39000
X42250Y-40000
X42250Y-41000
X42250Y-42000
X42250Y-43000
X42250Y-44000
X42250Y-45000
X42250Y-46000
X42250Y-47000
X42250Y-48000
X42250Y-49000
X42250Y-50000
X42250Y-51000
X42250Y-52000
X44500Y-31250
X44500Y-32250
X44500Y-33250
X44500Y-34250
X44500Y-35250
X44500Y-36250
X44500Y-37250
X44500Y-38250
X44500Y-39250
X50750Y-38250
X50750Y-39250
X56000Y-25250
X56000Y-26250
T6
X41000Y-29500
X77000Y-29500
T0
M30
