M48
;DRILL file {KiCad 4.0.7} date 11/16/19 02:17:42
;FORMAT={2:4/ absolute / inch / suppress leading zeros}
FMAT,2
INCH,TZ
T1C0.016
T2C0.030
T3C0.031
T4C0.035
T5C0.039
T6C0.120
%
G90
G05
M72
T1
X49500Y-42500
X49500Y-44750
X51500Y-41500
X51750Y-36250
X51750Y-41250
X52000Y-39250
X52000Y-41000
X52250Y-40250
X52250Y-40750
X52500Y-36250
X52750Y-40250
X52750Y-40750
X53000Y-39750
X53000Y-41000
X53250Y-36250
X53250Y-40750
X53500Y-41500
X56000Y-33750
X56000Y-36500
X56250Y-33500
X56250Y-38000
X56500Y-33750
X56500Y-41750
X56750Y-33500
X56750Y-40500
X57000Y-33750
X57000Y-39250
X57250Y-33500
X57250Y-35250
T2
X46547Y-49500
X47531Y-49500
X51469Y-49550
X52453Y-49500
T3
X45000Y-33000
X45000Y-34000
X45000Y-35000
X45000Y-36000
X45000Y-37000
X45000Y-38000
X45000Y-39000
X45000Y-40000
X45000Y-41000
X45000Y-42000
X45531Y-31500
X47500Y-31500
X48000Y-33000
X48000Y-34000
X48000Y-35000
X48000Y-36000
X48000Y-37000
X48000Y-38000
X48000Y-39000
X48000Y-40000
X48000Y-41000
X48000Y-42000
X49500Y-34000
X49500Y-38000
X51000Y-33000
X51000Y-34000
X51000Y-35000
X51000Y-36000
X51000Y-37000
X51000Y-38000
X51000Y-39000
X51000Y-40000
X51000Y-41000
X51000Y-42000
X51531Y-31500
X53500Y-31500
X54000Y-33000
X54000Y-34000
X54000Y-35000
X54000Y-36000
X54000Y-37000
X54000Y-38000
X54000Y-39000
X54000Y-40000
X54000Y-41000
X54000Y-42000
X55250Y-33000
X55250Y-34250
X55250Y-35500
X55250Y-36750
X55250Y-38250
X55250Y-39500
X55250Y-40750
X55250Y-42000
X59250Y-33000
X59250Y-34250
X59250Y-35500
X59250Y-36750
X59250Y-38250
X59250Y-39500
X59250Y-40750
X59250Y-42000
T4
X46250Y-27750
X47250Y-27750
X49750Y-27750
X50750Y-27750
X53250Y-27750
X54250Y-27750
X56750Y-27750
X57750Y-27750
X60250Y-27750
X61250Y-27750
X63750Y-27750
X64750Y-27750
X67250Y-27750
X68250Y-27750
X70750Y-27750
X71750Y-27750
T5
X41250Y-33000
X41250Y-34000
X41250Y-35000
X41250Y-36000
X41250Y-37000
X41250Y-38000
X41250Y-39000
X41250Y-40000
X41250Y-41000
X41250Y-42000
X41250Y-43000
X41250Y-44000
X41250Y-45000
X41250Y-46000
X41250Y-47000
X41250Y-48000
X41250Y-49000
X41250Y-50000
X41250Y-51000
X41250Y-52000
X42250Y-33000
X42250Y-34000
X42250Y-35000
X42250Y-36000
X42250Y-37000
X42250Y-38000
X42250Y-39000
X42250Y-40000
X42250Y-41000
X42250Y-42000
X42250Y-43000
X42250Y-44000
X42250Y-45000
X42250Y-46000
X42250Y-47000
X42250Y-48000
X42250Y-49000
X42250Y-50000
X42250Y-51000
X42250Y-52000
T6
X41000Y-29500
X77000Y-29500
T0
M30
