G04 #@! TF.FileFunction,Legend,Top*
%FSLAX46Y46*%
G04 Gerber Fmt 4.6, Leading zero omitted, Abs format (unit mm)*
G04 Created by KiCad (PCBNEW 4.0.7) date 12/19/19 18:47:52*
%MOMM*%
%LPD*%
G01*
G04 APERTURE LIST*
%ADD10C,0.100000*%
%ADD11C,0.200000*%
%ADD12C,0.150000*%
%ADD13C,0.300000*%
%ADD14C,0.120000*%
G04 APERTURE END LIST*
D10*
D11*
X110490000Y-95885000D02*
X110490000Y-83185000D01*
D10*
X110851905Y-97745476D02*
X110051905Y-97745476D01*
X110051905Y-97555000D01*
X110090000Y-97440714D01*
X110166190Y-97364523D01*
X110242381Y-97326428D01*
X110394762Y-97288333D01*
X110509048Y-97288333D01*
X110661429Y-97326428D01*
X110737619Y-97364523D01*
X110813810Y-97440714D01*
X110851905Y-97555000D01*
X110851905Y-97745476D01*
X110051905Y-97021666D02*
X110051905Y-96488333D01*
X110851905Y-96831190D01*
X110851905Y-82505476D02*
X110051905Y-82505476D01*
X110051905Y-82315000D01*
X110090000Y-82200714D01*
X110166190Y-82124523D01*
X110242381Y-82086428D01*
X110394762Y-82048333D01*
X110509048Y-82048333D01*
X110661429Y-82086428D01*
X110737619Y-82124523D01*
X110813810Y-82200714D01*
X110851905Y-82315000D01*
X110851905Y-82505476D01*
X110851905Y-81286428D02*
X110851905Y-81743571D01*
X110851905Y-81515000D02*
X110051905Y-81515000D01*
X110166190Y-81591190D01*
X110242381Y-81667381D01*
X110280476Y-81743571D01*
D12*
X163473333Y-76128571D02*
X163616190Y-76176190D01*
X163663809Y-76223810D01*
X163711428Y-76319048D01*
X163711428Y-76461905D01*
X163663809Y-76557143D01*
X163616190Y-76604762D01*
X163520952Y-76652381D01*
X163139999Y-76652381D01*
X163139999Y-75652381D01*
X163473333Y-75652381D01*
X163568571Y-75700000D01*
X163616190Y-75747619D01*
X163663809Y-75842857D01*
X163663809Y-75938095D01*
X163616190Y-76033333D01*
X163568571Y-76080952D01*
X163473333Y-76128571D01*
X163139999Y-76128571D01*
X164520952Y-76604762D02*
X164425714Y-76652381D01*
X164235237Y-76652381D01*
X164139999Y-76604762D01*
X164092380Y-76509524D01*
X164092380Y-76128571D01*
X164139999Y-76033333D01*
X164235237Y-75985714D01*
X164425714Y-75985714D01*
X164520952Y-76033333D01*
X164568571Y-76128571D01*
X164568571Y-76223810D01*
X164092380Y-76319048D01*
X165378095Y-76604762D02*
X165282857Y-76652381D01*
X165092380Y-76652381D01*
X164997142Y-76604762D01*
X164949523Y-76509524D01*
X164949523Y-76128571D01*
X164997142Y-76033333D01*
X165092380Y-75985714D01*
X165282857Y-75985714D01*
X165378095Y-76033333D01*
X165425714Y-76128571D01*
X165425714Y-76223810D01*
X164949523Y-76319048D01*
X165854285Y-75985714D02*
X165854285Y-76985714D01*
X165854285Y-76033333D02*
X165949523Y-75985714D01*
X166140000Y-75985714D01*
X166235238Y-76033333D01*
X166282857Y-76080952D01*
X166330476Y-76176190D01*
X166330476Y-76461905D01*
X166282857Y-76557143D01*
X166235238Y-76604762D01*
X166140000Y-76652381D01*
X165949523Y-76652381D01*
X165854285Y-76604762D01*
X168092381Y-76557143D02*
X168044762Y-76604762D01*
X167901905Y-76652381D01*
X167806667Y-76652381D01*
X167663809Y-76604762D01*
X167568571Y-76509524D01*
X167520952Y-76414286D01*
X167473333Y-76223810D01*
X167473333Y-76080952D01*
X167520952Y-75890476D01*
X167568571Y-75795238D01*
X167663809Y-75700000D01*
X167806667Y-75652381D01*
X167901905Y-75652381D01*
X168044762Y-75700000D01*
X168092381Y-75747619D01*
X168520952Y-76652381D02*
X168520952Y-75652381D01*
X168949524Y-76652381D02*
X168949524Y-76128571D01*
X168901905Y-76033333D01*
X168806667Y-75985714D01*
X168663809Y-75985714D01*
X168568571Y-76033333D01*
X168520952Y-76080952D01*
X169854286Y-76652381D02*
X169854286Y-76128571D01*
X169806667Y-76033333D01*
X169711429Y-75985714D01*
X169520952Y-75985714D01*
X169425714Y-76033333D01*
X169854286Y-76604762D02*
X169759048Y-76652381D01*
X169520952Y-76652381D01*
X169425714Y-76604762D01*
X169378095Y-76509524D01*
X169378095Y-76414286D01*
X169425714Y-76319048D01*
X169520952Y-76271429D01*
X169759048Y-76271429D01*
X169854286Y-76223810D01*
X170282857Y-76604762D02*
X170378095Y-76652381D01*
X170568571Y-76652381D01*
X170663810Y-76604762D01*
X170711429Y-76509524D01*
X170711429Y-76461905D01*
X170663810Y-76366667D01*
X170568571Y-76319048D01*
X170425714Y-76319048D01*
X170330476Y-76271429D01*
X170282857Y-76176190D01*
X170282857Y-76128571D01*
X170330476Y-76033333D01*
X170425714Y-75985714D01*
X170568571Y-75985714D01*
X170663810Y-76033333D01*
X171520953Y-76604762D02*
X171425715Y-76652381D01*
X171235238Y-76652381D01*
X171140000Y-76604762D01*
X171092381Y-76509524D01*
X171092381Y-76128571D01*
X171140000Y-76033333D01*
X171235238Y-75985714D01*
X171425715Y-75985714D01*
X171520953Y-76033333D01*
X171568572Y-76128571D01*
X171568572Y-76223810D01*
X171092381Y-76319048D01*
X171997143Y-76652381D02*
X171997143Y-75985714D01*
X171997143Y-76176190D02*
X172044762Y-76080952D01*
X172092381Y-76033333D01*
X172187619Y-75985714D01*
X172282858Y-75985714D01*
X143105714Y-84899524D02*
X143105714Y-84185238D01*
X142677143Y-84613810D02*
X143962857Y-84899524D01*
X143534286Y-84280476D02*
X143534286Y-84994762D01*
X143962857Y-84566190D02*
X142677143Y-84280476D01*
X143724762Y-83899524D02*
X143772381Y-83756667D01*
X143772381Y-83518571D01*
X143724762Y-83423333D01*
X143677143Y-83375714D01*
X143581905Y-83328095D01*
X143486667Y-83328095D01*
X143391429Y-83375714D01*
X143343810Y-83423333D01*
X143296190Y-83518571D01*
X143248571Y-83709048D01*
X143200952Y-83804286D01*
X143153333Y-83851905D01*
X143058095Y-83899524D01*
X142962857Y-83899524D01*
X142867619Y-83851905D01*
X142820000Y-83804286D01*
X142772381Y-83709048D01*
X142772381Y-83470952D01*
X142820000Y-83328095D01*
X142629524Y-83613810D02*
X143915238Y-83613810D01*
X142772381Y-82423333D02*
X142772381Y-82899524D01*
X143248571Y-82947143D01*
X143200952Y-82899524D01*
X143153333Y-82804286D01*
X143153333Y-82566190D01*
X143200952Y-82470952D01*
X143248571Y-82423333D01*
X143343810Y-82375714D01*
X143581905Y-82375714D01*
X143677143Y-82423333D01*
X143724762Y-82470952D01*
X143772381Y-82566190D01*
X143772381Y-82804286D01*
X143724762Y-82899524D01*
X143677143Y-82947143D01*
X142772381Y-81470952D02*
X142772381Y-81947143D01*
X143248571Y-81994762D01*
X143200952Y-81947143D01*
X143153333Y-81851905D01*
X143153333Y-81613809D01*
X143200952Y-81518571D01*
X143248571Y-81470952D01*
X143343810Y-81423333D01*
X143581905Y-81423333D01*
X143677143Y-81470952D01*
X143724762Y-81518571D01*
X143772381Y-81613809D01*
X143772381Y-81851905D01*
X143724762Y-81947143D01*
X143677143Y-81994762D01*
X145374762Y-84899524D02*
X145422381Y-84756667D01*
X145422381Y-84518571D01*
X145374762Y-84423333D01*
X145327143Y-84375714D01*
X145231905Y-84328095D01*
X145136667Y-84328095D01*
X145041429Y-84375714D01*
X144993810Y-84423333D01*
X144946190Y-84518571D01*
X144898571Y-84709048D01*
X144850952Y-84804286D01*
X144803333Y-84851905D01*
X144708095Y-84899524D01*
X144612857Y-84899524D01*
X144517619Y-84851905D01*
X144470000Y-84804286D01*
X144422381Y-84709048D01*
X144422381Y-84470952D01*
X144470000Y-84328095D01*
X144279524Y-84613810D02*
X145565238Y-84613810D01*
X144517619Y-83947143D02*
X144470000Y-83899524D01*
X144422381Y-83804286D01*
X144422381Y-83566190D01*
X144470000Y-83470952D01*
X144517619Y-83423333D01*
X144612857Y-83375714D01*
X144708095Y-83375714D01*
X144850952Y-83423333D01*
X145422381Y-83994762D01*
X145422381Y-83375714D01*
X144755714Y-82518571D02*
X145422381Y-82518571D01*
X144374762Y-82756667D02*
X145089048Y-82994762D01*
X145089048Y-82375714D01*
X144422381Y-81804286D02*
X144422381Y-81709047D01*
X144470000Y-81613809D01*
X144517619Y-81566190D01*
X144612857Y-81518571D01*
X144803333Y-81470952D01*
X145041429Y-81470952D01*
X145231905Y-81518571D01*
X145327143Y-81566190D01*
X145374762Y-81613809D01*
X145422381Y-81709047D01*
X145422381Y-81804286D01*
X145374762Y-81899524D01*
X145327143Y-81947143D01*
X145231905Y-81994762D01*
X145041429Y-82042381D01*
X144803333Y-82042381D01*
X144612857Y-81994762D01*
X144517619Y-81947143D01*
X144470000Y-81899524D01*
X144422381Y-81804286D01*
X144422381Y-80851905D02*
X144422381Y-80756666D01*
X144470000Y-80661428D01*
X144517619Y-80613809D01*
X144612857Y-80566190D01*
X144803333Y-80518571D01*
X145041429Y-80518571D01*
X145231905Y-80566190D01*
X145327143Y-80613809D01*
X145374762Y-80661428D01*
X145422381Y-80756666D01*
X145422381Y-80851905D01*
X145374762Y-80947143D01*
X145327143Y-80994762D01*
X145231905Y-81042381D01*
X145041429Y-81090000D01*
X144803333Y-81090000D01*
X144612857Y-81042381D01*
X144517619Y-80994762D01*
X144470000Y-80947143D01*
X144422381Y-80851905D01*
X143772381Y-90090714D02*
X143772381Y-90566905D01*
X142772381Y-90566905D01*
X143772381Y-89757381D02*
X142772381Y-89757381D01*
X142772381Y-89519286D01*
X142820000Y-89376428D01*
X142915238Y-89281190D01*
X143010476Y-89233571D01*
X143200952Y-89185952D01*
X143343810Y-89185952D01*
X143534286Y-89233571D01*
X143629524Y-89281190D01*
X143724762Y-89376428D01*
X143772381Y-89519286D01*
X143772381Y-89757381D01*
X143486667Y-88805000D02*
X143486667Y-88328809D01*
X143772381Y-88900238D02*
X142772381Y-88566905D01*
X143772381Y-88233571D01*
X143486667Y-87947857D02*
X143486667Y-87471666D01*
X143772381Y-88043095D02*
X142772381Y-87709762D01*
X143772381Y-87376428D01*
X145374762Y-90614524D02*
X145422381Y-90471667D01*
X145422381Y-90233571D01*
X145374762Y-90138333D01*
X145327143Y-90090714D01*
X145231905Y-90043095D01*
X145136667Y-90043095D01*
X145041429Y-90090714D01*
X144993810Y-90138333D01*
X144946190Y-90233571D01*
X144898571Y-90424048D01*
X144850952Y-90519286D01*
X144803333Y-90566905D01*
X144708095Y-90614524D01*
X144612857Y-90614524D01*
X144517619Y-90566905D01*
X144470000Y-90519286D01*
X144422381Y-90424048D01*
X144422381Y-90185952D01*
X144470000Y-90043095D01*
X144422381Y-89757381D02*
X144422381Y-89185952D01*
X145422381Y-89471667D02*
X144422381Y-89471667D01*
X145136667Y-88900238D02*
X145136667Y-88424047D01*
X145422381Y-88995476D02*
X144422381Y-88662143D01*
X145422381Y-88328809D01*
X145136667Y-88043095D02*
X145136667Y-87566904D01*
X145422381Y-88138333D02*
X144422381Y-87805000D01*
X145422381Y-87471666D01*
X143200952Y-100584048D02*
X143153333Y-100679286D01*
X143105714Y-100726905D01*
X143010476Y-100774524D01*
X142962857Y-100774524D01*
X142867619Y-100726905D01*
X142820000Y-100679286D01*
X142772381Y-100584048D01*
X142772381Y-100393571D01*
X142820000Y-100298333D01*
X142867619Y-100250714D01*
X142962857Y-100203095D01*
X143010476Y-100203095D01*
X143105714Y-100250714D01*
X143153333Y-100298333D01*
X143200952Y-100393571D01*
X143200952Y-100584048D01*
X143248571Y-100679286D01*
X143296190Y-100726905D01*
X143391429Y-100774524D01*
X143581905Y-100774524D01*
X143677143Y-100726905D01*
X143724762Y-100679286D01*
X143772381Y-100584048D01*
X143772381Y-100393571D01*
X143724762Y-100298333D01*
X143677143Y-100250714D01*
X143581905Y-100203095D01*
X143391429Y-100203095D01*
X143296190Y-100250714D01*
X143248571Y-100298333D01*
X143200952Y-100393571D01*
X142772381Y-99345952D02*
X142772381Y-99536429D01*
X142820000Y-99631667D01*
X142867619Y-99679286D01*
X143010476Y-99774524D01*
X143200952Y-99822143D01*
X143581905Y-99822143D01*
X143677143Y-99774524D01*
X143724762Y-99726905D01*
X143772381Y-99631667D01*
X143772381Y-99441190D01*
X143724762Y-99345952D01*
X143677143Y-99298333D01*
X143581905Y-99250714D01*
X143343810Y-99250714D01*
X143248571Y-99298333D01*
X143200952Y-99345952D01*
X143153333Y-99441190D01*
X143153333Y-99631667D01*
X143200952Y-99726905D01*
X143248571Y-99774524D01*
X143343810Y-99822143D01*
X142772381Y-97584047D02*
X142772381Y-98060238D01*
X143248571Y-98107857D01*
X143200952Y-98060238D01*
X143153333Y-97965000D01*
X143153333Y-97726904D01*
X143200952Y-97631666D01*
X143248571Y-97584047D01*
X143343810Y-97536428D01*
X143581905Y-97536428D01*
X143677143Y-97584047D01*
X143724762Y-97631666D01*
X143772381Y-97726904D01*
X143772381Y-97965000D01*
X143724762Y-98060238D01*
X143677143Y-98107857D01*
X142772381Y-96631666D02*
X142772381Y-97107857D01*
X143248571Y-97155476D01*
X143200952Y-97107857D01*
X143153333Y-97012619D01*
X143153333Y-96774523D01*
X143200952Y-96679285D01*
X143248571Y-96631666D01*
X143343810Y-96584047D01*
X143581905Y-96584047D01*
X143677143Y-96631666D01*
X143724762Y-96679285D01*
X143772381Y-96774523D01*
X143772381Y-97012619D01*
X143724762Y-97107857D01*
X143677143Y-97155476D01*
X144898571Y-100393571D02*
X144946190Y-100250714D01*
X144993810Y-100203095D01*
X145089048Y-100155476D01*
X145231905Y-100155476D01*
X145327143Y-100203095D01*
X145374762Y-100250714D01*
X145422381Y-100345952D01*
X145422381Y-100726905D01*
X144422381Y-100726905D01*
X144422381Y-100393571D01*
X144470000Y-100298333D01*
X144517619Y-100250714D01*
X144612857Y-100203095D01*
X144708095Y-100203095D01*
X144803333Y-100250714D01*
X144850952Y-100298333D01*
X144898571Y-100393571D01*
X144898571Y-100726905D01*
X144422381Y-99822143D02*
X144422381Y-99155476D01*
X145422381Y-99584048D01*
X144517619Y-98060238D02*
X144470000Y-98012619D01*
X144422381Y-97917381D01*
X144422381Y-97679285D01*
X144470000Y-97584047D01*
X144517619Y-97536428D01*
X144612857Y-97488809D01*
X144708095Y-97488809D01*
X144850952Y-97536428D01*
X145422381Y-98107857D01*
X145422381Y-97488809D01*
X144755714Y-96631666D02*
X145422381Y-96631666D01*
X144374762Y-96869762D02*
X145089048Y-97107857D01*
X145089048Y-96488809D01*
X144422381Y-95155476D02*
X144422381Y-95060237D01*
X144470000Y-94964999D01*
X144517619Y-94917380D01*
X144612857Y-94869761D01*
X144803333Y-94822142D01*
X145041429Y-94822142D01*
X145231905Y-94869761D01*
X145327143Y-94917380D01*
X145374762Y-94964999D01*
X145422381Y-95060237D01*
X145422381Y-95155476D01*
X145374762Y-95250714D01*
X145327143Y-95298333D01*
X145231905Y-95345952D01*
X145041429Y-95393571D01*
X144803333Y-95393571D01*
X144612857Y-95345952D01*
X144517619Y-95298333D01*
X144470000Y-95250714D01*
X144422381Y-95155476D01*
X144422381Y-94203095D02*
X144422381Y-94107856D01*
X144470000Y-94012618D01*
X144517619Y-93964999D01*
X144612857Y-93917380D01*
X144803333Y-93869761D01*
X145041429Y-93869761D01*
X145231905Y-93917380D01*
X145327143Y-93964999D01*
X145374762Y-94012618D01*
X145422381Y-94107856D01*
X145422381Y-94203095D01*
X145374762Y-94298333D01*
X145327143Y-94345952D01*
X145231905Y-94393571D01*
X145041429Y-94441190D01*
X144803333Y-94441190D01*
X144612857Y-94393571D01*
X144517619Y-94345952D01*
X144470000Y-94298333D01*
X144422381Y-94203095D01*
D13*
X156675716Y-74973571D02*
X156175716Y-74259286D01*
X155818573Y-74973571D02*
X155818573Y-73473571D01*
X156390001Y-73473571D01*
X156532859Y-73545000D01*
X156604287Y-73616429D01*
X156675716Y-73759286D01*
X156675716Y-73973571D01*
X156604287Y-74116429D01*
X156532859Y-74187857D01*
X156390001Y-74259286D01*
X155818573Y-74259286D01*
X158175716Y-74830714D02*
X158104287Y-74902143D01*
X157890001Y-74973571D01*
X157747144Y-74973571D01*
X157532859Y-74902143D01*
X157390001Y-74759286D01*
X157318573Y-74616429D01*
X157247144Y-74330714D01*
X157247144Y-74116429D01*
X157318573Y-73830714D01*
X157390001Y-73687857D01*
X157532859Y-73545000D01*
X157747144Y-73473571D01*
X157890001Y-73473571D01*
X158104287Y-73545000D01*
X158175716Y-73616429D01*
X159461430Y-73473571D02*
X159175716Y-73473571D01*
X159032859Y-73545000D01*
X158961430Y-73616429D01*
X158818573Y-73830714D01*
X158747144Y-74116429D01*
X158747144Y-74687857D01*
X158818573Y-74830714D01*
X158890001Y-74902143D01*
X159032859Y-74973571D01*
X159318573Y-74973571D01*
X159461430Y-74902143D01*
X159532859Y-74830714D01*
X159604287Y-74687857D01*
X159604287Y-74330714D01*
X159532859Y-74187857D01*
X159461430Y-74116429D01*
X159318573Y-74045000D01*
X159032859Y-74045000D01*
X158890001Y-74116429D01*
X158818573Y-74187857D01*
X158747144Y-74330714D01*
X160461430Y-74116429D02*
X160318572Y-74045000D01*
X160247144Y-73973571D01*
X160175715Y-73830714D01*
X160175715Y-73759286D01*
X160247144Y-73616429D01*
X160318572Y-73545000D01*
X160461430Y-73473571D01*
X160747144Y-73473571D01*
X160890001Y-73545000D01*
X160961430Y-73616429D01*
X161032858Y-73759286D01*
X161032858Y-73830714D01*
X160961430Y-73973571D01*
X160890001Y-74045000D01*
X160747144Y-74116429D01*
X160461430Y-74116429D01*
X160318572Y-74187857D01*
X160247144Y-74259286D01*
X160175715Y-74402143D01*
X160175715Y-74687857D01*
X160247144Y-74830714D01*
X160318572Y-74902143D01*
X160461430Y-74973571D01*
X160747144Y-74973571D01*
X160890001Y-74902143D01*
X160961430Y-74830714D01*
X161032858Y-74687857D01*
X161032858Y-74402143D01*
X160961430Y-74259286D01*
X160890001Y-74187857D01*
X160747144Y-74116429D01*
X161961429Y-73473571D02*
X162104286Y-73473571D01*
X162247143Y-73545000D01*
X162318572Y-73616429D01*
X162390001Y-73759286D01*
X162461429Y-74045000D01*
X162461429Y-74402143D01*
X162390001Y-74687857D01*
X162318572Y-74830714D01*
X162247143Y-74902143D01*
X162104286Y-74973571D01*
X161961429Y-74973571D01*
X161818572Y-74902143D01*
X161747143Y-74830714D01*
X161675715Y-74687857D01*
X161604286Y-74402143D01*
X161604286Y-74045000D01*
X161675715Y-73759286D01*
X161747143Y-73616429D01*
X161818572Y-73545000D01*
X161961429Y-73473571D01*
X163032857Y-73616429D02*
X163104286Y-73545000D01*
X163247143Y-73473571D01*
X163604286Y-73473571D01*
X163747143Y-73545000D01*
X163818572Y-73616429D01*
X163890000Y-73759286D01*
X163890000Y-73902143D01*
X163818572Y-74116429D01*
X162961429Y-74973571D01*
X163890000Y-74973571D01*
X165675714Y-74973571D02*
X165675714Y-73473571D01*
X166175714Y-74545000D01*
X166675714Y-73473571D01*
X166675714Y-74973571D01*
X167390000Y-74973571D02*
X167390000Y-73973571D01*
X167390000Y-73473571D02*
X167318571Y-73545000D01*
X167390000Y-73616429D01*
X167461428Y-73545000D01*
X167390000Y-73473571D01*
X167390000Y-73616429D01*
X168747143Y-74902143D02*
X168604286Y-74973571D01*
X168318572Y-74973571D01*
X168175714Y-74902143D01*
X168104286Y-74830714D01*
X168032857Y-74687857D01*
X168032857Y-74259286D01*
X168104286Y-74116429D01*
X168175714Y-74045000D01*
X168318572Y-73973571D01*
X168604286Y-73973571D01*
X168747143Y-74045000D01*
X169390000Y-74973571D02*
X169390000Y-73973571D01*
X169390000Y-74259286D02*
X169461428Y-74116429D01*
X169532857Y-74045000D01*
X169675714Y-73973571D01*
X169818571Y-73973571D01*
X170532857Y-74973571D02*
X170389999Y-74902143D01*
X170318571Y-74830714D01*
X170247142Y-74687857D01*
X170247142Y-74259286D01*
X170318571Y-74116429D01*
X170389999Y-74045000D01*
X170532857Y-73973571D01*
X170747142Y-73973571D01*
X170889999Y-74045000D01*
X170961428Y-74116429D01*
X171032857Y-74259286D01*
X171032857Y-74687857D01*
X170961428Y-74830714D01*
X170889999Y-74902143D01*
X170747142Y-74973571D01*
X170532857Y-74973571D01*
X172318571Y-74902143D02*
X172175714Y-74973571D01*
X171890000Y-74973571D01*
X171747142Y-74902143D01*
X171675714Y-74830714D01*
X171604285Y-74687857D01*
X171604285Y-74259286D01*
X171675714Y-74116429D01*
X171747142Y-74045000D01*
X171890000Y-73973571D01*
X172175714Y-73973571D01*
X172318571Y-74045000D01*
X172961428Y-74973571D02*
X172961428Y-73473571D01*
X173604285Y-74973571D02*
X173604285Y-74187857D01*
X173532856Y-74045000D01*
X173389999Y-73973571D01*
X173175714Y-73973571D01*
X173032856Y-74045000D01*
X172961428Y-74116429D01*
X174318571Y-74973571D02*
X174318571Y-73973571D01*
X174318571Y-73473571D02*
X174247142Y-73545000D01*
X174318571Y-73616429D01*
X174389999Y-73545000D01*
X174318571Y-73473571D01*
X174318571Y-73616429D01*
X175675714Y-74902143D02*
X175532857Y-74973571D01*
X175247143Y-74973571D01*
X175104285Y-74902143D01*
X175032857Y-74830714D01*
X174961428Y-74687857D01*
X174961428Y-74259286D01*
X175032857Y-74116429D01*
X175104285Y-74045000D01*
X175247143Y-73973571D01*
X175532857Y-73973571D01*
X175675714Y-74045000D01*
X176318571Y-74973571D02*
X176318571Y-73473571D01*
X176461428Y-74402143D02*
X176889999Y-74973571D01*
X176889999Y-73973571D02*
X176318571Y-74545000D01*
X178104285Y-74902143D02*
X177961428Y-74973571D01*
X177675714Y-74973571D01*
X177532857Y-74902143D01*
X177461428Y-74759286D01*
X177461428Y-74187857D01*
X177532857Y-74045000D01*
X177675714Y-73973571D01*
X177961428Y-73973571D01*
X178104285Y-74045000D01*
X178175714Y-74187857D01*
X178175714Y-74330714D01*
X177461428Y-74473571D01*
X178818571Y-73973571D02*
X178818571Y-74973571D01*
X178818571Y-74116429D02*
X178889999Y-74045000D01*
X179032857Y-73973571D01*
X179247142Y-73973571D01*
X179389999Y-74045000D01*
X179461428Y-74187857D01*
X179461428Y-74973571D01*
D14*
X122285000Y-75505000D02*
G75*
G02X120285000Y-75505000I-1000000J0D01*
G01*
X120285000Y-75505000D02*
X118635000Y-75505000D01*
X118635000Y-75505000D02*
X118635000Y-101025000D01*
X118635000Y-101025000D02*
X123935000Y-101025000D01*
X123935000Y-101025000D02*
X123935000Y-75505000D01*
X123935000Y-75505000D02*
X122285000Y-75505000D01*
X116145000Y-75445000D02*
X116145000Y-101085000D01*
X116145000Y-101085000D02*
X126425000Y-101085000D01*
X126425000Y-101085000D02*
X126425000Y-75445000D01*
X126425000Y-75445000D02*
X116145000Y-75445000D01*
X108645000Y-82490000D02*
X103445000Y-82490000D01*
X108645000Y-130810000D02*
X108645000Y-82490000D01*
X103445000Y-133410000D02*
X103445000Y-82490000D01*
X108645000Y-130810000D02*
X106045000Y-130810000D01*
X106045000Y-130810000D02*
X106045000Y-133410000D01*
X106045000Y-133410000D02*
X103445000Y-133410000D01*
X108645000Y-132080000D02*
X108645000Y-133410000D01*
X108645000Y-133410000D02*
X107315000Y-133410000D01*
X197866000Y-74930000D02*
G75*
G03X197866000Y-74930000I-2286000J0D01*
G01*
X106426000Y-74930000D02*
G75*
G03X106426000Y-74930000I-2286000J0D01*
G01*
X138975000Y-74335000D02*
X134155000Y-74335000D01*
X138975000Y-71715000D02*
X134155000Y-71715000D01*
X138975000Y-74335000D02*
X138975000Y-74021000D01*
X138975000Y-72029000D02*
X138975000Y-71715000D01*
X134155000Y-74335000D02*
X134155000Y-74021000D01*
X134155000Y-72029000D02*
X134155000Y-71715000D01*
X123735000Y-74335000D02*
X118915000Y-74335000D01*
X123735000Y-71715000D02*
X118915000Y-71715000D01*
X123735000Y-74335000D02*
X123735000Y-74021000D01*
X123735000Y-72029000D02*
X123735000Y-71715000D01*
X118915000Y-74335000D02*
X118915000Y-74021000D01*
X118915000Y-72029000D02*
X118915000Y-71715000D01*
X182285000Y-62195000D02*
X179665000Y-62195000D01*
X179665000Y-62195000D02*
X179665000Y-68615000D01*
X179665000Y-68615000D02*
X182285000Y-68615000D01*
X182285000Y-68615000D02*
X182285000Y-62195000D01*
X180975000Y-61305000D02*
X180975000Y-62195000D01*
X180975000Y-69505000D02*
X180975000Y-68615000D01*
X178475000Y-62195000D02*
X175855000Y-62195000D01*
X175855000Y-62195000D02*
X175855000Y-68615000D01*
X175855000Y-68615000D02*
X178475000Y-68615000D01*
X178475000Y-68615000D02*
X178475000Y-62195000D01*
X177165000Y-61305000D02*
X177165000Y-62195000D01*
X177165000Y-69505000D02*
X177165000Y-68615000D01*
X174665000Y-62195000D02*
X172045000Y-62195000D01*
X172045000Y-62195000D02*
X172045000Y-68615000D01*
X172045000Y-68615000D02*
X174665000Y-68615000D01*
X174665000Y-68615000D02*
X174665000Y-62195000D01*
X173355000Y-61305000D02*
X173355000Y-62195000D01*
X173355000Y-69505000D02*
X173355000Y-68615000D01*
X170855000Y-62195000D02*
X168235000Y-62195000D01*
X168235000Y-62195000D02*
X168235000Y-68615000D01*
X168235000Y-68615000D02*
X170855000Y-68615000D01*
X170855000Y-68615000D02*
X170855000Y-62195000D01*
X169545000Y-61305000D02*
X169545000Y-62195000D01*
X169545000Y-69505000D02*
X169545000Y-68615000D01*
X167045000Y-62195000D02*
X164425000Y-62195000D01*
X164425000Y-62195000D02*
X164425000Y-68615000D01*
X164425000Y-68615000D02*
X167045000Y-68615000D01*
X167045000Y-68615000D02*
X167045000Y-62195000D01*
X165735000Y-61305000D02*
X165735000Y-62195000D01*
X165735000Y-69505000D02*
X165735000Y-68615000D01*
X163235000Y-62195000D02*
X160615000Y-62195000D01*
X160615000Y-62195000D02*
X160615000Y-68615000D01*
X160615000Y-68615000D02*
X163235000Y-68615000D01*
X163235000Y-68615000D02*
X163235000Y-62195000D01*
X161925000Y-61305000D02*
X161925000Y-62195000D01*
X161925000Y-69505000D02*
X161925000Y-68615000D01*
X159425000Y-62195000D02*
X156805000Y-62195000D01*
X156805000Y-62195000D02*
X156805000Y-68615000D01*
X156805000Y-68615000D02*
X159425000Y-68615000D01*
X159425000Y-68615000D02*
X159425000Y-62195000D01*
X158115000Y-61305000D02*
X158115000Y-62195000D01*
X158115000Y-69505000D02*
X158115000Y-68615000D01*
X155615000Y-62195000D02*
X152995000Y-62195000D01*
X152995000Y-62195000D02*
X152995000Y-68615000D01*
X152995000Y-68615000D02*
X155615000Y-68615000D01*
X155615000Y-68615000D02*
X155615000Y-62195000D01*
X154305000Y-61305000D02*
X154305000Y-62195000D01*
X154305000Y-69505000D02*
X154305000Y-68615000D01*
X137525000Y-75505000D02*
G75*
G02X135525000Y-75505000I-1000000J0D01*
G01*
X135525000Y-75505000D02*
X133875000Y-75505000D01*
X133875000Y-75505000D02*
X133875000Y-101025000D01*
X133875000Y-101025000D02*
X139175000Y-101025000D01*
X139175000Y-101025000D02*
X139175000Y-75505000D01*
X139175000Y-75505000D02*
X137525000Y-75505000D01*
X131385000Y-75445000D02*
X131385000Y-101085000D01*
X131385000Y-101085000D02*
X141665000Y-101085000D01*
X141665000Y-101085000D02*
X141665000Y-75445000D01*
X141665000Y-75445000D02*
X131385000Y-75445000D01*
X180974538Y-55060000D02*
G75*
G03X182519830Y-49510000I462J2990000D01*
G01*
X180975462Y-55060000D02*
G75*
G02X179430170Y-49510000I-462J2990000D01*
G01*
X183475000Y-52070000D02*
G75*
G03X183475000Y-52070000I-2500000J0D01*
G01*
X182520000Y-49510000D02*
X179430000Y-49510000D01*
X163194538Y-55060000D02*
G75*
G03X164739830Y-49510000I462J2990000D01*
G01*
X163195462Y-55060000D02*
G75*
G02X161650170Y-49510000I-462J2990000D01*
G01*
X165695000Y-52070000D02*
G75*
G03X165695000Y-52070000I-2500000J0D01*
G01*
X164740000Y-49510000D02*
X161650000Y-49510000D01*
X154304538Y-55060000D02*
G75*
G03X155849830Y-49510000I462J2990000D01*
G01*
X154305462Y-55060000D02*
G75*
G02X152760170Y-49510000I-462J2990000D01*
G01*
X156805000Y-52070000D02*
G75*
G03X156805000Y-52070000I-2500000J0D01*
G01*
X155850000Y-49510000D02*
X152760000Y-49510000D01*
X145414538Y-55060000D02*
G75*
G03X146959830Y-49510000I462J2990000D01*
G01*
X145415462Y-55060000D02*
G75*
G02X143870170Y-49510000I-462J2990000D01*
G01*
X147915000Y-52070000D02*
G75*
G03X147915000Y-52070000I-2500000J0D01*
G01*
X146960000Y-49510000D02*
X143870000Y-49510000D01*
X136524538Y-55060000D02*
G75*
G03X138069830Y-49510000I462J2990000D01*
G01*
X136525462Y-55060000D02*
G75*
G02X134980170Y-49510000I-462J2990000D01*
G01*
X139025000Y-52070000D02*
G75*
G03X139025000Y-52070000I-2500000J0D01*
G01*
X138070000Y-49510000D02*
X134980000Y-49510000D01*
X127634538Y-55060000D02*
G75*
G03X129179830Y-49510000I462J2990000D01*
G01*
X127635462Y-55060000D02*
G75*
G02X126090170Y-49510000I-462J2990000D01*
G01*
X130135000Y-52070000D02*
G75*
G03X130135000Y-52070000I-2500000J0D01*
G01*
X129180000Y-49510000D02*
X126090000Y-49510000D01*
X118744538Y-55060000D02*
G75*
G03X120289830Y-49510000I462J2990000D01*
G01*
X118745462Y-55060000D02*
G75*
G02X117200170Y-49510000I-462J2990000D01*
G01*
X121245000Y-52070000D02*
G75*
G03X121245000Y-52070000I-2500000J0D01*
G01*
X120290000Y-49510000D02*
X117200000Y-49510000D01*
X172084538Y-55060000D02*
G75*
G03X173629830Y-49510000I462J2990000D01*
G01*
X172085462Y-55060000D02*
G75*
G02X170540170Y-49510000I-462J2990000D01*
G01*
X174585000Y-52070000D02*
G75*
G03X174585000Y-52070000I-2500000J0D01*
G01*
X173630000Y-49510000D02*
X170540000Y-49510000D01*
X127595000Y-86395000D02*
X130215000Y-86395000D01*
X130215000Y-86395000D02*
X130215000Y-79975000D01*
X130215000Y-79975000D02*
X127595000Y-79975000D01*
X127595000Y-79975000D02*
X127595000Y-86395000D01*
X128905000Y-87285000D02*
X128905000Y-86395000D01*
X128905000Y-79085000D02*
X128905000Y-79975000D01*
X116880000Y-62955000D02*
X116880000Y-67775000D01*
X114260000Y-62955000D02*
X114260000Y-67775000D01*
X116880000Y-62955000D02*
X116566000Y-62955000D01*
X114574000Y-62955000D02*
X114260000Y-62955000D01*
X116880000Y-67775000D02*
X116566000Y-67775000D01*
X114574000Y-67775000D02*
X114260000Y-67775000D01*
X127575000Y-101025000D02*
X130235000Y-101025000D01*
X127575000Y-98425000D02*
X127575000Y-101025000D01*
X130235000Y-98425000D02*
X130235000Y-101025000D01*
X127575000Y-98425000D02*
X130235000Y-98425000D01*
X127575000Y-97155000D02*
X127575000Y-95825000D01*
X127575000Y-95825000D02*
X128905000Y-95825000D01*
X118685000Y-64405000D02*
G75*
G02X118685000Y-66405000I0J-1000000D01*
G01*
X118685000Y-66405000D02*
X118685000Y-68055000D01*
X118685000Y-68055000D02*
X139125000Y-68055000D01*
X139125000Y-68055000D02*
X139125000Y-62755000D01*
X139125000Y-62755000D02*
X118685000Y-62755000D01*
X118685000Y-62755000D02*
X118685000Y-64405000D01*
X118625000Y-70545000D02*
X139185000Y-70545000D01*
X139185000Y-70545000D02*
X139185000Y-60265000D01*
X139185000Y-60265000D02*
X118625000Y-60265000D01*
X118625000Y-60265000D02*
X118625000Y-70545000D01*
X111700000Y-101025000D02*
X114360000Y-101025000D01*
X111700000Y-80645000D02*
X111700000Y-101025000D01*
X114360000Y-80645000D02*
X114360000Y-101025000D01*
X111700000Y-80645000D02*
X114360000Y-80645000D01*
X111700000Y-79375000D02*
X111700000Y-78045000D01*
X111700000Y-78045000D02*
X113030000Y-78045000D01*
X140910000Y-68005000D02*
X143570000Y-68005000D01*
X140910000Y-65405000D02*
X140910000Y-68005000D01*
X143570000Y-65405000D02*
X143570000Y-68005000D01*
X140910000Y-65405000D02*
X143570000Y-65405000D01*
X140910000Y-64135000D02*
X140910000Y-62805000D01*
X140910000Y-62805000D02*
X142240000Y-62805000D01*
X129435000Y-102925000D02*
X125835000Y-102925000D01*
X129959184Y-103652205D02*
G75*
G03X129435000Y-102925000I-2324184J-1122795D01*
G01*
X129991400Y-105873807D02*
G75*
G02X127635000Y-107375000I-2356400J1098807D01*
G01*
X125278600Y-105873807D02*
G75*
G03X127635000Y-107375000I2356400J1098807D01*
G01*
X125310816Y-103652205D02*
G75*
G02X125835000Y-102925000I2324184J-1122795D01*
G01*
D12*
X131953000Y-122682000D02*
X132588000Y-122682000D01*
X131953000Y-122682000D02*
X131318000Y-122682000D01*
X119380000Y-122682000D02*
X120015000Y-122682000D01*
X119380000Y-122682000D02*
X118745000Y-122682000D01*
X119380000Y-123190000D02*
X119380000Y-123317000D01*
X119380000Y-122047000D02*
X119380000Y-123190000D01*
X137287000Y-125730000D02*
G75*
G03X137287000Y-125730000I-11557000J0D01*
G01*
X140843000Y-125730000D02*
G75*
G03X140843000Y-125730000I-15113000J0D01*
G01*
X120523095Y-78827381D02*
X120523095Y-79636905D01*
X120570714Y-79732143D01*
X120618333Y-79779762D01*
X120713571Y-79827381D01*
X120904048Y-79827381D01*
X120999286Y-79779762D01*
X121046905Y-79732143D01*
X121094524Y-79636905D01*
X121094524Y-78827381D01*
X121523095Y-78922619D02*
X121570714Y-78875000D01*
X121665952Y-78827381D01*
X121904048Y-78827381D01*
X121999286Y-78875000D01*
X122046905Y-78922619D01*
X122094524Y-79017857D01*
X122094524Y-79113095D01*
X122046905Y-79255952D01*
X121475476Y-79827381D01*
X122094524Y-79827381D01*
X120737381Y-91384048D02*
X120737381Y-90717381D01*
X121737381Y-91145953D01*
X121070714Y-89907857D02*
X121737381Y-89907857D01*
X120689762Y-90145953D02*
X121404048Y-90384048D01*
X121404048Y-89765000D01*
X121737381Y-88907857D02*
X121737381Y-89384048D01*
X120737381Y-89384048D01*
X121689762Y-88622143D02*
X121737381Y-88479286D01*
X121737381Y-88241190D01*
X121689762Y-88145952D01*
X121642143Y-88098333D01*
X121546905Y-88050714D01*
X121451667Y-88050714D01*
X121356429Y-88098333D01*
X121308810Y-88145952D01*
X121261190Y-88241190D01*
X121213571Y-88431667D01*
X121165952Y-88526905D01*
X121118333Y-88574524D01*
X121023095Y-88622143D01*
X120927857Y-88622143D01*
X120832619Y-88574524D01*
X120785000Y-88526905D01*
X120737381Y-88431667D01*
X120737381Y-88193571D01*
X120785000Y-88050714D01*
X120737381Y-87717381D02*
X120737381Y-87098333D01*
X121118333Y-87431667D01*
X121118333Y-87288809D01*
X121165952Y-87193571D01*
X121213571Y-87145952D01*
X121308810Y-87098333D01*
X121546905Y-87098333D01*
X121642143Y-87145952D01*
X121689762Y-87193571D01*
X121737381Y-87288809D01*
X121737381Y-87574524D01*
X121689762Y-87669762D01*
X121642143Y-87717381D01*
X120737381Y-86765000D02*
X120737381Y-86098333D01*
X121737381Y-86526905D01*
X121070714Y-85288809D02*
X121737381Y-85288809D01*
X120689762Y-85526905D02*
X121404048Y-85765000D01*
X121404048Y-85145952D01*
X136358334Y-73382143D02*
X136310715Y-73429762D01*
X136167858Y-73477381D01*
X136072620Y-73477381D01*
X135929762Y-73429762D01*
X135834524Y-73334524D01*
X135786905Y-73239286D01*
X135739286Y-73048810D01*
X135739286Y-72905952D01*
X135786905Y-72715476D01*
X135834524Y-72620238D01*
X135929762Y-72525000D01*
X136072620Y-72477381D01*
X136167858Y-72477381D01*
X136310715Y-72525000D01*
X136358334Y-72572619D01*
X137310715Y-73477381D02*
X136739286Y-73477381D01*
X137025000Y-73477381D02*
X137025000Y-72477381D01*
X136929762Y-72620238D01*
X136834524Y-72715476D01*
X136739286Y-72763095D01*
X121118334Y-73382143D02*
X121070715Y-73429762D01*
X120927858Y-73477381D01*
X120832620Y-73477381D01*
X120689762Y-73429762D01*
X120594524Y-73334524D01*
X120546905Y-73239286D01*
X120499286Y-73048810D01*
X120499286Y-72905952D01*
X120546905Y-72715476D01*
X120594524Y-72620238D01*
X120689762Y-72525000D01*
X120832620Y-72477381D01*
X120927858Y-72477381D01*
X121070715Y-72525000D01*
X121118334Y-72572619D01*
X121499286Y-72572619D02*
X121546905Y-72525000D01*
X121642143Y-72477381D01*
X121880239Y-72477381D01*
X121975477Y-72525000D01*
X122023096Y-72572619D01*
X122070715Y-72667857D01*
X122070715Y-72763095D01*
X122023096Y-72905952D01*
X121451667Y-73477381D01*
X122070715Y-73477381D01*
X180808334Y-67762381D02*
X180475000Y-67286190D01*
X180236905Y-67762381D02*
X180236905Y-66762381D01*
X180617858Y-66762381D01*
X180713096Y-66810000D01*
X180760715Y-66857619D01*
X180808334Y-66952857D01*
X180808334Y-67095714D01*
X180760715Y-67190952D01*
X180713096Y-67238571D01*
X180617858Y-67286190D01*
X180236905Y-67286190D01*
X181665477Y-67095714D02*
X181665477Y-67762381D01*
X181427381Y-66714762D02*
X181189286Y-67429048D01*
X181808334Y-67429048D01*
X180522619Y-65373095D02*
X180475000Y-65325476D01*
X180427381Y-65230238D01*
X180427381Y-64992142D01*
X180475000Y-64896904D01*
X180522619Y-64849285D01*
X180617857Y-64801666D01*
X180713095Y-64801666D01*
X180855952Y-64849285D01*
X181427381Y-65420714D01*
X181427381Y-64801666D01*
X180522619Y-64420714D02*
X180475000Y-64373095D01*
X180427381Y-64277857D01*
X180427381Y-64039761D01*
X180475000Y-63944523D01*
X180522619Y-63896904D01*
X180617857Y-63849285D01*
X180713095Y-63849285D01*
X180855952Y-63896904D01*
X181427381Y-64468333D01*
X181427381Y-63849285D01*
X180427381Y-63230238D02*
X180427381Y-63134999D01*
X180475000Y-63039761D01*
X180522619Y-62992142D01*
X180617857Y-62944523D01*
X180808333Y-62896904D01*
X181046429Y-62896904D01*
X181236905Y-62944523D01*
X181332143Y-62992142D01*
X181379762Y-63039761D01*
X181427381Y-63134999D01*
X181427381Y-63230238D01*
X181379762Y-63325476D01*
X181332143Y-63373095D01*
X181236905Y-63420714D01*
X181046429Y-63468333D01*
X180808333Y-63468333D01*
X180617857Y-63420714D01*
X180522619Y-63373095D01*
X180475000Y-63325476D01*
X180427381Y-63230238D01*
X176998334Y-67762381D02*
X176665000Y-67286190D01*
X176426905Y-67762381D02*
X176426905Y-66762381D01*
X176807858Y-66762381D01*
X176903096Y-66810000D01*
X176950715Y-66857619D01*
X176998334Y-66952857D01*
X176998334Y-67095714D01*
X176950715Y-67190952D01*
X176903096Y-67238571D01*
X176807858Y-67286190D01*
X176426905Y-67286190D01*
X177903096Y-66762381D02*
X177426905Y-66762381D01*
X177379286Y-67238571D01*
X177426905Y-67190952D01*
X177522143Y-67143333D01*
X177760239Y-67143333D01*
X177855477Y-67190952D01*
X177903096Y-67238571D01*
X177950715Y-67333810D01*
X177950715Y-67571905D01*
X177903096Y-67667143D01*
X177855477Y-67714762D01*
X177760239Y-67762381D01*
X177522143Y-67762381D01*
X177426905Y-67714762D01*
X177379286Y-67667143D01*
X176712619Y-65373095D02*
X176665000Y-65325476D01*
X176617381Y-65230238D01*
X176617381Y-64992142D01*
X176665000Y-64896904D01*
X176712619Y-64849285D01*
X176807857Y-64801666D01*
X176903095Y-64801666D01*
X177045952Y-64849285D01*
X177617381Y-65420714D01*
X177617381Y-64801666D01*
X176712619Y-64420714D02*
X176665000Y-64373095D01*
X176617381Y-64277857D01*
X176617381Y-64039761D01*
X176665000Y-63944523D01*
X176712619Y-63896904D01*
X176807857Y-63849285D01*
X176903095Y-63849285D01*
X177045952Y-63896904D01*
X177617381Y-64468333D01*
X177617381Y-63849285D01*
X176617381Y-63230238D02*
X176617381Y-63134999D01*
X176665000Y-63039761D01*
X176712619Y-62992142D01*
X176807857Y-62944523D01*
X176998333Y-62896904D01*
X177236429Y-62896904D01*
X177426905Y-62944523D01*
X177522143Y-62992142D01*
X177569762Y-63039761D01*
X177617381Y-63134999D01*
X177617381Y-63230238D01*
X177569762Y-63325476D01*
X177522143Y-63373095D01*
X177426905Y-63420714D01*
X177236429Y-63468333D01*
X176998333Y-63468333D01*
X176807857Y-63420714D01*
X176712619Y-63373095D01*
X176665000Y-63325476D01*
X176617381Y-63230238D01*
X173188334Y-67762381D02*
X172855000Y-67286190D01*
X172616905Y-67762381D02*
X172616905Y-66762381D01*
X172997858Y-66762381D01*
X173093096Y-66810000D01*
X173140715Y-66857619D01*
X173188334Y-66952857D01*
X173188334Y-67095714D01*
X173140715Y-67190952D01*
X173093096Y-67238571D01*
X172997858Y-67286190D01*
X172616905Y-67286190D01*
X174045477Y-66762381D02*
X173855000Y-66762381D01*
X173759762Y-66810000D01*
X173712143Y-66857619D01*
X173616905Y-67000476D01*
X173569286Y-67190952D01*
X173569286Y-67571905D01*
X173616905Y-67667143D01*
X173664524Y-67714762D01*
X173759762Y-67762381D01*
X173950239Y-67762381D01*
X174045477Y-67714762D01*
X174093096Y-67667143D01*
X174140715Y-67571905D01*
X174140715Y-67333810D01*
X174093096Y-67238571D01*
X174045477Y-67190952D01*
X173950239Y-67143333D01*
X173759762Y-67143333D01*
X173664524Y-67190952D01*
X173616905Y-67238571D01*
X173569286Y-67333810D01*
X172902619Y-65373095D02*
X172855000Y-65325476D01*
X172807381Y-65230238D01*
X172807381Y-64992142D01*
X172855000Y-64896904D01*
X172902619Y-64849285D01*
X172997857Y-64801666D01*
X173093095Y-64801666D01*
X173235952Y-64849285D01*
X173807381Y-65420714D01*
X173807381Y-64801666D01*
X172902619Y-64420714D02*
X172855000Y-64373095D01*
X172807381Y-64277857D01*
X172807381Y-64039761D01*
X172855000Y-63944523D01*
X172902619Y-63896904D01*
X172997857Y-63849285D01*
X173093095Y-63849285D01*
X173235952Y-63896904D01*
X173807381Y-64468333D01*
X173807381Y-63849285D01*
X172807381Y-63230238D02*
X172807381Y-63134999D01*
X172855000Y-63039761D01*
X172902619Y-62992142D01*
X172997857Y-62944523D01*
X173188333Y-62896904D01*
X173426429Y-62896904D01*
X173616905Y-62944523D01*
X173712143Y-62992142D01*
X173759762Y-63039761D01*
X173807381Y-63134999D01*
X173807381Y-63230238D01*
X173759762Y-63325476D01*
X173712143Y-63373095D01*
X173616905Y-63420714D01*
X173426429Y-63468333D01*
X173188333Y-63468333D01*
X172997857Y-63420714D01*
X172902619Y-63373095D01*
X172855000Y-63325476D01*
X172807381Y-63230238D01*
X169378334Y-67762381D02*
X169045000Y-67286190D01*
X168806905Y-67762381D02*
X168806905Y-66762381D01*
X169187858Y-66762381D01*
X169283096Y-66810000D01*
X169330715Y-66857619D01*
X169378334Y-66952857D01*
X169378334Y-67095714D01*
X169330715Y-67190952D01*
X169283096Y-67238571D01*
X169187858Y-67286190D01*
X168806905Y-67286190D01*
X169711667Y-66762381D02*
X170378334Y-66762381D01*
X169949762Y-67762381D01*
X169092619Y-65373095D02*
X169045000Y-65325476D01*
X168997381Y-65230238D01*
X168997381Y-64992142D01*
X169045000Y-64896904D01*
X169092619Y-64849285D01*
X169187857Y-64801666D01*
X169283095Y-64801666D01*
X169425952Y-64849285D01*
X169997381Y-65420714D01*
X169997381Y-64801666D01*
X169092619Y-64420714D02*
X169045000Y-64373095D01*
X168997381Y-64277857D01*
X168997381Y-64039761D01*
X169045000Y-63944523D01*
X169092619Y-63896904D01*
X169187857Y-63849285D01*
X169283095Y-63849285D01*
X169425952Y-63896904D01*
X169997381Y-64468333D01*
X169997381Y-63849285D01*
X168997381Y-63230238D02*
X168997381Y-63134999D01*
X169045000Y-63039761D01*
X169092619Y-62992142D01*
X169187857Y-62944523D01*
X169378333Y-62896904D01*
X169616429Y-62896904D01*
X169806905Y-62944523D01*
X169902143Y-62992142D01*
X169949762Y-63039761D01*
X169997381Y-63134999D01*
X169997381Y-63230238D01*
X169949762Y-63325476D01*
X169902143Y-63373095D01*
X169806905Y-63420714D01*
X169616429Y-63468333D01*
X169378333Y-63468333D01*
X169187857Y-63420714D01*
X169092619Y-63373095D01*
X169045000Y-63325476D01*
X168997381Y-63230238D01*
X165568334Y-67762381D02*
X165235000Y-67286190D01*
X164996905Y-67762381D02*
X164996905Y-66762381D01*
X165377858Y-66762381D01*
X165473096Y-66810000D01*
X165520715Y-66857619D01*
X165568334Y-66952857D01*
X165568334Y-67095714D01*
X165520715Y-67190952D01*
X165473096Y-67238571D01*
X165377858Y-67286190D01*
X164996905Y-67286190D01*
X166139762Y-67190952D02*
X166044524Y-67143333D01*
X165996905Y-67095714D01*
X165949286Y-67000476D01*
X165949286Y-66952857D01*
X165996905Y-66857619D01*
X166044524Y-66810000D01*
X166139762Y-66762381D01*
X166330239Y-66762381D01*
X166425477Y-66810000D01*
X166473096Y-66857619D01*
X166520715Y-66952857D01*
X166520715Y-67000476D01*
X166473096Y-67095714D01*
X166425477Y-67143333D01*
X166330239Y-67190952D01*
X166139762Y-67190952D01*
X166044524Y-67238571D01*
X165996905Y-67286190D01*
X165949286Y-67381429D01*
X165949286Y-67571905D01*
X165996905Y-67667143D01*
X166044524Y-67714762D01*
X166139762Y-67762381D01*
X166330239Y-67762381D01*
X166425477Y-67714762D01*
X166473096Y-67667143D01*
X166520715Y-67571905D01*
X166520715Y-67381429D01*
X166473096Y-67286190D01*
X166425477Y-67238571D01*
X166330239Y-67190952D01*
X165282619Y-65373095D02*
X165235000Y-65325476D01*
X165187381Y-65230238D01*
X165187381Y-64992142D01*
X165235000Y-64896904D01*
X165282619Y-64849285D01*
X165377857Y-64801666D01*
X165473095Y-64801666D01*
X165615952Y-64849285D01*
X166187381Y-65420714D01*
X166187381Y-64801666D01*
X165282619Y-64420714D02*
X165235000Y-64373095D01*
X165187381Y-64277857D01*
X165187381Y-64039761D01*
X165235000Y-63944523D01*
X165282619Y-63896904D01*
X165377857Y-63849285D01*
X165473095Y-63849285D01*
X165615952Y-63896904D01*
X166187381Y-64468333D01*
X166187381Y-63849285D01*
X165187381Y-63230238D02*
X165187381Y-63134999D01*
X165235000Y-63039761D01*
X165282619Y-62992142D01*
X165377857Y-62944523D01*
X165568333Y-62896904D01*
X165806429Y-62896904D01*
X165996905Y-62944523D01*
X166092143Y-62992142D01*
X166139762Y-63039761D01*
X166187381Y-63134999D01*
X166187381Y-63230238D01*
X166139762Y-63325476D01*
X166092143Y-63373095D01*
X165996905Y-63420714D01*
X165806429Y-63468333D01*
X165568333Y-63468333D01*
X165377857Y-63420714D01*
X165282619Y-63373095D01*
X165235000Y-63325476D01*
X165187381Y-63230238D01*
X161758334Y-67762381D02*
X161425000Y-67286190D01*
X161186905Y-67762381D02*
X161186905Y-66762381D01*
X161567858Y-66762381D01*
X161663096Y-66810000D01*
X161710715Y-66857619D01*
X161758334Y-66952857D01*
X161758334Y-67095714D01*
X161710715Y-67190952D01*
X161663096Y-67238571D01*
X161567858Y-67286190D01*
X161186905Y-67286190D01*
X162234524Y-67762381D02*
X162425000Y-67762381D01*
X162520239Y-67714762D01*
X162567858Y-67667143D01*
X162663096Y-67524286D01*
X162710715Y-67333810D01*
X162710715Y-66952857D01*
X162663096Y-66857619D01*
X162615477Y-66810000D01*
X162520239Y-66762381D01*
X162329762Y-66762381D01*
X162234524Y-66810000D01*
X162186905Y-66857619D01*
X162139286Y-66952857D01*
X162139286Y-67190952D01*
X162186905Y-67286190D01*
X162234524Y-67333810D01*
X162329762Y-67381429D01*
X162520239Y-67381429D01*
X162615477Y-67333810D01*
X162663096Y-67286190D01*
X162710715Y-67190952D01*
X161472619Y-65373095D02*
X161425000Y-65325476D01*
X161377381Y-65230238D01*
X161377381Y-64992142D01*
X161425000Y-64896904D01*
X161472619Y-64849285D01*
X161567857Y-64801666D01*
X161663095Y-64801666D01*
X161805952Y-64849285D01*
X162377381Y-65420714D01*
X162377381Y-64801666D01*
X161472619Y-64420714D02*
X161425000Y-64373095D01*
X161377381Y-64277857D01*
X161377381Y-64039761D01*
X161425000Y-63944523D01*
X161472619Y-63896904D01*
X161567857Y-63849285D01*
X161663095Y-63849285D01*
X161805952Y-63896904D01*
X162377381Y-64468333D01*
X162377381Y-63849285D01*
X161377381Y-63230238D02*
X161377381Y-63134999D01*
X161425000Y-63039761D01*
X161472619Y-62992142D01*
X161567857Y-62944523D01*
X161758333Y-62896904D01*
X161996429Y-62896904D01*
X162186905Y-62944523D01*
X162282143Y-62992142D01*
X162329762Y-63039761D01*
X162377381Y-63134999D01*
X162377381Y-63230238D01*
X162329762Y-63325476D01*
X162282143Y-63373095D01*
X162186905Y-63420714D01*
X161996429Y-63468333D01*
X161758333Y-63468333D01*
X161567857Y-63420714D01*
X161472619Y-63373095D01*
X161425000Y-63325476D01*
X161377381Y-63230238D01*
X157472143Y-67762381D02*
X157138809Y-67286190D01*
X156900714Y-67762381D02*
X156900714Y-66762381D01*
X157281667Y-66762381D01*
X157376905Y-66810000D01*
X157424524Y-66857619D01*
X157472143Y-66952857D01*
X157472143Y-67095714D01*
X157424524Y-67190952D01*
X157376905Y-67238571D01*
X157281667Y-67286190D01*
X156900714Y-67286190D01*
X158424524Y-67762381D02*
X157853095Y-67762381D01*
X158138809Y-67762381D02*
X158138809Y-66762381D01*
X158043571Y-66905238D01*
X157948333Y-67000476D01*
X157853095Y-67048095D01*
X159043571Y-66762381D02*
X159138810Y-66762381D01*
X159234048Y-66810000D01*
X159281667Y-66857619D01*
X159329286Y-66952857D01*
X159376905Y-67143333D01*
X159376905Y-67381429D01*
X159329286Y-67571905D01*
X159281667Y-67667143D01*
X159234048Y-67714762D01*
X159138810Y-67762381D01*
X159043571Y-67762381D01*
X158948333Y-67714762D01*
X158900714Y-67667143D01*
X158853095Y-67571905D01*
X158805476Y-67381429D01*
X158805476Y-67143333D01*
X158853095Y-66952857D01*
X158900714Y-66857619D01*
X158948333Y-66810000D01*
X159043571Y-66762381D01*
X157662619Y-65373095D02*
X157615000Y-65325476D01*
X157567381Y-65230238D01*
X157567381Y-64992142D01*
X157615000Y-64896904D01*
X157662619Y-64849285D01*
X157757857Y-64801666D01*
X157853095Y-64801666D01*
X157995952Y-64849285D01*
X158567381Y-65420714D01*
X158567381Y-64801666D01*
X157662619Y-64420714D02*
X157615000Y-64373095D01*
X157567381Y-64277857D01*
X157567381Y-64039761D01*
X157615000Y-63944523D01*
X157662619Y-63896904D01*
X157757857Y-63849285D01*
X157853095Y-63849285D01*
X157995952Y-63896904D01*
X158567381Y-64468333D01*
X158567381Y-63849285D01*
X157567381Y-63230238D02*
X157567381Y-63134999D01*
X157615000Y-63039761D01*
X157662619Y-62992142D01*
X157757857Y-62944523D01*
X157948333Y-62896904D01*
X158186429Y-62896904D01*
X158376905Y-62944523D01*
X158472143Y-62992142D01*
X158519762Y-63039761D01*
X158567381Y-63134999D01*
X158567381Y-63230238D01*
X158519762Y-63325476D01*
X158472143Y-63373095D01*
X158376905Y-63420714D01*
X158186429Y-63468333D01*
X157948333Y-63468333D01*
X157757857Y-63420714D01*
X157662619Y-63373095D01*
X157615000Y-63325476D01*
X157567381Y-63230238D01*
X153662143Y-67762381D02*
X153328809Y-67286190D01*
X153090714Y-67762381D02*
X153090714Y-66762381D01*
X153471667Y-66762381D01*
X153566905Y-66810000D01*
X153614524Y-66857619D01*
X153662143Y-66952857D01*
X153662143Y-67095714D01*
X153614524Y-67190952D01*
X153566905Y-67238571D01*
X153471667Y-67286190D01*
X153090714Y-67286190D01*
X154614524Y-67762381D02*
X154043095Y-67762381D01*
X154328809Y-67762381D02*
X154328809Y-66762381D01*
X154233571Y-66905238D01*
X154138333Y-67000476D01*
X154043095Y-67048095D01*
X155566905Y-67762381D02*
X154995476Y-67762381D01*
X155281190Y-67762381D02*
X155281190Y-66762381D01*
X155185952Y-66905238D01*
X155090714Y-67000476D01*
X154995476Y-67048095D01*
X153852619Y-65373095D02*
X153805000Y-65325476D01*
X153757381Y-65230238D01*
X153757381Y-64992142D01*
X153805000Y-64896904D01*
X153852619Y-64849285D01*
X153947857Y-64801666D01*
X154043095Y-64801666D01*
X154185952Y-64849285D01*
X154757381Y-65420714D01*
X154757381Y-64801666D01*
X153852619Y-64420714D02*
X153805000Y-64373095D01*
X153757381Y-64277857D01*
X153757381Y-64039761D01*
X153805000Y-63944523D01*
X153852619Y-63896904D01*
X153947857Y-63849285D01*
X154043095Y-63849285D01*
X154185952Y-63896904D01*
X154757381Y-64468333D01*
X154757381Y-63849285D01*
X153757381Y-63230238D02*
X153757381Y-63134999D01*
X153805000Y-63039761D01*
X153852619Y-62992142D01*
X153947857Y-62944523D01*
X154138333Y-62896904D01*
X154376429Y-62896904D01*
X154566905Y-62944523D01*
X154662143Y-62992142D01*
X154709762Y-63039761D01*
X154757381Y-63134999D01*
X154757381Y-63230238D01*
X154709762Y-63325476D01*
X154662143Y-63373095D01*
X154566905Y-63420714D01*
X154376429Y-63468333D01*
X154138333Y-63468333D01*
X153947857Y-63420714D01*
X153852619Y-63373095D01*
X153805000Y-63325476D01*
X153757381Y-63230238D01*
X135763095Y-78827381D02*
X135763095Y-79636905D01*
X135810714Y-79732143D01*
X135858333Y-79779762D01*
X135953571Y-79827381D01*
X136144048Y-79827381D01*
X136239286Y-79779762D01*
X136286905Y-79732143D01*
X136334524Y-79636905D01*
X136334524Y-78827381D01*
X137334524Y-79827381D02*
X136763095Y-79827381D01*
X137048809Y-79827381D02*
X137048809Y-78827381D01*
X136953571Y-78970238D01*
X136858333Y-79065476D01*
X136763095Y-79113095D01*
X135977381Y-91384048D02*
X135977381Y-90717381D01*
X136977381Y-91145953D01*
X136310714Y-89907857D02*
X136977381Y-89907857D01*
X135929762Y-90145953D02*
X136644048Y-90384048D01*
X136644048Y-89765000D01*
X136977381Y-88907857D02*
X136977381Y-89384048D01*
X135977381Y-89384048D01*
X136929762Y-88622143D02*
X136977381Y-88479286D01*
X136977381Y-88241190D01*
X136929762Y-88145952D01*
X136882143Y-88098333D01*
X136786905Y-88050714D01*
X136691667Y-88050714D01*
X136596429Y-88098333D01*
X136548810Y-88145952D01*
X136501190Y-88241190D01*
X136453571Y-88431667D01*
X136405952Y-88526905D01*
X136358333Y-88574524D01*
X136263095Y-88622143D01*
X136167857Y-88622143D01*
X136072619Y-88574524D01*
X136025000Y-88526905D01*
X135977381Y-88431667D01*
X135977381Y-88193571D01*
X136025000Y-88050714D01*
X135977381Y-87717381D02*
X135977381Y-87098333D01*
X136358333Y-87431667D01*
X136358333Y-87288809D01*
X136405952Y-87193571D01*
X136453571Y-87145952D01*
X136548810Y-87098333D01*
X136786905Y-87098333D01*
X136882143Y-87145952D01*
X136929762Y-87193571D01*
X136977381Y-87288809D01*
X136977381Y-87574524D01*
X136929762Y-87669762D01*
X136882143Y-87717381D01*
X135977381Y-86765000D02*
X135977381Y-86098333D01*
X136977381Y-86526905D01*
X136310714Y-85288809D02*
X136977381Y-85288809D01*
X135929762Y-85526905D02*
X136644048Y-85765000D01*
X136644048Y-85145952D01*
X180236905Y-56967381D02*
X180236905Y-55967381D01*
X180475000Y-55967381D01*
X180617858Y-56015000D01*
X180713096Y-56110238D01*
X180760715Y-56205476D01*
X180808334Y-56395952D01*
X180808334Y-56538810D01*
X180760715Y-56729286D01*
X180713096Y-56824524D01*
X180617858Y-56919762D01*
X180475000Y-56967381D01*
X180236905Y-56967381D01*
X181427381Y-55967381D02*
X181522620Y-55967381D01*
X181617858Y-56015000D01*
X181665477Y-56062619D01*
X181713096Y-56157857D01*
X181760715Y-56348333D01*
X181760715Y-56586429D01*
X181713096Y-56776905D01*
X181665477Y-56872143D01*
X181617858Y-56919762D01*
X181522620Y-56967381D01*
X181427381Y-56967381D01*
X181332143Y-56919762D01*
X181284524Y-56872143D01*
X181236905Y-56776905D01*
X181189286Y-56586429D01*
X181189286Y-56348333D01*
X181236905Y-56157857D01*
X181284524Y-56062619D01*
X181332143Y-56015000D01*
X181427381Y-55967381D01*
X162456905Y-56967381D02*
X162456905Y-55967381D01*
X162695000Y-55967381D01*
X162837858Y-56015000D01*
X162933096Y-56110238D01*
X162980715Y-56205476D01*
X163028334Y-56395952D01*
X163028334Y-56538810D01*
X162980715Y-56729286D01*
X162933096Y-56824524D01*
X162837858Y-56919762D01*
X162695000Y-56967381D01*
X162456905Y-56967381D01*
X163409286Y-56062619D02*
X163456905Y-56015000D01*
X163552143Y-55967381D01*
X163790239Y-55967381D01*
X163885477Y-56015000D01*
X163933096Y-56062619D01*
X163980715Y-56157857D01*
X163980715Y-56253095D01*
X163933096Y-56395952D01*
X163361667Y-56967381D01*
X163980715Y-56967381D01*
X153566905Y-56967381D02*
X153566905Y-55967381D01*
X153805000Y-55967381D01*
X153947858Y-56015000D01*
X154043096Y-56110238D01*
X154090715Y-56205476D01*
X154138334Y-56395952D01*
X154138334Y-56538810D01*
X154090715Y-56729286D01*
X154043096Y-56824524D01*
X153947858Y-56919762D01*
X153805000Y-56967381D01*
X153566905Y-56967381D01*
X154471667Y-55967381D02*
X155090715Y-55967381D01*
X154757381Y-56348333D01*
X154900239Y-56348333D01*
X154995477Y-56395952D01*
X155043096Y-56443571D01*
X155090715Y-56538810D01*
X155090715Y-56776905D01*
X155043096Y-56872143D01*
X154995477Y-56919762D01*
X154900239Y-56967381D01*
X154614524Y-56967381D01*
X154519286Y-56919762D01*
X154471667Y-56872143D01*
X144676905Y-56967381D02*
X144676905Y-55967381D01*
X144915000Y-55967381D01*
X145057858Y-56015000D01*
X145153096Y-56110238D01*
X145200715Y-56205476D01*
X145248334Y-56395952D01*
X145248334Y-56538810D01*
X145200715Y-56729286D01*
X145153096Y-56824524D01*
X145057858Y-56919762D01*
X144915000Y-56967381D01*
X144676905Y-56967381D01*
X146105477Y-56300714D02*
X146105477Y-56967381D01*
X145867381Y-55919762D02*
X145629286Y-56634048D01*
X146248334Y-56634048D01*
X135786905Y-56967381D02*
X135786905Y-55967381D01*
X136025000Y-55967381D01*
X136167858Y-56015000D01*
X136263096Y-56110238D01*
X136310715Y-56205476D01*
X136358334Y-56395952D01*
X136358334Y-56538810D01*
X136310715Y-56729286D01*
X136263096Y-56824524D01*
X136167858Y-56919762D01*
X136025000Y-56967381D01*
X135786905Y-56967381D01*
X137263096Y-55967381D02*
X136786905Y-55967381D01*
X136739286Y-56443571D01*
X136786905Y-56395952D01*
X136882143Y-56348333D01*
X137120239Y-56348333D01*
X137215477Y-56395952D01*
X137263096Y-56443571D01*
X137310715Y-56538810D01*
X137310715Y-56776905D01*
X137263096Y-56872143D01*
X137215477Y-56919762D01*
X137120239Y-56967381D01*
X136882143Y-56967381D01*
X136786905Y-56919762D01*
X136739286Y-56872143D01*
X126896905Y-56967381D02*
X126896905Y-55967381D01*
X127135000Y-55967381D01*
X127277858Y-56015000D01*
X127373096Y-56110238D01*
X127420715Y-56205476D01*
X127468334Y-56395952D01*
X127468334Y-56538810D01*
X127420715Y-56729286D01*
X127373096Y-56824524D01*
X127277858Y-56919762D01*
X127135000Y-56967381D01*
X126896905Y-56967381D01*
X128325477Y-55967381D02*
X128135000Y-55967381D01*
X128039762Y-56015000D01*
X127992143Y-56062619D01*
X127896905Y-56205476D01*
X127849286Y-56395952D01*
X127849286Y-56776905D01*
X127896905Y-56872143D01*
X127944524Y-56919762D01*
X128039762Y-56967381D01*
X128230239Y-56967381D01*
X128325477Y-56919762D01*
X128373096Y-56872143D01*
X128420715Y-56776905D01*
X128420715Y-56538810D01*
X128373096Y-56443571D01*
X128325477Y-56395952D01*
X128230239Y-56348333D01*
X128039762Y-56348333D01*
X127944524Y-56395952D01*
X127896905Y-56443571D01*
X127849286Y-56538810D01*
X118006905Y-56967381D02*
X118006905Y-55967381D01*
X118245000Y-55967381D01*
X118387858Y-56015000D01*
X118483096Y-56110238D01*
X118530715Y-56205476D01*
X118578334Y-56395952D01*
X118578334Y-56538810D01*
X118530715Y-56729286D01*
X118483096Y-56824524D01*
X118387858Y-56919762D01*
X118245000Y-56967381D01*
X118006905Y-56967381D01*
X118911667Y-55967381D02*
X119578334Y-55967381D01*
X119149762Y-56967381D01*
X171346905Y-56967381D02*
X171346905Y-55967381D01*
X171585000Y-55967381D01*
X171727858Y-56015000D01*
X171823096Y-56110238D01*
X171870715Y-56205476D01*
X171918334Y-56395952D01*
X171918334Y-56538810D01*
X171870715Y-56729286D01*
X171823096Y-56824524D01*
X171727858Y-56919762D01*
X171585000Y-56967381D01*
X171346905Y-56967381D01*
X172870715Y-56967381D02*
X172299286Y-56967381D01*
X172585000Y-56967381D02*
X172585000Y-55967381D01*
X172489762Y-56110238D01*
X172394524Y-56205476D01*
X172299286Y-56253095D01*
X128738334Y-81732381D02*
X128405000Y-81256190D01*
X128166905Y-81732381D02*
X128166905Y-80732381D01*
X128547858Y-80732381D01*
X128643096Y-80780000D01*
X128690715Y-80827619D01*
X128738334Y-80922857D01*
X128738334Y-81065714D01*
X128690715Y-81160952D01*
X128643096Y-81208571D01*
X128547858Y-81256190D01*
X128166905Y-81256190D01*
X129690715Y-81732381D02*
X129119286Y-81732381D01*
X129405000Y-81732381D02*
X129405000Y-80732381D01*
X129309762Y-80875238D01*
X129214524Y-80970476D01*
X129119286Y-81018095D01*
X128452619Y-85693095D02*
X128405000Y-85645476D01*
X128357381Y-85550238D01*
X128357381Y-85312142D01*
X128405000Y-85216904D01*
X128452619Y-85169285D01*
X128547857Y-85121666D01*
X128643095Y-85121666D01*
X128785952Y-85169285D01*
X129357381Y-85740714D01*
X129357381Y-85121666D01*
X128452619Y-84740714D02*
X128405000Y-84693095D01*
X128357381Y-84597857D01*
X128357381Y-84359761D01*
X128405000Y-84264523D01*
X128452619Y-84216904D01*
X128547857Y-84169285D01*
X128643095Y-84169285D01*
X128785952Y-84216904D01*
X129357381Y-84788333D01*
X129357381Y-84169285D01*
X128357381Y-83550238D02*
X128357381Y-83454999D01*
X128405000Y-83359761D01*
X128452619Y-83312142D01*
X128547857Y-83264523D01*
X128738333Y-83216904D01*
X128976429Y-83216904D01*
X129166905Y-83264523D01*
X129262143Y-83312142D01*
X129309762Y-83359761D01*
X129357381Y-83454999D01*
X129357381Y-83550238D01*
X129309762Y-83645476D01*
X129262143Y-83693095D01*
X129166905Y-83740714D01*
X128976429Y-83788333D01*
X128738333Y-83788333D01*
X128547857Y-83740714D01*
X128452619Y-83693095D01*
X128405000Y-83645476D01*
X128357381Y-83550238D01*
X115868579Y-65571666D02*
X115916198Y-65619285D01*
X115963817Y-65762142D01*
X115963817Y-65857380D01*
X115916198Y-66000238D01*
X115820960Y-66095476D01*
X115725722Y-66143095D01*
X115535246Y-66190714D01*
X115392388Y-66190714D01*
X115201912Y-66143095D01*
X115106674Y-66095476D01*
X115011436Y-66000238D01*
X114963817Y-65857380D01*
X114963817Y-65762142D01*
X115011436Y-65619285D01*
X115059055Y-65571666D01*
X114963817Y-65238333D02*
X114963817Y-64619285D01*
X115344769Y-64952619D01*
X115344769Y-64809761D01*
X115392388Y-64714523D01*
X115440007Y-64666904D01*
X115535246Y-64619285D01*
X115773341Y-64619285D01*
X115868579Y-64666904D01*
X115916198Y-64714523D01*
X115963817Y-64809761D01*
X115963817Y-65095476D01*
X115916198Y-65190714D01*
X115868579Y-65238333D01*
D10*
X127876429Y-102558810D02*
X127990715Y-102596905D01*
X128181191Y-102596905D01*
X128257381Y-102558810D01*
X128295477Y-102520714D01*
X128333572Y-102444524D01*
X128333572Y-102368333D01*
X128295477Y-102292143D01*
X128257381Y-102254048D01*
X128181191Y-102215952D01*
X128028810Y-102177857D01*
X127952619Y-102139762D01*
X127914524Y-102101667D01*
X127876429Y-102025476D01*
X127876429Y-101949286D01*
X127914524Y-101873095D01*
X127952619Y-101835000D01*
X128028810Y-101796905D01*
X128219286Y-101796905D01*
X128333572Y-101835000D01*
X128676429Y-102596905D02*
X128676429Y-101796905D01*
X128981191Y-101796905D01*
X129057382Y-101835000D01*
X129095477Y-101873095D01*
X129133572Y-101949286D01*
X129133572Y-102063571D01*
X129095477Y-102139762D01*
X129057382Y-102177857D01*
X128981191Y-102215952D01*
X128676429Y-102215952D01*
X129476429Y-102596905D02*
X129476429Y-101796905D01*
X129933572Y-102596905D02*
X129590715Y-102139762D01*
X129933572Y-101796905D02*
X129476429Y-102254048D01*
D12*
X121793095Y-64857381D02*
X121793095Y-65666905D01*
X121840714Y-65762143D01*
X121888333Y-65809762D01*
X121983571Y-65857381D01*
X122174048Y-65857381D01*
X122269286Y-65809762D01*
X122316905Y-65762143D01*
X122364524Y-65666905D01*
X122364524Y-64857381D01*
X122745476Y-64857381D02*
X123364524Y-64857381D01*
X123031190Y-65238333D01*
X123174048Y-65238333D01*
X123269286Y-65285952D01*
X123316905Y-65333571D01*
X123364524Y-65428810D01*
X123364524Y-65666905D01*
X123316905Y-65762143D01*
X123269286Y-65809762D01*
X123174048Y-65857381D01*
X122888333Y-65857381D01*
X122793095Y-65809762D01*
X122745476Y-65762143D01*
X127055952Y-64857381D02*
X127722619Y-64857381D01*
X127294047Y-65857381D01*
X128532143Y-65190714D02*
X128532143Y-65857381D01*
X128294047Y-64809762D02*
X128055952Y-65524048D01*
X128675000Y-65524048D01*
X129532143Y-65857381D02*
X129055952Y-65857381D01*
X129055952Y-64857381D01*
X129817857Y-65809762D02*
X129960714Y-65857381D01*
X130198810Y-65857381D01*
X130294048Y-65809762D01*
X130341667Y-65762143D01*
X130389286Y-65666905D01*
X130389286Y-65571667D01*
X130341667Y-65476429D01*
X130294048Y-65428810D01*
X130198810Y-65381190D01*
X130008333Y-65333571D01*
X129913095Y-65285952D01*
X129865476Y-65238333D01*
X129817857Y-65143095D01*
X129817857Y-65047857D01*
X129865476Y-64952619D01*
X129913095Y-64905000D01*
X130008333Y-64857381D01*
X130246429Y-64857381D01*
X130389286Y-64905000D01*
X131341667Y-65857381D02*
X130770238Y-65857381D01*
X131055952Y-65857381D02*
X131055952Y-64857381D01*
X130960714Y-65000238D01*
X130865476Y-65095476D01*
X130770238Y-65143095D01*
X131675000Y-64857381D02*
X132294048Y-64857381D01*
X131960714Y-65238333D01*
X132103572Y-65238333D01*
X132198810Y-65285952D01*
X132246429Y-65333571D01*
X132294048Y-65428810D01*
X132294048Y-65666905D01*
X132246429Y-65762143D01*
X132198810Y-65809762D01*
X132103572Y-65857381D01*
X131817857Y-65857381D01*
X131722619Y-65809762D01*
X131675000Y-65762143D01*
X132865476Y-65285952D02*
X132770238Y-65238333D01*
X132722619Y-65190714D01*
X132675000Y-65095476D01*
X132675000Y-65047857D01*
X132722619Y-64952619D01*
X132770238Y-64905000D01*
X132865476Y-64857381D01*
X133055953Y-64857381D01*
X133151191Y-64905000D01*
X133198810Y-64952619D01*
X133246429Y-65047857D01*
X133246429Y-65095476D01*
X133198810Y-65190714D01*
X133151191Y-65238333D01*
X133055953Y-65285952D01*
X132865476Y-65285952D01*
X132770238Y-65333571D01*
X132722619Y-65381190D01*
X132675000Y-65476429D01*
X132675000Y-65666905D01*
X132722619Y-65762143D01*
X132770238Y-65809762D01*
X132865476Y-65857381D01*
X133055953Y-65857381D01*
X133151191Y-65809762D01*
X133198810Y-65762143D01*
X133246429Y-65666905D01*
X133246429Y-65476429D01*
X133198810Y-65381190D01*
X133151191Y-65333571D01*
X133055953Y-65285952D01*
D10*
X112172857Y-102177857D02*
X112439524Y-102177857D01*
X112553810Y-102596905D02*
X112172857Y-102596905D01*
X112172857Y-101796905D01*
X112553810Y-101796905D01*
X112820477Y-101796905D02*
X113353810Y-102596905D01*
X113353810Y-101796905D02*
X112820477Y-102596905D01*
X113544286Y-101796905D02*
X114001429Y-101796905D01*
X113772858Y-102596905D02*
X113772858Y-101796905D01*
X141382857Y-69576905D02*
X141116190Y-69195952D01*
X140925714Y-69576905D02*
X140925714Y-68776905D01*
X141230476Y-68776905D01*
X141306667Y-68815000D01*
X141344762Y-68853095D01*
X141382857Y-68929286D01*
X141382857Y-69043571D01*
X141344762Y-69119762D01*
X141306667Y-69157857D01*
X141230476Y-69195952D01*
X140925714Y-69195952D01*
X141725714Y-69157857D02*
X141992381Y-69157857D01*
X142106667Y-69576905D02*
X141725714Y-69576905D01*
X141725714Y-68776905D01*
X142106667Y-68776905D01*
X142411429Y-69348333D02*
X142792381Y-69348333D01*
X142335238Y-69576905D02*
X142601905Y-68776905D01*
X142868572Y-69576905D01*
X143135238Y-69576905D02*
X143135238Y-68776905D01*
X143325714Y-68776905D01*
X143440000Y-68815000D01*
X143516191Y-68891190D01*
X143554286Y-68967381D01*
X143592381Y-69119762D01*
X143592381Y-69234048D01*
X143554286Y-69386429D01*
X143516191Y-69462619D01*
X143440000Y-69538810D01*
X143325714Y-69576905D01*
X143135238Y-69576905D01*
X127558810Y-107118095D02*
X127482619Y-107080000D01*
X127406429Y-107003810D01*
X127292143Y-106889524D01*
X127215952Y-106851429D01*
X127139762Y-106851429D01*
X127177857Y-107041905D02*
X127101667Y-107003810D01*
X127025476Y-106927619D01*
X126987381Y-106775238D01*
X126987381Y-106508571D01*
X127025476Y-106356190D01*
X127101667Y-106280000D01*
X127177857Y-106241905D01*
X127330238Y-106241905D01*
X127406429Y-106280000D01*
X127482619Y-106356190D01*
X127520714Y-106508571D01*
X127520714Y-106775238D01*
X127482619Y-106927619D01*
X127406429Y-107003810D01*
X127330238Y-107041905D01*
X127177857Y-107041905D01*
X128282619Y-107041905D02*
X127825476Y-107041905D01*
X128054047Y-107041905D02*
X128054047Y-106241905D01*
X127977857Y-106356190D01*
X127901666Y-106432381D01*
X127825476Y-106470476D01*
D12*
X125087143Y-130881381D02*
X124610952Y-130881381D01*
X124610952Y-129881381D01*
X125372857Y-130833762D02*
X125515714Y-130881381D01*
X125753810Y-130881381D01*
X125849048Y-130833762D01*
X125896667Y-130786143D01*
X125944286Y-130690905D01*
X125944286Y-130595667D01*
X125896667Y-130500429D01*
X125849048Y-130452810D01*
X125753810Y-130405190D01*
X125563333Y-130357571D01*
X125468095Y-130309952D01*
X125420476Y-130262333D01*
X125372857Y-130167095D01*
X125372857Y-130071857D01*
X125420476Y-129976619D01*
X125468095Y-129929000D01*
X125563333Y-129881381D01*
X125801429Y-129881381D01*
X125944286Y-129929000D01*
X126896667Y-130881381D02*
X126325238Y-130881381D01*
X126610952Y-130881381D02*
X126610952Y-129881381D01*
X126515714Y-130024238D01*
X126420476Y-130119476D01*
X126325238Y-130167095D01*
X123634762Y-115625619D02*
X123682381Y-115578000D01*
X123777619Y-115530381D01*
X124015715Y-115530381D01*
X124110953Y-115578000D01*
X124158572Y-115625619D01*
X124206191Y-115720857D01*
X124206191Y-115816095D01*
X124158572Y-115958952D01*
X123587143Y-116530381D01*
X124206191Y-116530381D01*
X124539524Y-115530381D02*
X125158572Y-115530381D01*
X124825238Y-115911333D01*
X124968096Y-115911333D01*
X125063334Y-115958952D01*
X125110953Y-116006571D01*
X125158572Y-116101810D01*
X125158572Y-116339905D01*
X125110953Y-116435143D01*
X125063334Y-116482762D01*
X124968096Y-116530381D01*
X124682381Y-116530381D01*
X124587143Y-116482762D01*
X124539524Y-116435143D01*
X125587143Y-116530381D02*
X125587143Y-115863714D01*
X125587143Y-115958952D02*
X125634762Y-115911333D01*
X125730000Y-115863714D01*
X125872858Y-115863714D01*
X125968096Y-115911333D01*
X126015715Y-116006571D01*
X126015715Y-116530381D01*
X126015715Y-116006571D02*
X126063334Y-115911333D01*
X126158572Y-115863714D01*
X126301429Y-115863714D01*
X126396667Y-115911333D01*
X126444286Y-116006571D01*
X126444286Y-116530381D01*
X126920476Y-116530381D02*
X126920476Y-115863714D01*
X126920476Y-115958952D02*
X126968095Y-115911333D01*
X127063333Y-115863714D01*
X127206191Y-115863714D01*
X127301429Y-115911333D01*
X127349048Y-116006571D01*
X127349048Y-116530381D01*
X127349048Y-116006571D02*
X127396667Y-115911333D01*
X127491905Y-115863714D01*
X127634762Y-115863714D01*
X127730000Y-115911333D01*
X127777619Y-116006571D01*
X127777619Y-116530381D01*
X123587143Y-111847381D02*
X124206191Y-111847381D01*
X123872857Y-112228333D01*
X124015715Y-112228333D01*
X124110953Y-112275952D01*
X124158572Y-112323571D01*
X124206191Y-112418810D01*
X124206191Y-112656905D01*
X124158572Y-112752143D01*
X124110953Y-112799762D01*
X124015715Y-112847381D01*
X123730000Y-112847381D01*
X123634762Y-112799762D01*
X123587143Y-112752143D01*
X124825238Y-111847381D02*
X124920477Y-111847381D01*
X125015715Y-111895000D01*
X125063334Y-111942619D01*
X125110953Y-112037857D01*
X125158572Y-112228333D01*
X125158572Y-112466429D01*
X125110953Y-112656905D01*
X125063334Y-112752143D01*
X125015715Y-112799762D01*
X124920477Y-112847381D01*
X124825238Y-112847381D01*
X124730000Y-112799762D01*
X124682381Y-112752143D01*
X124634762Y-112656905D01*
X124587143Y-112466429D01*
X124587143Y-112228333D01*
X124634762Y-112037857D01*
X124682381Y-111942619D01*
X124730000Y-111895000D01*
X124825238Y-111847381D01*
X125587143Y-112847381D02*
X125587143Y-112180714D01*
X125587143Y-112275952D02*
X125634762Y-112228333D01*
X125730000Y-112180714D01*
X125872858Y-112180714D01*
X125968096Y-112228333D01*
X126015715Y-112323571D01*
X126015715Y-112847381D01*
X126015715Y-112323571D02*
X126063334Y-112228333D01*
X126158572Y-112180714D01*
X126301429Y-112180714D01*
X126396667Y-112228333D01*
X126444286Y-112323571D01*
X126444286Y-112847381D01*
X126920476Y-112847381D02*
X126920476Y-112180714D01*
X126920476Y-112275952D02*
X126968095Y-112228333D01*
X127063333Y-112180714D01*
X127206191Y-112180714D01*
X127301429Y-112228333D01*
X127349048Y-112323571D01*
X127349048Y-112847381D01*
X127349048Y-112323571D02*
X127396667Y-112228333D01*
X127491905Y-112180714D01*
X127634762Y-112180714D01*
X127730000Y-112228333D01*
X127777619Y-112323571D01*
X127777619Y-112847381D01*
M02*
