G04 #@! TF.FileFunction,Profile,NP*
%FSLAX46Y46*%
G04 Gerber Fmt 4.6, Leading zero omitted, Abs format (unit mm)*
G04 Created by KiCad (PCBNEW 4.0.7) date 12/03/19 23:34:14*
%MOMM*%
%LPD*%
G01*
G04 APERTURE LIST*
%ADD10C,0.100000*%
%ADD11C,0.150000*%
G04 APERTURE END LIST*
D10*
D11*
X146685000Y-78740000D02*
X151765000Y-78740000D01*
X146685000Y-101600000D02*
X146685000Y-78740000D01*
X141605000Y-102870000D02*
X145415000Y-102870000D01*
X145415000Y-102870000D02*
G75*
G03X146685000Y-101600000I0J1270000D01*
G01*
X136525000Y-104140000D02*
X136525000Y-108585000D01*
X140970000Y-102870000D02*
X137795000Y-102870000D01*
X137795000Y-102870000D02*
G75*
G03X136525000Y-104140000I0J-1270000D01*
G01*
X140970000Y-102870000D02*
X141605000Y-102870000D01*
X111760000Y-75565000D02*
G75*
G03X111760000Y-75565000I-1905000J0D01*
G01*
X199390000Y-66675000D02*
X199390000Y-52705000D01*
X113030000Y-59055000D02*
X113030000Y-62230000D01*
X100330000Y-59055000D02*
X113030000Y-59055000D01*
X104775000Y-48260000D02*
G75*
G03X100330000Y-52705000I0J-4445000D01*
G01*
X100330000Y-59055000D02*
X100330000Y-52705000D01*
X104775000Y-48260000D02*
X194945000Y-48260000D01*
X100330000Y-71755000D02*
X100330000Y-74930000D01*
X113030000Y-71755000D02*
X113030000Y-62230000D01*
X113030000Y-71755000D02*
X100330000Y-71755000D01*
X199390000Y-74295000D02*
X199390000Y-66675000D01*
X194945000Y-78740000D02*
X151765000Y-78740000D01*
X194945000Y-78740000D02*
G75*
G03X199390000Y-74295000I0J4445000D01*
G01*
X136525000Y-108585000D02*
X136525000Y-109220000D01*
X136525000Y-114935000D02*
X136525000Y-109220000D01*
X100330000Y-132080000D02*
X100330000Y-74930000D01*
X136525000Y-136525000D02*
G75*
G03X136525000Y-114935000I-10795000J10795000D01*
G01*
X114935000Y-136525000D02*
X104775000Y-136525000D01*
X100330000Y-132080000D02*
G75*
G03X104775000Y-136525000I4445000J0D01*
G01*
X114935000Y-136525000D02*
G75*
G03X136525000Y-136525000I10795000J10795000D01*
G01*
X199390000Y-52705000D02*
G75*
G03X194945000Y-48260000I-4445000J0D01*
G01*
M02*
