G04 #@! TF.FileFunction,Soldermask,Bot*
%FSLAX46Y46*%
G04 Gerber Fmt 4.6, Leading zero omitted, Abs format (unit mm)*
G04 Created by KiCad (PCBNEW 4.0.7) date 12/19/19 18:47:52*
%MOMM*%
%LPD*%
G01*
G04 APERTURE LIST*
%ADD10C,0.100000*%
%ADD11R,2.000000X2.000000*%
%ADD12O,2.000000X2.000000*%
%ADD13R,2.100000X2.100000*%
%ADD14O,2.100000X2.100000*%
%ADD15C,5.400000*%
%ADD16C,2.000000*%
%ADD17R,2.200000X2.200000*%
%ADD18C,2.200000*%
%ADD19C,1.920000*%
%ADD20R,1.920000X1.920000*%
%ADD21C,1.924000*%
G04 APERTURE END LIST*
D10*
D11*
X117475000Y-76835000D03*
D12*
X125095000Y-99695000D03*
X117475000Y-79375000D03*
X125095000Y-97155000D03*
X117475000Y-81915000D03*
X125095000Y-94615000D03*
X117475000Y-84455000D03*
X125095000Y-92075000D03*
X117475000Y-86995000D03*
X125095000Y-89535000D03*
X117475000Y-89535000D03*
X125095000Y-86995000D03*
X117475000Y-92075000D03*
X125095000Y-84455000D03*
X117475000Y-94615000D03*
X125095000Y-81915000D03*
X117475000Y-97155000D03*
X125095000Y-79375000D03*
X117475000Y-99695000D03*
X125095000Y-76835000D03*
D13*
X107315000Y-132080000D03*
D14*
X104775000Y-132080000D03*
X107315000Y-129540000D03*
X104775000Y-129540000D03*
X107315000Y-127000000D03*
X104775000Y-127000000D03*
X107315000Y-124460000D03*
X104775000Y-124460000D03*
X107315000Y-121920000D03*
X104775000Y-121920000D03*
X107315000Y-119380000D03*
X104775000Y-119380000D03*
X107315000Y-116840000D03*
X104775000Y-116840000D03*
X107315000Y-114300000D03*
X104775000Y-114300000D03*
X107315000Y-111760000D03*
X104775000Y-111760000D03*
X107315000Y-109220000D03*
X104775000Y-109220000D03*
X107315000Y-106680000D03*
X104775000Y-106680000D03*
X107315000Y-104140000D03*
X104775000Y-104140000D03*
X107315000Y-101600000D03*
X104775000Y-101600000D03*
X107315000Y-99060000D03*
X104775000Y-99060000D03*
X107315000Y-96520000D03*
X104775000Y-96520000D03*
X107315000Y-93980000D03*
X104775000Y-93980000D03*
X107315000Y-91440000D03*
X104775000Y-91440000D03*
X107315000Y-88900000D03*
X104775000Y-88900000D03*
X107315000Y-86360000D03*
X104775000Y-86360000D03*
X107315000Y-83820000D03*
X104775000Y-83820000D03*
D15*
X195580000Y-74930000D03*
X104140000Y-74930000D03*
D16*
X139065000Y-73025000D03*
X134065000Y-73025000D03*
X123825000Y-73025000D03*
X118825000Y-73025000D03*
X180975000Y-60325000D03*
D12*
X180975000Y-70485000D03*
D16*
X177165000Y-60325000D03*
D12*
X177165000Y-70485000D03*
D16*
X173355000Y-60325000D03*
D12*
X173355000Y-70485000D03*
D16*
X169545000Y-60325000D03*
D12*
X169545000Y-70485000D03*
D16*
X165735000Y-60325000D03*
D12*
X165735000Y-70485000D03*
D16*
X161925000Y-60325000D03*
D12*
X161925000Y-70485000D03*
D16*
X158115000Y-60325000D03*
D12*
X158115000Y-70485000D03*
D16*
X154305000Y-60325000D03*
D12*
X154305000Y-70485000D03*
D11*
X132715000Y-76835000D03*
D12*
X140335000Y-99695000D03*
X132715000Y-79375000D03*
X140335000Y-97155000D03*
X132715000Y-81915000D03*
X140335000Y-94615000D03*
X132715000Y-84455000D03*
X140335000Y-92075000D03*
X132715000Y-86995000D03*
X140335000Y-89535000D03*
X132715000Y-89535000D03*
X140335000Y-86995000D03*
X132715000Y-92075000D03*
X140335000Y-84455000D03*
X132715000Y-94615000D03*
X140335000Y-81915000D03*
X132715000Y-97155000D03*
X140335000Y-79375000D03*
X132715000Y-99695000D03*
X140335000Y-76835000D03*
D17*
X180975000Y-50800000D03*
D18*
X180975000Y-53340000D03*
D17*
X163195000Y-50800000D03*
D18*
X163195000Y-53340000D03*
D17*
X154305000Y-50800000D03*
D18*
X154305000Y-53340000D03*
D17*
X145415000Y-50800000D03*
D18*
X145415000Y-53340000D03*
D17*
X136525000Y-50800000D03*
D18*
X136525000Y-53340000D03*
D17*
X127635000Y-50800000D03*
D18*
X127635000Y-53340000D03*
D17*
X118745000Y-50800000D03*
D18*
X118745000Y-53340000D03*
D17*
X172085000Y-50800000D03*
D18*
X172085000Y-53340000D03*
D16*
X128905000Y-88265000D03*
D12*
X128905000Y-78105000D03*
D16*
X115570000Y-62865000D03*
X115570000Y-67865000D03*
D13*
X128905000Y-97155000D03*
D14*
X128905000Y-99695000D03*
D11*
X120015000Y-69215000D03*
D12*
X137795000Y-61595000D03*
X122555000Y-69215000D03*
X135255000Y-61595000D03*
X125095000Y-69215000D03*
X132715000Y-61595000D03*
X127635000Y-69215000D03*
X130175000Y-61595000D03*
X130175000Y-69215000D03*
X127635000Y-61595000D03*
X132715000Y-69215000D03*
X125095000Y-61595000D03*
X135255000Y-69215000D03*
X122555000Y-61595000D03*
X137795000Y-69215000D03*
X120015000Y-61595000D03*
D13*
X113030000Y-79375000D03*
D14*
X113030000Y-81915000D03*
X113030000Y-84455000D03*
X113030000Y-86995000D03*
X113030000Y-89535000D03*
X113030000Y-92075000D03*
X113030000Y-94615000D03*
X113030000Y-97155000D03*
X113030000Y-99695000D03*
D13*
X142240000Y-64135000D03*
D14*
X142240000Y-66675000D03*
D19*
X127635000Y-104775000D03*
X125095000Y-104775000D03*
D20*
X130175000Y-104775000D03*
D21*
X130730000Y-125857000D03*
X120730000Y-125730000D03*
X118230000Y-125730000D03*
X133230000Y-125857000D03*
M02*
